/* XPM */
static char *ae[] = {
/* columns rows colors chars-per-pixel */
"16 16 109 2 ",
"   c None",
".  c black",
"X  c #0B0B0B",
"o  c #0F0F0E",
"O  c #131313",
"+  c #181919",
"@  c #1E1E1E",
"#  c #232323",
"$  c gray16",
"%  c #2C2C2C",
"&  c gray18",
"*  c #2F2F2F",
"=  c #323232",
"-  c #343434",
";  c #353535",
":  c #393939",
">  c gray24",
",  c #004100",
"<  c #004700",
"1  c #004D00",
"2  c #005300",
"3  c #005900",
"4  c #005D00",
"5  c #006300",
"6  c #006900",
"7  c #006D00",
"8  c #007300",
"9  c #007500",
"0  c #007900",
"q  c #007D00",
"w  c gray26",
"e  c #464646",
"r  c #4B4B4B",
"t  c #505050",
"y  c #ED0000",
"u  c #EF0000",
"i  c #F10000",
"p  c #F30000",
"a  c #F50000",
"s  c #F70000",
"d  c #F90000",
"f  c #FB0000",
"g  c #FD0000",
"h  c red",
"j  c #F93A3A",
"k  c #FA3F3F",
"l  c #FA4444",
"z  c #FB4545",
"x  c #FB4949",
"c  c #FB4A49",
"v  c #FC4A4B",
"b  c #FC4F4F",
"n  c #FD4F50",
"m  c #FD5353",
"M  c #F95455",
"N  c #FD5454",
"B  c #F95858",
"V  c #FE5858",
"C  c #FE5959",
"Z  c #FA5D5D",
"A  c #FE5C5C",
"S  c #FE5F5F",
"D  c #FB6162",
"F  c #FC6666",
"G  c #FC6A6A",
"H  c #FD6F6F",
"J  c #FE7273",
"K  c #FE7676",
"L  c #FE7777",
"P  c #FE7979",
"I  c #FF7B7A",
"U  c #FF7B7B",
"Y  c #2CA62C",
"T  c #31A931",
"R  c #37AB37",
"E  c #3DAE3D",
"W  c #42B142",
"Q  c #47B347",
"!  c #49B249",
"~  c #4CB64C",
"^  c #4EB44E",
"/  c #51B751",
"(  c #53B753",
")  c #54BA54",
"_  c #58B957",
"`  c #5CBB5C",
"'  c #61BE60",
"]  c #65C065",
"[  c #69C269",
"{  c #6DC36D",
"}  c #70C571",
"|  c #74C774",
" . c gray81",
".. c gray82",
"X. c #D5D5D5",
"o. c #D7D7D7",
"O. c gray95",
"+. c #F3F3F3",
"@. c #F4F4F4",
"#. c #F4F5F5",
"$. c gray96",
"%. c #F6F6F6",
"&. c #F7F7F7",
"*. c #F8F8F8",
"=. c #F9F9F9",
"-. c gray98",
";. c #FBFBFB",
":. c gray99",
">. c #FDFDFD",
/* pixels */
"                                ",
"                                ",
"                                ",
"h h h h h q 0 9 8 7 6 5 4 3 2 1 ",
"h U U U K | } { [ ' ' ` _ / ^ < ",
"h U S A A ( / ~ ! W E R T Y ! , ",
"h U A A m >.:.;.;.;.&.&.&.&.&.o.",
"h K N N b ;.;.;.;.&.&.&.+.+.&.X.",
"h J m b x ;.;.&.&.&.&.+.+.+.@...",
"h H b v l ;.;.;.&.&.&.+.+.+.+...",
"d G x l k *.&.&.&.+.+.+.+.+.+. .",
"d F l k j = * $ # @ + O o X * . ",
"a D Z B M t r e w > : ; = * * . ",
"a p p y y . . . . . . . . . . . ",
"                                ",
"                                "
};
