/* XPM */
static char *af[] = {
/* columns rows colors chars-per-pixel */
"16 16 152 2 ",
"   c None",
".  c black",
"X  c #000101",
"o  c #0B0909",
"O  c #170000",
"+  c #001700",
"@  c #001B00",
"#  c #001F00",
"$  c #131313",
"%  c #151515",
"&  c gray9",
"*  c #191919",
"=  c #1B1B1B",
"-  c #002100",
";  c #002500",
":  c #002700",
">  c #002D00",
",  c #003300",
"<  c #003B00",
"1  c gray16",
"2  c #6F1500",
"3  c #004500",
"4  c #004D00",
"5  c #005300",
"6  c #006700",
"7  c #006D00",
"8  c #007500",
"9  c #505050",
"0  c gray34",
"q  c #585858",
"w  c #5F5F5F",
"e  c #656565",
"r  c gray40",
"t  c gray42",
"y  c #6D6D6D",
"u  c #6D6D6E",
"i  c gray43",
"p  c #717272",
"a  c gray45",
"s  c #747474",
"d  c #777777",
"f  c #787979",
"g  c #797A7A",
"h  c gray48",
"j  c #7E7E7E",
"k  c #CF0000",
"l  c #D30000",
"z  c #D70000",
"x  c #DB0000",
"c  c #DF0000",
"v  c #E10000",
"b  c #F50000",
"n  c #F90000",
"m  c #FD0000",
"M  c #FB0505",
"N  c #EB2323",
"B  c #ED2A2A",
"V  c #EE2B2B",
"C  c #EF3232",
"Z  c #F13939",
"A  c #F13C3C",
"S  c #925723",
"D  c #975E2A",
"F  c #9B6432",
"G  c #A0693A",
"H  c #A06E40",
"J  c #A47143",
"K  c #A9784A",
"L  c #AE7D53",
"P  c #ED4040",
"I  c #EE4646",
"U  c #F24040",
"Y  c #F34444",
"T  c #F04B4B",
"R  c #F44848",
"E  c #F54C4B",
"W  c #ED4F51",
"Q  c #F25252",
"!  c #F55050",
"~  c #F65454",
"^  c #F25858",
"/  c #F75959",
"(  c #F45E5F",
")  c #F85B5B",
"_  c #F96060",
"`  c #F96262",
"'  c #F36A69",
"]  c #FA6868",
"[  c #FA6869",
"{  c #FA6F6F",
"}  c #FB6F6F",
"|  c #E77B7A",
" . c #F17776",
".. c #F97676",
"X. c #FC7575",
"o. c #FB7C7C",
"O. c #0F9110",
"+. c #159514",
"@. c #159415",
"#. c #1D981D",
"$. c #1E981E",
"%. c #249D24",
"&. c #249C25",
"*. c #2D9E2D",
"=. c #319E31",
"-. c #2CA12C",
";. c #2DA12D",
":. c #31A031",
">. c #36A236",
",. c #36A336",
"<. c #35A535",
"1. c #36A535",
"2. c #3BA53B",
"3. c #3CAA3C",
"4. c #3EAA3D",
"5. c #42A942",
"6. c #45AF45",
"7. c #49AD49",
"8. c #50B04F",
"9. c #56B456",
"0. c #5DB85D",
"q. c #64BB64",
"w. c #6ABE6A",
"e. c #BF9775",
"r. c #E8807E",
"t. c #828383",
"y. c #848484",
"u. c #898989",
"i. c #8E8E8E",
"p. c #929292",
"a. c gray58",
"s. c gray59",
"d. c #969796",
"f. c gray60",
"g. c #F68385",
"h. c #F28785",
"j. c #FB8181",
"k. c #FC8686",
"l. c #FC8B8C",
"z. c #FD8F8F",
"x. c #EEA0A1",
"c. c #F4B2AF",
"v. c #EEB4B3",
"b. c #EEBDBB",
"n. c #EEC8C7",
"m. c #F4C1C3",
"M. c #F7C6C5",
"N. c #F0C9C8",
"B. c #F2C9C9",
"V. c #F8C9C9",
"C. c #F9CACA",
"Z. c #F7D3D2",
/* pixels */
"                                ",
"                                ",
"                                ",
"1 = = = & m M n n b b 2 8 7 6 6 ",
"& f.f.d.a.z.l.k.j.o...e.w.q.0.5 ",
"= f.t.j f X.} ] ` / ~ L 6.4.9.4 ",
"= a.j f s X.} V.M.g.E K 4.1.8.3 ",
"$ p.f a i [ V.h. .m.Y J 1.;.7.< ",
"o i.a i e ` Z.b.v.B.A F ;.%.5., ",
". u.i e w / c.B.n.x.C F -.#.2.> ",
". y.e w 0 ! ' r.| W V D $.@.1.: ",
". j w 0 9 R U Z C B N S @.O.:.- ",
". d a t e ( ^ Q T I P H ,.=.*.+ ",
". . . . . v c x z l k O : # @ : ",
"                                ",
"                                "
};
