/* XPM */
static char *ag[] = {
/* columns rows colors chars-per-pixel */
"16 16 147 2 ",
"   c None",
".  c black",
"X  c #390000",
"o  c #2B2C2D",
"O  c #302C2C",
"+  c #313131",
"@  c #393731",
"#  c #3A3937",
"$  c #7A2626",
"%  c #7F6F36",
"&  c #535353",
"*  c #585757",
"=  c #5A5854",
"-  c #5B5A59",
";  c #58595A",
":  c gray36",
">  c #614E4E",
",  c #645F5F",
"<  c #656560",
"1  c #7C7765",
"2  c #777777",
"3  c #787774",
"4  c #797979",
"5  c #7B7B7B",
"6  c #810000",
"7  c #AB0000",
"8  c #AD0000",
"9  c #B10000",
"0  c #B30000",
"q  c #B50000",
"w  c #B70000",
"e  c #B90000",
"r  c #BB0000",
"t  c #BD0000",
"y  c #B72D3B",
"u  c #C30000",
"i  c #C50000",
"p  c #C90000",
"a  c #CB0000",
"s  c #CF0000",
"d  c #D30000",
"f  c #D50000",
"g  c #D70000",
"h  c #D90000",
"j  c #DB0000",
"k  c #DD0000",
"l  c #DF0000",
"z  c #E50000",
"x  c #CA2424",
"c  c #D72B24",
"v  c #D82F28",
"b  c #D82F29",
"n  c #DA332C",
"m  c #DA342C",
"M  c #DA342E",
"N  c #DD3831",
"B  c #DF3932",
"V  c #DE3E37",
"C  c #E03931",
"Z  c #943F5A",
"A  c #B14949",
"S  c #A35C5C",
"D  c #8C7F51",
"F  c #AD5D72",
"G  c #8E7B7B",
"H  c #DB4741",
"J  c #DB4444",
"K  c #DD4B44",
"L  c #DD4D47",
"P  c #DE4D47",
"I  c #DE504B",
"U  c #DF544D",
"Y  c #E4544D",
"T  c #E4544F",
"R  c #E05550",
"E  c #E25954",
"W  c #E55954",
"Q  c #E75A54",
"!  c #E75E58",
"~  c #E75E59",
"^  c #E8625E",
"/  c #EC635E",
"(  c #CD5964",
")  c #D86060",
"_  c #DB6666",
"`  c #CE7B7A",
"'  c #E66762",
"]  c #E96761",
"[  c #E76B66",
"{  c #ED6C66",
"}  c #E86F6A",
"|  c #EE706A",
" . c #E9746F",
".. c #EA7773",
"X. c #EC7B76",
"o. c #EA7979",
"O. c #ED7F7A",
"+. c #DFBF3D",
"@. c #EAC83C",
"#. c #AE9842",
"$. c #B19D51",
"%. c #848071",
"&. c #B5B36B",
"*. c #ED837E",
"=. c #CCB969",
"-. c #CDBB6D",
";. c #DBC154",
":. c #E4C547",
">. c #E6C84C",
",. c #EACA4B",
"<. c #FADE42",
"1. c #FBDF47",
"2. c #4684CC",
"3. c #5E91CB",
"4. c #428AD9",
"5. c #4788D9",
"6. c #4D8CDA",
"7. c #518FDC",
"8. c #5D98D2",
"9. c #5692DD",
"0. c #5E9DDC",
"q. c #689CD7",
"w. c #639ED9",
"e. c #6DA3D5",
"r. c #67A1DA",
"t. c #6BA4DC",
"y. c #71A6D6",
"u. c #75A9D8",
"i. c #70A8DE",
"p. c #79ACDA",
"a. c #5B9AE1",
"s. c #74AAE1",
"d. c #7CAEE0",
"f. c #EE8582",
"g. c #F08984",
"h. c #E39999",
"j. c #C1BF80",
"k. c #E9A09F",
"l. c #83AFDD",
"z. c #EDCBCA",
"x. c #F0C9C9",
"c. c #F5ECEC",
"v. c #F4EEEE",
"b. c gray96",
"n. c #F6F6F6",
"m. c gray97",
"M. c #F8F8F8",
/* pixels */
"                                ",
"                                ",
"                                ",
"X . . . . . . . . . . . . . . . ",
"w G 5 5 2 3 %.=.=.1 < : - & > 6 ",
"z ` , : ; ;.$.,.:.#.+.# + O A 8 ",
"l o.S ; = %.@.<.<.@.% @ o $ J t ",
"l g.| l.p.j.p.u.y.e.&.8.3.V E e ",
"l f.{ ( q.a.9.9.6.5.4.2.y N R w ",
"h *.] / F s.t.t.r.w.0.Z N n I 0 ",
"h *.^ ! Q k.M.n.n.n.h.N n v P 0 ",
"g X.! W T T x.n.n.z.x n v c P 8 ",
"d .. .} [ ' _ c.v.) U I P K H 8 ",
"g s s i i u t e e 0 w 0 8 8 8 0 ",
"                                ",
"                                "
};
