/* XPM */
static char *ai[] = {
/* columns rows colors chars-per-pixel */
"16 16 161 2 ",
"   c None",
".  c #000036",
"X  c #000039",
"o  c #00003E",
"O  c #000041",
"+  c #000044",
"@  c #000049",
"#  c #00004F",
"$  c #000052",
"%  c #000057",
"&  c #00005A",
"*  c #00005F",
"=  c #000068",
"-  c #00006D",
";  c #000070",
":  c #000076",
">  c #00017E",
",  c #D2546D",
"<  c #F8D86B",
"1  c #F9DF7E",
"2  c #000B84",
"3  c #001289",
"4  c #001691",
"5  c #001B91",
"6  c #001E97",
"7  c #002297",
"8  c #002599",
"9  c #00279C",
"0  c #002EA2",
"q  c #004BB4",
"w  c #005BBA",
"e  c #005EBB",
"r  c #115BB9",
"t  c #2B60B7",
"y  c #2C76B7",
"u  c #2975BE",
"i  c #5F5AA6",
"p  c #4E64B4",
"a  c #5D68B6",
"s  c #347FC3",
"d  c #A95681",
"f  c #B05981",
"g  c #C96C89",
"h  c #5A86B8",
"j  c #2D80C4",
"k  c #3081C5",
"l  c #3385C6",
"z  c #3A84C2",
"x  c #3A86C5",
"c  c #3F88C6",
"v  c #3F89C7",
"b  c #398BC8",
"n  c #4A86C4",
"m  c #4189C7",
"M  c #448DC8",
"N  c #458EC8",
"B  c #4791C7",
"V  c #4691C9",
"C  c #4692CA",
"Z  c #4A91C9",
"A  c #4B91C9",
"S  c #4892CA",
"D  c #4C92C8",
"F  c #4E94C9",
"G  c #4C95CB",
"H  c #4D95CB",
"J  c #4F95CA",
"K  c #4C96CC",
"L  c #5695C7",
"P  c #5295CB",
"I  c #5096CB",
"U  c #5098CC",
"Y  c #5199CC",
"T  c #5398CC",
"R  c #5299CD",
"E  c #5298CE",
"W  c #549ACC",
"Q  c #569BCC",
"!  c #5499CE",
"~  c #559BCE",
"^  c #579BCE",
"/  c #559CCE",
"(  c #569CCE",
")  c #589DCF",
"_  c #5A9DCE",
"`  c #5B9DCE",
"'  c #599ECF",
"]  c #5C9DCE",
"[  c #5A9ED0",
"{  c #5DA0CF",
"}  c #5FA0CF",
"|  c #5CA0D1",
" . c #5DA0D1",
".. c #66A0CF",
"X. c #62A1D0",
"o. c #62A2D0",
"O. c #62A3D3",
"+. c #65A4D2",
"@. c #66A4D2",
"#. c #68A5D3",
"$. c #6AA6D3",
"%. c #6BA6D4",
"&. c #6AA7D4",
"*. c #6EA9D4",
"=. c #71A8D4",
"-. c #71ABD6",
";. c #74ACD6",
":. c #75ACD7",
">. c #77ADD7",
",. c #79AED8",
"<. c #7BB0D9",
"1. c #7CB1D9",
"2. c #7FB0D9",
"3. c #7DB2D9",
"4. c #4AB4E6",
"5. c #4DB6E5",
"6. c #55B5E3",
"7. c #61BBE6",
"8. c #64BDE6",
"9. c #68BFE7",
"0. c #AD839E",
"q. c #B0809A",
"w. c #919BBD",
"e. c #B090AA",
"r. c #EF8188",
"t. c #FE8186",
"y. c #FF878B",
"u. c #FF8A8E",
"i. c #F88890",
"p. c #E5939D",
"a. c #FB9195",
"s. c #FC9095",
"d. c #FF9498",
"f. c #DF94A1",
"g. c #EAA0AA",
"h. c #FFAAAE",
"j. c #FFADB0",
"k. c #F7B1BA",
"l. c #F4B4BD",
"z. c #FFBEBF",
"x. c #F7E296",
"c. c #F5E5A7",
"v. c #F6E6A7",
"b. c #88A8CE",
"n. c #81B3DB",
"m. c #9EB1D2",
"M. c #F5BAC2",
"N. c #9EC7EA",
"B. c #97CDEF",
"V. c #A7CAEA",
"C. c #AED4F2",
"Z. c #D4CADC",
"A. c #FFC5CA",
"S. c #F9DCE5",
"D. c #FFE5EF",
"F. c #F9EEED",
"G. c #F9EFEF",
"H. c #EDF3F8",
"J. c #FDF6F5",
"K. c #F0F5FA",
"L. c #FEFAF9",
/* pixels */
"                                ",
"                                ",
"                                ",
"a r e d f w n g 8 6 4 3 2 > : ; ",
"t S.C.M.k.V.A.N.1.,.;.=.%.#.+.= ",
", h.d.y.t.u.i.r...` #.1.>.{ o.* ",
"i Z.z.s.a.j.g.e.] E K.G.G.H.` % ",
"q D.m.f.p.B.l.h ^ K v.1 L.x.^ $ ",
"p b.z 0.0.y L w.P V c.J.< c.^ @ ",
"0 n.O. .` / E G V m 7.9.8.6.P + ",
"9 3.| / T Y K V N v b 5.4.j F o ",
"7 1.{ / E F V M m x s l k u A X ",
"5 >.-.*.#.+.o...` Q T F D A B . ",
"3 2 > : - = * & $ # @ + o X . . ",
"                                ",
"                                "
};
