/* XPM */
static char *al[] = {
/* columns rows colors chars-per-pixel */
"16 16 153 2 ",
"   c None",
".  c #2F2F2F",
"X  c #3D2725",
"o  c #373636",
"O  c #3F3736",
"+  c gray24",
"@  c #3E3D3E",
"#  c #403F3E",
"$  c #473E3D",
"%  c #543C3A",
"&  c #65312D",
"*  c #643A34",
"=  c #6E3A36",
"-  c #723935",
";  c #713A34",
":  c #434343",
">  c #444444",
",  c gray27",
"<  c gray29",
"1  c #5B4644",
"2  c #5F4D4C",
"3  c #505151",
"4  c #555150",
"5  c #565656",
"6  c #5B5252",
"7  c #5F5858",
"8  c #5E5D5D",
"9  c #704743",
"0  c #795654",
"q  c #795B59",
"w  c #950000",
"e  c #9D0000",
"r  c #9F0000",
"t  c #A30000",
"y  c #A70000",
"u  c #A90000",
"i  c #AD0000",
"p  c #AF0000",
"a  c #B10000",
"s  c #B70000",
"d  c #B90000",
"f  c #BB0000",
"g  c #BD0000",
"h  c #953931",
"j  c #C10000",
"k  c #C30000",
"l  c #C50000",
"z  c #C70000",
"x  c #C90000",
"c  c #CD0000",
"v  c #CF0000",
"b  c #D10000",
"n  c #D30000",
"m  c #D50000",
"M  c #D70000",
"N  c #D70100",
"B  c #D50700",
"V  c #D70700",
"C  c #DB0000",
"Z  c #DB0500",
"A  c #D30900",
"S  c #D70900",
"D  c #D42B1B",
"F  c #D52E1F",
"G  c #D63324",
"H  c #D53425",
"J  c #D73425",
"K  c #D6392B",
"L  c #D8392A",
"P  c #D9392A",
"I  c #D8392B",
"U  c #CF3D30",
"Y  c #DB3E30",
"T  c #DA3F31",
"R  c #C84135",
"E  c #CF4235",
"W  c #D94032",
"Q  c #D84638",
"!  c #DA4638",
"~  c #DC4538",
"^  c #D9493B",
"/  c #D9493C",
"(  c #DC4C3F",
")  c #DE4C3E",
"_  c #804B48",
"`  c #AB4841",
"'  c #B74A40",
"]  c #B35B53",
"[  c #8F635F",
"{  c #B3635C",
"}  c #906C69",
"|  c #80706F",
" . c #8D7E7C",
".. c #BA6A63",
"X. c #DB4B40",
"o. c #DB4D40",
"O. c #D35247",
"+. c #DB5043",
"@. c #DD5044",
"#. c #DD5447",
"$. c #DD5549",
"%. c #DF584B",
"&. c #DE5A4E",
"*. c #C45C52",
"=. c #D35D53",
"-. c #E45042",
";. c #E05245",
":. c #E15447",
">. c #E3594D",
",. c #E15B50",
"<. c #E35C51",
"1. c #E35F53",
"2. c #DD6459",
"3. c #E06053",
"4. c #E66053",
"5. c #E26055",
"6. c #E26458",
"7. c #E2655B",
"8. c #E56559",
"9. c #E3695E",
"0. c #E36A5F",
"q. c #E76A5F",
"w. c #C36F68",
"e. c #E56E63",
"r. c #E56F65",
"t. c #E96C60",
"y. c #E86F65",
"u. c #EC7066",
"i. c #E77368",
"p. c #E5756B",
"a. c #E7746A",
"s. c #E6776E",
"d. c #E87469",
"f. c #ED756A",
"g. c #E8796F",
"h. c #EA786E",
"j. c #EE796F",
"k. c #E97B72",
"l. c #EB7D73",
"z. c #EF7E73",
"x. c #E97D74",
"c. c #EC8076",
"v. c #E3847B",
"b. c #E1877E",
"n. c #EA8278",
"m. c #EC857D",
"M. c #EC8A81",
"N. c #ED8E85",
"B. c #F18F87",
"V. c #EE9189",
"C. c #ED928A",
"Z. c #EF948C",
"A. c #F0978F",
/* pixels */
"                                ",
"                                ",
"                                ",
"A V S S Z N C n n n c x z j j d ",
"S A.Z.Z.Z.V. .b.v.| k.s.i.e.9.s ",
"S A.c.z.} p...7 6 ] <.9 ;.( 6.a ",
"V Z.l.j.w.8 5 4 2 , # ` ( ! 3.i ",
"N V.h.f.[ q 3 < , @ % ; ~ W &.i ",
"C B.d.y.{ 0 *.> @ ' * h W K $.a ",
"n M.y.t.2.=._ $ O ; R U I J @.u ",
"c m.t.8.1.1 O.o . E X I J F o.r ",
"c n.8.1.>.:.-.; & I I J F D / r ",
"c x.g.p.r.9.7.5.,.%.#.+.o.^ Q e ",
"x z z j g g s a i y y y t r e w ",
"                                ",
"                                "
};
