/* XPM */
static char *am[] = {
/* columns rows colors chars-per-pixel */
"16 16 156 2 ",
"   c None",
".  c #00005B",
"X  c #000063",
"o  c #E30000",
"O  c #E50000",
"+  c #E90000",
"@  c #EB0000",
"#  c #ED0000",
"$  c #EF0000",
"%  c #F10000",
"&  c #F30000",
"*  c #F50000",
"=  c #F70000",
"-  c #F70303",
";  c #FB0505",
":  c #F70909",
">  c #F90D0D",
",  c #FB1313",
"<  c #FB1515",
"1  c #FB2525",
"2  c #D74900",
"3  c #D74B00",
"4  c #D94F00",
"5  c #D75500",
"6  c #D95100",
"7  c #D95500",
"8  c #DD5500",
"9  c #D95900",
"0  c #DF5900",
"q  c #DF5D00",
"w  c #E16100",
"e  c #E36500",
"r  c #E76B00",
"t  c #E96F00",
"y  c #EB7300",
"u  c #ED7900",
"i  c #EF7D00",
"p  c #F45352",
"a  c #F45757",
"s  c #F55757",
"d  c #F55C5B",
"f  c #F55C5C",
"g  c #F6605F",
"h  c #F66161",
"j  c #F76464",
"k  c #F76565",
"l  c #F46A6A",
"z  c #F66F6F",
"x  c #F86868",
"c  c #F96D6D",
"v  c #F77373",
"b  c #F77676",
"n  c #FA7171",
"m  c #FB7575",
"M  c #FB7878",
"N  c #FB7979",
"B  c #F87A7A",
"V  c #FB7B7B",
"C  c #FB7B7C",
"Z  c #F87E7E",
"A  c #FC7E7E",
"S  c #F18300",
"D  c #F38900",
"F  c #F18D00",
"G  c #F79500",
"H  c #F59700",
"J  c #EEAC3B",
"K  c #EFAE3F",
"L  c #EFB043",
"P  c #F0B043",
"I  c #F0B247",
"U  c #F0B248",
"Y  c #F1B44B",
"T  c #F3B74F",
"R  c #EFB155",
"E  c #EFB357",
"W  c #EFB859",
"Q  c #F3B750",
"!  c #F4B954",
"~  c #F4B955",
"^  c #F1B35B",
"/  c #F2B55E",
"(  c #F1B95B",
")  c #F5BB59",
"_  c #F6BE5E",
"`  c #F2B861",
"'  c #F2B964",
"]  c #F3BB67",
"[  c #F5BD6B",
"{  c #F6BF6F",
"}  c #F7C062",
"|  c #F8C366",
" . c #F8C367",
".. c #F9C56B",
"X. c #FAC66F",
"o. c #F7C173",
"O. c #F7C377",
"+. c #F8C57B",
"@. c #F9C87F",
"#. c #03039B",
"$. c #09099B",
"%. c #0F0F9F",
"&. c #4242AD",
"*. c #4747AE",
"=. c #4646AF",
"-. c #4B4BB0",
";. c #4B4BB1",
":. c #5050B3",
">. c #5050B4",
",. c #5353B6",
"<. c #5455B5",
"1. c #5555B6",
"2. c #5858B7",
"3. c #5858B8",
"4. c #5959B8",
"5. c #5D5DB9",
"6. c #5D5DBA",
"7. c #5C5CBB",
"8. c #5E5EBA",
"9. c #6060B9",
"0. c #6161BC",
"q. c #6161BD",
"w. c #6262BD",
"e. c #6565BC",
"r. c #6666BE",
"t. c #6666BF",
"y. c #6666C0",
"u. c #6A6AC1",
"i. c #6B6BC1",
"p. c #6A6AC2",
"a. c #6F6EC3",
"s. c #6E6EC4",
"d. c #6F6FC4",
"f. c #7272C5",
"g. c #7272C6",
"h. c #7373C6",
"j. c #7676C7",
"k. c #7777C7",
"l. c #797AC9",
"z. c #F98181",
"x. c #FC8181",
"c. c #FA8484",
"v. c #FB8888",
"b. c #FC8B8B",
"n. c #FC8F8F",
"m. c #FC9191",
"M. c #FC9494",
"N. c #FC9595",
"B. c #FD9796",
"V. c #FD9797",
"C. c #FAC983",
"Z. c #FBCF86",
"A. c #FBD18A",
"S. c #8C8CD0",
"D. c #8F8FD1",
"F. c #9191D3",
/* pixels */
"                                ",
"                                ",
"                                ",
"1 < < < , > : - = = & & & # # @ ",
", V.B.V.M.M.n.b.c.c.z.A N b b @ ",
"< V.x.A N m m n c l k h f a z o ",
"; V.A N N m n c x k g d a p l o ",
"%.F.l.j.h.d.i.y.w.8.4.1.>.;.e.X ",
"$.D.j.f.s.p.e.w.8.2.1.:.;.*.9.. ",
"#.S.f.f.p.y.w.7.4.>.:.;.=.&.8.. ",
"G A.X... .] _ ) ~ Q Y U L K ( 7 ",
"G Z...| } _ ) ~ Q Y U P K J W 9 ",
"D C.@.+.O.o.{ [ ' ' ` / ^ E E 2 ",
"F S i u y y r e w q 0 8 6 4 2 5 ",
"                                ",
"                                "
};
