/* XPM */
static char *an[] = {
/* columns rows colors chars-per-pixel */
"16 16 113 2 ",
"   c None",
".  c #000025",
"X  c #00002D",
"o  c #000031",
"O  c #000073",
"+  c #000077",
"@  c #000079",
"#  c #D30000",
"$  c #D70000",
"%  c #D90000",
"&  c #EB0000",
"*  c #ED0000",
"=  c #EF0000",
"-  c #F41E1E",
";  c #F52323",
":  c #F52424",
">  c #F62929",
",  c #F62A2A",
"<  c #F72E2E",
"1  c #F72F2F",
"2  c #F83434",
"3  c #F53D3D",
"4  c #F93C3C",
"5  c #F64242",
"6  c #F74646",
"7  c #FA4142",
"8  c #FA4242",
"9  c #FB4747",
"0  c #F74B4B",
"q  c #FC4B4B",
"w  c #FC4C4C",
"e  c #FD5151",
"r  c #FC6565",
"t  c #FC6969",
"y  c #FD6D6D",
"u  c #FD7071",
"i  c #141497",
"p  c #191999",
"a  c #1A1A9C",
"s  c #1F1F9C",
"d  c #1F1F9E",
"f  c #20209E",
"g  c #24249D",
"h  c #2525A0",
"j  c #2525A1",
"k  c #2B2BA4",
"l  c #3636A6",
"z  c #3133AB",
"x  c #3636AB",
"c  c #3737AB",
"v  c #3637AC",
"b  c #3B3BA9",
"n  c #3F3FAB",
"m  c #3B3BAD",
"M  c #4040AB",
"N  c #4344B2",
"B  c #4545B0",
"V  c #4648B4",
"C  c #494AB2",
"Z  c #4B4AB4",
"A  c #4F4FB5",
"S  c #4F4FB6",
"D  c #504FB6",
"F  c #5050B7",
"G  c #5353B9",
"H  c #5454B8",
"J  c #5858BA",
"K  c #6F6FC3",
"L  c #7272C6",
"P  c #7676C7",
"I  c #8385CB",
"U  c #8C8ED0",
"Y  c #B6B6DD",
"T  c #B9BAE1",
"R  c #BBBCE2",
"E  c #CBCBCB",
"W  c #CFCDCD",
"Q  c gray81",
"!  c #D1CDCD",
"~  c #D7D7D7",
"^  c gray85",
"/  c #DDDDDD",
"(  c #DFDFDF",
")  c #CDCDE7",
"_  c #CFD0E9",
"`  c #D7D7ED",
"'  c #E1E1E1",
"]  c gray89",
"[  c gray90",
"{  c #E7E7E7",
"}  c #E9E7E7",
"|  c #E9E9E9",
" . c gray92",
".. c gray93",
"X. c #EFEFF1",
"o. c #F1F1F1",
"O. c gray95",
"+. c #F2F2F3",
"@. c #F3F3F3",
"#. c #F4F2F2",
"$. c #F4F4F4",
"%. c gray96",
"&. c #F6F6F6",
"*. c gray97",
"=. c #F8F8F8",
"-. c #F9F9F9",
";. c #FAFAFA",
":. c #FBFAFA",
">. c #FBFBFB",
",. c gray99",
"<. c #FDFDFD",
"1. c #FEFEFE",
"2. c white",
/* pixels */
"                                ",
"                                ",
"                                ",
"o.o.o.o.o.X.* * * * } { { ' ' ( ",
"o.2.2.2.2.,.u y t r -.-.-.=.*.( ",
"o.2.2.2.2.,.e w q 8 -.*.*.*.*.~ ",
"o.2.2.2.,.2.q 9 7 4 *.*.*.*.*.~ ",
"@ P H H D F B R T x b k f f n o ",
"+ L G A Z ` N m x z Y j s a b X ",
"O K A Z M n U _ ) I g s p i x . ",
"..,.2.-.2.-.2 < , : $.$.o.@.o.Q ",
" .,.-.-.-.=.< , ; - #.o.o.o.o.E ",
" .-.>.-.-.=.0 9 5 3 o.$.*.o.#.E ",
"{ ] ] ' ( ( % # % # ! ! E E E E ",
"                                ",
"                                "
};
