/* XPM */
static char *ao[] = {
/* columns rows colors chars-per-pixel */
"16 16 115 2 ",
"   c None",
".  c gray11",
"X  c #1D1D1D",
"o  c #1E1E1E",
"O  c gray12",
"+  c #202020",
"@  c gray13",
"#  c #222222",
"$  c #232323",
"%  c gray15",
"&  c #282828",
"*  c #2A2A2A",
"=  c gray17",
"-  c #2C2C2C",
";  c #2D2D2D",
":  c gray18",
">  c #2F2F2F",
",  c gray19",
"<  c #313131",
"1  c #323232",
"2  c gray20",
"3  c #343434",
"4  c #353535",
"5  c gray21",
"6  c #373737",
"7  c gray22",
"8  c #393939",
"9  c #3A3A3A",
"0  c gray23",
"q  c #3C3C3C",
"w  c gray24",
"e  c #3F3F3F",
"r  c #6D6D2F",
"t  c #7F7F31",
"y  c gray25",
"u  c #434343",
"i  c #882626",
"p  c #A32727",
"a  c #A52727",
"s  c #A82727",
"d  c #AB2727",
"f  c #B12727",
"g  c #B52828",
"h  c #B82828",
"j  c #BA2828",
"k  c #BE2828",
"l  c #BF2929",
"z  c #C32828",
"x  c #C42828",
"c  c #C62828",
"v  c #C72828",
"b  c #CC2929",
"n  c #CE2929",
"m  c #EB2727",
"M  c #EB2B2B",
"N  c #EC3131",
"B  c #EC3232",
"V  c #EC3434",
"C  c #ED3838",
"Z  c #ED3A3A",
"A  c #ED3C3C",
"S  c #ED3F3F",
"D  c #807F2B",
"F  c #ED4141",
"G  c #EE4545",
"H  c #EE4747",
"J  c #EE4F47",
"K  c #EE4848",
"L  c #EE4C4C",
"P  c #EF5A40",
"I  c #EF5050",
"U  c #EF5353",
"Y  c #EF5555",
"T  c #F05959",
"R  c #F05B5B",
"E  c #F05E5E",
"W  c #F0645F",
"Q  c #F06859",
"!  c #F06060",
"~  c #F06160",
"^  c #F06262",
"/  c #F16464",
"(  c #F16666",
")  c #F16969",
"_  c #F16D6D",
"`  c #F26F6F",
"'  c #F27373",
"]  c #F27676",
"[  c #F37C7C",
"{  c #F37F7F",
"}  c #83812D",
"|  c #858530",
" . c #ADAD2F",
".. c #B9B72E",
"X. c #F3B039",
"o. c #C8C82C",
"O. c #CCCC2C",
"+. c #D8D52B",
"@. c #F4D02E",
"#. c #F4C131",
"$. c #F4C835",
"%. c #F5D730",
"&. c #F5D831",
"*. c #E6E32C",
"=. c #F5E62E",
"-. c #F6F12B",
";. c #F6F22B",
":. c #F18446",
">. c #F18151",
",. c #F38181",
"<. c #F38383",
"1. c #F48585",
"2. c #F48787",
"3. c #F48989",
"4. c #F48A8A",
/* pixels */
"                                ",
"                                ",
"                                ",
"n n n n b x x x z l l j j g f g ",
"n 4.4.2.2.<.>.4.] ] ` ) _ ! R s ",
"b 4._ _ ( ( Q Q -.Q L H G S Y s ",
"b 2._ ) ( W Q -.$.-.K S Z V I a ",
"c <.( ^ E T %.I J #.A C N M K p ",
"l >./ E R U X.%.P @.C N M m G i ",
": u 0 9 7  .t ..*.r > : ; ; 3 @ ",
"% u 7 4 4 } O.o.} +.; ; * & > . ",
"# e 4 4 3 3 < > ; ; D & & & > . ",
"# q q 9 7 7 4 4 4 3 < < > > > . ",
"# # # + @ @ @ X X O X X . . . . ",
"                                ",
"                                "
};
