/* XPM */
static char *ar[] = {
/* columns rows colors chars-per-pixel */
"16 16 150 2 ",
"   c None",
".  c #F5E246",
"X  c #F6E44B",
"o  c #F5E25B",
"O  c #F6E361",
"+  c #F6E568",
"@  c #F7E668",
"#  c #F8E66C",
"$  c #FAEB75",
"%  c #0081DD",
"&  c #0083DD",
"*  c #0081DF",
"=  c #0087DD",
"-  c #0087DF",
";  c #0089DD",
":  c #008BE1",
">  c #008FE3",
",  c #0091E5",
"<  c #0093E7",
"1  c #0097E9",
"2  c #0099E9",
"3  c #009DEB",
"4  c #039FED",
"5  c #0BA3ED",
"6  c #13A7EF",
"7  c #19A9EF",
"8  c #19ABF1",
"9  c #21AFF3",
"0  c #27B1F5",
"q  c #2BB3F7",
"w  c #2DB3F7",
"e  c #29B5F9",
"r  c #33B5F5",
"t  c #35B7F9",
"y  c #39B9FB",
"u  c #3FBDFD",
"i  c #43BDFD",
"p  c #43BFFF",
"a  c #5FBFF1",
"s  c #45C1FD",
"d  c #4BC3FD",
"f  c #4BC3FF",
"g  c #4DC3FF",
"h  c #59C7FF",
"j  c #62C1F1",
"k  c #66C3F2",
"l  c #69C5F3",
"z  c #6DC7F4",
"x  c #77C8F2",
"c  c #71C9F5",
"v  c #75CBF6",
"b  c #77CCF6",
"n  c #7BCAF2",
"m  c #7CCAF2",
"M  c #7FCCF3",
"N  c #78CCF7",
"B  c #7BCEF7",
"V  c #7CCEF8",
"C  c #7FD0F8",
"Z  c #F6EEAB",
"A  c #F8F0B1",
"S  c #F9F1B3",
"D  c #FBF3B9",
"F  c #96BDCE",
"G  c #9FC2D5",
"H  c #82CDF3",
"J  c #84CFF4",
"K  c #86D0F5",
"L  c #8AD2F6",
"P  c #8AD3F7",
"I  c #8DD3F7",
"U  c #80D0F9",
"Y  c #82D2F9",
"T  c #83D2FA",
"R  c #86D3FA",
"E  c #87D4FA",
"W  c #8AD5FB",
"Q  c #8ED7FC",
"!  c #90D5F7",
"~  c #93D7F7",
"^  c #93D7F8",
"/  c #96D8F8",
"(  c #96D8F9",
")  c #90D8FD",
"_  c #93DAFD",
"`  c #96DBFE",
"'  c #99D9F9",
"]  c #99DAF9",
"[  c #9BDBFA",
"{  c #9CDBFA",
"}  c #9EDDFB",
"|  c #9FDDFB",
" . c #98DCFE",
".. c #9ADDFE",
"X. c #9EDDFC",
"o. c #BFDAE7",
"O. c #A1DDFC",
"+. c #A4DFFC",
"@. c #A7E0FD",
"#. c #A9E2FE",
"$. c #ABE2FE",
"%. c #ABE2FF",
"&. c #ADE3FE",
"*. c #AEE4FE",
"=. c #B0E4FF",
"-. c gray82",
";. c LightGray",
":. c #D5D5D5",
">. c #C2DCEB",
",. c #D2E6F2",
"<. c #D4E8F2",
"1. c #D5E9F3",
"2. c #D6EAF4",
"3. c #D8EAF3",
"4. c #D8ECF5",
"5. c #DAECF6",
"6. c #DAEDF6",
"7. c #DBEEF7",
"8. c #DDEDF6",
"9. c #DCEDF7",
"0. c #DDEFF8",
"q. c #DFF0F9",
"w. c #DEF1F9",
"e. c #DFF1FA",
"r. c #E9E9E9",
"t. c #E0F1FA",
"y. c #E0F2FB",
"u. c #E2F2FB",
"i. c #E3F3FB",
"p. c #E2F4FC",
"a. c #E3F4FD",
"s. c #E5F5FD",
"d. c #E5F6FE",
"f. c #E6F6FE",
"g. c #E9F6FC",
"h. c #EBF8FE",
"j. c gray95",
"k. c #F3F3F3",
"l. c #F4F4F4",
"z. c #F4F5F5",
"x. c gray96",
"c. c #F6F6F6",
"v. c gray97",
"b. c gray98",
"n. c #FBFBFB",
"m. c #FBFCFB",
"M. c gray99",
"N. c #FDFCFD",
"B. c #FDFDFD",
"V. c #FEFEFE",
/* pixels */
"                                ",
"                                ",
"                                ",
"h g g g f s p u y t w 0 9 8 6 7 ",
"f =.=.*.&.%.@.@.@.O.X.[ ' / ~ 3 ",
"p %...` ` _ _ Q W E Y C B b P 1 ",
">.h.f.f.f.i.p.y.w.w.8.6.6.2.8.G ",
"r.V.V.V.M.M.D # + A b.x.x.x.x.:.",
"r.V.V.N.n.n.$ X . + x.x.l.j.l.;.",
"r.V.n.n.n.b.S O o Z x.l.l.j.l.-.",
"o.g.i.i.i.0.0.0.6.4.2.1.,.,.2.F ",
"e X.E T Y N N v c z l k j a x : ",
"e | | / ^ ^ I I P K J H H m n % ",
"r 9 8 6 5 5 3 2 , , > : & = & = ",
"                                ",
"                                "
};
