/* XPM */
static char *as[] = {
/* columns rows colors chars-per-pixel */
"16 16 162 2 ",
"   c None",
".  c #030000",
"X  c #770003",
"o  c #7B624F",
"O  c #810000",
"+  c #9B0000",
"@  c #BB0000",
"#  c #C10000",
"$  c #98502A",
"%  c #8E4D32",
"&  c #D7453C",
"*  c #A06440",
"=  c #B17B50",
"-  c #B94065",
";  c #DB4E42",
":  c #DF5D51",
">  c #E05C51",
",  c #DE605F",
"<  c #D05A73",
"1  c #D46C7D",
"2  c #E46C66",
"3  c #E77268",
"4  c #E5786D",
"5  c #E67770",
"6  c #E97F79",
"7  c #EA7E7B",
"8  c #B5835A",
"9  c #B58D6F",
"0  c #BC9B78",
"q  c #BFA672",
"w  c #E58B77",
"e  c #EA817B",
"r  c #EC847A",
"t  c #C4A079",
"y  c #C5A27E",
"u  c #E9CB4B",
"i  c #EACE51",
"p  c #E9D366",
"a  c #EDDC7F",
"s  c #00009D",
"d  c #0000A1",
"f  c #6500B6",
"g  c #7339AF",
"h  c #0000DF",
"j  c #0000E1",
"k  c #0000E3",
"l  c #0000E7",
"z  c #0000E9",
"x  c #0000EB",
"c  c #0000ED",
"v  c #0000EF",
"b  c #0000F3",
"n  c #0400F2",
"m  c #0000F5",
"M  c #0000F7",
"N  c #0000F9",
"B  c #0000FB",
"V  c #0000FC",
"C  c #0000FD",
"Z  c #0303FD",
"A  c #0B0BFD",
"S  c #0D0BFD",
"D  c #0D0DFF",
"F  c #1111FF",
"G  c #2121FF",
"H  c #403DED",
"J  c #7755CC",
"K  c #5650EC",
"L  c #4545F8",
"P  c #4C4CF9",
"I  c #5757F7",
"U  c #5A5AF5",
"Y  c #5353FA",
"T  c #5A5AFB",
"R  c #5F5FF8",
"E  c #6F6AF6",
"W  c #6565F9",
"Q  c #6161FC",
"!  c #6C6CF9",
"~  c #6F6FFD",
"^  c #7474FA",
"/  c #7474FE",
"(  c #7574FE",
")  c #7C7CFB",
"_  c #7979FE",
"`  c #7D7DFE",
"'  c #BB5786",
"]  c #A053B0",
"[  c #BA73AE",
"{  c #A16AB6",
"}  c #CD7592",
"|  c #E07B81",
" . c #C47DAA",
".. c #9572CF",
"X. c #888A8C",
"o. c #9E9A98",
"O. c #9D9D9D",
"+. c #A28C81",
"@. c #BDA086",
"#. c #A0A099",
"$. c #A0A09E",
"%. c #A2A2A2",
"&. c #A5A5A5",
"*. c #E58080",
"=. c #E88C80",
"-. c #EB8C81",
";. c #E79397",
":. c #E99391",
">. c #EE9694",
",. c #C3A78E",
"<. c #CEB095",
"1. c #D2B59E",
"2. c #F2A19A",
"3. c #F1AB9F",
"4. c #C691BC",
"5. c #F3AFA7",
"6. c #F3AAA8",
"7. c #ECB8B0",
"8. c #F4BBB2",
"9. c #EED980",
"0. c #F0DE93",
"q. c #F0E4AF",
"w. c #9A86E9",
"e. c #8384FC",
"r. c #8A8AFD",
"t. c #9B91F0",
"y. c #9191FD",
"u. c #9595FD",
"i. c #9797FD",
"p. c #9A9AFD",
"a. c #9E9EFD",
"s. c #A1A1FE",
"d. c #A4A4FE",
"f. c #A7A6FE",
"g. c #A7A7FE",
"h. c #A8A8FF",
"j. c #A8A9FF",
"k. c #A9A9FF",
"l. c #B1A4F0",
"z. c #F3C9C2",
"x. c #F8CFC7",
"c. c #EDD6C5",
"v. c #F0D6CE",
"b. c #E3DAD3",
"n. c #E4E4C5",
"m. c #EAE0C2",
"M. c #E9E8C9",
"N. c #E8E9CF",
"B. c #F0E8C2",
"V. c #F9E4DC",
"C. c #E4E0E2",
"Z. c #F8F1E9",
"A. c #F4F4F0",
"S. c #F4F4F4",
"D. c #F6F6F6",
"F. c gray97",
"G. c #FAF1F0",
"H. c #F8F6F6",
"J. c #F8F8F8",
"K. c #F9F9F9",
"L. c gray98",
"P. c #FBFBFB",
/* pixels */
"                                ",
"                                ",
"                                ",
"G F F F D V V V N N N M s X @ # ",
"D k.k.k.f.s.a.p.u.t.4.;.:.6.x.+.",
"F k.` _ / ~ E { 1 2 6 8.c.,.0 o ",
"F f._ ( ..} 4 6 5.Z.L.<.= % @.o.",
"S l. .| e 2.V.L.L.J.1.8 9 $ t X.",
"f >.r 3.G.L.L.L.F.a A.N.C.* y O.",
"n w.[ | 3 -.z.H.F.F.q.9.M.q b.%.",
"V i.Q U J ' , > w v.S.p i u 0.$.",
"N y.T Y P L H g - ; ; w c.n.B.%.",
"N r.e.) ^ ! W R I K ] < : 4 7.#.",
"M M b c c c z l j j j j d . O + ",
"                                ",
"                                "
};
