/* XPM */
static char *at[] = {
/* columns rows colors chars-per-pixel */
"16 16 127 2 ",
"   c None",
".  c #DD0000",
"X  c #DF0000",
"o  c #E10000",
"O  c #E30000",
"+  c #E50000",
"@  c #E70000",
"#  c #E90000",
"$  c #EB0000",
"%  c #ED0000",
"&  c #EF0000",
"*  c #F10000",
"=  c #F30000",
"-  c #F50000",
";  c #F70000",
":  c #F90000",
">  c #FB0000",
",  c #FD0000",
"<  c red",
"1  c #F10B0B",
"2  c #F10F0E",
"3  c #F21313",
"4  c #F31919",
"5  c #F41E1E",
"6  c #F52323",
"7  c #F62929",
"8  c #F22C2C",
"9  c #F22F2F",
"0  c #F62C2C",
"q  c #F72E2E",
"w  c #FB2F2F",
"e  c #F23232",
"r  c #F73131",
"t  c #F33535",
"y  c #F83434",
"u  c #F83737",
"i  c #FF3535",
"p  c #F43939",
"a  c #F53D3D",
"s  c #F93A3A",
"d  c #F93C3D",
"f  c #FA3F3F",
"g  c #F64242",
"h  c #F74646",
"j  c #FA4242",
"k  c #FA4444",
"l  c #FB4747",
"z  c #F74949",
"x  c #F74B4B",
"c  c #F74E4E",
"v  c #FC4C4C",
"b  c #F85050",
"n  c #F85353",
"m  c #FD5151",
"M  c #F95455",
"N  c #F95757",
"B  c #FD5454",
"V  c #F95858",
"C  c #FE5959",
"Z  c #FA5C5C",
"A  c #FA5D5D",
"S  c #FE5C5C",
"D  c #FE5F5F",
"F  c #F26363",
"G  c #F26666",
"H  c #FB6060",
"J  c #FB6162",
"K  c #FC6565",
"L  c #FC6666",
"P  c #F06868",
"I  c #F36A6A",
"U  c #F46E6E",
"Y  c #F66E6E",
"T  c #FC6969",
"R  c #FD6D6D",
"E  c #F57171",
"W  c #F77272",
"Q  c #F67575",
"!  c #FD7071",
"~  c #F87676",
"^  c #FE7474",
"/  c #FE7777",
"(  c #F37A7A",
")  c #F77879",
"_  c #F67F7F",
"`  c #F97A7A",
"'  c #FE7979",
"]  c #FF7B7A",
"[  c #FF7B7B",
"{  c #F87C7C",
"}  c #FA7D7D",
"|  c #F98080",
" . c #FB8181",
".. c #FA8484",
"X. c #FC8585",
"o. c #FB8888",
"O. c #FB8B8B",
"+. c #FD8888",
"@. c #FD8B8B",
"#. c #FE8F8F",
"$. c #FE9091",
"%. c #FCA0A0",
"&. c #FEA4A4",
"*. c #DFDFDF",
"=. c #E1E1E1",
"-. c #E2E2E2",
";. c gray91",
":. c #E9E9E9",
">. c #EAEAEA",
",. c #EEEEEE",
"<. c #EFEFEF",
"1. c gray94",
"2. c #F1F1F1",
"3. c #F4F4F4",
"4. c #F4F5F5",
"5. c gray96",
"6. c #F6F6F6",
"7. c gray97",
"8. c #F8F8F8",
"9. c #F9F9F9",
"0. c #FAFAFA",
"q. c #FBFBFB",
"w. c #FBFCFB",
"e. c gray99",
"r. c #FDFCFD",
"t. c #FDFDFD",
"y. c #FEFEFE",
/* pixels */
"                                ",
"                                ",
"                                ",
"< < < < > < < < > > ; ; = = % % ",
"< [ [ [ ^ ^ ! R T K D Z N n c $ ",
"< [ D S S B m v l j d s r 0 z $ ",
"i &.$.#.+.o.X. .} ` ~ W Y P _ + ",
":.y.y.y.y.q.q.q.q.8.5.2.2.:.5.-.",
";.y.y.y.q.q.q.q.5.8.5.2.<.:.3.-.",
":.y.q.w.q.q.8.8.8.5.5.2.<.;.2.*.",
"w $.o.o. .| } ) Q E U P G F ( X ",
"; R l j p y 0 7 6 5 4 3 2 1 e X ",
"; K A Z N c v h g a p t e 9 9 X ",
"= = = % % % $ + $ + o o X X . . ",
"                                ",
"                                "
};
