/* XPM */
static char *aw[] = {
/* columns rows colors chars-per-pixel */
"16 16 170 2 ",
"   c None",
".  c #E26D6D",
"X  c #E37171",
"o  c #DDAF00",
"O  c #DFB300",
"+  c #F7D500",
"@  c #FBDB00",
"#  c #F2DB27",
"$  c #F2DC2C",
"%  c #F3DE2F",
"&  c #F4DF34",
"*  c #F5E139",
"=  c #F6E23E",
"-  c #F2DD40",
";  c #F2DF42",
":  c #F2DF46",
">  c #F3DF46",
",  c #F7E343",
"<  c #F3E149",
"1  c #F4E24B",
"2  c #F8E548",
"3  c #F9E64D",
"4  c #F5E350",
"5  c #F6E354",
"6  c #FAE852",
"7  c #FBE957",
"8  c #F7E558",
"9  c #F7E65C",
"0  c #FBEA5C",
"q  c #F8E861",
"w  c #F9E965",
"e  c #F9EA69",
"r  c #FAEB6E",
"t  c #FBED72",
"y  c #FCEE7A",
"u  c #001F85",
"i  c #00338F",
"p  c #002391",
"a  c #002593",
"s  c #002995",
"d  c #002D95",
"f  c #002D97",
"g  c #003991",
"h  c #003F93",
"j  c #003199",
"k  c #00379D",
"l  c #003BA1",
"z  c #003FA3",
"x  c #004597",
"c  c #004B9B",
"v  c #004D9D",
"b  c #0045A7",
"n  c #004BAB",
"m  c #005DA7",
"M  c #0051AD",
"N  c #0055B1",
"B  c #005BB5",
"V  c #0061A9",
"C  c #0063AB",
"Z  c #0067AF",
"A  c #0061B7",
"S  c #006DB1",
"D  c #006DB5",
"F  c #006FBF",
"G  c #0071B3",
"H  c #0075B7",
"J  c #0079B9",
"K  c #007DBD",
"L  c #007DBF",
"P  c #0581BD",
"I  c #0781C1",
"U  c #0B83C1",
"Y  c #0D87C1",
"T  c #0F87C3",
"R  c #0F89C3",
"E  c #0F8BC5",
"W  c #1189C5",
"Q  c #158BC5",
"!  c #1991C9",
"~  c #1D91C9",
"^  c #2191C7",
"/  c #3694C4",
"(  c #3A96C6",
")  c #3E98C7",
"_  c #3F99C8",
"`  c #439BC9",
"'  c #449BC9",
"]  c #459BC9",
"[  c #479ECB",
"{  c #489ECB",
"}  c #499ECB",
"|  c #4B9FCA",
" . c #4CA1CD",
".. c #4DA1CD",
"X. c #4EA1CC",
"o. c #4FA2CC",
"O. c #50A2CC",
"+. c #51A3CF",
"@. c #55A3CC",
"#. c #51A4CF",
"$. c #53A4CE",
"%. c #54A5CE",
"&. c #55A6CE",
"*. c #5BA7CF",
"=. c #58A8CF",
"-. c #54A6D1",
";. c #57A7D0",
":. c #56A7D1",
">. c #59A8D0",
",. c #59A9D0",
"<. c #59A9D3",
"1. c #5BAAD3",
"2. c #5FA9D0",
"3. c #5EABD1",
"4. c #5CAAD2",
"5. c #5EABD2",
"6. c #5EABD4",
"7. c #62AED3",
"8. c #64ADD2",
"9. c #60ACD4",
"0. c #61ADD4",
"q. c #63AED4",
"w. c #62AED6",
"e. c #63AFD6",
"r. c #64AFD6",
"t. c #68AFD3",
"y. c #66B0D5",
"u. c #67B0D5",
"i. c #67B1D5",
"p. c #69B2D7",
"a. c #6AB3D7",
"s. c #6BB3D7",
"d. c #6CB2D5",
"f. c #67B1D8",
"g. c #68B1D8",
"h. c #6DB4D9",
"j. c #6EB5D8",
"k. c #6EB6D8",
"l. c #6FB6D8",
"z. c #6CB4DA",
"x. c #70B4D7",
"c. c #70B6DB",
"v. c #71B6DB",
"b. c #72B7DA",
"n. c #73B7DA",
"m. c #75B7D8",
"M. c #76BADB",
"N. c #74B9DC",
"B. c #75BADC",
"V. c #76BADC",
"C. c #79B9D9",
"Z. c #7CBBDB",
"A. c #7EBBDA",
"S. c #7DBFDF",
"D. c #7BBFE0",
"F. c #E88989",
"G. c #80BEDD",
"H. c #83BFDF",
"J. c #84C0DD",
"K. c #87C2DF",
"L. c #9DC4DD",
"P. c #9FC4DC",
"I. c #8AC3E0",
"U. c #8AC3E2",
"Y. c #8DC5E2",
"T. c #8EC6E2",
"R. c #8FC7E2",
"E. c #91C8E3",
"W. c #91C8E4",
"Q. c #99C8E1",
/* pixels */
"                                ",
"                                ",
"                                ",
"^ Q ! W Y U P K J H G S S C m V ",
"R P.F.Q.W.R.R.I.I.J.S.Z.C.m.x.v ",
"~ F.X . D.M.n.j.a.y.8.5.*.%.t.v ",
"E P.. A.B.n.j.a.y.7.5.*.%.O.t.x ",
"Y E.D.B.n.j.a.y.7.5.*.%.O.| 8.h ",
"U T.B.c.h.a.w.w.5.%.O...| ] 5.g ",
"L U.h.z.y.w.w.1.:.-...[ ] _ *.i ",
"@ y 0 7 6 3 2 , = * & % $ # > O ",
"D H.f.w.6.1.:.O. .[ ` ) ( / @.u ",
"+ t t e w q 9 8 5 4 1 < > ; ; o ",
"F B B N M n b z l k j f s a p s ",
"                                ",
"                                "
};
