/* XPM */
static char *az[] = {
/* columns rows colors chars-per-pixel */
"16 16 169 2 ",
"   c None",
".  c #002700",
"X  c #002900",
"o  c #002D00",
"O  c #002F00",
"+  c #003300",
"@  c #003500",
"#  c #003900",
"$  c #003D00",
"%  c #004100",
"&  c #004700",
"*  c #004D00",
"=  c #005100",
"-  c #005700",
";  c #005D00",
":  c #006300",
">  c #006700",
",  c #006F00",
"<  c #007500",
"1  c #007D00",
"2  c #870000",
"3  c #930000",
"4  c #950000",
"5  c #970000",
"6  c #990000",
"7  c #BB0000",
"8  c #C10000",
"9  c #C30101",
"0  c #C30303",
"q  c #C73C3C",
"w  c #CB3E41",
"e  c #C94040",
"r  c #CD4345",
"t  c #CA4444",
"y  c #CA4545",
"u  c #CF474A",
"i  c #CD4948",
"p  c #CC4949",
"a  c #CF4D4D",
"s  c #CE4E4E",
"d  c #CF4F4F",
"f  c #CE5858",
"g  c #D15251",
"h  c #D05252",
"j  c #D05353",
"k  c #D25556",
"l  c #D25858",
"z  c #D35B5B",
"x  c #D25A5C",
"c  c #D45D5D",
"v  c #D55F5F",
"b  c #D95D60",
"n  c #D26060",
"m  c #D66161",
"M  c #D46261",
"N  c #D76363",
"B  c #D56767",
"V  c #D76666",
"C  c #D96867",
"Z  c #DB6769",
"A  c #D76868",
"S  c #D96868",
"D  c #D96A6A",
"F  c #DC6B6D",
"G  c #DA6C6C",
"H  c #DB6E6E",
"J  c #DD6F71",
"K  c #DD7070",
"L  c #DC7171",
"P  c #DC7272",
"I  c #D97274",
"U  c #DD7574",
"Y  c #DD7575",
"T  c #DE7676",
"R  c #DF7877",
"E  c #DE7979",
"W  c #DE797A",
"Q  c #DF7B7C",
"!  c #DB7D7C",
"~  c #0B9A39",
"^  c #0F9C3C",
"/  c #139F40",
"(  c #18A145",
")  c #1EA349",
"_  c #23A54D",
"`  c #2CA253",
"'  c #29A550",
"]  c #2FA455",
"[  c #2EAB55",
"{  c #2FA956",
"}  c #32A558",
"|  c #35A85B",
" . c #34AE5B",
".. c #39A95F",
"X. c #3DAC62",
"o. c #3AB160",
"O. c #3FB364",
"+. c #42AE65",
"@. c #46B069",
"#. c #44B669",
"$. c #4BB26D",
"%. c #50B471",
"&. c #54B775",
"*. c #58B979",
"=. c #5DBC7D",
"-. c #004D9D",
";. c #005DA7",
":. c #0053A9",
">. c #0061A9",
",. c #0063AB",
"<. c #0067AF",
"1. c #006DB1",
"2. c #0071B3",
"3. c #0075B7",
"4. c #0079B9",
"5. c #007DBD",
"6. c #0081BD",
"7. c #61BE80",
"8. c #66C384",
"9. c #0083C1",
"0. c #0085C3",
"q. c #0087C3",
"w. c #0089C3",
"e. c #008FCD",
"r. c #0091C7",
"t. c #2CAAD4",
"y. c #31ADD6",
"u. c #37AFD8",
"i. c #3DB2DA",
"p. c #4EB4D7",
"a. c #42B4DB",
"s. c #47B6DC",
"d. c #49B5DA",
"f. c #4CB7DC",
"g. c #53B7D8",
"h. c #51BADF",
"j. c #58B9D9",
"k. c #5CBBDB",
"l. c #61BEDD",
"z. c #54BDE0",
"x. c #59BFE2",
"c. c #65C0DD",
"v. c #69C2DF",
"b. c #5CC0E3",
"n. c #5FC2E3",
"m. c #6DC3E0",
"M. c #70C5E2",
"N. c #74C7E2",
"B. c #77C8E3",
"V. c #79C9E4",
"C. c #7BCAE4",
"Z. c #7BCDE8",
"A. c #E18787",
"S. c #E0898A",
"D. c #E48A8B",
"F. c #E38E8F",
"G. c #E58F8F",
"H. c #E59393",
"J. c #E59B9C",
"K. c #E4AAAA",
"L. c #E9B5B6",
"P. c #EABAB9",
"I. c #EDBFC1",
"U. c #EFC2C1",
"Y. c #EFCDCD",
"T. c #F0CECE",
"R. c #F1D8D9",
"E. c #F4DCDC",
"W. c #F4E2E2",
/* pixels */
"                                ",
"                                ",
"                                ",
"r.w.w.w.q.0.6.5.4.3.2.1.<.,.;.>.",
"0.C.B.B.B.N.m.m.m.c.l.k.j.g.p.-.",
"e.Z.m.x.b.z.z.f.s.a.i.u.y.t.d.:.",
"9 H.Q Q Y L H A V M c l j d B 5 ",
"9 H.T U L A U.E.J.P.! g a p M 6 ",
"7 F.Y L G S.W.A Y.R.K.s p y b 3 ",
"9 D.J H Z b U.Y.Q L.I u r w f 3 ",
"7 A.G A N b c k d s p t e q f 2 ",
"1 8.#.O.o. .[ ' _ ) ( / ^ ~ { $ ",
", 7.=.*.&.%.$.@.+.X.X.| } ] ` . ",
"< > : ; - = * & % $ + + O O X + ",
"                                ",
"                                "
};
