/* XPM */
static char *ba[] = {
/* columns rows colors chars-per-pixel */
"16 16 156 2 ",
"   c None",
".  c #555353",
"X  c #797878",
"o  c #807E7E",
"O  c #EBAF00",
"+  c #F3AF00",
"@  c #F5B300",
"#  c #F7B300",
"$  c #F9B700",
"%  c #F7B900",
"&  c #FBB900",
"*  c #FDBD00",
"=  c #F1C50E",
"-  c #F2C714",
";  c #F3C819",
":  c #F3C919",
">  c #F4CB1F",
",  c #F4CC1F",
"<  c #F3CA25",
"1  c #F5CC25",
"2  c #F5CD25",
"3  c #F6CF2B",
"4  c #F6D02B",
"5  c #F1CB33",
"6  c #F7D030",
"7  c #F7D131",
"8  c #F8D236",
"9  c #F8D337",
"0  c #F6D13E",
"q  c #F9D43D",
"w  c #F9D63C",
"e  c #FAD542",
"r  c #FBD947",
"t  c #F7D44A",
"y  c #FBD84D",
"u  c #F8D754",
"i  c #F9DA57",
"p  c #FADC5C",
"a  c #FBDD60",
"s  c #FCDD65",
"d  c #FCDF69",
"f  c #FDE16D",
"g  c #FCE071",
"h  c #FAE077",
"j  c #00008F",
"k  c #000091",
"l  c #000093",
"z  c #000097",
"x  c #000099",
"c  c #00009B",
"v  c #00009D",
"b  c #00009F",
"n  c #0000A1",
"m  c #0000A3",
"M  c #0000A5",
"N  c #0000A9",
"B  c #0000AD",
"V  c #0000AF",
"C  c #0000B3",
"Z  c #0000B7",
"A  c #0000B9",
"S  c #0000BD",
"D  c #0000BF",
"F  c #0000C3",
"G  c #0000C5",
"H  c #0000C7",
"J  c #0000C9",
"K  c #0000CB",
"L  c #0B2FCB",
"P  c #1033CC",
"I  c #1438CE",
"U  c #1A3CCF",
"Y  c #2042D2",
"T  c #2344D3",
"R  c #2647D3",
"E  c #2C4BD1",
"W  c #2F4DD2",
"Q  c #2949D5",
"!  c #2C4CD5",
"~  c #2E4ED6",
"^  c #2F4ED7",
"/  c #2547DB",
"(  c #3350D3",
")  c #3453D7",
"_  c #3654D4",
"`  c #3B58D6",
"'  c #3D5AD7",
"]  c #3F5CD7",
"[  c #3453D8",
"{  c #3A57D9",
"}  c #3A58D9",
"|  c #3B58DA",
" . c #3F5CDB",
".. c #425ED8",
"X. c #405DDB",
"o. c #405DDC",
"O. c #4460D9",
"+. c #4662DA",
"@. c #4461DC",
"#. c #4561DD",
"$. c #4562DD",
"%. c #4662DD",
"&. c #4965DB",
"*. c #4B66DB",
"=. c #4966DE",
"-. c #4B66DE",
";. c #4E69DC",
":. c #506ADD",
">. c #536DDD",
",. c #546EDD",
"<. c #5872DF",
"1. c #5F76DC",
"2. c #687EDF",
"3. c #4F6AE0",
"4. c #4F6BE0",
"5. c #506BE0",
"6. c #536FE1",
"7. c #546FE1",
"8. c #5872E2",
"9. c #5D76E1",
"0. c #5C75E4",
"q. c #5F79E4",
"w. c #617AE2",
"e. c #667EE3",
"r. c #7989CF",
"t. c #7286DF",
"y. c #6A82E5",
"u. c #6F85E6",
"i. c #7086E2",
"p. c #7288E7",
"a. c #798DE5",
"s. c #768BE8",
"d. c #798EE8",
"f. c #7B8FE8",
"g. c #7B90E9",
"h. c #888686",
"j. c #8A8989",
"k. c #8F8D8D",
"l. c #969494",
"z. c #9D9B9B",
"x. c #A2A1A1",
"c. c #B5B3B3",
"v. c #8194E8",
"b. c #879AEA",
"n. c #8D9FEC",
"m. c #B8C3F3",
"M. c #D0D5EE",
"N. c #D4D8EF",
"B. c #CDD5F7",
"V. c #D8DCF1",
"C. c #DBDFF4",
"Z. c #DDE2F0",
"A. c #DEE2F6",
"S. c #E1E5F8",
"D. c #E3E7F9",
"F. c #E9EDFC",
/* pixels */
"                                ",
"                                ",
"                                ",
"K / B.. % O * * & $ # # + C B B ",
"K g.m.F.c.h g f d s a p i :.:.N ",
"K f.q.n.D.x.i y r e q 8 7 ! &.M ",
"K a.0.8.b.S.z.t e q 8 7 3 R O.n ",
"K s.8.7.:.v.A.l.0 8 7 3 1 Y ..v ",
"K u.6.3.&.$.a.C.k.5 4 1 , U ` x ",
"G u.3.$.$. .{ u.V.h.< 2 : I _ z ",
"F y.&.3.o.| [ [ 2.N.X : - P ( k ",
"D e.O. .| ) ^ Q T 1.N.X = L W k ",
"D w.0.<.,.:.*.O...' t.Z.j.W W j ",
"A C C B B N M n n x z B r.N j j ",
"                                ",
"                                "
};
