/* XPM */
static char *bb[] = {
/* columns rows colors chars-per-pixel */
"16 16 161 2 ",
"   c None",
".  c #00001F",
"X  c #000021",
"o  c #000025",
"O  c #00002B",
"+  c #00002F",
"@  c #000031",
"#  c #000035",
"$  c #000039",
"%  c #00003B",
"&  c #74662A",
"*  c #72652F",
"=  c #7C6E35",
"-  c #7D6F36",
";  c #7F7136",
":  c #000041",
">  c #000047",
",  c #00004D",
"<  c #000053",
"1  c #000059",
"2  c #00005D",
"3  c #00005F",
"4  c #000063",
"5  c #000067",
"6  c #000069",
"7  c #00006F",
"8  c #000073",
"9  c #000077",
"0  c #00007B",
"q  c #00007D",
"w  c #00007F",
"e  c #00037F",
"r  c #8C7A2F",
"t  c #82743B",
"y  c #81743C",
"u  c #86783C",
"i  c #897B41",
"p  c #887B46",
"a  c #AE9430",
"s  c #E79300",
"d  c #E59F00",
"f  c #E99900",
"g  c #E3A300",
"h  c #EBA900",
"j  c #EDB300",
"k  c #FBB900",
"l  c #FDBD00",
"z  c #F7C500",
"x  c #F9C300",
"c  c #FDCF00",
"v  c #F3D419",
"b  c #F4D01E",
"n  c #F4D61F",
"m  c #F5CC23",
"M  c #F6CE29",
"N  c #F5D624",
"B  c #F5D824",
"V  c #F6D12A",
"C  c #F7D62E",
"Z  c #F6D92B",
"A  c #F7DB30",
"S  c #F8DB34",
"D  c #F8DC34",
"F  c #F8DE36",
"G  c #F5D63D",
"H  c #F4DA39",
"J  c #F9D83A",
"K  c #F9DE3A",
"L  c #F9DF3D",
"P  c #8C804B",
"I  c #B99F40",
"U  c #DABC42",
"Y  c #DBBE47",
"T  c #F6D242",
"R  c #F7D346",
"E  c #FBDB47",
"W  c #F7DB4B",
"Q  c #FCDC4C",
"!  c #FAE040",
"~  c #FAE042",
"^  c #FBE146",
"/  c #FCE34B",
"(  c #F8E150",
")  c #FDE451",
"_  c #FDE554",
"`  c #FCDF69",
"'  c #FBE660",
"]  c #FCE265",
"[  c #FDE06D",
"{  c #FDE671",
"}  c #FEEB74",
"|  c #000381",
" . c #0B3995",
".. c #0F3C97",
"X. c #103D97",
"o. c #133D9C",
"O. c #144199",
"+. c #14419A",
"@. c #19429F",
"#. c #19459C",
"$. c #1A469D",
"%. c #1F4A9F",
"&. c #204B9F",
"*. c #1F47A2",
"=. c #254FA2",
"-. c #254CA5",
";. c #2650A2",
":. c #2C53A2",
">. c #2B54A5",
",. c #2F55A4",
"<. c #2F56A4",
"1. c #2C54A6",
"2. c #2B52A8",
"3. c #3258A6",
"4. c #3359A6",
"5. c #3157AB",
"6. c #3159A9",
"7. c #3559A9",
"8. c #365CA8",
"9. c #375CAE",
"0. c #3A5CB0",
"q. c #3B60AA",
"w. c #3F64AD",
"e. c #3F63B0",
"r. c #4468AF",
"t. c #4061B3",
"y. c #4566B6",
"u. c #4469B1",
"i. c #4568B2",
"p. c #496CB1",
"a. c #496DB4",
"s. c #496DB5",
"d. c #4B6AB8",
"f. c #506FBB",
"g. c #4E70B4",
"h. c #4F71B7",
"j. c #4F71B8",
"k. c #5375B7",
"l. c #5471BA",
"z. c #5376B9",
"x. c #5475BA",
"c. c #5473BD",
"v. c #5976BF",
"b. c #5878B9",
"n. c #5878BA",
"m. c #5879BC",
"M. c #5C7ABE",
"N. c #5D7DBC",
"B. c #5C7CBE",
"V. c #5F7FBF",
"C. c #6180BE",
"Z. c #6684C0",
"A. c #6A88C3",
"S. c #6F8BC4",
"D. c #728EC6",
"F. c #778FCB",
"G. c #7691C8",
"H. c #7993C9",
"J. c #7994C9",
"K. c #7B95C9",
"L. c #7B95CA",
/* pixels */
"                                ",
"                                ",
"                                ",
"| | | | e c c l k x z 7 2 1 < , ",
"| L.L.H.F.} { [ ` ' ' B.n.k.g.> ",
"| L.V.B.v._ ) Q E E L 9.6.1.p.: ",
"e L.B.m.c.) P Y U y F 5.>.=.r.% ",
"e D.n.x.f./ p i u - Z 2.=.%.r.# ",
"e D.z.k.s.~ I y ; a Z =.%.#.9.+ ",
"9 S.j.s.y.E J - * V N *.#.+.8.O ",
"8 A.p.u.t.K S r & N N @.O.X.4.o ",
"7 C.r.t.0.F C M m b v o... .3.. ",
"6 C.N.n.l.( W R T G H 7.4.,.:.. ",
"4 5 5 2 2 j h f s d g % + o . . ",
"                                ",
"                                "
};
