/* XPM */
static char *bd[] = {
/* columns rows colors chars-per-pixel */
"16 16 127 2 ",
"   c None",
".  c black",
"X  c #000500",
"o  c #000D00",
"O  c #001300",
"+  c #001900",
"@  c #002100",
"#  c #002700",
"$  c #002D00",
"%  c #002F00",
"&  c #003300",
"*  c #003500",
"=  c #003700",
"-  c #003B00",
";  c #003D00",
":  c #004100",
">  c #004300",
",  c #0B670B",
"<  c #0F6A0E",
"1  c #106A10",
"2  c #136C13",
"3  c #146E14",
"4  c #197019",
"5  c #1A701A",
"6  c #1F741F",
"7  c #207520",
"8  c #257825",
"9  c #267A26",
"0  c #2B7C2B",
"q  c #2C7B2C",
"w  c #2C7C2C",
"e  c #2F7C2F",
"r  c #2F7D2F",
"t  c #327F32",
"y  c #337F32",
"u  c #6B5019",
"i  c #7C6331",
"p  c #7E6534",
"a  c #B9361F",
"s  c #CF2D1E",
"d  c #F1201F",
"f  c #D53C2E",
"g  c #ED2825",
"h  c #F32423",
"j  c #F52424",
"k  c #F42A29",
"l  c #F62A2A",
"z  c #F62B2B",
"x  c #F72F2F",
"c  c #F73030",
"v  c #F83434",
"b  c #F83535",
"n  c #F83636",
"m  c #F53836",
"M  c #F63C3A",
"N  c #F93B3A",
"B  c #F93B3B",
"V  c #F93B3C",
"C  c #F93C3C",
"Z  c #BE412B",
"A  c #846C3D",
"S  c #856E3F",
"D  c #947F54",
"F  c #DB4F42",
"G  c #C85945",
"H  c #DF5C51",
"J  c #FA4040",
"K  c #FA4141",
"L  c #FA4142",
"P  c #FB4646",
"I  c #FB4747",
"U  c #F94847",
"Y  c #F44D4B",
"T  c #FC4B4B",
"R  c #FA4C4C",
"E  c #FA5151",
"W  c #CC6350",
"Q  c #318131",
"!  c #358235",
"~  c #368236",
"^  c #378437",
"/  c #398439",
"(  c #3B853B",
")  c #3A863A",
"_  c #3D863D",
"`  c #3F893F",
"'  c #3F8A3F",
"]  c #428A42",
"[  c #448C44",
"{  c #448E44",
"}  c #458E45",
"|  c #468D46",
" . c #498F49",
".. c #499149",
"X. c #4B904B",
"o. c #4E934E",
"O. c #4F954F",
"+. c #509350",
"@. c #539653",
"#. c #539753",
"$. c #549754",
"%. c #549655",
"&. c #589857",
"*. c #589958",
"=. c #589A58",
"-. c #589B59",
";. c #599B59",
":. c #5C9B5C",
">. c #5C9D5C",
",. c #5D9D5D",
"<. c #5F9F5F",
"1. c #619E60",
"2. c #619F62",
"3. c #65A165",
"4. c #66A366",
"5. c #69A469",
"6. c #6AA56A",
"7. c #6DA76D",
"8. c #6FA86F",
"9. c #70A971",
"0. c #72AA73",
"q. c #74AB74",
"w. c #76AD76",
"e. c #77AD77",
"r. c #79AE79",
"t. c #7BB07A",
"y. c #7BB07B",
/* pixels */
"                                ",
"                                ",
"                                ",
"> > > > > - = & $ # @ + O o X . ",
"> y.y.r.w.w.9.7.6.3.1.:.&.$.o.. ",
"> y.<.>.*.D H R U F A ~ Q w  .. ",
"> r.>.*.D E T U K C m i 0 9 [ . ",
"; w.*.$.W T P K V n x Z 9 7 ` . ",
"; 0.#.o.Y I J B n c l g 7 4 ( . ",
"= 8.o...G C B m x l j a 4 3 ~ . ",
"$ 6...{ D c v x l j h u 3 < y . ",
"# 4.{ ` ~ i f l h s u 1 < , t . ",
"@ 3.>.*.$.+. . .[ ( / ~ t w q . ",
"+ O o X . . . . . . . . . . . . ",
"                                ",
"                                "
};
