/* XPM */
static char *be[] = {
/* columns rows colors chars-per-pixel */
"16 16 134 2 ",
"   c None",
".  c black",
"X  c #3A3A3A",
"o  c #3F3F3F",
"O  c #403F3F",
"+  c #444444",
"@  c gray27",
"#  c #494949",
"$  c #494A49",
"%  c #4B4A4B",
"&  c gray31",
"*  c #504F50",
"=  c #535353",
"-  c gray33",
";  c #545455",
":  c #585858",
">  c #585959",
",  c gray35",
"<  c gray36",
"1  c #5D5D5D",
"2  c #5F5F5F",
"3  c #616162",
"4  c gray40",
"5  c #6A6A6A",
"6  c #6F6F6F",
"7  c #727273",
"8  c #767676",
"9  c #777777",
"0  c #797979",
"q  c #7B7B7A",
"w  c #7B7B7B",
"e  c #A50000",
"r  c #C10000",
"t  c #C30000",
"y  c #C70000",
"u  c #C90000",
"i  c #E30000",
"p  c #E50000",
"a  c #E70000",
"s  c #E90000",
"d  c #EB0000",
"f  c #ED0000",
"g  c #EF0000",
"h  c #F10000",
"j  c #F30000",
"k  c #F50000",
"l  c #F10B0B",
"z  c #F10F0E",
"x  c #F21010",
"c  c #F21313",
"v  c #F21414",
"b  c #F31919",
"n  c #F31A1A",
"m  c #F41F1F",
"M  c #F42020",
"N  c #F52525",
"B  c #F52626",
"V  c #F62B2B",
"C  c #F22C2C",
"Z  c #F22F2F",
"A  c #F62C2C",
"S  c #F23232",
"D  c #F33232",
"F  c #F73131",
"G  c #F33535",
"H  c #F43636",
"J  c #F83737",
"K  c #F43B3B",
"L  c #F53F3F",
"P  c #F64444",
"I  c #F74949",
"U  c #F74E4E",
"Y  c #F85353",
"T  c #F95757",
"R  c #FA5C5C",
"E  c #CFDB00",
"W  c #DFD100",
"Q  c #D1DF00",
"!  c #DBDD00",
"~  c #D5E100",
"^  c #E1E300",
"/  c #FBE700",
"(  c #F7E900",
")  c #F1EF00",
"_  c #FDE900",
"`  c #F9F700",
"'  c #F4ED1F",
"]  c #F3F219",
"[  c #F4F41E",
"{  c #F5EE24",
"}  c #F6EF2B",
"|  c #F5F523",
" . c #F5F524",
".. c #F6F629",
"X. c #F6F62A",
"o. c #F7F72E",
"O. c #F7F72F",
"+. c #F4ED39",
"@. c #F7F130",
"#. c #F7F730",
"$. c #F1F134",
"%. c #F8F236",
"&. c #F8F834",
"*. c #F8F835",
"=. c #F8F836",
"-. c #F2F23A",
";. c #F5F53D",
":. c #F9F33D",
">. c #F9F93A",
",. c #F9F93B",
"<. c #F9F93C",
"1. c #F3F340",
"2. c #F6F642",
"3. c #F4F446",
"4. c #F7F746",
"5. c #FAFA40",
"6. c #FAFA41",
"7. c #FAFA42",
"8. c #FBFB46",
"9. c #FBFB47",
"0. c #F5F54B",
"q. c #F7F74B",
"w. c #FCFC4B",
"e. c #FCFC4C",
"r. c #F2F250",
"t. c #F6F651",
"y. c #F7F754",
"u. c #FDFD51",
"i. c #FBF660",
"p. c #FCFC65",
"a. c #FCFC69",
"s. c #FDFD6D",
"d. c #FDFD71",
"f. c #F9F974",
/* pixels */
"                                ",
"                                ",
"                                ",
". . . . . ) _ _ / ` ( k j j f f ",
". w q w 8 f.d.s.a.p.i.R T Y U d ",
". w 1 < < y.u.e.9.5.:.J F A I d ",
". w < < = y.9.8.5.<.%.F V B P p ",
". 8 ; ; & 0.8.5.<.=.@.V B M L p ",
". 7 = & % 3.5.,.=.#.} N m b K p ",
". 6 & # @ ;.,.=.#.X.{ m b c H p ",
". 5 # @ o -.=.#.X. .{ b c c S y ",
". 4 + o X $.X... .[ ] c z l Z t ",
". 3 1 < ; r.0.4.2.;.+.H S Z Z t ",
". . . . . ! ~ ~ E ^ W y y t u e ",
"                                ",
"                                "
};
