/* XPM */
static char *bg[] = {
/* columns rows colors chars-per-pixel */
"16 16 144 2 ",
"   c None",
".  c black",
"X  c #003B00",
"o  c #003D00",
"O  c #003F00",
"+  c #004900",
"@  c #457610",
"#  c #497A14",
"$  c #4D7C19",
"%  c #527F1F",
"&  c #DD0000",
"*  c #DF0000",
"=  c #E10000",
"-  c #E30000",
";  c #E50000",
":  c #E70000",
">  c #E90000",
",  c #EB0000",
"<  c #ED0000",
"1  c #EF0000",
"2  c #F10000",
"3  c #F30000",
"4  c #F50000",
"5  c #F70000",
"6  c #F90000",
"7  c #F10B0B",
"8  c #F10F0E",
"9  c #F21313",
"0  c #F31919",
"q  c #F41E1E",
"w  c #F52323",
"e  c #F62929",
"r  c #F22C2C",
"t  c #F22F2F",
"y  c #F72E2E",
"u  c #F23232",
"i  c #F33535",
"p  c #F83434",
"a  c #F43939",
"s  c #F53D3D",
"d  c #F93A3A",
"f  c #FA3F3F",
"g  c #F64242",
"h  c #F74646",
"j  c #FA4444",
"k  c #F74B4B",
"l  c #F85050",
"z  c #F95455",
"x  c #F95858",
"c  c #FA5D5D",
"v  c #FB6162",
"b  c #FC6666",
"n  c #008300",
"m  c #008500",
"M  c #149E14",
"N  c #1A9C1A",
"B  c #1F9F1F",
"V  c #19A119",
"C  c #1FA41F",
"Z  c #209E20",
"A  c #25A025",
"S  c #25A225",
"D  c #24A524",
"F  c #2BA42B",
"G  c #2AA52B",
"H  c #2AA82A",
"J  c #2FAB2F",
"K  c #30A630",
"L  c #30A830",
"P  c #36A936",
"I  c #36AB36",
"U  c #35AE35",
"Y  c #36AC36",
"T  c #3BAA3B",
"R  c #3BAD3B",
"E  c #3FAB3F",
"W  c #3BAC3C",
"Q  c #3BB03A",
"!  c #568324",
"~  c #5B872A",
"^  c #5F8A2F",
"/  c #618A32",
"(  c #638E34",
")  c #68913A",
"_  c #6C943F",
"`  c #709845",
"'  c #749B49",
"]  c #41AF41",
"[  c #40B040",
"{  c #40B340",
"}  c #46B246",
"|  c #45B645",
" . c #4BB44B",
".. c #4BB54B",
"X. c #4FB74F",
"o. c #49B849",
"O. c #4FBB4F",
"+. c #50B650",
"@. c #53B953",
"#. c #54B854",
"$. c #58BA58",
"%. c #6FC86F",
"&. c #72C673",
"*. c #76C776",
"=. c #8EAE6A",
"-. c #B7D3B7",
";. c #DDDDDD",
":. c #DFDFDF",
">. c #D1E7D1",
",. c #DBEBDB",
"<. c #DDECDD",
"1. c #DFEDDF",
"2. c #E0EDDF",
"3. c #E1E3E3",
"4. c gray90",
"5. c #E7E7E7",
"6. c #E0EFE0",
"7. c #E9E9E9",
"8. c gray92",
"9. c gray93",
"0. c #EFEFEF",
"q. c #E2F0E2",
"w. c #E3F1E3",
"e. c #E4F2E4",
"r. c #E6F3E6",
"t. c #E7F3E7",
"y. c #E8F4E8",
"u. c #E9F5E9",
"i. c #EAF6EA",
"p. c #EDF7ED",
"a. c #F1F1F1",
"s. c #F3F3F3",
"d. c gray96",
"f. c #F6F6F6",
"g. c gray97",
"h. c #F8F8F8",
"j. c #F9F9F9",
"k. c gray98",
"l. c #FBFBFB",
"z. c gray99",
"x. c #FDFDFD",
"c. c #FDFDFE",
"v. c #FEFEFE",
"b. c white",
/* pixels */
"                                ",
"                                ",
"                                ",
"d.d.d.d.d.s.s.a.a.0.0.7.7.4.4.3.",
"d.b.b.b.b.l.b.z.z.z.l.l.l.l.d.3.",
"d.b.b.b.b.b.z.z.l.l.d.l.d.d.d.;.",
">.p.i.i.r.r.r.r.w.6.6.2.<.,.2.-.",
"n *.$.#.X. .] ] W P K F A Z E o ",
"n &.@.O.X.} Q R P L G D B N T X ",
"m %.O...| { Q Y L H D C V M Y o ",
"+ =.' ` ` ( ( ^ ~ ! ! $ # @ / . ",
"6 b j f d p y e w q 0 9 8 7 t * ",
"5 v c x z l k h g s a i u t t * ",
"5 2 2 < < < , , : : = = * * & & ",
"                                ",
"                                "
};
