/* XPM */
static char *bi[] = {
/* columns rows colors chars-per-pixel */
"16 16 158 2 ",
"   c None",
".  c #7D0000",
"X  c #004D00",
"o  c #005300",
"O  c #005900",
"+  c #005B00",
"@  c #005D00",
"#  c #006300",
"$  c #006500",
"%  c #007D00",
"&  c #830000",
"*  c #8B0000",
"=  c #8F0000",
"-  c #910000",
";  c #930000",
":  c #990000",
">  c #9D0000",
",  c #9F0000",
"<  c #A30000",
"1  c #AB0000",
"2  c #C30000",
"3  c #CB0000",
"4  c #CD0000",
"5  c #CF0000",
"6  c #D30101",
"7  c #D50000",
"8  c #D70703",
"9  c #D50909",
"0  c #D50F0F",
"q  c #D71313",
"w  c #D91717",
"e  c #D34443",
"r  c #D54B4A",
"t  c #D95555",
"y  c #DE5B5B",
"u  c #DD5E5E",
"i  c #DD5F5F",
"p  c #DB6363",
"a  c #DF6766",
"s  c #DD6868",
"d  c #DC6969",
"f  c #DD6D6D",
"g  c #E26A6A",
"h  c #E26C6C",
"j  c #E47171",
"k  c #E27777",
"l  c #E57474",
"z  c #E27A7A",
"x  c #008D00",
"c  c #178F01",
"v  c #009700",
"b  c #009F00",
"n  c #1B9907",
"m  c #259B0F",
"M  c #299D11",
"N  c #03A103",
"B  c #2BA721",
"V  c #28A527",
"C  c #39AE38",
"Z  c #3AAD3A",
"A  c #37B134",
"S  c #41AF41",
"D  c #44AF44",
"F  c #49B647",
"G  c #4AB44A",
"H  c #50B950",
"J  c #54BB55",
"K  c #57BE56",
"L  c #59BE59",
"P  c #59BF59",
"I  c #5DBF5D",
"U  c #5EBF5E",
"Y  c #64BE63",
"T  c #60C05F",
"R  c #66C465",
"E  c #69C269",
"W  c #6BC16A",
"Q  c #6CC66B",
"!  c #6CC46C",
"~  c #6DC56D",
"^  c #71C571",
"/  c #70C670",
"(  c #73C873",
")  c #76C975",
"_  c #7DD07D",
"`  c #7DD07E",
"'  c #D48C82",
"]  c #DA9A91",
"[  c #E98484",
"{  c #E88585",
"}  c #E78A8A",
"|  c #E88989",
" . c #E88D8D",
".. c #EC9696",
"X. c #EC9999",
"o. c #C1A7AD",
"O. c #E7AAAC",
"+. c #EDB3B4",
"@. c #EDB9B9",
"#. c #87CF86",
"$. c #81D181",
"%. c #83D284",
"&. c #88D288",
"*. c #8CD48A",
"=. c #97C197",
"-. c #90D590",
";. c #95D894",
":. c #97D997",
">. c #9ADA9A",
",. c #9DDC9E",
"<. c #B2E0B7",
"1. c #EFB5C7",
"2. c #C1DFC1",
"3. c #DDCFD7",
"4. c #F0C1C2",
"5. c #F5C8C8",
"6. c #E3D1C7",
"7. c #E6D5CD",
"8. c #EFD0CF",
"9. c #E7D8CF",
"0. c #EECFD0",
"q. c #FFCFDF",
"w. c #E7DED7",
"e. c #FFD5D5",
"r. c #F9DADD",
"t. c #F8DBDE",
"y. c #C3EBC7",
"u. c #C8EDCB",
"i. c #C9EACC",
"p. c #CCEFD1",
"a. c #D7F5DC",
"s. c #E2E5DA",
"d. c #E8EADE",
"f. c #F7EAEF",
"g. c #F2ECF2",
"h. c #F8EAF1",
"j. c #FAEEF5",
"k. c #ECF7F2",
"l. c #EAF5F5",
"z. c #EDFCF4",
"x. c #EBFAFA",
"c. c #F1F1F1",
"v. c gray95",
"b. c #F3F3F3",
"n. c #F4F4F4",
"m. c gray96",
"M. c #F6F6F6",
"N. c gray97",
"B. c #FEF4FA",
"V. c #F8F8F8",
"C. c #F9F8F9",
"Z. c #F9F9F9",
"A. c #FAFAFA",
"S. c #FBFBFB",
"D. c gray99",
"F. c #FDFDFD",
"G. c #FEFEFE",
"H. c white",
/* pixels */
"                                ",
"                                ",
"                                ",
"e.q.8 7 w q 0 9 6 5 5 3 2 2 1.@.",
"B H.H.5.[ X...| {  .} h +.S.N.% ",
"c *.a.H.B.l l r.r.g y h.N.p.I o ",
"M >.Q ,.H.S.S.d.s.S.V.N.#.C ^ # ",
"m >.%.( R z.S.7.6.N.k.F G L / O ",
"n :.#.` I u.j.S.N.f.i.C L J ! O ",
"N -._ ! K x.] 9.w.' l.A D H E $ ",
"N *.I &.S.S.V.N.N.N.v.v.E V Y # ",
"x ) y.S.N.u i 0.0.t e g.v.<.S X ",
"v V.V.1.a z k d p f d r O.v.v.@ ",
"y.3.1 , < < > : - - - * . & o.=.",
"                                ",
"                                "
};
