/* XPM */
static char *bj[] = {
/* columns rows colors chars-per-pixel */
"16 16 140 2 ",
"   c None",
".  c #004900",
"X  c #005300",
"o  c #005700",
"O  c #005D00",
"+  c #006300",
"@  c #006700",
"#  c #006F00",
"$  c #007500",
"%  c #007700",
"&  c #007B00",
"*  c #007F00",
"=  c #DD0000",
"-  c #DF0000",
";  c #E10000",
":  c #E30000",
">  c #E50000",
",  c #E70000",
"<  c #E90000",
"1  c #F10B0B",
"2  c #F10F0E",
"3  c #F21010",
"4  c #F21313",
"5  c #F21414",
"6  c #F31919",
"7  c #F41E1E",
"8  c #F41F1F",
"9  c #F3261A",
"0  c #F42B1F",
"q  c #F52323",
"w  c #F52424",
"e  c #F62929",
"r  c #F62A2A",
"t  c #F22C2C",
"y  c #F22F2F",
"u  c #F72F2F",
"i  c #F53025",
"p  c #F6362B",
"a  c #F23232",
"s  c #F33232",
"d  c #F33535",
"f  c #F43636",
"g  c #F83535",
"h  c #F73B30",
"j  c #F43939",
"k  c #F53D3D",
"l  c #F84036",
"z  c #F4463B",
"x  c #F9463B",
"c  c #F64242",
"v  c #F74646",
"b  c #008300",
"n  c #008500",
"m  c #008700",
"M  c #008900",
"N  c #009100",
"B  c #3CAA3A",
"V  c #3AAC3A",
"C  c #3EAE3E",
"Z  c #3FAF3F",
"A  c #40AF3F",
"S  c #43AD40",
"D  c #44B144",
"F  c #45B245",
"G  c #48B046",
"H  c #4EB24B",
"J  c #49B449",
"K  c #49B549",
"L  c #4BB54B",
"P  c #4FB64F",
"I  c #4FB74F",
"U  c #50B750",
"Y  c #53B751",
"T  c #56B555",
"R  c #54B755",
"E  c #53B953",
"W  c #54B954",
"Q  c #54BA54",
"!  c #58BA56",
"~  c #58B958",
"^  c #59BB59",
"/  c #58BC58",
"(  c #58BC59",
")  c #59BC59",
"_  c #5CBD5B",
"`  c #5CBD5C",
"'  c #5DBC5D",
"]  c #5CBE5C",
"[  c #5EBD5E",
"{  c #5FBF5F",
"}  c #61BE62",
"|  c #66C066",
" . c #6AC36A",
".. c #6FC46F",
"X. c #72C673",
"o. c #76C876",
"O. c #77C877",
"+. c #79C879",
"@. c #79C979",
"#. c #7AC97A",
"$. c #7BCA7A",
"%. c #7BCA7B",
"&. c #E7E700",
"*. c #E9E900",
"=. c #EBEB00",
"-. c #EDEF00",
";. c #EFEF00",
":. c #F1F100",
">. c #F3F300",
",. c #F5F500",
"<. c #F7F700",
"1. c #F9F900",
"2. c #FBFB00",
"3. c #FDFD00",
"4. c #F4F420",
"5. c #F5F525",
"6. c #F5F526",
"7. c #F6F62B",
"8. c #F6F62C",
"9. c #F7F730",
"0. c #F7F731",
"q. c #F8F836",
"w. c #F8F837",
"e. c #F5F53F",
"r. c #F9F93C",
"t. c #F9F93D",
"y. c #F6F644",
"u. c #FAFA41",
"i. c #FAFA42",
"p. c #FBFB47",
"a. c #F7F749",
"s. c #F7F74E",
"d. c #FCFC4C",
"f. c #F8F853",
"g. c #F9F957",
"h. c #FAFA5C",
"j. c #FBFB60",
"k. c #FCFC65",
"l. c #FCFC69",
"z. c #FDFD6D",
/* pixels */
"                                ",
"                                ",
"                                ",
"N M M M n b b 3.3.1.<.<.>.:.-.-.",
"n %.%.%.o.%.$.z.l.k.j.h.g.f.s.=.",
"M %.} ] ^ ] _ d.p.i.t.q.0.8.a.*.",
"n %._ ^ W ^ Q p.i.t.q.0.7.6.y.&.",
"M o.Q Q U W Y i.r.q.0.7.6.4.e.&.",
"b X.E U J U H x l h u i 0 9 z , ",
"* ..I J F J G g u r w 9 6 5 f : ",
"&  .J F S D S u r w 7 6 5 3 s - ",
"% | D Z V C B r q 7 6 4 2 1 p - ",
"# } ' ^ R ^ R v c k j f a y t = ",
"% @ + O o X . < , : : : - = = = ",
"                                ",
"                                "
};
