/* XPM */
static char *bm[] = {
/* columns rows colors chars-per-pixel */
"16 16 159 2 ",
"   c None",
".  c #34302F",
"X  c #7F153D",
"o  c #000059",
"O  c #00006B",
"+  c #331B6B",
"@  c #6B1D4D",
"#  c #7F254D",
"$  c #810000",
"%  c #830000",
"&  c #870000",
"*  c #890000",
"=  c #8B0000",
"-  c #8F0000",
";  c #910000",
":  c #930000",
">  c #970000",
",  c #990000",
"<  c #9B0000",
"1  c #9D0000",
"2  c #9F0000",
"3  c #A30000",
"4  c #A70000",
"5  c #AB0000",
"6  c #AF0000",
"7  c #B10000",
"8  c #B30000",
"9  c #B50000",
"0  c #B70000",
"q  c #B90000",
"w  c #BB0000",
"e  c #83173D",
"r  c #C20B0B",
"t  c #CA0F0E",
"y  c #C51010",
"u  c #CB1313",
"i  c #C71919",
"p  c #CF1919",
"a  c #C91E1E",
"s  c #CB1F1F",
"d  c #D91B15",
"f  c #CB2323",
"g  c #CB2424",
"h  c #CD2929",
"j  c #CD2A2A",
"k  c #CE2A2A",
"l  c #CA2C2C",
"z  c #CA2F2F",
"x  c #CB2F2F",
"c  c #CF2C2C",
"v  c #CF2E2E",
"b  c #CF2F2F",
"n  c #CF3030",
"m  c #CF3131",
"M  c #CC3232",
"N  c #CD3232",
"B  c #CD3535",
"V  c #CE3636",
"C  c #CF3939",
"Z  c #CF3B3B",
"A  c #D13434",
"S  c #D13535",
"D  c #D13636",
"F  c #D13737",
"G  c #D33636",
"H  c #D33A3A",
"J  c #D43B3A",
"K  c #D23B3D",
"L  c #D03D3D",
"P  c #D23F3F",
"I  c #D43C3C",
"U  c #D43C3D",
"Y  c #D43F3F",
"T  c #D53F3F",
"R  c #87466A",
"E  c #925379",
"W  c #AF677F",
"Q  c #D24242",
"!  c #D64040",
"~  c #D54142",
"^  c #D54242",
"/  c #D34444",
"(  c #D34646",
")  c #D64444",
"_  c #D64545",
"`  c #D74747",
"'  c #D54949",
"]  c #D54B4B",
"[  c #D74E4E",
"{  c #D84949",
"}  c #D84A49",
"|  c #DB4F4F",
" . c #D75050",
".. c #D85353",
"X. c #D85455",
"o. c #D95757",
"O. c #DA5858",
"+. c #DB5C5C",
"@. c #DB5D5D",
"#. c #C55B67",
"$. c #C65E69",
"%. c #C7626E",
"&. c #DD6060",
"*. c #DD6162",
"=. c #DF6565",
"-. c #DE6666",
";. c #DD696A",
":. c #DE6E6E",
">. c #C96775",
",. c #DF787A",
"<. c #E06A6A",
"1. c #E46B69",
"2. c #E16F6F",
"3. c #E4726F",
"4. c #E57472",
"5. c #E87C79",
"6. c #76B55E",
"7. c #79B862",
"8. c #7CBD66",
"9. c #7EBD66",
"0. c #80BF6A",
"q. c #88C372",
"w. c #6567A3",
"e. c #856995",
"r. c #9C789B",
"t. c #AF758C",
"y. c #C37C8E",
"u. c #6BC3E4",
"i. c #6FC5E5",
"p. c #998B8B",
"a. c #BA8399",
"s. c #B8839A",
"d. c #9186B1",
"f. c #D58890",
"g. c #E28284",
"h. c #EB8481",
"j. c #E3898B",
"k. c #E79495",
"l. c #D9A1AA",
"z. c #DAADB6",
"x. c #D1AFBB",
"c. c #F1A5A2",
"v. c #F1AAA7",
"b. c #E5B9BF",
"n. c #8FA0CD",
"m. c #A3A0C3",
"M. c #DAB7C1",
"N. c #E7BDC3",
"B. c #DFC1CB",
"V. c #E8CFD6",
"C. c #E2D5DF",
"Z. c #EFD8D8",
"A. c #F1DAD9",
"S. c #F2DCDB",
"D. c #F3DFDE",
"F. c #F2E0E0",
"G. c #F3E7E7",
"H. c #F4E5E5",
"J. c #F4E8E8",
/* pixels */
"                                ",
"                                ",
"                                ",
">.e.O X e o @ #.9 9 9 7 6 5 4 4 ",
"+ N.C.z.l.M.V.m.;.=.&.+.o...[ 1 ",
"p k.h.4.1.5.5.:.` ^ U F m c ' < ",
"# b.c.g.j.v.f.t.^ I H.J.G.F./ > ",
"w.B.d.s.s.n.x.r.K F D.i.u.A.P : ",
"d y.E %.$.R W 3.F b A.. p.A.Z - ",
"q 2.| { ` ! H F b k q.7.6.9.V = ",
"w <.' ` U H V b k f s 0.8.y m & ",
"9 =.` U H A c j f a i u t r z & ",
"9 &.+.O.X. .[ / Q Z C V M z l $ ",
"9 6 5 4 4 1 < < : : - = & & $ = ",
"                                ",
"                                "
};
