/* XPM */
static char *bn[] = {
/* columns rows colors chars-per-pixel */
"16 16 157 2 ",
"   c None",
".  c black",
"X  c #0B0B0B",
"o  c #0F0F0E",
"O  c #131313",
"+  c gray8",
"@  c #181919",
"#  c #191919",
"$  c gray12",
"%  c #2C2C2C",
"&  c #2F2F2F",
"*  c #4A2F30",
"=  c #522936",
"-  c #403535",
";  c gray27",
":  c #474545",
">  c #404049",
",  c #494A49",
"<  c #4B4A4B",
"1  c gray31",
"2  c #535353",
"3  c gray38",
"4  c #727273",
"5  c #767676",
"6  c #D3765F",
"7  c #DD765E",
"8  c #D57F6C",
"9  c #DD7E6A",
"0  c #B38700",
"q  c #B2A437",
"w  c #D7A700",
"e  c #D9A900",
"r  c #D9AB00",
"t  c #DDAF00",
"y  c #D5B500",
"u  c #DBB300",
"i  c #DFB300",
"p  c #DBB500",
"a  c #DFB500",
"s  c #D7B900",
"d  c #D7BB00",
"f  c #E1B700",
"g  c #E1B900",
"h  c #E3BB00",
"j  c #E3BD00",
"k  c #E5BF00",
"l  c #CDAC33",
"z  c #CEBD3B",
"x  c #E9C100",
"c  c #E9C500",
"v  c #EBC500",
"b  c #EBC700",
"n  c #EDC700",
"m  c #EFC900",
"M  c #EDCB00",
"N  c #EFCB00",
"B  c #EFCD00",
"V  c #F1CF00",
"C  c #F1D100",
"Z  c #F3D100",
"A  c #F1D300",
"S  c #F3D300",
"D  c #F5D300",
"F  c #F3D700",
"G  c #F5D500",
"H  c #F5D900",
"J  c #EED82F",
"K  c #E7CD33",
"L  c #E8CE37",
"P  c #EDD73B",
"I  c #EAD73F",
"U  c #F0D935",
"Y  c #F1DC35",
"T  c #F2DD3A",
"R  c #F2DE3B",
"E  c #F5E63D",
"W  c #C9AE47",
"Q  c #D48473",
"!  c #D78777",
"~  c #DD8370",
"^  c #DD8272",
"/  c #DF8977",
"(  c #E18878",
")  c #D8C247",
"_  c #D0C257",
"`  c #EFDB4B",
"'  c #F4DF40",
"]  c #F4DE45",
"[  c #F2DE4D",
"{  c #F1DE4E",
"}  c #EDD250",
"|  c #EFDD50",
" . c #F0DD50",
".. c #F1E541",
"X. c #F6E643",
"o. c #F2E646",
"O. c #F1E048",
"+. c #F4E048",
"@. c #F6E348",
"#. c #F6E34A",
"$. c #F5E14D",
"%. c #F8ED4D",
"&. c #F2E151",
"*. c #F6E550",
"=. c #F5E653",
"-. c #F3E257",
";. c #F7E855",
":. c #F3E258",
">. c #F4E35B",
",. c #F3E05E",
"<. c #F4E25C",
"1. c #F6E45F",
"2. c #F5E460",
"3. c #F7E564",
"4. c #F7E768",
"5. c #F7E76C",
"6. c #F7E868",
"7. c #F7E96C",
"8. c #F8EA70",
"9. c #F9EB70",
"0. c #F9EA74",
"q. c #F9ED75",
"w. c #F4E778",
"e. c #F9E978",
"r. c #FAEA7A",
"t. c #FAEC79",
"y. c #FAEC7D",
"u. c #898787",
"i. c #AAAAAA",
"p. c #DC9A91",
"a. c #FCEE8E",
"s. c #FCF2A3",
"d. c #C2C8C8",
"f. c #C3C9C9",
"g. c #C7D3D3",
"h. c #C9D1D1",
"j. c #D5DBDF",
"k. c #DADFDF",
"l. c #DFDFDF",
"z. c #F5F2D7",
"x. c #E4DEF8",
"c. c gray89",
"v. c gray90",
"b. c #EDE4E2",
"n. c #FCFBE8",
"m. c gray95",
"M. c #F3F3F3",
"N. c #F2F7F7",
"B. c #F4F4F4",
"V. c #F4F5F5",
"C. c gray96",
"Z. c #F6F6F6",
"A. c #F9F3F3",
"S. c gray99",
"D. c #FDFDFD",
"F. c #FEFEFE",
"G. c white",
/* pixels */
"                                ",
"                                ",
"                                ",
"H D G G G Z Z Z Z M M n n x j j ",
"G.G.s.a.r.r.0.0.0.7.4.3.1.>.-.f ",
"G.G.G.G.G.n.a. .} +.] ' R Y  .f ",
"u.G.G.G.S.S.S.j.p.$.+.R U J [ t ",
". 5 3 d.k.S.A./ ^ x.N.Z.z. .[ w ",
". 4 2 1 < Q ! h.b.( ~ Z.M.M.Z.v.",
"H w._ , : > 8 - * 6 d.g.M.m.M.c.",
"Z q.;.%.O.) W 9 7 = $ # + : i.l.",
"A 8.=.+.X.E P L K l # O o X & . ",
"B 7.6.2.<.:.=.| ` o...I z q % . ",
"M b b j j g a g p e e u d d y 0 ",
"                                ",
"                                "
};
