/* XPM */
static char *bo[] = {
/* columns rows colors chars-per-pixel */
"16 16 156 2 ",
"   c None",
".  c #DB1F00",
"X  c #E90000",
"o  c #EB0000",
"O  c #ED0000",
"+  c #EF0000",
"@  c #F10000",
"#  c #F30000",
"$  c #F50000",
"%  c #F70000",
"&  c #F90000",
"*  c #FB0000",
"=  c #FD0100",
"-  c #FD0900",
";  c #FD0B00",
":  c #FD1100",
">  c #FF1503",
",  c #F56D00",
"<  c #F66054",
"1  c #F76459",
"2  c #F8695E",
"3  c #F96D63",
"4  c #FA7167",
"5  c #F7766C",
"6  c #FB756C",
"7  c #FC786F",
"8  c #F77A70",
"9  c #FD7C72",
"0  c #F87D75",
"q  c #FD7F76",
"w  c #008300",
"e  c #008700",
"r  c #008B00",
"t  c #008F00",
"y  c #009100",
"u  c #009300",
"i  c #009900",
"p  c #009D00",
"a  c #009F00",
"s  c #00A300",
"d  c #00A700",
"f  c #00AB00",
"g  c #00AF00",
"h  c #00B100",
"j  c #00B300",
"k  c #00B700",
"l  c #519500",
"z  c #19C51A",
"x  c #1DC71D",
"c  c #22C822",
"v  c #26CA26",
"b  c #2BCC2B",
"n  c #31CE31",
"m  c #38CD38",
"M  c #3BCD3B",
"N  c #3ECE3E",
"B  c #36D036",
"V  c #3BD13B",
"C  c #41D041",
"Z  c #41D341",
"A  c #46D145",
"S  c #46D546",
"D  c #49D249",
"F  c #4AD74A",
"G  c #4DD44D",
"H  c #4FD94F",
"J  c #51D651",
"K  c #55D855",
"L  c #5BD85B",
"P  c #5EDA5F",
"I  c #63DC63",
"U  c #67DD67",
"Y  c #6BDE6B",
"T  c #6FE06F",
"R  c #C59D00",
"E  c #C9A100",
"W  c #CBA300",
"Q  c #93C500",
"!  c #ACCD28",
"~  c #AFCE2C",
"^  c #B0D030",
"/  c #B3D235",
"(  c #B5D43A",
")  c #B8D63F",
"_  c #E7C900",
"`  c #E9CD00",
"'  c #E9CF00",
"]  c #E4D130",
"[  c #E5D334",
"{  c #E5D335",
"}  c #E7D539",
"|  c #E8D73E",
" . c #E8D73F",
".. c #EF9648",
"X. c #F0994D",
"o. c #F29C52",
"O. c #F39F56",
"+. c #F4A25B",
"@. c #F98178",
"#. c #FE837A",
"$. c #FA847C",
"%. c #FE857C",
"&. c #FB887F",
"*. c #FE887F",
"=. c #F1A462",
"-. c #F5A560",
";. c #F5A864",
":. c #F6AA68",
">. c #F7AC6D",
",. c #F8AF70",
"<. c #F9B173",
"1. c #F9B377",
"2. c #BAD744",
"3. c #B8D446",
"4. c #BCD849",
"5. c #BFDA4E",
"6. c #C1DC53",
"7. c #C3DD58",
"8. c #C5DF5D",
"9. c #E9D843",
"0. c #E9D943",
"q. c #E9D944",
"w. c #EBD948",
"e. c #EBD949",
"r. c #EBDA49",
"t. c #E8D84E",
"y. c #ECDB4D",
"u. c #ECDC4E",
"i. c #E9D851",
"p. c #EDDD52",
"a. c #EDDD53",
"s. c #E9DA55",
"d. c #EEDE57",
"f. c #EFDE57",
"g. c #F0E05B",
"h. c #F0E05C",
"j. c #F1E15F",
"k. c #D0E57A",
"l. c #F1E161",
"z. c #F1E364",
"x. c #F2E365",
"c. c #F2E468",
"v. c #F3E56C",
"b. c #F4E87F",
"n. c #FC8C84",
"m. c #FC8F87",
"M. c #FD918A",
"N. c #FD948D",
"B. c #FE978F",
"V. c #FE9991",
"C. c #FE9B94",
"Z. c #FF9C95",
"A. c #FF9D95",
"S. c #FBC18F",
"D. c #F5E884",
"F. c #F6EA87",
/* pixels */
"                                ",
"                                ",
"                                ",
"> > > > : - - = * * % % # # O O ",
"> A.A.A.V.B.N.M.m.n.&.$.@.0 8 o ",
"> A.%.%.#.q 9 9 6 4 3 2 1 < 5 o ",
", S.1.<.,.>.:.;.-.+.+.X.X...=.. ",
"' F.v.c.x.l.h.d.a.u.r.q. .} s.W ",
"' F.c.z.l.j.a.a.u.r.q. .} [ i.E ",
"_ b.z.j.g.a.a.u.q.9. .} [ ] t.R ",
"Q k.8.7.6.5.4.2.2.( / ~ ~ ! 3.l ",
"k Y H F S Z V m n b v c x z M e ",
"j Y Y I P L K J G D A C N M M w ",
"j g f d s s p i y y t r e e w w ",
"                                ",
"                                "
};
