/* XPM */
static char *br[] = {
/* columns rows colors chars-per-pixel */
"16 16 148 2 ",
"   c None",
".  c black",
"X  c #000300",
"o  c #000700",
"O  c #000B00",
"+  c #000D00",
"@  c #000F00",
"#  c #001300",
"$  c #001900",
"%  c #001B00",
"&  c #002100",
"*  c #002700",
"=  c #002D00",
"-  c #002F00",
";  c #003500",
":  c #003B00",
">  c #004100",
",  c #004700",
"<  c #004B00",
"1  c #004D00",
"2  c #005100",
"3  c #005300",
"4  c #005700",
"5  c #005B00",
"6  c #005D00",
"7  c #006100",
"8  c #006300",
"9  c #157F15",
"0  c #198219",
"q  c #1D851D",
"w  c #1E851E",
"e  c #379714",
"r  c #228722",
"t  c #2A8C2A",
"y  c #30902F",
"u  c #368A36",
"i  c #358F35",
"p  c #349334",
"a  c #359335",
"s  c #369136",
"d  c #379237",
"f  c #3A933B",
"g  c #3B943B",
"h  c #3B963B",
"j  c #3E963E",
"k  c #39A434",
"l  c #76B73B",
"z  c #3F9940",
"x  c #419841",
"c  c #429B42",
"v  c #459945",
"b  c #459D45",
"n  c #479C47",
"m  c #479E47",
"M  c #4C9E4C",
"N  c #4CA14C",
"B  c #4DA14D",
"V  c #51A251",
"C  c #52A252",
"Z  c #51A451",
"A  c #56A456",
"S  c #57A457",
"D  c #5BA75B",
"F  c #5BA85B",
"G  c #5CAA5C",
"H  c #5FAC5F",
"J  c #63B24F",
"K  c #60A95F",
"L  c #60B058",
"P  c #60AA60",
"I  c #60AC60",
"U  c #63AE63",
"Y  c #64AD64",
"T  c #64AD65",
"R  c #67AF67",
"E  c #68AF69",
"W  c #66B067",
"Q  c #6BB16B",
"!  c #6DB36D",
"~  c #71B471",
"^  c #75B875",
"/  c #77B877",
"(  c #7ABA7A",
")  c #7BBB7B",
"_  c #7DBB7D",
"`  c #7FBD7F",
"'  c #A4D419",
"]  c #9ED231",
"[  c #AFDC3F",
"{  c #F4E91F",
"}  c #F3F319",
"|  c #F3F31A",
" . c #F4F41E",
".. c #F4F41F",
"X. c #F5F525",
"o. c #F6F62B",
"O. c #F7F72E",
"+. c #F8EF36",
"@. c #F9F03A",
"#. c #ADDD46",
"$. c #A8D954",
"%. c #B0E142",
"&. c #95CA73",
"*. c #B7E269",
"=. c #B3E26D",
"-. c #F5ED44",
";. c #FAFA42",
":. c #FBFB45",
">. c #F6F249",
",. c #FBFC49",
"<. c #FCFC4B",
"1. c #FCFC4F",
"2. c #FDF351",
"3. c #FDFC50",
"4. c #FDFD51",
"5. c #FDFD53",
"6. c #FBFB55",
"7. c #FAFD54",
"8. c #FCFC5A",
"9. c #6D73AA",
"0. c #2A5EF6",
"q. c #2F61F7",
"w. c #2F6BF7",
"e. c #3670F8",
"r. c #3B74F9",
"t. c #4271FA",
"y. c #4775FB",
"u. c #4078FA",
"i. c #4478F8",
"p. c #6569E2",
"a. c #6067EE",
"s. c #6A6FEA",
"d. c #7777E3",
"f. c #7E9FD9",
"g. c #5C83E9",
"h. c #739AF9",
"j. c #80BE80",
"k. c #80BE81",
"l. c #81BE81",
"z. c #8F94B3",
"x. c #ADACA1",
"c. c #CDCAA6",
"v. c #ACC6EB",
"b. c #A8C0F3",
"n. c #A9C0F6",
"m. c #B9D5F7",
"M. c #DFE9F4",
"N. c #D0E1FB",
/* pixels */
"                                ",
"                                ",
"                                ",
"8 8 8 8 8 6 5 5 2 < , > : ; - * ",
"8 l.` ` ) ) / =.*.Q W T K D A & ",
"8 l.W W H G 1.8.7.;.n j h a V $ ",
"8 ` U H $.2.d.y.t.p.+.] a y M # ",
"8 ) K 4.1.c.N.M.v.e.9.o.X.t n O ",
"6 &.4.1.<.g.r.h.b.m.f.X. .| l . ",
"5 / J <.:.z.r.y.w.n.x. .| e u # ",
"2 ~ B N [ @.a.q.0.s.{ ' q 0 f . ",
"1 ! N N c k O.>.-. .r q 0 9 d . ",
"< E T P F D V #.%.v x j f a i . ",
"> : ; - * & $ # + O . . . . . . ",
"                                ",
"                                "
};
