/* XPM */
static char *bt[] = {
/* columns rows colors chars-per-pixel */
"16 16 152 2 ",
"   c None",
".  c #DD0000",
"X  c #DF0000",
"o  c #E10000",
"O  c #E30000",
"+  c #E50000",
"@  c #E70000",
"#  c #E90000",
"$  c #EB0000",
"%  c #E90500",
"&  c #ED0B00",
"*  c #ED0F00",
"=  c #F10000",
"-  c #F30700",
";  c #EF1500",
":  c #ED5300",
">  c #F25714",
",  c #F1670B",
"<  c #F16B0E",
"1  c #F26413",
"2  c #F26B10",
"3  c #F26F14",
"4  c #F36319",
"5  c #F36419",
"6  c #F3701A",
"7  c #F4741E",
"8  c #F4741F",
"9  c #CE6D3E",
"0  c #F46720",
"q  c #F56D23",
"w  c #F4632C",
"e  c #F66D2A",
"r  c #F57326",
"t  c #F27B2C",
"y  c #F27C2F",
"u  c #F27D2F",
"i  c #F86934",
"p  c #F27F32",
"a  c #F37F32",
"s  c #F39F00",
"d  c #EFBB00",
"f  c #F3B100",
"g  c #F3B300",
"h  c #F5B100",
"j  c #F1B700",
"k  c #F7B700",
"l  c #F5B900",
"z  c #F7BB00",
"x  c #F5BF00",
"c  c #F9BD00",
"v  c #FBBD00",
"b  c #F9BF00",
"n  c #FBBF00",
"m  c #F38035",
"M  c #F48236",
"N  c #F48239",
"B  c #F4853B",
"V  c #F5873D",
"C  c #F58A3F",
"Z  c #F7C300",
"A  c #F9C100",
"S  c #F9C300",
"D  c #BA977C",
"F  c #D78B57",
"G  c #E68844",
"H  c #F68542",
"J  c #F68D44",
"K  c #F78649",
"L  c #F78E4E",
"P  c #F88A50",
"I  c #F98F55",
"U  c #F98858",
"Y  c #F19151",
"T  c #DFBB56",
"R  c #F9AB5F",
"E  c #FBD346",
"W  c #FBD647",
"Q  c #FBDE45",
"!  c #F2D24D",
"~  c #FBDA49",
"^  c #FCDB4B",
"/  c #FBDC49",
"(  c #FCDF4B",
")  c #FCD94F",
"_  c #FCDA4F",
"`  c #ECD75F",
"'  c #F8D753",
"]  c #F7DD57",
"[  c #FDD951",
"{  c #FDDA50",
"}  c #FDDB51",
"|  c #FDDB53",
" . c #FDDB54",
".. c #FEDC58",
"X. c #FEDC59",
"o. c #FADD5C",
"O. c #FEDE5C",
"+. c #FEDF5F",
"@. c #E5CD61",
"#. c #FBDC60",
"$. c #FCDF6A",
"%. c #FBE462",
"&. c #FCE266",
"*. c #FDE26D",
"=. c #FDE16F",
"-. c #FDE271",
";. c #FEE273",
":. c #FAE472",
">. c #FEE274",
",. c #FEE376",
"<. c #FEE477",
"1. c #FCE479",
"2. c #FEE579",
"3. c #FFE57A",
"4. c #FFE57B",
"5. c #F5A487",
"6. c #ECBA95",
"7. c #F8E28B",
"8. c #FCE88F",
"9. c #F2E69B",
"0. c #E8DBA7",
"q. c #E6CAB9",
"w. c #E8E4BB",
"e. c #D4CECC",
"r. c #D6D0CF",
"t. c #CFD7DD",
"y. c #D6D7D9",
"u. c #DDD8D8",
"i. c #DFDFDF",
"p. c #E0C0C0",
"a. c #E3CFC1",
"s. c #EAD2C3",
"d. c #E0D7C9",
"f. c #E8D8D0",
"g. c #EBDDD5",
"h. c #D8E2CE",
"j. c #D6D7E5",
"k. c #D4DBE6",
"l. c #D6DDEE",
"z. c #DEE0E1",
"x. c #D9E0E4",
"c. c #DBE2ED",
"v. c #DDE5EC",
"b. c #E7E4E2",
"n. c #E7E4E4",
"m. c #EFE8E5",
"M. c #EAEAEA",
"N. c #EAEAEB",
"B. c #EDEBEE",
"V. c #EAEDF3",
"C. c #F0F2F6",
"Z. c #FAFAF7",
/* pixels */
"                                ",
"                                ",
"                                ",
"S b b b b b z k b b k h g j j : ",
"b 4.4.4.<.;.;.*.8.7.#.o.] ' L $ ",
"S 4.#.O.O. .| ,.Z.C.N.` T w K % ",
"S 4.O.X.| | ( W N.V.m.B.9 r J @ ",
"S ,. . ._ ^ ! @.0.c.D t.a.0 C @ ",
"b ;.| _ ^ E l.j.x.v.b.b.r 6 B @ ",
"z $._ ~ Q w.k.g.f.y.s.G 1 3 M o ",
"z $.~ 9.h.r.u.q.e 5.i.e.> 2 m X ",
"g &.;.a.e.i z.F q 7 5 1 < , u X ",
"x %.R U I P 6.Y H V N m m u t . ",
"s - = ; * & $ $ @ @ o o X X . . ",
"                                ",
"                                "
};
