/* XPM */
static char *bv[] = {
/* columns rows colors chars-per-pixel */
"16 16 126 2 ",
"   c None",
".  c #B10000",
"X  c #B50000",
"o  c #B90000",
"O  c #BB0000",
"+  c #BD0000",
"@  c #BF0000",
"#  c #C30000",
"$  c #C50000",
"%  c #C90000",
"&  c #CB0000",
"*  c #CF0000",
"=  c #D10000",
"-  c #D50000",
";  c #D70000",
":  c #D90000",
">  c #DB0000",
",  c #DD0000",
"<  c #DA0E0B",
"1  c #DC110E",
"2  c #DC1210",
"3  c #DD1613",
"4  c #DD1714",
"5  c #DF1B19",
"6  c #DF1C19",
"7  c #E10000",
"8  c #E0211E",
"9  c #E0211F",
"0  c #DE2E2C",
"q  c #E12623",
"w  c #E22724",
"e  c #E22926",
"r  c #E22B29",
"t  c #E22C2A",
"y  c #E42E2B",
"u  c #E42E2C",
"i  c #E0312F",
"p  c #E4302E",
"a  c #E4312F",
"s  c #E03432",
"d  c #E03532",
"f  c #E53431",
"g  c #E23735",
"h  c #E63734",
"j  c #E73936",
"k  c #E73A37",
"l  c #E23B39",
"z  c #E83E3C",
"x  c #E83F3D",
"c  c #E4403D",
"v  c #E44442",
"b  c #E64644",
"n  c #E94342",
"m  c #E94442",
"M  c #EA4644",
"N  c #E64946",
"B  c #EA4947",
"V  c #EB4947",
"C  c #E74B49",
"Z  c #E74C4B",
"A  c #EB4B49",
"S  c #EB4E4B",
"D  c #EB4E4C",
"F  c #E8504E",
"G  c #EC5251",
"H  c #E95553",
"J  c #EB5A57",
"K  c #EF5D5C",
"L  c #EC5E5C",
"P  c #EC5F5D",
"I  c #F0615F",
"U  c #ED6360",
"Y  c #ED6462",
"T  c #EE6765",
"R  c #EE6866",
"E  c #EF6B69",
"W  c #EF6D6A",
"Q  c #EF6F6D",
"!  c #F07271",
"~  c #F27A79",
"^  c #F27D7A",
"/  c #F27D7B",
"(  c #0000A5",
")  c #001DB7",
"_  c #0353CF",
"`  c #0959D1",
"'  c #4B83D5",
"]  c #5086D7",
"[  c #548AD8",
"{  c #598DD9",
"}  c #5D90DB",
"|  c #6594DA",
" . c #6294DD",
".. c #6596DE",
"X. c #6697DE",
"o. c #6A99E0",
"O. c #6B9AE0",
"+. c #6F9CE1",
"@. c #6F9DE1",
"#. c #739FE3",
"$. c #77A3E4",
"%. c #7AA4E2",
"&. c #7AA5E5",
"*. c #7BA6E5",
"=. c #7EA8E7",
"-. c #92B6EA",
";. c #95B9EB",
":. c gray89",
">. c #E7E7E7",
",. c gray93",
"<. c #EFEFEF",
"1. c gray95",
"2. c #F3F3F3",
"3. c #F4F4F4",
"4. c gray96",
"5. c #F6F6F6",
"6. c gray97",
"7. c #F8F8F8",
"8. c #F9F9F9",
"9. c #FAFAFA",
"0. c #FBFBFB",
"q. c #FBFCFB",
"w. c gray99",
"e. c #FDFDFD",
"r. c #FEFEFE",
"t. c white",
/* pixels */
"                                ",
"                                ",
"                                ",
"7 7 7 t.` t., > > > ; ; = = % % ",
"7 / / t.;.t.! Q E T U P J H F $ ",
"7 / P t.=.0.G A V m c j f u C # ",
"7 ~ K t.&.t.A B n z j a t e b @ ",
"t.t.t.0.$.0.q.0.0.7.0.4.4.4.4.>.",
"_ -.=.$.$.X.O.X. .{ { [ ] ' | ( ",
"t.w.0.0.#.0.0.7.6.6.4.3.2.2.3.:.",
"> W A 0.X.7.f f r w 8 6 4 2 d X ",
"> T m 0.X.7.i r w 8 5 3 1 < i . ",
"; Y P 0.%.0.C N v c l g d i 0 . ",
"= = = ,.) ,.# @ @ O O X X . . . ",
"                                ",
"                                "
};
