/* XPM */
static char *bw[] = {
/* columns rows colors chars-per-pixel */
"16 16 137 2 ",
"   c None",
".  c black",
"X  c gray8",
"o  c #191919",
"O  c gray10",
"+  c gray12",
"@  c #202020",
"#  c gray14",
"$  c #252525",
"%  c #2A2A2A",
"&  c #2A2B2B",
"*  c gray17",
"=  c #2F2F2F",
"-  c gray19",
";  c #353535",
":  c gray21",
">  c #3B3B3A",
",  c gray23",
"<  c #3B3B3C",
"1  c #3F3F3F",
"2  c gray25",
"3  c #414141",
"4  c gray27",
"5  c #464646",
"6  c #494A49",
"7  c #4B4A4B",
"8  c #4B4B4B",
"9  c gray31",
"0  c #504F50",
"q  c #535353",
"w  c gray33",
"e  c #585858",
"r  c #6F6F6F",
"t  c #727273",
"y  c #767676",
"u  c #0083DD",
"i  c #0085DD",
"p  c #0087DF",
"a  c #0089DD",
"s  c #008BDD",
"d  c #0089DF",
"f  c #008DE1",
"g  c #008FE3",
"h  c #0091E5",
"j  c #0095E7",
"k  c #009BE9",
"l  c #009DEB",
"z  c #009FEB",
"x  c #00A1ED",
"c  c #00A5ED",
"v  c #00A9EF",
"b  c #00ADF1",
"n  c #00AFF3",
"m  c #00B1F5",
"M  c #00B3F7",
"N  c #00B7F5",
"B  c #00B5F7",
"V  c #00B7F9",
"C  c #00B9F9",
"Z  c #00BBFB",
"A  c #01BDFD",
"S  c #07BFFD",
"D  c #0BC1FD",
"F  c #11C3FD",
"G  c #11C3FF",
"H  c #13C3FF",
"J  c #15C5FF",
"K  c #25C9FF",
"L  c #37C2F1",
"P  c #3BC4F1",
"I  c #3FC6F2",
"U  c #44C7F3",
"Y  c #48C9F4",
"T  c #4CCBF5",
"R  c #55CBF2",
"E  c #57CBF2",
"W  c #51CDF6",
"Q  c #55CEF6",
"!  c #55CFF7",
"~  c #5ACDF3",
"^  c #5DCEF3",
"/  c #59D0F7",
"(  c #5AD1F8",
")  c #5ED2F8",
"_  c #5FD3F9",
"`  c #60CFF4",
"'  c #63D1F5",
"]  c #67D3F6",
"[  c #6AD4F7",
"{  c #6CD5F7",
"}  c #6FD6F7",
"|  c #63D4F9",
" . c #63D4FA",
".. c #67D5FA",
"X. c #68D6FA",
"o. c #6BD7FB",
"O. c #6FD8FC",
"+. c #72D7F7",
"@. c #73D8F8",
"#. c #75D8F8",
"$. c #76D9F9",
"%. c #73DAFD",
"&. c #76DBFD",
"*. c #7ADAF9",
"=. c #7EDCFA",
"-. c #7ADCFE",
";. c #7CDEFE",
":. c #7FDFFE",
">. c #81DDFB",
",. c #82DDFB",
"<. c #84DEFC",
"1. c #88DFFC",
"2. c #8AE1FD",
"3. c #8EE2FE",
"4. c #90E2FE",
"5. c #93E4FE",
"6. c #94E5FE",
"7. c #95E4FF",
"8. c #96E5FF",
"9. c #97E5FF",
"0. c #CDCDCD",
"q. c #D5D5D5",
"w. c gray93",
"e. c #F1F1F1",
"r. c gray95",
"t. c #F3F3F3",
"y. c #F4F4F4",
"u. c gray96",
"i. c #F6F6F6",
"p. c gray97",
"a. c #F8F8F8",
"s. c #F9F9F9",
"d. c gray98",
"f. c #FBFBFB",
"g. c gray99",
"h. c #FDFDFD",
"j. c #FEFEFE",
/* pixels */
"                                ",
"                                ",
"                                ",
"K J J J G D S A Z Z B m b b v v ",
"G 9.9.9.5.3.3.2.1.<.>.=.*.#.+.z ",
"G 9.;.;.-.&.%.%.o...| _ ( ! { k ",
"e.j.j.j.j.j.f.f.a.a.a.i.i.i.i.q.",
". y e w 9 8 5 3 > > - * # @ 1 . ",
". t q 9 7 5 3 < ; - * # + o < . ",
". r 9 7 5 2 > ; - * # + o X ; . ",
"w.j.f.f.a.a.i.i.i.y.y.y.e.e.y.0.",
"V >...| | ( ! W T Y U I P L R f ",
"m >.=.*.#.#.} o.[ ' ` ^ ~ E R u ",
"N m b v c x z k j h f f f i i a ",
"                                ",
"                                "
};
