/* XPM */
static char *by[] = {
/* columns rows colors chars-per-pixel */
"16 16 147 2 ",
"   c None",
".  c #002B00",
"X  c #002D00",
"o  c #002F00",
"O  c #003300",
"+  c #003700",
"@  c #003D00",
"#  c #004100",
"$  c #004700",
"%  c #004D00",
"&  c #005100",
"*  c #005700",
"=  c #005D00",
"-  c #E30000",
";  c #E50000",
":  c #E70000",
">  c #E90000",
",  c #EB0000",
"<  c #ED0000",
"1  c #EF0000",
"2  c #F10000",
"3  c #F30000",
"4  c #F50000",
"5  c #F70000",
"6  c #F90000",
"7  c #FB0000",
"8  c #FD0000",
"9  c red",
"0  c #F21414",
"q  c #F31919",
"w  c #F31A1A",
"e  c #F41F1F",
"r  c #F42020",
"t  c #F52424",
"y  c #F52525",
"u  c #F52626",
"i  c #F62A2A",
"p  c #F62B2B",
"a  c #F62C2C",
"s  c #F72F2F",
"d  c #F73030",
"f  c #F73131",
"g  c #F43636",
"h  c #F83535",
"j  c #F83636",
"k  c #F83736",
"l  c #F83737",
"z  c #FB353B",
"x  c #F43B3B",
"c  c #F53F3F",
"v  c #F93B3A",
"b  c #F93B3B",
"n  c #F93B3C",
"m  c #F93C3C",
"M  c #F93C3D",
"N  c #F64444",
"B  c #FA4040",
"V  c #FA4141",
"C  c #FA4142",
"Z  c #FA4242",
"A  c #FB4545",
"S  c #FB4646",
"D  c #FB4747",
"F  c #F74949",
"G  c #F74E4E",
"H  c #FB4A49",
"J  c #FC4A4B",
"K  c #FC4B4B",
"L  c #FC4C4C",
"P  c #FC4F4F",
"I  c #FD4F50",
"U  c #EF5B53",
"Y  c #F85353",
"T  c #FD5151",
"R  c #F95757",
"E  c #FD5454",
"W  c #FD5757",
"Q  c #FE5959",
"!  c #FA5C5C",
"~  c #FE5C5C",
"^  c #FF5F5F",
"/  c #FB6060",
"(  c #FE6161",
")  c #FC6565",
"_  c #FC6969",
"`  c #FD6D6D",
"'  c #E97066",
"]  c #FD7071",
"[  c #F87775",
"{  c #FE7474",
"}  c #FE7777",
"|  c #FE7979",
" . c #FF7E7E",
".. c #0B9C0B",
"X. c #0F9E0E",
"o. c #189810",
"O. c #1D9A14",
"+. c #219D19",
"@. c #13A013",
"#. c #18A219",
"$. c #1EA51E",
"%. c #27A01F",
"&. c #2CA324",
"*. c #23A823",
"=. c #29AA29",
"-. c #2CA82C",
";. c #2FA92F",
":. c #2EAD2E",
">. c #31A52A",
",. c #37A72F",
"<. c #3AA732",
"1. c #32AA32",
"2. c #35AD35",
"3. c #3CAA34",
"4. c #39AE39",
"5. c #34B034",
"6. c #3AB33A",
"7. c #3DB03D",
"8. c #3FB53F",
"9. c #41AD3A",
"0. c #47B03F",
"q. c #42B342",
"w. c #46B546",
"e. c #4CB245",
"r. c #4BB74B",
"t. c #50B950",
"y. c #54BC55",
"u. c #58BE58",
"i. c #FDA3A3",
"p. c #FEA5A5",
"a. c #FFB3B3",
"s. c #FFDFDF",
"d. c #CBE3CB",
"f. c #F5E7E9",
"g. c #F9E9EB",
"h. c #FCE9EA",
"j. c #FDEBEB",
"k. c #FEECEC",
"l. c #FEEDED",
"z. c #E7F3E7",
"x. c #F7F4F2",
"c. c #FAF3F2",
"v. c #FFF1F1",
"b. c #FEF4F4",
"n. c #FEF5F5",
"m. c #FFF5F5",
"M. c #FFF9F9",
/* pixels */
"                                ",
"                                ",
"                                ",
"m.^ s.9 7 9 9 9 7 7 5 5 3 3 < < ",
"9 M. .| } { ` ` _ ) ( ! R Y G , ",
"v.a.j.^ Q E E P H B n k f a F , ",
"9 m.( Q E E J A B M k f p u N ; ",
"j.p.j.E P J A B n g s p u r c ; ",
"9 b.W P P A B b k d a u e q x ; ",
"j.i.j.H A M b k d i u r q 0 g - ",
"z c.U e.0.9.3.,.>.&.%.O.O.o.<.o ",
"g.[ z.8.6.2.:.=.*.%.#.@.X...;.O ",
"5 x.' u.y.t.r.w.q.7.4.2.1.;.-.. ",
"f., d.= * & % $ # @ @ + o o . o ",
"                                ",
"                                "
};
