/* XPM */
static char *bz[] = {
/* columns rows colors chars-per-pixel */
"16 16 157 2 ",
"   c None",
".  c #C30000",
"X  c #C70000",
"o  c #CB0000",
"O  c #CF0000",
"+  c #D10000",
"@  c #D30000",
"#  c #DD0000",
"$  c #E10000",
"%  c #E50000",
"&  c #E70000",
"*  c #E90000",
"=  c #EB0000",
"-  c #ED0000",
";  c #EF0000",
":  c #F10000",
">  c #F50000",
",  c #F90000",
"<  c #0000A7",
"1  c #0000B1",
"2  c #0000C9",
"3  c #0000CB",
"4  c MediumBlue",
"5  c #0000CF",
"6  c #0000D1",
"7  c #0000D7",
"8  c #0001DB",
"9  c #001FDD",
"0  c #0017F1",
"q  c #001FF1",
"w  c #0025F1",
"e  c #002BF3",
"r  c #002FF5",
"t  c #0033F5",
"y  c #3C5ED9",
"u  c #1351E7",
"i  c #1753E5",
"p  c #1753E7",
"a  c #1D57E7",
"s  c #1C57E9",
"d  c #235BEA",
"f  c #225CE8",
"g  c #2860E9",
"h  c #2861EB",
"j  c #2E65EB",
"k  c #2D64ED",
"l  c #376AE4",
"z  c #366AEA",
"x  c #3369EC",
"c  c #3469EE",
"v  c #396DE9",
"b  c #3D6FE9",
"n  c #396DEF",
"m  c #3677E9",
"M  c #3E71F0",
"N  c #4060DA",
"B  c #4263DB",
"V  c #4565DC",
"C  c #5B79DF",
"Z  c #6175DE",
"A  c #4173EB",
"S  c #4476E9",
"D  c #4676E8",
"F  c #4676EC",
"G  c #4B7AED",
"H  c #417BF4",
"J  c #467FF5",
"K  c #507EF0",
"L  c #6579E0",
"P  c #6A7DE1",
"I  c #76ACBB",
"U  c #728DD9",
"Y  c #7590D9",
"T  c #70A4C7",
"R  c #4A87F2",
"E  c #4D86F1",
"W  c #4C83F5",
"Q  c #4C83F6",
"!  c #5385F2",
"~  c #5186F6",
"^  c #5187F6",
"/  c #568AF7",
"(  c #5A8AF0",
")  c #578AF8",
"_  c #5B8DF8",
"`  c #5E90F9",
"'  c #5E91F9",
"]  c #5F91F9",
"[  c #6681E5",
"{  c #6E80E1",
"}  c #6084EC",
"|  c #6588ED",
" . c #698CED",
".. c #6D8FEE",
"X. c #798FE7",
"o. c #6192F6",
"O. c #6D92F0",
"+. c #6293F9",
"@. c #6393F9",
"#. c #6197F9",
"$. c #6696FA",
"%. c #6C99F8",
"&. c #709CF8",
"*. c #759FF9",
"=. c #7DA2F6",
"-. c #78A2F9",
";. c #7BA4FA",
":. c #7FA6FB",
">. c #B2A08E",
",. c #93A0B3",
"<. c #B4ADAB",
"1. c #B3BDA6",
"2. c #88C7AE",
"3. c #8ED5BF",
"4. c #BCC9AF",
"5. c #BED5BE",
"6. c #B1F4A9",
"7. c #B1F4B2",
"8. c #BAF9B6",
"9. c #B9F5BD",
"0. c #C9F5BE",
"q. c #83ABDE",
"w. c #87B0D6",
"e. c #A6B4C0",
"r. c #8A9DE2",
"t. c #8F9FE6",
"y. c #8497EC",
"u. c #849BEE",
"i. c #869EEE",
"p. c #889EEF",
"a. c #80A8FB",
"s. c #9FCCC6",
"d. c #92D6C6",
"f. c #94DBC0",
"g. c #9EDEC1",
"h. c #A1D5D7",
"j. c #A2E2C1",
"k. c #AFEECC",
"l. c #B7F1CF",
"z. c #DDD5D3",
"x. c #D2F5C8",
"c. c #D5FCCD",
"v. c #D8FACE",
"b. c #D4E9D2",
"n. c #D9F5D3",
"m. c #DEF3DA",
"M. c #E5FBDE",
"N. c #DDE2E1",
"B. c #E3E5E3",
"V. c #E1E6E2",
"C. c #E5ECE4",
"Z. c #F3EDE5",
"A. c #E7FCE4",
"S. c #EAF3EC",
"D. c #F0F1F0",
"F. c #F5F4F5",
"G. c #F9F9F9",
/* pixels */
"                                ",
"                                ",
"                                ",
", , , , , > : * * ; ; ; ; * * * ",
"9 p.p.i.i.=.y.t.r.X.O.{ P L Z 1 ",
"t a.$.@.` @.h.l.k.d.E M n c ! 7 ",
"t :.+.` ] 9.A.S.C.m.7.S x j G 6 ",
"r ;.` _ q.c.Z.4.1.z.0.T k g F 4 ",
"e -._ ) s.M.G.<.>.F.n.2.g f A 4 ",
"w *./ ~ w.v.D.e.,.V.x.I d s b 3 ",
"q &.~ Q ! 8.b.V.N.5.6.l a i v 3 ",
"0 %.Q J H R f.j.g.3.m s i u z 3 ",
"8 .. .| } ( [ Y U C S V B B y < ",
"* * & & $ # + o . O @ + + O O O ",
"                                ",
"                                "
};
