/* XPM */
static char *ca[] = {
/* columns rows colors chars-per-pixel */
"16 16 146 2 ",
"   c None",
".  c #A10000",
"X  c #A50000",
"o  c #A70000",
"O  c #AD0000",
"+  c #B10000",
"@  c #B50000",
"#  c #BB0000",
"$  c #BF0000",
"%  c #C30000",
"&  c #C70000",
"*  c #C90000",
"=  c #CF0000",
"-  c #D30000",
";  c #D50000",
":  c #D90000",
">  c #DB0000",
",  c #DF0000",
"<  c #D41514",
"1  c #D61D1D",
"2  c #E30000",
"3  c #E7131B",
"4  c #E91F27",
"5  c #D72424",
"6  c #D8232B",
"7  c #DC2C2C",
"8  c #DA2932",
"9  c #D93636",
"0  c #DD3038",
"q  c #DE373E",
"w  c #ED272F",
"e  c #E92929",
"r  c #EF2D37",
"t  c #ED2F37",
"y  c #E03335",
"u  c #EF353D",
"i  c #E23C3C",
"p  c #EF393F",
"a  c #E03D44",
"s  c #EF3B43",
"d  c #F13F45",
"f  c #DB4444",
"g  c #DA4148",
"h  c #DC464C",
"j  c #DD4A50",
"k  c #DF4F55",
"l  c #DB5559",
"z  c #E74343",
"x  c #E24545",
"c  c #E3464D",
"v  c #E54D51",
"b  c #E64E55",
"n  c #E64F56",
"m  c #F14B53",
"M  c #E85757",
"N  c #E2555B",
"B  c #EA525D",
"V  c #EC5959",
"C  c #EA5D5E",
"Z  c #EA5F5F",
"A  c #E45B60",
"S  c #EC5E65",
"D  c #DE6A6B",
"F  c #E56164",
"G  c #E56167",
"H  c #ED6366",
"J  c #EC6666",
"K  c #E26C6D",
"L  c #E86A6A",
"P  c #EA6B6B",
"I  c #E9686C",
"U  c #E8686D",
"Y  c #E9686E",
"T  c #EE6D6E",
"R  c #EA6E73",
"E  c #EE6E74",
"W  c #EE6E75",
"Q  c #EC7176",
"!  c #ED7476",
"~  c #EF757A",
"^  c #F07373",
"/  c #F17A7A",
"(  c #F17E7E",
")  c #E87B81",
"_  c #F17C81",
"`  c gray75",
"'  c #EA8384",
"]  c #EF8084",
"[  c #E98B8B",
"{  c #F28186",
"}  c #F0848A",
"|  c #F4868B",
" . c #F28B8F",
".. c #F58B90",
"X. c #F39094",
"o. c #F69094",
"O. c #F49796",
"+. c #F49599",
"@. c #F5999E",
"#. c #F79EA2",
"$. c #E8A8A7",
"%. c #E9AFAF",
"&. c #F7A1A5",
"*. c #F8A4A7",
"=. c #F8A4A8",
"-. c #ECBDBE",
";. c gray77",
":. c #C5C5C5",
">. c #CBCBCB",
",. c gray80",
"<. c gray83",
"1. c #E8C0C1",
"2. c #EECECD",
"3. c #E8DDDB",
"4. c #F5D0D3",
"5. c #EBE3E3",
"6. c #EDE1E2",
"7. c #EDE6E6",
"8. c #E9E9E9",
"9. c gray92",
"0. c #ECECEC",
"q. c gray93",
"w. c #EEEEEE",
"e. c #EFEFEF",
"r. c #F7EBED",
"t. c #F1ECED",
"y. c #F0EEEE",
"u. c #F5EDED",
"i. c #F6EDED",
"p. c #F1F1F1",
"a. c gray95",
"s. c #F3F3F3",
"d. c #F3F5F5",
"f. c #F4F4F4",
"g. c gray96",
"h. c #F6F6F6",
"j. c gray97",
"k. c #F8F7F8",
"l. c #F9F9F9",
"z. c #F8FAFB",
"x. c gray98",
"c. c #FAFBFB",
"v. c #FBFBFB",
"b. c gray99",
"n. c #FDFDFD",
"m. c #FEFEFE",
/* pixels */
"                                ",
"                                ",
"                                ",
"m s d e f.f.g.g.g.a.a.w.- : - = ",
"r =.*.O.m.m.v.i.i.v.j.j.I Q R * ",
"p *.o.( m.v.z.' ) g.j.f.x b U % ",
"u &.../ v.4.2.H C 1.-.f.i c G $ ",
"r #.| ! v.I ! E I F f a.0 a A # ",
"w @.{ T z.[ V S B z D e.7 q N @ ",
"e +._ H z.i.K n v l 6.w.5 0 k + ",
"3 ..~ Z j.g.t.$.%.7.w.9.1 8 j O ",
"2  .E M g.f.a.3.5.w.9.8.< 6 h o ",
", | ) T g.g.a.w.w.w.w.w.9 h g o ",
": : ; * <.,.>.>.;.;.;.` . o . o ",
"                                ",
"                                "
};
