/* XPM */
static char *catalonia[] = {
/* columns rows colors chars-per-pixel */
"16 16 138 2 ",
"   c None",
".  c #E71802",
"X  c #E61B06",
"o  c #E61B0B",
"O  c #F1380B",
"+  c #F13A0E",
"@  c #EF2511",
"#  c #F23E13",
"$  c #F23B14",
"%  c #F43E20",
"&  c #F34019",
"*  c #F34319",
"=  c #F0441B",
"-  c #F4451F",
";  c #F4471E",
":  c #E55918",
">  c #E65A19",
",  c #E75B1A",
"<  c #E85C1B",
"1  c #F54325",
"2  c #F34823",
"3  c #F54C23",
"4  c #F54924",
"5  c #F6482B",
"6  c #F64E2A",
"7  c #F4492C",
"8  c #F65029",
"9  c #F6532C",
"0  c #F7532F",
"q  c #F7542E",
"w  c #F74D30",
"e  c #F85236",
"r  c #F75831",
"t  c #F65C37",
"y  c #F85934",
"u  c #F85835",
"i  c #F85C37",
"p  c #F9563C",
"a  c #F95C3A",
"s  c #F95E3A",
"d  c #F9613D",
"f  c #FA623F",
"g  c #FA5B41",
"h  c #FB5F46",
"j  c #F76043",
"k  c #FA6642",
"l  c #FB6A47",
"z  c #FA634D",
"x  c #FC6E4C",
"c  c #FD7151",
"v  c #FD7554",
"b  c #FE7859",
"n  c #FE7B5C",
"m  c #D0A409",
"M  c #D1A50A",
"N  c #D3A70C",
"B  c #D6AA0F",
"V  c #D7AB10",
"C  c #D9AD12",
"Z  c #DBAF14",
"A  c #DDB116",
"S  c #DEB217",
"D  c #E0B419",
"F  c #E3B71C",
"G  c #E5B91E",
"H  c #E8BC21",
"J  c #EBBF24",
"K  c #E4EC10",
"L  c #E6ED15",
"P  c #E3EB18",
"I  c #E7EE1A",
"U  c #E5EB1C",
"Y  c #E6EC1F",
"T  c #E8EF1F",
"R  c #F3E41A",
"E  c #F4E61F",
"W  c #ECC025",
"Q  c #EEC227",
"!  c #EFC328",
"~  c #F0C429",
"^  c #F1C52A",
"/  c #F3C72C",
"(  c #F4C82D",
")  c #F5C92E",
"_  c #F6CA2F",
"`  c #F7CB30",
"'  c #F8CC31",
"]  c #F9CD32",
"[  c #FACE33",
"{  c #FBCF34",
"}  c #FCD035",
"|  c #E6ED22",
" . c #E8EE27",
".. c #E9EE2B",
"X. c #F5E725",
"o. c #F3E628",
"O. c #F6E92B",
"+. c #EAF025",
"@. c #EAF126",
"#. c #EBF12B",
"$. c #EBF22C",
"%. c #F7EA30",
"&. c #F8EB36",
"*. c #F9EC3B",
"=. c #EAF030",
"-. c #EBF133",
";. c #ECF230",
":. c #EDF332",
">. c #EBF135",
",. c #EEF335",
"<. c #EEF437",
"1. c #ECF23A",
"2. c #EFF43B",
"3. c #ECF33E",
"4. c #EDF33F",
"5. c #EFF53D",
"6. c #FAEE40",
"7. c #EEF443",
"8. c #EEF445",
"9. c #EFF548",
"0. c #EFF549",
"q. c #F0F540",
"w. c #F0F642",
"e. c #F1F747",
"r. c #F0F64D",
"t. c #F2F74C",
"y. c #F0F64E",
"u. c #F1F652",
"i. c #F2F756",
"p. c #F3F851",
"a. c #F3F955",
"s. c #F3F85B",
"d. c #F4F860",
"f. c #F5F963",
"g. c #F5FA67",
"h. c #F6FA6A",
"j. c #F6FB6D",
"k. c #F6FB6F",
/* pixels */
"                                ",
"                                ",
"                                ",
"} } } } [ [ [ ` ) / ~ ! W J H G ",
"[ k.k.k.h.g.f.s.s.i.u.r.9.7.3.F ",
"< n n n b v c x l k d i r 9 t @ ",
"` a.a.a.a.p.t.e.w.5.<.:.$.@.-.A ",
", z z z z z h g p e w 5 1 % 7 o ",
") 6.6.*.6.6.6.*.&.%.O.X.X.R o.V ",
", j j h j j a u 9 6 3 ; $ $ 3 X ",
"~ 7.5.w.w.2.<.$.$. .T I L K | M ",
"> d k d a u q 6 3 ; * # + O = . ",
"W t.r.t.7.3.1.>.-... .| Y U P M ",
"W W J H G G D S C C V B N M M M ",
"                                ",
"                                "
};
