/* XPM */
static char *cc[] = {
/* columns rows colors chars-per-pixel */
"16 16 152 2 ",
"   c None",
".  c black",
"X  c #000500",
"o  c #000900",
"O  c #000B00",
"+  c #000F00",
"@  c #001100",
"#  c #001700",
"$  c #001900",
"%  c #001D00",
"&  c #002300",
"*  c #002500",
"=  c #002B00",
"-  c #003100",
";  c #003700",
":  c #003D00",
">  c #003F00",
",  c #004300",
"<  c #004500",
"1  c #004900",
"2  c #004B00",
"3  c #004D00",
"4  c #005100",
"5  c #005300",
"6  c #005500",
"7  c #005700",
"8  c #005900",
"9  c #005D03",
"0  c #004F19",
"q  c #005D17",
"w  c #0B7A38",
"e  c #107D3B",
"r  c #137F3E",
"t  c #147F3F",
"y  c #4E9232",
"u  c #188243",
"i  c #198243",
"p  c #198244",
"a  c #1A8444",
"s  c #1E8547",
"d  c #1F8648",
"f  c #1F8748",
"g  c #24894D",
"h  c #25894D",
"j  c #258B4E",
"k  c #268B4E",
"l  c #2E8C4B",
"z  c #2A8A52",
"x  c #2C8A51",
"c  c #2B8E53",
"v  c #2C8E53",
"b  c #2F8D55",
"n  c #318F57",
"m  c #388E50",
"M  c #338F58",
"N  c #3C9354",
"B  c #3E9256",
"V  c #349359",
"C  c #36915B",
"Z  c #37955D",
"A  c #39945D",
"S  c #3A965E",
"D  c #3D9760",
"F  c #3B9860",
"G  c #3C9861",
"H  c #3D9961",
"J  c #3F9962",
"K  c #5C9A42",
"L  c #4C9B52",
"P  c #43965A",
"I  c #46985B",
"U  c #44985E",
"Y  c #4C9D5E",
"T  c #659E4D",
"R  c #60A251",
"E  c #6AA453",
"W  c #6FA658",
"Q  c #7CAD5F",
"!  c #429765",
"~  c #409963",
"^  c #429B66",
"/  c #449C67",
"(  c #459D67",
")  c #4D9C63",
"_  c #469C68",
"`  c #479D6A",
"'  c #499E6A",
"]  c #4B9A6F",
"[  c #499F6C",
"{  c #4B9E6C",
"}  c #529F68",
"|  c #559F6F",
" . c #549D79",
".. c #4FA066",
"X. c #49A06C",
"o. c #4EA16F",
"O. c #50A06F",
"+. c #57A16D",
"@. c #57A26C",
"#. c #5AA76F",
"$. c #4FA270",
"%. c #54A474",
"&. c #59A073",
"*. c #59A571",
"=. c #58A677",
"-. c #5DA97B",
";. c #64AE70",
":. c #6CAD71",
">. c #61AC7F",
",. c #D1BE27",
"<. c #C2C03E",
"1. c #CFC33C",
"2. c #E6CC3E",
"3. c #8CAA47",
"4. c #93B051",
"5. c #A8BA4D",
"6. c #81B36D",
"7. c #81B576",
"8. c #87B976",
"9. c #B9C06B",
"0. c #ADC472",
"q. c #CAC448",
"w. c #D4C441",
"e. c #DAC941",
"r. c #DACA4F",
"t. c #CFC952",
"y. c #E1CD4A",
"u. c #ECD24F",
"i. c #E2CF51",
"p. c #E3D154",
"a. c #EAD455",
"s. c #FEDD58",
"d. c #FDED54",
"f. c #FEEE59",
"g. c #E2D365",
"h. c #FEF17D",
"j. c #FFF67E",
"k. c #5FA283",
"l. c #65AE82",
"z. c #66AE83",
"x. c #69B085",
"c. c #6AB187",
"v. c #6DB389",
"b. c #6FB38A",
"n. c #74B38F",
"m. c #70B58C",
"M. c #72B48F",
"N. c #77B591",
"B. c #ACCC8A",
"V. c #B3CD8D",
"C. c #F3E284",
"Z. c #FFE982",
/* pixels */
"                                ",
"                                ",
"                                ",
"9 9 9 9 8 7 5 3 1 , : ; 7 = * % ",
"9 V.j.C.N.n.m.v.x.l.>.7.g.6.o.# ",
"9 Z.k.8.f. .*.| ` ^ G Z R v ' + ",
"q h.0.9.d.&.] a.i.D 4.n c k Q o ",
"0 B.s.d.;.+.p.t.F 5.e.3.k K r.= ",
"5 M.:.#.@.} u.Y I L ,.j d p W . ",
"5 m.o.X.) ) y.q.B z g d p ,.F . ",
"1 c.X.( ^ U P 2.1.g d u t r M . ",
"< l.( G S V N m l d u r y w n . ",
": >.-.=.%.%.' ` ! D F W w.T z . ",
"; - = * % # + o X . . . # . . . ",
"                                ",
"                                "
};
