/* XPM */
static char *cd[] = {
/* columns rows colors chars-per-pixel */
"16 16 116 2 ",
"   c None",
".  c #B20000",
"X  c #B80000",
"o  c #C10000",
"O  c #C40000",
"+  c #C80000",
"@  c #CA0000",
"#  c #F2000E",
"$  c #F4000E",
"%  c #F5000F",
"&  c #F6000F",
"*  c #F7000F",
"=  c #F8000F",
"-  c #F9000F",
";  c #FC000F",
":  c #FE000F",
">  c #FF000F",
",  c #FF0010",
"<  c #FF0011",
"1  c #FF370D",
"2  c #FF380D",
"3  c #F52528",
"4  c #FE2529",
"5  c #FF252A",
"6  c #C86200",
"7  c #FF6319",
"8  c #FF6419",
"9  c #FF6519",
"0  c #FF5326",
"q  c #FF5627",
"w  c #FF7831",
"e  c #B8B600",
"r  c #C1DA07",
"t  c yellow",
"y  c #FFFF0A",
"u  c #FFFD10",
"i  c #FFFF10",
"p  c #FFFF11",
"a  c #FFFF12",
"s  c #FFFF23",
"d  c #FFFB2A",
"f  c #FFFF2B",
"g  c #EFFF6F",
"h  c #0084B2",
"j  c #0086B2",
"k  c #0086B4",
"l  c #0088B4",
"z  c #0089B6",
"x  c #0089B9",
"c  c #008DBF",
"v  c #3DFFA0",
"b  c #4EC884",
"n  c #0092C1",
"m  c #0094C4",
"M  c #0098CB",
"N  c #00B2E8",
"B  c #00B4ED",
"V  c #00B9F4",
"C  c #00BDF8",
"Z  c #00BFFB",
"A  c #48B1D1",
"S  c #49B2D3",
"D  c #49B3D4",
"F  c #4AB4D6",
"G  c #4AB5D6",
"H  c #4AB6D7",
"J  c #4BB7D9",
"K  c #4BB8DA",
"L  c #61BAD4",
"P  c #61BBD4",
"I  c #62BBD5",
"U  c #62BCD5",
"Y  c #62BDD7",
"T  c #63BED9",
"R  c #63BFDA",
"E  c #00C1FD",
"W  c #02C4FF",
"Q  c #04C8FF",
"!  c #05CAFF",
"~  c #05CBFF",
"^  c #05CFFF",
"/  c #07FFF6",
"(  c #64C0DB",
")  c #65C2DD",
"_  c #54CEF4",
"`  c #55D0F7",
"'  c #55D1F8",
"]  c #56D3FA",
"[  c #57D4FB",
"{  c #57D5FD",
"}  c #58D7FF",
"|  c #66C4E0",
" . c #6CD4F3",
".. c #6DD7F8",
"X. c #6ED9FA",
"o. c #6FDBFD",
"O. c #6FDCFE",
"+. c #70DEFF",
"@. c #70E0FF",
"#. c #71E0FF",
"$. c #BCEE84",
"%. c #BDEF85",
"&. c #BFF186",
"*. c #B4EFAB",
"=. c #B2EEAC",
"-. c #B3F8A1",
";. c #BBF6AA",
":. c #B9FBB6",
">. c #BCFCB7",
",. c #C5EF91",
"<. c #C5F190",
"1. c #C6F391",
"2. c #CCF19B",
"3. c #F6FF81",
"4. c #C3F6B2",
"5. c #C9FDB7",
/* pixels */
"                                ",
"                                ",
"                                ",
"^ ^ v ^ ^ ! ! ! E C V B N r + o ",
"^ >.s :.@.@.+.o.X... .2.d 0 3 . ",
"/ f a a -.} ] ] _ <.a 1 % # 5 X ",
"^ 3.a g } ] _ 1.y 1 * % > > w e ",
"! 5.} ;.` =.a 1 < * , , 7 a ,.c ",
"W O.] *.a 2 > = < < 8 a $.H R x ",
"C 4.y 2 > % , , 9 p $.H H D R l ",
"t q > > , , 8 a &.K H D A A L h ",
"+ < = > 8 a &.K K K H H D A L h ",
"+ 5 8 y &.| | | ) ( R R U L L h ",
"O 6 b M M M m n c x k k j j h h ",
"                                ",
"                                "
};
