/* XPM */
static char *cf[] = {
/* columns rows colors chars-per-pixel */
"16 16 159 2 ",
"   c None",
".  c #001D00",
"X  c #002300",
"o  c #005A00",
"O  c #005E00",
"+  c #0C6D0C",
"@  c #D80000",
"#  c #DA0000",
"$  c #F00000",
"%  c #F30000",
"&  c #F52323",
"*  c #F62929",
"=  c #F62A2A",
"-  c #F72F2F",
";  c #F83535",
":  c #F83636",
">  c #F93B3B",
",  c #F93B3C",
"<  c #F64242",
"1  c #F74646",
"2  c #FA4141",
"3  c #FA4142",
"4  c #FB4747",
"5  c #FC4C4C",
"6  c #FC6969",
"7  c #FD6D6D",
"8  c #109610",
"9  c #149314",
"0  c #149914",
"q  c #199519",
"w  c #199619",
"e  c #1F981F",
"r  c #3F8F00",
"t  c #249B24",
"y  c #2A9E2A",
"u  c #33A532",
"i  c #36A236",
"p  c #34AF34",
"a  c #3AB23A",
"s  c #3BB23A",
"d  c #74BC00",
"f  c #40B43F",
"g  c #4AA74A",
"h  c #40B540",
"j  c #45B745",
"k  c #49B949",
"l  c #49BA49",
"z  c #4FBC4F",
"x  c #6AC76A",
"c  c #6FC86F",
"v  c #BBBB02",
"b  c #AAD50B",
"n  c #ACD60E",
"m  c #AED713",
"M  c #B0DA19",
"N  c #B3DC1E",
"B  c #B6DA2F",
"V  c #BAE12E",
"C  c #BCE234",
"Z  c #BFE23A",
"A  c #C2C200",
"S  c #C4C400",
"D  c #CCCC00",
"F  c #CDCD00",
"G  c #CECE00",
"H  c #D1D100",
"J  c #D3D300",
"K  c #D4D400",
"L  c #D6D600",
"P  c #DDDD00",
"I  c #DFDF00",
"U  c #DFE200",
"Y  c #C1E43F",
"T  c #F2F22C",
"R  c #F2F22F",
"E  c #F2F232",
"W  c #F3F335",
"Q  c #F4F439",
"!  c #F5F53D",
"~  c #C3E544",
"^  c #F7F74B",
"/  c #F8F850",
"(  c #F9F955",
")  c #F9F958",
"_  c #FAFA5D",
"`  c #CEEA66",
"'  c #FBFB62",
"]  c #EDED7E",
"[  c #FFFF7F",
"{  c #0000CE",
"}  c #000CCE",
"|  c #0010D3",
" . c #0016D7",
".. c #001CD9",
"X. c #001FDC",
"o. c #0025DE",
"O. c #092FD8",
"+. c #0024E3",
"@. c #0029E1",
"#. c #0230E7",
"$. c #053CE7",
"%. c #0A3BE8",
"&. c #0A3CE9",
"*. c #0A3EE9",
"=. c #0C3EE8",
"-. c #0C3EE9",
";. c #5D82F1",
":. c #6286F2",
">. c #6689F4",
",. c #6B8DF5",
"<. c #6F90F6",
"1. c #7493F2",
"2. c #779EF2",
"3. c #7A9FF4",
"4. c #7B99F8",
"5. c #7D9CF9",
"6. c #7FA3F5",
"7. c #7FA1F9",
"8. c #B7B7B7",
"9. c #87C887",
"0. c #8BCA8B",
"q. c #8ECB8E",
"w. c #98CF98",
"e. c #90D191",
"r. c #94D394",
"t. c #9DD89D",
"y. c #A0DAA1",
"u. c #A3D8A3",
"i. c #A6DAA6",
"p. c #A9DBA9",
"a. c #B9E2B9",
"s. c #EDED8F",
"d. c #E4E499",
"f. c #82A5F6",
"g. c #85A8F7",
"h. c #81A0F9",
"j. c #8AA5F8",
"k. c #93ACFA",
"l. c #94B3FA",
"z. c #97B5FA",
"x. c #9CB3FB",
"c. c gray77",
"v. c #E4E4E4",
"b. c #E4E4E9",
"n. c #F4F4F4",
"m. c #F4F4F5",
"M. c gray96",
"N. c #F5F5F6",
"B. c #F6F6F6",
"V. c gray97",
"C. c #F8F8F8",
"Z. c #F9F9F9",
"A. c #FBFBFB",
"S. c #FBFBFE",
"D. c gray99",
"F. c #FCFCFD",
"G. c #FDFCFD",
"H. c #FDFDFD",
"J. c #FEFEFE",
/* pixels */
"                                ",
"                                ",
"                                ",
"O.-.v &.&.$.#.% % +.@.o.o... .| ",
"-.d.[ s.z.l.k.7 6 j.g.g.6.3.2.} ",
"%.x.] h.7.5.4.5 4 1.,.>.:.;.1.{ ",
"b.J.S.S.S.J.A.4 3 C.V.V.m.m.m.c.",
"v.J.J.J.D.D.A.2 , C.V.V.m.n.m.8.",
"g a.p.i.y.y.t.> : r.e.q.0.9.w.+ ",
"o c z k j h s ; - y t e w 9 i . ",
"o x k j h s p - = e e w 0 8 u X ",
"d ` ~ Y Y C V * & B M n n b B r ",
"S ' _ ) ( / ^ 1 < ! Q W E R R F ",
"A S F L U U P # # L H H G F D F ",
"                                ",
"                                "
};
