/* XPM */
static char *ci[] = {
/* columns rows colors chars-per-pixel */
"16 16 121 2 ",
"   c None",
".  c #ED5300",
"X  c #EF5B00",
"o  c #F16300",
"O  c #F36700",
"+  c #F76F00",
"@  c #F57500",
"#  c #F97700",
"$  c #FB7B00",
"%  c #FD7F00",
"&  c #008100",
"*  c #008300",
"=  c #008700",
"-  c #008900",
";  c #008B00",
":  c #008F00",
">  c #009300",
",  c #009700",
"<  c #009B00",
"1  c #009D00",
"2  c #00A700",
"3  c #00A900",
"4  c #00AB00",
"5  c #00AF00",
"6  c #00B100",
"7  c #0BC20B",
"8  c #0FC40E",
"9  c #10C410",
"0  c #13C513",
"q  c #14C614",
"w  c #19C719",
"e  c #19C819",
"r  c #1AC81A",
"t  c #1FC91F",
"y  c #1FCA1F",
"u  c #20CA20",
"i  c #25CB25",
"p  c #25CC25",
"a  c #26CD26",
"s  c #2BCD2B",
"d  c #2BCE2B",
"f  c #2CCA2C",
"g  c #2FCA2F",
"h  c #2FCB2F",
"j  c #2CCE2C",
"k  c #31CF31",
"l  c #32CC32",
"z  c #33CC32",
"x  c #35CD35",
"c  c #36CD36",
"v  c #3BCF3B",
"b  c #31D031",
"n  c #37D137",
"m  c #3FD23F",
"M  c #44D344",
"N  c #49D549",
"B  c #4ED74E",
"V  c #53D853",
"C  c #58D957",
"Z  c #5CDA5C",
"A  c #FD8300",
"S  c #FF8500",
"D  c #FD8700",
"F  c #FF8700",
"G  c #FF8900",
"H  c #FF9100",
"J  c #F9AA3A",
"K  c #FAAD3F",
"L  c #FAAE3F",
"P  c #FAB144",
"I  c #FBB045",
"U  c #FBB145",
"Y  c #FCB34B",
"T  c #FBB449",
"R  c #FCB64F",
"E  c #FCB74F",
"W  c #FDB550",
"Q  c #F9B555",
"!  c #FDB754",
"~  c #FDB953",
"^  c #FDB954",
"/  c #F9B958",
"(  c #FEBA59",
")  c #FEBB59",
"_  c #FEBC58",
"`  c #FABC5D",
"'  c #FEBD5C",
"]  c #FEBF5F",
"[  c #FBBE62",
"{  c #FCC066",
"}  c #FCC36A",
"|  c #FDC46F",
" . c #FEC673",
".. c #FEC777",
"X. c #FEC876",
"o. c #FEC879",
"O. c #FFCA7A",
"+. c #FFCA7B",
"@. c gray82",
"#. c LightGray",
"$. c #D7D7D7",
"%. c gray85",
"&. c #DDDDDD",
"*. c #E9E9E9",
"=. c gray92",
"-. c gray93",
";. c #EFEFEF",
":. c #EFEFF1",
">. c #F3F3F3",
",. c #F4F4F4",
"<. c gray96",
"1. c #F6F6F6",
"2. c gray97",
"3. c #F8F8F8",
"4. c #F9F9F9",
"5. c #FAFAFA",
"6. c #FBFBFB",
"7. c gray99",
"8. c #FDFDFD",
"9. c #FDFDFE",
"0. c #FEFEFE",
/* pixels */
"                                ",
"                                ",
"                                ",
"H G G F A :.;.-.;.*.*.6 6 3 2 3 ",
"F +.+.+...9.9.9.6.6.6.Z C V B 1 ",
"G +.' ' ) 9.9.6.6.6.6.n b j N < ",
"F o.' ' ! 9.7.6.6.3.3.k d a M , ",
"F ..^ ^ W 7.6.6.6.1.1.d a u m > ",
"F  .~ R Y 6.6.6.1.3.1.i t r n : ",
"% | R T I 6.3.1.1.1.1.t w 0 v ; ",
"$ } U U K 3.6.1.1.1.>.w q 9 l = ",
"# [ P P J 1.1.1.1.,.>.0 8 7 g = ",
"+ [ ` / Q 6.1.1.1.1.,.x l g g & ",
"@ O o X . &.%.$.$.@.@.; = = & ; ",
"                                ",
"                                "
};
