/* XPM */
static char *ck[] = {
/* columns rows colors chars-per-pixel */
"16 16 149 2 ",
"   c None",
".  c black",
"X  c #000003",
"o  c #000009",
"O  c #00000B",
"+  c #000011",
"@  c #000019",
"#  c #00001F",
"$  c #000023",
"%  c #000025",
"&  c #00002B",
"*  c #000031",
"=  c #000037",
"-  c #000039",
";  c #00003F",
":  c #000045",
">  c #00004B",
",  c #00196B",
"<  c #002977",
"1  c #203A76",
"2  c #253D79",
"3  c #571D59",
"4  c #591F5D",
"5  c #29417B",
"6  c #2A427C",
"7  c #2D467E",
"8  c #2E467F",
"9  c #2F477F",
"0  c #3E517F",
"q  c #D31B19",
"w  c #891D43",
"e  c #8D1D41",
"r  c #8B3155",
"t  c #A5536D",
"y  c #BB677B",
"u  c #D86F73",
"i  c #E36C6B",
"p  c #E57372",
"a  c #E27879",
"s  c #EA7D7A",
"d  c #373781",
"f  c #324982",
"g  c #324B82",
"h  c #344B83",
"j  c #374E85",
"k  c #374E86",
"l  c #385086",
"z  c #395086",
"x  c #3A5187",
"c  c #3C5289",
"v  c #3C5389",
"b  c #3D5389",
"n  c #3E5488",
"m  c #3D558A",
"M  c #3E558A",
"N  c #3F558A",
"B  c #445683",
"V  c #40568A",
"C  c #41578A",
"Z  c #41578C",
"A  c #42578C",
"S  c #42588D",
"D  c #43598D",
"F  c #44598C",
"G  c #445A8D",
"H  c #475C8E",
"J  c #4A5C88",
"K  c #485D8F",
"L  c #465C90",
"P  c #475C90",
"I  c #485E91",
"U  c #4A5F92",
"Y  c #6F578F",
"T  c #4F618B",
"R  c #4B6090",
"E  c #4B6093",
"W  c #4C6092",
"Q  c #4C6193",
"!  c #4E6293",
"~  c #4D6194",
"^  c #4E6394",
"/  c #4F6395",
"(  c #506594",
")  c #526695",
"_  c #516596",
"`  c #516597",
"'  c #516697",
"]  c #536898",
"[  c #576A99",
"{  c #556A9A",
"}  c #556A9B",
"|  c #566A9A",
" . c #5A6D9A",
".. c #5A6E9C",
"X. c #5B6E9C",
"o. c #5B6E9D",
"O. c #5F719E",
"+. c #6B6197",
"@. c #60719E",
"#. c #5F72A0",
"$. c #6375A0",
"%. c #6475A1",
"&. c #6377A5",
"*. c #6779A4",
"=. c #687AA4",
"-. c #6B7DA6",
";. c #6B7DA7",
":. c #6C7EA7",
">. c #707FA1",
",. c #826995",
"<. c #846D99",
"1. c #8F769B",
"2. c #AF7B95",
"3. c #947DA3",
"4. c #6F80A9",
"5. c #7081A9",
"6. c #7384AB",
"7. c #7585AC",
"8. c #7989AE",
"9. c #7C8CB1",
"0. c #868BB3",
"q. c #908EB7",
"w. c #C78696",
"e. c #C58999",
"r. c #D99097",
"t. c #E08587",
"y. c #EC8583",
"u. c #E18689",
"i. c #E89596",
"p. c #D8A4AE",
"a. c #D4ABB7",
"s. c #DAABB4",
"d. c #F0AAA8",
"f. c #F0ACAB",
"g. c #E6B9BF",
"h. c #93A0C7",
"j. c #A4ACCA",
"k. c #D4BAC8",
"l. c #DFBFC8",
"z. c #C3C3C3",
"x. c #DDD3DE",
"c. c #E6C3CA",
"v. c #E8CED4",
"b. c #F1F1F1",
"n. c #F3F3F3",
"m. c #F4F4F4",
"M. c #F6F6F6",
"N. c gray97",
"B. c #F8F8F8",
/* pixels */
"                                ",
"                                ",
"                                ",
"y Y < w e , 3 t $ ; = * & % # @ ",
"d c.x.s.p.k.v.j.>.6.4.-.*.$.O.+ ",
"q i.y.p i s a u T ] ^ U N.N  .o ",
"r g.d.t.u.f.r.2.J ! B.G N z N.X ",
"+.l.q.e.w.h.a.3.B U D N z h ( X ",
"4 0.&.<.,.} ;.1.0 N.N l h f R z.",
"> 9.#.o.} ` ^ P D v z f 7 6 H X ",
": 8. .} ` ^ P A v j m.7 5 2 n.X ",
"; 7.} ` U L A v j f 7 5 b.1 C X ",
"- 5.:.=.%.@.X.[ ( ! T H F C n X ",
"* & % # @ + o X X X X X X X X X ",
"                                ",
"                                "
};
