/* XPM */
static char *cl[] = {
/* columns rows colors chars-per-pixel */
"16 16 122 2 ",
"   c None",
".  c #DD0000",
"X  c #DF0000",
"o  c #E10000",
"O  c #E30000",
"+  c #E50000",
"@  c #E70000",
"#  c #E90000",
"$  c #EB0000",
"%  c #ED0000",
"&  c #EF0000",
"*  c #F10000",
"=  c #F30000",
"-  c #F50000",
";  c #F70000",
":  c #F90000",
">  c #FB0000",
",  c #FD0000",
"<  c #F10B0B",
"1  c #F10F0E",
"2  c #F21010",
"3  c #F21313",
"4  c #F21414",
"5  c #F31919",
"6  c #F41E1E",
"7  c #F41F1F",
"8  c #F52323",
"9  c #F52424",
"0  c #F62929",
"q  c #F62A2A",
"w  c #F22C2C",
"e  c #F22F2F",
"r  c #F72E2E",
"t  c #F72F2F",
"y  c #F23232",
"u  c #F33232",
"i  c #F33535",
"p  c #F43636",
"a  c #F83434",
"s  c #F83535",
"d  c #F43939",
"f  c #F53D3D",
"g  c #F93A3A",
"h  c #F93B3A",
"j  c #FA3F3F",
"k  c #F64242",
"l  c #F74646",
"z  c #FA4040",
"x  c #FA4444",
"c  c #FB4545",
"v  c #F74B4B",
"b  c #FB4949",
"n  c #FB4A49",
"m  c #FC4F4F",
"M  c #F85050",
"N  c #F95455",
"B  c #F95858",
"V  c #FA5D5D",
"C  c #FB6162",
"Z  c #FC6666",
"A  c #FC6A6A",
"S  c #FD6F6F",
"D  c #003FAF",
"F  c #0053C1",
"G  c #0059C3",
"H  c #005BC3",
"J  c #005DC3",
"K  c #0067C7",
"L  c #0061D3",
"P  c #5293D1",
"I  c #5695D3",
"U  c #5B98D4",
"Y  c #549ADA",
"T  c #599EDB",
"R  c #5CA1DA",
"E  c #62A4DC",
"W  c #66A7DE",
"Q  c #6AAADE",
"!  c #78ABDC",
"~  c #50A1E2",
"^  c #54A6E5",
"/  c #58A7E5",
"(  c #77B1E2",
")  c #7BB5E4",
"_  c #7AB6E5",
"`  c #76B9EB",
"'  c #85BAE5",
"]  c #85BDE6",
"[  c #91C3E7",
"{  c #E5D3D3",
"}  c #D7E9F6",
"|  c #D8EAF7",
" . c #DAEAF7",
".. c #DAEBF7",
"X. c #DFEDF8",
"o. c #E7E7E7",
"O. c #E9E9E9",
"+. c gray92",
"@. c #EDEFEF",
"#. c #EFEFEF",
"$. c #F3EBEB",
"%. c #F4ECEC",
"&. c #F4EDED",
"*. c #F5EDED",
"=. c #F6EFEF",
"-. c #F1F1F1",
";. c #F3F3F3",
":. c #F7F0F0",
">. c #F4F4F4",
",. c gray96",
"<. c #F6F6F6",
"1. c gray97",
"2. c #F8F1F1",
"3. c #F9F2F2",
"4. c #FAF2F2",
"5. c #F8F8F8",
"6. c #F9F9F9",
"7. c gray98",
"8. c #FBFBFB",
"9. c gray99",
"0. c #FDFDFD",
"q. c #FDFDFE",
/* pixels */
"                                ",
"                                ",
"                                ",
"K J H H F J 0.0.8.7.1.1.;.-.@.@.",
"H ) | ) ( ' 0.0.8.8.8.7.7.1.1.+.",
"H X.| | T Q 0.0.8.7.7.1.1.1.1.O.",
"H ' } [ Y W 0.8.7.7.1.1.1.1.1.o.",
"L ` / ^ ~ E 8.7.7.1.1.1.;.-.1.o.",
"D ! U I P R 4.2.2.:.;.*.*.*.*.{ ",
", S m b c z h s t 0 9 6 5 3 i O ",
", A b c j h i t 0 9 6 5 4 2 u O ",
": Z c j h a t 0 9 6 5 4 1 < e . ",
": C V B N M n l k f d i y e e . ",
"- = = % % % # # + + O O . . . . ",
"                                ",
"                                "
};
