/* XPM */
static char *cm[] = {
/* columns rows colors chars-per-pixel */
"16 16 155 2 ",
"   c None",
".  c #005F00",
"X  c #006300",
"o  c #006700",
"O  c #006F00",
"+  c #007500",
"@  c #007700",
"#  c #007B00",
"$  c #007F00",
"%  c #C90000",
"&  c #E10000",
"*  c #E30000",
"=  c #E50000",
"-  c #E70000",
";  c #E90000",
":  c #EB0000",
">  c #F70000",
",  c #F90000",
"<  c #FB0000",
"1  c #FD0000",
"2  c #F41E1E",
"3  c #F32B19",
"4  c #F4301F",
"5  c #F52323",
"6  c #F52424",
"7  c #F62929",
"8  c #F62A2A",
"9  c #F72E2E",
"0  c #F72F2F",
"q  c #F53524",
"w  c #F63A2B",
"e  c #E63F34",
"r  c #F83434",
"t  c #F83C36",
"y  c #F53D3D",
"u  c #F93B3A",
"i  c #F93C3C",
"p  c #E7453A",
"a  c #F74030",
"s  c #F84736",
"d  c #F44939",
"f  c #F94C3D",
"g  c #E84A40",
"h  c #EA4F46",
"j  c #F64242",
"k  c #F74646",
"l  c #FA4142",
"z  c #FA4242",
"x  c #FB4747",
"c  c #FB4C46",
"v  c #F74B4B",
"b  c #FC4B4B",
"n  c #FC4C4C",
"m  c #EB554B",
"M  c #E85950",
"N  c #EC5A51",
"B  c #ED5E54",
"V  c #FD5151",
"C  c #FC6565",
"Z  c #FB6E60",
"A  c #FC6969",
"S  c #FD6D6D",
"D  c #FD7071",
"F  c #F17B74",
"G  c #008300",
"H  c #008500",
"J  c #008700",
"K  c #008900",
"L  c #008D00",
"P  c #009100",
"I  c #3AB03A",
"U  c #3FB03F",
"Y  c #40B33F",
"T  c #44B144",
"R  c #45B245",
"E  c #45B645",
"W  c #49B449",
"Q  c #49B549",
"!  c #4FB74F",
"~  c #4BB84B",
"^  c #4FB84F",
"/  c #50BB50",
"(  c #53B953",
")  c #54BA54",
"_  c #54BA55",
"`  c #54BD54",
"'  c #58BA58",
"]  c #58BC58",
"[  c #58BC59",
"{  c #59BF59",
"}  c #5CBD5C",
"|  c #5DBC5D",
" . c #5CBE5C",
".. c #5FBF5F",
"X. c #61BE62",
"o. c #66C066",
"O. c #6AC36A",
"+. c #6FC46F",
"@. c #72C673",
"#. c #76C876",
"$. c #77CB77",
"%. c #79C879",
"&. c #79C979",
"*. c #7BCA7A",
"=. c #7BCA7B",
"-. c #F7B630",
";. c #DDDD00",
":. c #DFDF00",
">. c #E1E100",
",. c #E3E300",
"<. c #E5E500",
"1. c #E7E700",
"2. c #E9E900",
"3. c #EBEB00",
"4. c #EDEF00",
"5. c #EFEF00",
"6. c #F1F100",
"7. c #F3F300",
"8. c #F5F500",
"9. c #F1F10B",
"0. c #F1F10E",
"q. c #F2F210",
"w. c #F2F213",
"e. c #F2F214",
"r. c #F3F319",
"t. c #F3F31A",
"y. c #F4F41F",
"u. c #F7C32F",
"i. c #F8C435",
"p. c #F9C53C",
"a. c #F8DE36",
"s. c #F9DD3B",
"d. c #F4F420",
"f. c #F5F525",
"g. c #F5F526",
"h. c #F6F62B",
"j. c #F2F22C",
"k. c #F2F22F",
"l. c #F6F62C",
"z. c #F2F232",
"x. c #F3F332",
"c. c #F7F731",
"v. c #F3F335",
"b. c #F4F436",
"n. c #F8F837",
"m. c #F4F53B",
"M. c #F5F53F",
"N. c #FABC40",
"B. c #FAC741",
"V. c #F6F644",
"C. c #F7F749",
"Z. c #F7F74E",
"A. c #F8F853",
"S. c #F9F957",
"D. c #FAFA5C",
/* pixels */
"                                ",
"                                ",
"                                ",
"P K K K L & 1 1 < < > 8.7.6.4.4.",
"H =.=.&.#.F D S A C Z D.S.A.Z.3.",
"K =...} { B V n x z f n.c.l.C.2.",
"H =.} } ` N n c z i s c.h.g.V.1.",
"K #._ _ ^ m c B.p.t a h.g.d.M.1.",
"G @.( ^ ~ h N.s.a.-.w g.y.r.M.<.",
"$ +.! W E g u i.u.7 q y.r.w.b.,.",
"# O.R R U p r 9 7 6 4 r.w.w.x.:.",
"@ o.T U I p 9 7 6 2 3 w.0.9.k.:.",
"O X.| ' _ M v x j y d v.z.k.k.;.",
"@ o X . . % : ; = = = >.:.;.;.;.",
"                                ",
"                                "
};
