/* XPM */
static char *cn[] = {
/* columns rows colors chars-per-pixel */
"16 16 135 2 ",
"   c None",
".  c #9D0000",
"X  c #9F0000",
"o  c #A10000",
"O  c #A30000",
"+  c #A50000",
"@  c #A70000",
"#  c #A90000",
"$  c #AB0000",
"%  c #AF0000",
"&  c #B30000",
"*  c #B70000",
"=  c #B90000",
"-  c #BD0000",
";  c #C10000",
":  c #C30000",
">  c #C70000",
",  c #CB0000",
"<  c #CD0000",
"1  c #CF0000",
"2  c #D10000",
"3  c #D30000",
"4  c #D50000",
"5  c #D70000",
"6  c #D00B0B",
"7  c #D10F0E",
"8  c #D11010",
"9  c #D31313",
"0  c #D31414",
"q  c #D41919",
"w  c #D51919",
"e  c #D51A1A",
"r  c #D51E1E",
"t  c #D61F1F",
"y  c #D71F1F",
"u  c #D72020",
"i  c #D72323",
"p  c #D82424",
"a  c #D92525",
"s  c #D92626",
"d  c #D62C2C",
"f  c #D62F2F",
"g  c #D72F2F",
"h  c #D92929",
"j  c #D92A2A",
"k  c #D92B2B",
"l  c #DA2B2B",
"z  c #DB2C2C",
"x  c #DB2E2E",
"c  c #DB2F2F",
"v  c #DB3030",
"b  c #D83232",
"n  c #DC3131",
"m  c #D83535",
"M  c #D83636",
"N  c #DC3434",
"B  c #DD3434",
"V  c #DD3535",
"C  c #DD3636",
"Z  c #DE3736",
"A  c #DE3737",
"S  c #DA3939",
"D  c #DA3B3B",
"F  c #DE3A3A",
"G  c #DE3B3A",
"H  c #DE3B3B",
"J  c #DE3B3C",
"K  c #DB3D3D",
"L  c #DE3C3C",
"P  c #DF3C3D",
"I  c #DC3F3F",
"U  c #E03F3F",
"Y  c #E54500",
"T  c #DF4040",
"R  c #DC4242",
"E  c #DD4444",
"W  c #DD4646",
"Q  c #DF4949",
"!  c #DF4B4B",
"~  c #E14241",
"^  c #E04142",
"/  c #E04242",
"(  c #E14444",
")  c #E14545",
"_  c #E14747",
"`  c #E34949",
"'  c #E34A49",
"]  c #E14E4E",
"[  c #E34F4F",
"{  c #E44F4F",
"}  c #E4524B",
"|  c #E15050",
" . c #E25353",
".. c #E55353",
"X. c #E25455",
"o. c #E35757",
"O. c #E45454",
"+. c #E65754",
"@. c #E35858",
"#. c #E65858",
"$. c #E75C59",
"%. c #E45C5C",
"&. c #E45D5D",
"*. c #EA7F47",
"=. c #E66060",
"-. c #E66162",
";. c #E76565",
":. c #E86666",
">. c #E86969",
",. c #E86A6A",
"<. c #E86F6D",
"1. c #E96F6F",
"2. c #EA7273",
"3. c #EC7976",
"4. c #ED7F7B",
"5. c #EC9046",
"6. c #ED9246",
"7. c #ED964C",
"8. c #ED8950",
"9. c #EF9859",
"0. c #F09B54",
"q. c #F1A851",
"w. c #ED8479",
"e. c #EE8979",
"r. c #F2A577",
"t. c #F5BF71",
"y. c #F5CB4B",
"u. c #F5CC4B",
"i. c #F6CF51",
"p. c #FAE25C",
"a. c #FBE65C",
"s. c #FDF35F",
"d. c #F9DA74",
"f. c #FADD7A",
"g. c #FADC7B",
/* pixels */
"                                ",
"                                ",
"                                ",
"4 4 3 4 4 Y 1 1 1 , > > ; ; - - ",
"4 4.f.w.r.d.t.<.>.;.=.%.o. .] = ",
"4 f.s.p.#.0.i.7._ / P Z n z Q & ",
"3 e.a.9.+.q.y.*./ P Z n l s E % ",
"3 3.#.+.8.u.5./ P Z v l s u I $ ",
"3 2...| } 6.I F N v l s t q D $ ",
"3 1.{ ` ( R F Z x l i t q 0 M O ",
"1 ,.` ( U U Z x j i t q 0 8 b o ",
", ;./ U F n x l i r q 9 8 6 g o ",
"> -.&.@.X.| ! E R K S N b g d X ",
"> ; ; - = * & % $ $ O o o X X X ",
"                                ",
"                                "
};
