/* XPM */
static char *co[] = {
/* columns rows colors chars-per-pixel */
"16 16 158 2 ",
"   c None",
".  c #AD0000",
"X  c #B90000",
"o  c #BB0000",
"O  c #BD0000",
"+  c #BF0000",
"@  c #C10000",
"#  c #C30000",
"$  c #C50000",
"%  c #C90000",
"&  c #CB0000",
"*  c #CF0000",
"=  c #D10000",
"-  c #D30000",
";  c #D70000",
":  c #D90000",
">  c #DD0000",
",  c #D80E13",
"<  c #DA1117",
"1  c #DB161C",
"2  c #DD1B20",
"3  c #DE2125",
"4  c #DE3136",
"5  c #E0262A",
"6  c #E22E2E",
"7  c #E22B30",
"8  c #E33131",
"9  c #E23035",
"0  c #E43435",
"q  c #E63737",
"w  c #E4363B",
"e  c #E63B3B",
"r  c #CF7F00",
"t  c #E53B40",
"y  c #E74040",
"u  c #E74145",
"i  c #E84444",
"p  c #E8464B",
"a  c #E94949",
"s  c #EB4C4C",
"d  c #EC5151",
"f  c #ED5555",
"g  c #EE5B5B",
"h  c #EF5F5F",
"j  c #ED686C",
"k  c #F06464",
"l  c #CF8100",
"z  c #D38700",
"x  c #D58B00",
"c  c #D99300",
"v  c #DB9300",
"b  c #DD9700",
"n  c #DF9B00",
"m  c #E19F00",
"M  c #E3A300",
"N  c #E5A700",
"B  c #E7AB00",
"V  c #E9AD00",
"C  c #E9AF00",
"Z  c #EBB100",
"A  c #EDB100",
"S  c #EDB300",
"D  c #EDB500",
"F  c #EFB700",
"G  c #F4CC20",
"H  c #F5CE25",
"J  c #F5CD26",
"K  c #F6CE2B",
"L  c #F6CE2C",
"P  c #F6D02B",
"I  c #F7D031",
"U  c #F7D230",
"Y  c #F8D236",
"T  c #F8D237",
"R  c #F8D436",
"E  c #F5D33F",
"W  c #F9D33C",
"Q  c #F9D53C",
"!  c #F9D43D",
"~  c #F6D344",
"^  c #FAD741",
"/  c #FAD542",
"(  c #FBD747",
")  c #FBD946",
"_  c #F7D549",
"`  c #F7D74E",
"'  c #FCD84B",
"]  c #FCDB4B",
"[  c #FCD84C",
"{  c #F8D853",
"}  c #FDDA51",
"|  c #FDDC50",
" . c #F9D957",
".. c #FDDB54",
"X. c #FDDD54",
"o. c #FEDC59",
"O. c #FEDE58",
"+. c #FADB5C",
"@. c #FEDE5C",
"#. c #FEDF5F",
"$. c #FBDD60",
"%. c #FCDD65",
"&. c #FCDF69",
"*. c #FDE06D",
"=. c #FDE271",
"-. c #FEE274",
";. c #FEE377",
":. c #FEE476",
">. c #FEE479",
",. c #FFE47A",
"<. c #FFE47B",
"1. c #00009D",
"2. c #00009F",
"3. c #0001C7",
"4. c #0009C7",
"5. c #0011C7",
"6. c #104ACF",
"7. c #1851CE",
"8. c #1D56CF",
"9. c #144ED0",
"0. c #1952D2",
"q. c #1D55D0",
"w. c #1F56D4",
"e. c #2259D2",
"r. c #235AD2",
"t. c #245AD6",
"y. c #285ED3",
"u. c #285CD4",
"i. c #2A5ED7",
"p. c #2E62D5",
"a. c #2E61D6",
"s. c #2F62D8",
"d. c #3364D5",
"f. c #3366D7",
"g. c #396AD5",
"h. c #3E6ED6",
"j. c #3365D8",
"k. c #3467DA",
"l. c #3869D9",
"z. c #396BD9",
"x. c #3E6EDA",
"c. c #3E6FDA",
"v. c #3A6BDC",
"b. c #406FDD",
"n. c #4272DC",
"m. c #4373DC",
"M. c #4573DF",
"N. c #4876DD",
"B. c #4877DD",
"V. c #4D7BDE",
"C. c #4C7ADF",
"Z. c #4978E0",
"A. c #527EE0",
"S. c #527FE0",
"D. c #5682E1",
"F. c #6A90E7",
"G. c #7195E7",
"H. c #7599E7",
/* pixels */
"                                ",
"                                ",
"                                ",
"D D D D D Z V V B N M m m b c c ",
"D <.,.,.;.-.-.&.*.%.$.+. .{ ` x ",
"D <.#.@.o.....[ ( ( ! T I L _ z ",
"D <.@.@.....' ( ! T T I K J ~ r ",
"S :.X.X.] ] ) ^ ! T P K J G E r ",
"5.H.D.D.V.B.m.c.z.k.p.y.r.q.h.2.",
"4.G.A.B.B.m.c.k.j.p.y.t.q.7.g.2.",
"3.F.Z.M.n.v.k.s.a.t.w.0.6.6.d.2.",
"; j p u t w 9 7 3 3 2 1 < < 4 . ",
"> k h g f d s a i y e q 0 8 6 X ",
"> : : = = * & & $ # # O O O X X ",
"                                ",
"                                "
};
