/* XPM */
static char *cr[] = {
/* columns rows colors chars-per-pixel */
"16 16 161 2 ",
"   c None",
".  c #000023",
"X  c #000025",
"o  c #000029",
"O  c #00002B",
"+  c #000031",
"@  c #000037",
"#  c #00003B",
"$  c #00003F",
"%  c #000045",
"&  c #00004B",
"*  c #000051",
"=  c #000055",
"-  c #000057",
";  c #00005B",
":  c #00005D",
">  c #000061",
",  c #000063",
"<  c #000067",
"1  c #00006D",
"2  c #000071",
"3  c #000073",
"4  c #000075",
"5  c #000079",
"6  c #00007D",
"7  c #00017F",
"8  c #B70000",
"9  c #B90000",
"0  c #BB0000",
"q  c #DD0000",
"w  c #DF0000",
"e  c #DC1414",
"r  c #DD1919",
"t  c #DE1A1A",
"y  c #DF1F1F",
"u  c #E10000",
"i  c #E01F1F",
"p  c #E02020",
"a  c #E02424",
"s  c #E12525",
"d  c #E22A2A",
"f  c #E32B2B",
"g  c #E32F2F",
"h  c #E43030",
"j  c #E03636",
"k  c #E53535",
"l  c #E63636",
"z  c #E23B3B",
"x  c #E63B3A",
"c  c #E73B3B",
"v  c #E73B3C",
"b  c #E33F3F",
"n  c #D3413F",
"m  c #E74040",
"M  c #E84040",
"N  c #E94141",
"B  c #E84545",
"V  c #E94646",
"C  c #E94A49",
"Z  c #EA4A4B",
"A  c #EA4B4B",
"S  c #EB4F4F",
"D  c #EB4F50",
"F  c #ED5353",
"G  c #ED5454",
"H  c #EE5858",
"J  c #DF6967",
"K  c #EF6F6F",
"L  c #F17273",
"P  c #F17676",
"I  c #000783",
"U  c #000985",
"Y  c #000F85",
"T  c #00198D",
"R  c #5B79B5",
"E  c #5C7AB6",
"W  c #607DB8",
"Q  c #627FB9",
"!  c #6582BB",
"~  c #6984BD",
"^  c #6C88BE",
"/  c #6F8AC1",
"(  c #6F8AC2",
")  c #738EC3",
"_  c #748EC3",
"`  c #7791C5",
"'  c #7790C6",
"]  c #7B94C7",
"[  c #7A94C8",
"{  c #7F97C9",
"}  c #7F97CA",
"|  c #F18785",
" . c #EBA09F",
".. c #ECA2A2",
"X. c #EEA4A3",
"o. c #EEA7A6",
"O. c #EFAAA9",
"+. c #EDAEAD",
"@. c #F9A1A1",
"#. c #F0ACAB",
"$. c #F1AFAE",
"%. c #F3B2B1",
"&. c #F2B4B3",
"*. c #F4B4B3",
"=. c #F3B6B5",
"-. c #F5B7B6",
";. c #F4B9B8",
":. c #F6B9B8",
">. c #F4BCBB",
",. c #F7BCBB",
"<. c #F3BEBE",
"1. c #F5BDBD",
"2. c #F6BFBF",
"3. c #829ACB",
"4. c #829ACC",
"5. c #859DCD",
"6. c #859ECD",
"7. c #89A0CE",
"8. c #8BA2D0",
"9. c #8FA4D2",
"0. c #91A7D3",
"q. c #93A8D4",
"w. c #94A9D4",
"e. c #95A9D4",
"r. c #DDDFDF",
"t. c #F7C2C1",
"y. c #F8C4C3",
"u. c #F9C6C5",
"i. c #FAC8C7",
"p. c #F9C8C8",
"a. c #FAC9C9",
"s. c #FBCBCA",
"d. c #FCD4D4",
"f. c #E5E9E9",
"g. c #F0F1F1",
"h. c #F1F1F1",
"j. c #F1F2F2",
"k. c #F2F3F3",
"l. c #F3F4F4",
"z. c #F4F5F5",
"x. c #F4F6F6",
"c. c #F5F6F6",
"v. c #F5F7F7",
"b. c gray97",
"n. c #F5F8F8",
"m. c #F6F9F9",
"M. c #F7F9F9",
"N. c #F7FAFA",
"B. c #F8F8F8",
"V. c #F9F9F9",
"C. c #F9FAFA",
"Z. c #F8FBFB",
"A. c gray98",
"S. c #F9FCFC",
"D. c #FBFCFC",
"F. c #FAFDFD",
"G. c #FBFDFD",
"H. c #F9FFFF",
"J. c #FBFEFE",
"K. c #FCFEFE",
"L. c #FCFFFF",
/* pixels */
"                                ",
"                                ",
"                                ",
"Y U U U I I 6 5 4 2 1 < < : = = ",
"T e.e.e.0.9.7.7.5.5.} [ ` ) / = ",
"H.L.L.H.H.A.H.A.S.n.n.n.b.b.v.f.",
"@.d.s.s.u.u.u.t.2.1.1.;.&.&.<.J ",
"u P H G D Z V N v l h f s p b 0 ",
"u L F S Z V b x l h f s p t z 0 ",
"q K S Z V M c l g d p y t e j 8 ",
"| s.;.;.-.*.%.$.+.O.o..... .+.n ",
"n.A.A.A.A.B.b.b.b.k.k.k.g.g.k.r.",
"2 5.3.3.] ` _ / ^ ~ ! Q E E E O ",
"< , ; = * & % $ # @ + O O X . X ",
"                                ",
"                                "
};
