/* XPM */
static char *cs[] = {
/* columns rows colors chars-per-pixel */
"16 16 139 2 ",
"   c None",
".  c #000043",
"X  c #00004D",
"o  c #00005D",
"O  c #000061",
"+  c #000063",
"@  c #000067",
"#  c #00006D",
"$  c #000071",
"%  c #000075",
"&  c #000079",
"*  c #00007B",
"=  c #00007D",
"-  c #DD0000",
";  c #DF0000",
":  c #E10000",
">  c #E30000",
",  c #E50000",
"<  c #E70000",
"1  c #E90000",
"2  c #EB0000",
"3  c #ED0000",
"4  c #EF0000",
"5  c #F10000",
"6  c #F30000",
"7  c #F50000",
"8  c #F70000",
"9  c #F90000",
"0  c #F10B0B",
"q  c #F10F0E",
"w  c #F21313",
"e  c #F31919",
"r  c #F41E1E",
"t  c #F52323",
"y  c #F62929",
"u  c #F22C2C",
"i  c #F22F2F",
"p  c #F72E2E",
"a  c #FB2929",
"s  c #F23232",
"d  c #F33535",
"f  c #F83434",
"g  c #F43939",
"h  c #F53D3D",
"j  c #F93A3A",
"k  c #FA3F3F",
"l  c #F64242",
"z  c #F74646",
"x  c #FA4444",
"c  c #F74B4B",
"v  c #F85050",
"b  c #F95455",
"n  c #F95858",
"m  c #FA5D5D",
"M  c #F26363",
"N  c #F26666",
"B  c #FB6162",
"V  c #FC6666",
"C  c #F36A6A",
"Z  c #F46E6E",
"A  c #F57171",
"S  c #F37777",
"D  c #F67575",
"F  c #F77879",
"G  c #F87C7C",
"H  c #000081",
"J  c #000083",
"K  c #000085",
"L  c #000087",
"P  c #000089",
"I  c #000091",
"U  c #2C2CA1",
"Y  c #3131A4",
"T  c #3737A7",
"R  c #3535AF",
"E  c #3D3CAA",
"W  c #4242AD",
"Q  c #4949AE",
"!  c #4747B0",
"~  c #4C4CB2",
"^  c #4E4EB4",
"/  c #5151B4",
"(  c #5353B7",
")  c #5454B7",
"_  c #5857B9",
"`  c #5959B8",
"'  c #5C5CBA",
"]  c #5C5CBB",
"[  c #5F5FBB",
"{  c #6160BE",
"}  c #6A6ABE",
"|  c #6565C0",
" . c #6969C2",
".. c #6E6EC0",
"X. c #6D6DC3",
"o. c #7272C2",
"O. c #7070C5",
"+. c #7676C4",
"@. c #7474C7",
"#. c #7A7AC6",
"$. c #7F7FC6",
"%. c #7777C8",
"&. c #7979C9",
"*. c #7B7BC8",
"=. c #7B7BCA",
"-. c #7D7DC9",
";. c #F98080",
":. c #FA8484",
">. c #FB8888",
",. c #FB8B8B",
"<. c #FCA0A0",
"1. c #8181CA",
"2. c #8585CC",
"3. c #8888CE",
"4. c #8B8BCF",
"5. c #8E8FD1",
"6. c #9090D2",
"7. c #A4A4DA",
"8. c #E3C7C7",
"9. c #E5C9C9",
"0. c #E7CDCD",
"q. c #FDE7E7",
"w. c #FDE9E9",
"e. c gray95",
"r. c #F3F3F3",
"t. c #F4F4F4",
"y. c #F4F5F5",
"u. c gray96",
"i. c #F6F6F6",
"p. c gray97",
"a. c #F8F8F8",
"s. c #F9F9F9",
"d. c #FAFAFA",
"f. c #FBFBFB",
"g. c #FBFCFB",
"h. c gray99",
"j. c #FDFCFD",
"k. c #FDFDFD",
"l. c #FEFEFE",
/* pixels */
"                                ",
"                                ",
"                                ",
"I P P P P H H = & % $ # @ O o O ",
"K =.=.=.@.@.X.X.| } { [ ' ( ^ X ",
"H =.[ ' ` ) / ~ ! W E T Y U Q . ",
"R 7.6.5.4.3.2.1.-.#.@.o.} } $.= ",
"w.l.l.l.l.f.f.f.f.f.p.p.u.t.u.0.",
"w.l.l.g.g.f.f.f.u.u.u.u.u.r.t.9.",
"q.l.f.g.f.f.u.a.f.u.u.r.r.r.r.8.",
"a <.,.>.:.;.G F D A Z C N M S ; ",
"9 V x k j f p y t r e w q 0 i ; ",
"8 B m n b v c z l h g d s i i - ",
"8 5 5 3 3 3 2 2 < < : : ; ; - - ",
"                                ",
"                                "
};
