/* XPM */
static char *cu[] = {
/* columns rows colors chars-per-pixel */
"16 16 161 2 ",
"   c None",
".  c #00005F",
"X  c #00006B",
"o  c #00006D",
"O  c #00006F",
"+  c #000073",
"@  c #000075",
"#  c #000079",
"$  c #00007B",
"%  c #00007F",
"&  c #CB0000",
"*  c #DB0000",
"=  c #EB0000",
"-  c #ED0000",
";  c #EF0000",
":  c #F10000",
">  c #F30000",
",  c #F70000",
"<  c red",
"1  c #9F4E6F",
"2  c #A85271",
"3  c #AD5D7A",
"4  c #EB4545",
"5  c #EB4646",
"6  c #ED4545",
"7  c #F64949",
"8  c #F44A4B",
"9  c #F44D4C",
"0  c #EF4F50",
"q  c #F15A59",
"w  c #F65858",
"e  c #F95C5C",
"r  c #EC6365",
"t  c #F06161",
"y  c #FB6666",
"u  c #F76A6A",
"i  c #F27D7E",
"p  c #F97979",
"a  c #FE7B7A",
"s  c #000081",
"d  c #000083",
"f  c #000185",
"g  c #000087",
"h  c #00008B",
"j  c #00078B",
"k  c #00018F",
"l  c #00098B",
"z  c #00118F",
"x  c #000993",
"c  c #000F97",
"v  c #001793",
"b  c #001D97",
"n  c #001599",
"m  c #00239B",
"M  c #00299D",
"N  c #002FA1",
"B  c #0035A3",
"V  c #0039A5",
"C  c #003DA9",
"Z  c #003FA9",
"A  c #0041A7",
"S  c #0047B3",
"D  c #1A58B0",
"F  c #1F5CB2",
"G  c #2560B4",
"H  c #2A65B6",
"J  c #3069B9",
"K  c #366EBC",
"L  c #3B70BA",
"P  c #3775C0",
"I  c #3B74C1",
"U  c #3B78C2",
"Y  c #3F7CC4",
"T  c #427DC3",
"R  c #457EC3",
"E  c #427EC4",
"W  c #4480C6",
"Q  c #4781C6",
"!  c #4880C4",
"~  c #4B83C5",
"^  c #4E85C7",
"/  c #4983C8",
"(  c #4B85C8",
")  c #4E86CA",
"_  c #5389C8",
"`  c #5288C9",
"'  c #5088CA",
"]  c #568BCB",
"[  c #528ACC",
"{  c #548CCC",
"}  c #5A8CCC",
"|  c #5B8FCD",
" . c #598ECE",
".. c #5C8FCC",
"X. c #5F91CE",
"o. c #5E92D0",
"O. c #6194CF",
"+. c #6394D0",
"@. c #6494D0",
"#. c #6597D1",
"$. c #6798D2",
"%. c #6A99D3",
"&. c #6B9AD3",
"*. c #6F9DD4",
"=. c #719DD3",
"-. c #729FD6",
";. c #76A3D8",
":. c #7AA5D9",
">. c #7EA8DB",
",. c #F88484",
"<. c #F88787",
"1. c #FAA5A3",
"2. c #F5ADAC",
"3. c #FDB8B6",
"4. c #F9B8B9",
"5. c #FBBDBD",
"6. c #FABEBE",
"7. c #97A5CD",
"8. c #80AADC",
"9. c #84ACDD",
"0. c #86AEDE",
"q. c #87B0DF",
"w. c #D5D7DB",
"e. c #DFDFDF",
"r. c #FEC3C1",
"t. c #FCCCCC",
"y. c #E1E5E7",
"u. c #E7E7E7",
"i. c #ECEDEF",
"p. c #EDEEF0",
"a. c #EEEEF0",
"s. c #EEEFF1",
"d. c #F0F1F2",
"f. c #F1F2F3",
"g. c gray95",
"h. c #F3F3F3",
"j. c #F1F3F5",
"k. c #F2F3F5",
"l. c #F2F4F6",
"z. c #F3F4F6",
"x. c #F4F4F4",
"c. c gray96",
"v. c #F4F5F7",
"b. c #F6F6F6",
"n. c gray97",
"m. c #F4F5F8",
"M. c #F5F5F8",
"N. c #F5F7F9",
"B. c #F6F6F9",
"V. c #F6F7FA",
"C. c #F7F8FB",
"Z. c #F8F8F8",
"A. c #F9F9F9",
"S. c #F8F9FB",
"D. c gray98",
"F. c #FBFBFB",
"G. c #FCF9F9",
"H. c #F9FBFC",
"J. c #F9FBFD",
"K. c gray99",
"L. c #FDFDFD",
/* pixels */
"                                ",
"                                ",
"                                ",
"* A S Z Z V B B M m b v v l f j ",
"< i 7.0.0.9.>.>.:.;.-.*.%.#.+.h ",
"> a r r.H.D.C.N.N.N.c.N.f.f.f.y.",
"> p e q 3.L.L.L.H.D.C.c.c.c.N.u.",
"> <.6.w 9 3 +.o. .] ' ) ! E ..s ",
"; t.G.4.8 6 1 I K J H G F D L X ",
"; ,.6.9 6 2  .[ ) / E T U I _ @ ",
"; u 8 6 1.D.D.c.c.c.x.f.g.f.f.e.",
"= y 4 2.N.c.c.f.f.f.s.s.i.i.i.w.",
", r =.&.$.#.o. .] ` ^ ~ ~ R T . ",
"& n c x h h h s % # @ + o o X o ",
"                                ",
"                                "
};
