/* XPM */
static char *cv[] = {
/* columns rows colors chars-per-pixel */
"16 16 140 2 ",
"   c None",
".  c #CF0000",
"X  c #ED0000",
"o  c #E92828",
"O  c #EA2D2D",
"+  c #EB3231",
"@  c #EB4646",
"#  c #F04545",
"$  c #F14B4B",
"%  c #F25050",
"&  c #F35454",
"*  c #EF7E44",
"=  c #F77B7B",
"-  c #F1854E",
";  c #F8996A",
":  c #F6E65D",
">  c #F0EA5D",
",  c #F4EF6E",
"<  c #F5EF70",
"1  c #FBEE76",
"2  c #F7F077",
"3  c #FCF478",
"4  c #F8F27F",
"5  c #0000DD",
"6  c #0000DF",
"7  c #0000E1",
"8  c #0000E3",
"9  c #0005E5",
"0  c #0009E7",
"q  c #000FE7",
"w  c #0011E9",
"e  c #0015E9",
"r  c #0017EB",
"t  c #001DEB",
"y  c #001DED",
"u  c #0025ED",
"i  c #0025EF",
"p  c #002BEF",
"a  c #0031F1",
"s  c #0039F3",
"d  c #003FF5",
"f  c #0045F7",
"g  c #0049F9",
"h  c #004BF9",
"j  c #004FFB",
"k  c #0053FD",
"l  c #0059FD",
"z  c #005BFD",
"x  c #005DFD",
"c  c #005FFD",
"v  c #0061FF",
"b  c #207DF1",
"n  c #7EAFB5",
"m  c #2480F1",
"M  c #2983F2",
"N  c #2D86F3",
"B  c #348AF4",
"V  c #3E8EF2",
"C  c #398DF5",
"Z  c #3A8EF5",
"A  c #3E91F6",
"S  c #3F91F6",
"D  c #66A4D5",
"F  c #6EA9D7",
"G  c #78B0DC",
"H  c #7FB5DE",
"J  c #4090F2",
"K  c #4190F2",
"L  c #4491F3",
"P  c #4794F3",
"I  c #4192F7",
"U  c #4394F7",
"Y  c #4494F7",
"T  c #4594F7",
"R  c #4B97F4",
"E  c #4E99F5",
"W  c #4997F8",
"Q  c #4A98F8",
"!  c #4E9BF9",
"~  c #4F9BF9",
"^  c #509AF5",
"/  c #559DF6",
"(  c #539EFA",
")  c #559FFA",
"_  c #5AA0F7",
"`  c #5FA3F7",
"'  c #57A0FB",
"]  c #5DA3FC",
"[  c #63A6F8",
"{  c #61A6FD",
"}  c #67A9F9",
"|  c #65A9FD",
" . c #67ABFE",
".. c #68A9F9",
"X. c #6BABFA",
"o. c #6CACFA",
"O. c #6FAEFB",
"+. c #69ABFE",
"@. c #6BADFE",
"#. c #6EAFFE",
"$. c #70AEFB",
"%. c #73B0FC",
"&. c #75B1FC",
"*. c #77B2FC",
"=. c #7AB4FD",
"-. c #7EB7FE",
";. c #8EBABF",
":. c #8FBAC3",
">. c #93BEC3",
",. c #96BEC3",
"<. c #92BEC6",
"1. c #81B9FE",
"2. c #83B9FE",
"3. c #84BAFE",
"4. c #85BBFE",
"5. c #85BCFE",
"6. c #88BDFF",
"7. c #98C1C6",
"8. c #9CC2C7",
"9. c #9CC3CA",
"0. c #9EC5CA",
"q. c #9EC5CD",
"w. c #A1C7CB",
"e. c #DFDFDF",
"r. c gray90",
"t. c #FCFBE0",
"y. c gray95",
"u. c #F3F3F3",
"i. c #F4F4F4",
"p. c #F4F5F5",
"a. c gray96",
"s. c #F6F6F6",
"d. c gray97",
"f. c #F8F8F8",
"g. c #F9F9F9",
"h. c gray98",
"j. c #FBFBFB",
"k. c gray99",
"l. c #FDFDFD",
"z. c #FEFEFE",
/* pixels */
"                                ",
"                                ",
"                                ",
"v v v v v l l k j g f d s a p i ",
"v 6.6.5.4.2.-.=.*.$.$.....[ ` t ",
"v 6.#.@. .| { ] ' ( ( W T S _ e ",
"v 4.@. .q.0.3 7.<.~ W U S Z / q ",
"x 2. .w.4 H ) G , :.U S Z B ^ 0 ",
"l.l.l.t.k.j.g.g.f.d.s.s.u.u.s.r.",
"X = ; 1 & % $ # - : * + O o @ . ",
"k.k.g.k.j.g.f.d.s.s.u.u.y.y.y.e.",
"g &.) <., F I D > n N M m b K 6 ",
"f $.X...0.7.3 ,.:.E R P L K V 6 ",
"f s a p i y e w 0 9 7 7 6 6 5 5 ",
"                                ",
"                                "
};
