/* XPM */
static char *cx[] = {
/* columns rows colors chars-per-pixel */
"16 16 168 2 ",
"   c None",
".  c #000100",
"X  c #006500",
"o  c #006900",
"O  c #006B00",
"+  c #006F00",
"@  c #007300",
"#  c #007700",
"$  c #000041",
"%  c #00175F",
"&  c #000069",
"*  c #00006D",
"=  c #000077",
"-  c #00007B",
";  c #0F7D4A",
":  c #008100",
">  c #008500",
",  c #008B00",
"<  c #008F00",
"1  c #009300",
"2  c #009700",
"3  c #009B00",
"4  c #009D00",
"5  c #00A100",
"6  c #00A300",
"7  c #00A500",
"8  c #00A700",
"9  c #00AB00",
"0  c #00AD00",
"q  c #00AF00",
"w  c #0BB70B",
"e  c #10B910",
"r  c #14BB14",
"t  c #19AC2A",
"y  c #2CB636",
"u  c #24C124",
"i  c #25C125",
"p  c #2AC32B",
"a  c #2BC32B",
"s  c #2FC12F",
"d  c #33C332",
"f  c #30C530",
"g  c #31C631",
"h  c #36C436",
"j  c #37C836",
"k  c #37C837",
"l  c #3ECA36",
"z  c #3BC63B",
"x  c #3CCA3C",
"c  c #3DCA3D",
"v  c #7DD300",
"b  c #7EE13B",
"n  c #51B76B",
"m  c #42CB42",
"M  c #42CC42",
"N  c #47CE47",
"B  c #49CC49",
"V  c #4ECD4E",
"C  c #4BD04B",
"Z  c #4CD04C",
"A  c #51D151",
"S  c #54D354",
"D  c #58D257",
"F  c #59D05D",
"G  c #5CD35C",
"H  c #61D460",
"J  c #65D665",
"K  c #69D869",
"L  c #6DD96D",
"P  c #70DA71",
"I  c #74DB74",
"U  c #77DD77",
"Y  c #79DD79",
"T  c #8BDB19",
"R  c #8BDB1A",
"E  c #8EDD1F",
"W  c #95E02C",
"Q  c #9EE13F",
"!  c #9FE53C",
"~  c #C0EA20",
"^  c #C2EC26",
"/  c #C3ED2B",
"(  c #CBEA2E",
")  c #D6F32F",
"_  c #C5EE30",
"`  c #C5EE31",
"'  c #C7EF36",
"]  c #EAF835",
"[  c #87877D",
"{  c #A3E641",
"}  c #A9E753",
"|  c #D3DE4E",
" . c #CAED44",
".. c #D3EE4C",
"X. c #ECF942",
"o. c #000081",
"O. c #000085",
"+. c #000089",
"@. c #00008D",
"#. c #00008F",
"$. c #000093",
"%. c #000097",
"&. c #00009B",
"*. c #0000A1",
"=. c #0000A5",
"-. c #0000A7",
";. c #0000AB",
":. c #0000AF",
">. c #0000B1",
",. c #0000B3",
"<. c #0000B5",
"1. c #131DB1",
"2. c #1819BC",
"3. c #1E1EBE",
"4. c #1F4A93",
"5. c #2F5D92",
"6. c #2424C1",
"7. c #2E2EC6",
"8. c #2323C8",
"9. c #2929CA",
"0. c #3232C3",
"q. c #3535C3",
"w. c #3434C7",
"e. c #3939C5",
"r. c #3D3DC7",
"t. c #3535C9",
"y. c #3A3AC9",
"u. c #3A3ACA",
"i. c #4242C8",
"p. c #4646CA",
"a. c #4242CC",
"s. c #4B4BCC",
"d. c #4949CE",
"f. c #4949CF",
"g. c #4B4DCE",
"h. c #5050CE",
"j. c #5454CF",
"k. c #4040D1",
"l. c #4646D8",
"z. c #504FD1",
"x. c #5151D0",
"c. c #5050D1",
"v. c #5353D2",
"b. c #5555D4",
"n. c #5959D2",
"m. c #5859D4",
"M. c #5C5CD5",
"N. c #5F5FD7",
"B. c #5467C0",
"V. c #6161D4",
"C. c #6363D7",
"Z. c #6666D7",
"A. c #6A6AD8",
"S. c #7677DA",
"D. c #7676DB",
"F. c #7979DD",
"G. c #7B7BDD",
"H. c #5C91A1",
"J. c #7BC397",
"K. c #7B85D3",
"L. c #828287",
"P. c #8484DF",
"I. c #A9A9E5",
"U. c #B0B0E8",
"Y. c #DFDFF3",
"T. c #E2E2F5",
"R. c #E1E1F7",
"E. c #E8E8F7",
/* pixels */
"                                ",
"                                ",
"                                ",
"% 6 q q q q 9 9 7 6 4 3 2 1 < , ",
":.K.J.Y U I P L K J H G D } V > ",
"<.G.N.H.F S A Z N M c k g W B : ",
"<.G.M.m.B.n B N M x h ` / ^  .v ",
",.D.R.C.z.g...{ ! ' g a i ~ Q # ",
",.P.v.b.R.l.X.b l ` p i E T z # ",
",.E.c.n.h.k.| ] ) ( i E T r h + ",
";.A.f.U.I.y.t.L.[ 6.4.t r e d o ",
"=.Z.s.a.y.w.7.9.8.3.2.1.; w s o ",
"*.C.D.Y.v.h.s.p.i.r.e.q.0.5.y X ",
"=.&.$.$.@.@.+.O.o.- = * & & $ . ",
"                                ",
"                                "
};
