/* XPM */
static char *dj[] = {
/* columns rows colors chars-per-pixel */
"16 16 154 2 ",
"   c None",
".  c #FD6E6E",
"X  c #008100",
"o  c #008300",
"O  c #008700",
"+  c #008900",
"@  c #008B00",
"#  c #008F00",
"$  c #009100",
"%  c #009300",
"&  c #009900",
"*  c #009D00",
"=  c #009F00",
"-  c #00A300",
";  c #00A500",
":  c #00A700",
">  c #00B500",
",  c #0BC20B",
"<  c #0FC40E",
"1  c #10C410",
"2  c #13C613",
"3  c #14C614",
"4  c #14CA14",
"5  c #18C719",
"6  c #19C819",
"7  c #19CB19",
"8  c #1EC91E",
"9  c #1FC91F",
"0  c #1FCD1F",
"q  c #23CB23",
"w  c #24CB24",
"e  c #24CF24",
"r  c #29CD29",
"t  c #2ACD2A",
"y  c #2CCA2C",
"u  c #2FCA2F",
"i  c #2FCB2F",
"p  c #2ECF2E",
"a  c #2FCE2F",
"s  c #2AD12A",
"d  c #2FD22F",
"f  c #32CC32",
"g  c #33CC32",
"h  c #35CD35",
"j  c #34CE34",
"k  c #34CF34",
"l  c #39CF39",
"z  c #36D136",
"x  c #3DD03D",
"c  c #42D242",
"v  c #46D346",
"b  c #48D644",
"n  c #4BD54B",
"m  c #4BD64B",
"M  c #50D750",
"N  c #54D855",
"B  c #58D858",
"V  c #74DE74",
"C  c #004981",
"Z  c #0039E7",
"A  c #0045E7",
"S  c #004BE9",
"D  c #004DEB",
"F  c #135DEF",
"G  c #1961EF",
"H  c #1963F1",
"J  c #2167F3",
"K  c #276DF5",
"L  c #2D71F7",
"P  c #3575F9",
"I  c #3979FB",
"U  c #3F7DFD",
"Y  c #5DA6C0",
"T  c #61A9C2",
"R  c #65ACC4",
"E  c #69AEC6",
"W  c #6DB1C9",
"Q  c #71B3CB",
"!  c #74B3C9",
"~  c #4381FD",
"^  c #4381FF",
"/  c #4583FD",
"(  c #4B87FD",
")  c #4B87FF",
"_  c #5B93FF",
"`  c #7B9CF4",
"'  c #7F9FF5",
"]  c #7AA2F5",
"[  c #7CA5F6",
"{  c #7EA6F6",
"}  c #FCA9A9",
"|  c #FCB2B2",
" . c #FEB7B7",
".. c #8DDF8D",
"X. c #95E796",
"o. c #ABEAAB",
"O. c #B7ECB7",
"+. c #82A2F6",
"@. c #86A5F7",
"#. c #80A8F7",
"$. c #81A9F7",
"%. c #8DA9F5",
"&. c #8CAFF6",
"*. c #84ABF8",
"=. c #8AA8F8",
"-. c #8BAAF9",
";. c #88AEF9",
":. c #8FB2F7",
">. c #8BB0FA",
",. c #8BB1FA",
"<. c #8CB2FB",
"1. c #8FB3FB",
"2. c #8CB2FC",
"3. c #93B4F7",
"4. c #95B3FA",
"5. c #96B7F8",
"6. c #92B6FC",
"7. c #93B7FD",
"8. c #95B7FD",
"9. c #99B9F9",
"0. c #9BBBFA",
"q. c #9EBEFB",
"w. c #A0BFFE",
"e. c #BFE3D6",
"r. c #A1C0FC",
"t. c #A4C2FC",
"y. c #A7C3FD",
"u. c #A9C5FE",
"i. c #ABC7FE",
"p. c #AFC9FD",
"a. c #FECACA",
"s. c #DDF4DD",
"d. c #C3D7FF",
"f. c #C9DAFB",
"g. c #C8DAFF",
"h. c #D6E4FE",
"j. c #E9F7E9",
"k. c #EAF1FD",
"l. c gray97",
"z. c #FBF1F1",
"x. c #FDF3F3",
"c. c #F3F7FF",
"v. c #F9F9F9",
"b. c #F9FAF9",
"n. c gray98",
"m. c #FBFBFB",
"M. c #FAFAFC",
"N. c gray99",
"B. c #FDFCFC",
"V. c #FDFCFD",
"C. c #FDFDFD",
"Z. c #FEFDFD",
"A. c #FEFEFE",
"S. c white",
/* pixels */
"                                ",
"                                ",
"                                ",
"d._ ^ ) ) / ^ U I P L K J H F G ",
"S.c.g.u.u.p.u.y.y.r.q.0.9.5.3.D ",
"S.S.S.h.q.6.8.6.1.,.;.*.$.{ :.S ",
"S.S.N.S.k.p.2.,.,.*.*.{ { ] &.A ",
"S.S. .z.S.M.f.4.-.-.@.+.' ` %.Z ",
"S.a.. } m.m.n.e.Q W E R T Y ! C ",
"m.N.| z.m.n.o.b d s e 0 6 4 z % ",
"m.m.m.m.s.V h a t w 8 6 3 1 g + ",
"n.N.m.O.m h a t q 8 5 3 < , u + ",
"l.j.X.B N M n v c x z h g u u X ",
"..> : : - - * & % % @ @ O O X + ",
"                                ",
"                                "
};
