/* XPM */
static char *dk[] = {
/* columns rows colors chars-per-pixel */
"16 16 123 2 ",
"   c None",
".  c #C50000",
"X  c #C70000",
"o  c #C90000",
"O  c #CB0000",
"+  c #CD0000",
"@  c #CF0000",
"#  c #D10000",
"$  c #D50000",
"%  c #D70000",
"&  c #DB0000",
"*  c #DF0000",
"=  c #E10000",
"-  c #E30000",
";  c #E50000",
":  c #E70000",
">  c #E90000",
",  c #EB0000",
"<  c #ED0000",
"1  c #EF0000",
"2  c #E40B0B",
"3  c #E40F0E",
"4  c #F10000",
"5  c #E41010",
"6  c #E61313",
"7  c #E51414",
"8  c #E61919",
"9  c #E71919",
"0  c #E81E1E",
"q  c #E81F1F",
"w  c #E92020",
"e  c #EA2323",
"r  c #E92424",
"t  c #EA2525",
"y  c #E92626",
"u  c #E62C2C",
"i  c #EA2A2A",
"p  c #EA2B2B",
"a  c #EB2B2B",
"s  c #EB2C2C",
"d  c #E82F2F",
"f  c #E83232",
"g  c #EC3030",
"h  c #EC3131",
"j  c #ED3131",
"k  c #E83535",
"l  c #ED3736",
"z  c #EE3636",
"x  c #EE3737",
"c  c #EC3738",
"v  c #EA3939",
"b  c #EF3A3A",
"n  c #EF3B3C",
"m  c #EB3D3D",
"M  c #EB3F3F",
"N  c #EE3C3C",
"B  c #EF3C3D",
"V  c #EF3F3F",
"C  c #EF4142",
"Z  c #EC4242",
"A  c #EC4444",
"S  c #ED4949",
"D  c #EE4E4E",
"F  c #F04141",
"G  c #F04242",
"H  c #F04444",
"J  c #F04545",
"K  c #F14747",
"L  c #F14949",
"P  c #F14E4E",
"I  c #F34F50",
"U  c #F05353",
"Y  c #F35354",
"T  c #F05455",
"R  c #F35454",
"E  c #F15757",
"W  c #F15858",
"Q  c #F45858",
"!  c #F45959",
"~  c #F25C5C",
"^  c #F25D5D",
"/  c #F55C5C",
"(  c #F55F5F",
")  c #F26060",
"_  c #F26162",
"`  c #F36565",
"'  c #F36666",
"]  c #F46969",
"[  c #F46A6A",
"{  c #F67473",
"}  c #F77676",
"|  c #F77777",
" . c #F77979",
".. c #F77B7A",
"X. c #F77B7B",
"o. c #E9CFCF",
"O. c gray89",
"+. c gray90",
"@. c gray93",
"#. c #FBE7E7",
"$. c #F7E9E9",
"%. c #F7ECEC",
"&. c #F8EAEA",
"*. c gray95",
"=. c #F3F3F3",
"-. c #F4F4F4",
";. c #F4F5F5",
":. c gray96",
">. c #F6F6F6",
",. c gray97",
"<. c #FBF0F0",
"1. c #FAF2F2",
"2. c #FCF1F1",
"3. c #FDF4F4",
"4. c #F8F8F8",
"5. c #F9F9F9",
"6. c #FAF9F9",
"7. c gray98",
"8. c #FBFBFB",
"9. c #FBFCFB",
"0. c gray99",
"q. c #FDFDFD",
"w. c #FEFEFE",
/* pixels */
"                                ",
"                                ",
"                                ",
"4 1 1 1 1 q.#.1 > : : = = * & & ",
"1 X.X.X.} q.3.{ ] ' ) ~ E U D % ",
"1 X./ / / q.%.Q K F n l j s S % ",
"1 X./ / Y q.%.P C N l j p y A + ",
"> } Q Y P 8.3.F n l j a y w M + ",
"q.q.q.9.6.q.6.6.4.,.>.>.=.=.-.+.",
"q.q.q.9.q.6.6.,.,.>.>.-.=.=.-.O.",
": ] L K N 6.&.v i y 0 9 7 5 f . ",
": ' F C N 4.$.j w w 9 6 5 2 s . ",
": _ ^ W T 4.%.D C m v k f f u . ",
": * * & & @.o.# + # o o . . . o ",
"                                ",
"                                "
};
