/* XPM */
static char *do[] = {
/* columns rows colors chars-per-pixel */
"16 16 142 2 ",
"   c None",
".  c #000053",
"X  c #000055",
"o  c #000059",
"O  c #00005D",
"+  c #00005F",
"@  c #000063",
"#  c #BB0000",
"$  c #BF0000",
"%  c #C30000",
"&  c #C50000",
"*  c #C90000",
"=  c #CB0000",
"-  c #CF0000",
";  c #D10000",
":  c #D50000",
">  c #D70000",
",  c #D90000",
"<  c #DB0000",
"1  c #DD0000",
"2  c #E12020",
"3  c #E22525",
"4  c #E22626",
"5  c #E32B2B",
"6  c #E42B2B",
"7  c #E42C2C",
"8  c #E42E2E",
"9  c #E53030",
"0  c #E53131",
"q  c #E63434",
"w  c #E73636",
"e  c #E73736",
"r  c #E73737",
"t  c #E73A3A",
"y  c #E73B3A",
"u  c #E43F3F",
"i  c #E83C3C",
"p  c #E83C3D",
"a  c #E83F3F",
"s  c #E64444",
"d  c #E84040",
"f  c #E94242",
"g  c #EA4444",
"h  c #EA4545",
"j  c #E74949",
"k  c #E74B4B",
"l  c #EB4949",
"z  c #EB4A49",
"x  c #E84E4E",
"c  c #EC4F4F",
"v  c #E85050",
"b  c #E95353",
"n  c #EA5455",
"m  c #EB5757",
"M  c #EB5858",
"N  c #EC5C5C",
"B  c #EC5D5D",
"V  c #ED6060",
"C  c #ED6162",
"Z  c #EE6565",
"A  c #EE6666",
"S  c #EF6A6A",
"D  c #F06F6F",
"F  c #001D9D",
"G  c #001F9F",
"H  c #0023A1",
"J  c #0025A1",
"K  c #0027A3",
"L  c #0329A3",
"P  c #3654AE",
"I  c #3A57AF",
"U  c #3B57AF",
"Y  c #3E5AB2",
"T  c #3F5BB2",
"R  c #435EB4",
"E  c #435FB4",
"W  c #445FB4",
"Q  c #4762B6",
"!  c #4863B6",
"~  c #4D67B9",
"^  c #516AB8",
"/  c #516BBB",
"(  c #546DB9",
")  c #556DB9",
"_  c #566FBB",
"`  c #586FBB",
"'  c #5A72BC",
"]  c #5B72BD",
"[  c #5D75BE",
"{  c #6078C0",
"}  c #697FC7",
"|  c #6D83C9",
" . c #7186CA",
".. c #7187CB",
"X. c #7287CB",
"o. c #758ACC",
"O. c #788DCE",
"+. c #798DCE",
"@. c #7B8FCF",
"#. c #7E92D0",
"$. c #8B9DD4",
"%. c #8F9FD6",
"&. c #8FA1D7",
"*. c #91A1D7",
"=. c #93A3D8",
"-. c #93A4D8",
";. c #94A4D8",
":. c #94A5D8",
">. c #95A5D8",
",. c #E9D5D1",
"<. c #D9DFE7",
"1. c gray90",
"2. c #F6ECEA",
"3. c #F7EDEB",
"4. c #F7EEED",
"5. c #FBEFED",
"6. c #EDF2F5",
"7. c #EFF3F6",
"8. c #EDF3FD",
"9. c #F3F3F3",
"0. c #F4F4F4",
"q. c #F4F5F5",
"w. c gray96",
"e. c #F5F6F7",
"r. c #F6F6F6",
"t. c gray97",
"y. c #F8F4F3",
"u. c #FAF4F2",
"i. c #FBF5F4",
"p. c #F9F6F5",
"a. c #FCF7F7",
"s. c #F2F7FB",
"d. c #F6F8FA",
"f. c #F4F8FC",
"g. c #F7F9FD",
"h. c #F8F8F8",
"j. c #F9F9F9",
"k. c gray98",
"l. c #FBFBFB",
"z. c gray99",
"x. c #FDFDFD",
"c. c #FEFEFE",
/* pixels */
"                                ",
"                                ",
"                                ",
"L L L L H H F 8.5., > > ; ; * * ",
"L >.-.*.*.&.$.g.a.A V B m b x & ",
"L >.#.@.@.o. .s.i.f p r 0 7 j % ",
"K =.@.@.o. .| s.u.p r 0 6 4 s $ ",
"H &.@.X. .| } d.p.e 7 5 4 2 u # ",
"z.z.z.z.z.j.j.j.h.p.r.r.9.9.9.1.",
"1 D c z h f y y.d./ ~ ! Q Y ] O ",
"1 D z h a r q 4.6.~ ! R Y U ' o ",
", A h a p q 8 2.6.Q R Y U P ) X ",
", V B M m v j 4.7.{ [ ] ) ) ^ . ",
"> - ; * * & % ,.<.@ O O o X . . ",
"                                ",
"                                "
};
