/* XPM */
static char *dz[] = {
/* columns rows colors chars-per-pixel */
"16 16 137 2 ",
"   c None",
".  c #000500",
"X  c #000B00",
"o  c #001100",
"O  c #001B00",
"+  c #002300",
"@  c #002D00",
"#  c #003500",
"$  c #004709",
"%  c #004B11",
"&  c #004F17",
"*  c #005721",
"=  c #005F2B",
"-  c #016533",
";  c #036535",
":  c #036737",
">  c #096B39",
",  c #0B6D3D",
"<  c #0D6F3D",
"1  c #116F3F",
"2  c #117141",
"3  c #21794D",
"4  c #727056",
"5  c #B96D60",
"6  c #DB5144",
"7  c #DD554A",
"8  c #DF5550",
"9  c #D65A50",
"0  c #E0584D",
"q  c #E15E52",
"w  c #CE6E61",
"e  c #DD776D",
"r  c #D17B6F",
"t  c #E57066",
"y  c #E67166",
"u  c #E77166",
"i  c #E3746C",
"p  c #E67B74",
"a  c #3E8560",
"s  c #458E69",
"d  c #4C916E",
"f  c #549170",
"g  c #539574",
"h  c #559574",
"j  c #549775",
"k  c #549C7A",
"l  c #5A9A7A",
"z  c #5B9A7B",
"x  c #5B9E7D",
"c  c #758569",
"v  c #669A7C",
"b  c #619E80",
"n  c #619F80",
"m  c #629E80",
"M  c #4EA280",
"N  c #62A182",
"B  c #67A385",
"V  c #68A385",
"C  c #68A486",
"Z  c #6AA486",
"A  c #69A788",
"S  c #6EA68A",
"D  c #6EA78A",
"F  c #6FA78B",
"G  c #6FA88C",
"H  c #6FA98C",
"J  c #74AA8F",
"K  c #73AB90",
"L  c #74AB90",
"P  c #75AB90",
"I  c #79AE94",
"U  c #7AAE94",
"Y  c #7DB197",
"T  c #7FB299",
"R  c #8D9580",
"E  c #8C9B82",
"W  c #85B59D",
"Q  c #87B59E",
"!  c #85B9A1",
"~  c #8AB8A1",
"^  c #8BB9A2",
"/  c #8EBBA4",
"(  c #8FBCA5",
")  c #92BEA8",
"_  c #94BFA9",
"`  c #94BFAA",
"'  c #95BFAA",
"]  c #E78C84",
"[  c #E7908A",
"{  c #EDB9B8",
"}  c #BEC7C3",
"|  c gray79",
" . c #CBCBCB",
".. c #CECECE",
"X. c #D0D0D0",
"o. c #D2D2D2",
"O. c gray84",
"+. c #D8D8D8",
"@. c gray85",
"#. c gray86",
"$. c #DDDDDD",
"%. c #E8CFCC",
"&. c #F5CBCB",
"*. c #EAD9D7",
"=. c #F1D3D3",
"-. c #F3D7D7",
";. c #E1E1E1",
":. c #E0E3E1",
">. c gray89",
",. c gray90",
"<. c #E6E6E6",
"1. c gray92",
"2. c #ECECEC",
"3. c gray93",
"4. c #EEEEEE",
"5. c #EFEFEF",
"6. c #F4E8E8",
"7. c #F4EAEA",
"8. c #F1ECEC",
"9. c #F3ECEC",
"0. c #F2EEEE",
"q. c #EBF4F2",
"w. c #F0F0F0",
"e. c #F1F1F1",
"r. c gray95",
"t. c #F3F3F3",
"y. c #F5F0F0",
"u. c #F4F4F4",
"i. c gray96",
"p. c #F6F6F6",
"a. c gray97",
"s. c #F5FCFA",
"d. c #F8F8F8",
"f. c #F9F9F9",
"g. c gray98",
"h. c #FCFBFB",
"j. c gray99",
/* pixels */
"                                ",
"                                ",
"                                ",
"3 2 2 2 , : = ; :.<.<.<.>.:.$.#.",
"< ' ) ) ( ^ Q ! s.j.j.f.f.d.a.#.",
"2 ' T I P H Z R =.9.r.5.4.4.a.O.",
"1 ) I K H E e u [ -.8.4.2.1.a.O.",
"> / J D A r u v *.] 8.4.4.1.a.o.",
"- ^ S V N u 5 M q 0 6 r.r.1.r.o.",
"= Q B m x w 8 f %.p 8.a.r.4.r...",
"* T x z j c 9 7 i &.6.r.r.r.r. .",
"& I z j d s a 4 { 6.r.r.4.5.4. .",
"$ J S V m z h k q.a.r.r.r.q.8. .",
"% # @ + O o . X } ..o... . .|  .",
"                                ",
"                                "
};
