/* XPM */
static char *ec[] = {
/* columns rows colors chars-per-pixel */
"16 16 155 2 ",
"   c None",
".  c #000045",
"X  c #000065",
"o  c #000067",
"O  c #A50000",
"+  c #C10000",
"@  c #C30000",
"#  c #C50000",
"$  c #C70000",
"%  c #CB0000",
"&  c #CD0000",
"*  c #CF0000",
"=  c #D10000",
"-  c #D30000",
";  c #D50000",
":  c #D70000",
">  c #D90000",
",  c #DB0000",
"<  c #DD0000",
"1  c #D31D1D",
"2  c #E10000",
"3  c #EF0000",
"4  c #D42120",
"5  c #D52525",
"6  c #D62A2A",
"7  c #D82F2F",
"8  c #DA3333",
"9  c #DC3838",
"0  c #D83F3F",
"q  c #DD3E3E",
"w  c #EC332C",
"e  c #ED352F",
"r  c #ED3832",
"t  c #EE3C35",
"y  c #EF4039",
"u  c #F0433D",
"i  c #DF4343",
"p  c #E04848",
"a  c #E24D4D",
"s  c #F14742",
"d  c #F24C46",
"f  c #F2504B",
"g  c #E35252",
"h  c #F35550",
"j  c #F55A55",
"k  c #F65F58",
"l  c #F7635D",
"z  c #F76762",
"x  c #E97272",
"c  c #DFB100",
"v  c #E3B300",
"b  c #E5B900",
"n  c #E7BB00",
"m  c #E9BF00",
"M  c #EBC100",
"N  c #EDC500",
"B  c #EFC700",
"V  c #EFC900",
"C  c #F1CB00",
"Z  c #F3CF01",
"A  c #F5D107",
"S  c #F7D10D",
"D  c #FDDF0B",
"F  c #F7D311",
"G  c #F9D715",
"H  c #F9D517",
"J  c #F9D519",
"K  c #F9D719",
"L  c #F9D927",
"P  c #F4DE49",
"I  c #F5DF4E",
"U  c #F2DA54",
"Y  c #F3DB59",
"T  c #F4DD5D",
"R  c #F6E152",
"E  c #F7E357",
"W  c #F8E45C",
"Q  c #F4DE62",
"!  c #F5DF62",
"~  c #F5DF66",
"^  c #F6DF67",
"/  c #F3DE6C",
"(  c #F5E262",
")  c #F9E660",
"_  c #FAE765",
"`  c #F6E16B",
"'  c #F7E26F",
"]  c #FBE869",
"[  c #FCE96D",
"{  c #F4E070",
"}  c #F5E175",
"|  c #F8E473",
" . c #F9E577",
".. c #FDEA71",
"X. c #FDEB75",
"o. c #F6E279",
"O. c #F7E47B",
"+. c #F7E57F",
"@. c #FAE67B",
"#. c #FAE77D",
"$. c #FEEC78",
"%. c #0025A1",
"&. c #002DA3",
"*. c #115389",
"=. c #2463B5",
"-. c #2967B7",
";. c #2D6AB9",
":. c #2E6BBA",
">. c #316EBC",
",. c #326FBC",
"<. c #3772BD",
"1. c #3772BE",
"2. c #3C76BF",
"3. c #447ABF",
"4. c #4179C1",
"5. c #417AC2",
"6. c #477DC1",
"7. c #467DC4",
"8. c #5480A4",
"9. c #5983A6",
"0. c #5D87A8",
"q. c #608BAB",
"w. c #658EAE",
"e. c #6991B0",
"r. c #6C93B0",
"t. c #6E95B3",
"y. c #7298B6",
"u. c #769BB8",
"i. c #7A9EBA",
"p. c #7DA0BD",
"a. c #4B81C6",
"s. c #4C81C6",
"d. c #5084C8",
"f. c #5185C8",
"g. c #5588CA",
"h. c #5589CA",
"j. c #5A8CCC",
"k. c #5F8FCE",
"l. c #78A1D6",
"z. c #7CA4D8",
"x. c #81A3BE",
"c. c #F8E683",
"v. c #F8E787",
"b. c #FBE880",
"n. c #FCE983",
"m. c #F9E88A",
"M. c #FAE98D",
"N. c #FEF08F",
"B. c #FBEA90",
"V. c #FBEB92",
"C. c #FCEC95",
"Z. c #FCED96",
"A. c #FCED98",
"S. c #FCED99",
"D. c #97B4CA",
/* pixels */
"                                ",
"                                ",
"                                ",
"L K K K G G S A Z C C B B M m m ",
"G S.S.Z.Z.V.M.M.m.v.c.+.O.O.} b ",
"K S.n.#.#.@. .| ' ` ^ Q T Y { v ",
"K Z.n.@.@. .| ' ` ^ Q T Y U / c ",
"D M.$.$...[ ] _ W W E R I P ( b ",
"*.D.D.i.i.u.y.t.e.w.0.0.9.8.t.. ",
"&.l.g.j.h.f.s.7.5.2.<.>.:.-.6.o ",
"%.l.j.g.f.s.7.4.2.<.>.;.-.=.3.o ",
"& x g a p i q 9 8 8 6 5 4 1 0 O ",
"3 z l k j h f d s u y t r e w = ",
"2 < > > ; ; ; & & % # % # + + + ",
"                                ",
"                                "
};
