/* XPM */
static char *ee[] = {
/* columns rows colors chars-per-pixel */
"16 16 115 2 ",
"   c None",
".  c black",
"X  c gray8",
"o  c #191919",
"O  c gray10",
"+  c gray12",
"@  c #202020",
"#  c gray14",
"$  c #252525",
"%  c #2A2A2A",
"&  c #2A2B2B",
"*  c gray17",
"=  c #2F2F2F",
"-  c gray19",
";  c #353535",
":  c gray21",
">  c #3B3B3A",
",  c gray23",
"<  c #3B3B3C",
"1  c #3F3F3F",
"2  c gray25",
"3  c #414141",
"4  c gray27",
"5  c #464646",
"6  c #494A49",
"7  c #4B4A4B",
"8  c #4B4B4B",
"9  c gray31",
"0  c #504F50",
"q  c #535353",
"w  c gray33",
"e  c #585858",
"r  c #6F6F6F",
"t  c #727273",
"y  c #767676",
"u  c #000093",
"i  c #000097",
"p  c #00009B",
"a  c #00009F",
"s  c #0005A3",
"d  c #000DA5",
"f  c #0013A9",
"g  c #0019AD",
"h  c #0021B1",
"j  c #0027B3",
"k  c #002DB5",
"l  c #0033B9",
"z  c #0037BB",
"x  c #003BBD",
"c  c #0041BF",
"v  c #0043BF",
"b  c #267ACC",
"n  c #2B7CCE",
"m  c #2C7CCE",
"M  c #3180D0",
"N  c #3181D0",
"B  c #3784D1",
"V  c #3784D2",
"C  c #3C88D3",
"Z  c #3D88D4",
"A  c #448CD3",
"S  c #428BD5",
"D  c #478FD7",
"F  c #498FD5",
"G  c #4E93D7",
"H  c #4B92D8",
"J  c #4C92D8",
"K  c #5396D8",
"L  c #5195DA",
"P  c #5498DB",
"I  c #5898D9",
"U  c #5C9BDB",
"Y  c #589BDC",
"T  c #599BDD",
"R  c #5C9DDE",
"E  c #5F9FDF",
"W  c #619EDD",
"Q  c #65A1DD",
"!  c #69A4DF",
"~  c #6DA7E0",
"^  c #70A9E2",
"/  c #74ABE2",
"(  c #77ADE3",
")  c #79AEE4",
"_  c #7BB0E4",
"`  c gray75",
"'  c #C1C1C1",
"]  c #C3C3C3",
"[  c #C5C5C5",
"{  c gray79",
"}  c #CBCBCB",
"|  c gray81",
" . c gray82",
".. c LightGray",
"X. c #D7D7D7",
"o. c #D9D7D9",
"O. c gray85",
"+. c gray86",
"@. c #DFDFDF",
"#. c #E1E1E1",
"$. c gray89",
"%. c gray90",
"&. c #F1F1F1",
"*. c gray95",
"=. c #F2F2F3",
"-. c #F3F3F3",
";. c #F4F4F4",
":. c gray96",
">. c #F6F6F6",
",. c gray97",
"<. c #F8F8F8",
"1. c #F9F9F9",
"2. c gray98",
"3. c #FBFBFB",
"4. c gray99",
/* pixels */
"                                ",
"                                ",
"                                ",
"v v v v c x z l k j h g f d s s ",
"v _ _ ) ) / ^ ~ ! Q W U I K G p ",
"v _ R R Y P L J D S Z B M m F i ",
"v ) R Y P L J D S C B M m b A u ",
". y e w 0 8 5 3 < : - * $ @ 1 . ",
". t q 9 7 5 2 > : - * $ @ o < . ",
". r 9 7 5 2 > : = * @ + o X : . ",
"%.4.4.3.1.1.1.>.>.>.-.-.-.&.>.] ",
"$.4.1.1.1.<.>.>.>.-.-.-.&.&.-.] ",
"$.1.1.1.1.1.>.>.>.>.>.-.&.-.-.` ",
"@.O.O.O.X.....| { { [ [ ] ` ` ` ",
"                                ",
"                                "
};
