/* XPM */
static char *eg[] = {
/* columns rows colors chars-per-pixel */
"16 16 127 2 ",
"   c None",
".  c black",
"X  c #0B0B0B",
"o  c #0F0F0E",
"O  c #131313",
"+  c #181919",
"@  c #1E1E1E",
"#  c #232323",
"$  c gray16",
"%  c #2C2C2C",
"&  c gray18",
"*  c #2F2F2F",
"=  c #323232",
"-  c #343434",
";  c #353535",
":  c #393939",
">  c #3A3A3A",
",  c gray24",
"<  c #3F3F3F",
"1  c gray26",
"2  c #444444",
"3  c #464646",
"4  c #4B4B4B",
"5  c #505050",
"6  c #545455",
"7  c #585858",
"8  c #5D5D5D",
"9  c #616162",
"0  c gray39",
"q  c gray40",
"w  c #6A6A6A",
"e  c #6C6C6D",
"r  c #707071",
"t  c gray48",
"y  c #7B7B7C",
"u  c #CF0000",
"i  c #D30000",
"p  c #D50000",
"a  c #D70000",
"s  c #D90000",
"d  c #DB0000",
"f  c #DF0000",
"g  c #E10000",
"h  c #E30000",
"j  c #E50000",
"k  c #E70000",
"l  c #E90000",
"z  c #EB0000",
"x  c #ED0000",
"c  c #E92C2C",
"v  c #E93131",
"b  c #EB3737",
"n  c #EC3C3D",
"m  c #F13535",
"M  c #ED4242",
"N  c #EF4747",
"B  c #EB4949",
"V  c #ED4E4E",
"C  c #F04C4C",
"Z  c #ED5353",
"A  c #EE5757",
"S  c #F15151",
"D  c #F25454",
"F  c #F25959",
"G  c #F05C5C",
"H  c #F35C5C",
"J  c #F35F5F",
"K  c #EC6969",
"L  c #ED6D6D",
"P  c #F16060",
"I  c #F26565",
"U  c #F26969",
"Y  c #F36D6D",
"T  c #EE7171",
"R  c #EF7575",
"E  c #ED7E7E",
"W  c #F47071",
"Q  c #F57474",
"!  c #F67777",
"~  c #F17A7B",
"^  c #F67979",
"/  c #F67B7A",
"(  c #F77B7B",
")  c #F2BB76",
"_  c #DECB62",
"`  c #DFCC66",
"'  c #EFDD72",
"]  c #F0DD74",
"[  c #F1DE77",
"{  c #F2E07B",
"}  c #F3E27F",
"|  c #EF7E80",
" . c #808080",
".. c #848484",
"X. c #888888",
"o. c #8B8B8B",
"O. c #A0A0A0",
"+. c #F48585",
"@. c #F48888",
"#. c #F58B8B",
"$. c #F68E8E",
"%. c #F69090",
"&. c #F8A4A4",
"*. c #E8D883",
"=. c #E9DA88",
"-. c #EEDE89",
";. c #F4E383",
":. c #F2E597",
">. c gray89",
",. c gray90",
"<. c #E7E7E7",
"1. c gray95",
"2. c #F3F3F3",
"3. c #F4F4F4",
"4. c #F4F5F5",
"5. c gray96",
"6. c #F6F6F6",
"7. c gray97",
"8. c #F7F8F3",
"9. c #FAFAF9",
"0. c gray98",
"q. c #FBFBFB",
"w. c #FBFCFB",
"e. c gray99",
"r. c #FDFCFD",
"t. c #FDFDFD",
"y. c #FEFEFE",
/* pixels */
"                                ",
"                                ",
"                                ",
"x z z z z z k z k g g f s s s a ",
"z ( ( ^ ! Q W Y K I P G A Z V a ",
"z ( P H F D S C C M n b v c B u ",
"m &.%.$.#.@.+.| ) ~ Q T L K E a ",
"t.t.t.t.t.t.9.:.[ 8.5.5.4.4.4.<.",
"t.t.t.9.t.w.;.-.] [ 5.5.5.1.5.<.",
"t.t.t.9.9.9.;.=.*.] 5.5.1.1.1.>.",
"* O.o.o... .y ` _ r e w q 0 t . ",
". q 1 1 : ; % $ # @ + O o X * . ",
". 9 8 7 6 5 4 3 1 , : ; = * % . ",
". . . . . . . . . . . . . . . . ",
"                                ",
"                                "
};
