/* XPM */
static char *eh[] = {
/* columns rows colors chars-per-pixel */
"16 16 146 2 ",
"   c None",
".  c black",
"X  c #002500",
"o  c #002700",
"O  c #002B00",
"+  c #002D00",
"@  c #002F00",
"#  c #003500",
"$  c #003B00",
"%  c #003F00",
"&  c #3B3737",
"*  c gray24",
"=  c #004500",
"-  c #004B00",
";  c #005100",
":  c #005500",
">  c #005B00",
",  c #006100",
"<  c #006B00",
"1  c #006D00",
"2  c #006F00",
"3  c gray26",
"4  c gray28",
"5  c #4B4B4D",
"6  c #515051",
"7  c #555555",
"8  c gray35",
"9  c #5A5858",
"0  c gray36",
"q  c #5D5D5D",
"w  c #616061",
"e  c gray38",
"r  c #646464",
"t  c #656565",
"y  c #6A6A6A",
"u  c #6D6D6D",
"i  c #717170",
"p  c gray46",
"a  c #777777",
"s  c gray48",
"d  c gray49",
"f  c #7F7F7E",
"g  c gray50",
"h  c #B10000",
"j  c #B90000",
"k  c #DD0000",
"l  c #DF0000",
"z  c #DF0B0B",
"x  c #E30000",
"c  c #E50000",
"v  c #E70000",
"b  c #E90000",
"n  c #EB0000",
"m  c #E21414",
"M  c #E41F1F",
"N  c #F21010",
"B  c #F21414",
"V  c #F31919",
"C  c #F31A1A",
"Z  c #F41F1F",
"A  c #D82C2C",
"S  c #D82D2D",
"D  c #E22C2C",
"F  c #F42020",
"G  c #F52525",
"H  c #F52626",
"J  c #F22F2F",
"K  c #F33232",
"L  c #F43636",
"P  c #F43B3B",
"I  c #F53F3F",
"U  c #DE4F4F",
"Y  c #F64444",
"T  c #F74949",
"R  c #FA6262",
"E  c #F7797A",
"W  c #F87878",
"Q  c #12960E",
"!  c #139A13",
"~  c #189B19",
"^  c #1E9C1E",
"/  c #239F23",
"(  c #29A229",
")  c #2EA62E",
"_  c #31A32F",
"`  c #32A632",
"'  c #34A934",
"]  c #35A835",
"[  c #39A939",
"{  c #3AAB3A",
"}  c #3DAC3D",
"|  c #3FAD3F",
" . c #42AE42",
".. c #44B044",
"X. c #46B046",
"o. c #4BB24B",
"O. c #50B450",
"+. c #54B755",
"@. c #58B958",
"#. c #5DBC5D",
"$. c #61BE62",
"%. c #66BF66",
"&. c #F98181",
"*. c #F88486",
"=. c #FA9191",
"-. c #DFDFDF",
";. c #F9C4C4",
":. c #FBC8C8",
">. c #FBD0D0",
",. c #F9D7D7",
"<. c #DFE8DB",
"1. c #DDEFDD",
"2. c #E4E1E1",
"3. c #E5E6E6",
"4. c #E6E6E6",
"5. c #E0EDE1",
"6. c #E2EDE2",
"7. c #E2EFE2",
"8. c #E4EFE4",
"9. c gray91",
"0. c #E9E9E9",
"q. c #EAEAEA",
"w. c gray92",
"e. c #ECECEC",
"r. c gray93",
"t. c #F5E7E9",
"y. c #E6F1E6",
"u. c #E7F1E7",
"i. c #E8F2E8",
"p. c #EAF3EA",
"a. c #EBF4EB",
"s. c #EFF7EF",
"d. c #F1F1F1",
"f. c #F7F3F3",
"g. c #F6F6F6",
"h. c gray97",
"j. c #F1F9F1",
"k. c #F3F9F3",
"l. c #F8F8F8",
"z. c gray98",
"x. c #FBFBFB",
"c. c #FBFCFB",
"v. c gray99",
"b. c #FDFCFD",
"n. c #FDFDFD",
"m. c #FEFEFE",
/* pixels */
"                                ",
"                                ",
"                                ",
". . . . . . . . . . . . . . . h ",
". g g g s p p i u y t w q 8 U n ",
". g r w q 8 7 6 5 4 3 * & A T n ",
"-.d.r.r.e.q.q.q.9.4.4.2.A H Y c ",
"k.m.m.m.m.x.:.=.&.l.f.A H F I c ",
"s.m.m.z.m.:.R ,.W l.A G Z V P c ",
"a.m.m.m.m.x.;.*.E g.t.M V B L x ",
"1.s.a.p.u.u.y.8.6.6.6.<.m N K k ",
"2 %...| { ' ` ( / ^ ~ ! Q m J k ",
"2 $.#.@.+.O.o. . .} [ ] _ _ D k ",
"< , > : ; - = = $ # + O X X + j ",
"                                ",
"                                "
};
