/* XPM */
static char *es[] = {
/* columns rows colors chars-per-pixel */
"16 16 137 2 ",
"   c None",
".  c #DD0000",
"X  c #DF0000",
"o  c #E10000",
"O  c #E30000",
"+  c #E50000",
"@  c #E70000",
"#  c #E90000",
"$  c #EB0000",
"%  c #ED0000",
"&  c #EF0000",
"*  c #F10000",
"=  c #F30000",
"-  c #F50000",
";  c #F70000",
":  c #F90000",
">  c #FB0000",
",  c #FD0000",
"<  c red",
"1  c #F10B0B",
"2  c #F10F0E",
"3  c #F21313",
"4  c #F31919",
"5  c #F41E1E",
"6  c #F52323",
"7  c #F62929",
"8  c #F22C2C",
"9  c #F22F2F",
"0  c #F62C2C",
"q  c #F72E2E",
"w  c #F23232",
"e  c #F73131",
"r  c #F33535",
"t  c #F83434",
"y  c #F83737",
"u  c #F43939",
"i  c #F53D3D",
"p  c #F93A3A",
"a  c #F93C3D",
"s  c #FA3F3F",
"d  c #F64242",
"f  c #F74646",
"g  c #FA4242",
"h  c #FA4444",
"j  c #FB4747",
"k  c #F74949",
"l  c #F74B4B",
"z  c #F74E4E",
"x  c #FC4C4C",
"c  c #EC5351",
"v  c #F85050",
"b  c #F85353",
"n  c #FD5151",
"m  c #F95455",
"M  c #F95757",
"N  c #FD5454",
"B  c #F95858",
"V  c #FE5959",
"C  c #FA5C5C",
"Z  c #FA5D5D",
"A  c #FE5C5C",
"S  c #FE5F5F",
"D  c #ED6753",
"F  c #EB6957",
"G  c #F17E57",
"H  c #FB6060",
"J  c #FB6162",
"K  c #FC6565",
"L  c #FC6666",
"P  c #FC6969",
"I  c #FD6D6D",
"U  c #FD7071",
"Y  c #FE7474",
"T  c #FE7777",
"R  c #FE7979",
"E  c #FF7B7A",
"W  c #FF7B7B",
"Q  c #DFDF00",
"!  c #E3E300",
"~  c #E5E500",
"^  c #E7E700",
"/  c #FBFB00",
"(  c #FDFD00",
")  c #FFFD00",
"_  c #F2F210",
"`  c #F2F214",
"'  c #F3F319",
"]  c #F3F31A",
"[  c #F4F41F",
"{  c #F4F420",
"}  c #F5F524",
"|  c #F5F525",
" . c #F5F426",
".. c #F6F62A",
"X. c #F6F62B",
"o. c #F7F72F",
"O. c #E8EE3D",
"+. c #F3F332",
"@. c #F7F730",
"#. c #F7F731",
"$. c #F4F436",
"%. c #F8F836",
"&. c #F4F53B",
"*. c #F5F53F",
"=. c #F9F93C",
"-. c #E08C51",
";. c #E4A74A",
":. c #EBC94B",
">. c #EBDE53",
",. c #ECE142",
"<. c #F0E048",
"1. c #F3F441",
"2. c #F6F544",
"3. c #FAFA42",
"4. c #FBFB47",
"5. c #F8F44B",
"6. c #FBFB49",
"7. c #FCFC4F",
"8. c #F4EE57",
"9. c #F2F355",
"0. c #FDFD53",
"q. c #FEFE58",
"w. c #FEFE59",
"e. c #FEFE5C",
"r. c #FCFC6A",
"t. c #FDFD6F",
"y. c #FEFE73",
"u. c #FEFE76",
"i. c #FEFE79",
"p. c #B6BB9D",
"a. c #F2BDB0",
"s. c #EDE08D",
"d. c #C0CEA8",
"f. c #F5C3B1",
"g. c #ECD3D4",
"h. c #F9F1D6",
"j. c #F5EAE2",
/* pixels */
"                                ",
"                                ",
"                                ",
"< < < < > < < > > > ; ; = = % % ",
"< W W W W Y U I P K H C M N z # ",
"< W A A V N n x j g a y e 0 k @ ",
") i.e.q.8.>.5.4.3.=.%.#.X. .2.^ ",
") u.q.9.G F s.1.=.%.o.X. .{ *.^ ",
") y.0.f.D g.a.,.%.#.X.} [ ' &.^ ",
"/ t.7.h.-.c j.<.o.X.} } ' ` $.! ",
"/ r.6.d.:.;.p.O.X.} [ ` ` ` +.Q ",
"> K j a p y 0 7 6 5 4 3 2 1 9 . ",
"; H C B M z x f d i u y w 9 9 . ",
"= = = % % % # # @ @ o o . . . . ",
"                                ",
"                                "
};
