/* XPM */
static char *et[] = {
/* columns rows colors chars-per-pixel */
"16 16 159 2 ",
"   c None",
".  c black",
"X  c #001300",
"o  c #001500",
"O  c #001900",
"+  c #001B00",
"@  c #002100",
"#  c #002700",
"$  c #002D00",
"%  c #003500",
"&  c #003900",
"*  c #003D00",
"=  c #004305",
"-  c #00450B",
";  c #004B0F",
":  c #004315",
">  c #004D13",
",  c #006500",
"<  c #005921",
"1  c #2C7657",
"2  c #317B5C",
"3  c #377F61",
"4  c #DD0000",
"5  c #DF0000",
"6  c #E10000",
"7  c #E30000",
"8  c #E50000",
"9  c #E70000",
"0  c #E90000",
"q  c #EB0000",
"w  c #ED0000",
"e  c #EF0000",
"r  c #F10000",
"t  c #F30000",
"y  c #F50000",
"u  c #F70000",
"i  c #F90000",
"p  c #FB0000",
"a  c #F10B0B",
"s  c #F10F0E",
"d  c #F21313",
"f  c #F31919",
"g  c #F23810",
"h  c #F23C14",
"j  c #F11E23",
"k  c #F22C2C",
"l  c #F22F2F",
"z  c #F52E31",
"x  c #F23232",
"c  c #F33535",
"v  c #F83434",
"b  c #F43939",
"n  c #F53D3D",
"m  c #F93A3A",
"M  c #FA3F3F",
"N  c #F34119",
"B  c #EF4225",
"V  c #F35532",
"C  c #F45A3F",
"Z  c #FA613F",
"A  c #C94259",
"S  c #CC465C",
"D  c #F64242",
"F  c #F74646",
"G  c #FA4444",
"H  c #F74B4B",
"J  c #F85050",
"K  c #F95455",
"L  c #F95858",
"P  c #FA5D5D",
"I  c #FB6545",
"U  c #FB6949",
"Y  c #FB6162",
"T  c #FC6666",
"R  c #3D8361",
"E  c #488E49",
"W  c #4C914D",
"Q  c #519452",
"!  c #52955A",
"~  c #428B66",
"^  c #498A6F",
"/  c #4E9370",
"(  c #519572",
")  c #539675",
"_  c #549476",
"`  c #59967C",
"'  c #589878",
"]  c #5C9B7C",
"[  c #5C987E",
"{  c #619D62",
"}  c #619E7F",
"|  c #69A470",
" . c #70A970",
".. c #72AB74",
"X. c #76AD77",
"o. c #E3E300",
"O. c #E5E500",
"+. c #E7E700",
"@. c #FDFD00",
"#. c #F2F214",
"$. c #F3F319",
"%. c #F3F31A",
"&. c #F4F41F",
"*. c #F4F420",
"=. c #F5F525",
"-. c #F6F62B",
";. c #F4F436",
":. c #F4F53B",
">. c #F5F53F",
",. c #FC846A",
"<. c #FBFB45",
"1. c #FBFC49",
"2. c #FCFC4B",
"3. c #FCFC4F",
"4. c #FDFC50",
"5. c #FDFD53",
"6. c #FDFD54",
"7. c #FEFE58",
"8. c #FDFD6F",
"9. c #FEFE73",
"0. c #FEFE76",
"q. c #4D968A",
"w. c #5F9A81",
"e. c #52998C",
"r. c #65A182",
"t. c #69A383",
"y. c #6DA586",
"u. c #70A98C",
"i. c #74AB8F",
"p. c #77AD91",
"a. c #7BAB96",
"s. c #79AE94",
"d. c #7BB095",
"f. c #73B8CA",
"g. c #7EBCCB",
"h. c #6BA3D1",
"j. c #77ABD7",
"k. c #6AB3DB",
"l. c #6BB3DE",
"z. c #63B0E2",
"x. c #64B0E2",
"c. c #68B2E3",
"v. c #6EB6E4",
"b. c #77BAE2",
"n. c #71B9E6",
"m. c #77BBE6",
"M. c #7CBEE7",
"N. c #7ABDE8",
"B. c #8FBB8F",
"V. c #B0D588",
"C. c #B0D589",
"Z. c #BADB92",
"A. c #98CAAD",
"S. c #96C9B0",
"D. c #9ACBB2",
"F. c #9ACBB3",
"G. c #86C4D2",
"H. c #85C2DA",
"J. c #90C8D4",
/* pixels */
"                                ",
"                                ",
"                                ",
"< > > > ; - = * & % $ # @ + X + ",
"; d.d.s.p.i.u.y.y.r.| [ ' ) / . ",
": a.w.[ ` _ ( e.q.R R 3 2 1 ^ . ",
", B.X... .| b.N.m.c.! Q W E { o ",
"@.0.7.6.4.J.M.Z.F.v.g.-.=.*.>.+.",
"@.9.4.3.2.H.Z.F.S.C.k.=.=.$.:.O.",
"@.9.4.<.<.G.n.A.C.z.f.=.$.#.;.O.",
"p ,.U I I C j.x.z.h.B N h g V 4 ",
"p T G M m v z S A j f d s a l 4 ",
"y Y P L K J H F D n b c x l l 4 ",
"y t t w w w q q 9 9 6 6 4 4 4 4 ",
"                                ",
"                                "
};
