/* XPM */
static char *europeanunion[] = {
/* columns rows colors chars-per-pixel */
"16 16 137 2 ",
"   c None",
".  c #333A66",
"X  c #333B67",
"o  c #343B67",
"O  c #343B68",
"+  c #343C69",
"@  c #353C6B",
"#  c #353C6C",
"$  c #353D6C",
"%  c #363D6C",
"&  c #363E6D",
"*  c #373E6E",
"=  c #383F6F",
"-  c #394071",
";  c #394172",
":  c #3A4173",
">  c #3A4274",
",  c #3B4275",
"<  c #3C4377",
"1  c #3D4477",
"2  c #3D4478",
"3  c #3E4579",
"4  c #3E457A",
"5  c #3F467B",
"6  c #41487F",
"7  c #DBBC3F",
"8  c #E2CD70",
"9  c #E3CE74",
"0  c #E4D078",
"q  c #E4D07A",
"w  c #3F4A86",
"e  c #3F4B87",
"r  c #424982",
"t  c #444B85",
"y  c #454C86",
"u  c #404B89",
"i  c #414C8A",
"p  c #464D8A",
"a  c #474D8A",
"s  c #424D8D",
"d  c #424E8E",
"f  c #434E8E",
"g  c #424E8F",
"h  c #474F8D",
"j  c #484F8D",
"k  c #434F90",
"l  c #444F91",
"z  c #445091",
"x  c #445191",
"c  c #455293",
"v  c #465396",
"b  c #465397",
"n  c #4A5190",
"m  c #4B5293",
"M  c #4C5394",
"N  c #4D5495",
"B  c #4E5596",
"V  c #465398",
"C  c #475399",
"Z  c #475499",
"A  c #49559B",
"S  c #4F5598",
"D  c #4F5599",
"F  c #4F5699",
"G  c #49559C",
"H  c #49559D",
"J  c #49569D",
"K  c #50569B",
"L  c #757788",
"P  c #75788B",
"I  c #75798B",
"U  c #797C92",
"Y  c #7A7D95",
"T  c #4956A0",
"R  c #4957A0",
"E  c #4957A1",
"W  c #4A56A1",
"Q  c #4B57A1",
"!  c #4B5AA0",
"~  c #4B5AA1",
"^  c #4B59A3",
"/  c #4B5BA2",
"(  c #4B5AA3",
")  c #4C5BA2",
"_  c #4C5BA3",
"`  c #4C5BA5",
"'  c #4D5BA6",
"]  c #4D5BA7",
"[  c #4E5DA5",
"{  c #4C5CA7",
"}  c #4D5CA7",
"|  c #4E5EA6",
" . c #4D5CA8",
".. c #4D5DA8",
"X. c #4D5CA9",
"o. c #4E5DAA",
"O. c #4E5DAB",
"+. c #4F5FAC",
"@. c #505FAF",
"#. c #4F60A8",
"$. c #5161AA",
"%. c #5362AD",
"&. c #5060AF",
"*. c #5364AC",
"=. c #5364AD",
"-. c #5364AF",
";. c #5161B0",
":. c #5262B2",
">. c #5262B3",
",. c #5666B1",
"<. c #5667B1",
"1. c #5363B4",
"2. c #5464B5",
"3. c #5464B7",
"4. c #5769B2",
"5. c #5768B5",
"6. c #5969B4",
"7. c #596BB5",
"8. c #5464B8",
"9. c #5564BA",
"0. c #5666BB",
"q. c #5767BC",
"w. c #5767BE",
"e. c #5B6DB9",
"r. c #5C6FB9",
"t. c #5E71BC",
"y. c #5E72BD",
"u. c #6175C0",
"i. c #6175C5",
"p. c #6377C4",
"a. c #6378C4",
"s. c #647AC6",
"d. c #657BC9",
"f. c #677CCB",
"g. c #677DCB",
"h. c #7D809A",
"j. c #7F84A1",
/* pixels */
"                                ",
"                                ",
"                                ",
"D K D B M m j a y r 6 6 1 > - * ",
"D i.d.d.s.s.p.t.r.3.4.*.#.| V * ",
"B g.w.0.8.1.;.Y 0 Y G v z g ( * ",
"m d.0.0.1.1.q o.| ( 0 v k g ( % ",
"n s.3.3.3.j.;.o.] G A I k g / % ",
"h p.>.>.;.q +.X.^ G Z 7 k g ( @ ",
"p p.;.;.;.Y o.| W G V L k u J @ ",
"t t.o.o.o.{ 9 W G V 9 k f u ^ % ",
"r e.X.o.^ ^ G U 8 I z k u u J o ",
"6 %.7.7.7.4.<.-.*.$.#.) ) J v X ",
"3 5 5 3 3 3 > < - - - - % X X X ",
"                                ",
"                                "
};
