/* XPM */
static char *fi[] = {
/* columns rows colors chars-per-pixel */
"16 16 127 2 ",
"   c None",
".  c #000085",
"X  c #000087",
"o  c #00008F",
"O  c #000099",
"+  c #00009B",
"@  c #00009F",
"#  c #0029B9",
"$  c #0029BB",
"%  c #002BBD",
"&  c #002FBD",
"*  c #0035BD",
"=  c #0033C1",
"-  c #3063C9",
";  c #3265CB",
":  c #3567CA",
">  c #376ACC",
",  c #3A6BCC",
"<  c #3A6CCD",
"1  c #3D6DCE",
"2  c #3F6FCE",
"3  c #406FCF",
"4  c #4172D0",
"5  c #4473D0",
"6  c #4473D1",
"7  c #4574D1",
"8  c #4776D2",
"9  c #4977D2",
"0  c #4A78D3",
"q  c #4E7AD0",
"w  c #4D7AD3",
"e  c #4C7AD4",
"r  c #4F7BD5",
"t  c #4F7CD5",
"y  c #507CD2",
"u  c #517DD5",
"i  c #537FD6",
"p  c #5680D4",
"a  c #5480D7",
"s  c #5580D7",
"d  c #5581D7",
"f  c #5983D7",
"g  c #5984D9",
"h  c #5A85D9",
"j  c #5E86D8",
"k  c #5E88DA",
"l  c #5F88DB",
"z  c #628AD8",
"x  c #6089DA",
"c  c #668DDA",
"v  c #628BDC",
"b  c #638BDC",
"n  c #638CDC",
"m  c #648CDC",
"M  c #658EDD",
"N  c #668EDE",
"B  c #678FDE",
"V  c #6990DD",
"C  c #6B91DE",
"Z  c #6C93DF",
"A  c #A7B1C1",
"S  c #B5BDCD",
"D  c #B7BFCD",
"F  c #B7BFD7",
"G  c #80A1E3",
"H  c #80A2E2",
"J  c #81A3E3",
"K  c #83A4E3",
"L  c #85A5E5",
"P  c #87A7E5",
"I  c #B9C1CF",
"U  c #BBC3D1",
"Y  c #B9C1D3",
"T  c #BFC3D3",
"R  c #BFC7D5",
"E  c #C1C9D7",
"W  c #C3C9D7",
"Q  c #C1CBD9",
"!  c #C7CFDB",
"~  c #CDD3DD",
"^  c #D1D7E3",
"/  c #D3D9E5",
"(  c #D7DBE7",
")  c #D5DBED",
"_  c #D9DDE9",
"`  c #DBDFEB",
"'  c #DBDFEF",
"]  c #DDE1EB",
"[  c #DBE1ED",
"{  c #DDE3ED",
"}  c #DFE3ED",
"|  c #E3E9F3",
" . c #E5EBF3",
".. c #E7EBF3",
"X. c #E5EBF5",
"o. c #F1F1F1",
"O. c #F1F1F2",
"+. c gray95",
"@. c #F2F2F3",
"#. c #F3F3F3",
"$. c #F3F3F4",
"%. c #F4F4F4",
"&. c #F4F4F5",
"*. c #F4F5F5",
"=. c gray96",
"-. c #F4F5F6",
";. c #F5F5F6",
":. c #F5F6F7",
">. c #F6F6F6",
",. c #F7F7F7",
"<. c #F6F7F8",
"1. c #F7F8F9",
"2. c #F6F8FA",
"3. c #F7F9FA",
"4. c #F8F8F8",
"5. c #F9F9F9",
"6. c #F8F9FA",
"7. c #F9FAFA",
"8. c #FAFAFA",
"9. c #FBFBFB",
"0. c #F9FBFC",
"q. c #FBFCFD",
"w. c gray99",
"e. c #FDFDFD",
"r. c #FCFDFE",
"t. c #FEFEFE",
"y. c white",
/* pixels */
"                                ",
"                                ",
"                                ",
" . . .X.& $ * ) } [ ` ` ( / ^ E ",
" .y.y.y.K K G y.9.y.7.7.7.,.,.~ ",
" .y.y.y.Z N m w.9.7.7.<.,.,.,.! ",
"| y.q.q.N N l 7.7.<.<.<.$.,.,.R ",
"= P Z V x j g f i y 0 6 2 < p o ",
"* P B x x g s i e 8 4 2 > - y X ",
"$ Z N x g s e q 9 6 3 , : - q . ",
"} w.1.<.s t 9 ,.;.;.O.#.O.O.$.Y ",
"} w.7.q.t 0 6 ,.;.;.O.O.O.O.O.D ",
"` w.9.5.c z x ,.#.#.#.#.O.O.#.D ",
"_ ( / ^ @ O O F W E E Y I D D A ",
"                                ",
"                                "
};
