/* XPM */
static char *fj[] = {
/* columns rows colors chars-per-pixel */
"16 16 165 2 ",
"   c None",
".  c #7F133B",
"X  c #000059",
"o  c #00006B",
"O  c #311D6F",
"+  c #67194B",
"@  c #89193D",
"#  c #CF1919",
"$  c #CF3A37",
"%  c #D23B39",
"&  c #D13F3C",
"*  c #832349",
"=  c #B86070",
"-  c #B7697F",
";  c #BC6D7A",
":  c #D54845",
">  c #D54846",
",  c #CF5354",
"<  c #D35C5D",
"1  c #CC6066",
"2  c #CE656A",
"3  c #CD6A70",
"4  c #CF6F74",
"5  c #C56D7B",
"6  c #D87479",
"7  c #E36B69",
"8  c #E57472",
"9  c #E0787A",
"0  c #E97C7A",
"q  c #E5B050",
"w  c #E6B053",
"e  c #E7B459",
"r  c #E8B559",
"t  c #69558F",
"y  c #7D7FB7",
"u  c #0027DD",
"i  c #0029DD",
"p  c #0029DF",
"a  c #002DDF",
"s  c #002FDF",
"d  c #002FE1",
"f  c #0031E3",
"g  c #0035E3",
"h  c #0037E5",
"j  c #003BE5",
"k  c #003DE7",
"l  c #0041E7",
"z  c #0043E9",
"x  c #0047E9",
"c  c #0049EB",
"v  c #004DEB",
"b  c #004DED",
"n  c #0055ED",
"m  c #0055EF",
"M  c #0059EF",
"N  c #005FF1",
"B  c #005BFB",
"V  c #0063F1",
"C  c #0065F3",
"Z  c #0069F5",
"A  c #006FF7",
"S  c #0071F7",
"D  c #0075F9",
"F  c #0077F9",
"G  c #007BFB",
"H  c #5178C5",
"J  c #816795",
"K  c #9A7A9C",
"L  c #AC7B95",
"P  c #C07C8D",
"I  c #C37C8C",
"U  c #0081FD",
"Y  c #5E85CE",
"T  c #789DD9",
"R  c #549EF8",
"E  c #42A0F3",
"W  c #46A1F4",
"Q  c #4DA1F5",
"!  c #4CA4F5",
"~  c #4DA7F6",
"^  c #50A5F2",
"/  c #53A7F2",
"(  c #54A7F2",
")  c #52A4F6",
"_  c #56A6F7",
"`  c #57A7F7",
"'  c #55A8F3",
"]  c #52A9F6",
"[  c #52AAF7",
"{  c #57A8F7",
"}  c #57ACF7",
"|  c #59AAF3",
" . c #5CADF4",
".. c #59A1F9",
"X. c #5EA4FA",
"o. c #5BA9F8",
"O. c #5BAAF8",
"+. c #5CAAF8",
"@. c #5AADF8",
"#. c #5CAFF8",
"$. c #5BB1F9",
"%. c #60AEF5",
"&. c #63A7FB",
"*. c #60ACF9",
"=. c #60ADF9",
"-. c #64AFFA",
";. c #65AFFA",
":. c #64B0F6",
">. c #68B3F7",
",. c #6AB4F7",
"<. c #6BB5F7",
"1. c #6EB7F7",
"2. c #60B1F9",
"3. c #65B0FA",
"4. c #63B4FA",
"5. c #69B1FA",
"6. c #69B2FB",
"7. c #6DB4FB",
"8. c #6DB5FB",
"9. c #6FB8F8",
"0. c #71B7FC",
"q. c #72B9F8",
"w. c #73B9F9",
"e. c #76BCF9",
"r. c #77BCF9",
"t. c #7ABEFA",
"y. c #7EC0FB",
"u. c #7FC0FB",
"i. c #9A83A8",
"p. c #D7888E",
"a. c #E28182",
"s. c #E38687",
"d. c #EB8583",
"f. c #E79495",
"g. c #D9A1AA",
"h. c #D9A7AF",
"j. c #DAABB4",
"k. c #F1A6A4",
"l. c #F1A9A7",
"z. c #E4B7BE",
"x. c #9393C0",
"c. c #9295C3",
"v. c #979AC2",
"b. c #9FA4CB",
"n. c #99A7D3",
"m. c #A6AFD5",
"M. c #87BEF1",
"N. c #80B8FC",
"B. c #DAB9C4",
"V. c #E5BFC6",
"C. c #E6BFC6",
"Z. c #8CC2F2",
"A. c #84C0FC",
"S. c #88C3FC",
"D. c #8BC4FD",
"F. c #E9CFD4",
"G. c #C7DFF4",
"H. c #C9DFF3",
"J. c #E2D6E0",
"K. c #CDE2F5",
"L. c #CCE3F6",
"P. c #E7EDF2",
"I. c #EAEEF3",
"U. c #EAEFF3",
"Y. c #EDF1F5",
/* pixels */
"                                ",
"                                ",
"                                ",
"5 J o . @ X + I B D S Z C V M m ",
"O C.C.l.l.B.C.m.N.A.t.t.M.w.q.c ",
"# f.I I 7 I I I &.4.3.#.*.o.,.x ",
"* z.k.e I l.I L X.$.2 < e , 4 z ",
"t C.i.L I h.j.L ..@.1 r q q 3 k ",
"y n.Y c.x.H T m.R [ L.Y.> I.K.h ",
"G D.q.7.6.3.=.+.{ ~ = > % & ; f ",
"G S.7.6.;.=.o.{ ) ! L.P.& P.H.d ",
"G A.6.;.*.o._ ) Q W E Z.$ M.( p ",
"A t.t.t.w.9.<.>.:.%. .| ( / / u ",
"Z C N N n b c z k j g d a p u u ",
"                                ",
"                                "
};
