/* XPM */
static char *fk[] = {
/* columns rows colors chars-per-pixel */
"16 16 169 2 ",
"   c None",
".  c #000003",
"X  c #000007",
"o  c #000009",
"O  c #00000F",
"+  c #000013",
"@  c #000017",
"#  c #000019",
"$  c #00001D",
"%  c #00001F",
"&  c #000021",
"*  c #000025",
"=  c #00002B",
"-  c #00002D",
";  c #00002F",
":  c #000033",
">  c #000039",
",  c #00003F",
"<  c #000045",
"1  c #000049",
"2  c #00004B",
"3  c #00004F",
"4  c #000053",
"5  c #000057",
"6  c #000059",
"7  c #00005B",
"8  c #00005D",
"9  c #000061",
"0  c #000065",
"q  c #000069",
"w  c #00037D",
"e  c #793165",
"r  c #726967",
"t  c #746C6E",
"y  c #7D726D",
"u  c #FD1315",
"i  c #9D1F45",
"p  c #A31F43",
"a  c #81295B",
"s  c #A52D51",
"d  c #827873",
"f  c #807875",
"g  c #807A78",
"h  c #CD6375",
"j  c #DF717B",
"k  c #FE6867",
"l  c #F06C70",
"z  c #FE7270",
"x  c #FD7875",
"c  c #F97678",
"v  c #FB7B7D",
"b  c #FE807D",
"n  c #001D93",
"m  c #213B8F",
"M  c #3B3383",
"N  c #233B91",
"B  c #2A3C91",
"V  c #2C4393",
"C  c #294294",
"Z  c #2A4294",
"A  c #2F4696",
"S  c #2E4797",
"D  c #2F4797",
"F  c #2F4998",
"G  c #314497",
"H  c #364796",
"J  c #364B91",
"K  c #324A95",
"L  c #3C4C96",
"P  c #364B9A",
"I  c #344C9A",
"U  c #344C9B",
"Y  c #35499C",
"T  c #3B4C98",
"R  c #3B4D9C",
"E  c #3C4F9D",
"W  c #3C5094",
"Q  c #3D539A",
"!  c #3A519D",
"~  c #3A519E",
"^  c #3D549D",
"/  c #3F53A0",
"(  c #3F55A1",
")  c #3A78B8",
"_  c #3D7AB9",
"`  c #40529C",
"'  c #42579F",
"]  c #44569E",
"[  c #7A7985",
"{  c #4056A0",
"}  c #4056A1",
"|  c #4257A2",
" . c #465CA2",
".. c #445AA4",
"X. c #455AA4",
"o. c #4659A7",
"O. c #455AA6",
"+. c #4959A0",
"@. c #495DA2",
"#. c #495FA7",
"$. c #495FA8",
"%. c #525EA1",
"&. c #4B60A5",
"*. c #4E63A8",
"=. c #4F63A9",
"-. c #5063A8",
";. c #5467A9",
":. c #5468AA",
">. c #5A6BAB",
",. c #586CAD",
"<. c #5C6EAE",
"1. c #4675A9",
"2. c #536AB2",
"3. c #5D70B0",
"4. c #7377AF",
"5. c #6173B0",
"6. c #6174B3",
"7. c #6577B3",
"8. c #6678B4",
"9. c #6B7AB6",
"0. c #687CB6",
"q. c #6A7CB7",
"w. c #6F7FB9",
"e. c #8D6B98",
"r. c #92719C",
"t. c #BC7C96",
"y. c #8779A7",
"u. c #4F80B0",
"i. c #5384B3",
"p. c #7AA8B6",
"a. c #4587D1",
"s. c #458FDC",
"d. c #4C90D8",
"f. c #5E95D1",
"g. c #5893D7",
"h. c #5897DB",
"j. c #4D95E0",
"k. c #5499E2",
"l. c #559AE3",
"z. c #928E91",
"x. c #969190",
"c. c #989191",
"v. c #9F9E9D",
"b. c #908BB7",
"n. c #A381A4",
"m. c #A483A6",
"M. c #A496B9",
"N. c #85ABB1",
"B. c #D48797",
"V. c #D78998",
"C. c #EB878D",
"Z. c #FA8586",
"A. c #FC9394",
"S. c #FE9F9C",
"D. c #FDA19E",
"F. c #E7A1A9",
"G. c #E9AEB6",
"H. c #E8B2B7",
"J. c #F2B8BE",
"K. c #9FADD3",
"L. c #9BAED5",
"P. c #E2B9C2",
"I. c #F0BFC4",
"U. c #B4CAD5",
"Y. c #BCD7E8",
"T. c #EEC6CB",
"R. c #EFD3D8",
"E. c #C0D9E8",
"W. c #E6D8E2",
/* pixels */
"                                ",
"                                ",
"                                ",
"j y.n p i w a h q 7 5 3 1 < , < ",
"M I.W.G.F.P.R.K.9.7.5.<.>.;.*.; ",
"u A.b z k x c l %.| g.h.d.a.@.= ",
"s J.S.v Z.D.C.t.+.E l.E.Y.s.] * ",
"4.T.M.V.B.L.H.m./ P j.p.N.) ` % ",
"e b.2.r.e.O.8.n.L G l.U.v._ ! % ",
"0 w.*.#.O.| R P F B f.x.y 1.H + ",
"9 q.&.O.( ~ I F Z c.z.i.u.t [ O ",
"8 8...( ~ I F Z N m f d y r G o ",
"5 6.3.,.:.-.&. .' ^ Q W J K V . ",
"5 1 < < > : ; * & % @ + O o X + ",
"                                ",
"                                "
};
