/* XPM */
static char *fm[] = {
/* columns rows colors chars-per-pixel */
"16 16 140 2 ",
"   c None",
".  c #001F7D",
"X  c #002181",
"o  c #002581",
"O  c #002783",
"+  c #002985",
"@  c #002B85",
"#  c #002D89",
"$  c #002F89",
"%  c #00338B",
"&  c #00358D",
"*  c #00398F",
"=  c #003B93",
"-  c #003D93",
";  c #004197",
":  c #00479B",
">  c #004D9F",
",  c #0353A3",
"<  c #0B59A5",
"1  c #115DA9",
"2  c #1963AD",
"3  c #1F69B1",
"4  c #256DB3",
"5  c #276FB5",
"6  c #2B73B5",
"7  c #2D73B5",
"8  c #3175B9",
"9  c #3377B9",
"0  c #3579BB",
"q  c #397BBD",
"w  c #3B7DBD",
"e  c #3D7DBF",
"r  c #3F7FBF",
"t  c #417FBF",
"y  c #4181BF",
"u  c #6795C2",
"i  c #6A97C4",
"p  c #6C99C6",
"a  c #6E99C6",
"s  c #6E9AC6",
"d  c #6F9BC7",
"f  c #6F9BC8",
"g  c #709CC7",
"h  c #709CC8",
"j  c #729DC9",
"k  c #759FCA",
"l  c #77A1CB",
"z  c #7BA2CA",
"x  c #7CA4CA",
"c  c #7DA4CB",
"v  c #78A1CC",
"b  c #7AA2CC",
"n  c #7AA4CD",
"m  c #7FA5CC",
"M  c #7FA6CC",
"N  c #7CA5CE",
"B  c #7EA6CE",
"V  c #7EA7CF",
"C  c #82A8CD",
"Z  c #84A9CF",
"A  c #85AACF",
"S  c #85ABCF",
"D  c #80A8D0",
"F  c #81A9D0",
"G  c #82A9D0",
"H  c #82A9D1",
"J  c #83A9D1",
"K  c #81AAD1",
"L  c #83ABD2",
"P  c #84ABD2",
"I  c #85ACD2",
"U  c #86ADD2",
"Y  c #86ACD3",
"T  c #87ADD3",
"R  c #89ADD2",
"E  c #8CAFD3",
"W  c #88ADD4",
"Q  c #88AED4",
"!  c #89AFD5",
"~  c #8AAED4",
"^  c #8AAFD4",
"/  c #8FB1D4",
"(  c #8FB2D5",
")  c #8EB1D6",
"_  c #8EB2D6",
"`  c #91B4D7",
"'  c #93B4D7",
"]  c #95B6D7",
"[  c #91B4D8",
"{  c #90B5D8",
"}  c #91B5D8",
"|  c #92B6D9",
" . c #92B7D9",
".. c #96B7D8",
"X. c #95B7DA",
"o. c #97B9DB",
"O. c #97BADB",
"+. c #98B8D8",
"@. c #99B9D9",
"#. c #99B9DA",
"$. c #98BADB",
"%. c #9BBBDB",
"&. c #9CBCDB",
"*. c #9ABCDC",
"=. c #9BBCDD",
"-. c #9EBEDD",
";. c #9FBEDD",
":. c #9DBDDE",
">. c #9DBEDE",
",. c #9FBFDF",
"<. c #A0BFDD",
"1. c #A5C0DB",
"2. c #A3C0DE",
"3. c #A6C1DC",
"4. c #A5C2DF",
"5. c #A8C2DB",
"6. c #ADC6DD",
"7. c #AEC7DF",
"8. c #A5C3E0",
"9. c #A8C4E0",
"0. c #A8C4E1",
"q. c #AAC6E2",
"w. c #ABC7E2",
"e. c #ADC8E3",
"r. c #AEC8E4",
"t. c #AEC9E4",
"y. c #B1C9E0",
"u. c #B0CAE4",
"i. c #B5CCE4",
"p. c #B9CFE4",
"a. c #B8CEE6",
"s. c #B9D0E6",
"d. c #BAD0E6",
"f. c #BFD2E5",
"g. c #BDD3E7",
"h. c #BFD4E9",
"j. c gray96",
"k. c #F6F6F6",
"l. c #FBFBFB",
"z. c gray99",
/* pixels */
"                                ",
"                                ",
"                                ",
"y y y y r w 0 8 6 4 3 2 1 < , > ",
"y u.u.r.e.w.0.s.a.<.<.$.$...` : ",
"y u.,.:.*.$.{ l.l.W W P Z V ( ; ",
"t r.:.*.$. .` 2.2.R G D V b / = ",
"e e.*.o.h.h.` ) I I y.7.k k R & ",
"q q.o.{ l.l.i.I G f.j.j.h g Z $ ",
"9 8.X.{ f.d.W G V V 7.3.g d C @ ",
"7 8.{ ( W L Z ] ] l h d g u V o ",
"5 2.) ) T G V k.j.d g d i u c X ",
"4 =.$.$.+.' ` 2.<.Z Z C C c b . ",
"2 1 < , > : - - * % $ @ X X . . ",
"                                ",
"                                "
};
