/* XPM */
static char *fo[] = {
/* columns rows colors chars-per-pixel */
"16 16 105 2 ",
"   c None",
".  c #B30000",
"X  c #BF0000",
"o  c #D90000",
"O  c #DB0000",
"+  c #DB311A",
"@  c #DD361F",
"#  c #DE3B25",
"$  c #E0402B",
"%  c #E24530",
"&  c #E34934",
"*  c #E34A36",
"=  c #E04F3B",
"-  c #E54E3A",
";  c #E54F3B",
":  c #E65440",
">  c #E75946",
",  c #E85D4B",
"<  c #E95E4B",
"1  c #E9624F",
"2  c #E66150",
"3  c #E96351",
"4  c #EA6553",
"5  c #EB6754",
"6  c #EE8173",
"7  c #EF8274",
"8  c #0000B1",
"9  c #0000B5",
"0  c #0000BD",
"q  c #0000C3",
"w  c #0003D7",
"e  c #0007D9",
"r  c #000FDB",
"t  c #0011DB",
"y  c #144CDA",
"u  c #1950DB",
"i  c #1F55DD",
"p  c #2055DD",
"a  c #2459DE",
"s  c #2559DE",
"d  c #3665DE",
"f  c #2A5EE0",
"g  c #2B5EE0",
"h  c #2E60E2",
"j  c #2F62E2",
"k  c #3063E2",
"l  c #3465E3",
"z  c #3566E3",
"x  c #3667E3",
"c  c #3F6DE1",
"v  c #3A69E4",
"b  c #3B6BE5",
"n  c #406EE5",
"m  c #4170E6",
"M  c #4572E7",
"N  c #4B76E5",
"B  c #4674E8",
"V  c #4977E8",
"C  c #4B77E9",
"Z  c #4F7AE9",
"A  c #547DE7",
"S  c #507BE9",
"D  c #517BE9",
"F  c #547EEA",
"G  c #547FEA",
"H  c #5882EC",
"J  c #5982EC",
"K  c #6F93ED",
"L  c #7094EE",
"P  c #7698EF",
"I  c #7799F0",
"U  c #CDCDCD",
"Y  c #D1CFCF",
"T  c gray82",
"R  c LightGray",
"E  c #D5D5D5",
"W  c #D7D7D7",
"Q  c gray85",
"!  c gray86",
"~  c #DDDDDD",
"^  c #E1E1E1",
"/  c gray89",
"(  c gray90",
")  c #E7E7E7",
"_  c #E9E9E9",
"`  c gray92",
"'  c gray93",
"]  c #EFEFEF",
"[  c #F1F1F1",
"{  c gray95",
"}  c #F2F2F3",
"|  c #F3F3F3",
" . c #F4F4F4",
".. c gray96",
"X. c #F6F6F6",
"o. c gray97",
"O. c #F8F8F8",
"+. c #F9F9F9",
"@. c #FAFAFA",
"#. c #FBFBFB",
"$. c #F9FEFE",
"%. c gray99",
"&. c #FDFDFD",
"*. c #FEFEFE",
"=. c white",
/* pixels */
"                                ",
"                                ",
"                                ",
"| | | | t O e ' ' ' ` _ ) ( / ^ ",
"| =.=.=.P 6 L =.%.%.@.+.#.O.O.~ ",
"| =.=.=.H 4 D $.%.+.+.+.X.X.X.! ",
"| =.=.$.F 4 N #.+.+.+.+.O.X.X.! ",
"r P H F Z < B m b x l s a a d 9 ",
"o 6 4 1 1 > ; - & $ $ # @ + = . ",
"w K S M M : b l j j a i u y d 9 ",
"] %.%.%.c - l o.o.X. .| |  .| Y ",
"' %.%.%.x * h o.X. .| | ] ] | U ",
"` %.%.o.Z 2 V o.X.X.X.| | | | U ",
"_ ) ( / q o 0 Q E E T T Y U U U ",
"                                ",
"                                "
};
