/* XPM */
static char *fr[] = {
/* columns rows colors chars-per-pixel */
"16 16 130 2 ",
"   c None",
".  c #C50000",
"X  c #C70000",
"o  c #CB0000",
"O  c #CD0000",
"+  c #D30000",
"@  c #D50000",
"#  c #DB0000",
"$  c #DD0000",
"%  c #E10000",
"&  c #E50000",
"*  c #E70000",
"=  c #EB0000",
"-  c #EF0700",
";  c #F11300",
":  c #E64D3E",
">  c #E85243",
",  c #E95648",
"<  c #EA5748",
"1  c #EA574A",
"2  c #EB5D4F",
"3  c #EC5E50",
"4  c #E86355",
"5  c #EE6355",
"6  c #EE6456",
"7  c #EE6457",
"8  c #E96659",
"9  c #E9665A",
"0  c #EA695D",
"q  c #EA6A5D",
"w  c #EF695C",
"e  c #F06A5C",
"r  c #F06C5D",
"t  c #EC6D61",
"y  c #EC6E62",
"u  c #ED7468",
"i  c #EF786C",
"p  c #F17063",
"a  c #F17064",
"s  c #F27164",
"d  c #F3776A",
"f  c #F3776B",
"g  c #F17E72",
"h  c #F57D72",
"j  c #F28478",
"k  c #F4887E",
"l  c #1747A5",
"z  c #234FAB",
"x  c #2D57AF",
"c  c #355FB5",
"v  c #3F67B9",
"b  c #4971BD",
"n  c #5377C3",
"m  c #5B7FC7",
"M  c #6385CB",
"N  c #6989CD",
"B  c #6F8FD1",
"V  c #7191D1",
"C  c #7393D3",
"Z  c #7395D3",
"A  c #9F9F9F",
"S  c #A7A7A7",
"D  c gray68",
"F  c #B3B0B0",
"G  c gray72",
"H  c gray",
"J  c #F58D83",
"K  c #F79389",
"L  c #F8978E",
"P  c #97ACD8",
"I  c #9CB0DA",
"U  c #A0B4DD",
"Y  c #A0B5DD",
"T  c #A1B5DD",
"R  c #A3B5DC",
"E  c #A7B9DD",
"W  c #A5B8DF",
"Q  c #A5B9DF",
"!  c #A6B9E0",
"~  c #A9BCE1",
"^  c #A9BDE1",
"/  c #AABDE0",
"(  c #AABDE1",
")  c #AFBFE2",
"_  c #AEBFE3",
"`  c #AEBFE4",
"'  c #AEC0E4",
"]  c #B1C2E5",
"[  c #B1C3E5",
"{  c #B3C3E4",
"}  c #B2C3E5",
"|  c #B4C5E7",
" . c #B7C7E6",
".. c #B7C8E8",
"X. c #BAC9E8",
"o. c #BECCE9",
"O. c #CECECE",
"+. c gray81",
"@. c #D2D2D2",
"#. c #D5D5D5",
"$. c gainsboro",
"%. c #DFDFDF",
"&. c #C0CEEA",
"*. c #C1CFEB",
"=. c #C3D0EC",
"-. c #C3D1EC",
";. c #C4D2ED",
":. c #C4D3ED",
">. c #E2E2E2",
",. c #E4E4E4",
"<. c #E5E5E5",
"1. c #E6E6E6",
"2. c #E7E7E7",
"3. c gray91",
"4. c #E9E9E9",
"5. c #E9E9EA",
"6. c #EAEAEA",
"7. c gray92",
"8. c #ECEBEB",
"9. c #ECECEC",
"0. c #EDEDED",
"q. c #EEEEEE",
"w. c #EFEFEF",
"e. c gray94",
"r. c #F1F1F1",
"t. c #F3F3F3",
"y. c #F4F4F4",
"u. c #F6F6F6",
"i. c gray97",
"p. c #F8F8F8",
/* pixels */
"                                ",
"                                ",
"                                ",
"Z Z Z Z C $.$.#.@.+.+.; - = & & ",
"Z :.:.:.*.p.u.u.u.u.t.L K J k % ",
"Z :.| | } q.q.7.7.7.<.h f s j $ ",
"C *.| } ` w.8.8.7.<.<.d s r g $ ",
"B &.} ` ( q.q.7.7.7.<.p w 7 i @ ",
"N o.' ^ ! q.q.q.7.7.7.w 7 2 u @ ",
"M X.^ ! R t.q.7.q.<.<.5 2 1 y O ",
"M [ ! R I q.q.7.<.<.<.2 < > q o ",
"n ] I I P 9.7.<.<.<.>.1 > : 9 X ",
"b ) E E R q.7.7.7.<.<.t q 9 4 X ",
"v c x z l H G F D S A O o X . . ",
"                                ",
"                                "
};
