/* XPM */
static char *ga[] = {
/* columns rows colors chars-per-pixel */
"16 16 157 2 ",
"   c None",
".  c #004100",
"X  c #004700",
"o  c #004900",
"O  c #005100",
"+  c #005500",
"@  c #005900",
"#  c #005F00",
"$  c #006500",
"%  c #006B00",
"&  c #006F00",
"*  c #007300",
"=  c #007700",
"-  c #007B00",
";  c #007D00",
":  c #00006D",
">  c #00007D",
",  c #00007F",
"<  c #008100",
"1  c #008300",
"2  c #008900",
"3  c #2CA52C",
"4  c #32A826",
"5  c #37AA2B",
"6  c #31A831",
"7  c #37AA37",
"8  c #3DAD31",
"9  c #3DAD3D",
"0  c #42B036",
"q  c #47B23C",
"w  c #42B042",
"e  c #47B347",
"r  c #4CB442",
"t  c #4FB344",
"y  c #49B149",
"u  c #4CB54C",
"i  c #4EB44E",
"p  c #51B747",
"a  c #56B94B",
"s  c #51B751",
"d  c #53B753",
"f  c #54B954",
"g  c #5BBC51",
"h  c #58B957",
"j  c #5EBE54",
"k  c #59BB59",
"l  c #5CBB5C",
"z  c #5CBD5C",
"x  c #5FBE5F",
"c  c #62BF59",
"v  c #61BE60",
"b  c #65C15C",
"n  c #65C065",
"m  c #69C269",
"M  c #6DC36D",
"N  c #70C571",
"B  c #74C774",
"V  c #77C877",
"C  c #79C979",
"Z  c #7BC97A",
"A  c #7BCA7B",
"S  c #E3E300",
"D  c #E5E500",
"F  c #E7E700",
"G  c #FDFD00",
"H  c #F2F214",
"J  c #F3F319",
"K  c #F3F31A",
"L  c #F4F41F",
"P  c #F4F420",
"I  c #F5F524",
"U  c #F5F525",
"Y  c #F6F62A",
"T  c #F6F62B",
"R  c #F7F72F",
"E  c #F7F730",
"W  c #F4F436",
"Q  c #F8F835",
"!  c #F8F836",
"~  c #F4F53B",
"^  c #F5F53F",
"/  c #F9F93A",
"(  c #F9F93B",
")  c #F9F93C",
"_  c #80CD79",
"`  c #FAFA40",
"'  c #FAFA41",
"]  c #FBFB45",
"[  c #FBFB46",
"{  c #FBFC49",
"}  c #FCFC4B",
"|  c #FCFC4F",
" . c #FDFC50",
".. c #FDFD53",
"X. c #FDFD54",
"o. c #FEFE58",
"O. c #FDFD6F",
"+. c #FEFE73",
"@. c #FEFE76",
"#. c #000083",
"$. c #000087",
"%. c #00008B",
"&. c #00008D",
"*. c #000091",
"=. c #000095",
"-. c #000099",
";. c #00009D",
":. c #0001A1",
">. c #0007A3",
",. c #000DA7",
"<. c #0013A9",
"1. c #001DAF",
"2. c #003FA7",
"3. c #0023B3",
"4. c #0029B7",
"5. c #4973B8",
"6. c #4D76BA",
"7. c #5179BB",
"8. c #557DBD",
"9. c #3666C4",
"0. c #3A69C6",
"q. c #3E6BC7",
"w. c #436FC9",
"e. c #4773CB",
"r. c #4C76CD",
"t. c #537BCA",
"y. c #557CCA",
"u. c #517ACF",
"i. c #557CCC",
"p. c #587FCC",
"a. c #547ED1",
"s. c #5A80C0",
"d. c #5E83C2",
"f. c #5B82CD",
"g. c #5F84CF",
"h. c #5982D3",
"j. c #5E85D4",
"k. c #6487C2",
"l. c #6286C4",
"z. c #668AC6",
"x. c #6A8EC8",
"c. c #6F91CA",
"v. c #7394CD",
"b. c #7798CE",
"n. c #6286D0",
"m. c #658AD2",
"M. c #6289D6",
"N. c #698DD3",
"B. c #678DD8",
"V. c #6D90D5",
"C. c #7193D7",
"Z. c #7596D8",
"A. c #7999DA",
"S. c #7D9DDB",
"D. c #809FDD",
"F. c #83A2DF",
"G. c #90ABD8",
/* pixels */
"                                ",
"                                ",
"                                ",
"1 1 1 1 1 ; - = * & % $ # @ + O ",
"1 A A A B B N M M v v l h s i o ",
"1 A v z k f s i y w 9 7 6 3 y . ",
"2 _ c c j g a p r q 0 8 5 4 p X ",
"G @.o.X. .} [ ' ) Q E T U P ^ D ",
"G +...| } [ ' ( Q E T U L J ~ D ",
"G O.| { [ ) ( Q R T I L J H W S ",
"2.G.b.v.v.x.z.l.d.s.8.7.6.5.k.: ",
"4.F.B.M.j.h.a.u.r.e.e.0.0.9.i.$.",
"3.D.S.A.Z.C.V.N.m.n.g.f.p.y.t., ",
"1.<.,.>.:.;.-.=.*.&.%.$.#.#., , ",
"                                ",
"                                "
};
