/* XPM */
static char *gb[] = {
/* columns rows colors chars-per-pixel */
"16 16 139 2 ",
"   c None",
".  c #001167",
"X  c #00136B",
"o  c #00136D",
"O  c #001570",
"+  c #001773",
"@  c #14317E",
"#  c #45356E",
"$  c #841734",
"%  c #851B38",
"&  c #851F3A",
"*  c #F52B2B",
"=  c #F52E2E",
"-  c #FA292B",
";  c #FC2B2D",
":  c #FB2F31",
">  c #F73434",
",  c #FE3234",
"<  c #FC3638",
"1  c #F93939",
"2  c #FA3F3F",
"3  c #FF3D3D",
"4  c #944463",
"5  c #9C516F",
"6  c #AC617D",
"7  c #AC607E",
"8  c #E54241",
"9  c #FE4545",
"0  c #FF4C4C",
"q  c #FF4E4E",
"w  c #FB5243",
"e  c #F95346",
"r  c #FD5448",
"t  c #FF5454",
"y  c #FF5555",
"u  c #FF5758",
"i  c #FF5959",
"p  c #FF5C5C",
"a  c #FF5F5F",
"s  c #EB604D",
"d  c #E8605C",
"f  c #F9635F",
"g  c #FF6061",
"h  c #FF6464",
"j  c #FF6569",
"k  c #FF6D69",
"l  c #F78778",
"z  c #F3817E",
"x  c #FC827F",
"c  c #FE8A7C",
"v  c #181B9A",
"b  c #082590",
"n  c #0C2893",
"m  c #112D91",
"M  c #112C9C",
"N  c #193498",
"B  c #3A3FA4",
"V  c #3756AE",
"C  c #3D5CB0",
"Z  c #3F5EB2",
"A  c #4149A7",
"S  c #555EAB",
"D  c #4369A2",
"F  c #5460AF",
"G  c #496BB6",
"H  c #4866B8",
"J  c #5766B6",
"K  c #5A66B8",
"L  c #6B72A4",
"P  c #5C74C6",
"I  c #AD6381",
"U  c #5A81B9",
"Y  c #6181C0",
"T  c #6483C3",
"R  c #6284C1",
"E  c #6483C6",
"W  c #6E80C3",
"Q  c #7180C1",
"!  c #7282C4",
"~  c #7B97C6",
"^  c #7A9EC0",
"/  c #7B9DC5",
"(  c #748ED2",
")  c #7E91D5",
"_  c #9299BE",
"`  c #BF99B5",
"'  c #FF8E85",
"]  c #F08A8A",
"[  c #F78B8B",
"{  c #FF9388",
"}  c #FF948C",
"|  c #F49A9D",
" . c #FFA5A7",
".. c #F4A2AC",
"X. c #FFB1AA",
"o. c #FFC1BD",
"O. c #8295CE",
"+. c #8C9CCF",
"@. c #8696D5",
"#. c #8D9DD0",
"$. c #92A1D3",
"%. c #9EAAD2",
"&. c #9FAFDC",
"*. c #8DBCD7",
"=. c #90B2D0",
"-. c #93B3D3",
";. c #A4A8CA",
":. c #A3AFD5",
">. c #A2B0DB",
",. c #A1B0DD",
"<. c #E1BEDF",
"1. c #B7C3DA",
"2. c #BCC9EE",
"3. c #B8D5EC",
"4. c #C5C0DB",
"5. c #C9C8E3",
"6. c #C9D5E8",
"7. c #CBD4E9",
"8. c #CCD6E9",
"9. c #CFD6E8",
"0. c #D4D5EF",
"q. c #D0DCED",
"w. c #D9DDED",
"e. c #DBE1F4",
"r. c #FFE8E8",
"t. c #FFEDEC",
"y. c #FDFCF8",
"u. c #FEFDF9",
"i. c #FBFCFC",
"p. c #F9FFFF",
"a. c #FCFDFC",
"s. c #FDFDFD",
"d. c #FEFDFD",
"f. c #FEFEFD",
"g. c #FFFFFD",
"h. c #FFFEFE",
"j. c #FFFFFE",
"k. c #FEFEFF",
"l. c white",
/* pixels */
"                                ",
"                                ",
"                                ",
"_ 3.~ E T Y w.I 7 w.G H C U 5 / ",
";.X.k.e.>.&.k.} ' k.$.#.5.c u.=.",
"R 2. .o.k.@.k.j g k.( ..[ k.%.N ",
"R ,.) <.x k.k.p i k.k r.q.A ! m ",
"w.k.k.k.k.k.k.y q k.k.k.k.k.k.8.",
"7 { g f i t q q 9 2 1 > = * e & ",
"w.k.k.k.k.k.k.3 < k.i.p.i.i.p.6.",
"H +.K 0.t.f k., , k.u.1 ` v F X ",
"V %.k.z ] P k.; - k.V y.| d O.. ",
"=.k.l 4.Q Q k.r w u.K F >.u.s L ",
"^ 4 D M n b 8.% $ 9.O + O @ *.# ",
"                                ",
"                                "
};
