/* XPM */
static char *gd[] = {
/* columns rows colors chars-per-pixel */
"16 16 157 2 ",
"   c None",
".  c #D70000",
"X  c #DD0000",
"o  c #DF0000",
"O  c #E30000",
"+  c #E50000",
"@  c #E70000",
"#  c #E90000",
"$  c #EB0000",
"%  c #ED0000",
"&  c #EF0000",
"*  c #F10000",
"=  c #F30000",
"-  c #F50000",
";  c #F70000",
":  c #F90000",
">  c #FB0000",
",  c #FD0000",
"<  c red",
"1  c #E32300",
"2  c #E13B00",
"3  c #E73D00",
"4  c #ED3F00",
"5  c #E94100",
"6  c #ED5F00",
"7  c #F75D00",
"8  c #F56F00",
"9  c #FB7300",
"0  c #FD7300",
"q  c #FD7700",
"w  c #F55E37",
"e  c #C37036",
"r  c #F6643C",
"t  c #CA7B46",
"y  c #F86B43",
"u  c #F87048",
"i  c #109C10",
"p  c #179914",
"a  c #199B19",
"s  c #1F9C1F",
"d  c #1F9F1F",
"f  c #14A014",
"g  c #1AA31A",
"h  c #36B00B",
"j  c #20A620",
"k  c #25A125",
"l  c #25A225",
"z  c #26A626",
"x  c #2BA32B",
"c  c #2AA42B",
"v  c #38A524",
"b  c #31A62B",
"n  c #70AE19",
"m  c #419C2F",
"M  c #479B32",
"N  c #4B9E36",
"B  c #608C2C",
"V  c #5ABF2C",
"C  c #49AC30",
"Z  c #4FA13B",
"A  c #53A43F",
"S  c #58A644",
"D  c #5AAC49",
"F  c #45B145",
"G  c #45B245",
"H  c #46B246",
"J  c #4BB44B",
"K  c #49B949",
"L  c #50B240",
"P  c #5FB94B",
"I  c #50B550",
"U  c #54BA54",
"Y  c #5BBC59",
"T  c #7DA04E",
"R  c #67B249",
"E  c #76B966",
"W  c #7BB96A",
"Q  c #7FBD6F",
"!  c #5CC05C",
"~  c #64C844",
"^  c #9BBD2A",
"/  c #89BA31",
"(  c #87BD3F",
")  c #FD8900",
"_  c #B3C40E",
"`  c #A9C336",
"'  c #A0C43A",
"]  c #D7C51F",
"[  c #F2D113",
"{  c #F3D419",
"}  c #F4D41E",
"|  c #DDCE3A",
" . c #C9D231",
".. c #C3D43F",
"X. c #F5CE24",
"o. c #F0CC2F",
"O. c #F5D423",
"+. c #F6D729",
"@. c #F6D42A",
"#. c #F7D62F",
"$. c #F7D92E",
"%. c #E5CE36",
"&. c #F4C736",
"*. c #F2CD32",
"=. c #F5C93B",
"-. c #F4CF39",
";. c #F3D035",
":. c #F8D334",
">. c #F8DC34",
",. c #F8DC37",
"<. c #F5D13D",
"1. c #F9D63C",
"2. c #F9DC3A",
"3. c #F9DF3D",
"4. c #8BBB4F",
"5. c #8AAC62",
"6. c #84BF73",
"7. c #86BF76",
"8. c #9FBA7B",
"9. c #DF8955",
"0. c #9CC854",
"q. c #80D35F",
"w. c #AFCA46",
"e. c #88C279",
"r. c #89C47A",
"t. c #D5DF5C",
"y. c #D8DD58",
"u. c #F6D342",
"i. c #F7D546",
"p. c #FADB42",
"a. c #FBDC47",
"s. c #F7D64B",
"d. c #FCDB4B",
"f. c #F7C853",
"g. c #F7CD5D",
"h. c #E9D751",
"j. c #F3DD53",
"k. c #F8D850",
"l. c #F9DB55",
"z. c #F9DA57",
"x. c #F9DA58",
"c. c #FADD5C",
"v. c #FAE042",
"b. c #FBE047",
"n. c #FCE14C",
"m. c #FDE351",
"M. c #FDE554",
"N. c #FEE559",
"B. c #FBDD60",
"V. c #FCDD65",
"C. c #FCE069",
"Z. c #FDE26D",
"A. c #FDE271",
"S. c #FEE274",
"D. c #FEE577",
"F. c #FEE479",
"G. c #FEE47B",
/* pixels */
"                                ",
"                                ",
"                                ",
"< < < < ) 9 < q 9 > 7 8 = = % % ",
"< 8.G.G.G.G.A.Z.C.V.C.x.x.f.T # ",
"< r.~ t.N.N.M.n.b.3.3.2. .V D @ ",
"< e.! Y 0.h.d.a.p.1.%./ b z S @ ",
"> 7.y.U U P w.u y ` C c l g S @ ",
"> Q m.9.J H t =.&.e x l d g A @ ",
"< Q 4.R H L ' r r ^ v s a i N O ",
"> W K G ( | :.#.@.X.] n p i M o ",
"- E ~ ..1.>.$.+.O.{ { [ _ h m o ",
"- 5.g.x.l.k.s.i.u.<.-.;.*.o.B . ",
"- = = % 6 4 # 5 3 @ 1 2 o X X X ",
"                                ",
"                                "
};
