/* XPM */
static char *ge[] = {
/* columns rows colors chars-per-pixel */
"16 16 127 2 ",
"   c None",
".  c #CD0000",
"X  c #D30300",
"o  c #D50000",
"O  c #D70000",
"+  c #D91D17",
"@  c #ED0000",
"#  c #ED0300",
"$  c #E82E28",
"%  c #E9332D",
"&  c #EB3832",
"*  c #EC3D36",
"=  c #ED453F",
"-  c #D35146",
";  c #EB4C46",
":  c #EC4D48",
">  c #ED524D",
",  c #ED544F",
"<  c #F1534E",
"1  c #EE5650",
"2  c #EE5954",
"3  c #EF5A54",
"4  c #EF5B56",
"5  c #F25551",
"6  c #F15B55",
"7  c #F25A56",
"8  c #F05D58",
"9  c #F35F5A",
"0  c #DF675E",
"q  c #F1605B",
"w  c #F4635E",
"e  c #ED6560",
"r  c #EE6B67",
"t  c #F26560",
"y  c #F26661",
"u  c #F36B66",
"i  c #F56D67",
"p  c #F36D68",
"a  c #E2756D",
"s  c #F4716D",
"d  c #E47D74",
"f  c #F77F7B",
"g  c #EA807A",
"h  c #EB807D",
"j  c gray75",
"k  c #EF8380",
"l  c #EE8782",
"z  c #E68983",
"x  c #E98A82",
"c  c #EE8884",
"v  c #EF8986",
"b  c #EF8E8D",
"n  c #F68783",
"m  c #F78B88",
"M  c #E7938B",
"N  c #ED918F",
"B  c #F3918D",
"V  c #F3928E",
"C  c #F19592",
"Z  c #F19894",
"A  c #F19994",
"S  c #F29895",
"D  c #F49A97",
"F  c #F19E9B",
"G  c #F59D9A",
"H  c #F69E9B",
"J  c #F7A3A0",
"K  c #F0A5A0",
"L  c #F0A7A2",
"P  c #F7A4A1",
"I  c #F7A7A4",
"U  c #F6A9A7",
"Y  c #F8AAA7",
"T  c #F3ADA8",
"R  c #F9AEAC",
"E  c #F9B0AD",
"W  c #F9B3B1",
"Q  c #F3B8B5",
"!  c #F3BBB7",
"~  c #F1BFBB",
"^  c #FABDBA",
"/  c #F8BEBA",
"(  c #FBBEBC",
")  c #F9C1BE",
"_  c #C1C1C1",
"`  c #C3C3C3",
"'  c #C5C5C5",
"]  c gray79",
"[  c #CDCDCD",
"{  c #CFCFD1",
"}  c gray82",
"|  c LightGray",
" . c #D7D7D7",
".. c #D9D7D9",
"X. c #D9D9D9",
"o. c gray86",
"O. c #DFDFDF",
"+. c #EFC9C8",
"@. c #F9CECA",
"#. c #F2D8D8",
"$. c #F7DEDD",
"%. c #F8DDDC",
"&. c #FADFDE",
"*. c #E1E1E1",
"=. c gray89",
"-. c gray90",
";. c #E7E7E7",
":. c #E9E9E9",
">. c gray92",
",. c #FAEAEA",
"<. c #FDEDEC",
"1. c #FEEEED",
"2. c gray95",
"3. c #F3F3F3",
"4. c #F4F4F4",
"5. c gray96",
"6. c #F6F6F6",
"7. c #F7F7F7",
"8. c #F8F8F8",
"9. c #F9F9F9",
"0. c gray98",
"q. c #FBFBFB",
"w. c gray99",
"e. c #FDFDFD",
"r. c #FDFDFE",
"t. c #FEFEFE",
"y. c white",
/* pixels */
"                                ",
"                                ",
"                                ",
">.>.>.>.;.>.;.# @ =.*.O.o.X.X. .",
">.y.<.( <.y.e.m n q.q.,.U $.7.| ",
">.y.) x / y.y.s u q.q.Q 0 K 7.{ ",
">.y.y.@.q.y.q.p w 8.q.6.~ 6.6.[ ",
"i ^ R R U I G w q V Z C Z b F + ",
"@ f w 8 7 5 < 8 2 = = % % $ ; . ",
"7 W P P G D V 2 1 k c c c h N X ",
"-.y.q.! q.q.8.2 > 3.3.3.M 2.4.` ",
"*.q.T a L 6.6., : 3.3.z - d 2._ ",
"*.q.&.Z %.q.6.r e 6.6.#.g +.2.j ",
"O.o.X.X. .| | o o ] ' ' ` _ j j ",
"                                ",
"                                "
};
