/* XPM */
static char *gh[] = {
/* columns rows colors chars-per-pixel */
"16 16 148 2 ",
"   c None",
".  c #001F00",
"X  c #002100",
"o  c #002500",
"O  c #002700",
"+  c #002900",
"@  c #002D00",
"#  c #003300",
"$  c #003900",
"%  c #003D00",
"&  c #004100",
"*  c #004700",
"=  c #004D00",
"-  c #005300",
";  c #005900",
":  c #005D00",
">  c #006300",
",  c #006900",
"<  c #006F00",
"1  c #007300",
"2  c #434336",
"3  c #4A4B3B",
"4  c #605E2F",
"5  c #686635",
"6  c #E70000",
"7  c #E90000",
"8  c #EB0000",
"9  c #ED0000",
"0  c #EF0000",
"q  c #F10000",
"w  c #F30000",
"e  c #F50000",
"r  c #F70000",
"t  c #F90000",
"y  c #FB0000",
"u  c #FD0000",
"i  c red",
"p  c #F52626",
"a  c #F62B2B",
"s  c #F62C2C",
"d  c #F73131",
"f  c #F83736",
"g  c #F83737",
"h  c #F93C3C",
"j  c #F93C3D",
"k  c #F64444",
"l  c #FA4142",
"z  c #FA4242",
"x  c #FB4747",
"c  c #F74949",
"v  c #F74E4E",
"b  c #FC4B4B",
"n  c #FC4C4C",
"m  c #F85353",
"M  c #FD5151",
"N  c #F95757",
"B  c #FD5454",
"V  c #FE5959",
"C  c #FA5C5C",
"Z  c #FE5C5C",
"A  c #FE5F5F",
"S  c #FB6060",
"D  c #FC6565",
"F  c #FC6969",
"G  c #FD6D6D",
"H  c #FD7071",
"J  c #FE7474",
"K  c #FE7777",
"L  c #FE7979",
"P  c #FF7B7A",
"I  c #FF7B7B",
"U  c #0B950B",
"Y  c #0F970E",
"T  c #109710",
"R  c #139913",
"E  c #149914",
"W  c #189C19",
"Q  c #199C19",
"!  c #1E9F1E",
"~  c #1F9F1F",
"^  c #23A123",
"/  c #24A224",
"(  c #29A429",
")  c #2AA42A",
"_  c #2CA22C",
"`  c #2FA42F",
"'  c #2EA62E",
"]  c #2FA72F",
"[  c #32A532",
"{  c #33A632",
"}  c #34A934",
"|  c #35A835",
" . c #34AA34",
".. c #39A939",
"X. c #3AAC3A",
"o. c #3DAC3D",
"O. c #3FAF3F",
"+. c #40AF3F",
"@. c #42AE42",
"#. c #44B144",
"$. c #45B245",
"%. c #46B046",
"&. c #4BB24B",
"*. c #49B449",
"=. c #50B450",
"-. c #54B755",
";. c #58B958",
":. c #5DBC5D",
">. c #61BE62",
",. c #66C066",
"<. c #6AC36A",
"1. c #939430",
"2. c #92953C",
"3. c #E3E300",
"4. c #E5E500",
"5. c #E7E700",
"6. c #FDFD00",
"7. c #F2F214",
"8. c #F3F319",
"9. c #F3F31A",
"0. c #F4F41F",
"q. c #F2EF2A",
"w. c #F4F420",
"e. c #F5F524",
"r. c #F5F525",
"t. c #F6F62B",
"y. c #ECEF36",
"u. c #F7F730",
"i. c #F4F436",
"p. c #F4F53B",
"a. c #F5F53F",
"s. c #F9F43A",
"d. c #989A41",
"f. c #A1A140",
"g. c #F0F346",
"h. c #FAFA40",
"j. c #FBFB45",
"k. c #FBFB46",
"l. c #FBFC49",
"z. c #FCFC4B",
"x. c #FCFC4F",
"c. c #FDFC50",
"v. c #FDFD53",
"b. c #FDFD54",
"n. c #FEFE58",
"m. c #FDFD6F",
"M. c #FEFE73",
"N. c #FEFE76",
/* pixels */
"                                ",
"                                ",
"                                ",
"i i i i y i i i y y r r w w 9 9 ",
"i I I K K J H G F D S C N m v 8 ",
"i I A Z Z B M n x z j f d s c 8 ",
"i I Z Z M M b x z j f d a p k 6 ",
"6.N.b.b.c.z.g.d.2.y.u.t.r.w.a.5.",
"6.M.v.z.z.k.f.3 2 1.t.r.0.8.p.5.",
"6.M.z.z.k.h.s.5 4 q.r.w.8.7.i.3.",
"1 <.*.%.O.X. .] ) / ! W E T [ o ",
"1 ,.#.O.X. .` ( ^ ! W R Y U ` X ",
", >.:.;.-.=.&.%.@.o...| [ ` _ . ",
"> : ; - = * & % $ # @ + o X . . ",
"                                ",
"                                "
};
