/* XPM */
static char *gi[] = {
/* columns rows colors chars-per-pixel */
"16 16 114 2 ",
"   c None",
".  c #B93D35",
"X  c #D50000",
"o  c #DD0000",
"O  c #DF0000",
"+  c #E10000",
"@  c #E30000",
"#  c #E50000",
"$  c #E70000",
"%  c #E90000",
"&  c #ED0000",
"*  c #EF0000",
"=  c #F10000",
"-  c #F30000",
";  c #F50000",
":  c #F70000",
">  c #F91505",
",  c #DE3D31",
"<  c #F2382C",
"1  c #F23B2F",
"2  c #F23F32",
"3  c #E1483C",
"4  c #F34135",
"5  c #F04337",
"6  c #F44639",
"7  c #F2483B",
"8  c #F54A3D",
"9  c #AD6965",
"0  c #F24D41",
"q  c #F14E43",
"w  c #E8554A",
"e  c #F45042",
"r  c #F15245",
"t  c #F35A41",
"y  c #F15448",
"u  c #F2584C",
"i  c #F4584D",
"p  c #EC5E54",
"a  c #F05B51",
"s  c #F35C51",
"d  c #F55E53",
"f  c #F85B50",
"g  c #F95F55",
"h  c #F76055",
"j  c #F96358",
"k  c #FA685D",
"l  c #F26A60",
"z  c #F86B61",
"x  c #FB6B62",
"c  c #F86D63",
"v  c #F7776E",
"b  c #F9746A",
"n  c #FA786E",
"m  c #FA7C72",
"M  c #E1A13F",
"N  c #E8A73C",
"B  c #EEAB58",
"V  c #EBB055",
"C  c #FB847C",
"Z  c #FC948D",
"A  c #C9C7C7",
"S  c #CBCBCB",
"D  c #CDCDCD",
"F  c gray81",
"G  c gray82",
"H  c #D5D5D5",
"J  c #D7D7D7",
"K  c gray85",
"L  c gray86",
"P  c #DFDFDF",
"I  c #E3CAC8",
"U  c #EDCCCA",
"Y  c #EBD3D0",
"T  c #EDD4D3",
"R  c #F1DEDD",
"E  c #F7E0DE",
"W  c #E1E1E1",
"Q  c gray89",
"!  c gray90",
"~  c #E7E7E7",
"^  c #EFE2E1",
"/  c #E9E7E7",
"(  c #EEE5E4",
")  c #E9E9E9",
"_  c gray92",
"`  c gray93",
"'  c #EFEFEF",
"]  c #F7E5E4",
"[  c #F9E3E2",
"{  c #F2F1F1",
"}  c gray95",
"|  c #F3F2F2",
" . c #F3F3F3",
".. c #F7F2F1",
"X. c #F6F3F3",
"o. c #F4F4F4",
"O. c #F4F5F5",
"+. c gray96",
"@. c #F6F6F6",
"#. c #F7F7F7",
"$. c #FAF3F3",
"%. c #F8F8F8",
"&. c #F9F9F9",
"*. c #FAFAFA",
"=. c #FBFAFA",
"-. c #FBFBFB",
";. c #FBFCFB",
":. c gray99",
">. c #FDFCFC",
",. c #FDFCFD",
"<. c #FDFDFD",
"1. c #FDFDFE",
"2. c #FEFEFE",
"3. c white",
/* pixels */
"                                ",
"                                ",
"                                ",
"' ' ' ' ' ' _ ) ) ~ ~ W W W K K ",
"' 3.3.3.3.-.>.>.-.-.-.-.-.@.-.H ",
"' 3.3.-.3.-.$.C ] -.-.@.@.@.@.H ",
"' 3.3.3.3.[ z p s R @.-.@.@.@.G ",
"' 3.-.3.-.T p 9 w Y @.@.@. .@.F ",
") 3.3.-.3.v 0 7 5 q @. . . . .F ",
"_ :.-.-.-.U 3 . , I @. . . . .S ",
"/ :.-.-.-...^ M R ]  . . . . .A ",
"> Z m v b k h N t i s u r r l O ",
": x k j g f B V e 8 6 4 2 1 1 o ",
": = = & & & % X $ $ + + O o o o ",
"                                ",
"                                "
};
