/* XPM */
static char *gl[] = {
/* columns rows colors chars-per-pixel */
"16 16 125 2 ",
"   c None",
".  c #DD0000",
"X  c #DF0000",
"o  c #E10000",
"O  c #E30000",
"+  c #E50000",
"@  c #E70000",
"#  c #E90000",
"$  c #EB0000",
"%  c #ED0000",
"&  c #EF0000",
"*  c #F10000",
"=  c #F30000",
"-  c #F50000",
";  c #F70000",
":  c #F90000",
">  c #FB0000",
",  c #FD0000",
"<  c #F10B0B",
"1  c #F10F0E",
"2  c #E51111",
"3  c #F21010",
"4  c #F21313",
"5  c #F21414",
"6  c #F31919",
"7  c #F41E1E",
"8  c #F41F1F",
"9  c #F52424",
"0  c #F22C2C",
"q  c #F22F2F",
"w  c #F23232",
"e  c #F33232",
"r  c #F33535",
"t  c #F43636",
"y  c #F43939",
"u  c #F53D3D",
"i  c #F93B3C",
"p  c #F64242",
"a  c #FA4141",
"s  c #FA4444",
"d  c #FB4646",
"f  c #FA4647",
"g  c #FB4747",
"h  c #FB4B4B",
"j  c #FC4B4B",
"k  c #FD4F50",
"l  c #F75252",
"z  c #FA5151",
"x  c #FD5151",
"c  c #F95455",
"v  c #FD5454",
"b  c #FD5555",
"n  c #F55858",
"m  c #F95858",
"M  c #FA5D5D",
"N  c #FD5E5E",
"B  c #FB6162",
"V  c #FD6565",
"C  c #FC6666",
"Z  c #FC6767",
"A  c #F56E6E",
"S  c #F86A6A",
"D  c #FC6A6A",
"F  c #FC6D6D",
"G  c #FD6F6F",
"H  c #F77070",
"J  c #F87575",
"K  c #F38787",
"L  c #F48B8B",
"P  c #F58E8E",
"I  c #F69191",
"U  c #F79494",
"Y  c #FE9292",
"T  c #FE9393",
"R  c #F89797",
"E  c #F49898",
"W  c #F99A9A",
"Q  c #FA9D9D",
"!  c #FBA0A1",
"~  c #FCA3A3",
"^  c #FCA5A5",
"/  c #FDA9A9",
"(  c #F6B6B6",
")  c #FEB9B9",
"_  c #F9BEBE",
"`  c #D5D5D5",
"'  c #D7D7D7",
"]  c gray85",
"[  c #DDDDDD",
"{  c #DFDFDF",
"}  c #FBC0C0",
"|  c #FBC2C2",
" . c #F9CFCF",
".. c #F6DCDC",
"X. c #E1E1E1",
"o. c gray89",
"O. c gray90",
"+. c #E7E7E7",
"@. c #E9E9E9",
"#. c gray92",
"$. c gray93",
"%. c #EFEFEF",
"&. c #FEE3E3",
"*. c #FDE5E5",
"=. c #FEEDED",
"-. c #EFEFF1",
";. c #F1F1F1",
":. c #F6F2F2",
">. c #F4F4F4",
",. c gray96",
"<. c #F7F4F4",
"1. c #F6F6F6",
"2. c gray97",
"3. c #F8F1F1",
"4. c #FEF2F2",
"5. c #FDF7F7",
"6. c #F8F8F8",
"7. c #F9F9F9",
"8. c gray98",
"9. c #FBFBFB",
"0. c #FBFCFB",
"q. c gray99",
"w. c #FEFDFD",
"e. c #FEFEFE",
"r. c white",
/* pixels */
"                                ",
"                                ",
"                                ",
";.;.;.;.;.%.%.$.$.#.@.+.O.o.X.{ ",
";.r.r.r.r.=.*.5.q.9.9.8.8.6.2.[ ",
";.r.r.4.Y M b Z | 8.8.6.2.1.2.] ",
";.r.r.Y v v j d f  .2.2.1.1.1.' ",
";.r.&.z j j d a i J 2.1.>.>.1.` ",
"V ) / ^ ~ ! Q W R U I P L K E 2 ",
", G F 0.8.8.8.6.2.( 9 8 6 4 t O ",
": D h | 8.8.1.6.:.n 8 6 5 3 e X ",
": V a k _ :.1...A 7 6 4 3 < q X ",
"; B M m c S H l p u y r w q 0 . ",
"; * * % % % $ $ + + O O X X . . ",
"                                ",
"                                "
};
