/* XPM */
static char *gn[] = {
/* columns rows colors chars-per-pixel */
"16 16 145 2 ",
"   c None",
".  c #002100",
"X  c #002300",
"o  c #002700",
"O  c #002900",
"+  c #002B00",
"@  c #002D00",
"#  c #003100",
"$  c #003700",
"%  c #003D00",
"&  c #004300",
"*  c #004900",
"=  c #005100",
"-  c #005500",
";  c #005900",
":  c #005F00",
">  c #006500",
",  c #ED0000",
"<  c #EF0000",
"1  c #F10000",
"2  c #F30000",
"3  c #F50000",
"4  c #F70000",
"5  c #F90000",
"6  c #FB0000",
"7  c #FD0000",
"8  c red",
"9  c #F93A3A",
"0  c #FA3F3F",
"q  c #FA4444",
"w  c #FB4545",
"e  c #FB4949",
"r  c #FB4A49",
"t  c #FC4A4B",
"y  c #FC4F4F",
"u  c #FD4F50",
"i  c #FD5353",
"p  c #F95455",
"a  c #FD5454",
"s  c #F95858",
"d  c #FE5858",
"f  c #FE5959",
"g  c #FA5D5D",
"h  c #FE5C5C",
"j  c #FE5F5F",
"k  c #FB6162",
"l  c #FC6666",
"z  c #FC6A6A",
"x  c #FD6F6F",
"c  c #FE7273",
"v  c #FE7676",
"b  c #FE7777",
"n  c #FE7979",
"m  c #FF7B7A",
"M  c #FF7B7B",
"N  c #0B950B",
"B  c #0F970E",
"V  c #109710",
"C  c #139913",
"Z  c #149914",
"A  c #149A14",
"S  c #199C19",
"D  c #1A9C1A",
"F  c #1F9F1F",
"G  c #209F20",
"H  c #25A225",
"J  c #26A226",
"K  c #2BA52B",
"L  c #2CA22C",
"P  c #2CA62C",
"I  c #2FA42F",
"U  c #32A532",
"Y  c #33A632",
"T  c #31A831",
"R  c #31A931",
"E  c #35A835",
"W  c #36A836",
"Q  c #37AB37",
"!  c #3BAA3B",
"~  c #3FAD3F",
"^  c #44AF44",
"/  c #49B249",
"(  c #4EB44E",
")  c #53B753",
"_  c #58B957",
"`  c #5CBB5C",
"'  c #CBDB00",
"]  c #EDD500",
"[  c #E5E500",
"{  c #E7E700",
"}  c #E5EF00",
"|  c #E9E900",
" . c #EBEB00",
".. c #FDEB00",
"X. c #F9F900",
"o. c #FBFB00",
"O. c #FDFD00",
"+. c #E7EE19",
"@. c #E8EF1F",
"#. c #F4F41E",
"$. c #EAF024",
"%. c #EBF12B",
"&. c #F5F523",
"*. c #F5F524",
"=. c #F6F629",
"-. c #F6F62A",
";. c #F7F72E",
":. c #F7F72F",
">. c #F8EC34",
",. c #F9ED3A",
"<. c #ECF230",
"1. c #EEF436",
"2. c #EAF039",
"3. c #EFF53D",
"4. c #F7F730",
"5. c #F8F834",
"6. c #F8F835",
"7. c #F8F836",
"8. c #F5F53D",
"9. c #F9F93A",
"0. c #F9F93B",
"q. c #F9F93C",
"w. c #FAEE40",
"e. c #F6F642",
"r. c #F7F746",
"t. c #FBF046",
"y. c #FAFA40",
"u. c #FAFA41",
"i. c #FAFA42",
"p. c #FBFB46",
"a. c #FBFB47",
"s. c #F7F74B",
"d. c #FCF14B",
"f. c #FCFC4B",
"g. c #FCFC4C",
"h. c #F8EE50",
"j. c #FDF251",
"k. c #FDF254",
"l. c #FDFD51",
"z. c #F2F760",
"x. c #FCFC65",
"c. c #FCFC69",
"v. c #FDFD6D",
"b. c #FEF574",
"n. c #FDFD71",
/* pixels */
"                                ",
"                                ",
"                                ",
"8 8 8 8 8 ..O.o.o.o.} > : ; - = ",
"8 M M M v b.n.v.c.x.z.` _ ) ( * ",
"8 M j h h k.l.g.a.u.3.Q R P / & ",
"8 M h h i d.g.a.u.q.1.R K J ^ % ",
"8 v a a y d.a.u.q.7.<.K J G ~ $ ",
"8 c i y t d.u.0.7.4.%.J F D ! # ",
"8 x y r w ,.0.6.4.-.$.F S C Q @ ",
"5 z r w 0 ,.5.;.-.*.@.S Z V U O ",
"5 l q 0 9 >.;.-.&.#.+.C V N P . ",
"3 k g s p h.s.r.e.8.2.E U U L . ",
"3 2 2 < < ]  .| [ [ ' @ o . . . ",
"                                ",
"                                "
};
