/* XPM */
static char *gp[] = {
/* columns rows colors chars-per-pixel */
"16 16 149 2 ",
"   c None",
".  c #DB0000",
"X  c #DF0000",
"o  c #E10000",
"O  c #E30000",
"+  c #E50000",
"@  c #FB0000",
"#  c #FB0900",
"$  c #F90B00",
"%  c #FF0F00",
"&  c #FB1500",
"*  c #F0411F",
"=  c #F14624",
"-  c #F24328",
";  c #F3472C",
":  c #F14929",
">  c #F14A2A",
",  c #F24E2E",
"<  c #F24E2F",
"1  c #F24F2F",
"2  c #F44A31",
"3  c #F54F36",
"4  c #F45233",
"5  c #F45334",
"6  c #F45335",
"7  c #F45435",
"8  c #F65439",
"9  c #F55738",
"0  c #F6543B",
"q  c #F5573A",
"w  c #F5583B",
"e  c #F7593E",
"r  c #F65B3E",
"t  c #F75840",
"y  c #F25C40",
"u  c #F65C40",
"i  c #F85D43",
"p  c #F85D45",
"a  c #F26043",
"s  c #F76043",
"d  c #F76145",
"f  c #F36448",
"g  c #F96149",
"h  c #F9614A",
"j  c #F86448",
"k  c #F8654A",
"l  c #FA664E",
"z  c #FA664F",
"x  c #F4684C",
"c  c #F9694D",
"v  c #F9694F",
"b  c #F96A4F",
"n  c #F56C50",
"m  c #FA6A51",
"M  c #FB6953",
"N  c #FB6A53",
"B  c #FA6E53",
"V  c #FA6E54",
"C  c #FC6E57",
"Z  c #FB6A58",
"A  c #FA6D58",
"S  c #FA7258",
"D  c #FD725B",
"F  c #FB755C",
"G  c #FD7660",
"H  c #FE7564",
"J  c #00C100",
"K  c #00C300",
"L  c #00C500",
"P  c #00C700",
"I  c #00CB00",
"U  c #00CD00",
"Y  c #00CF00",
"T  c #00D300",
"R  c #00D500",
"E  c #00D700",
"W  c #00D900",
"Q  c #00DB00",
"!  c #00DD00",
"~  c #00DF00",
"^  c #00E100",
"/  c #00E300",
"(  c #00E500",
")  c #00E700",
"_  c #00E900",
"`  c #03EB00",
"'  c #09EB00",
"]  c #0DED00",
"[  c #1DED00",
"{  c #00F100",
"}  c #17F903",
"|  c #57ED47",
" . c #59ED4B",
".. c #5CEF4D",
"X. c #60F050",
"o. c #62F054",
"O. c #65F157",
"+. c #69F25B",
"@. c #6DF35F",
"#. c #71F463",
"$. c #75F567",
"%. c #75F66A",
"&. c #78F66B",
"*. c #79F76E",
"=. c #7CF76F",
"-. c #7DF772",
";. c #7FF774",
":. c #FBB55F",
">. c #FB8862",
",. c #FE8368",
"<. c #FC8677",
"1. c #81F776",
"2. c #84F878",
"3. c #84F87A",
"4. c #88F97D",
"5. c #FCD668",
"6. c #FCCA7F",
"7. c #FCE369",
"8. c #FDFA6F",
"9. c #FEE970",
"0. c #FE9382",
"q. c #C9B197",
"w. c #FDB584",
"e. c #DDBFA9",
"r. c #8BFA80",
"t. c #8FFB84",
"y. c #91FC88",
"u. c #94FC8A",
"i. c #96FC8D",
"p. c #98FC8F",
"a. c #99FC90",
"s. c #FEED88",
"d. c #EBD9C5",
"f. c #F5DFCF",
"g. c #F1F1F1",
"h. c gray95",
"j. c #F3F3F3",
"k. c #F4F4F4",
"l. c gray96",
"z. c #F6F6F6",
"x. c gray97",
"c. c #F8F8F8",
"v. c #F9F9F9",
"b. c #FAFAFA",
"n. c #FBFBFB",
"m. c gray99",
"M. c #FDFDFD",
"N. c #FEFEFE",
"B. c white",
/* pixels */
"                                ",
"                                ",
"                                ",
"[ ] ] ] ' _ _ ) _ ) / ~ ~ W W E ",
"} a.p.p.p.y.t.t.4.3.3.1.;.*.%.) ",
"f.B.B.B.B.B.B.n.n.n.n.n.x.x.x.e.",
"% 0.,.H F D C M z p u u 8 7 n + ",
"& w.9.>.F S C c k g u 8 5 1 x O ",
"& s.8.5.C B b k d u 8 6 2 > f X ",
"$ w.7.:.M b j p r 8 4 1 > = a X ",
"# <.Z M c p p e 8 5 2 ; = * y . ",
"d.n.n.n.c.c.x.x.x.k.j.h.h.h.h.q.",
"{ 3.;.=.&.$.#.@.+.O.o.X.....| T ",
"/ ~ W E E E T U U I I L L J J J ",
"                                ",
"                                "
};
