/* XPM */
static char *gq[] = {
/* columns rows colors chars-per-pixel */
"16 16 158 2 ",
"   c None",
".  c #004300",
"X  c #004D00",
"o  c #005D00",
"O  c #006100",
"+  c #006300",
"@  c #006700",
"#  c #006D00",
"$  c #007100",
"%  c #007500",
"&  c #007900",
"*  c #007D00",
"=  c #990000",
"-  c #9B0000",
";  c #9D0000",
":  c #A10000",
">  c #A30000",
",  c #A50000",
"<  c #A90000",
"1  c #AB0000",
"2  c #AF0000",
"3  c #B30000",
"4  c #B70000",
"5  c #B90000",
"6  c #BD0000",
"7  c #CD0000",
"8  c #CC1D1D",
"9  c #CE201F",
"0  c #CF2424",
"q  c #D12929",
"w  c #D32E2E",
"e  c #D73535",
"r  c #D73939",
"t  c #D33E3E",
"y  c #D73D3D",
"u  c #D44343",
"i  c #D54646",
"p  c #D94242",
"a  c #D64A4A",
"s  c #D74C4C",
"d  c #DB4848",
"f  c #DE4C4B",
"g  c #D85050",
"h  c #D95454",
"j  c #DB5757",
"k  c #DD5C5C",
"l  c #E05959",
"z  c #DD6060",
"x  c #DF6364",
"c  c #E16869",
"v  c #E26C6C",
"b  c #E46F6F",
"n  c #008100",
"m  c #008300",
"M  c #008700",
"N  c #008900",
"B  c #2CA12C",
"V  c #31A431",
"C  c #37A737",
"Z  c #3DAA3D",
"A  c #42AD42",
"S  c #49AE49",
"D  c #47B047",
"F  c #4CB34C",
"G  c #4EB44E",
"H  c #51B451",
"J  c #53B753",
"K  c #54B754",
"L  c #58B957",
"P  c #59B859",
"I  c #5CBA5C",
"U  c #5CBB5C",
"Y  c #5FBD5F",
"T  c #61BE60",
"R  c #65C065",
"E  c #69C269",
"W  c #6DC36D",
"Q  c #70C571",
"!  c #74C774",
"~  c #77C877",
"^  c #79C979",
"/  c #7BCA7B",
"(  c #005FDD",
")  c #0071F5",
"_  c #007BFB",
"`  c #007DF9",
"'  c #037FFD",
"]  c #1389DF",
"[  c #0783FD",
"{  c #0D87FD",
"}  c #1187FF",
"|  c #1589FB",
" . c #1589FF",
".. c #7CBBFC",
"X. c #8ABF85",
"o. c #B9BFB9",
"O. c #90C38B",
"+. c #BDC4BE",
"@. c #F8EFB6",
"#. c #F9F0B8",
"$. c #9EA5D0",
"%. c #80BEFD",
"&. c #83BFFE",
"*. c #91BEF3",
"=. c #BFC1C2",
"-. c #8FCAE9",
";. c #88C1FC",
":. c #88C3FD",
">. c #8FC5FC",
",. c #9ACDF7",
"<. c #91C8FE",
"1. c #98C9FA",
"2. c #99CBFE",
"3. c #9BCDFE",
"4. c #A1D0FD",
"5. c #C5C8C9",
"6. c #DDD7D5",
"7. c #D8DCDD",
"8. c gray87",
"9. c #DFE5DF",
"0. c #DEE2E2",
"q. c #E1E0E0",
"w. c gray89",
"e. c gray90",
"r. c #E7E7E7",
"t. c #F1EDED",
"y. c #F1EEEE",
"u. c #F2EEEE",
"i. c #F2EFEF",
"p. c #E9F7FB",
"a. c #F3F0F0",
"s. c gray95",
"d. c #F3F3F3",
"f. c #F4F1F1",
"g. c #F1F4F1",
"h. c #F2F5F2",
"j. c #F3F6F3",
"k. c #F4F7F3",
"l. c #F4F4F4",
"z. c #F4F5F5",
"x. c gray96",
"c. c #F6F6F6",
"v. c gray97",
"b. c #F8F4F4",
"n. c #F9F5F5",
"m. c #F9F6F6",
"M. c #FAF7F7",
"N. c #F5F8F5",
"B. c #F7FAF7",
"V. c #F1F6FD",
"C. c #F8F8F8",
"Z. c #F8FBF8",
"A. c #F9FBF9",
"S. c gray98",
"D. c #FBFBFB",
"F. c #F9FCF9",
"G. c gray99",
"H. c #FDFCFD",
/* pixels */
"                                ",
"                                ",
"                                ",
"] N N N N n n * & % $ # @ O o O ",
"| -./ / ! ! Q W E R T P P J G X ",
" .,.Y I P K H F D A Z C V B D . ",
"} 3.4.F.A.A.B.#.@.B.B.j.j.g.j.9.",
"{ 2.&.V.H.H.A.O.X.M.x.x.x.x.x.r.",
"[ <.&.&.H.A.A.+.o.x.x.x.l.l.l.e.",
"' :...p.H.A.0.5.=.7.x.l.l.g.l.e.",
"_ <.1.M.b.b.M.q.8.f.g.u.u.u.u.6.",
"_ *.l f d p y r e w q 0 8 8 t = ",
") $.b c c x z k j h g s a i u ; ",
"( 7 6 5 4 3 2 1 1 , : : ; = = ; ",
"                                ",
"                                "
};
