/* XPM */
static char *gr[] = {
/* columns rows colors chars-per-pixel */
"16 16 152 2 ",
"   c None",
".  c #000087",
"X  c #00008B",
"o  c #00008F",
"O  c #000091",
"+  c #000093",
"@  c #000097",
"#  c #00009B",
"$  c #00009F",
"%  c #0000A3",
"&  c #0000A7",
"*  c #0000AB",
"=  c #0001AB",
"-  c #0007AD",
";  c #000FAF",
":  c #0018A1",
">  c #0017B3",
",  c #001DB7",
"<  c #0721A9",
"1  c #0A34A1",
"2  c #0023B9",
"3  c #0029BD",
"4  c #002FBF",
"5  c #0035C1",
"6  c #0335C3",
"7  c #073BC3",
"8  c #093DC3",
"9  c #093BC4",
"0  c #0D3FC5",
"q  c #2B56C8",
"w  c #2D57C9",
"e  c #2F58CA",
"r  c #315ACB",
"t  c #335CCC",
"y  c #355ECD",
"u  c #375FCC",
"i  c #3760CD",
"p  c #3961CE",
"a  c #3C63CF",
"s  c #3D65D0",
"d  c #3F67D1",
"f  c #5876C8",
"g  c #4C71D4",
"h  c #4D71D4",
"j  c #4D72D5",
"k  c #4F73D5",
"l  c #7A92D9",
"z  c #7C95DA",
"x  c #8182C8",
"c  c #8184CD",
"v  c #8098DC",
"b  c #849CDD",
"n  c #899FD8",
"m  c #889FDE",
"M  c #8CA1D9",
"N  c #8FA3DA",
"B  c #8CA2DD",
"V  c #92A5DC",
"C  c #95A8DE",
"Z  c #97AADF",
"A  c #9BACDD",
"S  c #AAB0C7",
"D  c #8BA2E0",
"F  c #8FA5E1",
"G  c #92A7E3",
"H  c #97AAE0",
"J  c #9AADE1",
"K  c #9DAFE2",
"L  c #A0B2E3",
"P  c #A3B5E5",
"I  c #A6B7E6",
"U  c #A9BAE7",
"Y  c #B3C0E4",
"T  c #B5C1E5",
"R  c #B5C2E7",
"E  c #B6C3E6",
"W  c #B8C4E6",
"Q  c #BAC5E7",
"!  c #BDC8E7",
"~  c #B7C4E8",
"^  c #B9C5E9",
"/  c #BBC7E8",
"(  c #BBC7E9",
")  c #B9C6ED",
"_  c #BDC8E9",
"`  c #BECAE9",
"'  c #BCC8EA",
"]  c #BFCAEA",
"[  c #BECAEB",
"{  c #C8CAD6",
"}  c #D0D0D4",
"|  c #D5D5D5",
" . c #D2D6DD",
".. c #C0CCEA",
"X. c #C2CDEB",
"o. c #C0CBEC",
"O. c #C2CCEC",
"+. c #C4CEEC",
"@. c #C5D0ED",
"#. c #CFD7EF",
"$. c #D9DFF1",
"%. c #E2E2E2",
"&. c #E0E3ED",
"*. c #E2E4ED",
"=. c #E2E5EF",
"-. c #E8E8EC",
";. c #E3E6F0",
":. c #E4E7F0",
">. c #E5E8F1",
",. c #E6E9F2",
"<. c #E8EAF3",
"1. c #ECEEF2",
"2. c #E8ECF4",
"3. c #E9EDF5",
"4. c #EBEDF6",
"5. c #EDEFF4",
"6. c #EDEEF7",
"7. c #EEF0F4",
"8. c #EFF0F5",
"9. c #EDF0F7",
"0. c #EEF1F8",
"q. c #F0F0F1",
"w. c #F0F0F2",
"e. c #F1F2F3",
"r. c #F2F2F3",
"t. c #F3F3F4",
"y. c #F0F2F6",
"u. c #F1F3F7",
"i. c #F2F4F7",
"p. c #F4F4F5",
"a. c #F4F5F7",
"s. c #F5F5F7",
"d. c #F2F3F8",
"f. c #F3F4F9",
"g. c #F3F5FA",
"h. c #F5F6F8",
"j. c #F6F6F8",
"k. c #F6F7F9",
"l. c #F7F7F9",
"z. c #F7F7FA",
"x. c #F7F8FB",
"c. c #F7F9FC",
"v. c #F8F8F9",
"b. c #F9F9FA",
"n. c #FAFAFB",
"m. c #FBFBFB",
"M. c #F8F9FC",
"N. c #F9FAFC",
"B. c gray99",
"V. c #FDFDFD",
"C. c #FEFEFE",
"Z. c white",
/* pixels */
"                                ",
"                                ",
"                                ",
"0 0 | | 8 9 5 4 3 2 , > ; - = & ",
"0 k Z.Z.g g N.N.N.h.z.h.h.a.i. .",
"%.Z.B.Z.Z.Z.O.[ [ [ ( ^ ~ R [ c ",
"%.Z.Z.Z.m.Z.G F D b b v z l B : ",
"7 k Z.m.s a f.f.f.f.y.y.1.1.7.{ ",
"5 g Z.m.a a p p y t t r w q i < ",
"-.m.m.m.m.z.z.a.a.a.q.q.1.q.r.} ",
"Z #.+.+.X.X...( / Q W R Y Y ! x ",
"f ) U I P L K J Z C V V N n A 1 ",
"$.d.4.6.4.3.3.<.>.>.:.:.*.*.&.S ",
"> ; - * & % $ # # O O o X X . . ",
"                                ",
"                                "
};
