/* XPM */
static char *gs[] = {
/* columns rows colors chars-per-pixel */
"16 16 150 2 ",
"   c None",
".  c black",
"X  c #000005",
"o  c #000007",
"O  c #00000D",
"+  c #000015",
"@  c #00001B",
"#  c #000023",
"$  c #000027",
"%  c #000029",
"&  c #00002B",
"*  c #00002F",
"=  c #000031",
"-  c #000037",
";  c #000039",
":  c #5F0D3F",
">  c #6F032D",
",  c #000043",
"<  c #000059",
"1  c #00005D",
"2  c #0B0B64",
"3  c #15156F",
"4  c #18196D",
"5  c #00007D",
"6  c #1A1A73",
"7  c #1E1E74",
"8  c #232377",
"9  c #242474",
"0  c #2A2A79",
"q  c #29297B",
"w  c #2A2A7B",
"e  c #2C2C7A",
"r  c #2C2C7B",
"t  c #2F2F7C",
"y  c #2F2F7D",
"u  c #2E2E7F",
"i  c #2F2F7F",
"p  c #32327F",
"a  c #36367F",
"s  c #3A377F",
"d  c #46467C",
"f  c #97112D",
"g  c #A52137",
"h  c #FF1B00",
"j  c #972F4F",
"k  c #E75959",
"l  c #EA655F",
"z  c #FC6950",
"x  c #E36261",
"c  c #F06A62",
"v  c #F16F67",
"b  c #E57A79",
"n  c #E47D7E",
"m  c #F97971",
"M  c #598E5E",
"N  c #313182",
"B  c #333382",
"V  c #353581",
"C  c #343483",
"Z  c #3B3B83",
"A  c #393984",
"S  c #383986",
"D  c #3A3A86",
"F  c #3C3C85",
"G  c #3D3C86",
"H  c #3D3D86",
"J  c #3F3F87",
"K  c #3F3F8A",
"L  c #403F8A",
"P  c #40408A",
"I  c #42428A",
"U  c #42428C",
"Y  c #46468D",
"T  c #44448E",
"R  c #45458E",
"E  c #45458F",
"W  c #48448B",
"Q  c #49498F",
"!  c #50498D",
"~  c #494991",
"^  c #4B4B90",
"/  c #494A92",
"(  c #4E4E93",
")  c #4F4F94",
"_  c #505093",
"`  c #535396",
"'  c #545496",
"]  c #53539B",
"[  c #585798",
"{  c #585899",
"}  c #5C5C9B",
"|  c #5D5D9D",
" . c #61609E",
".. c #61619F",
"X. c #686A99",
"o. c #75729F",
"O. c #4F67AF",
"+. c #6565A1",
"@. c #6666A3",
"#. c #6B6BA4",
"$. c #6A6AA5",
"%. c #6F6FA8",
"&. c #7070A2",
"*. c #7777A8",
"=. c #7E7EAB",
"-. c #7A7FB4",
";. c #8A6088",
":. c #8B648D",
">. c #A47B9B",
",. c #AA7E98",
"<. c #6587C7",
"1. c #77A3DB",
"2. c #7AB6F0",
"3. c #95969A",
"4. c #B5B583",
"5. c #8686B4",
"6. c #8B85B3",
"7. c #9BB8B8",
"8. c #D88085",
"9. c #D8848C",
"0. c #D38C96",
"q. c #E78D8C",
"w. c #FD9981",
"e. c #C891A0",
"r. c #DAA3AC",
"t. c #DAB3BD",
"y. c #FEBCAC",
"u. c #CAC39F",
"i. c #D3CEA2",
"p. c #FDC9B8",
"a. c #C1C1D4",
"s. c #C5C5D7",
"d. c #C8C8D9",
"f. c #CACADA",
"g. c #FFCAC4",
"h. c #FBDAC6",
"j. c #E8CAD0",
"k. c #EBCED3",
"l. c #FEDFD1",
"z. c #DEDFE6",
"x. c #E3E2E3",
"c. c #E1E1E8",
"v. c #E4E4EC",
"b. c #EBECEB",
"n. c #E8E8EC",
"m. c #E9E9EE",
"M. c #EEEEEE",
"N. c #F3F3F4",
"B. c #FDFDF7",
"V. c #F9FFFF",
/* pixels */
"                                ",
"                                ",
"                                ",
"m 6.< f g 1 > w., * % # @ + O o ",
"5 g.V.t.r.k.B.1.#.+. .} [ ` ( . ",
"h n v l k c x z ! I H S B e Q . ",
": j.y.b q.p.8.,.W H 5.m.N.d.=.. ",
"<.l.-.0.9.2.h.>.H a v.b.X.c.d.. ",
"j &.] :.;.d O.e.Z N N.7.M 3.m.. ",
"; %.) ~ R P Z V y 0 z.i.4.u.s.. ",
"- #.~ R K S C i q 9 *.x.b.a.&.. ",
"= @.T I S V N w 8 7 4 6 3 2 y . ",
"$ +.| [ ' _ Q W I H S V V y e . ",
"% @ + O o . . . . . . . . . . . ",
"                                ",
"                                "
};
