/* XPM */
static char *gt[] = {
/* columns rows colors chars-per-pixel */
"16 16 138 2 ",
"   c None",
".  c #0000DD",
"X  c #0000DF",
"o  c #0000E1",
"O  c #0000E3",
"+  c #0000E5",
"@  c #0003E7",
"#  c #0009E7",
"$  c #0011E9",
"%  c #0015EB",
"&  c #0019ED",
"*  c #0023EF",
"=  c #0025EF",
"-  c #002DEF",
";  c #002DF1",
":  c #0031F3",
">  c #0033F3",
",  c #0035F5",
"<  c #003DF7",
"1  c #0045F5",
"2  c #0047F9",
"3  c #004DFB",
"4  c #0051FD",
"5  c #0053FD",
"6  c #0055FD",
"7  c #0059FD",
"8  c #005BFF",
"9  c #005DFF",
"0  c #005FFF",
"q  c #0367FF",
"w  c #1F73F1",
"e  c #2375F1",
"r  c #2376F2",
"t  c #2476F2",
"y  c #2879F2",
"u  c #297AF2",
"i  c #297AF3",
"p  c #2D7CF3",
"a  c #2E7DF3",
"s  c #2E7EF4",
"d  c #3280F4",
"f  c #3481F4",
"g  c #3482F5",
"h  c #3D86F2",
"j  c #3883F5",
"k  c #3985F5",
"l  c #3986F6",
"z  c #3D87F6",
"x  c #3E88F6",
"c  c #3F89F7",
"v  c #4087F2",
"b  c #4289F3",
"n  c #428AF3",
"m  c #448AF3",
"M  c #438BF7",
"N  c #478DF4",
"B  c #4B8FF5",
"V  c #458DF8",
"C  c #458DF9",
"Z  c #4B90FA",
"A  c #4F93FA",
"S  c #5093F5",
"D  c #5596F6",
"F  c #5999F7",
"G  c #5E9CF7",
"H  c #5094FB",
"J  c #5597FA",
"K  c #5497FB",
"L  c #5597FC",
"P  c #599BFB",
"I  c #5A9BFB",
"U  c #5E9CF9",
"Y  c #5A9BFD",
"T  c #5E9EFC",
"R  c #5F9EFC",
"E  c #5E9EFD",
"W  c #629EF8",
"Q  c #66A1F9",
"!  c #66A2F9",
"~  c #63A0FD",
"^  c #63A1FD",
"/  c #62A1FE",
"(  c #66A3FE",
")  c #67A3FE",
"_  c #68A3FA",
"`  c #6BA5FA",
"'  c #6AA5FE",
"]  c #6AA6FE",
"[  c #6FA8FB",
"{  c #6EA8FE",
"}  c #74AAFC",
"|  c #78AEFC",
" . c #7CAFFD",
".. c #7FB1FE",
"X. c #7FB2FE",
"o. c #82B3FE",
"O. c #84B5FE",
"+. c #85B5FE",
"@. c #87B7FF",
"#. c #BBC1CB",
"$. c gray81",
"%. c #CBCFD7",
"&. c gray82",
"*. c LightGray",
"=. c #D7D7D7",
"-. c #D9DDE5",
";. c #E7E7E7",
":. c #E3E7ED",
">. c #E9E9E9",
",. c gray92",
"<. c #EAEEF3",
"1. c #EBEEF4",
"2. c #EDEFF4",
"3. c #ECEFF5",
"4. c #EEF1F6",
"5. c #EFF2F7",
"6. c #F4F4F4",
"7. c gray96",
"8. c #F6F6F6",
"9. c gray97",
"0. c #F0F4F8",
"q. c #F1F5F9",
"w. c #F2F4F8",
"e. c #F3F5F8",
"r. c #F3F5F9",
"t. c #F4F6FA",
"y. c #F5F7FB",
"u. c #F6F8FC",
"i. c #F7F9FD",
"p. c #F8F8F8",
"a. c #F9F9F9",
"s. c gray98",
"d. c #FBFBFB",
"f. c #F8FAFD",
"g. c #FAFBFE",
"h. c gray99",
"j. c #FDFDFD",
"k. c #FDFDFE",
/* pixels */
"                                ",
"                                ",
"                                ",
"q q 9 9 5 :.,.,.>.;.-., : ; = - ",
"8 @.@.@...f.h.h.h.h.u._ _ W G % ",
"9 @.{ ' ~ f.h.h.d.d.0.C M x F $ ",
"9 @.' ) T u.h.d.d.d.0.x z k D # ",
"8 o.^ ^ Y u.f.d.p.9.5.k j f S @ ",
"5 ..~ U L t.d.d.p.9.5.f d p B @ ",
"5 ..U I H t.9.p.9.9.3.s p u N o ",
"3 | I L Z t.9.9.9.6.<.u u t m X ",
"2 } L H C w.9.9.6.6.<.r r w v X ",
"< [ _ _ U 0.p.9.9.6.5.b b v h . ",
"1 > ; = & %.=.*.$.$.#.o X X . . ",
"                                ",
"                                "
};
