/* XPM */
static char *gu[] = {
/* columns rows colors chars-per-pixel */
"16 16 136 2 ",
"   c None",
".  c #D90000",
"X  c #DB0000",
"o  c #DF0000",
"O  c #E10000",
"+  c #E30000",
"@  c #E50000",
"#  c #E70000",
"$  c #EB0000",
"%  c #ED0000",
"&  c #EF0000",
"*  c #F10000",
"=  c #F30000",
"-  c #F50000",
";  c #F70000",
":  c #F90000",
">  c #FB0000",
",  c #FB0100",
"<  c #FB0300",
"1  c #FD0700",
"2  c #FD0900",
"3  c #A04A7B",
"4  c #C8555F",
"5  c #D5585F",
"6  c #DD6643",
"7  c #CE5665",
"8  c #D9616C",
"9  c #E56460",
"0  c #E36668",
"q  c #E56E6D",
"w  c #E26D71",
"e  c #AC817F",
"r  c #DABC42",
"t  c #7F75A9",
"y  c #3558F1",
"u  c #385CF1",
"i  c #395CF2",
"p  c #3C5EF2",
"a  c #3D60F2",
"s  c #4964ED",
"d  c #4162F3",
"f  c #4262F3",
"g  c #4264F3",
"h  c #4666F4",
"j  c #4667F4",
"k  c #4767F4",
"l  c #4768F4",
"z  c #4C6BF3",
"x  c #4C6BF5",
"c  c #4C6DF5",
"v  c #506FF2",
"b  c #516FF3",
"n  c #516FF6",
"m  c #5270F2",
"M  c #5370F2",
"N  c #5573F3",
"B  c #5673F3",
"V  c #5170F6",
"C  c #5171F6",
"Z  c #5572F5",
"A  c #5573F6",
"S  c #5674F7",
"D  c #5675F7",
"F  c #5875F3",
"G  c #5976F4",
"H  c #5B78F4",
"J  c #5C7AF5",
"K  c #5976F8",
"L  c #5B78F8",
"P  c #5C7AF9",
"I  c #5D7AF9",
"U  c #6564E9",
"Y  c #607BF5",
"T  c #617DF5",
"R  c #637FF5",
"E  c #607CF9",
"W  c #627FF9",
"Q  c #617EFA",
"!  c #627EFA",
"~  c #667FF8",
"^  c #C76085",
"/  c #C77B9F",
"(  c #C279A0",
")  c #6581F6",
"_  c #6883F6",
"`  c #6984F7",
"'  c #6B85F7",
"]  c #6E88F7",
"[  c #6682FA",
"{  c #6783FA",
"}  c #6682FB",
"|  c #6A86FB",
" . c #6B86FC",
".. c #6C87FC",
"X. c #6E89F8",
"o. c #6E89FC",
"O. c #6F8AFC",
"+. c #728BF8",
"@. c #718BFB",
"#. c #728CF9",
"$. c #758FF9",
"%. c #768FF9",
"&. c #708AFD",
"*. c #708BFD",
"=. c #738CFD",
"-. c #738DFD",
";. c #738EFD",
":. c #748EFD",
">. c #7690FE",
",. c #7790FE",
"<. c #7A91FA",
"1. c #7A93FA",
"2. c #7E94FB",
"3. c #7E96FB",
"4. c #7A93FE",
"5. c #7D95FE",
"6. c #9FB889",
"7. c #A0BA8F",
"8. c #8D83A9",
"9. c #B4C1A6",
"0. c #8198FC",
"q. c #8299FC",
"w. c #849AFC",
"e. c #859CFC",
"r. c #889EFD",
"t. c #8A9EFD",
"y. c #8AA0FE",
"u. c #8CA1FE",
"i. c #8DA2FE",
"p. c #8FA4FE",
"a. c #92A5FE",
"s. c #92A6FE",
"d. c #94A8FF",
"f. c #DCCFD5",
"g. c #DDD1D6",
"h. c #D3D2D8",
/* pixels */
"                                ",
"                                ",
"                                ",
"2 2 2 2 2 2 2 2 < - - = = = % % ",
"2 d.d.a.a.u.d.p.w.0.2.<.>.+.] $ ",
"2 d.5.4.>.-.3./ / ~ E L D C ` @ ",
"2 a.4.>.:.o.8.7.h.^ K D C c ) @ ",
"< p.>.-.*.o.9 e 9.0 A C c l T + ",
"< u.-.O...{ q g.f.9 m x h g J + ",
"< r.o.| [ E 8 U 8.5 z h f a D o ",
"- w.{ } E I 7 t r 3 h f a i B X ",
"< 0.} } L L A 4 6 s f p i y m X ",
"- 5.<.>.#.X.` _ R J J F B m C X ",
"= = = % % $ $ @ @ + o o X X . . ",
"                                ",
"                                "
};
