/* XPM */
static char *gw[] = {
/* columns rows colors chars-per-pixel */
"16 16 152 2 ",
"   c None",
".  c #002300",
"X  c #002500",
"o  c #002700",
"O  c #002D00",
"+  c #002F00",
"@  c #003100",
"#  c #003300",
"$  c #003500",
"%  c #003900",
"&  c #003B00",
"*  c #003D00",
"=  c #004100",
"-  c #004700",
";  c #5B5353",
":  c #654F4F",
">  c #664F4F",
",  c #6F5858",
"<  c #ED0000",
"1  c #EF0000",
"2  c #F10000",
"3  c #F30000",
"4  c #F50000",
"5  c #F70000",
"6  c #F90000",
"7  c #FB0000",
"8  c #FD0000",
"9  c red",
"0  c #F93A3A",
"q  c #FA3F3F",
"w  c #8D7273",
"e  c #D44A49",
"r  c #DC5454",
"t  c #FA4444",
"y  c #FB4545",
"u  c #FB4949",
"i  c #FB4A4B",
"p  c #FC4F50",
"a  c #F95455",
"s  c #FD5454",
"d  c #F95858",
"f  c #FE5959",
"g  c #FA5D5D",
"h  c #FD5C5C",
"j  c #FE5C5C",
"k  c #FE5F5F",
"l  c #FB6162",
"z  c #FC6666",
"x  c #F66F6F",
"c  c #FC6A6A",
"v  c #F57676",
"b  c #FE7777",
"n  c #FE7979",
"m  c #FF7B7A",
"M  c #FF7B7B",
"N  c #118F00",
"B  c #0B950B",
"V  c #0F970E",
"C  c #109710",
"Z  c #139913",
"A  c #149914",
"S  c #149A14",
"D  c #199C19",
"F  c #189D19",
"G  c #199D19",
"H  c #1F9F1F",
"J  c #1EA01E",
"K  c #1FA01F",
"L  c #23A223",
"P  c #24A224",
"I  c #24A324",
"U  c #29A429",
"Y  c #2AA52A",
"T  c #2CA32C",
"R  c #2FA42F",
"E  c #2FA72F",
"W  c #2EA82E",
"Q  c #2FA82F",
"!  c #32A532",
"~  c #33A632",
"^  c #35A835",
"/  c #34AB34",
"(  c #35AA35",
")  c #36A836",
"_  c #39A939",
"`  c #3BAE3A",
"'  c #3DAC3D",
"]  c #41A334",
"[  c #47A63A",
"{  c #42AE42",
"}  c #4BA840",
"|  c #46B046",
" . c #4BB34B",
".. c #5BAE50",
"X. c #D7A100",
"o. c #DBA500",
"O. c #DDA900",
"+. c #DFAD00",
"@. c #E1B100",
"#. c #E5B500",
"$. c #E7B700",
"%. c #E9BB00",
"&. c #EBBF00",
"*. c #87C81A",
"=. c #8BCA1F",
"-. c #8ECB25",
";. c #90CD2B",
":. c #94CF30",
">. c #98CF3B",
",. c #97D136",
"<. c #9AD33B",
"1. c #EDC100",
"2. c #EFC500",
"3. c #F1C700",
"4. c #F3C900",
"5. c #F3CB00",
"6. c #F4F420",
"7. c #F5F525",
"8. c #F5F526",
"9. c #F6F62B",
"0. c #F6F62C",
"q. c #F7F730",
"w. c #F7F731",
"e. c #F8F836",
"r. c #F8F837",
"t. c #F5F53F",
"y. c #F9F93C",
"u. c #F9F93D",
"i. c #9DD840",
"p. c #A7D046",
"a. c #F6F644",
"s. c #FAFA41",
"d. c #FAFA42",
"f. c #FBFB46",
"g. c #FBFB47",
"h. c #F7F749",
"j. c #F7F74E",
"k. c #FCF14B",
"l. c #FCFC4B",
"z. c #FCFC4C",
"x. c #FDF151",
"c. c #FDF254",
"v. c #F8F853",
"b. c #FDFD51",
"n. c #F9F957",
"m. c #FAFA5C",
"M. c #FBFB60",
"N. c #FCFC65",
"B. c #FCFC69",
"V. c #FDFD6D",
"C. c #FEF574",
"Z. c #FDFD71",
/* pixels */
"                                ",
"                                ",
"                                ",
"9 9 9 9 9 5.5.3.2.2.1.1.%.#.#.@.",
"9 M M M b C.Z.V.B.N.M.n.n.v.j.+.",
"9 M k f f c.b.z.g.f.u.e.w.0.h.O.",
"9 M h f s c.l.f.d.u.e.w.9.7.a.o.",
"9 v , r i k.f.s.y.e.q.9.7.6.a.X.",
"9 w ; > i p.<.<.,.:.;.-.=.*.>.N ",
"7 x > e u } ` / Q Y P J G A ) O ",
"7 c u y q [ / ~ Y I K G A C ~ @ ",
"7 z y q 0 ] T Y L J G Z V B R X ",
"4 l g h a .. .| { ' _ ) ! R T o ",
"4 3 < < < & - - = * & @ O O X $ ",
"                                ",
"                                "
};
