/* XPM */
static char *hk[] = {
/* columns rows colors chars-per-pixel */
"16 16 136 2 ",
"   c None",
".  c #BB0000",
"X  c #BD0000",
"o  c #BF0000",
"O  c #C10000",
"+  c #C30000",
"@  c #C70000",
"#  c #C90000",
"$  c #CB0000",
"%  c #CD0000",
"&  c #CF0000",
"*  c #D10000",
"=  c #D50000",
"-  c #D70000",
";  c #D90000",
":  c #DB0000",
">  c #DF0000",
",  c #DF0B0B",
"<  c #E10000",
"1  c #E30000",
"2  c #E50000",
"3  c #E70000",
"4  c #E90000",
"5  c #EB0000",
"6  c #ED0000",
"7  c #E10F0E",
"8  c #E11010",
"9  c #E11313",
"0  c #E21414",
"q  c #E31919",
"w  c #E21B1B",
"e  c #E41A1A",
"r  c #E41F1F",
"t  c #E52020",
"y  c #E52424",
"u  c #E62525",
"i  c #E62626",
"p  c #E72B2B",
"a  c #E22C2C",
"s  c #E32F2F",
"d  c #E82C2C",
"f  c #E92C2C",
"g  c #EA2E2E",
"h  c #E43232",
"j  c #E63535",
"k  c #E63636",
"l  c #E83131",
"z  c #E93131",
"x  c #EB3131",
"c  c #EA3737",
"v  c #E63939",
"b  c #E73B3B",
"n  c #E73D3D",
"m  c #EB3838",
"M  c #EB3A3A",
"N  c #EC3838",
"B  c #EE3838",
"V  c #EB3C3D",
"C  c #E83F3F",
"Z  c #EC3E3D",
"A  c #EC3F3F",
"S  c #E84242",
"D  c #EC4040",
"F  c #ED4242",
"G  c #E94444",
"H  c #E94646",
"J  c #EE4444",
"K  c #EE4545",
"L  c #EA4949",
"P  c #EB4B4B",
"I  c #EF4949",
"U  c #EF4A49",
"Y  c #EF4A4C",
"T  c #EC4E4E",
"R  c #F04F4F",
"E  c #F24F4F",
"W  c #EC5050",
"Q  c #ED5353",
"!  c #ED5455",
"~  c #EE5757",
"^  c #EE5858",
"/  c #EF5C5C",
"(  c #EF5D5D",
")  c #F05151",
"_  c #F35050",
"`  c #F05353",
"'  c #F35353",
"]  c #F15454",
"[  c #F25454",
"{  c #F25555",
"}  c #F15656",
"|  c #F35656",
" . c #F55555",
".. c #F15858",
"X. c #F15959",
"o. c #F25C5C",
"O. c #F35F5F",
"+. c #F06060",
"@. c #F06162",
"#. c #F16565",
"$. c #F26666",
"%. c #F26A6A",
"&. c #F26D6D",
"*. c #F26F6F",
"=. c #F37071",
"-. c #F37273",
";. c #F37474",
":. c #F47676",
">. c #F47777",
",. c #F57979",
"<. c #F57B7A",
"1. c #F57B7B",
"2. c #F67E7E",
"3. c #F68F8F",
"4. c #FC8B8C",
"5. c #FB9696",
"6. c #F99E9F",
"7. c #F8A7A8",
"8. c #F9AAAA",
"9. c #FBAAAA",
"0. c #FABDBD",
"q. c #F7C3C3",
"w. c #FBC0C0",
"e. c #F9C5C6",
"r. c #F7CACB",
"t. c #F7CECE",
"y. c #F7CECF",
"u. c #FACDCE",
"i. c #F8D0D1",
"p. c #FCD1D1",
"a. c #F6D8D8",
"s. c #F8D8D8",
"d. c #F5E1E1",
"f. c #F8E7E7",
"g. c #FAECEC",
"h. c #FBEEEE",
/* pixels */
"                                ",
"                                ",
"                                ",
"6 5 5 5 5 5 3 3 1 1 > : : - - - ",
"5 1.1.1.>.:.=.&.%.#.@.X.~ Q T & ",
"5 1.o.o.X.` ` 4.5.F Z c z d L & ",
"5 ,.o.X.] | ] h.0. .Z h p i G $ ",
"5 :.^ ] ] p.w.u.e.f.t.m i t C $ ",
"5 -.Q R R 8.g.6.7.q.1.x r q b $ ",
"3 *.R I F F 8.u.t.a.f r q 0 k + ",
"3 %.I K A E s.r.3.d.B q 9 9 h + ",
"1 #.J D m B ` z y ` w 9 7 , s X ",
"> @.( ^ ! W L H S n v k h s s . ",
"1 : - - - * & & $ @ + + + X X + ",
"                                ",
"                                "
};
