/* XPM */
static char *hn[] = {
/* columns rows colors chars-per-pixel */
"16 16 153 2 ",
"   c None",
".  c #00004B",
"X  c #00004D",
"o  c #000051",
"O  c #000053",
"+  c #000055",
"@  c #000057",
"#  c #000059",
"$  c #00005F",
"%  c #000063",
"&  c #000067",
"*  c #00006D",
"=  c #00006F",
"-  c #000071",
";  c #000075",
":  c #00007B",
">  c #00007F",
",  c #000083",
"<  c #000087",
"1  c #000089",
"2  c #00008B",
"3  c #00008D",
"4  c #00008F",
"5  c #000093",
"6  c #000097",
"7  c #000399",
"8  c #00079B",
"9  c #00079D",
"0  c #000D9F",
"q  c #0011A1",
"w  c #001FA5",
"e  c #0B32B1",
"r  c #0F36B2",
"t  c #1339B4",
"y  c #183EB8",
"u  c #3B519B",
"i  c #1E42B9",
"p  c #2347BB",
"a  c #294BBC",
"s  c #2C4EBF",
"d  c #2F50BC",
"f  c #2E50BF",
"g  c #3655BE",
"h  c #3757BF",
"j  c #455BA5",
"k  c #3154C1",
"l  c #3456C2",
"z  c #3758C4",
"x  c #3B5BC0",
"c  c #3A5AC3",
"v  c #3F5EC2",
"b  c #3D5EC6",
"n  c #3F5EC6",
"m  c #4261C3",
"M  c #4664C4",
"N  c #4A67C6",
"B  c #4262C8",
"V  c #4463C8",
"C  c #4766CA",
"Z  c #4967C8",
"A  c #4F6BC8",
"S  c #4C6ACC",
"D  c #536FCA",
"F  c #516ECD",
"G  c #5773CC",
"H  c #5572CF",
"J  c #5873CC",
"K  c #5B76CD",
"L  c #5C77CD",
"P  c #5975D1",
"I  c #5C78D1",
"U  c #5F7BD3",
"Y  c #607ACF",
"T  c #607BCF",
"R  c #647ED1",
"E  c #657FD1",
"W  c #667FD3",
"Q  c #6881D3",
"!  c #6983D3",
"~  c #6C84D5",
"^  c #7088D6",
"/  c #748BD7",
"(  c #778FD8",
")  c #7A91DA",
"_  c #7B92DA",
"`  c #7D94DA",
"'  c #7F95DC",
"]  c #8393C9",
"[  c #8797CD",
"{  c #8195D6",
"}  c #8197DC",
"|  c #8498D9",
" . c #879BD9",
".. c #97A8DF",
"X. c #A9B5DD",
"o. c #ABB7DE",
"O. c #A2B0E1",
"+. c #A6B5E2",
"@. c #ADB9E0",
"#. c #AEBAE0",
"$. c #AEBBE2",
"%. c #B2BDE2",
"&. c #B4BFE1",
"*. c #B0BDE4",
"=. c #B2BFE5",
"-. c #B5BFE7",
";. c #B4C0E3",
":. c #B6C2E5",
">. c #B9C4E6",
",. c #B9C4E7",
"<. c #B8C4E8",
"1. c #BBC6E9",
"2. c #BDC8E9",
"3. c #BEC8EA",
"4. c #BFCAEB",
"5. c #C1C1C1",
"6. c #C5C5C5",
"7. c gray78",
"8. c #C0CAEA",
"9. c #C1CAEC",
"0. c #C2CCEC",
"q. c #C2CDED",
"w. c #C5CFEE",
"e. c #C6D0EF",
"r. c #CDD6F0",
"t. c #D0D8F2",
"y. c gray90",
"u. c #E7E7E7",
"i. c #E3E5F1",
"p. c #EBECF1",
"a. c #EAEDF3",
"s. c #E8EBF6",
"d. c gray95",
"f. c #F3F3F3",
"g. c #F3F3F4",
"h. c #F4F4F4",
"j. c #F4F5F5",
"k. c gray96",
"l. c #F6F6F6",
"z. c gray97",
"x. c #F3F4F9",
"c. c #F3F4FB",
"v. c #F8F8F8",
"b. c #F8F9F9",
"n. c #F9F9F9",
"m. c #F9F9FA",
"M. c gray98",
"N. c #FAFAFB",
"B. c #FBFBFB",
"V. c #FBFCFB",
"C. c gray99",
"Z. c #FDFDFD",
"A. c #FEFEFE",
/* pixels */
"                                ",
"                                ",
"                                ",
"w q q q 0 8 7 7 5 4 2 < , > : : ",
"0 } ' ' ` _ ( / ^ ~ Q R Y K G = ",
"9 _ R P P H F S C B b z k s Z & ",
"[ t.e.w.q.9.4.3.1.<.:.=.$.$.>.j ",
"u.A.A.A.c...N.m.m.v. .a.k.k.k.7.",
"u.A.A.m.m.a.m.+.O.z.i.k.h.f.k.7.",
"u.A.C.A.x.| m.v.z.k.{ p.f.d.d.5.",
"] r.q.8.3.>.>.:.=.%.$.o.X.X.&.u ",
"4 R V n c k f a p i y t r e g . ",
"< ! R Y L J D A N M m v h h h . ",
": , > : ; - = & % $ # @ O O X O ",
"                                ",
"                                "
};
