/* XPM */
static char *ht[] = {
/* columns rows colors chars-per-pixel */
"16 16 158 2 ",
"   c None",
".  c #000079",
"X  c #C50000",
"o  c #C90000",
"O  c #CB0000",
"+  c #CF0000",
"@  c #D10000",
"#  c #D30000",
"$  c #D70000",
"%  c #D90000",
"&  c #DB0000",
"*  c #DF0000",
"=  c #E10000",
"-  c #E30000",
";  c #E50000",
":  c #E70000",
">  c #E90000",
",  c #FD0000",
"<  c #E5200B",
"1  c #E5240E",
"2  c #E52510",
"3  c #E72913",
"4  c #E72A14",
"5  c #E82D19",
"6  c #E82E19",
"7  c #F22814",
"8  c #F32D19",
"9  c #E9321E",
"0  c #E9321F",
"q  c #F4321F",
"w  c #EB3723",
"e  c #EB3724",
"r  c #E73E2C",
"t  c #EC3C29",
"y  c #EC3C2A",
"u  c #F53724",
"i  c #F63B2A",
"p  c #E8402F",
"a  c #E8412F",
"s  c #ED412E",
"d  c #ED412F",
"f  c #F7402F",
"g  c #E94432",
"h  c #E94735",
"j  c #EE4634",
"k  c #EE4734",
"l  c #EB4B39",
"z  c #EF4B3A",
"x  c #EC4E3D",
"c  c #F44636",
"v  c #F84535",
"b  c #F04C3A",
"n  c #F94B3A",
"m  c #F0513F",
"M  c #F1513F",
"N  c #ED5242",
"B  c #EE5746",
"V  c #EF5B4B",
"C  c #F15544",
"Z  c #F15645",
"A  c #FA5040",
"S  c #FB5445",
"D  c #F25A49",
"F  c #FB5A49",
"G  c #FC5E4F",
"H  c #EF6050",
"J  c #F16455",
"K  c #F26858",
"L  c #F26C5D",
"P  c #F37062",
"I  c #F47566",
"U  c #F5796A",
"Y  c #FD7B6F",
"T  c #000099",
"R  c #00009B",
"E  c #00009F",
"W  c #0000A3",
"Q  c #0000AB",
"!  c #0000AF",
"~  c #0B15AF",
"^  c #0000B1",
"/  c #0000B5",
"(  c #0001B9",
")  c #0007BB",
"_  c #000FBF",
"`  c #5258BE",
"'  c #0013C1",
"]  c #0019C3",
"[  c #001FC5",
"{  c #0123C5",
"}  c #0021C7",
"|  c #0325C7",
" . c #0327C7",
".. c #0527C7",
"X. c #465FCF",
"o. c #565CC0",
"O. c #5A60C3",
"+. c #5F65C5",
"@. c #4B63D1",
"#. c #4F65D1",
"$. c #5068D3",
"%. c #5369D3",
"&. c #5469D3",
"*. c #546CD4",
"=. c #586DD4",
"-. c #586DD5",
";. c #5970D6",
":. c #5D71D6",
">. c #5E74D8",
",. c #6369C7",
"<. c #676DC9",
"1. c #6A70C8",
"2. c #6C72CB",
"3. c #6F76CD",
"4. c #7379CF",
"5. c #6075D5",
"6. c #677AD7",
"7. c #6175D8",
"8. c #6276D8",
"9. c #6378DA",
"0. c #6679DA",
"q. c #667ADA",
"w. c #677CDB",
"e. c #6B7ED8",
"r. c #6A7DDB",
"t. c #6B7DDB",
"y. c #787DD1",
"u. c #6F82DA",
"i. c #6B80DD",
"p. c #6E81DD",
"a. c #6F81DD",
"s. c #6F83DE",
"d. c #7B81D3",
"f. c #7F84D4",
"g. c #7284DE",
"h. c #7286DF",
"j. c #7485DC",
"k. c #7687DF",
"l. c #7889DD",
"z. c #7B8CDE",
"x. c #7689E0",
"c. c #798AE0",
"v. c #7B8DE2",
"b. c #7F8FE0",
"n. c #7C8DE2",
"m. c #7E8FE2",
"M. c #969ADC",
"N. c #8393E1",
"B. c #8696E2",
"V. c #8A99E3",
"C. c #8C9BE5",
"Z. c #8F9EE5",
"A. c #8F9EE6",
"S. c #919FE7",
"D. c #93A1E7",
"F. c #94A3E8",
"G. c #94A4E8",
"H. c #95A4E8",
/* pixels */
"                                ",
"                                ",
"                                ",
".. .....} [ ] ' _ ) ( / ^ ! Q Q ",
" .H.H.D.S.S.C.V.B.N.N.z.l.k.u.W ",
" .F.n.n.l.k.g.s.t.q.5.:.-.&.e.E ",
" .D.v.c.x.h.s.t.q.8.:.*.%.#.6.T ",
"} A.x.h.s.t.q.8.>.-.%.%.@.X.5.T ",
"~ M.N.d.y.4.3.2.<.,.+.o.o.` 1.. ",
", Y F F S A n v v i u u 8 7 c ; ",
"> U D C C b k s t w 9 6 3 1 g O ",
"; I C b b j s y w 9 5 2 1 < g X ",
"; P L K J H V B N x l h g p r X ",
"- - * % % $ $ @ @ + O O O X X X ",
"                                ",
"                                "
};
