/* XPM */
static char *hu[] = {
/* columns rows colors chars-per-pixel */
"16 16 120 2 ",
"   c None",
".  c black",
"X  c #000100",
"o  c #000700",
"O  c #000D00",
"+  c #001300",
"@  c #001B00",
"#  c #002100",
"$  c #002700",
"%  c #002F00",
"&  c #003500",
"*  c #003B00",
"=  c #004100",
"-  c #004700",
";  c #004F00",
":  c #0B7B0B",
">  c #0F7E0E",
",  c #107E10",
"<  c #A30000",
"1  c #A90000",
"2  c #AB0000",
"3  c #AF0000",
"4  c #B30000",
"5  c #B70000",
"6  c #B90000",
"7  c #BD0000",
"8  c #BF0000",
"9  c #C30000",
"0  c #C70000",
"q  c #C90000",
"w  c #CD0000",
"e  c #D52626",
"r  c #D72B2B",
"t  c #D72C2C",
"y  c #D93131",
"u  c #DA3736",
"i  c #DA3737",
"p  c #DC3C3C",
"a  c #DC3C3D",
"s  c #DE4142",
"d  c #DE4242",
"f  c #DB4444",
"g  c #DF4747",
"h  c #DC4949",
"j  c #DD4E4E",
"k  c #DF5353",
"l  c #E04B4B",
"z  c #E14C4C",
"x  c #E15151",
"c  c #E35454",
"v  c #E15757",
"b  c #E45959",
"n  c #E25C5C",
"m  c #E45C5C",
"M  c #E55F5F",
"N  c #E36060",
"B  c #E46565",
"V  c #E66969",
"C  c #E66D6D",
"Z  c #E87071",
"A  c #E87474",
"S  c #E87777",
"D  c #E97979",
"F  c #EA7B7A",
"G  c #EA7B7B",
"H  c #138113",
"J  c #148114",
"K  c #188419",
"L  c #198419",
"P  c #1E871E",
"I  c #1F871F",
"U  c #238A23",
"Y  c #248B24",
"T  c #298D29",
"R  c #2A8E2A",
"E  c #2C8C2C",
"W  c #2F8F2F",
"Q  c #2E902E",
"!  c #2F912F",
"~  c #328F32",
"^  c #339032",
"/  c #359335",
"(  c #349434",
")  c #399539",
"_  c #3A973A",
"`  c #3D983D",
"'  c #3F9A3F",
"]  c #409B3F",
"[  c #429942",
"{  c #449E44",
"}  c #459E45",
"|  c #469D46",
" . c #4B9F4B",
".. c #49A149",
"X. c #50A250",
"o. c #54A455",
"O. c #58A858",
"+. c #5DAA5D",
"@. c #61AD62",
"#. c #66AF66",
"$. c #6AB36A",
"%. c gray89",
"&. c gray90",
"*. c #E7E7E7",
"=. c gray95",
"-. c #F3F3F3",
";. c #F4F4F4",
":. c #F4F5F5",
">. c gray96",
",. c #F6F6F6",
"<. c gray97",
"1. c #F8F8F8",
"2. c #F9F9F9",
"3. c #FAFAFA",
"4. c #FBFBFB",
"5. c #FBFCFB",
"6. c gray99",
"7. c #FDFCFD",
"8. c #FDFDFD",
"9. c #FEFEFE",
/* pixels */
"                                ",
"                                ",
"                                ",
"w w w w w q q q 9 9 8 8 6 5 4 3 ",
"w G G S S A A C V B M n v k j 2 ",
"w G M m m c z l g s a u y t h 2 ",
"w G m m c z z l s p u y r e f < ",
"8.8.8.8.6.6.6.3.3.<.3.:.:.;.:.*.",
"8.8.8.5.6.3.3.3.<.<.:.:.:.;.;.%.",
"8.8.8.5.6.3.3.1.<.:.:.:.;.;.;.%.",
"; $...} ] ) ( ! R Y I K J , ~ . ",
"- #.{ ] ) ( Q E Y P K H > : W . ",
"= @.+.O.o.X...| [ ` ) / ~ W E . ",
"* & & $ # @ + O o . . . . . . . ",
"                                ",
"                                "
};
