/* XPM */
static char *ie[] = {
/* columns rows colors chars-per-pixel */
"16 16 135 2 ",
"   c None",
".  c #005300",
"X  c #005B00",
"o  c #006300",
"O  c #006700",
"+  c #006F00",
"@  c #007500",
"#  c #007700",
"$  c #007B00",
"%  c #007F00",
"&  c #DD0000",
"*  c #DF0000",
"=  c #E10000",
"-  c #E30000",
";  c #E50000",
":  c #E70000",
">  c #E90000",
",  c #EB0000",
"<  c #EF1300",
"1  c #ED1B00",
"2  c #F11900",
"3  c #F31F00",
"4  c #F52100",
"5  c #F1670B",
"6  c #F1690E",
"7  c #F26A10",
"8  c #F26913",
"9  c #F26D14",
"0  c #F26E14",
"q  c #F36D19",
"w  c #F36F19",
"e  c #F3701A",
"r  c #F4721F",
"t  c #F4741F",
"y  c #F47520",
"u  c #F57525",
"i  c #F57725",
"p  c #F57A26",
"a  c #F6792B",
"s  c #F67B2B",
"d  c #F27B2C",
"f  c #F27C2F",
"g  c #F27D2F",
"h  c #F67C2C",
"j  c #F27F32",
"k  c #F37F32",
"l  c #F77E31",
"z  c #F37F35",
"x  c #008300",
"c  c #008500",
"v  c #008700",
"b  c #008900",
"n  c #009100",
"m  c #3AAA3A",
"M  c #3FAE3F",
"N  c #40AD3F",
"B  c #44B144",
"V  c #45B045",
"C  c #45B145",
"Z  c #4BB34B",
"A  c #49B449",
"S  c #4FB64F",
"D  c #4FB74F",
"F  c #50B550",
"G  c #54B555",
"H  c #54B754",
"J  c #53B953",
"K  c #54B954",
"L  c #58B958",
"P  c #59BA59",
"I  c #58BB59",
"U  c #58BC58",
"Y  c #5CBD5C",
"T  c #5DBC5D",
"R  c #5FBF5F",
"E  c #61BE62",
"W  c #66C066",
"Q  c #6AC36A",
"!  c #6FC46F",
"~  c #72C673",
"^  c #77C777",
"/  c #76C876",
"(  c #79C879",
")  c #7BCA7A",
"_  c #7BCA7B",
"`  c #F78131",
"'  c #F48236",
"]  c #F88237",
"[  c #F4853B",
"{  c #F5893F",
"}  c #F68C44",
"|  c #F78F49",
" . c #F7934E",
".. c #F89653",
"X. c #F99857",
"o. c #FA995C",
"O. c #C5B5A9",
"+. c #B7C7B7",
"@. c gray79",
"#. c #CBCBCB",
"$. c gray81",
"%. c gray82",
"&. c #E1DFDB",
"*. c gray89",
"=. c gray90",
"-. c #E5E7E5",
";. c #E7E7E7",
":. c #F3EAE2",
">. c #F4EBE4",
",. c #F5ECE5",
"<. c #F4ECE6",
"1. c #F6EEE7",
"2. c #F7EFE8",
"3. c #E9F2E9",
"4. c #EAF3EA",
"5. c #EBF3EB",
"6. c #ECF4EC",
"7. c #EDF5ED",
"8. c #EEF6EE",
"9. c #EFF7EF",
"0. c #F8F0EA",
"q. c #F9F1EB",
"w. c #F4F4F4",
"e. c gray96",
"r. c #F6F6F6",
"t. c gray97",
"y. c #F0F8F0",
"u. c #F8F8F8",
"i. c #F9F9F9",
"p. c #FBFAF8",
"a. c gray98",
"s. c #FBFBFB",
"d. c gray99",
"f. c #FDFDFD",
"g. c #FDFDFE",
/* pixels */
"                                ",
"                                ",
"                                ",
"n b b v x ;.;.;.;.*.&.4 3 2 < 1 ",
"v _ _ _ ^ s.f.f.g.g.p.o.X... ., ",
"b _ R Y P 9.f.s.s.p.q.] ` h | , ",
"v ( Y Y H 9.s.s.s.u.2.l s p } ; ",
"v ^ K K F 9.s.s.u.u.2.s i y { ; ",
"x ~ J S Z 9.s.s.u.u.2.u r e [ ; ",
"% ! S Z V 5.e.s.u.e.>.y q 9 ' ; ",
"$ Q A B M 5.s.e.e.e.>.q 9 7 j * ",
"$ E B M m 3.e.e.e.w.:.8 6 5 g * ",
"+ E T P G 9.e.s.e.e.<.z j g d * ",
"@ O o X . +.%.#.#.@.O.= * * & & ",
"                                ",
"                                "
};
