/* XPM */
static char *il[] = {
/* columns rows colors chars-per-pixel */
"16 16 93 2 ",
"   c None",
".  c #0000BB",
"X  c #0000CF",
"o  c #0025DF",
"O  c #0747E9",
"+  c #5884F2",
"@  c #5A85F2",
"#  c #5D87F3",
"$  c #5D82F6",
"%  c #6285F7",
"&  c #608AF3",
"*  c #638CF4",
"=  c #668FF5",
"-  c #678AF8",
";  c #6B8BF9",
":  c #768EF7",
">  c #708FFA",
",  c #6A91F6",
"<  c #6E94F7",
"1  c #7197F7",
"2  c #7599F7",
"3  c #7494FB",
"4  c #759AF8",
"5  c #799DF8",
"6  c #799EF9",
"7  c #7C9FF9",
"8  c #7DA0F9",
"9  c #7FA3FA",
"0  c #BBBBBB",
"q  c gray74",
"w  c gray75",
"e  c #8093F6",
"r  c #8194F7",
"t  c #869FF5",
"y  c #8399FA",
"u  c #889FFA",
"i  c #9B9BF9",
"p  c #9F9FF8",
"a  c #8DA6F7",
"s  c #80A4FA",
"d  c #83A5FB",
"f  c #84A6FB",
"g  c #8AA0FB",
"h  c #87A8FC",
"j  c #8AAAFC",
"k  c #8DADFD",
"l  c #95ABFA",
"z  c #90AFFE",
"x  c #92B1FE",
"c  c #95B3FE",
"v  c #96B4FE",
"b  c #9CB1FC",
"n  c #99B5FF",
"m  c #C1C1C1",
"M  c #C3C3C3",
"N  c #C5C5C5",
"B  c gray78",
"V  c #CBCBCB",
"C  c #CDCDCD",
"Z  c gray81",
"A  c LightGray",
"S  c #D5D5D5",
"D  c #D7D7D7",
"F  c gray86",
"G  c #DFDFDF",
"H  c #E1E1E1",
"J  c gray89",
"K  c #E5E5E5",
"L  c #E7E7E7",
"P  c #E9E9E9",
"I  c #E9E9F6",
"U  c #E9E9F8",
"Y  c #EFEFF9",
"T  c #ECECFB",
"R  c #F1F1F1",
"E  c gray95",
"W  c #F3F3F3",
"Q  c #F2F2F4",
"!  c #F4F4F4",
"~  c #F4F5F5",
"^  c gray96",
"/  c #F6F6F6",
"(  c gray97",
")  c #F8F8F8",
"_  c #F9F9F9",
"`  c gray98",
"'  c #FBFBFB",
"]  c #FBFCFB",
"[  c gray99",
"{  c #FDFCFD",
"}  c #FDFDFD",
"|  c #FEFEFE",
" . c white",
/* pixels */
"                                ",
"                                ",
"                                ",
"P P P P L L L L J H G F F D S A ",
"O n c c c x z k j f d 8 7 5 2 X ",
"P  . . . .[ [ [ ' ' ' ' ( / ( C ",
"P  . . .[  .[ u u ) / / / / / V ",
"L  . .' [ b 3 y i - a / / ! / B ",
"L  . .` { T 3 Q I % I / E W / N ",
"J  .` { ` l ; p : $ t / E E Q m ",
"J { { ` ' ) ' : e / E E E E W w ",
"H ` ` ` ) ) ( / / ! E E E E E q ",
"o f d 8 5 4 1 < , = * & # @ @ . ",
"F F D S S C C V V N m m q q 0 0 ",
"                                ",
"                                "
};
