/* XPM */
static char *in[] = {
/* columns rows colors chars-per-pixel */
"16 16 155 2 ",
"   c None",
".  c #001F00",
"X  c #002100",
"o  c #002500",
"O  c #002700",
"+  c #002900",
"@  c #002D00",
"#  c #003300",
"$  c #003900",
"%  c #003D00",
"&  c #004100",
"*  c #004700",
"=  c #004D00",
"-  c #005300",
";  c #005900",
":  c #005D00",
">  c #006300",
",  c #006900",
"<  c #006F00",
"1  c #007300",
"2  c #389539",
"3  c #3C973C",
"4  c #3D973D",
"5  c #409940",
"6  c #419941",
"7  c #459C45",
"8  c #499F49",
"9  c #4DA14D",
"0  c #4EA24E",
"q  c #53A253",
"w  c #52A452",
"e  c #55A455",
"r  c #56A456",
"t  c #56A656",
"y  c #57A757",
"u  c #58A558",
"i  c #59A659",
"p  c #5BA85B",
"a  c #5BA95B",
"s  c #5BAA5B",
"d  c #5FA95F",
"f  c #60AC60",
"g  c #62AC62",
"h  c #64AF64",
"j  c #65AF64",
"k  c #65AE65",
"l  c #69B069",
"z  c #69B169",
"x  c #69B269",
"c  c #6DB26D",
"v  c #6DB46D",
"b  c #71B471",
"n  c #75B775",
"m  c #79B979",
"M  c #7DBC7D",
"N  c #E99700",
"B  c #EB9B00",
"V  c #ED9F00",
"C  c #EFA300",
"Z  c #F1A500",
"A  c #F3A900",
"S  c #F5AD00",
"D  c #E7B100",
"F  c #F7B100",
"G  c #F9B300",
"H  c #FBB500",
"J  c #FDB900",
"K  c #FDBB00",
"L  c #FDBD00",
"P  c #FDBF00",
"I  c #FFBF00",
"U  c #F6CE2C",
"Y  c #F7D031",
"T  c #F8D237",
"R  c #FDD535",
"E  c #F9D43D",
"W  c #FAD542",
"Q  c #FBD747",
"!  c #F7D549",
"~  c #F7D74E",
"^  c #FCD84C",
"/  c #F8D853",
"(  c #FDDA51",
")  c #F9D957",
"_  c #FDDB54",
"`  c #FEDC59",
"'  c #FADB5C",
"]  c #FEDE5C",
"[  c #FEDF5F",
"{  c #FBDD60",
"}  c #FCDD65",
"|  c #F4DA69",
" . c #F6DB6D",
".. c #FCDF69",
"X. c #F7DD71",
"o. c #F8DE75",
"O. c #F5DE7E",
"+. c #FDE06D",
"@. c #FDE271",
"#. c #FEE274",
"$. c #FEE377",
"%. c #FEE479",
"&. c #FFE47A",
"*. c #FFE47B",
"=. c #7F92C7",
"-. c #80BE80",
";. c #838CBD",
":. c #A1AAB5",
">. c #A4ACB8",
",. c #84C084",
"<. c #88C388",
"1. c #D3CA90",
"2. c #D8D09A",
"3. c #FCE588",
"4. c #FCE68B",
"5. c #FDE78E",
"6. c #FEE890",
"7. c #FEEDA4",
"8. c #8495CA",
"9. c #8A9ECE",
"0. c #9AA5CF",
"q. c #96A8D3",
"w. c #97A9D5",
"e. c #A1B3DA",
"r. c #BDC0D9",
"t. c #BBC2DE",
"y. c #C4CBE4",
"u. c #C9CDE2",
"i. c gray89",
"p. c #E3E3E5",
"a. c #E3E5E7",
"s. c gray95",
"d. c #F2F2F3",
"f. c #F3F3F3",
"g. c #F2F3F4",
"h. c #F3F3F4",
"j. c #F4F4F4",
"k. c #F4F4F5",
"l. c gray96",
"z. c #F5F6F6",
"x. c #F6F6F6",
"c. c gray97",
"v. c gray98",
"b. c #FBFBFB",
"n. c #FBFCFB",
"m. c #FBFBFC",
"M. c #FBFCFC",
"N. c #FBFCFD",
"B. c #FBFDFD",
"V. c gray99",
"C. c #FCFCFD",
"Z. c #FDFDFD",
"A. c #FCFDFE",
"S. c #FDFDFE",
"D. c #FDFEFE",
/* pixels */
"                                ",
"                                ",
"                                ",
"I I I I P J I J H H F S A Z C V ",
"I *.*.*.*.@.@.+.+.} ' ' ) / ~ B ",
"I *.] ] ` _ ( ^ Q W E T Y U ! N ",
"R 7.6.5.4.4.2.:.:.1.o.X. .| O.D ",
"B.D.D.m.B.m.e.0.u.w.v.k.k.g.k.a.",
"Z.D.D.v.B.v.w.r.;.9.x.k.j.s.j.a.",
"Z.D.D.v.v.v.y.8.=.t.k.j.f.s.j.i.",
"1 <.v x j g p y w 9 9 7 6 4 i O ",
"< ,.l h f p r w 9 8 6 5 4 2 r X ",
", -.M m n b c l k g d p r e q . ",
"> : ; - = * & % $ # @ + O X . . ",
"                                ",
"                                "
};
