/* XPM */
static char *io[] = {
/* columns rows colors chars-per-pixel */
"16 16 170 2 ",
"   c None",
".  c #00290F",
"X  c #000037",
"o  c #000039",
"O  c #00003D",
"+  c #000041",
"@  c #000043",
"#  c #000049",
"$  c #00004B",
"%  c #00004F",
"&  c #000053",
"*  c #000057",
"=  c #000059",
"-  c #00005B",
";  c #000061",
":  c #000067",
">  c #00006B",
",  c #00006D",
"<  c #000071",
"1  c #000073",
"2  c #000075",
"3  c #00007F",
"4  c #A72B53",
"5  c #A12955",
"6  c #833771",
"7  c #AA6646",
"8  c #AB6D4C",
"9  c #B07356",
"0  c #A94D73",
"q  c #C74446",
"w  c #CE4542",
"e  c #CE5A4E",
"r  c #F55F5F",
"t  c #6C9B4B",
"y  c #6F9C5C",
"u  c #75A551",
"i  c #76A356",
"p  c #79A855",
"a  c #75A158",
"s  c #75A15F",
"d  c #7EA95F",
"f  c #719A60",
"g  c #7AA563",
"h  c #EECC39",
"j  c #81AA65",
"k  c #85AC70",
"l  c #99BB7F",
"z  c #B2A564",
"x  c #DDC945",
"c  c #EFCF43",
"v  c #EBD54E",
"b  c #DDCD7A",
"n  c #000081",
"m  c #000083",
"M  c #000089",
"N  c #000991",
"B  c #3F278B",
"V  c #5B4799",
"C  c #4049A7",
"Z  c #454DAA",
"A  c #4951AC",
"S  c #4A52AC",
"D  c #4E56AF",
"F  c #4F57AF",
"G  c #5259AE",
"H  c #535AB1",
"J  c #535BB2",
"K  c #565FB1",
"L  c #585FB4",
"P  c #5960B2",
"I  c #5D65B3",
"U  c #5860B4",
"Y  c #5961B5",
"T  c #5C64B7",
"R  c #5D64B7",
"E  c #5E65B7",
"W  c #5F67B7",
"Q  c #636DB1",
"!  c #6068B8",
"~  c #6269B9",
"^  c #636ABA",
"/  c #656DBB",
"(  c #676FBB",
")  c #666DBC",
"_  c #676EBC",
"`  c #6A71BD",
"'  c #6E75BF",
"]  c #B57F9F",
"[  c #8F75AB",
"{  c #837EBB",
"}  c #D77D8D",
"|  c #94B383",
" . c #9BB597",
".. c #9287BE",
"X. c #8F9BB4",
"o. c #8F93BB",
"O. c #9397BF",
"+. c #A382B1",
"@. c #FB9896",
"#. c #FB9F9C",
"$. c #F49FA1",
"%. c #C1A0BE",
"&. c #DEA7B6",
"*. c #DAA7B8",
"=. c #F5A1A0",
"-. c #FCA4A1",
";. c #FEAAA7",
":. c #E9B6BE",
">. c #F8B4B4",
",. c #F9BFBF",
"<. c #AAC59C",
"1. c #8D8AC2",
"2. c #8188C8",
"3. c #898ECC",
"4. c #998FC3",
"5. c #999DC5",
"6. c #9DA2CD",
"7. c #9DA2D0",
"8. c #9EA2D0",
"9. c #9DA2D3",
"0. c #A1A3CB",
"q. c #A9ABCF",
"w. c #B8ABCE",
"e. c #A6B1C3",
"r. c #A3A8D4",
"t. c #A7ABD6",
"y. c #A7ACD4",
"u. c #A9AED3",
"i. c #AAAED7",
"p. c #AFB3D9",
"a. c #B3B6D8",
"s. c #B1B6DD",
"d. c #B4B8D8",
"f. c #B7BBDA",
"g. c #B4B8DD",
"h. c #BBBFDF",
"j. c #B9C1D0",
"k. c #BBC0DF",
"l. c #BDC0DD",
"z. c #BCC0E0",
"x. c #BCC0E1",
"c. c #C1C5DA",
"v. c #E2C3CC",
"b. c #E0CEDC",
"n. c #F1CCD1",
"m. c #EDD4DB",
"M. c #FDD3D0",
"N. c #F2D6DC",
"B. c #F5D9DD",
"V. c #C2C4E1",
"C. c #C3C6E0",
"Z. c #C2C6E2",
"A. c #C3C6E2",
"S. c #C4C5E2",
"D. c #C7C9E4",
"F. c #DBD3E5",
"G. c #D3D4EA",
"H. c #D7D7E9",
"J. c #D4D5EB",
"K. c #D6D8EC",
"L. c #DADBEA",
"P. c #DEDFED",
"I. c #DCDDEE",
"U. c #EEDBE2",
"Y. c #F5DEE2",
"T. c #DEE0EE",
"R. c #FEE3E1",
"E. c #F5EBED",
"W. c #E0E0F1",
"Q. c #F7F2F7",
/* pixels */
"                                ",
"                                ",
"                                ",
"} [ N 5 4 n 6 B n n 1 , . > : ; ",
"V Y.Q.N.:.U.E.9.x.J.j.l <. .c.q.",
"r >.;.#.@.-.=.+._ ^ W g s f k * ",
"0 B.R.,.$.M.n...i.D.d p u a | 0.",
"4.m.w.*.&.s.v.{ W Y K y 8 t Q $ ",
"] F.W.b.%.V.T.1.r.V.i e.7 X.j 5.",
"M 3.' ` ) ^ W P J D S e c q P + ",
") K.g.h.I.t.h.J.9.h.6.b w v f.O.",
"3 2.) ! T L J D A Z C z h x G o ",
"I J.h.C.T.p.C.L.y.C.u.a.9 6.d.O.",
"1 1 > : ; - - & % $ + + O o X X ",
"                                ",
"                                "
};
