/* XPM */
static char *iq[] = {
/* columns rows colors chars-per-pixel */
"16 16 142 2 ",
"   c None",
".  c black",
"X  c #0B0B0B",
"o  c #0F0F0E",
"O  c #131313",
"+  c #181919",
"@  c #1E1E1E",
"#  c #232323",
"$  c gray16",
"%  c #2C2C2C",
"&  c gray18",
"*  c #2F2F2F",
"=  c #323232",
"-  c #343434",
";  c #353535",
":  c #393939",
">  c #3A3A3A",
",  c gray24",
"<  c #3F3F3F",
"1  c gray26",
"2  c #444444",
"3  c #464646",
"4  c #4B4B4B",
"5  c #505050",
"6  c #545455",
"7  c #585858",
"8  c #5D5D5D",
"9  c #616162",
"0  c gray39",
"q  c gray40",
"w  c #6B6A6B",
"e  c #6C686C",
"r  c #706E70",
"t  c #737273",
"y  c #787678",
"u  c gray48",
"i  c #7D7A7D",
"p  c #7F7D7F",
"a  c #E70000",
"s  c #E90000",
"d  c #EB0000",
"f  c #ED0000",
"g  c #EF0000",
"h  c #F10000",
"j  c #F30000",
"k  c #F50000",
"l  c #F70000",
"z  c #F90000",
"x  c #FB0000",
"c  c #FD0000",
"v  c red",
"b  c #F62C2C",
"n  c #F73131",
"m  c #F83737",
"M  c #FF3535",
"N  c #F93C3D",
"B  c #FA4242",
"V  c #FB4747",
"C  c #F74949",
"Z  c #F74E4E",
"A  c #FC4C4C",
"S  c #F85353",
"D  c #FD5151",
"F  c #F95757",
"G  c #FD5454",
"H  c #FE5959",
"J  c #FA5C5C",
"K  c #FE5C5C",
"L  c #FE5F5F",
"P  c #FB6060",
"I  c #FC6565",
"U  c #F56A6A",
"Y  c #FC6969",
"T  c #FD6D6D",
"R  c #F67071",
"E  c #F77273",
"W  c #FD7071",
"Q  c #F87777",
"!  c #FE7474",
"~  c #FE7777",
"^  c #F67F7F",
"/  c #F97A7A",
"(  c #FE7979",
")  c #FF7B7A",
"_  c #FF7B7B",
"`  c #FA7E7F",
"'  c #6BBF6D",
"]  c #848284",
"[  c #888588",
"{  c #8C8B8C",
"}  c #8D8A8D",
"|  c #A0A0A0",
" . c #FB8284",
".. c #FC8585",
"X. c #FD8889",
"o. c #FD8B8B",
"O. c #FE8F91",
"+. c #FE9091",
"@. c #FEA4A4",
"#. c #89CD8B",
"$. c #8DCF8E",
"%. c #8BD08D",
"&. c #8FCD92",
"*. c #95CF96",
"=. c #9BD19D",
"-. c #9CD39E",
";. c #A8DAA9",
":. c #ADDDAE",
">. c #B3E0B4",
",. c #B4E1B7",
"<. c #BCE2BD",
"1. c #BDE3BD",
"2. c #BDE0C0",
"3. c #BEE4C4",
"4. c #C1E5C4",
"5. c #C3E6C5",
"6. c #CAE7CD",
"7. c #D4ECD6",
"8. c gray89",
"9. c gray90",
"0. c #E7E7E7",
"q. c #E4F3E4",
"w. c #E7F6E7",
"e. c #E9F4E9",
"r. c #EAF5EA",
"t. c #EFF4EF",
"y. c #EEF6F1",
"u. c #EDF7F2",
"i. c gray95",
"p. c #F2F4F4",
"a. c #F4F4F4",
"s. c #F4F5F5",
"d. c gray96",
"f. c #F1F9F0",
"g. c #F5F8F8",
"h. c #F6FBFA",
"j. c #F8FCFC",
"k. c #F9FEFC",
"l. c gray99",
"z. c #FCFCFD",
"x. c #FDFDFD",
"c. c #FEFEFE",
/* pixels */
"                                ",
"                                ",
"                                ",
"v v v v x v v v x x l l j j f f ",
"v _ _ _ _ ! T T Y I P J F S Z d ",
"v _ K K H G G A V B N m n b C d ",
"M @.+.+.X.X... .` / Q E R U ^ a ",
"x.x.k.,.k.j.h.4.4.h.y.y.-.p.s.0.",
"x.x.,.#.;.3.7.#.$.6.2.&.' =.a.9.",
"x.l.l.:.w.q.f.<.<.r.e.y.*.i.a.8.",
"* | { } [ ] p i y t r w e 0 u . ",
". q 3 < : - * $ # @ + O o X * . ",
". 0 8 7 6 5 4 3 1 , : ; = * * . ",
". . . . . . . . . . . . . . . . ",
"                                ",
"                                "
};
