/* XPM */
static char *ir[] = {
/* columns rows colors chars-per-pixel */
"16 16 148 2 ",
"   c None",
".  c #004B00",
"X  c #004D00",
"o  c #005D00",
"O  c #006100",
"+  c #006300",
"@  c #006700",
"#  c #006D00",
"$  c #007100",
"%  c #007500",
"&  c #007900",
"*  c #007D00",
"=  c #DD0000",
"-  c #DF0000",
";  c #E10000",
":  c #E30000",
">  c #E50000",
",  c #E70000",
"<  c #E90000",
"1  c #EB0000",
"2  c #ED0000",
"3  c #EF0000",
"4  c #F10000",
"5  c #F30000",
"6  c #F50000",
"7  c #F70000",
"8  c #F90000",
"9  c #F10F0F",
"0  c #F11212",
"q  c #F21717",
"w  c #F31C1C",
"e  c #F42222",
"r  c #F52727",
"t  c #F22C2C",
"y  c #F22F2F",
"u  c #F62C2C",
"i  c #F23232",
"p  c #F73131",
"a  c #F33535",
"s  c #F83737",
"d  c #F43939",
"f  c #F53D3D",
"g  c #F93C3C",
"h  c #F64242",
"j  c #F74646",
"k  c #FA4141",
"l  c #FA4747",
"z  c #F74B4B",
"x  c #F85050",
"c  c #F95455",
"v  c #F95858",
"b  c #FA5D5D",
"n  c #FB6162",
"m  c #FC6969",
"M  c #008100",
"N  c #008300",
"B  c #008500",
"V  c #008700",
"C  c #008900",
"Z  c #009100",
"A  c #2EA62D",
"S  c #33A933",
"D  c #3FA33F",
"F  c #39AC39",
"G  c #3EAF3E",
"H  c #44B144",
"J  c #4BB34B",
"K  c #48B449",
"L  c #4EB34E",
"P  c #4EB74E",
"I  c #53B653",
"U  c #52B851",
"Y  c #56BA56",
"T  c #58B957",
"R  c #5ABC5A",
"E  c #5CBA5C",
"W  c #5EBE5E",
"Q  c #61BD60",
"!  c #60BF61",
"~  c #65BF65",
"^  c #69C169",
"/  c #6DC36D",
"(  c #70C471",
")  c #74C674",
"_  c #77C877",
"`  c #79C879",
"'  c #7BCA7B",
"]  c #7CCA7C",
"[  c #DF8381",
"{  c #F78282",
"}  c #FB8585",
"|  c #F88787",
" . c #F79191",
".. c #FA9B9B",
"X. c #F2A5A5",
"o. c #F9A2A2",
"O. c #F4A8A8",
"+. c #F6ABAB",
"@. c #F3AFAF",
"#. c #F8B5B5",
"$. c #F9B4B6",
"%. c #FAB6B7",
"&. c #FAB9B9",
"*. c #F8BABA",
"=. c #FBBCBC",
"-. c #A3D5A3",
";. c #AAD9AA",
":. c #AFDEB1",
">. c #B3DFB4",
",. c #B7E3B7",
"<. c #B8E1B8",
"1. c #BDE4BD",
"2. c #F2C2C2",
"3. c #F3C7C7",
"4. c #F5CCCC",
"5. c #F7CCCD",
"6. c #F9D2D2",
"7. c #FBD5D5",
"8. c #C8E4C8",
"9. c #CCE7CC",
"0. c #CDE6CD",
"q. c #C9E9C9",
"w. c #CFE9CF",
"e. c #D4ECD5",
"r. c #D7EED7",
"t. c #D9EFD9",
"y. c gray89",
"u. c gray90",
"i. c #E7E7E7",
"p. c #FCE5E5",
"a. c #F8EFF1",
"s. c gray95",
"d. c #F3F3F3",
"f. c #F6F2F2",
"g. c #F4F4F4",
"h. c #F4F5F5",
"j. c gray96",
"k. c #F6F6F6",
"l. c gray97",
"z. c #FBF3F5",
"x. c #F9F7F7",
"c. c gray98",
"v. c #FBFBFB",
"b. c #FBFCFB",
"n. c gray99",
"m. c #FDFCFD",
"M. c #FDFDFD",
"N. c #FEFEFE",
/* pixels */
"                                ",
"                                ",
"                                ",
"Z C C C B B M * & % $ # @ + o O ",
"B ' _ _ _ ) ( / ^ ^ Q E T I L X ",
"C ] ^ W R Y U J H H G F S A J X ",
",.q.t.1.r.<.e.,.w.:.0.;.8.-.0.D ",
"M.M.M.M.M.n.z.%.$.f.l.j.j.g.j.i.",
"M.M.M.n.M.v...o.*. .j.j.j.d.h.i.",
"M.M.n.n.c.c.l.| { f.j.g.f.s.s.y.",
"} p.=.7.*.6.#.5.+.4.O.3.X.2.@.[ ",
"8 m l k g s p u r e w q 0 9 i - ",
"8 n b v c x z j h f d a i y t = ",
"6 5 5 2 2 2 1 1 , , ; ; - - = = ",
"                                ",
"                                "
};
