/* XPM */
static char *is[] = {
/* columns rows colors chars-per-pixel */
"16 16 130 2 ",
"   c None",
".  c #000043",
"X  c #000045",
"o  c #000049",
"O  c #00004B",
"+  c #00004F",
"@  c #000055",
"#  c #000057",
"$  c #00005B",
"%  c #00005D",
"&  c #000061",
"*  c #000065",
"=  c #00006B",
"-  c #000071",
";  c #000075",
":  c #00007B",
">  c #00037F",
",  c #B30000",
"<  c #C10000",
"1  c #DB0000",
"2  c #DC2422",
"3  c #DE2828",
"4  c #DF2D2C",
"5  c #E13332",
"6  c #E33837",
"7  c #E33C3B",
"8  c #E43E3C",
"9  c #E14342",
"0  c #E54241",
"q  c #E64342",
"w  c #E74846",
"e  c #E74847",
"r  c #E74D4C",
"t  c #E75655",
"y  c #E95251",
"u  c #E95351",
"i  c #EA5756",
"p  c #EA5856",
"a  c #EB5B5A",
"s  c #EB5C5B",
"d  c #EF7877",
"f  c #EF7A79",
"g  c #000983",
"h  c #000B83",
"j  c #001187",
"k  c #001189",
"l  c #00178B",
"z  c #00198D",
"x  c #001D8F",
"c  c #002D97",
"v  c #002F99",
"b  c #2358A5",
"n  c #275CA7",
"m  c #285CA8",
"M  c #2B5EAA",
"N  c #2C60AA",
"B  c #2F62AD",
"V  c #3062AD",
"C  c #3466AE",
"Z  c #3566AF",
"A  c #396AB0",
"S  c #3A6AB1",
"D  c #3D6DB2",
"F  c #3F6EB3",
"G  c #406FB1",
"H  c #4370B3",
"J  c #4673B3",
"K  c #4773B3",
"L  c #4070B5",
"P  c #4271B5",
"I  c #4472B6",
"U  c #4674B7",
"Y  c #4675B7",
"T  c #4A75B5",
"R  c #4B78BA",
"E  c #4D78B8",
"W  c #507BB9",
"Q  c #557FBB",
"!  c #507CBC",
"~  c #517CBC",
"^  c #537EBD",
"/  c #557FBF",
"(  c #5580BF",
")  c #5881BD",
"_  c #5982BD",
"`  c #5882BF",
"'  c #5C84BE",
"]  c #5983C0",
"[  c #5A83C1",
"{  c #5D86C2",
"}  c #5F87C2",
"|  c #6088C1",
" . c #658BC3",
".. c #6A8FC5",
"X. c #6A90C8",
"o. c #6D91C8",
"O. c #6D93C9",
"+. c #6E93C8",
"@. c #7194C9",
"#. c #7296C9",
"$. c #7095CB",
"%. c #7598CB",
"&. c #7699CB",
"*. c #799ACC",
"=. c #7A9CCD",
"-. c #7C9ECD",
";. c #87A5D3",
":. c #87A6D3",
">. c #89A8D3",
",. c #89A8D4",
"<. c gray89",
"1. c #E7E7E7",
"2. c gray92",
"3. c #EDEFED",
"4. c gray95",
"5. c #F3F3F3",
"6. c #F4F4F4",
"7. c gray96",
"8. c #F6F6F6",
"9. c gray97",
"0. c #F8F8F8",
"q. c #F9F9F9",
"w. c gray98",
"e. c #FBFBFB",
"r. c #FBFCFB",
"t. c gray99",
"y. c #FDFCFD",
"u. c #FDFDFD",
"i. c #FDFDFE",
"p. c #FEFEFE",
/* pixels */
"                                ",
"                                ",
"                                ",
"v v v v u.1 u.x l k g > : ; - = ",
"v ,.,.:.u.f u.-.*.%.@.O... .| * ",
"v >.$.O.u.s u.} [ / ~ R Y P ' & ",
"c :.O.X.u.p u.[ / ~ R Y G D ) $ ",
"u.u.u.u.u.u t.w.w.0.8.8.7.7.7.1.",
"1 f a i y r e q 8 6 5 4 3 2 9 , ",
"u.u.e.e.w.e w.0.8.7.7.7.5.4.6.<.",
"z *.} ] w.q 0.J F S Z B M m J o ",
"k &.) ~ w.7 0.D S Z B M n b P X ",
"h #.+...w.t 7.) Q W E T K H G . ",
"g : ; = 3.< 3.% @ @ @ o o X . . ",
"                                ",
"                                "
};
