/* XPM */
static char *it[] = {
/* columns rows colors chars-per-pixel */
"16 16 113 2 ",
"   c None",
".  c #005300",
"X  c #005B00",
"o  c #006300",
"O  c #006700",
"+  c #006F00",
"@  c #007500",
"#  c #007700",
"$  c #007B00",
"%  c #007F00",
"&  c #DD0000",
"*  c #DF0000",
"=  c #E10000",
"-  c #E30000",
";  c #E50000",
":  c #E70000",
">  c #E90000",
",  c #EB0000",
"<  c #ED0000",
"1  c #EF0000",
"2  c #F10000",
"3  c #F30000",
"4  c #F50000",
"5  c #F10B0B",
"6  c #F10F0E",
"7  c #F21010",
"8  c #F21313",
"9  c #F21414",
"0  c #F31919",
"q  c #F31A1A",
"w  c #F41F1F",
"e  c #F42020",
"r  c #F52525",
"t  c #F52626",
"y  c #F62B2B",
"u  c #F22C2C",
"i  c #F22F2F",
"p  c #F62C2C",
"a  c #F23232",
"s  c #F33232",
"d  c #F73131",
"f  c #F33535",
"g  c #F43636",
"h  c #F83737",
"j  c #F43B3B",
"k  c #F53F3F",
"l  c #F64444",
"z  c #F74949",
"x  c #F74E4E",
"c  c #F85353",
"v  c #F95757",
"b  c #FA5C5C",
"n  c #008300",
"m  c #008500",
"M  c #008700",
"N  c #008900",
"B  c #009100",
"V  c #3AAA3A",
"C  c #3FAE3F",
"Z  c #40AD3F",
"A  c #44B144",
"S  c #45B045",
"D  c #45B145",
"F  c #4BB34B",
"G  c #49B449",
"H  c #4FB64F",
"J  c #4FB74F",
"K  c #50B550",
"L  c #54B555",
"P  c #54B754",
"I  c #53B953",
"U  c #54B954",
"Y  c #58B958",
"T  c #59BA59",
"R  c #58BB59",
"E  c #58BC58",
"W  c #5CBD5C",
"Q  c #5DBC5D",
"!  c #5FBF5F",
"~  c #61BE62",
"^  c #66C066",
"/  c #6AC36A",
"(  c #6FC46F",
")  c #72C673",
"_  c #77C777",
"`  c #76C876",
"'  c #79C879",
"]  c #7BCA7A",
"[  c #7BCA7B",
"{  c #C1C1C1",
"}  c #C3C3C3",
"|  c gray78",
" . c gray79",
".. c #CDCDCD",
"X. c gray86",
"o. c #DDDDDD",
"O. c #DFDFDF",
"+. c #E1E1E1",
"@. c gray89",
"#. c gray90",
"$. c #F3F3F3",
"%. c #F4F4F4",
"&. c gray96",
"*. c #F6F6F6",
"=. c gray97",
"-. c #F8F8F8",
";. c #F9F9F9",
":. c #FAFAFA",
">. c #FBFBFB",
",. c gray99",
"<. c #FDFDFD",
"1. c #FDFDFE",
"2. c #FEFEFE",
/* pixels */
"                                ",
"                                ",
"                                ",
"B N N M M #.+.+.O.o.X.4 2 2 2 < ",
"M [ [ [ _ <.<.<.>.>.>.b v c x < ",
"N [ ! W Y <.<.>.>.>.>.h d p z > ",
"M ' W W P <.,.>.>.-.-.d p t l : ",
"M _ U U K ,.>.>.>.=.=.p r e k : ",
"M ) I K F >.>.>.=.=.=.r w q j : ",
"% ( J G S >.=.=.=.=.%.w 0 8 g = ",
"$ / G A C -.=.=.=.=.$.0 8 8 a * ",
"# ~ A Z V =.=.=.$.$.$.8 6 5 i * ",
"+ ~ Q T L >.=.=.=.=.$.g a i i * ",
"# O o X . ..| | { { { = * * & & ",
"                                ",
"                                "
};
