/* XPM */
static char *jo[] = {
/* columns rows colors chars-per-pixel */
"16 16 121 2 ",
"   c None",
".  c black",
"X  c #002900",
"o  c #002D00",
"O  c #002F00",
"+  c #003300",
"@  c #003900",
"#  c #003D00",
"$  c #2C2C2C",
"%  c #313131",
"&  c #373737",
"*  c #3D3C3D",
"=  c #004100",
"-  c #004700",
";  c #004D00",
":  c #005100",
">  c #005700",
",  c #005D00",
"<  c #006300",
"1  c gray26",
"2  c gray28",
"3  c #494949",
"4  c #4C4C4C",
"5  c #4E4E4E",
"6  c #515151",
"7  c #535353",
"8  c gray33",
"9  c #585757",
"0  c gray36",
"q  c #635959",
"w  c #616060",
"e  c #656565",
"r  c DimGray",
"t  c #6D6D6D",
"y  c #707071",
"u  c #747474",
"i  c #777777",
"p  c #797979",
"a  c #890000",
"s  c #9B0000",
"d  c #F70000",
"f  c #F90000",
"g  c #FB0000",
"h  c #FD0000",
"j  c red",
"k  c #B5693F",
"l  c #DC513F",
"z  c #BC5C5C",
"x  c #A47B7B",
"c  c #DD5454",
"v  c #FA4040",
"b  c #FA4444",
"n  c #FB4545",
"m  c #FB4646",
"M  c #FA4449",
"N  c #FB4949",
"B  c #FC4A4B",
"V  c #FB4E4E",
"C  c #FD4F50",
"Z  c #FC5555",
"A  c #FD5757",
"S  c #FE5959",
"D  c #FE5C5C",
"F  c #FE5F5F",
"G  c #E86C62",
"H  c #FC6666",
"J  c #FC6A6A",
"K  c #FD6F6F",
"L  c #EB7B7B",
"P  c #FE7676",
"I  c #FE7979",
"U  c #FF7B7A",
"Y  c #189A19",
"T  c #1C9C1C",
"R  c #219F21",
"E  c #25A126",
"W  c #2AA32A",
"Q  c #30A630",
"!  c #35A935",
"~  c #38A738",
"^  c #3AA83A",
"/  c #3BA93B",
"(  c #3AAC3A",
")  c #3DA93D",
"_  c #40AC40",
"`  c #40AE40",
"'  c #45AE44",
"]  c #48AF48",
"[  c #45B145",
"{  c #4CB24C",
"}  c #50B450",
"|  c #55B655",
" . c #5AB95A",
".. c #5EBB5E",
"X. c #62BE62",
"o. c #949B5D",
"O. c #F98889",
"+. c #FC8D8D",
"@. c #FE8E8E",
"#. c #F98E91",
"$. c #FC9090",
"%. c #FE9A9A",
"&. c #FB9E9E",
"*. c #FD9C9F",
"=. c gray81",
"-. c gray82",
";. c #D5D5D5",
":. c #D7D7D7",
">. c gray95",
",. c #F3F3F3",
"<. c #F4F4F4",
"1. c #F4F5F5",
"2. c gray96",
"3. c #F6F6F6",
"4. c #F7F7F7",
"5. c #F8F8F8",
"6. c #F9F9F9",
"7. c gray98",
"8. c #FBFBFB",
"9. c gray99",
"0. c #FDFDFD",
/* pixels */
"                                ",
"                                ",
"                                ",
"s . . . . . . . . . . . . . . . ",
"j L x p i u y t r e q 0 9 8 4 . ",
"j U D z q 8 6 4 3 1 * & % $ 3 . ",
"j U D D c *.9.7.7.6.4.4.4.4.4.:.",
"j P +.A C Z &.7.6.6.4.4.,.,.4.;.",
"g %.0.+.B n v O.6.3.4.1.,.,.1.-.",
"j P +.V n M #.4.6.1.1.,.,.,.,.-.",
"g J B b l #.7.4.1.1.1.1.,.,.,.=.",
"d H n k [ ` ( ! Q W E R Y Y / o ",
"d G o.X... .| } { ] ' _ ) / / X ",
"a : < , > : ; - = # @ + o o X X ",
"                                ",
"                                "
};
