/* XPM */
static char *jp[] = {
/* columns rows colors chars-per-pixel */
"16 16 81 1 ",
"  c None",
". c #F52424",
"X c #F52A2A",
"o c #F62A2A",
"O c #F62B2B",
"+ c #F72F2F",
"@ c #F73030",
"# c #F73737",
"$ c #F83434",
"% c #F83535",
"& c #F83636",
"* c #F93B3A",
"= c #F93B3B",
"- c #F93B3C",
"; c #F93C3C",
": c #FA4040",
"> c #FA4141",
", c #FA4142",
"< c #FB4646",
"1 c #FB4747",
"2 c #FA4848",
"3 c #FC4B4B",
"4 c #F55555",
"5 c #FC5555",
"6 c #F65B5B",
"7 c #F47D7D",
"8 c #FB7979",
"9 c #FC7E7F",
"0 c #F49393",
"q c #F89493",
"w c #F99797",
"e c #F7A1A1",
"r c #FDAAAA",
"t c #FAAFAF",
"y c #F5BBBB",
"u c #FDBBBB",
"i c gray81",
"p c gray82",
"a c LightGray",
"s c #D5D5D5",
"d c #D7D7D7",
"f c gray85",
"g c gray86",
"h c #DDDDDD",
"j c #DFDFDF",
"k c #F4D5D5",
"l c #FCD2D2",
"z c #F6DADA",
"x c #E1E3E1",
"c c #E1E3E3",
"v c gray90",
"b c #E7E7E7",
"n c #E9E9E9",
"m c gray92",
"M c gray93",
"N c #EFEFEF",
"B c #FBE7E7",
"V c #F3EFEF",
"C c #FDEAEA",
"Z c #F1F1F1",
"A c gray95",
"S c #F2F2F3",
"D c #F3F3F3",
"F c #F4F4F4",
"G c #F4F5F5",
"H c gray96",
"J c #F6F4F4",
"K c #F7F5F5",
"L c #F6F6F6",
"P c #F7F7F7",
"I c #F8F7F7",
"U c #F8F8F8",
"Y c #F9F9F9",
"T c #FAFAFA",
"R c #FBFBFB",
"E c #FBFCFB",
"W c gray99",
"Q c #FDFDFD",
"! c #FDFDFE",
"~ c #FEFEFE",
"^ c white",
/* pixels */
"                ",
"                ",
"                ",
"HHHHHDDZNNMmnbvc",
"H^^R^^^WRRRRRRHj",
"H^^^^Ru98tRIHHPh",
"H^^^Rr3<:-0IHHHh",
"H^^RC5<:-&*zHDHd",
"Z^WRl<:*&@oyFFFd",
"Z^RRB2*&+ookDZDa",
"ZRRRRw$+o.7HDZDa",
"VWRRRHe640VZZZZi",
"MWRURHRIJDHDDZZi",
"nnbvxjgffddaaiii",
"                ",
"                "
};
