/* XPM */
static char *ke[] = {
/* columns rows colors chars-per-pixel */
"16 16 154 2 ",
"   c None",
".  c black",
"X  c #002900",
"o  c #002D00",
"O  c #002F00",
"+  c #003100",
"@  c #003300",
"#  c #003500",
"$  c #003900",
"%  c #003D00",
"&  c #2C2C2C",
"*  c #313131",
"=  c #373737",
"-  c #582F31",
";  c #4C3233",
":  c #4D3F3E",
">  c #623C3C",
",  c #004100",
"<  c #004700",
"1  c #004D00",
"2  c #005100",
"3  c #005700",
"4  c #005D00",
"5  c #006300",
"6  c #006700",
"7  c #006F00",
"8  c #007100",
"9  c #007900",
"0  c #414646",
"q  c #494949",
"w  c #4E4E4E",
"e  c #5D4343",
"r  c #535353",
"t  c #585757",
"y  c #575C5C",
"u  c gray35",
"i  c gray36",
"p  c #5F5F5F",
"a  c #704D4D",
"s  c #646363",
"d  c #656666",
"f  c DimGray",
"g  c #6D6D6D",
"h  c #727272",
"j  c gray46",
"k  c #777777",
"l  c #797979",
"z  c #7B7B7A",
"x  c #7B7B7B",
"c  c #BB0000",
"v  c #C10000",
"b  c #DF0000",
"n  c #E50000",
"m  c #E90000",
"M  c #E0171F",
"N  c #E01B21",
"B  c #E11A22",
"V  c #E11F27",
"C  c #E22026",
"Z  c #E3242A",
"A  c #E3252C",
"S  c #E4272D",
"D  c #E5272D",
"F  c #E42C32",
"G  c #E52D33",
"H  c #E7353A",
"J  c #E4383F",
"K  c #E33B41",
"L  c #E03F43",
"P  c #805758",
"I  c #835E5E",
"U  c #DC4246",
"Y  c #DE4348",
"T  c #DC484B",
"R  c #DF4E51",
"E  c #E74348",
"W  c #EF474D",
"Q  c #E44B4E",
"!  c #EE484C",
"~  c #EC4A50",
"^  c #EE4B51",
"/  c #ED5055",
"(  c #EF5155",
")  c #EE5459",
"_  c #F15558",
"`  c #F1555A",
"'  c #F1595C",
"]  c #F25D61",
"[  c #E26869",
"{  c #E06C6C",
"}  c #F36165",
"|  c #E77B7B",
" . c #E77F7F",
".. c #F17377",
"X. c #F37578",
"o. c #F67D7F",
"O. c #0B9A0E",
"+. c #0F9C11",
"@. c #139F16",
"#. c #19A120",
"$. c #2CA434",
"%. c #36A636",
"&. c #36A937",
"*. c #34AF3A",
"=. c #38A838",
"-. c #3BA93C",
";. c #3AB13B",
":. c #6F8239",
">. c #6E883E",
",. c #3BAD43",
"<. c #3FB341",
"1. c #40AB40",
"2. c #41AC40",
"3. c #44AE44",
"4. c #44B646",
"5. c #48B148",
"6. c #4DB34D",
"7. c #51B551",
"8. c #56B756",
"9. c #5BB95B",
"0. c #5FBB5F",
"q. c #64BE64",
"w. c #68BF68",
"e. c #6CC36D",
"r. c #B19D9D",
"t. c #ABAF8F",
"y. c #D5D7BF",
"u. c #C6C8C8",
"i. c #CCCDCD",
"p. c #D5C9C9",
"a. c #DBD3C8",
"s. c #E0D9CE",
"d. c #E5D5D5",
"f. c #E9DBDB",
"g. c #EBE7E7",
"h. c #E7E8E2",
"j. c #E9EAE3",
"k. c #EAEBE4",
"l. c #EBEBE6",
"z. c #EBECE6",
"x. c #ECE9E9",
"c. c #EDEAEA",
"v. c #EDEBEA",
"b. c #EFEBEB",
"n. c #F0F1EC",
"m. c #F2F2EE",
"M. c #F3F3EF",
"N. c #F3F1F1",
"B. c #F4F2F2",
"V. c #F5F3F3",
"C. c #F4F4F0",
"Z. c #F7F7F3",
"A. c #F6F4F4",
"S. c #F7F6F6",
/* pixels */
"                                ",
"                                ",
"                                ",
". . . . . . . . . . . . . . . . ",
". x x x j j h g f d s i t r w . ",
". x p i u y i.I P u.0 = * & q . ",
"p.S.S.B.B.N.f. .| d.v.v.v.g.v.r.",
"m o.} ] ' _ a R Q > H G A Z E v ",
"n ..) / ~ ! e T Y ; G D V N K c ",
"n X.` ( ~ ! : U L - D C B M J c ",
"y.Z.n.M.M.n.s.{ [ a.l.k.k.h.k.t.",
"9 e.4.4.;.*.,.>.:.$.#.@.+.O.&.+ ",
"8 w.q.0.9.8.7.6.5.3.2.2.-.=.%.X ",
"7 6 5 4 3 2 1 < , % $ + O O X + ",
"                                ",
"                                "
};
