/* XPM */
static char *kh[] = {
/* columns rows colors chars-per-pixel */
"16 16 160 2 ",
"   c None",
".  c #000069",
"X  c #00007B",
"o  c #00007D",
"O  c #00007F",
"+  c #8B0000",
"@  c #8F0000",
"#  c #970000",
"$  c #BD0000",
"%  c #BF0000",
"&  c #C30000",
"*  c #C61010",
"=  c #C81414",
"-  c #C91816",
";  c #C81919",
":  c #C81A1A",
">  c #C91F1F",
",  c #CC2020",
"<  c #CD2525",
"1  c #CD2626",
"2  c #CE2B2B",
"3  c #CF2E2D",
"4  c #CF3131",
"5  c #CD3232",
"6  c #CE3232",
"7  c #CF3636",
"8  c #CF3B3B",
"9  c #D03837",
"0  c #D23839",
"q  c #D23C3C",
"w  c #D33F3F",
"e  c #D34444",
"r  c #D84746",
"t  c #D74947",
"y  c #D74B4B",
"u  c #D94949",
"i  c #D84A49",
"p  c #D94F4F",
"a  c #DB4F4F",
"s  c #DB5150",
"d  c #DA5152",
"f  c #DA5252",
"g  c #DB5353",
"h  c #DB5454",
"j  c #DD5454",
"k  c #DC5857",
"l  c #DD5858",
"z  c #DC5959",
"x  c #DD5B5A",
"c  c #DE5C5C",
"v  c #DB6061",
"b  c #DD6363",
"n  c #DE6F6E",
"m  c #E16A6A",
"M  c #E26F6F",
"N  c #E27273",
"B  c #E47676",
"V  c #E47979",
"C  c #000081",
"Z  c #000085",
"A  c #000089",
"S  c #00008B",
"D  c #00008F",
"F  c #000093",
"G  c #000097",
"H  c #000099",
"J  c #00009B",
"K  c #00009F",
"L  c #0000A1",
"P  c #0000A3",
"I  c #0000A7",
"U  c #0000A9",
"Y  c #0000AD",
"T  c #0000AF",
"R  c #0000B1",
"E  c #0000B3",
"W  c #0007B3",
"Q  c #0000B7",
"!  c #0000B9",
"~  c #0000BB",
"^  c #0003BD",
"/  c #0007BD",
"(  c #0007BF",
")  c #000DBF",
"_  c #2238B4",
"`  c #263BB7",
"'  c #2B44BC",
"]  c #2F47BD",
"[  c #344BBF",
"{  c #4255BF",
"}  c #394FC1",
"|  c #3F54C3",
" . c #3452C8",
".. c #3655C9",
"X. c #3957CA",
"o. c #3D5BCB",
"O. c #4558C6",
"+. c #4459C6",
"@. c #415ECD",
"#. c #4A5DC8",
"$. c #495EC8",
"%. c #4461CE",
"&. c #4F62CA",
"*. c #4E63CB",
"=. c #4865CF",
"-. c #5263C9",
";. c #5366CB",
":. c #5768CB",
">. c #576BCD",
",. c #5A6BCB",
"<. c #5D6ECF",
"1. c #4D68D1",
"2. c #516CD3",
"3. c #556FD5",
"4. c #5670D4",
"5. c #5B75D6",
"6. c #5A74D7",
"7. c #5F77D8",
"8. c #5F78D8",
"9. c #6172D1",
"0. c #6576D2",
"q. c #6979D3",
"w. c #6B7CD5",
"e. c #6E7ED6",
"r. c #637BDA",
"t. c #647CDA",
"y. c #677FDB",
"u. c #687FDC",
"i. c #6A83DD",
"p. c #6F86DD",
"a. c #7684D5",
"s. c #738ADF",
"d. c #768CE0",
"f. c #798FE2",
"g. c #7C91E2",
"h. c #7F93E3",
"j. c #E58180",
"k. c #E59B9B",
"l. c #E8A3A3",
"z. c #8894DD",
"x. c #8095E3",
"c. c #EEDCDB",
"v. c #F5DEDD",
"b. c #F4DEDE",
"n. c #F2E2E2",
"m. c #F3E4E4",
"M. c #F6E5E5",
"N. c #F4E6E6",
"B. c #F5E6E6",
"V. c #F6E8E7",
"C. c #F7E8E8",
"Z. c #F4EBEB",
"A. c #F7EDEC",
"S. c #F7F2F2",
"D. c #F4F4F4",
"F. c #F5F4F4",
"G. c #F6F6F6",
"H. c gray97",
"J. c #F9F6F6",
"K. c #F8F8F8",
/* pixels */
"                                ",
"                                ",
"                                ",
") / / / ^ ! ! ! E R Y U U L K L ",
"/ x.h.h.g.g.d.d.p.i.y.r.7.6.3.H ",
"W z.e.w.q.0.9.<.>.;.&.#.O.| ,.Z ",
"& V c l h f y b v q 0 4 2 1 e # ",
"& B l j f j.l b.b.t n 3 1 , w # ",
"& N f p f V.l.N.N.k.n.4 > ; 8 @ ",
"$ M a i k J.V.H.S.n.D.7 ; = 7 @ ",
"$ m t r M.J.Z.H.H.Z.H.c.= * 4 + ",
"L a.,.-.*.#.+.+.} [ ] ' ` _ +.. ",
"Y u.y.7.6.4.2.1.=.%.@.o.X... .o ",
"Y U L K H H F F A A Z C o o X o ",
"                                ",
"                                "
};
