/* XPM */
static char *km[] = {
/* columns rows colors chars-per-pixel */
"16 16 151 2 ",
"   c None",
".  c #005300",
"X  c #005900",
"o  c #005517",
"O  c #006700",
"+  c #006F00",
"@  c #B30000",
"#  c #B50000",
"$  c #DA2E14",
"%  c #DB3510",
"&  c #DC3914",
"*  c #DB3119",
"=  c #DD361F",
"-  c #DE3D19",
";  c #DE3B24",
":  c #E13F2A",
">  c #B36E3A",
",  c #DF411F",
"<  c #DE4B36",
"1  c #D35635",
"2  c #E14624",
"3  c #E4452F",
"4  c #E24B2A",
"5  c #E84E2F",
"6  c #E05232",
"7  c #ED5134",
"8  c #4FA700",
"9  c #59963F",
"0  c #40A040",
"q  c #41A140",
"w  c #46A346",
"e  c #4FA751",
"r  c #50A950",
"t  c #53A953",
"y  c #5CB05D",
"u  c #60B15F",
"i  c #7D9B74",
"p  c #68B566",
"a  c #6CB66B",
"s  c #63AF71",
"d  c #74B973",
"f  c #7BBC7A",
"g  c #82813A",
"h  c #E7D600",
"j  c #EAD300",
"k  c #EBD400",
"l  c #ECD500",
"z  c #EDD600",
"x  c #EED700",
"c  c #EFD800",
"v  c #F0D900",
"b  c #F1DA00",
"n  c #F2DB00",
"m  c #80A562",
"M  c #9DCF5C",
"N  c #8EC87B",
"B  c #F7F74E",
"V  c #F8F853",
"C  c #F9F957",
"Z  c #FAFA5C",
"A  c #D4EA7B",
"S  c #F6F660",
"D  c #F7F764",
"F  c #FBFB60",
"G  c #FCFC65",
"H  c #F8F869",
"J  c #FCFC69",
"K  c #F9F96D",
"L  c #FDFD6D",
"P  c #F7F775",
"I  c #FAFA71",
"U  c #FDFD71",
"Y  c #FBFB75",
"T  c #FEFE74",
"R  c #FEFE77",
"E  c #F3F979",
"W  c #FCFC79",
"Q  c #FEFE79",
"!  c #FDFD7D",
"~  c #6D6DA7",
"^  c #0000DD",
"/  c #0000DF",
"(  c #0039C3",
")  c #0000E1",
"_  c #0000E3",
"`  c #0000E5",
"'  c #0001E7",
"]  c #0007E9",
"[  c #000FEB",
"{  c #0013ED",
"}  c #001BED",
"|  c #0021EF",
" . c #002FF1",
".. c #6EA7BD",
"X. c #4D8AF2",
"o. c #4F8CF2",
"O. c #528FF3",
"+. c #5590F3",
"@. c #5993F4",
"#. c #5C95F5",
"$. c #6098F6",
"%. c #649BF7",
"&. c #689EF7",
"*. c #6B9FF8",
"=. c #73A2F9",
"-. c #79A3F9",
";. c #8882BE",
":. c #8884BE",
">. c #9787B5",
",. c #DBA597",
"<. c #9BCD9E",
"1. c #B9DDB9",
"2. c #FDFD86",
"3. c #8985C0",
"4. c #8986C1",
"5. c #8A87C2",
"6. c #8B89C4",
"7. c #8B8AC5",
"8. c #8B8BC7",
"9. c #8D8CC7",
"0. c #8E8DC9",
"q. c #EFD3CC",
"w. c #F1D5CE",
"e. c #F1D7D0",
"r. c #F1D8D3",
"t. c #F2D9D2",
"y. c #F3D9D3",
"u. c #F4DBD4",
"i. c #CAE4CA",
"p. c #CEE7CE",
"a. c #CFE7CF",
"s. c #D3E8D3",
"d. c #DCEDDC",
"f. c #E7E7E7",
"g. c #E8F3E8",
"h. c #EAF3EA",
"j. c #E8F4E8",
"k. c #EBF4EB",
"l. c #EEF7EE",
"z. c #ECF8F2",
"x. c #F4F4F4",
"c. c #F5F5F4",
"v. c gray96",
"b. c #F6F6F5",
"n. c #F6F6F6",
"m. c gray97",
"M. c #F8F8F8",
"N. c #F9F9F9",
"B. c gray98",
"V. c #FBFBFB",
"C. c gray99",
/* pixels */
"                                ",
"                                ",
"                                ",
"8 h n n n n n c n c c c c l l l ",
"O N A R R T T L J G F Z C V B k ",
"+ f a M E 2.! W Y I K K D S P j ",
"X f k.d.d p.C.V.V.V.n.n.b.b.b.f.",
"X k.l.y p.e <.z.V.b.n.b.b.x.b.f.",
"X k.1.t h.q 9 m y.y.y.w.w.q.r.,.",
"X k.k.r i.9 9 1 3 : ; = * $ < @ ",
"X p g.s.9 > 7 5 4 2 , - & % < # ",
"X p u i >.0.9.6.6.4.4.4.:.:.9.~ ",
". s ..-.=.*.&.%.$.#.@.+.+.o.o.^ ",
"o (  .| } { { ] ' ' ) ) / / ^ ^ ",
"                                ",
"                                "
};
