/* XPM */
static char *kn[] = {
/* columns rows colors chars-per-pixel */
"16 16 146 2 ",
"   c None",
".  c black",
"X  c #353535",
"o  c gray21",
"O  c #3B3B3A",
"+  c gray23",
"@  c #3B3B3C",
"#  c #4D2F00",
"$  c #443F2C",
"%  c #006F00",
"&  c #007300",
"*  c #007900",
"=  c #007D00",
"-  c #007F00",
";  c #4D492F",
":  c #56502F",
">  c #494330",
",  c #4A4530",
"<  c #4E4834",
"1  c #514C36",
"2  c #554E3C",
"3  c #404048",
"4  c #4E4E4E",
"5  c #565040",
"6  c #5A5440",
"7  c #595444",
"8  c #535353",
"9  c #545251",
"0  c #615A40",
"q  c #645F41",
"w  c #656149",
"e  c #746F42",
"r  c #6A6657",
"t  c #65635D",
"y  c #6D6958",
"u  c #716B55",
"i  c #696762",
"p  c #DD0000",
"a  c #DF0000",
"s  c #E10000",
"d  c #E30000",
"f  c #E50000",
"g  c #E70000",
"h  c #E90000",
"j  c #EB0000",
"k  c #ED0000",
"l  c #F10B0B",
"z  c #F10F0E",
"x  c #F21010",
"c  c #F21313",
"v  c #F21414",
"b  c #F31919",
"n  c #F31A1A",
"m  c #F41E1E",
"M  c #F41F1F",
"N  c #ED3B00",
"B  c #F4291F",
"V  c #F52323",
"C  c #F22C2C",
"Z  c #F22F2F",
"A  c #F53624",
"S  c #F23232",
"D  c #F33232",
"F  c #F33535",
"G  c #F43636",
"H  c #F43939",
"J  c #F43B3B",
"K  c #F53D3D",
"L  c #F53F3F",
"P  c #C76D00",
"I  c #F45120",
"U  c #F64242",
"Y  c #F74646",
"T  c #008100",
"R  c #008300",
"E  c #008500",
"W  c #008700",
"Q  c #008900",
"!  c #009100",
"~  c #019B00",
"^  c #4CB44C",
"/  c #53BB4B",
"(  c #53BB4F",
")  c #50B550",
"_  c #51B551",
"`  c #51B751",
"'  c #53B653",
"]  c #54B954",
"[  c #54BA54",
"{  c #58BC58",
"}  c #58BC59",
"|  c #59BC59",
" . c #5CBD5C",
".. c #5CBE5C",
"X. c #5FBF5F",
"o. c #69BF69",
"O. c #6DC84F",
"+. c #76CC47",
"@. c #73CA4B",
"#. c #6DC36D",
"$. c #6FC26F",
"%. c #71C765",
"&. c #70C571",
"*. c #72C673",
"=. c #74C774",
"-. c #76C876",
";. c #77C877",
":. c #79C879",
">. c #79C979",
",. c #7BCA7A",
"<. c #7BCA7B",
"1. c #9FA700",
"2. c #9DBF00",
"3. c #BAB12B",
"4. c #F58B24",
"5. c #F69329",
"6. c #CFBE26",
"7. c #D3BA2E",
"8. c #F4B925",
"9. c #F4BE2A",
"0. c #E6C325",
"q. c #E3C52A",
"w. c #86815C",
"e. c #868266",
"r. c #8C8879",
"t. c #8C887B",
"y. c #F78E4B",
"u. c #BADB47",
"i. c #BADD4B",
"p. c #C6C446",
"a. c #C7C849",
"s. c #CAD342",
"d. c #C9D746",
"f. c #C9DA49",
"g. c #F6C144",
"h. c #F2CA50",
"j. c #C8E060",
"k. c #C3E26A",
"l. c #87878D",
"z. c #8B8A8A",
"x. c #9D9A8E",
"c. c #A09C8A",
"v. c #DADADA",
"b. c #DFDFE0",
"n. c #E9E8E8",
"m. c #EAEAEC",
/* pixels */
"                                ",
"                                ",
"                                ",
"! Q Q Q Q T T = * & % ~ 1.. . . ",
"E <.-.-.-.-.&.#.o.%.j.w.r 8 4 . ",
"Q <.o. . .[ ` ^ +.s.q v.3 $ w P ",
"E <. .| [ ` / u.e 2 l.m.t.6.g.g ",
"Q -.[ [ ^ @.d.q @ o > t.0.I L g ",
"T *.[ [ i.p.6 + o , 3.8.V n J g ",
"= #.O.f.x.2 + X < q.4.V n v G d ",
"T k.a.x.n.z.< : 9.A B v v x S a ",
"2.e.6 9 v.1 7.5.V m v c z l Z a ",
". i t y u h.y.Y U L H G S Z C a ",
". . . # N k j j g d d d a a p p ",
"                                ",
"                                "
};
