/* XPM */
static char *kr[] = {
/* columns rows colors chars-per-pixel */
"16 16 123 2 ",
"   c None",
".  c #565656",
"X  c #585858",
"o  c gray39",
"O  c #676666",
"+  c DimGray",
"@  c gray42",
"#  c #777777",
"$  c #7C7B7C",
"%  c #7E7E7E",
"&  c gray50",
"*  c #E7363D",
"=  c #EE3D43",
"-  c #E3434F",
";  c #E84249",
":  c #FA4141",
">  c #FA4442",
",  c #FB4646",
"<  c #FB4A4A",
"1  c #F97875",
"2  c #656EBE",
"3  c #2A66D6",
"4  c #3A6DD5",
"5  c #3C72D9",
"6  c #3A76DD",
"7  c #4B67C5",
"8  c #5569C2",
"9  c #586FC7",
"0  c #C67993",
"q  c #6D92DC",
"w  c #7AA1E6",
"e  c gray53",
"r  c gray55",
"t  c gray62",
"y  c #ABAAA7",
"u  c #AAA9A8",
"i  c #ADAFAF",
"p  c #AEAEAE",
"a  c #ADB0B0",
"s  c #B1B1B1",
"d  c #BAB9BA",
"f  c #BBBBBB",
"g  c #FC8A8A",
"h  c #F79695",
"j  c #F3B1B5",
"k  c #B59DC3",
"l  c #A3ACD9",
"z  c #AAC4F0",
"x  c gray76",
"c  c #C5C5C5",
"v  c #C6C6C6",
"b  c #C8C8C8",
"n  c #CBCBCB",
"m  c #CBD1CF",
"M  c #D0D0CD",
"N  c #CBD1D1",
"B  c #CBD3D1",
"V  c #CFD3D1",
"C  c #CFD5D3",
"Z  c #CFD7D5",
"A  c #D3D3D1",
"S  c #D1D7D5",
"D  c #D5D5D5",
"F  c #D7D7D7",
"G  c #D1D9D7",
"H  c #D3D9D9",
"J  c #D5DBD9",
"K  c #D7DBDB",
"L  c #D7DFDD",
"P  c gray85",
"I  c #DAD9DA",
"U  c #D8DADB",
"Y  c #DADADA",
"T  c #DBDADA",
"R  c #DADCDC",
"E  c #DFDFDF",
"W  c #FBD6D6",
"Q  c #FCDADA",
"!  c #D9E1DF",
"~  c #C5D2EC",
"^  c #C9D5ED",
"/  c #DDE3E1",
"(  c #DFE5E3",
")  c #E1E7E5",
"_  c #E7E7E7",
"`  c #E3E9E9",
"'  c #E5EBEB",
"]  c #E7EDED",
"[  c gray91",
"{  c #E9E9E9",
"}  c #E9E9EA",
"|  c #EAEAEA",
" . c #EDECE8",
".. c #E9EEEE",
"X. c #E9EFEF",
"o. c #EBF1EF",
"O. c #E8EEF4",
"+. c #EBF1F1",
"@. c #EDF1F1",
"#. c #EDF3F3",
"$. c #EFF5F3",
"%. c gray95",
"&. c #F2F2F3",
"*. c #F3F3F3",
"=. c #F5F4F3",
"-. c #F2F5F5",
";. c #F1F7F5",
":. c #F4F4F4",
">. c #F4F5F5",
",. c gray96",
"<. c #F6F6F6",
"1. c #F7F7F7",
"2. c #F8F0F0",
"3. c #FDF6F5",
"4. c #F2F4F9",
"5. c #F8F8F8",
"6. c gray98",
"7. c #FBFBFB",
"8. c gray99",
"9. c #FDFDFD",
"0. c #FDFDFE",
"q. c #FEFEFE",
"w. c white",
/* pixels */
"                                ",
"                                ",
"                                ",
";.;.;.;.;.$.;.#.@.o.X.] ' ` ) ( ",
";.w.w.F v :.8.8.8.w.*.d b 5.5./ ",
";.w.{ r $ R w.Q W 5.P O # P 1.! ",
";.w.P e i 3.g < : 1 2.a o x :.! ",
";.w.w._ ;.j , : = * h X.P :.:.J ",
"$.w.w.5.8.k ; - 2 7 0 :.:.*.:.G ",
"+.8.w.{ :.z 8 9 6 3 l  .T *.:.S ",
"@.8.F % u 4.w 5 4 q O.y X f *.S ",
"+.8.E % @ A 1.^ ~ *.m . @ b %.N ",
"X.5.8.v i { :.1.:.:._ t s %.%.m ",
"] ' ` ) ( ( / L R H G Z S m N m ",
"                                ",
"                                "
};
