/* XPM */
static char *ky[] = {
/* columns rows colors chars-per-pixel */
"16 16 153 2 ",
"   c None",
".  c black",
"X  c #000003",
"o  c #00000B",
"O  c #000011",
"+  c #000019",
"@  c #00001F",
"#  c #000025",
"$  c #000027",
"%  c #00002D",
"&  c #00002F",
"*  c #000031",
"=  c #000033",
"-  c #000039",
";  c #00003B",
":  c #00003F",
">  c #000049",
",  c #000963",
"<  c #001D75",
"1  c #273373",
"2  c #772D4F",
"3  c #7F2F4F",
"4  c #573965",
"5  c #713D61",
"6  c #753D61",
"7  c #30437F",
"8  c #3B4E7F",
"9  c #607049",
"0  c #63744D",
"q  c #647350",
"w  c #6F7E5D",
"e  c #5D666F",
"r  c #6A7277",
"t  c #CB322E",
"y  c #C33339",
"u  c #D1423D",
"i  c #B5717F",
"p  c #C0656B",
"a  c #C2696F",
"s  c #E0777B",
"d  c #738159",
"f  c #77845E",
"g  c #AC9C6E",
"h  c #B09978",
"j  c #B29D7F",
"k  c #B7A16E",
"l  c #CE966D",
"z  c #C0A065",
"x  c #CCA373",
"c  c #CAAC72",
"v  c #233D82",
"b  c #2A4187",
"n  c #2C4385",
"m  c #294485",
"M  c #2D4486",
"N  c #2F4088",
"B  c #2E4889",
"V  c #2F4989",
"C  c #2E4B8E",
"Z  c #364E87",
"A  c #3B4E86",
"S  c #304288",
"D  c #35488B",
"F  c #344D8D",
"G  c #344E8D",
"H  c #374E8C",
"J  c #3A4E8B",
"K  c #394B8F",
"L  c #3B4D8D",
"P  c #3B4F8D",
"I  c #3B5289",
"U  c #3D548F",
"Y  c #364C90",
"T  c #3A5290",
"R  c #3C5291",
"E  c #3F5592",
"W  c #3F5793",
"Q  c #3F5594",
"!  c #415483",
"~  c #475987",
"^  c #4C5E8B",
"/  c #405793",
"(  c #405893",
")  c #425993",
"_  c #425895",
"`  c #445A95",
"'  c #465997",
"]  c #445C97",
"[  c #455C97",
"{  c #465E96",
"}  c #485C95",
"|  c #455B98",
" . c #415C99",
".. c #495F98",
"X. c #4B6099",
"o. c #49609A",
"O. c #49609B",
"+. c #4E649B",
"@. c #4F649D",
"#. c #526196",
"$. c #50659C",
"%. c #54699E",
"&. c #676F9B",
"*. c #7E7097",
"=. c #7F749B",
"-. c #5368A3",
";. c #5469A0",
":. c #586DA2",
">. c #5D72A4",
",. c #6175A7",
"<. c #6D7BA0",
"1. c #6D7AA2",
"2. c #6174A9",
"3. c #6577A8",
"4. c #647AA9",
"5. c #667AAA",
"6. c #6B7CAC",
"7. c #6A7EAD",
"8. c #6F7FAE",
"9. c #8D7FA1",
"0. c #7C92BA",
"q. c #7F95BC",
"w. c #8B8EB2",
"e. c #9C97B4",
"r. c #DE868B",
"t. c #C38E9E",
"y. c #E48084",
"u. c #E88A8C",
"i. c #E08E93",
"p. c #EA9293",
"a. c #E09398",
"s. c #D7BF95",
"d. c #C090A1",
"f. c #D397A0",
"g. c #E69FA4",
"h. c #CBACB5",
"j. c #D8A9B3",
"k. c #D0B4BC",
"l. c #D9B5BE",
"z. c #DAB5BE",
"x. c #F1B3B4",
"c. c #F1B6B6",
"v. c #97AACB",
"b. c #DABFCA",
"n. c #BFCADA",
"m. c #DFC2CA",
"M. c #C1CBDB",
"N. c #C3CDDD",
"B. c #C5CFDE",
"V. c #E2C1C8",
"C. c #E4C9D1",
"Z. c #E4D3DC",
"A. c #E2D9E2",
/* pixels */
"                                ",
"                                ",
"                                ",
"i 9.< 2 3 , 5 # : - * & # @ + O ",
"1 m.A.z.j.b.Z.<.6.3.2.<.s.;.@.o ",
"y g.p.y.s u.r.^ #._  .f d C ..X ",
"6 V.x.i.a.c.f.~ } R u l x t ` X ",
"&.C.e.d.t.v.z.! E Y k.a p h.E X ",
"4 w.-.=.*.` 4.8 J S w q.0.q L X ",
"> 8.@.O.| W L D V M B.N.M.n.H X ",
"> 6.o.{ ) T H V b h c 0 9 z j X ",
"- 4.| E T F V m v 7 r k g e A X ",
"* ,.>.:.%.$.X.{ ) U K I Z M n X ",
"% # @ + O o X X X X X X X X X X ",
"                                ",
"                                "
};
