/* XPM */
static char *kz[] = {
/* columns rows colors chars-per-pixel */
"16 16 162 2 ",
"   c None",
".  c #87A903",
"X  c #DFBF00",
"o  c #DFCA38",
"O  c #F8D136",
"+  c #F8D336",
"@  c #F9D53C",
"#  c #B5CA6D",
"$  c #A2C87F",
"%  c #B2CA71",
"&  c #D3CE56",
"*  c #D2D15F",
"=  c #E7CF46",
"-  c #FAD543",
";  c #EAD352",
":  c #ECD653",
">  c #C5D06D",
",  c #D0D46E",
"<  c #EBDD75",
"1  c #EDDE7A",
"2  c #007FDD",
"3  c #78C7B2",
"4  c #0081DD",
"5  c #0083DF",
"6  c #0087DD",
"7  c #0085DF",
"8  c #0087DF",
"9  c #0085E1",
"0  c #0087E3",
"q  c #0089E3",
"w  c #008BE5",
"e  c #008FE7",
"r  c #0095E7",
"t  c #0093E9",
"y  c #0097E9",
"u  c #0097EB",
"i  c #009DEB",
"p  c #009DED",
"a  c #00A3ED",
"s  c #00A1EF",
"d  c #00A7EF",
"f  c #00ABF1",
"g  c #00AFF3",
"h  c #00ADF5",
"j  c #00B1F7",
"k  c #00B3F9",
"l  c #00B5F9",
"z  c #00B5FB",
"x  c #00B9FD",
"c  c #00BBFD",
"v  c #00BDFD",
"b  c #00BFFD",
"n  c #03BFFF",
"m  c #09C3FF",
"M  c #0FC3FD",
"N  c #13C3FF",
"B  c #38C2F1",
"V  c #3BC6F2",
"C  c #3CC4F1",
"Z  c #3DC4F2",
"A  c #72CBC9",
"S  c #7CD1D0",
"D  c #7ED3D4",
"F  c #5ECEE7",
"G  c #41C6F2",
"H  c #45C8F3",
"J  c #46C8F3",
"K  c #4ACAF4",
"L  c #4BCAF4",
"P  c #4FCCF5",
"I  c #53CAF2",
"U  c #55CAF2",
"Y  c #56CBF2",
"T  c #50CDF5",
"R  c #54CEF6",
"E  c #55CEF6",
"W  c #55CFF7",
"Q  c #58CCF3",
"!  c #59CCF3",
"~  c #5BCDF3",
"^  c #5CCDF4",
"/  c #5ECFF4",
"(  c #53D0F7",
")  c #59D0F7",
"_  c #5BD1F8",
"`  c #5CD2F8",
"'  c #5FD3F9",
"]  c #61CDE1",
"[  c #6FD0E5",
"{  c #71D2E7",
"}  c #7FD6E0",
"|  c #7CD7E4",
" . c #75D6EC",
".. c #60CFF5",
"X. c #64D2F5",
"o. c #68D4F1",
"O. c #68D3F6",
"+. c #68D3F7",
"@. c #6CD5F7",
"#. c #62D5F9",
"$. c #64D4FA",
"%. c #64D6FA",
"&. c #69D6FB",
"*. c #6BD8FB",
"=. c #6DDAFC",
"-. c #6FDAFC",
";. c #70D7F7",
":. c #75D8F3",
">. c #71D8F7",
",. c #71D7F8",
"<. c #73DAFB",
"1. c #75D8F8",
"2. c #75D8F9",
"3. c #74DAF8",
"4. c #72DAFC",
"5. c #73DBFD",
"6. c #75DBFD",
"7. c #76DBFD",
"8. c #75DCFE",
"9. c #79D9F9",
"0. c #79DAF9",
"q. c #7CDBFA",
"w. c #7FDDFB",
"e. c #79DCFE",
"r. c #7ADCFE",
"t. c #7ADFFE",
"y. c #7CDEFE",
"u. c #AACC81",
"i. c #A2CC8D",
"p. c #A8CD8B",
"a. c #BCD388",
"s. c #AFD191",
"d. c #BED794",
"f. c #8BCBAC",
"g. c #97CFA9",
"h. c #9FD2A7",
"j. c #82CDBB",
"k. c #ABD5A5",
"l. c #A3D5AE",
"z. c #C2D78F",
"x. c #C6D88A",
"c. c #CADB91",
"v. c #CCDB96",
"b. c #CEDE97",
"n. c #D3E09F",
"m. c #EFE284",
"M. c #F0E387",
"N. c #F2E48D",
"B. c #D4E1A2",
"V. c #D8E4A9",
"C. c #D8E4AA",
"Z. c #D8E4AB",
"A. c #8DD5C9",
"S. c #8ED8D5",
"D. c #83D8E1",
"F. c #87DDF7",
"G. c #8EDFF4",
"H. c #8AE0FC",
"J. c #8CE2FE",
"K. c #8FE2FE",
"L. c #91E3FE",
"P. c #94E4FE",
/* pixels */
"                                ",
"                                ",
"                                ",
"n X m N M n n x z k j h g f d s ",
"n N.C.P.L.L.J.H.H.F.q.q.9.<.;.i ",
"n C.t.e.e.8.5.S.z.k.o.' ) E @.r ",
"n C.b.e.6.<.>.z.- : h.T E T O.r ",
"n m.8.8.>.:.| : @ + * F T L X.e ",
"n m.c.5.D.D.l.a.+ = p.f.J H ..w ",
"x B.=.*. .A., S g.j.A # H G ^ 0 ",
"k n.x.&.#.D s.> & p.o u.G Z ! 7 ",
"z 1 #.$.' _ E ] $ % 3 V Z B U 5 ",
"j < v.9.<.;.@.O.{ [ / ~ ! U I 5 ",
"h . f d s p y t e w q 0 7 6 2 2 ",
"                                ",
"                                "
};
