/* XPM */
static char *la[] = {
/* columns rows colors chars-per-pixel */
"16 16 152 2 ",
"   c None",
".  c black",
"X  c #230000",
"o  c #4D003F",
"O  c #6D034F",
"+  c #7D326F",
"@  c #D90000",
"#  c #DB0000",
"$  c #DF0000",
"%  c #E10000",
"&  c #E30000",
"*  c #E50000",
"=  c #E70000",
"-  c #EB0000",
";  c #ED0000",
":  c #EF0000",
">  c #F10000",
",  c #F30000",
"<  c #F50000",
"1  c #F70000",
"2  c #F90000",
"3  c #FB0000",
"4  c #FD0000",
"5  c #F02C2C",
"6  c #F02F2F",
"7  c #F23232",
"8  c #F23535",
"9  c #F23939",
"0  c #F33D3D",
"q  c #803671",
"w  c #833975",
"e  c #863D78",
"r  c #843E7B",
"t  c #87437D",
"y  c #954D7E",
"u  c #F44242",
"i  c #F54646",
"p  c #F74B4B",
"a  c #F74E4E",
"s  c #F75050",
"d  c #F75353",
"f  c #F85455",
"g  c #F85757",
"h  c #F95858",
"j  c #F95C5C",
"k  c #FA5D5D",
"l  c #FA6060",
"z  c #FA6162",
"x  c #FB6565",
"c  c #FC6969",
"v  c #FC6D6D",
"b  c #FC7071",
"n  c #FC7474",
"m  c #FD7777",
"M  c #FD7979",
"N  c #FE7B7B",
"B  c #000081",
"V  c #000083",
"C  c #000087",
"Z  c #00008B",
"A  c #000091",
"S  c #0011B5",
"D  c #0017B9",
"F  c #001BBB",
"G  c #0021BD",
"H  c #0025BF",
"J  c #2A55C3",
"K  c #2D59C5",
"L  c #2F59C5",
"P  c #335DC7",
"I  c #355DC6",
"U  c #315CC8",
"Y  c #335DC8",
"T  c #355FC8",
"R  c #395FC8",
"E  c #3A61C8",
"W  c #3962CA",
"Q  c #3E66CC",
"!  c #3F68CD",
"~  c #4066C9",
"^  c #456ACB",
"/  c #496FCB",
"(  c #486CCC",
")  c #4A6ECE",
"_  c #4B6ECE",
"`  c #4C70CD",
"'  c #5075CE",
"]  c #4B72D1",
"[  c #5074D0",
"{  c #5478D1",
"}  c #5679D5",
"|  c #5B7AD0",
" . c #5C7ED3",
".. c #587BD5",
"X. c #5A7DD6",
"o. c #5C7DD5",
"O. c #5D7DD5",
"+. c #8B4880",
"@. c #8F4D84",
"#. c #905084",
"$. c #995282",
"%. c #9C5686",
"&. c #955589",
"*. c #9F5A8A",
"=. c #995A8D",
"-. c #9F5D8C",
";. c #9C5E90",
":. c #9F6393",
">. c #A06090",
",. c #A36493",
"<. c #A46590",
"1. c #A76996",
"2. c #AD7099",
"3. c #AF739C",
"4. c #B1769E",
"5. c #B279A0",
"6. c #B17FA8",
"7. c #5E80D7",
"8. c #5F81D7",
"9. c #6784D3",
"0. c #6382D7",
"q. c #6585D7",
"w. c #6D88D6",
"e. c #6284D8",
"r. c #6385D9",
"t. c #6484D8",
"y. c #6584D8",
"u. c #6987D9",
"i. c #6888DB",
"p. c #6A88DA",
"a. c #6D8BDA",
"s. c #6B8BDC",
"d. c #718DDB",
"f. c #7490DA",
"g. c #7691DB",
"h. c #7B98DF",
"j. c #7F9BE0",
"k. c #C090B1",
"l. c #829EE2",
"z. c #859FE2",
"x. c #8AA2E2",
"c. c #C9D3ED",
"v. c #CED6EF",
"b. c #CFD7F0",
"n. c #E3E8F2",
"m. c #E6E9F4",
"M. c #ECEFF6",
"N. c #EDF0F7",
"B. c gray97",
"V. c #F8F8F8",
"C. c #F9F9F9",
"Z. c gray98",
/* pixels */
"                                ",
"                                ",
"                                ",
"4 4 4 4 4 4 2 2 1 1 1 > > > ; ; ",
"4 N N N m n b v c x l j h d a ; ",
"O k.5.4.3.2.1.,.>.-.*.%.$.y <.X ",
"H x.d.a.u.0.g.v.v.w.) ) ^ ~ | A ",
"G z.s.i.0.r.N.Z.Z.m.[ ! Q W { Z ",
"F l.i.y.o.g.Z.Z.V.B.9.R W I ' C ",
"F j.y.7.} | M.Z.B.n.( T P L ` B ",
"S h.7.X.} ] q.c.c. .U P L J / B ",
"o 6.:.;.=.&.@.+.t r e w + + #.. ",
"1 l j h f s p i u 0 9 8 8 6 6 @ ",
"> > > > ; ; * * * % # % # # @ @ ",
"                                ",
"                                "
};
