/* XPM */
static char *lb[] = {
/* columns rows colors chars-per-pixel */
"16 16 138 2 ",
"   c None",
".  c #AD0000",
"X  c #B10000",
"o  c #B50000",
"O  c #B70000",
"+  c #BB0000",
"@  c #BD0000",
"#  c #BF0000",
"$  c #C10000",
"%  c #C30000",
"&  c #C50000",
"*  c #C90000",
"=  c #CB0000",
"-  c #CF0000",
";  c #D10000",
":  c #D30000",
">  c #D50000",
",  c #D70000",
"<  c #D90000",
"1  c #DB0000",
"2  c #DD0000",
"3  c #DF0000",
"4  c #E12A14",
"5  c #E22D18",
"6  c #E3311D",
"7  c #E43621",
"8  c #E53A25",
"9  c #E43E29",
"0  c #E43E2C",
"q  c #E5402F",
"w  c #E64432",
"e  c #E74735",
"r  c #E84430",
"t  c #E94533",
"y  c #E54936",
"u  c #E94835",
"i  c #E84B39",
"p  c #EA4B38",
"a  c #E84E3D",
"s  c #EB4E3C",
"d  c #EB4F3E",
"f  c #EA5242",
"g  c #EC5341",
"h  c #ED5443",
"j  c #EB5746",
"k  c #EE5846",
"l  c #EE5A48",
"z  c #EC5B4B",
"x  c #EB5F4F",
"c  c #EF5C4C",
"v  c #EF5E4D",
"b  c #ED5F4E",
"n  c #ED6050",
"m  c #ED6353",
"M  c #EE6455",
"N  c #EE6757",
"B  c #EF6858",
"V  c #F06251",
"C  c #F16656",
"Z  c #F26A5A",
"A  c #F06B5C",
"S  c #F06C5D",
"D  c #F36D5E",
"F  c #F16F60",
"G  c #F17062",
"H  c #F47161",
"J  c #F27365",
"K  c #F47365",
"L  c #F27769",
"P  c #F27A6C",
"I  c #F37A6D",
"U  c #F47E71",
"Y  c #3B923B",
"T  c #3E933E",
"R  c #3E943E",
"E  c #439643",
"W  c #439644",
"Q  c #449745",
"!  c #459945",
"~  c #499949",
"^  c #499B4A",
"/  c #529D53",
"(  c #57A257",
")  c #57A357",
"_  c #5AA45A",
"`  c #62A862",
"'  c #7DB37B",
"]  c #F58174",
"[  c #F68477",
"{  c #F68679",
"}  c #F7887B",
"|  c #F78C7F",
" . c #85BA84",
".. c #BBBBBB",
"X. c gray75",
"o. c #96C697",
"O. c #A0CDA2",
"+. c #A3CAA4",
"@. c #C1C1C1",
"#. c #C5C3C3",
"$. c #CBDFCB",
"%. c #DFDFDF",
"&. c #CEE4CF",
"*. c #D8E8DA",
"=. c #D8E9DA",
"-. c #DEEADE",
";. c #E1E1E1",
":. c gray89",
">. c #E5E3E3",
",. c gray90",
"<. c #E7F0E6",
"1. c #EEF2EF",
"2. c gray95",
"3. c #F3F3F3",
"4. c #F3F6F3",
"5. c #F1F4F4",
"6. c #F3F7F6",
"7. c #F4F4F4",
"8. c #F5F4F4",
"9. c #F4F5F5",
"0. c gray96",
"q. c #F6F5F4",
"w. c #F6F5F5",
"e. c #F6F6F6",
"r. c #F7F6F6",
"t. c #F8F8F8",
"y. c gray98",
"u. c #FAFBFB",
"i. c #FBFBFB",
"p. c #FDFBFB",
"a. c #FBFCFB",
"s. c #FDFBFC",
"d. c gray99",
"f. c #FDFCFD",
"g. c #FDFDFD",
"h. c #FEFCFC",
"j. c #FEFDFD",
"k. c #FEFEFE",
/* pixels */
"                                ",
"                                ",
"                                ",
"3 3 3 3 3 3 1 1 1 > : : : * * & ",
"3 } { { [ ] U I L J F Z B n n $ ",
"3 | K H D Z C n v l h f i t x # ",
">.k.k.p.p.s.<. .' -.t.e.q.q.q.#.",
",.k.k.k.k.p.O.( ^ o.6.q.9.9.q.@.",
":.k.k.d.d.&._ ! W ^ $.9.9.5.8.X.",
":.k.a.a.u.` ( ! T E / 9.5.2.8...",
"%.y.a.y.y.9.=.R Y +.*.1.2.2.5...",
"> P c k g s u w 9 8 7 5 5 4 y . ",
": G B B M n l j f a i e w w 0 . ",
": - * * & $ # # # o o X X . . . ",
"                                ",
"                                "
};
