/* XPM */
static char *lc[] = {
/* columns rows colors chars-per-pixel */
"16 16 153 2 ",
"   c None",
".  c gray21",
"X  c gray23",
"o  c #3F3B3C",
"O  c #4A4141",
"+  c #8F6B24",
"@  c #947437",
"#  c #887F7D",
"$  c #CA9F35",
"%  c #D0A22F",
"&  c #F4C71E",
"*  c #F7CC2E",
"=  c #F5D123",
"-  c #F6D429",
";  c #F5D23D",
":  c #F4D939",
">  c #F6ED2A",
",  c #F7ED2F",
"<  c #F6D142",
"1  c #F7D346",
"2  c #F7D84B",
"3  c #F8E250",
"4  c #55548B",
"5  c #6C6B9F",
"6  c #2A5DDD",
"7  c #2A5FDC",
"8  c #2A5EDD",
"9  c #2A5FDD",
"0  c #2A5EDE",
"q  c #2A5FDE",
"w  c #2A60DB",
"e  c #2A5FE0",
"r  c #2A5FE1",
"t  c #2A5FE2",
"y  c #2A61E2",
"u  c #2A62E2",
"i  c #2A62E3",
"p  c #2A62E4",
"a  c #2A62ED",
"s  c #2A63F2",
"d  c #2C64F2",
"f  c #3168F3",
"g  c #3468F1",
"h  c #3369F5",
"j  c #356AF4",
"k  c #386BF5",
"l  c #386BF7",
"z  c #3F6FF7",
"x  c #3B6FF9",
"c  c #567FEC",
"v  c #4374F7",
"b  c #4674F5",
"n  c #4172FA",
"m  c #4876F8",
"M  c #4B7AF9",
"N  c #4D7CF9",
"B  c #4F7CF9",
"V  c #4F7DFA",
"C  c #517EFA",
"Z  c #4580EE",
"A  c #5384EE",
"S  c #5983EC",
"D  c #5982ED",
"F  c #5E87ED",
"G  c #5F88EF",
"H  c #5280F9",
"J  c #5481FA",
"K  c #5581FA",
"L  c #5F8AF9",
"P  c #6089EE",
"I  c #638EEF",
"U  c #658FEF",
"Y  c #6C92EC",
"T  c #6E93EC",
"R  c #6B94ED",
"E  c #6E95EC",
"W  c #6999EE",
"Q  c #7097ED",
"!  c #7399EE",
"~  c #779DEF",
"^  c #618BF2",
"/  c #668DF0",
"(  c #6197F4",
")  c #6891F0",
"_  c #6F93F1",
"`  c #6B94F0",
"'  c #6D95F1",
"]  c #6E95F0",
"[  c #6F96F0",
"{  c #6C9EF4",
"}  c #7199F1",
"|  c #719EF3",
" . c #749DF1",
".. c #759CF5",
"X. c #7A9CF4",
"o. c #7BA2EF",
"O. c #78A9EF",
"+. c #68AAF2",
"@. c #76A7F7",
"#. c #79A1F3",
"$. c #7EA4F0",
"%. c #7CA2F4",
"&. c #7DBAF6",
"*. c #948C8A",
"=. c #80A7F3",
"-. c #80A5F4",
";. c #81A6F5",
":. c #81A5F7",
">. c #81A9F1",
",. c #81AFF3",
"<. c #86AEF1",
"1. c #82A9F4",
"2. c #83AAF4",
"3. c #88AEF5",
"4. c #89AEF5",
"5. c #89AEF6",
"6. c #8AAFF6",
"7. c #89B0F2",
"8. c #88B0F3",
"9. c #8CB2F2",
"0. c #8FB5F3",
"q. c #8BB0F6",
"w. c #8CB0F6",
"e. c #8DB1F7",
"r. c #8EB1F7",
"t. c #87B9F3",
"y. c #91B5F3",
"u. c #91B4F7",
"i. c #90B5F7",
"p. c #93B9F4",
"a. c #92B9F7",
"s. c #97BBF5",
"d. c #ADBEE1",
"f. c #9AC0F6",
"g. c #9DC2F7",
"h. c #9FC3F7",
"j. c #B2C3ED",
"k. c #B0C5EF",
"l. c #A0C3F7",
"z. c #A2C6F8",
"x. c #A3C7F8",
"c. c #A5C7F9",
"v. c #B4CBF4",
"b. c #8BE6F3",
"n. c #97EDF7",
"m. c #9DEDF8",
"M. c #9FEDF9",
"N. c #BBE1F8",
"B. c #BBE2F9",
"V. c #CBDCE9",
"C. c #D1DCE8",
"Z. c #C0F2F6",
"A. c #C5F5F9",
/* pixels */
"                                ",
"                                ",
"                                ",
"L C J J C B C n x v n j j f s j ",
"V c.c.z.z.z.u.B.N.6.p.y.9.7.<.p ",
"J c.a.i.e.6.@.V.C.{ #. .} [ >.i ",
"J c.0.e.6.:.M.*.# n._ } ' ` $.i ",
"H z.e.6.6...A.O o B.^ ' ) U o.r ",
"B g.6.6.;.&.v.X . k.+.U U P o.q ",
"M g.3.1.X.m.5 $ % 4 b.I G F ! q ",
"m s.>.;.| t.@ , > + O.A F D E q ",
"m s.=.%.( j.* - = & d.Z D c E q ",
"l p.y.7.,.3 2 1 < ; : W R T Y q ",
"v h f d a i i i r r q q q q 6 w ",
"                                ",
"                                "
};
