/* XPM */
static char *lk[] = {
/* columns rows colors chars-per-pixel */
"16 16 160 2 ",
"   c None",
".  c #9B2D3F",
"X  c #9D3238",
"o  c #9C313A",
"O  c #A0383D",
"+  c #B25A2B",
"@  c #A3403B",
"#  c #A3413C",
"$  c #B8662F",
"%  c #BB6735",
"&  c #BF6D3A",
"*  c #C46F17",
"=  c #C36E1B",
"-  c #C5711E",
";  c #C67521",
":  c #C97824",
">  c #CB7B28",
",  c #C77B3B",
"<  c #982B40",
"1  c #982B41",
"2  c #9A2F44",
"3  c #9F3443",
"4  c #9A3045",
"5  c #9C3248",
"6  c #9D3549",
"7  c #9C314F",
"8  c #9F374C",
"9  c #A03847",
"0  c #A03A4E",
"q  c #A13C50",
"w  c #A33F53",
"e  c #A13B5A",
"r  c #AD4E4F",
"t  c #AE504A",
"y  c #A5415F",
"u  c #A84659",
"i  c #A9485B",
"p  c #AF525D",
"a  c #B05753",
"s  c #B25954",
"d  c #B15B55",
"f  c #BB6747",
"g  c #B8664D",
"h  c #B9674F",
"j  c #B7645E",
"k  c #A94A62",
"l  c #AC4E60",
"z  c #AC4E64",
"x  c #AA4B68",
"c  c #AC4D6E",
"v  c #AF5365",
"b  c #AD5068",
"n  c #B05769",
"m  c #B2586A",
"M  c #B45A6C",
"N  c #B35C6D",
"B  c #B55D6E",
"V  c #B66072",
"C  c #B86576",
"Z  c #C17571",
"A  c #C57C77",
"S  c #448C44",
"D  c #4E9046",
"F  c #4A9049",
"G  c #4F944F",
"H  c #52934C",
"J  c #519451",
"K  c #549653",
"L  c #559755",
"P  c #589A58",
"I  c #5A995A",
"U  c #5D9C5C",
"Y  c #5E9D5F",
"T  c #5F9D5F",
"R  c #639F63",
"E  c #66A266",
"W  c #68A267",
"Q  c #6FA768",
"!  c #70A768",
"~  c #CF8210",
"^  c #DDA21F",
"/  c #E1B115",
"(  c #E1B316",
")  c #E2B318",
"_  c #E3B61B",
"`  c #E5B91E",
"'  c #CC842E",
"]  c #D0842C",
"[  c #D6962E",
"{  c #DC992A",
"}  c #D69836",
"|  c #F9823A",
" . c #F8873D",
".. c #FA873F",
"X. c #E6BA21",
"o. c #E7BB25",
"O. c #E8BF28",
"+. c #EDBD29",
"@. c #EDBE30",
"#. c #EDBF35",
"$. c #EFC61B",
"%. c #F4D41F",
"&. c #EAC12C",
"*. c #EBC32F",
"=. c #F1C621",
"-. c #F4CA25",
";. c #F4CA2B",
":. c #ECC532",
">. c #ECC533",
",. c #EFC837",
"<. c #F0CA3B",
"1. c #F1CD3E",
"2. c #F6D537",
"3. c #F6D538",
"4. c #CB8240",
"5. c #CF8A43",
"6. c #D59340",
"7. c #D89842",
"8. c #DB9E45",
"9. c #D1914E",
"0. c #CA8254",
"q. c #F88840",
"w. c #FB8B45",
"e. c #FB8E49",
"r. c #FC8E4B",
"t. c #FC924F",
"y. c #FD9250",
"u. c #FD9554",
"i. c #FE9759",
"p. c #FE9859",
"a. c #FE9A5C",
"s. c #DEA740",
"d. c #ECBD42",
"f. c #E5B14C",
"g. c #C8826B",
"h. c #FEA264",
"j. c #FEA166",
"k. c #F2CE41",
"l. c #F4CF45",
"z. c #F2D34B",
"x. c #F5D249",
"c. c #F2D34E",
"v. c #F5D34C",
"b. c #F6D44C",
"n. c #F6D54F",
"m. c #F3D550",
"M. c #F7D551",
"N. c #F7D752",
"B. c #F4D756",
"V. c #F7D853",
"C. c #F9D854",
"Z. c #F9D954",
"A. c #F9D956",
"S. c #F9D957",
"D. c #F5D95B",
"F. c #EBC067",
"G. c #F6DB60",
"H. c #F7DC65",
"J. c #F8DE68",
"K. c #F9DF72",
/* pixels */
"                                ",
"                                ",
"                                ",
"S.S.S.S.S.V.M.n.n.x.l.k.1.<.,.>.",
"S.Q ! j.j.K.F.A C V N n v j 9.{ ",
"S.W T p.p.J.Z g.M b z p u h d ] ",
"S.E U p.u.H.B c f.0.8.7.4.t w > ",
"C.R P u.y.G.m x d.3.#.r } & 0 : ",
"V.T K y.t.D.v k 2.5.@.+.%.' 6 ; ",
"n.I G e.w.S.i y 6.;.-.=.$.O 4 - ",
"n.K F w. .n.u e f , [ % ^ o 1 = ",
"x.J S  .| z.s g 7 9 3 . o $ # * ",
"l.H D  . .c.s.a 0 0 5 4 . O + ~ ",
"k.1.<.,.>.*.&.&.o.X.` _ ( ( ( ( ",
"                                ",
"                                "
};
