/* XPM */
static char *lr[] = {
/* columns rows colors chars-per-pixel */
"16 16 110 2 ",
"   c None",
".  c #000057",
"X  c #000059",
"o  c #00005B",
"O  c #990000",
"+  c #9B0000",
"@  c #9D0000",
"#  c #A10000",
"$  c #A30000",
"%  c #A50000",
"&  c #A70000",
"*  c #A90000",
"=  c #AB0000",
"-  c #AF0000",
";  c #B30000",
":  c #B70000",
">  c #B90000",
",  c #BD0000",
"<  c #BF0000",
"1  c #C30000",
"2  c #C50000",
"3  c #C70000",
"4  c #C90000",
"5  c #CD0000",
"6  c #CF0000",
"7  c #D03B31",
"8  c #D13F34",
"9  c #D34338",
"0  c #D34439",
"q  c #D4473D",
"w  c #D5483D",
"e  c #D54B41",
"r  c #D64D42",
"t  c #D74D42",
"y  c #D74F46",
"u  c #D85047",
"i  c #D95248",
"p  c #D9544B",
"a  c #D9554B",
"s  c #DA574C",
"d  c #DB574D",
"f  c #D7594F",
"g  c #DB594F",
"h  c #DB5950",
"j  c #DB5A51",
"k  c #DC5C52",
"l  c #D85F55",
"z  c #DC5E55",
"x  c #DD5E55",
"c  c #DD5F56",
"v  c #DE6157",
"b  c #DE6259",
"n  c #DE635A",
"m  c #DE635B",
"M  c #DF655C",
"N  c #DC665E",
"B  c #E0665E",
"V  c #E0675F",
"C  c #E0685F",
"Z  c #DF6F66",
"A  c #E06860",
"S  c #E16B63",
"D  c #E16C63",
"F  c #E16C64",
"G  c #E16D65",
"H  c #E37067",
"J  c #E37068",
"K  c #E37169",
"L  c #E4746C",
"P  c #E4756D",
"I  c #E57971",
"U  c #E8867F",
"Y  c #6364A2",
"T  c #6668A5",
"R  c #6669A5",
"E  c #6A6CA7",
"W  c #6B6DA8",
"Q  c #8487B7",
"!  c #8587B8",
"~  c #E98E86",
"^  c #A0A1C7",
"/  c #B3B3D3",
"(  c #B3B4D3",
")  c #B3B5D3",
"_  c #D9C7C5",
"`  c #DBCBC9",
"'  c #E1CDCD",
"]  c #E5D3D1",
"[  c #EBD9D7",
"{  c #F5E7E5",
"}  c #F7EBE9",
"|  c #FBEDEB",
" . c #EFEFF5",
".. c gray95",
"X. c #F2F2F3",
"o. c #F3F3F3",
"O. c #F4F4F4",
"+. c #F4F5F5",
"@. c gray96",
"#. c #F6F6F6",
"$. c gray97",
"%. c #F7F7FA",
"&. c #F8F8F8",
"*. c #F9F9F9",
"=. c #FAFAFA",
"-. c #FBFBFB",
";. c gray99",
":. c #FDFDFD",
">. c #FDFDFE",
",. c #FEFEFE",
/* pixels */
"                                ",
"                                ",
"                                ",
"o o o o o 6 5 5 4 4 2 1 , , > : ",
"o ) %.) ! ,.,.,.;.;.-.-.-.&.$.[ ",
"o %.,. .W I P J F V B v j d Z ; ",
"o /  .^ T ,.-.-.-.-.-.+.+.+.+.] ",
". Q E T Y J F C b z j d i r N & ",
"| ,.,.-.-.-.-.-.$.$.+.+.+.O.+.' ",
"5 ~ L J F M b c h a u r q 0 z $ ",
"} -.-.-.-.-.&.+.+.+.O.o.o.o.o.` ",
"4 ~ S M b z h a u r q 9 8 7 f + ",
"{ -.-.-.-.&.+.&.+.O.O.o.o.o.o._ ",
"1 , , : : ; ; * * & $ $ + + O O ",
"                                ",
"                                "
};
