/* XPM */
static char *lt[] = {
/* columns rows colors chars-per-pixel */
"16 16 161 2 ",
"   c None",
".  c #002F00",
"X  c #003B00",
"o  c #770000",
"O  c #007B00",
"+  c #AD0000",
"@  c #B70000",
"#  c #B90000",
"$  c #BB0000",
"%  c #BD0000",
"&  c #BF0000",
"*  c #BC2610",
"=  c #BD2B14",
"-  c #BF2E19",
";  c #C10000",
":  c #C30000",
">  c #C70000",
",  c #C90000",
"<  c #CD0000",
"1  c #CF0000",
"2  c #D10000",
"3  c #D50000",
"4  c #D70000",
"5  c #DB0000",
"6  c #DD0000",
"7  c #E30000",
"8  c #E10B0B",
"9  c #E20F0E",
"0  c #E31313",
"q  c #E41919",
"w  c #E61E1E",
"e  c #C1331F",
"r  c #C33824",
"t  c #C53D2A",
"y  c #E72323",
"u  c #E12C2C",
"i  c #E22F2F",
"p  c #E52F2F",
"a  c #E82929",
"s  c #EA2E2E",
"d  c #E23232",
"f  c #E43535",
"g  c #EB3434",
"h  c #E53939",
"j  c #E63D3D",
"k  c #EC3A3A",
"l  c #EE3F3F",
"z  c #C7422F",
"x  c #C54532",
"c  c #C94834",
"v  c #CB4C3A",
"b  c #CE523F",
"n  c #CF5645",
"m  c #D15B49",
"M  c #E74242",
"N  c #E84646",
"B  c #EF4444",
"V  c #E94B4B",
"C  c #EA5050",
"Z  c #EC5455",
"A  c #ED5858",
"S  c #EE5D5D",
"D  c #DA7A6A",
"F  c #EF6162",
"G  c #F26666",
"H  c #008300",
"J  c #149B14",
"K  c #199D19",
"L  c #1A9C1A",
"P  c #1F9F1F",
"I  c #1FA01F",
"U  c #209F20",
"Y  c #24A324",
"T  c #25A225",
"R  c #2AA52A",
"E  c #2AA52B",
"W  c #2BA52B",
"Q  c #2FA92F",
"!  c #30A830",
"~  c #35AB35",
"^  c #36A936",
"/  c #36AB36",
"(  c #3BAA3B",
")  c #3BAD3B",
"_  c #3BAE3A",
"`  c #3BAE3C",
"'  c #3FAD3F",
"]  c #40B040",
"[  c #41B041",
"{  c #45B245",
"}  c #46B246",
"|  c #46B346",
" . c #49B549",
".. c #4BB54B",
"X. c #4FB74F",
"o. c #4FB84F",
"O. c #50B750",
"+. c #53B953",
"@. c #54B954",
"#. c #58BC58",
"$. c #6FC56F",
"%. c #72C673",
"&. c #76C876",
"*. c #AB9B00",
"=. c #E9B100",
"-. c #EDB700",
";. c #EBB900",
":. c #EFBB00",
">. c #F1BF00",
",. c #D1C700",
"<. c #F1C100",
"1. c #F3C500",
"2. c #F5C500",
"3. c #F7C900",
"4. c #F7CB00",
"5. c #F7CD00",
"6. c #F9CD00",
"7. c #FBD100",
"8. c #FFD300",
"9. c #FBD500",
"0. c #D7CF30",
"q. c #D9D136",
"w. c #DAD33B",
"e. c #F6DA38",
"r. c #F7DC3D",
"t. c #DCD540",
"y. c #DED646",
"u. c #DCD64D",
"i. c #DFD84B",
"p. c #F8DE42",
"a. c #F9DF48",
"s. c #E0DA50",
"d. c #E1DB54",
"f. c #E3DD59",
"g. c #E4DE5D",
"h. c #F7DF53",
"j. c #F7DE57",
"k. c #FAE04D",
"l. c #FBE152",
"z. c #FCE357",
"x. c #F7E05C",
"c. c #FDE45B",
"v. c #FDE55E",
"b. c #E5DF61",
"n. c #E6E064",
"m. c #F8E160",
"M. c #FEE662",
"N. c #F8E265",
"B. c #FEE766",
"V. c #F9E469",
"C. c #FAE56D",
"Z. c #FEE869",
"A. c #EBE67F",
"S. c #FBE671",
"D. c #FCE775",
"F. c #FCE879",
"G. c #FCE97B",
"H. c #FCE97E",
"J. c #FCEA80",
"K. c #FDEB83",
"L. c #FFEC83",
/* pixels */
"                                ",
"                                ",
"                                ",
"9.7.7.7.7.6.5.4.4.2.1.<.>.:.-.;.",
"7.K.K.K.G.G.G.D.S.C.V.N.m.x.j.=.",
"8.L.Z.B.M.v.c.z.l.k.a.p.r.e.h.=.",
",.A.n.b.g.f.d.s.i.y.t.w.q.0.u.*.",
"H &.#.@.O...} [ ` / ! W T U ' X ",
"O %.+.o...| ' ) / ! W T P K ( . ",
"O $.o...} [ _ / Q W Y I K J / . ",
"+ D m n b v c z t r e - = * x o ",
"7 G B l k g s a y w q 0 9 8 p & ",
"6 F S A Z C V N M j h f d i i @ ",
"5 4 4 2 < < , , ; ; ; & $ $ @ @ ",
"                                ",
"                                "
};
