/* XPM */
static char *lu[] = {
/* columns rows colors chars-per-pixel */
"16 16 146 2 ",
"   c None",
".  c #E90000",
"X  c #EB0000",
"o  c #ED0000",
"O  c #EF0000",
"+  c #F10000",
"@  c #F30000",
"#  c #F50000",
"$  c #F70500",
"%  c #F90B00",
"&  c #FB1105",
"*  c #FD170B",
"=  c #FD1D0F",
"-  c #E71F17",
";  c #FF1F13",
":  c #FD2117",
">  c #FF2719",
",  c #FD271B",
"<  c #FF291D",
"1  c #FF372D",
"2  c #F65D54",
"3  c #F76259",
"4  c #F8665E",
"5  c #F96A63",
"6  c #FA6F67",
"7  c #FF6D67",
"8  c #F7746C",
"9  c #FB736C",
"0  c #FC776F",
"q  c #F77E77",
"w  c #FD7A72",
"e  c #FD7D76",
"r  c #F8817A",
"t  c #FE817A",
"y  c #F9857F",
"u  c #FE847C",
"i  c #FE867F",
"p  c #003BDF",
"a  c #003FDD",
"s  c #0041DD",
"d  c #0043DD",
"f  c #0047DF",
"g  c #0049DD",
"h  c #0049E1",
"j  c #004DE3",
"k  c #0053E5",
"l  c #0055E7",
"z  c #005BE9",
"x  c #005FEB",
"c  c #0065ED",
"v  c #0069ED",
"b  c #006FEF",
"n  c #0075F1",
"m  c #0079F3",
"M  c #0F81DF",
"N  c #0081F7",
"B  c #0185F5",
"V  c #0081F9",
"C  c #379CF1",
"Z  c #3B9EF1",
"A  c #3FA0F2",
"S  c #44A2F3",
"D  c #48A5F4",
"F  c #4CA8F5",
"G  c #55A9F2",
"H  c #51AAF6",
"J  c #55ADF7",
"K  c #5BACF2",
"L  c #5DAEF2",
"P  c #5AB0F8",
"I  c #5FB3F9",
"U  c #60AFF3",
"Y  c #63B1F3",
"T  c #66B3F4",
"R  c #6AB5F5",
"E  c #6DB7F6",
"W  c #61B5FB",
"Q  c #63B5FA",
"!  c #68B8FA",
"~  c #70B9F7",
"^  c #75BBF7",
"/  c #78BDF8",
"(  c #7BBFF9",
")  c #7FC2F9",
"_  c #FA8882",
"`  c #FB8B85",
"'  c #FC8F8A",
"]  c #F5908B",
"[  c #F6938E",
"{  c #FC928D",
"}  c #FD958F",
"|  c #F79792",
" . c #FD9892",
".. c #F89995",
"X. c #FE9994",
"o. c #FF9B95",
"O. c #FE9D97",
"+. c #F69F9A",
"@. c #F99C98",
"#. c #FE9E99",
"$. c #FA9F9C",
"%. c #FFA09B",
"&. c #FBA29F",
"*. c #FCA5A1",
"=. c #FDA8A4",
"-. c #FDABA6",
";. c #FEACA9",
":. c #FEAFAB",
">. c #FEBDBA",
",. c #86BFF2",
"<. c #88C1F2",
"1. c #8BC4F3",
"2. c #8EC6F4",
"3. c #83C3FA",
"4. c #86C5FB",
"5. c #84C5FC",
"6. c #97C8F3",
"7. c #91C8F5",
"8. c #94CAF6",
"9. c #97CBF7",
"0. c #9BCDF8",
"q. c #9ECFF9",
"w. c #A1D1FA",
"e. c #A4D2FB",
"r. c #A7D4FB",
"t. c #B7DDFC",
"y. c gainsboro",
"u. c gray87",
"i. c gray88",
"p. c gray93",
"a. c gray95",
"s. c #F3F3F3",
"d. c #F4F4F4",
"f. c #F4F5F5",
"g. c gray96",
"h. c #F6F6F6",
"j. c gray97",
"k. c #F8F8F8",
"l. c #F9F9F9",
"z. c #FAFAFA",
"x. c #FBFBFB",
"c. c #FBFCFB",
"v. c gray99",
"b. c #FDFCFD",
"n. c #FDFDFD",
"m. c #FEFEFE",
/* pixels */
"                                ",
"                                ",
"                                ",
"1 < < < > : = * & % $ # @ @ o o ",
"> %.#.#.#.X. .} { ' ` _ _ q q X ",
"; o.i u u e w 0 9 6 5 4 3 2 8 X ",
"7 >.:.;.=.*.*.&.$.@.....] ] +.- ",
"p.m.m.m.m.x.m.x.x.j.j.j.f.d.f.i.",
"p.m.m.x.x.x.x.k.j.f.f.f.f.d.d.y.",
"p.m.x.x.x.x.k.x.x.f.f.d.d.d.d.y.",
"I t.r.r.w.0.0.9.8.7.2.2.<.,.6.M ",
"V 5.! Q W P J H F D S Z Z C G p ",
"N 4.3.) ( / ^ ~ E R T Y U L L a ",
"B m n b v c x z l k j h f s s g ",
"                                ",
"                                "
};
