/* XPM */
static char *ly[] = {
/* columns rows colors chars-per-pixel */
"16 16 133 2 ",
"   c None",
".  c #004300",
"X  c #004500",
"o  c #004700",
"O  c #004900",
"+  c #004B00",
"@  c #004D00",
"#  c #005100",
"$  c #005300",
"%  c #005700",
"&  c #005900",
"*  c #005D00",
"=  c #005F00",
"-  c #006300",
";  c #006700",
":  c #006D00",
">  c #007100",
",  c #007700",
"<  c #007B00",
"1  c #008100",
"2  c #008500",
"3  c #008700",
"4  c #008900",
"5  c #008B00",
"6  c #008D00",
"7  c #008F00",
"8  c #009100",
"9  c #009300",
"0  c #009500",
"q  c #009700",
"w  c #009900",
"e  c #17A618",
"r  c #1CA81B",
"t  c #1CA91C",
"y  c #20AB20",
"u  c #21AB21",
"i  c #24AD25",
"p  c #25AE25",
"a  c #26AE26",
"s  c #2AAF2A",
"d  c #2BB02B",
"f  c #2FB12F",
"g  c #2FB22F",
"h  c #30B230",
"j  c #30B330",
"k  c #31B331",
"l  c #37B237",
"z  c #34B434",
"x  c #35B435",
"c  c #35B536",
"v  c #36B536",
"b  c #37B537",
"n  c #37B637",
"m  c #39B339",
"M  c #3AB33A",
"N  c #3AB63A",
"B  c #3AB73A",
"V  c #3BB73B",
"C  c #3CB43C",
"Z  c #3DB43D",
"A  c #3BB83B",
"S  c #3CB83C",
"D  c #3FB93F",
"F  c #40B640",
"G  c #41B741",
"H  c #40B940",
"J  c #40BA40",
"K  c #41BA40",
"L  c #41BB41",
"P  c #41BB42",
"I  c #44B943",
"U  c #44BB44",
"Y  c #46B946",
"T  c #47B947",
"R  c #45BC45",
"E  c #46BC46",
"W  c #46BD46",
"Q  c #47BD47",
"!  c #49BB49",
"~  c #49BE49",
"^  c #4BBC4B",
"/  c #4ABE4A",
"(  c #4BBE4B",
")  c #4CBF4C",
"_  c #4EBE4E",
"`  c #50BE50",
"'  c #52BF52",
"]  c #4EC04E",
"[  c #4FC04F",
"{  c #50C050",
"}  c #50C150",
"|  c #51C151",
" . c #53C253",
".. c #55C055",
"X. c #54C354",
"o. c #55C355",
"O. c #56C356",
"+. c #57C257",
"@. c #59C259",
"#. c #58C558",
"$. c #58C559",
"%. c #5AC55A",
"&. c #5CC35C",
"*. c #5DC75D",
"=. c #5DC45E",
"-. c #5EC75E",
";. c #60C660",
":. c #62C662",
">. c #61C861",
",. c #61C961",
"<. c #62C962",
"1. c #65C865",
"2. c #65CA65",
"3. c #65C866",
"4. c #69CA69",
"5. c #6ACA6A",
"6. c #68CC68",
"7. c #6DCC6D",
"8. c #6FCC6F",
"9. c #71CD71",
"0. c #73CD73",
"q. c #75CE75",
"w. c #77D076",
"e. c #79D079",
"r. c #7AD17A",
"t. c #7BD27B",
"y. c #7DD37D",
"u. c #7ED37E",
"i. c #80D380",
"p. c #80D480",
"a. c #82D482",
"s. c #82D483",
"d. c #83D483",
/* pixels */
"                                ",
"                                ",
"                                ",
"w w w w w q 9 7 5 3 3 1 < , > : ",
"w d.d.p.u.t.t.q.9.7.5.2.;.&.+.; ",
"w d.6.2.>.-.%.o.| _ Q L S n ' - ",
"w i.2.>.-.%.o.| ( R L V n k _ * ",
"q y.>.*.%.o.} ( U L B n k d ! & ",
"q t.-.$.+.} _ U L B n d d a T $ ",
"9 w.o.X.] ( U L A l k s a u L @ ",
"7 0.| } ( U S B n d d a u t Z O ",
"3 8.] ( R S B l d s a u r e M o ",
"3 5.2.;.*.@.' ' _ U I F C M l o ",
"< < , > : ; - * & $ # @ O o . . ",
"                                ",
"                                "
};
