/* XPM */
static char *ma[] = {
/* columns rows colors chars-per-pixel */
"16 16 123 2 ",
"   c None",
".  c #DD0000",
"X  c #DF0000",
"o  c #E10000",
"O  c #E30000",
"+  c #E50000",
"@  c #E70000",
"#  c #E90000",
"$  c #EB0000",
"%  c #ED0000",
"&  c #EF0000",
"*  c #F10000",
"=  c #F30000",
"-  c #F50000",
";  c #F70000",
":  c #F90000",
">  c #FB0000",
",  c #FD0000",
"<  c red",
"1  c #F10B0B",
"2  c #F10F0E",
"3  c #F21010",
"4  c #F21313",
"5  c #F21414",
"6  c #F31919",
"7  c #F31A1A",
"8  c #F41E1E",
"9  c #F41F1F",
"0  c #F42020",
"q  c #F52323",
"w  c #F52424",
"e  c #F42524",
"r  c #F52525",
"t  c #F52626",
"y  c #F62929",
"u  c #F62A2A",
"i  c #F62B2B",
"p  c #F22D2A",
"a  c #F22C2C",
"s  c #F22F2F",
"d  c #F62C2C",
"f  c #F72E2E",
"g  c #F72F2F",
"h  c #F23232",
"j  c #F33232",
"k  c #F73030",
"l  c #F73131",
"z  c #F33535",
"x  c #F43636",
"c  c #F83434",
"v  c #F83534",
"b  c #F83736",
"n  c #F83737",
"m  c #F13B36",
"M  c #F43939",
"N  c #F43B3B",
"B  c #F63D3A",
"V  c #F53D3D",
"C  c #F53F3F",
"Z  c #F93A3A",
"A  c #F93C3C",
"S  c #F93C3D",
"D  c #FA3F3F",
"F  c #BD5F2F",
"G  c #B27936",
"H  c #BE713C",
"J  c #B57D3B",
"K  c #C95830",
"L  c #C06335",
"P  c #F64242",
"I  c #F64444",
"U  c #F74646",
"Y  c #FA4040",
"T  c #F94242",
"R  c #FA4242",
"E  c #FA4444",
"W  c #FB4545",
"Q  c #FB4646",
"!  c #FA4747",
"~  c #FB4747",
"^  c #F34A46",
"/  c #F74949",
"(  c #F74B4B",
")  c #F74E4E",
"_  c #FB4949",
"`  c #FB4A49",
"'  c #FC4A4B",
"]  c #FC4B4B",
"[  c #FC4C4C",
"{  c #FC4F4F",
"}  c #FD4F50",
"|  c #F85050",
" . c #F85353",
".. c #FD5151",
"X. c #FD5353",
"o. c #F95455",
"O. c #F95757",
"+. c #FD5454",
"@. c #F95858",
"#. c #FE5858",
"$. c #FE5959",
"%. c #FA5C5C",
"&. c #FA5D5D",
"*. c #FE5C5C",
"=. c #FE5F5F",
"-. c #D06440",
";. c #C07541",
":. c #FB6060",
">. c #FB6162",
",. c #FC6565",
"<. c #FC6666",
"1. c #FC6969",
"2. c #FC6A6A",
"3. c #FD6D6D",
"4. c #FD6F6F",
"5. c #FD7071",
"6. c #FE7273",
"7. c #FE7474",
"8. c #FE7676",
"9. c #FE7777",
"0. c #FE7979",
"q. c #FF7B7A",
"w. c #FF7B7B",
/* pixels */
"                                ",
"                                ",
"                                ",
"< < < < > < < < > > ; ; = = % % ",
"< w.w.w.8.6.4.3.1.,.:.%.O. .) $ ",
"< w.*.*.#.O.X.] ~ R S b l d / $ ",
"< w.*.*.X.X.] Q R S b l i t I + ",
"< 8.O.X.{ ] ^ ;.H m g i t 0 C + ",
"< 6.+.} ' ~ L J G K i t 9 6 N + ",
"< 4.} ~ W Y D L F p w 9 6 4 x + ",
"> 2.~ W Y Z x g i t 9 6 4 4 h X ",
"> <.W Y Z c d i 0 9 6 4 2 1 s X ",
"; >.%.@.O.) ` ! P C M x h s s X ",
"= = = % % % $ + $ + o o X X . . ",
"                                ",
"                                "
};
