/* XPM */
static char *mc[] = {
/* columns rows colors chars-per-pixel */
"16 16 107 2 ",
"   c None",
".  c #E50000",
"X  c #E70000",
"o  c #E90000",
"O  c #EB0000",
"+  c #ED0000",
"@  c #EF0000",
"#  c #F10000",
"$  c #F30000",
"%  c #F50000",
"&  c #F70000",
"*  c #F90000",
"=  c #FB0000",
"-  c #FD0000",
";  c red",
":  c #FD0505",
">  c #F42020",
",  c #F52525",
"<  c #F52626",
"1  c #F62B2B",
"2  c #F62C2C",
"3  c #F73030",
"4  c #F73131",
"5  c #F83636",
"6  c #F83736",
"7  c #F83737",
"8  c #F53F3F",
"9  c #F93B3C",
"0  c #F93C3C",
"q  c #F93C3D",
"w  c #F64444",
"e  c #FA4141",
"r  c #FA4142",
"t  c #FA4242",
"y  c #FB4646",
"u  c #FB4747",
"i  c #F74949",
"p  c #F34C4C",
"a  c #F74E4E",
"s  c #FC4B4B",
"d  c #FC4C4C",
"f  c #FD4F50",
"g  c #F45151",
"h  c #F55555",
"j  c #F85353",
"k  c #FD5151",
"l  c #F95757",
"z  c #FD5454",
"x  c #F65A5A",
"c  c #F75E5E",
"v  c #FE5858",
"b  c #FE5959",
"n  c #FA5C5C",
"m  c #FE5C5C",
"M  c #FE5F5F",
"N  c #F46666",
"B  c #FB6060",
"V  c #F86363",
"C  c #F96767",
"Z  c #FC6565",
"A  c #FA6B6B",
"S  c #FC6969",
"D  c #FD6D6D",
"F  c #FB7070",
"G  c #FD7071",
"H  c #FC7474",
"J  c #FE7474",
"K  c #FE7676",
"L  c #FE7777",
"P  c #FC7778",
"I  c #FE7979",
"U  c #FD7A7A",
"Y  c #FF7B7A",
"T  c #FF7B7B",
"R  c #FE9393",
"E  c #C5C5C5",
"W  c gray78",
"Q  c gray79",
"!  c #C9CBC9",
"~  c #CBCBCB",
"^  c gray81",
"/  c gray82",
"(  c LightGray",
")  c #D7D7D7",
"_  c gray85",
"`  c gray86",
"'  c #DFDFDF",
"]  c gray89",
"[  c gray90",
"{  c #E7E7E7",
"}  c #E9E9E9",
"|  c gray92",
" . c #F1F1F1",
".. c gray95",
"X. c #F2F2F3",
"o. c #F3F3F3",
"O. c #F4F4F4",
"+. c gray96",
"@. c #F6F6F6",
"#. c #F7F7F7",
"$. c #F8F8F8",
"%. c #F9F9F9",
"&. c #FAFAFA",
"*. c #FBFBFB",
"=. c #FBFCFB",
"-. c gray99",
";. c #FDFDFD",
/* pixels */
"                                ",
"                                ",
"                                ",
"; ; ; ; = ; ; ; = = & & $ $ + + ",
"; T T T K J D D S Z B n l j a O ",
"; T m m m z z d s e q 5 4 2 i O ",
"; T m m z z s u e 9 5 4 1 < w . ",
"; K l z d s t e 9 5 3 1 < > 8 . ",
": R T P H J A C V n x h g p N . ",
"| -.-.=.%.%.%.%.#.@.@.o.o...o.~ ",
"| %.-.*.%.%.%.@.@.@.o.o.....o.! ",
"| -.%.%.%.%.@.@.@.o.o.........E ",
"] %.%.%.%.%.@.%.@.@.O.O.......E ",
"] ] ] ` _ ) ) / / ^ ~ ! Q E E E ",
"                                ",
"                                "
};
