/* XPM */
static char *md[] = {
/* columns rows colors chars-per-pixel */
"16 16 156 2 ",
"   c None",
".  c #9F0000",
"X  c #A10000",
"o  c #A30000",
"O  c #A50000",
"+  c #A70000",
"@  c #A90000",
"#  c #AD0000",
"$  c #B10000",
"%  c #B30000",
"&  c #B90000",
"*  c #BB0000",
"=  c #BF0000",
"-  c #C10000",
";  c #C50000",
":  c #C70000",
">  c #D3291A",
",  c #D42C1D",
"<  c #D53022",
"1  c #D63122",
"2  c #D73527",
"3  c #D73627",
"4  c #D73628",
"5  c #D83B2C",
"6  c #D83B2D",
"7  c #DA4032",
"8  c #DB4133",
"9  c #D84538",
"0  c #DC4538",
"q  c #DC4638",
"w  c #DD4639",
"e  c #D8483B",
"r  c #DA4B3E",
"t  c #DA4B3F",
"y  c #DE4B3D",
"u  c #DE4B3E",
"i  c #DB4E41",
"p  c #DB4F42",
"a  c #DF5043",
"s  c #DD5346",
"d  c #DE574B",
"f  c #DF5B50",
"g  c #E15448",
"h  c #E2594C",
"j  c #E16054",
"k  c #E26459",
"l  c #E4695D",
"z  c #E56C61",
"x  c #E67066",
"c  c #97823C",
"v  c #97833D",
"b  c #E3BB00",
"n  c #E5BD00",
"m  c #E7BF00",
"M  c #E9C100",
"N  c #EDC700",
"B  c #EBC900",
"V  c #FBD100",
"C  c #FDD300",
"Z  c #F7D900",
"A  c #F9DB00",
"S  c #FDDF00",
"D  c #FDE300",
"F  c #F4E31E",
"G  c #F2D723",
"H  c #F4D929",
"J  c #F3E026",
"K  c #F4E12B",
"L  c #F7EA2E",
"P  c #F5E230",
"I  c #F5E331",
"U  c #F6E436",
"Y  c #F5E43D",
"T  c #F7E63C",
"R  c #9A8642",
"E  c #9A8743",
"W  c #9E8B48",
"Q  c #A08D4C",
"!  c #A49152",
"~  c #A79457",
"^  c #A99652",
"/  c #AF9E57",
"(  c #B1A15C",
")  c #ED9E41",
"_  c #D1BE52",
"`  c #EEA046",
"'  c #DED042",
"]  c #E7D84E",
"[  c #F4E344",
"{  c #F8E640",
"}  c #F8E842",
"|  c #F9E845",
" . c #F6E54C",
".. c #F9E948",
"X. c #FAE94B",
"o. c #FAEA4D",
"O. c #F7E750",
"+. c #F7E855",
"@. c #FBEB51",
"#. c #FCEC56",
"$. c #F8E95A",
"%. c #FDED5B",
"&. c #FDEE5E",
"*. c #FDF351",
"=. c #FCEE65",
"-. c #FBED6A",
";. c #FCEF72",
":. c #FDF075",
">. c #FDF17A",
",. c #FEF27B",
"<. c #000099",
"1. c #00009D",
"2. c #0000A1",
"3. c #0000A5",
"4. c #0000A9",
"5. c #0000AB",
"6. c #0000AF",
"7. c #0000B3",
"8. c #0000B5",
"9. c #0000B9",
"0. c #0003BB",
"q. c #0005BB",
"w. c #0007BB",
"e. c #0009BB",
"r. c #3C5ACD",
"t. c #415FCF",
"y. c #4663D0",
"u. c #4A67D2",
"i. c #4C67D2",
"p. c #4F6CD4",
"a. c #516CD4",
"s. c #5470D6",
"d. c #5571D6",
"f. c #5671D6",
"g. c #5974D7",
"h. c #5E78D6",
"j. c #5A75D8",
"k. c #5E79D9",
"l. c #5F79D9",
"z. c #5F79DA",
"x. c #637BD8",
"c. c #627CDB",
"v. c #637CDB",
"b. c #677FD9",
"n. c #667FDC",
"m. c #6B83DB",
"M. c #6982DD",
"N. c #6F87DD",
"B. c #748ADD",
"V. c #788EDF",
"C. c #7B90E1",
"Z. c #7F94E2",
"A. c #8195E2",
"S. c #8196E2",
"D. c #8497E2",
"F. c #8498E2",
/* pixels */
"                                ",
"                                ",
"                                ",
"e.e.e.e.w.S D C V A Z : : - = * ",
"e.F.F.A.A.,.,.;.;.=.-.x z l k * ",
"e.D.M.n.c.&.*.( / o...p u q j $ ",
"w.A.n.c.l.&.] _ ^ ] } u q 8 f $ ",
"0.Z.c.l.j.#.~ h g E T q 7 6 d # ",
"0.C.l.j.f.@.! ` ) E U 8 6 4 s + ",
"8.V.g.f.a...Q t.r.c K 5 4 1 a + ",
"7.B.s.p.i.| { E c K K 3 1 , t X ",
"6.N.a.u.y.{ L H G F H 1 , > e . ",
"5.m.b.x.h.$.+.O. .T [ p r e q . ",
"5.3.2.1.<.N B M n n b + X X . . ",
"                                ",
"                                "
};
