/* XPM */
static char *me[] = {
/* columns rows colors chars-per-pixel */
"16 16 144 2 ",
"   c None",
".  c #5D3B68",
"X  c #C80308",
"o  c #CA0308",
"O  c #CB0308",
"+  c #CC0308",
"@  c #CD0308",
"#  c #CF0308",
"$  c #D00309",
"%  c #D10309",
"&  c #D20309",
"*  c #D40309",
"=  c #D50309",
"-  c #D60309",
";  c #D70309",
":  c #D80309",
">  c #D90309",
",  c #DB0309",
"<  c #DC0309",
"1  c #DD0309",
"2  c #DF0309",
"3  c #E40006",
"4  c #E00309",
"5  c #E10309",
"6  c #E30309",
"7  c #E40309",
"8  c #E50409",
"9  c #E70409",
"0  c #E80409",
"q  c #EA040A",
"w  c #EB040A",
"e  c #EC040A",
"r  c #EE040A",
"t  c #EF040A",
"y  c #F0040A",
"u  c #F1040A",
"i  c #F3040A",
"p  c #F4040A",
"a  c #F5040A",
"s  c #F6040A",
"d  c #F7040A",
"f  c #FA040A",
"g  c #E32412",
"h  c #EC2112",
"j  c #D44135",
"k  c #D54135",
"l  c #D74135",
"z  c #D84135",
"x  c #D94135",
"c  c #DB4135",
"v  c #DC4136",
"b  c #DD4136",
"n  c #E04136",
"m  c #E14136",
"M  c #E24136",
"N  c #E34136",
"B  c #E54136",
"V  c #E74136",
"C  c #E84136",
"Z  c #EA4136",
"A  c #EC4236",
"S  c #ED4236",
"D  c #EE4236",
"F  c #F04237",
"G  c #F24237",
"H  c #F34237",
"J  c #F44237",
"K  c #F64237",
"L  c #F84237",
"P  c #FB4237",
"I  c #FC4237",
"U  c #D86426",
"Y  c #DC6826",
"T  c #DE772B",
"R  c #E96F29",
"E  c #219C7C",
"W  c #42A668",
"Q  c #DE9C32",
"!  c #F08831",
"~  c #F38A31",
"^  c #E29433",
"/  c #E69634",
"(  c #E89C33",
")  c #D8A72A",
"_  c #DAA92A",
"`  c #DBAA2A",
"'  c #DEAD2A",
"]  c #D5B235",
"[  c #D6B335",
"{  c #D8B335",
"}  c #D8B535",
"|  c #D9B535",
" . c #DBB737",
".. c #DDB837",
"X. c #DFB938",
"o. c #E1AE2B",
"O. c #E3B02C",
"+. c #E7B32C",
"@. c #EBB52E",
"#. c #EFB92F",
"$. c #E3A034",
"%. c #E8A437",
"&. c #EBAE3A",
"*. c #E3B43D",
"=. c #E7B53D",
"-. c #EDB63E",
";. c #E1BC38",
":. c #E3BD39",
">. c #E6B83F",
",. c #E8BC3B",
"<. c #EBBA3F",
"1. c #F2BC30",
"2. c #E6C03A",
"3. c #E7C13A",
"4. c #EBC33C",
"5. c #EDC63C",
"6. c #EFC73D",
"7. c #F2CB3E",
"8. c #F6CE3F",
"9. c #FED438",
"0. c #FFD839",
"q. c #FFDB3A",
"w. c #FFDF3C",
"e. c #FFE23D",
"r. c #FFE63E",
"t. c #FFE73E",
"y. c #FFE93F",
"u. c #FFEB3F",
"i. c #FFED3F",
"p. c #D3AC44",
"a. c #E3BC40",
"s. c #E9BC40",
"d. c #FAD041",
"f. c #FBD141",
"g. c #FED441",
"h. c #FFD642",
"j. c #FFD843",
"k. c #FFDA43",
"l. c #FFDD45",
"z. c #FFDE45",
"x. c #FFDF46",
"c. c #FFE146",
"v. c #0F65B1",
"b. c #0E66B1",
/* pixels */
"                                ",
"                                ",
"                                ",
"c.c.c.c.c.l.l.l.k.k.h.h.d.d.8.7.",
"i.I I I I L K K K F F S S Z Z 1.",
"u.I d d a a u t e w 8 8 5 2 N #.",
"u.L d a a u t ( %.3 5 2 2 , M @.",
"r.L a u t ~ h &.$.g / 2 - - M +.",
"r.J u t t ! -.b.b.=.^ : - - b O.",
"e.G t 0 8 R <.E W *.Y - $ $ c o.",
"w.G 0 8 6 6 2 s.>.p.. $ @ @ c ' ",
"q.S 6 6 2 : ,.T a.U Q $ @ o k _ ",
"9.S 5 2 : : - $ $ + + o o o k _ ",
"9.N N M M M b b b c k c k k j ) ",
"6.6.4.2.2.:.;.;... .} } } [ ] ] ",
"                                "
};
