/* XPM */
static char *mg[] = {
/* columns rows colors chars-per-pixel */
"16 16 133 2 ",
"   c None",
".  c #002700",
"X  c #002900",
"o  c #002D00",
"O  c #002F00",
"+  c #003100",
"@  c #003300",
"#  c #003500",
"$  c #003900",
"%  c #003D00",
"&  c #003F00",
"*  c #004100",
"=  c #004700",
"-  c #005D00",
";  c #9B0000",
":  c #E70000",
">  c #E90000",
",  c #EB0000",
"<  c #ED0000",
"1  c #EF0000",
"2  c #F10000",
"3  c #F30000",
"4  c #F50000",
"5  c #F70000",
"6  c #F90000",
"7  c #FB0000",
"8  c #FD0000",
"9  c #CE311A",
"0  c #D1351F",
"q  c #D23A25",
"w  c #D43F2B",
"e  c #F42020",
"r  c #F52525",
"t  c #F52626",
"y  c #F62B2B",
"u  c #F62C2C",
"i  c #F73030",
"p  c #F73131",
"a  c #F83636",
"s  c #F83736",
"d  c #F83737",
"f  c #F53F3F",
"g  c #F93B3C",
"h  c #F93C3C",
"j  c #F93C3D",
"k  c #D64430",
"l  c #D84936",
"z  c #D54E3B",
"x  c #D94E3B",
"c  c #DB5240",
"v  c #F64444",
"b  c #FA4141",
"n  c #FA4142",
"m  c #FA4242",
"M  c #FB4646",
"N  c #FB4747",
"B  c #F74949",
"V  c #F74E4E",
"C  c #FC4B4B",
"Z  c #FC4C4C",
"A  c #F85353",
"S  c #FD5151",
"D  c #F95757",
"F  c #FA5C5C",
"G  c #E7675D",
"H  c #FB6060",
"J  c #FC6062",
"K  c #FC6565",
"L  c #FD6666",
"P  c #FC6969",
"I  c #FD6A6A",
"U  c #FD6D6D",
"Y  c #FD7071",
"T  c #0B950B",
"R  c #0F970E",
"E  c #109710",
"W  c #139913",
"Q  c #149914",
"!  c #189C19",
"~  c #199C19",
"^  c #1E9F1E",
"/  c #1F9F1F",
"(  c #14A314",
")  c #19A519",
"_  c #1FA81F",
"`  c #23A123",
"'  c #24A224",
"]  c #24AB24",
"[  c #29A429",
"{  c #2AA42A",
"}  c #2CA22C",
"|  c #2FA42F",
" . c #2EA62E",
".. c #2FA72F",
"X. c #2AAD2A",
"o. c #2FB02F",
"O. c #32A532",
"+. c #33A632",
"@. c #34A934",
"#. c #35A835",
"$. c #35AD35",
"%. c #39A939",
"&. c #3BAE3A",
"*. c #3DAC3D",
"=. c #36B036",
"-. c #42AE42",
";. c #46B046",
":. c #4BB14B",
">. c #4DB44D",
",. c #52B752",
"<. c #55BB58",
"1. c #64BD64",
"2. c #FE8585",
"3. c gray85",
"4. c gray86",
"5. c #DFDFDF",
"6. c #E1E1E1",
"7. c gray89",
"8. c gray90",
"9. c #E7E7E7",
"0. c #E9E9E9",
"q. c gray92",
"w. c gray93",
"e. c #EFEFEF",
"r. c #F9F9F9",
"t. c gray98",
"y. c #FBFBFB",
"u. c #FBFCFB",
"i. c gray99",
"p. c #FDFCFD",
"a. c #FDFDFD",
"s. c #FEFEFE",
"d. c white",
/* pixels */
"                                ",
"                                ",
"                                ",
"e.e.e.e.e.8 8 8 7 7 5 5 3 3 < < ",
"e.d.d.d.d.2.Y U P P H F D A V , ",
"e.d.d.y.d.P S Z M m j d p u B , ",
"e.d.d.d.y.K C M b j d p y t v : ",
"e.d.y.d.y.J M b g a u y t e f : ",
"0.d.i.u.i.G c x l k w q q 9 z ; ",
"0.d.u.y.u.<.&.$.o.X.] _ ) ( $.= ",
"0.d.y.y.y.,.@.| [ ' ^ ~ Q E +.+ ",
"9.y.r.y.y.>.+.[ ` ^ ~ W R T | o ",
"9.y.y.r.y.1.:.-.-.*.%.#.+.| } X ",
"6.6.5.3.3.- * & * & $ + o o X # ",
"                                ",
"                                "
};
