/* XPM */
static char *mh[] = {
/* columns rows colors chars-per-pixel */
"16 16 158 2 ",
"   c None",
".  c #000013",
"X  c #000017",
"o  c #000019",
"O  c #00001B",
"+  c #00001F",
"@  c #3B0000",
"#  c #000025",
"$  c #000027",
"%  c #00002D",
"&  c #000033",
"*  c #000039",
"=  c #00003F",
"-  c #000045",
";  c #00004B",
":  c #00004F",
">  c #000051",
",  c #000055",
"<  c #00005B",
"1  c #00005F",
"2  c #000065",
"3  c #000069",
"4  c #00006B",
"5  c #00006D",
"6  c #00006F",
"7  c #000071",
"8  c #000073",
"9  c #000175",
"0  c #000375",
"q  c #000777",
"w  c #000979",
"e  c #00097B",
"r  c #0F2973",
"t  c #47436B",
"y  c #EB0000",
"u  c #E95D00",
"i  c #D3743C",
"p  c #F2762C",
"a  c #AF6F59",
"s  c #BB785D",
"d  c #846B77",
"f  c #957577",
"g  c #A26E62",
"h  c #E27E41",
"j  c #F6812D",
"k  c #F78135",
"l  c #F7924B",
"z  c #D28A62",
"x  c #F5A56F",
"c  c #F7A96B",
"v  c #F6A86E",
"b  c #F8A86A",
"n  c #F1A674",
"m  c #143B8F",
"M  c #123D8F",
"N  c #164192",
"B  c #174192",
"V  c #194092",
"C  c #184393",
"Z  c #1B4494",
"A  c #1E4896",
"S  c #1E4897",
"D  c #204997",
"F  c #234997",
"G  c #2C509B",
"H  c #32579E",
"J  c #35599E",
"K  c #36599F",
"L  c #365BA1",
"P  c #345AA2",
"I  c #375CA1",
"U  c #385CA1",
"Y  c #3B60A4",
"T  c #3C64AD",
"R  c #3D65B0",
"E  c #5E6795",
"W  c #54679C",
"Q  c #726984",
"!  c #6F7196",
"~  c #7E7E9D",
"^  c #4662A2",
"/  c #4062A4",
"(  c #4265A7",
")  c #4D69A7",
"_  c #4267AE",
"`  c #4769A9",
"'  c #476AAD",
"]  c #4A6AAB",
"[  c #4B6AAB",
"{  c #496DAF",
"}  c #4C6EAF",
"|  c #4269B0",
" . c #4168B2",
".. c #466AB1",
"X. c #4568B2",
"o. c #496FB4",
"O. c #4E71B0",
"+. c #4F71B0",
"@. c #5071B1",
"#. c #5172B1",
"$. c #5374B2",
"%. c #5375B3",
"&. c #5475B3",
"*. c #5575B3",
"=. c #5C7AB2",
"-. c #5879B4",
";. c #5879B5",
":. c #587AB9",
">. c #5E7FB9",
",. c #6B83B1",
"<. c #6581B9",
"1. c #6582B9",
"2. c #6683BD",
"3. c #6C86B9",
"4. c #6A86BC",
"5. c #6E8ABE",
"6. c #6F8BBE",
"7. c #718DC0",
"8. c #728EC0",
"9. c #758FC2",
"0. c #718FC4",
"q. c #7590C2",
"w. c #7190C5",
"e. c #7892C3",
"r. c #7F98C7",
"t. c #B2A4AC",
"y. c #CF9D82",
"u. c #D8C1B9",
"i. c #F5CDAE",
"p. c #F7DEBF",
"a. c #F8D8B8",
"s. c #8A9EC6",
"d. c #849BC8",
"f. c #859BC8",
"g. c #97A7CE",
"h. c #90A7D1",
"j. c #9DADD1",
"k. c #9CADD2",
"l. c #AEB8CF",
"z. c #A3B3D5",
"x. c #A9B6D6",
"c. c #B6C2DD",
"v. c #BFC7D9",
"b. c #B9C3DC",
"n. c #B5C5E1",
"m. c #F5DECC",
"M. c #F6E3CC",
"N. c #F6E2D3",
"B. c #C3CBE2",
"V. c #D6DAE6",
"C. c #D7E0EE",
"Z. c #E7E7E7",
"A. c #EEEFF3",
"S. c #EEF3F5",
"D. c #F4F4F4",
"F. c gray96",
"G. c #FDFDFE",
"H. c #FEFEFE",
/* pixels */
"                                ",
"                                ",
"                                ",
"e e e e q 0 7 5 3 2 1 < , > : @ ",
"e d.c.B.d.e.9.6.6.4.<.>.:.~ z y ",
"e k.H.H.g.-.*.#.} ' R ^ g p l u ",
"e z.H.H.k.*.+.} | T Q i j x N.Z.",
"0 r.x.b.<.+.{  .W a k v m.D.S.,.",
"0 q.;.$.+..._ d h b M.F.C.s.=.$ ",
"5 8.#.O...E s b p.S.n.3.G m K # ",
"5 6.O.] f n a.V.h.] F m C V U o ",
"2 2.! y.i.v.w.P F A A C N N K X ",
"1 t.u.l.w.#.] ] ` ( / Y K K H . ",
"t r 3 ; - = * & % $ $ + o X . . ",
"                                ",
"                                "
};
