/* XPM */
static char *mk[] = {
/* columns rows colors chars-per-pixel */
"16 16 164 2 ",
"   c None",
".  c #DD0000",
"X  c #DF0000",
"o  c #DD0300",
"O  c #E10000",
"+  c #E30000",
"@  c #E50000",
"#  c #E70000",
"$  c #E90000",
"%  c #EB0000",
"&  c #ED0000",
"*  c #EF0000",
"=  c #F10000",
"-  c #F30000",
";  c #F50000",
":  c #F70000",
">  c #F90000",
",  c #FB0000",
"<  c #FD0000",
"1  c red",
"2  c #F21010",
"3  c #F31919",
"4  c #F41E1E",
"5  c #EF3100",
"6  c #EB3D00",
"7  c #FD3500",
"8  c #FD3900",
"9  c #F32C19",
"0  c #F42D1F",
"q  c #F52626",
"w  c #F52D24",
"e  c #F52E25",
"r  c #F72E2E",
"t  c #F6382B",
"y  c #F33232",
"u  c #F33535",
"i  c #F83434",
"p  c #F83E34",
"a  c #F43939",
"s  c #F53E3D",
"d  c #F93C3D",
"f  c #F34D00",
"g  c #F74D00",
"h  c #F24014",
"j  c #F24114",
"k  c #F25A13",
"l  c #FF6700",
"z  c #FF7700",
"x  c #F4791F",
"c  c #F44020",
"v  c #F2472F",
"b  c #F65D2B",
"n  c #F24B32",
"m  c #F9423C",
"M  c #F56524",
"N  c #F66F2A",
"B  c #F6762A",
"V  c #F7772F",
"C  c #F46E36",
"Z  c #F86C37",
"A  c #F56C3F",
"S  c #F77230",
"D  c #F87636",
"F  c #F9793A",
"G  c #F97C3A",
"H  c #F64444",
"J  c #FA4242",
"K  c #F74B4B",
"L  c #FB4949",
"P  c #FB5145",
"I  c #FC514B",
"U  c #FB5A49",
"Y  c #F85050",
"T  c #FD5151",
"R  c #F95455",
"E  c #FD5454",
"W  c #FD5950",
"Q  c #FD5C54",
"!  c #FA5C5C",
"~  c #FE5C5C",
"^  c #FB6645",
"/  c #F76549",
"(  c #FA7940",
")  c #FC714F",
"_  c #F96857",
"`  c #F96F58",
"'  c #FE7158",
"]  c #FE7F59",
"[  c #FB6060",
"{  c #FC6665",
"}  c #FC6A6A",
"|  c #FC7866",
" . c #FD7071",
".. c #FE7474",
"X. c #FE7777",
"o. c #FE7979",
"O. c #F1940B",
"+. c #F39D19",
"@. c #F6842B",
"#. c #F88436",
"$. c #F78F30",
"%. c #F98D3A",
"&. c #F5AC23",
"*. c #F6A729",
"=. c #F6AE2C",
"-. c #F5B625",
";. c #F2BE2F",
":. c #F7BF2F",
">. c #F7AE31",
",. c #FAAF3F",
"<. c #F9BC3C",
"1. c #DDDD00",
"2. c #E7C500",
"3. c #E9C700",
"4. c #F1CA0E",
"5. c #F4D81F",
"6. c #E5E500",
"7. c #EDEF00",
"8. c #FBE300",
"9. c #FDE300",
"0. c #F5F500",
"q. c #FDFD00",
"w. c yellow",
"e. c #F3E61A",
"r. c #F8C035",
"t. c #F7D431",
"y. c #FADB3F",
"u. c #F2E32C",
"i. c #F8F836",
"p. c #F4F43B",
"a. c #F9F93B",
"s. c #FB8346",
"d. c #FA8942",
"f. c #FB8947",
"g. c #FC844B",
"h. c #FA9640",
"j. c #FB9646",
"k. c #FE8859",
"l. c #FD9751",
"z. c #FAAF44",
"x. c #FABE41",
"c. c #FBBE47",
"v. c #FCBA4C",
"b. c #FDBF54",
"n. c #FD996F",
"m. c #FE8879",
"M. c #FF8F7A",
"N. c #FE9776",
"B. c #F6CF42",
"V. c #F7CD46",
"C. c #FCC84B",
"Z. c #F8C753",
"A. c #FEC45F",
"S. c #FAD35D",
"D. c #FCE74F",
"F. c #F7EF4E",
"G. c #FEE25C",
"H. c #FDF353",
"J. c #FCDE69",
"K. c #FDDD6D",
"L. c #FFD97B",
"P. c #FBF062",
"I. c #FEFD73",
"U. c #FFF77B",
/* pixels */
"                                ",
"                                ",
"                                ",
"w.l 1 1 , 1 1 9.8., : : = = 5 7.",
"z U.L.m.X.X. .K.J.{ [ ! _ Z.F.6 ",
"1 M.A.G.k.T T v.c.J d Z t.=./ % ",
"1 o.~ ] b.l.I f.d.m #.>.b q H # ",
"7 N.' Q W g.s.x.<.D S t e c A # ",
"w.I.H.D.C.j.h.a.i.$.@.-.5.e.p.6.",
"8 n.) U P ( G r.:.N M 0 9 h C + ",
", } L ^ ,.%.p V B e x +.h 2 y X ",
", | z.y.F i r *.&.4 3 k 4.O.v X ",
"f P.S.` R Y K V.B.s a u n ;.u.X ",
"0.f = & & & % 3.2.# + + X X o 1.",
"                                ",
"                                "
};
