/* XPM */
static char *ml[] = {
/* columns rows colors chars-per-pixel */
"16 16 148 2 ",
"   c None",
".  c #005300",
"X  c #005B00",
"o  c #006300",
"O  c #006700",
"+  c #006F00",
"@  c #007500",
"#  c #007700",
"$  c #007B00",
"%  c #007F00",
"&  c #DD0000",
"*  c #DF0000",
"=  c #E10000",
"-  c #E30000",
";  c #E50000",
":  c #E70000",
">  c #E90000",
",  c #EB0000",
"<  c #ED0000",
"1  c #EF0000",
"2  c #F10000",
"3  c #F30000",
"4  c #F50000",
"5  c #F10B0B",
"6  c #F10F0E",
"7  c #F21010",
"8  c #F21313",
"9  c #F21414",
"0  c #F31919",
"q  c #F31A1A",
"w  c #F41F1F",
"e  c #F42020",
"r  c #F52525",
"t  c #F52626",
"y  c #F62B2B",
"u  c #F22C2C",
"i  c #F22F2F",
"p  c #F62C2C",
"a  c #F23232",
"s  c #F33232",
"d  c #F73131",
"f  c #F33535",
"g  c #F43636",
"h  c #F83737",
"j  c #F43B3B",
"k  c #F53F3F",
"l  c #F64444",
"z  c #F74949",
"x  c #F74E4E",
"c  c #F85353",
"v  c #F95757",
"b  c #FA5C5C",
"n  c #008300",
"m  c #008500",
"M  c #008700",
"N  c #008900",
"B  c #009100",
"V  c #3AAA3A",
"C  c #3FAE3F",
"Z  c #40AD3F",
"A  c #44B144",
"S  c #45B045",
"D  c #45B145",
"F  c #4BB34B",
"G  c #49B449",
"H  c #4FB64F",
"J  c #4FB74F",
"K  c #50B550",
"L  c #54B555",
"P  c #54B754",
"I  c #53B953",
"U  c #54B954",
"Y  c #58B958",
"T  c #59BA59",
"R  c #58BB59",
"E  c #58BC58",
"W  c #5CBD5C",
"Q  c #5DBC5D",
"!  c #5FBF5F",
"~  c #61BE62",
"^  c #66C066",
"/  c #6AC36A",
"(  c #6FC46F",
")  c #72C673",
"_  c #77C777",
"`  c #76C876",
"'  c #79C879",
"]  c #7BCA7A",
"[  c #7BCA7B",
"{  c #E3A300",
"}  c #CBDF00",
"|  c #F7C500",
" . c #F3D319",
".. c #F4D51F",
"X. c #E5E500",
"o. c #E7E700",
"O. c #E9E900",
"+. c #EBEB00",
"@. c #E3F300",
"#. c #F9F900",
"$. c #FBFB00",
"%. c #FDFD00",
"&. c #F4F41E",
"*. c #F5D724",
"=. c #F6D92B",
"-. c #F7DA30",
";. c #F8DC36",
":. c #F4D839",
">. c #F9DE3D",
",. c #F5F523",
"<. c #F5F524",
"1. c #F6F629",
"2. c #F6F62A",
"3. c #F7F72E",
"4. c #F7F72F",
"5. c #E8F234",
"6. c #E9F33A",
"7. c #F7F730",
"8. c #F8F834",
"9. c #F8F835",
"0. c #F8F836",
"q. c #F5F53D",
"w. c #F9F93A",
"e. c #F9F93B",
"r. c #F9F93C",
"t. c #EBF440",
"y. c #ECF546",
"u. c #EDF64B",
"i. c #F6F642",
"p. c #F7F746",
"a. c #FAFA40",
"s. c #FAFA41",
"d. c #FAFA42",
"f. c #FBFB46",
"g. c #FBFB47",
"h. c #F7F74B",
"j. c #FCFC4B",
"k. c #FCFC4C",
"l. c #EAF350",
"z. c #EEF751",
"x. c #F0F854",
"c. c #FDFD51",
"v. c #FBE460",
"b. c #FCFC65",
"n. c #FCFC69",
"m. c #FDFD6D",
"M. c #F3FA74",
"N. c #FDFD71",
/* pixels */
"                                ",
"                                ",
"                                ",
"B N N M n @.%.%.$.$.| 4 3 3 < < ",
"M [ [ [ _ M.N.m.n.b.v.b v c x , ",
"N [ ! W T z.c.k.g.s.>.h d p z , ",
"M ' W W P z.j.f.s.r.;.d y t l ; ",
"M _ U U K u.f.s.r.0.-.y t e k ; ",
"M ) I J F u.s.w.0.7.=.t w 0 j ; ",
"% ( J G S 6.w.0.7.2.*.w 0 8 g ; ",
"$ / G S Z 6.0.7.2.<...0 8 8 s * ",
"# ~ S Z V 5.2.2.<.&. .8 6 5 i * ",
"+ ~ Q T L l.j.p.i.q.:.f s i i & ",
"# O o X . } O.O.X.X.{ = * * & & ",
"                                ",
"                                "
};
