/* XPM */
static char *mm[] = {
/* columns rows colors chars-per-pixel */
"16 16 131 2 ",
"   c None",
".  c #DD0000",
"X  c #DF0000",
"o  c #E10000",
"O  c #E30000",
"+  c #E50000",
"@  c #E70000",
"#  c #E90000",
"$  c #EB0000",
"%  c #ED0000",
"&  c #EF0000",
"*  c #F10000",
"=  c #F30000",
"-  c #F50000",
";  c #F70000",
":  c #F90000",
">  c #FB0000",
",  c #F10B0B",
"<  c #F10F0E",
"1  c #F21010",
"2  c #F21313",
"3  c #F21414",
"4  c #F31919",
"5  c #F31A1A",
"6  c #F41E1E",
"7  c #F41F1F",
"8  c #F42020",
"9  c #F52323",
"0  c #F52424",
"q  c #F52525",
"w  c #F52626",
"e  c #F62929",
"r  c #F62A2A",
"t  c #F62B2B",
"y  c #F22C2C",
"u  c #F22F2F",
"i  c #F62C2C",
"p  c #F72E2E",
"a  c #F72F2F",
"s  c #F23232",
"d  c #F33232",
"f  c #F73030",
"g  c #F73131",
"h  c #F33535",
"j  c #F43636",
"k  c #F83434",
"l  c #F83636",
"z  c #F83736",
"x  c #F83737",
"c  c #F23539",
"v  c #F43939",
"b  c #F43B3B",
"n  c #F53D3D",
"m  c #F53F3F",
"M  c #F93A3A",
"N  c #F93B3C",
"B  c #F93C3C",
"V  c #F93C3D",
"C  c #FA3F3F",
"Z  c #F03B42",
"A  c #F64242",
"S  c #F14047",
"D  c #F64444",
"F  c #F74646",
"G  c #FA4142",
"H  c #FA4242",
"J  c #FA4444",
"K  c #FB4545",
"L  c #FB4747",
"P  c #F1454C",
"I  c #F74949",
"U  c #F74B4B",
"Y  c #F74E4E",
"T  c #FB4949",
"R  c #F14A51",
"E  c #F34F56",
"W  c #F85050",
"Q  c #F85353",
"!  c #F95455",
"~  c #F95757",
"^  c #F95858",
"/  c #FA5C5C",
"(  c #FA5D5D",
")  c #FB6060",
"_  c #FB6162",
"`  c #FC6565",
"'  c #FC6666",
"]  c #FC6969",
"[  c #FC6A6A",
"{  c #F66F74",
"}  c #0000B7",
"|  c #0000C1",
" . c #0000C3",
".. c #0000C5",
"X. c #0000C7",
"o. c #0000C9",
"O. c #453BCE",
"+. c #4740D3",
"@. c #4641D3",
"#. c #4B46D3",
"$. c #4C47D5",
"%. c #4646DD",
"&. c #4B4BDB",
"*. c #514CD7",
"=. c #5E57D6",
"-. c #5D58D7",
";. c #5151DD",
":. c #5558DE",
">. c #6C65DA",
",. c #716DDF",
"<. c #7672DE",
"1. c #7070E4",
"2. c #7779E5",
"3. c #7979E3",
"4. c #7D7DE4",
"5. c #8080E5",
"6. c #8183E7",
"7. c #8282E6",
"8. c #9495EA",
"9. c #A9ABED",
"0. c #AEAFED",
"q. c #B0B0EE",
"w. c #B4B5F0",
"e. c #B9B9F1",
"r. c #BABAF0",
"t. c #BABAF1",
"y. c #C1C1F2",
"u. c #DBDBF7",
"i. c #DCDCF8",
"p. c #DDDDF9",
"a. c #DEDEF8",
/* pixels */
"                                ",
"                                ",
"                                ",
"X. . .o. . .X.} > > > = = = % % ",
" .4.8.y.t.3.1.,.] ` ) / ^ Q Y $ ",
" .7.t.a.i.q.;.&.L H V z g i I $ ",
" .7.r.a.i.q.&.#.H N z g i w D + ",
"X.2.7.q.9.:.%.@.N z f r w 8 m + ",
"} <.-.>.=.$.O.O.z a r w 6 4 b + ",
"% { E P P S Z c a r w 6 4 3 j + ",
"> [ T L G M j a r w 6 4 2 1 g . ",
"> ' J C M k g r 8 8 4 2 < , d . ",
"> _ / ^ ! W I D A n v j d u u . ",
"= = = % % % $ $ $ + o o . . . . ",
"                                ",
"                                "
};
