/* XPM */
static char *mn[] = {
/* columns rows colors chars-per-pixel */
"16 16 142 2 ",
"   c None",
".  c #DD0000",
"X  c #DF0000",
"o  c #E10000",
"O  c #E30000",
"+  c #E50000",
"@  c #E70000",
"#  c #E90000",
"$  c #EB0000",
"%  c #ED0000",
"&  c #EF0000",
"*  c #F10000",
"=  c #F30000",
"-  c #F50000",
";  c #F70000",
":  c #F90000",
">  c #FB0000",
",  c #FD0000",
"<  c red",
"1  c #F10B0B",
"2  c #F10F0E",
"3  c #F21010",
"4  c #F21313",
"5  c #F21414",
"6  c #F31919",
"7  c #F31A1A",
"8  c #F41F1F",
"9  c #F42020",
"0  c #F52525",
"q  c #F52626",
"w  c #F62B2B",
"e  c #F22C2C",
"r  c #F22F2F",
"t  c #F62C2C",
"y  c #F23232",
"u  c #F33232",
"i  c #F73131",
"p  c #F33535",
"a  c #F43636",
"s  c #F83737",
"d  c #F43B3B",
"f  c #F53F3F",
"g  c #F95B3A",
"h  c #FA5F3F",
"j  c #F64444",
"k  c #F74949",
"l  c #F74E4E",
"z  c #F85353",
"x  c #FD5650",
"c  c #F95757",
"v  c #FD5454",
"b  c #F95B55",
"n  c #FE5959",
"m  c #FA5C5C",
"M  c #FB6545",
"N  c #FC6A4B",
"B  c #FA655D",
"V  c #F96958",
"C  c #FE6B5C",
"Z  c #FB7162",
"A  c #FE7777",
"S  c #FF7B7A",
"D  c #FF7B7B",
"F  c #FE7F79",
"G  c #FAD33F",
"H  c #FD8354",
"J  c #FAB244",
"K  c #FDAC53",
"L  c #FEAC58",
"P  c #FE8776",
"I  c #FFB57B",
"U  c #FBCC49",
"Y  c #FBDA45",
"T  c #FCD04F",
"R  c #FCD64F",
"E  c #FBDA49",
"W  c #FEC359",
"Q  c #FECE5F",
"!  c #FEDE5C",
"~  c #FCD866",
"^  c #FCDB6A",
"/  c #FDDD6F",
"(  c #FEC879",
")  c #FEDC73",
"_  c #0000D3",
"`  c #0000D9",
"'  c #0000E5",
"]  c #0000E7",
"[  c #0000E9",
"{  c #0000EB",
"}  c #0000EF",
"|  c #1E19EE",
" . c #0000F9",
".. c #0000FB",
"X. c #0000FD",
"o. c #1E1EF4",
"O. c #241FEF",
"+. c #2323F5",
"@. c #2424F5",
"#. c #2A24F0",
"$. c #2929F6",
"%. c #2A2AF6",
"&. c #2E2EF7",
"*. c #2F2FF7",
"=. c #302BF1",
"-. c #3530F2",
";. c #3030F7",
":. c #3C37F3",
">. c #3E39F0",
",. c #3D3DF5",
"<. c #3434F8",
"1. c #3535F8",
"2. c #3636F8",
"3. c #3B3BF9",
"4. c #3C3CF9",
"5. c #4135EC",
"6. c #473BED",
"7. c #413CF5",
"8. c #4D41EE",
"9. c #5B50EE",
"0. c #4242F6",
"q. c #4646F7",
"w. c #4B4BF7",
"e. c #4040FA",
"r. c #4141FA",
"t. c #4241FA",
"y. c #4242FA",
"u. c #4646FB",
"i. c #4747FB",
"p. c #4B4BFC",
"a. c #4C4CFC",
"s. c #5246F0",
"d. c #574CF1",
"f. c #5B51F2",
"g. c #5151FD",
"h. c #6055F2",
"j. c #6560F7",
"k. c #6565FC",
"l. c #6969FC",
"z. c #6D6DFD",
"x. c #7D75F5",
"c. c #7070FE",
/* pixels */
"                                ",
"                                ",
"                                ",
"< < < < < [ X.X.....} - = = % % ",
"< D I F A x.c.z.l.k.h.m b z l $ ",
"< D Q C n f.g.a.i.u.0.s i t k $ ",
"< ( ! W v f.a.i.y.4.7.i t q j + ",
"< P L H x d.i.y.4.2.=.w q 9 f + ",
"< ) K R N s.y.4.2.*.%.0 8 6 d + ",
"> ) U E M 8.3.2.*.%.#.8 6 4 a + ",
"> ^ U Y h 6.;.;.%.+.O.6 5 3 u o ",
"> ~ J G g 5.&.%.+.o.O.3 2 1 r X ",
"- Z B V b 9.w.u.0.,.>.p y r e . ",
"- = = % % _ [ [ [ ' ` o X X . . ",
"                                ",
"                                "
};
