/* XPM */
static char *mo[] = {
/* columns rows colors chars-per-pixel */
"16 16 156 2 ",
"   c None",
".  c #002700",
"X  c #002900",
"o  c #002D00",
"O  c #002F00",
"+  c #003100",
"@  c #003300",
"#  c #003500",
"$  c #003900",
"%  c #003B00",
"&  c #003D00",
"*  c #003F00",
"=  c #004500",
"-  c #004B00",
";  c #004D00",
":  c #005100",
">  c #005700",
",  c #005D00",
"<  c #006100",
"1  c #006300",
"2  c #006700",
"3  c #006D00",
"4  c #006F00",
"5  c #007100",
"6  c #007500",
"7  c #007700",
"8  c #007B00",
"9  c #007D00",
"0  c #007F00",
"q  c #008100",
"w  c #008300",
"e  c #008500",
"r  c #008700",
"t  c #008900",
"y  c #009100",
"u  c #0B950B",
"i  c #0F970E",
"p  c #109710",
"a  c #139813",
"s  c #149914",
"d  c #149A14",
"f  c #199B19",
"g  c #1A9C1A",
"h  c #1B9C1B",
"j  c #209F20",
"k  c #25A125",
"l  c #26A226",
"z  c #28A22B",
"x  c #2BA52B",
"c  c #2CA22C",
"v  c #2CA62C",
"b  c #2FA42F",
"n  c #39AA2B",
"m  c #30A530",
"M  c #32A532",
"N  c #33A632",
"B  c #31A931",
"V  c #35A835",
"C  c #36A836",
"Z  c #37A937",
"A  c #37AA37",
"S  c #39A939",
"D  c #3AAB3A",
"F  c #3BAA3B",
"G  c #3DAB3D",
"H  c #3EAC3E",
"J  c #3FAD3F",
"K  c #3FAF3F",
"L  c #41AE30",
"P  c #40AE3F",
"I  c #45B036",
"U  c #45B13D",
"Y  c #4BB33E",
"T  c #42AD42",
"R  c #44AF44",
"E  c #45AE45",
"W  c #44B144",
"Q  c #45B045",
"!  c #45B245",
"~  c #46B146",
"^  c #47B047",
"/  c #46B247",
"(  c #45B049",
")  c #49B049",
"_  c #49B249",
"`  c #4BB24B",
"'  c #49B449",
"]  c #49B549",
"[  c #4EB44E",
"{  c #4FB74F",
"}  c #51B542",
"|  c #57B94B",
" . c #5CBB4B",
".. c #5FBD4C",
"X. c #50B350",
"o. c #53B753",
"O. c #54B755",
"+. c #53B953",
"@. c #56B950",
"#. c #54B954",
"$. c #57BA54",
"%. c #58B957",
"&. c #58B958",
"*. c #59BB59",
"=. c #58BC58",
"-. c #58BC59",
";. c #5CBB5C",
":. c #5CBD5C",
">. c #5DBC5D",
",. c #5CBE5C",
"<. c #5FBF5F",
"1. c #62BE51",
"2. c #61BD60",
"3. c #61BE62",
"4. c #66BA67",
"5. c #65BE65",
"6. c #66C066",
"7. c #6AC16A",
"8. c #6AC36A",
"9. c #6FC46F",
"0. c #71C569",
"q. c #71C56D",
"w. c #70C371",
"e. c #72C673",
"r. c #74C774",
"t. c #76C876",
"y. c #77C877",
"u. c #79C879",
"i. c #79C979",
"p. c #7BCA7A",
"a. c #7BCA7B",
"s. c #7FC97E",
"d. c #9CC027",
"f. c #A7C737",
"g. c #BED44D",
"h. c #B2D050",
"j. c #B9D456",
"k. c #86CB88",
"l. c #93CD93",
"z. c #97CF97",
"x. c #9AD19A",
"c. c #A8D7AA",
"v. c #ABDAAB",
"b. c #AEDCAF",
"n. c #B4DCB4",
"m. c #B8DEB7",
"M. c #D1EAD1",
"N. c #D6EAD6",
"B. c #D8ECD8",
"V. c #DCECDC",
"C. c #E1EDE1",
"Z. c #EEF4EE",
"A. c #F3F6F3",
"S. c #F3F7F4",
"D. c #F6F6F6",
"F. c #F9F9F9",
/* pixels */
"                                ",
"                                ",
"                                ",
"y t t t t q q 9 7 7 5 3 2 < , < ",
"e a.a.a.r.r.w.q.0.5.2.>.%.+.[ ; ",
"t a.<.,.*.$.1...g.} U D B v _ - ",
"e a.;.=.$.j.| 7.s.Y L f.x l R = ",
"t t.=.+.@. ./ b.S.( L n l j J * ",
"e e.+.{ h.k.v.B.S.n.c.z d.f H $ ",
"9 9.{ ] / M.F.Z.B.D.V.l.f s C # ",
"9 7._ W P R [ ) H T m h s p m + ",
"8 6./ P D Z x.n.C.z.4.a i u m o ",
"3 2.>.*.O.X._ _ R H D C m m c X ",
"7 2 < , > : ; = * * $ + o o X # ",
"                                ",
"                                "
};
