/* XPM */
static char *mq[] = {
/* columns rows colors chars-per-pixel */
"16 16 150 2 ",
"   c None",
".  c #000015",
"X  c #000017",
"o  c #000019",
"O  c #00001D",
"+  c #000027",
"@  c #000031",
"#  c #000035",
"$  c #000037",
"%  c #000041",
"&  c #000045",
"*  c #00004D",
"=  c #000051",
"-  c #000053",
";  c #00005D",
":  c #000063",
">  c #000065",
",  c #000069",
"<  c #00006B",
"1  c #000071",
"2  c #000173",
"3  c #000575",
"4  c #000F7B",
"5  c #00117D",
"6  c #00177F",
"7  c #001B83",
"8  c #001D83",
"9  c #002587",
"0  c #2F509A",
"q  c #33529C",
"w  c #35559D",
"e  c #37559D",
"r  c #38589F",
"t  c #3755A3",
"y  c #435FA1",
"u  c #415EA2",
"i  c #425EA2",
"p  c #4865A6",
"a  c #4864A7",
"s  c #4965A8",
"d  c #4966A8",
"f  c #4E68A8",
"g  c #4F6AA8",
"h  c #4E69AB",
"j  c #506BAA",
"k  c #506BAC",
"l  c #596FAF",
"z  c #5B71A5",
"x  c #5B73A5",
"c  c #5671AF",
"v  c #5872B0",
"b  c #5873B1",
"n  c #5D76B1",
"m  c #5E77B1",
"M  c #5F77B1",
"N  c #5C76B2",
"B  c #5F78B1",
"V  c #6079B2",
"C  c #667CB1",
"Z  c #617AB6",
"A  c #6981B9",
"S  c #7187BD",
"D  c #7188BC",
"F  c #748ABE",
"G  c #768CBE",
"H  c #778CBE",
"J  c #778CBF",
"K  c #788EC1",
"L  c #7A8FC1",
"P  c #8094C3",
"I  c #8195C5",
"U  c #8296C5",
"Y  c #8598C3",
"T  c #8598C7",
"R  c #8C9CC2",
"E  c #8B9DC5",
"W  c #8A9CC9",
"Q  c #8A9DC9",
"!  c #93A4CD",
"~  c #96A6CC",
"^  c #9BA9CF",
"/  c #9BABCF",
"(  c #9FAECE",
")  c #A1AFCE",
"_  c #A5B2D0",
"`  c #A7B5D7",
"'  c #B2BCD4",
"]  c #B3BDD6",
"[  c #B3BED7",
"{  c #B6C0D9",
"}  c #B6C1DA",
"|  c #B6C1DC",
" . c #B9C2D8",
".. c #B8C2DB",
"X. c #BCC5DB",
"o. c #B9C5DE",
"O. c #BAC4DE",
"+. c #BBC5DE",
"@. c #BDC6DD",
"#. c #BEC7DD",
"$. c #BEC8DE",
"%. c #BFC8DF",
"&. c #C3CBDC",
"*. c #C3CBDD",
"=. c #C2CAE0",
"-. c #C7CFE3",
";. c #C9D1E1",
":. c #C8D0E2",
">. c #C8D1E4",
",. c #CAD2E5",
"<. c #CBD3E6",
"1. c #CDD4E5",
"2. c #CFD5E4",
"3. c #D0D6E2",
"4. c #D0D7E7",
"5. c #D5D9E6",
"6. c #D6DBE7",
"7. c #D9DEE7",
"8. c #D0D8E9",
"9. c #D1D8EA",
"0. c #D6DBE8",
"q. c #D5DDEC",
"w. c #DBDEE8",
"e. c #DDE2EF",
"r. c gray90",
"t. c #E7E7E7",
"y. c #E1E6ED",
"u. c #E9E9E9",
"i. c #E0E5F0",
"p. c #E7E9F0",
"a. c #E6EAF1",
"s. c #E6E9F3",
"d. c #E6EAF3",
"f. c #EAEDF3",
"g. c #ECEDF1",
"h. c #EFF0F1",
"j. c #F4F4F4",
"k. c #F4F5F5",
"l. c gray96",
"z. c #F6F6F6",
"x. c gray97",
"c. c #F6F7FA",
"v. c #F7F7FA",
"b. c #F8F8F8",
"n. c #F9F9F9",
"m. c #FAFAFA",
"M. c #FBFBFB",
"N. c gray99",
"B. c #FDFDFD",
"V. c #FEFEFE",
/* pixels */
"                                ",
"                                ",
"                                ",
"9 8 I ` t 5 5 V.M.1 > l E < = = ",
"7 Q ! e.q.I L V.V.H D H 0.#.V & ",
"8 Q K +.s.D Z N.M.v k v } 3.M % ",
"6 T <.s.f.D b M.M.h s :.6.:.B $ ",
"/ 9.| +.+.-.%.M.M.} [ ( _ ) #.x ",
"V.V.V.v.v.M.M.M.z.z.z.j.g.h.z.r.",
"/ 9.i.s.<.#.X.b.b.[ ] 6.7.'  .z ",
"3 L A 3.=.s p b.z.r q f &.C i O ",
"1 L b ~ <.M p z.z.w 0 r R ' i o ",
"< H >.s.y.Y V z.z.j f *.7.3.i . ",
"< ; ; : ; * % u.t.@ + @ $ $ . . ",
"                                ",
"                                "
};
