/* XPM */
static char *ms[] = {
/* columns rows colors chars-per-pixel */
"16 16 161 2 ",
"   c None",
".  c #000011",
"X  c #000015",
"o  c #000017",
"O  c #000019",
"+  c #00001D",
"@  c #000023",
"#  c #000025",
"$  c #000029",
"%  c #00002B",
"&  c #00002F",
"*  c #000031",
"=  c #000035",
"-  c #000037",
";  c #00003D",
":  c #000043",
">  c #000049",
",  c #00004F",
"<  c #000055",
"1  c #000059",
"2  c #00005B",
"3  c #00005D",
"4  c #00005F",
"5  c #000063",
"6  c #000067",
"7  c #000069",
"8  c #00006D",
"9  c #7F1947",
"0  c #67235D",
"q  c #6B3371",
"w  c #CD1517",
"e  c #8D1D43",
"r  c #81214F",
"t  c #B15D75",
"y  c #C36B7D",
"u  c #D66C71",
"i  c #E26867",
"p  c #E47271",
"a  c #E87A76",
"s  c #E07578",
"d  c #E07B7E",
"f  c #9D964A",
"g  c #9B8A55",
"h  c #9E8C57",
"j  c #9E8D58",
"k  c #A49360",
"l  c #91A571",
"z  c #94A775",
"x  c #C59E44",
"c  c #EA817E",
"v  c #000383",
"b  c #001795",
"n  c #1E2A8E",
"m  c #2F2583",
"M  c #232E91",
"N  c #273293",
"B  c #2C3796",
"V  c #283A98",
"C  c #2D3F9B",
"Z  c #2E3F9B",
"A  c #313C99",
"S  c #33449E",
"D  c #33449F",
"F  c #36459D",
"G  c #3B459F",
"H  c #38489E",
"J  c #3848A1",
"K  c #3849A2",
"L  c #394AA2",
"P  c #3D4DA4",
"I  c #3E4EA5",
"U  c #424B9D",
"Y  c #434C9D",
"T  c #4E509E",
"R  c #404BA0",
"E  c #404BA1",
"W  c #424CA3",
"Q  c #464FA3",
"!  c #4251A4",
"~  c #4352A7",
"^  c #4453A7",
"/  c #4655A6",
"(  c #4950A0",
")  c #4E55A1",
"_  c #4E56A4",
"`  c #4D56A6",
"'  c #4857AA",
"]  c #4A59A9",
"[  c #4958AA",
"{  c #4D5BAA",
"}  c #4F5EAB",
"|  c #4D5CAD",
" . c #4E5CAD",
".. c #4E5CAE",
"X. c #5259A4",
"o. c #5A5CA7",
"O. c #535CAA",
"+. c #5160AD",
"@. c #5360AE",
"#. c #5260B0",
"$. c #5261B0",
"%. c #5764B0",
"&. c #5765B2",
"*. c #5865B0",
"=. c #5C69B3",
"-. c #5B6CB7",
";. c #6361A7",
":. c #6067AD",
">. c #6469AE",
",. c #6D69AB",
"<. c #606DB5",
"1. c #6470B7",
"2. c #6572B8",
"3. c #6875B9",
"4. c #6975BA",
"5. c #6E7ABD",
"6. c #717AB9",
"7. c #747ABA",
"8. c #717EBE",
"9. c #777FBC",
"0. c #5E7FD7",
"q. c #8B6C9D",
"w. c #AB7594",
"e. c #836DA3",
"r. c #8B70A1",
"t. c #9A7FA6",
"y. c #9B7EA7",
"u. c #7581C0",
"i. c #7F9AC2",
"p. c #6482D9",
"a. c #6886DB",
"s. c #6C89DD",
"d. c #6D89DD",
"f. c #708CDF",
"g. c #718DDF",
"h. c #7490E0",
"j. c #7591E0",
"k. c #7994E2",
"l. c #948AB9",
"z. c #9F90B9",
"x. c #D3808B",
"c. c #C68496",
"v. c #C18499",
"b. c #E08384",
"n. c #E69394",
"m. c #EE9E9C",
"M. c #EEA19F",
"N. c #D89EA9",
"B. c #D7ACB7",
"V. c #D8AAB6",
"C. c #E1B2BA",
"Z. c #869ED2",
"A. c #8EA3CC",
"S. c #91A1C5",
"D. c #9DA4D0",
"F. c #9CAAD5",
"G. c #D7B6C4",
"H. c #DFB9C3",
"J. c #DFD3DE",
"K. c #E3C2CA",
"L. c #E2CBD4",
/* pixels */
"                                ",
"                                ",
"                                ",
"y e.b 9 e v 0 t 6 5 3 2 < , > : ",
"m H.J.V.N.G.L.D.9.7.3.1.>.:.%.; ",
"w n.c p i a s u ;.O.k.h.g.d.+.= ",
"r C.m.d b.M.x.w.o._ h.A.S.a.{ & ",
",.K.z.v.c.F.B.y._ ( g.Z.z p.X.$ ",
"q l.-.r.q...5.t.T Y d.i.l 0.) # ",
"8 u.%.$...] ! P L J k x h g Q + ",
"7 8.$...' ~ P K D Z A h f M R O ",
"6 5...' ~ P J J Z V B N M n H X ",
"3 3.1.<.=.*.+.O.] / ! W R U F . ",
"2 < , > : ; - * $ # # + X X . . ",
"                                ",
"                                "
};
