/* XPM */
static char *mt[] = {
/* columns rows colors chars-per-pixel */
"16 16 112 2 ",
"   c None",
".  c #DD0000",
"X  c #DF0000",
"o  c #E10000",
"O  c #E30000",
"+  c #E50000",
"@  c #E70000",
"#  c #E90000",
"$  c #EB0000",
"%  c #ED0000",
"&  c #EF0000",
"*  c #F10000",
"=  c #F30000",
"-  c #F50000",
";  c #F70000",
":  c #F90000",
">  c #FB0000",
",  c #F10B0B",
"<  c #F10F0E",
"1  c #F21010",
"2  c #F21313",
"3  c #F21414",
"4  c #F31919",
"5  c #F31A1A",
"6  c #F41E1E",
"7  c #F41F1F",
"8  c #F42020",
"9  c #F52424",
"0  c #F52525",
"q  c #F52626",
"w  c #F62A2A",
"e  c #F62B2B",
"r  c #F22C2C",
"t  c #F22F2F",
"y  c #F62C2C",
"u  c #F23232",
"i  c #F33232",
"p  c #F53030",
"a  c #F73030",
"s  c #F73131",
"d  c #F33535",
"f  c #F43636",
"g  c #F63636",
"h  c #F83636",
"j  c #F83736",
"k  c #F83737",
"l  c #F43939",
"z  c #F43B3B",
"x  c #F73B3B",
"c  c #F53D3D",
"v  c #F53F3F",
"b  c #F93C3C",
"n  c #F93C3D",
"m  c #F64444",
"M  c #F84141",
"N  c #FA4242",
"B  c #F94747",
"V  c #F74949",
"C  c #F64C4C",
"Z  c #F74E4E",
"A  c #FA4C4C",
"S  c #F85353",
"D  c #FB5252",
"F  c #F95757",
"G  c #FA5C5C",
"H  c #FB6060",
"J  c #FC6565",
"K  c #FC7272",
"L  c #BDB8B8",
"P  c #C9C8C8",
"I  c #CFCDCD",
"U  c #D9C5C5",
"Y  c #D3D2D2",
"T  c #D6D4D3",
"R  c gray86",
"E  c #DDDDDD",
"W  c #EFDDDD",
"Q  c #E1E1E1",
"!  c gray89",
"~  c gray90",
"^  c #E7E7E7",
"/  c gray92",
"(  c gray93",
")  c #EFEFEF",
"_  c #F6EAEA",
"`  c #F7EBEC",
"'  c #F1EFEF",
"]  c #F7EDED",
"[  c #F8EDED",
"{  c #F9EEEE",
"}  c #FAEFEF",
"|  c #F1F1F1",
" . c #F3F1F1",
".. c #F3F3F3",
"X. c gray96",
"o. c gray97",
"O. c #FBF0F0",
"+. c #FCF2F2",
"@. c #FDF5F5",
"#. c #F8F8F8",
"$. c #F9F9F9",
"%. c #FAF9F9",
"&. c #FAFAFA",
"*. c #FBFBFB",
"=. c #FBFCFB",
"-. c gray99",
";. c #FDFCFD",
":. c #FDFDFD",
">. c #FEFCFC",
",. c #FEFDFC",
"<. c #FDFDFE",
"1. c #FEFEFE",
/* pixels */
"                                ",
"                                ",
"                                ",
"| ' | | | | | W > > ; ; = = % % ",
"X.%.Y >.1.1.1.@.K J H G F S Z $ ",
"| T L I 1.>.1.O.D N n k s y V $ ",
"X.1.P 1.1.1.-.O.A n k s e q m + ",
"..1.1.1.>.%.%.O.B j y e q 8 M + ",
"| 1.-.-.-.-.%.{ N s e q 7 4 z + ",
"| -.-.-.*.%.%.] x e 9 7 4 2 f O ",
"( -.-.-.%.%.%.] f q 7 4 2 2 u X ",
"( -.%.*.#.#.X._ y 7 4 2 < , t X ",
"( -.#.#.%.#.X.] Z c z f u t t X ",
"( ~ ~ ~ Q E E U + O O O X X . . ",
"                                ",
"                                "
};
