/* XPM */
static char *mv[] = {
/* columns rows colors chars-per-pixel */
"16 16 148 2 ",
"   c None",
".  c #B90000",
"X  c #BB0000",
"o  c #BD0000",
"O  c #BF0000",
"+  c #C10000",
"@  c #C30000",
"#  c #C50000",
"$  c #C90000",
"%  c #CB0000",
"&  c #CF0000",
"*  c #D10000",
"=  c #D30000",
"-  c #D70000",
";  c #D90000",
":  c #DB0000",
">  c #DD0000",
",  c #DF0000",
"<  c #DD1511",
"1  c #DA1911",
"2  c #DE1A16",
"3  c #DB1D16",
"4  c #E10000",
"5  c #E30000",
"6  c #E50000",
"7  c #E70000",
"8  c #E90000",
"9  c #EB0000",
"0  c #E10B0B",
"q  c #E01F1C",
"w  c #DD221B",
"e  c #DE2722",
"r  c #DF2C26",
"t  c #E12522",
"y  c #E32B27",
"u  c #E22C2C",
"i  c #E22F2F",
"p  c #E52F2F",
"a  c #E92C2C",
"s  c #E0312A",
"d  c #E63232",
"f  c #E23730",
"g  c #E83232",
"h  c #E93535",
"j  c #E83636",
"k  c #E23C35",
"l  c #E43C36",
"z  c #EB3939",
"x  c #E83B3B",
"c  c #EB3D3D",
"v  c #E93F3F",
"b  c #E3433B",
"n  c #E5423B",
"m  c #E74741",
"M  c #EC4242",
"N  c #EB4444",
"B  c #EF4444",
"V  c #EE4646",
"C  c #E44841",
"Z  c #E54D46",
"A  c #EB4949",
"S  c #EF4B4B",
"D  c #EC4D4A",
"F  c #ED4E4E",
"G  c #E6524A",
"H  c #E7564E",
"J  c #EE524F",
"K  c #EF5050",
"L  c #ED5353",
"P  c #EF5754",
"I  c #E95B54",
"U  c #EF5B59",
"Y  c #EA5E58",
"T  c #F15455",
"R  c #F05757",
"E  c #F15858",
"W  c #F05D5D",
"Q  c #F25C5C",
"!  c #F05F5D",
"~  c #F45F5F",
"^  c #EB635C",
"/  c #ED655E",
"(  c #F26060",
")  c #F16162",
"_  c #F26565",
"`  c #F26666",
"'  c #F36A6A",
"]  c #F46969",
"[  c #F56D6D",
"{  c #F46F6F",
"}  c #F57071",
"|  c #F57273",
" . c #F67474",
".. c #F67676",
"X. c #F77777",
"o. c #F67979",
"O. c #F77979",
"+. c #F77B7A",
"@. c #F77B7B",
"#. c #4FD44C",
"$. c #4FDA51",
"%. c #52D751",
"&. c #58D755",
"*. c #56D854",
"=. c #5BDA5A",
"-. c #58DD5B",
";. c #58DF5B",
":. c #5DDF5D",
">. c #5FDE5F",
",. c #60DD5F",
"<. c #51E057",
"1. c #63DE62",
"2. c #62DF62",
"3. c #5CE360",
"4. c #5FE665",
"5. c #63E163",
"6. c #65E468",
"7. c #6CE16A",
"8. c #6AE56C",
"9. c #6CE46C",
"0. c #6DE56F",
"q. c #6CE66F",
"w. c #74E272",
"e. c #73E775",
"r. c #78E577",
"t. c #70E975",
"y. c #72E975",
"u. c #7DE67B",
"i. c #75E978",
"p. c #79EB7C",
"a. c #7AEA7D",
"s. c #80E77E",
"d. c #7BEE81",
"f. c #89E387",
"g. c #83E983",
"h. c #88E98A",
"j. c #8DEB8F",
"k. c #93ED95",
"l. c #9BE99C",
"z. c #A2ECA3",
"x. c #B2EEB2",
"c. c #B5ECB5",
"v. c #BFF3C1",
"b. c #CBF1CD",
"n. c #D0F4D1",
"m. c #D6F4D7",
"M. c #D6F5D7",
"N. c #DAF6DA",
/* pixels */
"                                ",
"                                ",
"                                ",
"8 8 7 7 7 7 5 7 5 > > : : - = = ",
"9 @.o.@.X...} [ ] _ ( ! P L F & ",
"9 @.~ / ^ Y I H G Z m b k a A % ",
"8 o.! g.d.a.y.k.v.q.6.4.,.y N % ",
"8 ..U s.p.e.j.N.n.z.5.3.=.t v @ ",
"7 } P u.i.8.x.m.:.2.-.-.*.q x @ ",
"5 } K r.t.8.h.m.b.l.;.;.%.2 j O ",
"5 ] D w.0.7.2.f.c.=.*.$.#.< d O ",
"5 ` B m n l f s r e w 3 1 0 i O ",
"> ) ! E T K S V M c z j d i u X ",
"> : - = = & % % # @ @ O O X . X ",
"                                ",
"                                "
};
