/* XPM */
static char *mw[] = {
/* columns rows colors chars-per-pixel */
"16 16 149 2 ",
"   c None",
".  c black",
"X  c #070000",
"o  c #000700",
"O  c #002300",
"+  c #002900",
"@  c #002B00",
"#  c #002D00",
"$  c #002F00",
"%  c #003300",
"&  c #003900",
"*  c #003D00",
"=  c #2C2C2C",
"-  c #313131",
";  c #6D0000",
":  c #6F0000",
">  c #402626",
",  c #452B2B",
"<  c #613737",
"1  c #004100",
"2  c #004700",
"3  c #004D00",
"4  c #005100",
"5  c #005700",
"6  c #005B00",
"7  c #005D00",
"8  c #006300",
"9  c #006700",
"0  c #006D00",
"q  c #007500",
"w  c #494949",
"e  c #4E4E4E",
"r  c #5B4444",
"t  c #535353",
"y  c #585757",
"u  c gray36",
"i  c #5E5C5C",
"p  c #5F5F5F",
"a  c #734242",
"s  c #705151",
"d  c #715151",
"f  c #715C5C",
"g  c #787777",
"h  c #797979",
"j  c #7B7B7A",
"k  c #7B7B7B",
"l  c #883736",
"z  c #E30000",
"x  c #E50000",
"c  c #E70000",
"v  c #FD0000",
"b  c #F21414",
"n  c #F31919",
"m  c #F31A1A",
"M  c #F41F1F",
"N  c #C73131",
"B  c #C63C3C",
"V  c #C63C3D",
"C  c #F42020",
"Z  c #F52424",
"A  c #F52525",
"S  c #F62A2A",
"D  c #F62B2B",
"F  c #F72F2F",
"G  c #F63030",
"H  c #F73030",
"J  c #F23636",
"K  c #F43636",
"L  c #F83535",
"P  c #F83636",
"I  c #F43B3B",
"U  c #F13B3C",
"Y  c #F53F3F",
"T  c #F93B3A",
"R  c #F93B3B",
"E  c #9A5959",
"W  c #A15959",
"Q  c #996060",
"!  c #986969",
"~  c #996D6D",
"^  c #8A7979",
"/  c #A47474",
"(  c #CD4142",
")  c #CF4747",
"_  c #CA4B4B",
"`  c #D05454",
"'  c #D45454",
"]  c #EE4747",
"[  c #EE4C4C",
"{  c #F24141",
"}  c #F44646",
"|  c #FA4040",
" . c #FB4545",
".. c #FB4646",
"X. c #FB4A49",
"o. c #FA4B4B",
"O. c #FC4A4B",
"+. c #FC4F4F",
"@. c #FC4F50",
"#. c #FD5353",
"$. c #FD5454",
"%. c #FE5858",
"&. c #C46565",
"*. c #D97071",
"=. c #FD6F6F",
"-. c #FE7273",
";. c #FE7676",
":. c #0B970B",
">. c #0F9A0E",
",. c #139C13",
"<. c #189F19",
"1. c #2F8510",
"2. c #348814",
"3. c #388A19",
"4. c #3D8D1F",
"5. c #1EA11E",
"6. c #23A323",
"7. c #29A629",
"8. c #2CA22C",
"9. c #2FA42F",
"0. c #2FA62F",
"q. c #2EA92E",
"w. c #32A532",
"e. c #35A835",
"r. c #34AC34",
"t. c #39A939",
"y. c #3AAE3A",
"u. c #3DAC3D",
"i. c #3FB13F",
"p. c #429024",
"a. c #46932A",
"s. c #4B962F",
"d. c #4D9632",
"f. c #509A34",
"g. c #559D3A",
"h. c #58A13F",
"j. c #42AE42",
"k. c #5DA445",
"l. c #46B046",
"z. c #44B444",
"x. c #4BB24B",
"c. c #50B450",
"v. c #54B755",
"b. c #58B958",
"n. c #5DBC5D",
"m. c #61A749",
"M. c #61BE62",
"N. c #7FB76A",
"B. c #66C266",
/* pixels */
"                                ",
"                                ",
"                                ",
". . . . . . X : : . . . . . . . ",
". k k k g / *.~ ! &.Q u y t e . ",
". k u u W ` s [ ] a V < - = w . ",
". ^ f E ' s _ ) ( V l N , > r . ",
"v ;.%.$.#.X.} { U K G D A C Y c ",
"v -.#.+.O...| T P H F A M n I c ",
"v =.+.X...| T P F D C M n b K z ",
"6 N.m.k.h.g.f.s.a.p.4.3.2.1.d.o ",
"q B.z.i.y.r.q.7.6.5.<.,.>.:.0.@ ",
"0 M.n.b.v.c.x.l.j.u.t.e.w.9.9.O ",
"q 9 8 7 5 4 3 2 1 * & % $ $ + % ",
"                                ",
"                                "
};
