/* XPM */
static char *my[] = {
/* columns rows colors chars-per-pixel */
"16 16 158 2 ",
"   c None",
".  c #B10000",
"X  c #B70000",
"o  c #BB0000",
"O  c #C30000",
"+  c #C90000",
"@  c #CB0000",
"#  c #CF0000",
"$  c #D10000",
"%  c #D50000",
"&  c #D70000",
"*  c #D90000",
"=  c #DA1A1A",
"-  c #DC1D1D",
";  c #DD2222",
":  c #DD2525",
">  c #DF2626",
",  c #DF2A2A",
"<  c #E02B2B",
"1  c #E02F2F",
"2  c #E13131",
"3  c #E23132",
"4  c #E13434",
"5  c #E23434",
"6  c #E23636",
"7  c #E23839",
"8  c #E33939",
"9  c #E03B3B",
"0  c #E43B3B",
"q  c #E33E3E",
"w  c #E43C3C",
"e  c #DA3640",
"r  c #DC3C45",
"t  c #87774B",
"y  c #DD424A",
"u  c #DE474E",
"i  c #DE464F",
"p  c #E64141",
"a  c #E54242",
"s  c #E54343",
"d  c #E24444",
"f  c #E74646",
"g  c #E74747",
"h  c #E84A4A",
"j  c #E84C4D",
"k  c #EA4F4F",
"l  c #E04A54",
"z  c #E04F59",
"x  c #E45050",
"c  c #E95151",
"v  c #E75857",
"b  c #E15158",
"n  c #EE6F6F",
"m  c #E76F77",
"M  c #C3AD25",
"N  c #E8DA7E",
"B  c #F2E37B",
"V  c #F2E37C",
"C  c #F2E57F",
"Z  c #F4E77C",
"A  c #0B0397",
"S  c #0D0797",
"D  c #110999",
"F  c #726FBD",
"G  c #0000C1",
"H  c #0000C3",
"J  c #0000C5",
"K  c #0000C9",
"L  c #3B3BD9",
"P  c #4141D7",
"I  c #4040DA",
"U  c #4747DB",
"Y  c #4646DC",
"T  c #4C4CDB",
"R  c #4B4ADD",
"E  c #7C7AC6",
"W  c #6D6DE1",
"Q  c #A09AB6",
"!  c #B8B1AA",
"~  c #D59D9D",
"^  c #D79D9D",
"/  c #D79F9F",
"(  c #D7A1A1",
")  c #DBA5A3",
"_  c #DDA7A7",
"`  c #DDA9A9",
"'  c #DFABAB",
"]  c #DDBBBB",
"[  c #E3AFAF",
"{  c #E5B3B3",
"}  c #E7B7B7",
"|  c #E9B9B9",
" . c #EBBDBD",
".. c #DBCF82",
"X. c #DCCF81",
"o. c #DCD084",
"O. c #DCD085",
"+. c #DDD187",
"@. c #DED38B",
"#. c #E6DB89",
"$. c #E3DA9E",
"%. c #F5EA95",
"&. c #F2E899",
"*. c #F2E89B",
"=. c #F2E89C",
"-. c #DDD4A5",
";. c #928FCF",
":. c #9491D0",
">. c #B1ADC3",
",. c #DFC3C3",
"<. c #E5C5C5",
"1. c #E7C7C7",
"2. c #EDC1C1",
"3. c #EFC3C3",
"4. c #F1C7C5",
"5. c #EBD3D3",
"6. c #F7DFDF",
"7. c #EEE5EE",
"8. c #F2E2E2",
"9. c #F2E3E3",
"0. c #F3E4E4",
"q. c #F3E5E5",
"w. c #F3E6E6",
"e. c #F4E4E4",
"r. c #F4E5E5",
"t. c #F5E5E5",
"y. c #F4E6E6",
"u. c #F5E6E6",
"i. c #F4E7E7",
"p. c #F5E7E7",
"a. c #F6E6E6",
"s. c #F6E7E7",
"d. c #FBE7E5",
"f. c #F7E8E7",
"g. c #F1E7EE",
"h. c #F6E8E8",
"j. c #F7E8E8",
"k. c #F6E9E9",
"l. c #F7EAEA",
"z. c #F7EBEB",
"x. c #F7EDED",
"c. c #F8E9E8",
"v. c #F9EAEA",
"b. c #F8EBEB",
"n. c #F8EDEC",
"m. c #F9EDED",
"M. c #F9EEED",
"N. c #F8EEEE",
"B. c #F9EFEF",
"V. c #FAEEEE",
"C. c #FAEFEE",
"Z. c #F5EFF5",
"A. c #FAF0F0",
"S. c #FBF0F0",
"D. c #FBF1F0",
"F. c #FBF2F2",
"G. c #FCF2F2",
"H. c #FCF4F3",
/* pixels */
"                                ",
"                                ",
"                                ",
"K D M M S J G G + * & & $ $ + + ",
"D =.*.>.-.$.;.W Z.G.A.A.B.N.x.5.",
"t *.! #.C B O.T b c j g s w v O ",
"t *.Q @.B N ..U g.v.v.f.t.t.h.1.",
"A %.Z E O.X.F P u h s q 7 4 x o ",
"J :.O.o.R Y I L 7.t.h.t.t.q.h.<.",
"+ m b l u y r e 3 0 4 , , : d X ",
"d.H.G.S.N.N.N.v.h.t.t.0.9.9.q.,.",
"* n k h f p q 4 3 < , ; - = 9 . ",
"6.V.N.N.N.v.h.t.h.t.t.q.9.9.9.] ",
"4.4.2. .| } { { ' ` _ ) ( / ~ / ",
"                                ",
"                                "
};
