/* XPM */
static char *mz[] = {
/* columns rows colors chars-per-pixel */
"16 16 171 2 ",
"   c None",
".  c black",
"X  c gray10",
"o  c gray12",
"O  c #141622",
"+  c #191B26",
"@  c #1F212B",
"#  c #252525",
"$  c #2A2B2B",
"%  c #242631",
"&  c #2A2C36",
"*  c #312831",
"=  c #362D36",
"-  c #2F313B",
";  c gray19",
":  c gray21",
">  c #3B333B",
",  c gray23",
"<  c #004D00",
"1  c #005100",
"2  c #005D00",
"3  c #006100",
"4  c #006300",
"5  c #006700",
"6  c #006D00",
"7  c #007100",
"8  c #007500",
"9  c #007900",
"0  c #007D00",
"q  c #353640",
"w  c #363741",
"e  c #403740",
"r  c #463C45",
"t  c #553C46",
"y  c #4B424B",
"u  c #4E464E",
"i  c #504750",
"p  c #6A4C54",
"a  c #6C726E",
"s  c #8D2F00",
"d  c #E70000",
"f  c #EF0000",
"g  c #F50000",
"h  c #F70000",
"j  c #F90000",
"k  c red",
"l  c #F51500",
"z  c #BC4040",
"x  c #917E74",
"c  c #C2424B",
"v  c #CF5159",
"b  c #FB4646",
"n  c #FA4D44",
"m  c #FA4548",
"M  c #FB4A49",
"N  c #FB5545",
"B  c #FC574B",
"V  c #FD5655",
"C  c #F95959",
"Z  c #E56A54",
"A  c #F0675F",
"S  c #FE685C",
"D  c #FC6666",
"F  c #FB7B62",
"G  c #FC7A6A",
"H  c #FE7979",
"J  c #FF7B7A",
"K  c #008100",
"L  c #008300",
"P  c #008500",
"I  c #008700",
"U  c #008900",
"Y  c #009100",
"T  c #2CA82C",
"R  c #31AB31",
"E  c #37AE37",
"W  c #3DB03D",
"Q  c #42B342",
"!  c #47B547",
"~  c #49B349",
"^  c #4CB74C",
"/  c #4EB44E",
"(  c #53B753",
")  c #51BA51",
"_  c #54BC54",
"`  c #58B957",
"'  c #5CBB5C",
"]  c #61BE60",
"[  c #59C159",
"{  c #65C065",
"}  c #69C269",
"|  c #6DC36D",
" . c #70C571",
".. c #74C774",
"X. c #77C877",
"o. c #79CE79",
"O. c #DD8100",
"+. c #DD8300",
"@. c #DD8700",
"#. c #DF8700",
"$. c #DD8900",
"%. c #DF9500",
"&. c #E18B00",
"*. c #E38F00",
"=. c #E59100",
"-. c #E79300",
";. c #E99900",
":. c #EB9D00",
">. c #ED9F00",
",. c #EDA300",
"<. c #EFA700",
"1. c #F3A100",
"2. c #F1B700",
"3. c #FA9E3F",
"4. c #F1CA0B",
"5. c #F1CB0E",
"6. c #F2CC13",
"7. c #F3CE19",
"8. c #F4D01E",
"9. c #F2CA2C",
"0. c #F2CA2F",
"q. c #F5D223",
"w. c #F6D429",
"e. c #F2D12F",
"r. c #F7D62E",
"t. c #F2CC32",
"y. c #F3CD35",
"u. c #F4CF39",
"i. c #F8D834",
"p. c #F5D03D",
"a. c #F9DB3A",
"s. c #8FA05C",
"d. c #91BE7B",
"f. c #BBAF7F",
"g. c #CD8376",
"h. c #DF8F7B",
"j. c #E28766",
"k. c #F6D242",
"l. c #F7D346",
"z. c #F7D54B",
"x. c #EEC558",
"c. c #FAC45D",
"v. c #F2C95E",
"b. c #F8D750",
"n. c #F9D955",
"m. c #F9E158",
"M. c #F4CF64",
"N. c #E6C977",
"B. c #B9CDB9",
"V. c #DFD8BF",
"C. c #E0DAC1",
"Z. c #E2DBC4",
"A. c #E2DDC6",
"S. c #E4D8CA",
"D. c #E2DDC8",
"F. c #E4DEC8",
"G. c #F9D5C2",
"H. c #DEE7DE",
"J. c #E5E0CA",
"K. c #E6E2CC",
"L. c #E6E3CD",
"P. c #EAE5CF",
"I. c #E0E9E0",
"U. c #E1EAE1",
"Y. c #E2EBE2",
"T. c #E3EBE3",
"R. c #E4EDE4",
"E. c #E5EEE5",
"W. c #E7EFE7",
"Q. c #E8F0E8",
"!. c #E9F1E9",
/* pixels */
"                                ",
"                                ",
"                                ",
"s P Y U U K K 9 9 8 7 6 5 3 2 3 ",
"k h.d.o..... .| | ] ] ' ` ) / < ",
"k J A s.[ _ ) ^ ! Q W E R T ~ 1 ",
"k J S C S.!.!.!.R.R.R.T.T.H.T.B.",
"g g.x.Z V v p i y r > > = * u . ",
"f N.a v.B b z , : ; $ # o X , . ",
"d x M.j.m c t w - & % % + O w . ",
"j G M N G.P.K.K.J.F.A.Z.C.V.D.f.",
"j D n 3.a.i.r.w.q.8.7.6.5.4.e.%.",
"g F c.m.n.b.z.l.k.p.p.y.t.0.0.O.",
"l 1.2.1.,.,.:.;.-.-.&.&.#.#.O.$.",
"                                ",
"                                "
};
