/* XPM */
static char *nc[] = {
/* columns rows colors chars-per-pixel */
"16 16 157 2 ",
"   c None",
".  c black",
"X  c #000500",
"o  c #000D00",
"O  c #001500",
"+  c #001B00",
"@  c #002300",
"#  c #002900",
"$  c #003100",
"%  c #003700",
"&  c #250035",
"*  c #0B6D39",
"=  c #0F6F3C",
"-  c #106F3D",
";  c #54552F",
":  c #474734",
">  c #48483A",
",  c #4D4D3A",
"<  c #53523F",
"1  c #711D7D",
"2  c #137240",
"3  c #147241",
"4  c #187545",
"5  c #197545",
"6  c #1E7949",
"7  c #1F7949",
"8  c #237C4E",
"9  c #247D4E",
"0  c #2C7F53",
"q  c #5C5E40",
"w  c #6D6D46",
"e  c #72714B",
"r  c #767650",
"t  c #767651",
"y  c #507F6A",
"u  c #E30000",
"i  c #E50000",
"p  c #E70000",
"a  c #FD0005",
"s  c #FD0007",
"d  c #FD000B",
"f  c #F21441",
"g  c #F31945",
"h  c #F31A45",
"j  c #F41F49",
"k  c #F41F4A",
"l  c #F42045",
"z  c #F5254A",
"x  c #F5254E",
"c  c #F5244F",
"v  c #F62B4F",
"b  c #F62B53",
"n  c #F62A54",
"m  c #F73053",
"M  c #F73059",
"N  c #F4365C",
"B  c #F83659",
"V  c #F43B60",
"C  c #F53F60",
"Z  c #2F8155",
"A  c #2F8156",
"S  c #328358",
"D  c #338459",
"F  c #35855B",
"G  c #39895F",
"H  c #3D8B62",
"J  c #76AC43",
"K  c #79A840",
"L  c #428E65",
"P  c #4B8A6C",
"I  c #54846E",
"U  c #469169",
"Y  c #589178",
"T  c #5DA07D",
"R  c #919134",
"E  c #F5C13A",
"W  c #F5F52F",
"Q  c #F8F137",
"!  c #F8F835",
"~  c #F9F93A",
"^  c #F9F93B",
"/  c #989840",
"(  c #9B9B45",
")  c #9E9E4B",
"_  c #A0A04F",
"`  c #A4A454",
"'  c #FCB97B",
"]  c #A8C753",
"[  c #B7D479",
"{  c #D3D750",
"}  c #F7C644",
"|  c #FAFA41",
" . c #FBFB46",
".. c #F9F948",
"X. c #FBFC49",
"o. c #FCFC4B",
"O. c #FBF94F",
"+. c #ECEE5B",
"@. c #FDFD53",
"#. c #FCFC54",
"$. c #FDFD54",
"%. c #F1F15A",
"&. c #FBF958",
"*. c #FEFE59",
"=. c #DEE270",
"-. c #F5F561",
";. c #FCEE75",
":. c #0000A5",
">. c #0000A9",
",. c #0005AD",
"<. c #000DAF",
"1. c #0015B3",
"2. c #001BB7",
"3. c #0023B9",
"4. c #0029BD",
"5. c #002FBF",
"6. c #0035C3",
"7. c #0039C3",
"8. c #003FC7",
"9. c #0F4BC3",
"0. c #0043C9",
"q. c #0047C9",
"w. c #004BCB",
"e. c #9861A0",
"r. c #9B65A3",
"t. c #9E69A6",
"y. c #A16DA9",
"u. c #A471AB",
"i. c #A677AD",
"p. c #61A380",
"a. c #66A684",
"s. c #4B82D5",
"d. c #5086D7",
"f. c #5589D9",
"g. c #5A8DDB",
"h. c #5E90DC",
"j. c #6493DB",
"k. c #6294DE",
"l. c #6996DC",
"z. c #6D99DD",
"x. c #719CDF",
"c. c #759FE1",
"v. c #79A2E2",
"b. c #7CA5E3",
"n. c #7FA8E4",
"m. c #9FBCA8",
"M. c #C6A886",
"N. c #FDBE83",
"B. c #C2CF95",
"V. c #E2D09E",
"C. c #99AEC9",
"Z. c #98ADCA",
"A. c #89A4E1",
"S. c #83AAE5",
"D. c #8FAAE2",
"F. c #8FB3E8",
"G. c #8FB3E9",
/* pixels */
"                                ",
"                                ",
"                                ",
"w.w.w.w.q.0.0.7.6.5.4.3.2.1.<.,.",
"9.G.G.D.C.C.A.S.n.b.v.c.x.z.l.>.",
"w.G.B.=.%.&.+.m.k.h.g.f.d.s.j.:.",
"1 V.-.*.` r o.X.M.u.y.t.r.e.i.& ",
"s N.&.@.e _  .| } B m v z l C p ",
"d ;.@._ e e / ^ Q M b c l g C p ",
"s ' O.X.) R ^ ! E n c k g f N u ",
"% [ { ( < , R W J 9 6 5 3 - D . ",
"$ a.] q > : ; K 8 6 5 2 = * A . ",
"# p.T Y I y P U L H H F S A 0 . ",
"@ + O o X . . . . . . . . . . . ",
"                                ",
"                                "
};
