/* XPM */
static char *ne[] = {
/* columns rows colors chars-per-pixel */
"16 16 155 2 ",
"   c None",
".  c #002100",
"X  c #002700",
"o  c #002900",
"O  c #002D00",
"+  c #002F00",
"@  c #003300",
"#  c #003500",
"$  c #003900",
"%  c #003D00",
"&  c #004100",
"*  c #004700",
"=  c #004D00",
"-  c #005100",
";  c #005700",
":  c #005D00",
">  c #006300",
",  c #006500",
"<  c #006F00",
"1  c #007100",
"2  c #007500",
"3  c #E90000",
"4  c #EB0300",
"5  c #EF0F00",
"6  c #ED1B00",
"7  c #F11900",
"8  c #F32100",
"9  c #F52700",
"0  c #F72D00",
"q  c #F93500",
"w  c #FB3900",
"e  c #FD3D00",
"r  c #FD4300",
"t  c #FF4300",
"y  c #FD4500",
"u  c #FD4B00",
"i  c #FF4B00",
"p  c #FF4D00",
"a  c #FF5900",
"s  c #F6762C",
"d  c #F87536",
"f  c #F77B31",
"g  c #F87F37",
"h  c #F97C3B",
"j  c #0B8F0B",
"k  c #0F920E",
"l  c #139413",
"z  c #189619",
"x  c #1E991E",
"c  c #239D23",
"v  c #2F9F2F",
"b  c #29A029",
"n  c #2CA22C",
"m  c #2EA22E",
"M  c #2FA42F",
"N  c #32A532",
"B  c #34A534",
"V  c #35A835",
"C  c #39A939",
"Z  c #3AA83A",
"A  c #3FAB3F",
"S  c #3DAC3D",
"D  c #42AE42",
"F  c #44AE44",
"G  c #46B046",
"H  c #4BB24B",
"J  c #50B450",
"K  c #54B755",
"L  c #58B958",
"P  c #5DBC5D",
"I  c #61BE62",
"U  c #66BD66",
"Y  c #F9823D",
"T  c #FA8642",
"R  c #FB8A47",
"E  c #F78A49",
"W  c #FC8D4C",
"Q  c #F7934E",
"!  c #FD8F51",
"~  c #F89653",
"^  c #FD9354",
"/  c #F99857",
"(  c #FE9659",
")  c #FA9B5C",
"_  c #FE985C",
"`  c #FE9A5F",
"'  c #FB9E60",
"]  c #FCA165",
"[  c #FCA469",
"{  c #FDA76D",
"}  c #F7A471",
"|  c #FDA971",
" . c #FEAB74",
".. c #FEAD77",
"X. c #F8A978",
"o. c #FFAB7A",
"O. c #FEAE79",
"+. c #F9AE7F",
"@. c #FFB07B",
"#. c #DBB59D",
"$. c #F7B186",
"%. c #FAB286",
"&. c #FABD98",
"*. c #A1C7A1",
"=. c #F6C8AC",
"-. c #F8CDB3",
";. c #F9CFB7",
":. c #FBD4BD",
">. c #C5DFC5",
",. c LightGray",
"<. c #D5D5D5",
"1. c #D7D7D7",
"2. c #F5D9C9",
"3. c #D0E4D0",
"4. c #D2E6D2",
"5. c #D4E7D4",
"6. c #D5E8D5",
"7. c #D7E8D7",
"8. c #D7EAD8",
"9. c #D8ECDC",
"0. c #DAEDDD",
"q. c #DCEEDD",
"w. c #DDEFDD",
"e. c #DFF0DF",
"r. c #F5E3D6",
"t. c #F6E4D8",
"y. c #F7E6DA",
"u. c #F6E6DB",
"i. c #F8E8DB",
"p. c #F9E9DE",
"a. c #FAEAE0",
"s. c #FBEBE1",
"d. c #FCECE1",
"f. c #FDEDE2",
"g. c #FDEEE3",
"h. c #FEEFE5",
"j. c #E0F0E0",
"k. c #E2F1E2",
"l. c #E8F4E8",
"z. c #FEF2EA",
"x. c #F1F1F1",
"c. c gray95",
"v. c #F3F3F3",
"b. c #F4F4F4",
"n. c #F4F5F5",
"m. c gray96",
"M. c #F6F6F6",
"N. c gray97",
"B. c gray98",
"V. c #FBFBFB",
"C. c #FBFCFB",
"Z. c gray99",
"A. c #FDFCFD",
"S. c #FDFDFD",
"D. c #FEFEFE",
/* pixels */
"                                ",
"                                ",
"                                ",
"a i p p i y t e w q 0 9 8 7 5 6 ",
"p @.O.O.O. .| { [ ] ) ) / ~ Q 4 ",
"t o.' ( ( ^ ! W R T Y h f s E 4 ",
"2.z.h.h.h.f.d.d.d.p.i.u.t.r.u.#.",
"m.D.D.D.A.V.:.%.@.-.N.m.m.b.b.1.",
"v.D.D.Z.D.C.&.h d $.N.n.v.v.n.<.",
"v.D.B.C.B.B.;.X.} =.v.v.v.v.v.,.",
">.l.k.j.q.e.q.0.9.8.6.6.3.3.8.*.",
"< U F A Z B m b c x z l k k v . ",
"1 I P L K J H G G S Z B N v n o ",
"2 , > : ; - = * & % $ # + + o # ",
"                                ",
"                                "
};
