/* XPM */
static char *nf[] = {
/* columns rows colors chars-per-pixel */
"16 16 147 2 ",
"   c None",
".  c black",
"X  c #000500",
"o  c #000D00",
"O  c #001300",
"+  c #001900",
"@  c #002100",
"#  c #002700",
"$  c #002F00",
"%  c #003500",
"&  c #003B00",
"*  c #003D00",
"=  c #004100",
"-  c #004300",
";  c #0B670B",
":  c #0F6A0E",
">  c #106A10",
",  c #146E14",
"<  c #197019",
"1  c #1A701A",
"2  c #1F741F",
"3  c #207520",
"4  c #257825",
"5  c #267A26",
"6  c #2A732A",
"7  c #2F772F",
"8  c #2B7C2B",
"9  c #2C7B2C",
"0  c #2C7C2C",
"q  c #2F7C2F",
"w  c #2F7D2F",
"e  c #327F32",
"r  c #337F32",
"t  c #357C35",
"y  c #357E35",
"u  c #3A7F3A",
"i  c #318131",
"p  c #368236",
"a  c #3B853B",
"s  c #3D833D",
"d  c #3F893F",
"f  c #3F8A3F",
"g  c #418541",
"h  c #438643",
"j  c #448C44",
"k  c #448E44",
"l  c #458E45",
"z  c #4A8A4A",
"x  c #498F49",
"c  c #499149",
"v  c #4E934E",
"b  c #4F954F",
"n  c #508E50",
"m  c #539653",
"M  c #539753",
"N  c #549754",
"B  c #589857",
"V  c #5A925A",
"C  c #599459",
"Z  c #5D915D",
"A  c #5C935C",
"S  c #589958",
"D  c #589A58",
"F  c #589B59",
"G  c #5D985D",
"H  c #5C9D5C",
"J  c #5D9D5D",
"K  c #5F9F5F",
"L  c #639C63",
"P  c #619F62",
"I  c #6A9F6A",
"U  c #66A366",
"Y  c #6AA56A",
"T  c #6DA06D",
"R  c #6FA86F",
"E  c #75A675",
"W  c #72AA73",
"Q  c #76AD76",
"!  c #7BA77B",
"~  c #79A979",
"^  c #7AA87A",
"/  c #79AE79",
"(  c #7EAC7E",
")  c #7BB07A",
"_  c #7BB07B",
"`  c #80AA80",
"'  c #85AF85",
"]  c #86AE86",
"[  c #8BB58B",
"{  c #90B390",
"}  c #9BBC9B",
"|  c #9BBD9B",
" . c #A1C1A1",
".. c #B2CBB2",
"X. c #B4CCB4",
"o. c #B6CFB6",
"O. c #B9D1B9",
"+. c #BBD3BB",
"@. c #BCD2BC",
"#. c #BED5BE",
"$. c #BFD5BF",
"%. c #C3CBC3",
"&. c #CBCFCB",
"*. c #C0D6C0",
"=. c #C4D6C4",
"-. c #C2D8C2",
";. c #C4D9C4",
":. c #C6DBC6",
">. c #CBD1CB",
",. c #C8DDC9",
"<. c #C9DDC9",
"1. c #CADDCA",
"2. c #CCDFCC",
"3. c #CDDECD",
"4. c #CEDFCE",
"5. c #D7D7D7",
"6. c #D7D9D5",
"7. c #DDDDDD",
"8. c #CEE0CE",
"9. c #D7E7D7",
"0. c #D9E3D9",
"q. c #E2EDE2",
"w. c #E5E9E5",
"e. c #E9EEE9",
"r. c #EBEDEB",
"t. c #EBEFEB",
"y. c #EFEFEF",
"u. c #F1F1F1",
"i. c #F0F2F0",
"p. c #F3F3F3",
"a. c #F1F6F1",
"s. c gray96",
"d. c #F5F6F5",
"f. c #F5F7F5",
"g. c #F6F6F6",
"h. c #F6F7F6",
"j. c gray97",
"k. c #F7F8F7",
"l. c #F8F9F7",
"z. c #F9FAF9",
"x. c gray98",
"c. c #FAFBFA",
"v. c #FBFBFB",
"b. c #FBFCFB",
"n. c gray99",
"m. c #FDFDFD",
"M. c #FDFDFE",
/* pixels */
"                                ",
"                                ",
"                                ",
"- - - - | t.p.u.r.y.w.[ O o X . ",
"- _ _ / 9.b.n.a.q.n.l.4.S m v . ",
"- _ K H 8.b.n.( E v.g.*.i 0 x . ",
"- / H S 2.v.v.L G g.g.#.8 5 j . ",
"* Q S N 1.b.#.z h ' g.+.5 3 d . ",
"* W M b ,.v.! h p I g.+.2 < a . ",
"% R b c ;. .T s t V { o.< , p . ",
"$ Y c k ;.| n 7 6 t ] X., > r . ",
"# U k d ;.e.8.Z V =.0...: : 0 . ",
"@ P H S 1.g.g.( ! g.u.@.r 0 q . ",
"+ O o X ~ 6.7.>.%.5.>.Z . . . . ",
"                                ",
"                                "
};
