/* XPM */
static char *ng[] = {
/* columns rows colors chars-per-pixel */
"16 16 133 2 ",
"   c None",
".  c #002700",
"X  c #002900",
"o  c #002D00",
"O  c #002F00",
"+  c #003100",
"@  c #003500",
"#  c #003B00",
"$  c #003F00",
"%  c #004500",
"&  c #004B00",
"*  c #004D00",
"=  c #005300",
"-  c #005B00",
";  c #005D00",
":  c #006100",
">  c #006300",
",  c #006500",
"<  c #006700",
"1  c #006900",
"2  c #006F00",
"3  c #007500",
"4  c #007700",
"5  c #007B00",
"6  c #007F00",
"7  c #008300",
"8  c #008500",
"9  c #008700",
"0  c #008900",
"q  c #009100",
"w  c #0B950B",
"e  c #0F960E",
"r  c #109710",
"t  c #139713",
"y  c #149914",
"u  c #149A14",
"i  c #199A19",
"p  c #199B19",
"a  c #1A9C1A",
"s  c #1F9D1F",
"d  c #1F9E1F",
"f  c #209F20",
"g  c #25A025",
"h  c #25A125",
"j  c #26A226",
"k  c #2BA42B",
"l  c #2BA52B",
"z  c #2CA22C",
"x  c #2CA62C",
"c  c #2FA42F",
"v  c #31A731",
"b  c #32A532",
"n  c #33A632",
"m  c #35A635",
"M  c #31A831",
"N  c #36A836",
"B  c #37AA37",
"V  c #3AAA3A",
"C  c #3BAA3B",
"Z  c #3FAD3F",
"A  c #3FAE3F",
"S  c #40AD3F",
"D  c #44AF44",
"F  c #44B144",
"G  c #45B045",
"H  c #45B145",
"J  c #49B249",
"K  c #4BB34B",
"L  c #49B449",
"P  c #4EB44E",
"I  c #4FB64F",
"U  c #4FB74F",
"Y  c #50B550",
"T  c #53B753",
"R  c #54B555",
"E  c #54B754",
"W  c #53B953",
"Q  c #54B954",
"!  c #58B957",
"~  c #58B958",
"^  c #59BA59",
"/  c #58BB59",
"(  c #58BC58",
")  c #5CB95C",
"_  c #5CBD5C",
"`  c #5DBC5D",
"'  c #5FBF5F",
"]  c #61BE62",
"[  c #66C066",
"{  c #6AC36A",
"}  c #6FC46F",
"|  c #72C673",
" . c #77C777",
".. c #76C876",
"X. c #79C879",
"o. c #7BCA7A",
"O. c #7BCA7B",
"+. c #BDC7BD",
"@. c #C7D3C7",
"#. c LightGray",
"$. c #D7D7D7",
"%. c gray85",
"&. c #D9E3D9",
"*. c #DFE9DF",
"=. c #E7EEE7",
"-. c gray92",
";. c #E8EFE8",
":. c gray93",
">. c #EFEFEF",
",. c #EAF0EA",
"<. c #EBF1EB",
"1. c #ECF2EC",
"2. c #EEF3EE",
"3. c #EEF4EE",
"4. c #EFF4EF",
"5. c #EFF5EF",
"6. c #F0F6F0",
"7. c #F1F7F1",
"8. c #F2F7F2",
"9. c #F4F4F4",
"0. c gray96",
"q. c #F6F6F6",
"w. c gray97",
"e. c #F3F8F3",
"r. c #F4F9F4",
"t. c #F6FBF6",
"y. c #F8F8F8",
"u. c #F9F9F9",
"i. c gray98",
"p. c #FBFBFB",
"a. c gray99",
"s. c #FDFDFD",
"d. c #FDFDFE",
/* pixels */
"                                ",
"                                ",
"                                ",
"q 0 0 9 7 =.:.:.:.-.&.1 < : ; : ",
"9 O.O.O. .r.s.s.p.s.8.) ! T P * ",
"0 O.' _ ^ r.s.p.p.p.3.B M x J & ",
"9 X._ _ E e.a.p.p.p.3.v l j D % ",
"9  .Q Q Y 8.p.p.p.q.<.k j f Z $ ",
"9 | W P J 8.p.p.q.q.<.f f s V # ",
"6 } U L H 3.y.q.q.q.;.s i u m @ ",
"5 { L H D 2.p.q.q.q.=.i u e n + ",
"4 ] F Z V 2.q.q.q.q.=.t e w v o ",
"2 ] ` ^ R 8.q.q.q.q.;.m v v z . ",
"4 < : - = @.%.$.$.#.+.+ X o X + ",
"                                ",
"                                "
};
