/* XPM */
static char *ni[] = {
/* columns rows colors chars-per-pixel */
"16 16 147 2 ",
"   c None",
".  c #CE9177",
"X  c #EBE07F",
"o  c #0000DD",
"O  c #0000DF",
"+  c #0005DD",
"@  c #0005DF",
"#  c #0009E1",
"$  c #000DE3",
"%  c #0013E5",
"&  c #0019E7",
"*  c #001FE9",
"=  c #0025EB",
"-  c #0029EB",
";  c #002BED",
":  c #0033ED",
">  c #0037EF",
",  c #003DF1",
"<  c #0057DF",
"1  c #005FE7",
"2  c #0043F3",
"3  c #0049F5",
"4  c #004FF5",
"5  c #004DF7",
"6  c #004FF7",
"7  c #0051F9",
"8  c #0055F9",
"9  c #0059FB",
"0  c #005DFD",
"q  c #0061FD",
"w  c #0065FD",
"e  c #0067FF",
"r  c #0069FD",
"t  c #006BFF",
"y  c #0071FF",
"u  c #127EF1",
"i  c #1681F1",
"p  c #1B84F2",
"a  c #1F87F3",
"s  c #2589F4",
"d  c #2A8DF5",
"f  c #2F91F6",
"g  c #2F97FB",
"h  c #3292F2",
"j  c #3691F2",
"k  c #3594F2",
"l  c #3795F3",
"z  c #3393F6",
"x  c #3493F7",
"c  c #3896F7",
"v  c #3B98F3",
"b  c #3A96F8",
"n  c #359BFF",
"m  c #3E99F8",
"M  c #3F9AF9",
"N  c #4099F4",
"B  c #429CF5",
"V  c #479EF6",
"C  c #439DF9",
"Z  c #459DFA",
"A  c #489FFA",
"S  c #4BA1F7",
"D  c #4FA2F7",
"F  c #4AA0FA",
"G  c #4CA2FB",
"H  c #50A4F7",
"J  c #54A7F7",
"K  c #55A7F8",
"L  c #51A5FC",
"P  c #56A7FD",
"I  c #58A9F8",
"U  c #59A9F9",
"Y  c #5DABF9",
"T  c #5EACF9",
"R  c #5AAAFD",
"E  c #5EACFE",
"W  c #7AB5E5",
"Q  c #7DB6E7",
"!  c #7FBCEF",
"~  c #63AAF2",
"^  c #66ADF2",
"/  c #6AAEF3",
"(  c #61AEFA",
")  c #62AFFA",
"_  c #61AEFE",
"`  c #6AB0F5",
"'  c #6EB1F4",
"]  c #6EB2F6",
"[  c #65B0FB",
"{  c #66B2FB",
"}  c #64B0FE",
"|  c #6BB2FC",
" . c #6AB3FC",
".. c #6EB5FC",
"X. c #71B3F4",
"o. c #72B5F7",
"O. c #7AB6F3",
"+. c #7CBBF7",
"@. c #7FBAF6",
"#. c #76B7F8",
"$. c #71B8FD",
"%. c #75BAFE",
"&. c #7ABAF9",
"*. c #78BBFE",
"=. c #7BBDFE",
"-. c #7DBEFE",
";. c #7FBEFF",
":. c #7FBFFF",
">. c #ADC3B1",
",. c #EEE281",
"<. c #F4E286",
"1. c #F6E48B",
"2. c #F6E989",
"3. c #F7E98A",
"4. c #F8EC8F",
"5. c #FAED93",
"6. c #F9EC94",
"7. c #FBF099",
"8. c #82BEF3",
"9. c #80BDF9",
"0. c #84C0FA",
"q. c #85C0FC",
"w. c #88C2FB",
"e. c #8BC4FB",
"r. c #88C2FD",
"t. c #8BC4FD",
"y. c #8EC6FE",
"u. c #90C7FE",
"i. c #A0CFFC",
"p. c #A4D2FE",
"a. c gray89",
"s. c gray90",
"d. c #E7E7E7",
"f. c gray95",
"g. c #F3F3F3",
"h. c #F4F4F4",
"j. c #F4F5F5",
"k. c gray96",
"l. c #F6F6F6",
"z. c gray97",
"x. c gray98",
"c. c #FBFBFB",
"v. c #FBFCFB",
"b. c gray99",
"n. c #FDFCFD",
"m. c #FDFDFD",
"M. c #FEFEFE",
/* pixels */
"                                ",
"                                ",
"                                ",
"y t t t t e q 0 9 8 6 3 2 , > > ",
"t :.:.-.-.%.%.$... .[ ( Y I J - ",
"e :.} } E R K L G F C M c z D * ",
"n p.u.u.t.q.q.0.@.&.#.o.] / @.1 ",
"n.n.n.n.n.b.7.1.<.4.z.k.k.k.k.d.",
"n.n.n.n.n.x.6.>.. 2.l.j.j.f.j.s.",
"n.n.v.v.v.x.6.,.X 2.j.g.j.f.f.s.",
"n i.e.w.0.9.@.Q W X.' / ^ ~ O.< ",
"7  .F Z M b x z d s a p i u j o ",
"6 { ( T U J H V V B N v l k h o ",
"4 2 , > > ; = * & % $ # + o o + ",
"                                ",
"                                "
};
