/* XPM */
static char *nl[] = {
/* columns rows colors chars-per-pixel */
"16 16 137 2 ",
"   c None",
".  c #00003B",
"X  c #00003D",
"o  c #000041",
"O  c #000043",
"+  c #000047",
"@  c #00004D",
"#  c #000051",
"$  c #000057",
"%  c #00005B",
"&  c #00005F",
"*  c #000065",
"=  c #00006B",
"-  c #00006F",
";  c #000075",
":  c #00007B",
">  c #00017F",
",  c #E70000",
"<  c #E90000",
"1  c #EB0000",
"2  c #ED0000",
"3  c #EF0000",
"4  c #F10000",
"5  c #F30000",
"6  c #F50000",
"7  c #F70000",
"8  c #F90000",
"9  c #FB0000",
"0  c #FD0000",
"q  c red",
"w  c #FF1531",
"e  c #F62C3C",
"r  c #F73142",
"t  c #F83747",
"y  c #F93C4D",
"u  c #FA4251",
"i  c #FB4756",
"p  c #F74957",
"a  c #FC4C5A",
"s  c #FD515E",
"d  c #F74E60",
"f  c #FD5463",
"g  c #F85365",
"h  c #FE5967",
"j  c #F5566A",
"k  c #F95768",
"l  c #F65A6E",
"z  c #FE5C69",
"x  c #FA5C6D",
"c  c #FE5F6C",
"v  c #F75F72",
"b  c #FB6070",
"n  c #F86476",
"m  c #FC6574",
"M  c #F66D7F",
"N  c #F9687A",
"B  c #FC6978",
"V  c #FD6D7B",
"C  c #FA6C7D",
"Z  c #FD707F",
"A  c #000781",
"S  c #00218F",
"D  c #0B50A1",
"F  c #0F52A3",
"G  c #1356A5",
"H  c #185AA8",
"J  c #1E5EAA",
"K  c #2360A9",
"L  c #2362AD",
"P  c #2863AC",
"I  c #2966AF",
"U  c #2C67AD",
"Y  c #2C67AE",
"T  c #2F69AE",
"R  c #2F6AAE",
"E  c #2E6AB2",
"W  c #316BB0",
"Q  c #326CB0",
"!  c #356FB2",
"~  c #366FB2",
"^  c #346FB5",
"/  c #3971B3",
"(  c #3B73B5",
")  c #3A73B7",
"_  c #3D75B6",
"`  c #3F76B9",
"'  c #4377B5",
"]  c #4077B7",
"[  c #4278B8",
"{  c #457BBA",
"}  c #447ABB",
"|  c #467CBA",
" . c #4A7EBC",
".. c #4B7FBC",
"X. c #FB7081",
"o. c #FE7481",
"O. c #FC7485",
"+. c #FE7784",
"@. c #FF7B85",
"#. c #FE7987",
"$. c #FD7888",
"%. c #FF7B89",
"&. c #FD7B8B",
"*. c #FE7F8F",
"=. c #5082BE",
"-. c #5082BF",
";. c #5485C0",
":. c #5485C1",
">. c #5889C2",
",. c #5989C3",
"<. c #5D8DC4",
"1. c #6190C6",
"2. c #6693C8",
"3. c #779ECE",
"4. c #FE8291",
"5. c #FE97A4",
"6. c gray82",
"7. c #D5D5D5",
"8. c #EDEFEF",
"9. c #EFEFEF",
"0. c #F1F1F1",
"q. c gray95",
"w. c #F3F3F3",
"e. c #F4F4F4",
"r. c #F4F5F5",
"t. c gray96",
"y. c #F6F6F6",
"u. c gray97",
"i. c #F8F8F8",
"p. c #F9F9F9",
"a. c #FAFAFA",
"s. c #FBFBFB",
"d. c #FBFCFB",
"f. c gray99",
"g. c #FDFCFD",
"h. c #FDFDFD",
"j. c #FEFEFE",
/* pixels */
"                                ",
"                                ",
"                                ",
"q q q q 9 q q q 9 9 7 7 5 5 2 2 ",
"q %.%.@.O.o.X.V B m x x k g d 1 ",
"q @.c z h f s a i u y t r e p 1 ",
"w 5.4.*.%.$.O.X.C N n v l j M , ",
"0.j.j.j.j.s.s.a.a.a.a.r.r.e.r.7.",
"8.j.j.j.a.j.a.a.r.a.r.r.r.e.e.6.",
"8.j.a.s.s.a.r.a.r.r.r.r.e.e.e.6.",
"S 3.,.;.=...{ ] _ ~ W Y P K ' @ ",
"A 2.} ` ) ^ E I L J H G G D T . ",
"> 1.<.>.;.=...| [ _ / ~ T R Y . ",
": ; - = * & % $ # @ + O X X . X ",
"                                ",
"                                "
};
