/* XPM */
static char *np[] = {
/* columns rows colors chars-per-pixel */
"9 16 66 1 ",
"  c None",
". c #060936",
"X c #070A37",
"o c #070B38",
"O c #080C38",
"+ c #080D3A",
"@ c #090E3C",
"# c #0A0F3E",
"$ c #161236",
"% c #1A153E",
"& c #0A1044",
"* c #0B1047",
"= c #0B1149",
"- c #0E165D",
"; c #1E1855",
": c #111A72",
"> c #111B75",
", c #121C78",
"< c #131D7F",
"1 c #181E7F",
"2 c #221C6C",
"3 c #AB0000",
"4 c #B30000",
"5 c #C10000",
"6 c #C20000",
"7 c #C70000",
"8 c #D00000",
"9 c #D80000",
"0 c #DC0000",
"q c #DD0000",
"w c #DE0000",
"e c #E70101",
"r c #EC0000",
"t c #F00000",
"y c #DF4B4B",
"u c #E35252",
"i c #E45757",
"p c #E45D5D",
"a c #E76D6D",
"s c #EA7D7D",
"d c #271F83",
"f c #1D2D96",
"g c #1A249D",
"h c #2A2299",
"j c #1C2AB7",
"k c #2E25AB",
"l c #3027B9",
"z c #2C44B4",
"x c #1D2DC9",
"c c #1F30D6",
"v c #3329C6",
"b c #3229C9",
"n c #EA8282",
"m c #EC8888",
"M c #F2AEAE",
"N c #F6D3D3",
"B c #F9DBDB",
"V c #F9DCDC",
"C c #F9DDDD",
"Z c #F9DFDF",
"A c #F9E0E0",
"S c #FAE4E4",
"D c #FAE6E6",
"F c #FBEAEA",
"G c #FBEBEB",
"H c #FCF0F0",
/* pixels */
"         ",
"         ",
"         ",
"bcc      ",
"vtex     ",
"lrSNj    ",
"kHCBDg   ",
"hMGGq81  ",
"d99zfd,: ",
"29mn:    ",
";sAVy-   ",
"&aVBp3=  ",
"$8iu663o ",
"=&##OOoo.",
"         ",
"         "
};
