/* XPM */
static char *nr[] = {
/* columns rows colors chars-per-pixel */
"16 16 158 2 ",
"   c None",
".  c black",
"X  c #000001",
"o  c #000003",
"O  c #000007",
"+  c #00000D",
"@  c #000013",
"#  c #000019",
"$  c #00001B",
"%  c #000021",
"&  c #000023",
"*  c #000027",
"=  c #00002D",
"-  c #00002F",
";  c #000033",
":  c #000035",
">  c #000039",
",  c #00003B",
"<  c #00003F",
"1  c #000041",
"2  c #000047",
"3  c #00004B",
"4  c #00004D",
"5  c #000351",
"6  c #000551",
"7  c #000955",
"8  c #000D59",
"9  c #00135D",
"0  c #00135F",
"q  c #00155F",
"w  c #001D5B",
"e  c #00195F",
"r  c #10457A",
"t  c #13477D",
"y  c #14487C",
"u  c #194B7F",
"i  c #1C4D7F",
"p  c #BB8100",
"a  c #DFB51D",
"s  c #DEC158",
"d  c #E0C35C",
"f  c #E1C560",
"g  c #E3C765",
"h  c #E4C969",
"j  c #E6CB6D",
"k  c #E2C970",
"l  c #E7CD72",
"z  c #E8CF76",
"x  c #E9D17A",
"c  c #E8D17D",
"v  c #184B80",
"b  c #1D4F83",
"n  c #1E5082",
"m  c #215182",
"M  c #225386",
"N  c #245485",
"B  c #265685",
"V  c #285785",
"C  c #285889",
"Z  c #2A5A89",
"A  c #28588A",
"S  c #2A5A8B",
"D  c #2D5B89",
"F  c #2D5C8C",
"G  c #2D5C8D",
"H  c #315D8A",
"J  c #305E8C",
"K  c #305E8E",
"L  c #315F8E",
"P  c #325F8F",
"I  c #33608C",
"U  c #34608D",
"Y  c #35638F",
"T  c #36628F",
"R  c #326191",
"E  c #366290",
"W  c #366391",
"Q  c #356292",
"!  c #376392",
"~  c #376490",
"^  c #3A6591",
"/  c #3B6692",
"(  c #3B6693",
")  c #3C6690",
"_  c #3B6795",
"`  c #3D6893",
"'  c #3C6895",
"]  c #3E6894",
"[  c #406B96",
"{  c #426B96",
"}  c #426D97",
"|  c #466F96",
" . c #406B98",
".. c #416C98",
"X. c #436E9A",
"o. c #466F99",
"O. c #456F9C",
"+. c #467099",
"@. c #47709A",
"#. c #46709B",
"$. c #48709A",
"%. c #4A729C",
"&. c #4A739F",
"*. c #4B749E",
"=. c #4C749D",
"-. c #4D759D",
";. c #4F769E",
":. c #53799F",
">. c #4E77A1",
",. c #5078A1",
"<. c #5279A0",
"1. c #5379A0",
"2. c #547BA0",
"3. c #557BA3",
"4. c #567CA2",
"5. c #577DA3",
"6. c #547AA4",
"7. c #5A7EA2",
"8. c #587EA6",
"9. c #597FA6",
"0. c #5E82A3",
"q. c #5C80A6",
"w. c #5B81A9",
"e. c #5D82A8",
"r. c #5F84AB",
"t. c #6284A6",
"y. c #6084A9",
"u. c #6185A9",
"i. c #6284A9",
"p. c #6085AB",
"a. c #6587AA",
"s. c #6387AC",
"d. c #6587AC",
"f. c #6588AB",
"g. c #698BAE",
"h. c #6A8BAE",
"j. c #6D8FB0",
"k. c #6E8FB1",
"l. c #7091B2",
"z. c #7394B3",
"x. c #7694B3",
"c. c #7494B4",
"v. c #7796B6",
"b. c #7E9BB6",
"n. c #7A99B9",
"m. c #7B99BA",
"M. c #7C9AB9",
"N. c #7E9CBA",
"B. c #7E9DBB",
"V. c #8FA8BF",
"C. c #E8D380",
"Z. c #ECD684",
"A. c #F1DD9A",
"S. c #93ABC4",
"D. c #B8C7D6",
"F. c #DBE3EC",
"G. c #E4E8EE",
"H. c #FBFBFB",
/* pixels */
"                                ",
"                                ",
"                                ",
"e q q q 0 8 7 5 3 2 1 , : - * & ",
"q B.V.v.v.v.z.l.j.g.a.p.q.5.<.# ",
"q B.p.p.w.8.3.>.*.o.} _ W L -.@ ",
"0 m.r.w.8.6.>.>.O. ._ W L S $.+ ",
"w b.t.0.7.<.%.@.} ] ~ L D V | o ",
"a A.Z.c c x z l j h g d d s j p ",
"6 z.5.V.3.o.[ / Y F Z B m b ~ o ",
"4 j.S.H.F.X.W R F S M b u y T o ",
"2 g.p.G.D./ T F S N b u y r I o ",
"< a.p.x.a.3.;.$.| { [ ~ T I H o ",
", ; = * & # @ + O o o o o o o o ",
"                                ",
"                                "
};
