/* XPM */
static char *nu[] = {
/* columns rows colors chars-per-pixel */
"16 16 149 2 ",
"   c None",
".  c #DF5957",
"X  c #F94D43",
"o  c #F1494D",
"O  c #FD5345",
"+  c #F5504C",
"@  c #E6575A",
"#  c #ED5F67",
"$  c #E25C68",
"%  c #FD776F",
"&  c #DFC033",
"*  c #DFC134",
"=  c #DFC135",
"-  c #DFC236",
";  c #DFC337",
":  c #E1C538",
">  c #E4C83B",
",  c #E4C83C",
"<  c #E6CA3E",
"1  c #E6CA3F",
"2  c #E6DC3C",
"3  c #E6DC3D",
"4  c #E7DE3F",
"5  c #E9DF3C",
"6  c #EAE03E",
"7  c #EAE13F",
"8  c #FD827E",
"9  c #E8CD41",
"0  c #E8CD42",
"q  c #E8CE43",
"w  c #E8CE44",
"e  c #E8D046",
"r  c #EAD146",
"t  c #E7DF40",
"y  c #E7DF41",
"u  c #EAD349",
"i  c #EBD349",
"p  c #ECD54C",
"a  c #EDD54D",
"s  c #EFD64F",
"d  c #EFD750",
"f  c #EFD654",
"g  c #EFD955",
"h  c #F0D952",
"j  c #F0D956",
"k  c #F2DC55",
"l  c #F3DB5A",
"z  c #F3DB5B",
"x  c #F4DF58",
"c  c #E7E041",
"v  c #EBE241",
"b  c #E8E143",
"n  c #E9E143",
"m  c #ECE443",
"M  c #E9E144",
"N  c #EBE446",
"B  c #EBE447",
"V  c #ECE444",
"C  c #EDE647",
"Z  c #EEE647",
"A  c #E6E249",
"S  c #ECE548",
"D  c #ECE649",
"F  c #EEE749",
"G  c #EFE749",
"H  c #ECE64A",
"J  c #EDE74A",
"K  c #EFE64E",
"L  c #EEE84B",
"P  c #EEE84C",
"I  c #EEE94C",
"U  c #EEE94D",
"Y  c #EFEA4D",
"T  c #EFEA4E",
"R  c #EFEA4F",
"E  c #F0EA4D",
"W  c #F2EB4D",
"Q  c #F2EC4F",
"!  c #F0EB50",
"~  c #F1E953",
"^  c #F1EC51",
"/  c #F2EC50",
"(  c #F2ED52",
")  c #F3EE53",
"_  c #F4EF53",
"`  c #F3EF56",
"'  c #F2EF57",
"]  c #F6E25B",
"[  c #F4EB58",
"{  c #F5F055",
"}  c #F6F155",
"|  c #F4F057",
" . c #F6F157",
".. c #FDF352",
"X. c #F4F158",
"o. c #F5F259",
"O. c #F6F258",
"+. c #F5F35B",
"@. c #F6F35B",
"#. c #F8F45A",
"$. c #F8F45B",
"%. c #F9F65D",
"&. c #F8F65E",
"*. c #FDCB60",
"=. c #FED369",
"-. c #FBDA69",
";. c #FCDF71",
":. c #FBF860",
">. c #FBF961",
",. c #FCFA63",
"<. c #FEFA7C",
"1. c #3631B1",
"2. c #6E64B4",
"3. c #5656CA",
"4. c #6771D7",
"5. c #6576D4",
"6. c #6F77DF",
"7. c #7373D7",
"8. c #5775EB",
"9. c #5F7DF1",
"0. c #837AC9",
"q. c #7F85DE",
"w. c #7F8BE9",
"e. c #7184F5",
"r. c #FD958F",
"t. c #EF959C",
"y. c #FE9694",
"u. c #FEA4A0",
"i. c #F0A2A8",
"p. c #FEABA9",
"a. c #FBB4B3",
"s. c #FEE880",
"d. c #FEEA83",
"f. c #FEC0BE",
"g. c #8383DF",
"h. c #908BD9",
"j. c #8294EB",
"k. c #9DA9EE",
"l. c #C7B5DE",
"z. c #BDCAF7",
"x. c #FDC6C5",
"c. c #FCD0D3",
"v. c #FBD3D6",
"b. c #FFD8D7",
"n. c #DED1E8",
"m. c #D6D3F2",
"M. c #D5DFFB",
"N. c #D9E2FC",
"B. c #E5E1F5",
/* pixels */
"                                ",
"                                ",
"                                ",
"7.% g.w.O 6.4.X 1.g ] ] k h d a ",
"9.N.b.B.<.m.x.z.e.` %.#.O._ ( u ",
"# v.s.p.=.y.;.i.$ [ ` ( R R ( e ",
"o c.s.y.*.8 -.t.@ ~ ( R K F E q ",
"8.M.f.n...l.a.k.5.A R I D N F q ",
"3.u.h.j.o q.0.. 2.K I D B b Z < ",
"z ,.%.+.#.O.( ( R I D B b c b < ",
"z >.+.o.| { E E F D B b 4 4 v : ",
"g >.{ { { T E I B c c 4 4 2 6 * ",
"g %.%.| } { W W E Z m b 6 6 6 * ",
"f k h a a i e q < < > : * * * & ",
"                                ",
"                                "
};
