/* XPM */
static char *nz[] = {
/* columns rows colors chars-per-pixel */
"16 16 164 2 ",
"   c None",
".  c black",
"X  c #000001",
"o  c #000003",
"O  c #000007",
"+  c #000009",
"@  c #00000B",
"#  c #00000F",
"$  c #000011",
"%  c #000015",
"&  c #000017",
"*  c #000019",
"=  c #00001D",
"-  c #00001F",
";  c #000023",
":  c #000025",
">  c #000029",
",  c #00002D",
"<  c #000033",
"1  c #000039",
"2  c #00003D",
"3  c #00003F",
"4  c #7F153B",
"5  c #000045",
"6  c #000047",
"7  c #00004D",
"8  c #00004F",
"9  c #000051",
"0  c #000053",
"q  c #000055",
"w  c #000059",
"e  c #00005D",
"r  c #00005F",
"t  c #000061",
"y  c #000067",
"u  c #2D176B",
"i  c #651F53",
"p  c #5D235D",
"a  c #7F2349",
"s  c #6E3663",
"d  c #753D6A",
"f  c #79426E",
"g  c #85173D",
"h  c #CF1919",
"j  c #A8485B",
"k  c #B94650",
"l  c #804D76",
"z  c #895378",
"x  c #88567F",
"c  c #8E597D",
"v  c #AE5265",
"b  c #B1596D",
"n  c #AF5F79",
"m  c #B66275",
"M  c #C3606A",
"N  c #C86670",
"B  c #D76E72",
"V  c #E46B6A",
"C  c #E57472",
"Z  c #E17778",
"A  c #E97C7A",
"S  c #102986",
"D  c #142E89",
"F  c #18318A",
"G  c #19318B",
"H  c #1E358E",
"J  c #1F368E",
"K  c #1F378E",
"L  c #233A91",
"P  c #243B90",
"I  c #243B91",
"U  c #253C92",
"Y  c #293F94",
"T  c #2C4193",
"R  c #2A4094",
"E  c #2B4195",
"W  c #2C4294",
"Q  c #2C4396",
"!  c #2F4494",
"~  c #2E4597",
"^  c #2F4597",
"/  c #2F4598",
"(  c #334797",
")  c #354A99",
"_  c #364B99",
"`  c #344A9A",
"'  c #344A9B",
"]  c #374C99",
"[  c #374C9B",
"{  c #394D9A",
"}  c #3B4F9C",
"|  c #3A4F9D",
" . c #3A4F9E",
".. c #3B509C",
"X. c #3D519D",
"o. c #3C519F",
"O. c #3F54A1",
"+. c #46468E",
"@. c #435299",
"#. c #42559F",
"$. c #4B559B",
"%. c #53539A",
"&. c #6B6199",
"*. c #7B6395",
"=. c #4055A0",
"-. c #4054A1",
";. c #4256A2",
":. c #4457A2",
">. c #465AA2",
",. c #4458A4",
"<. c #4559A4",
"1. c #485AA1",
"2. c #4B5BA3",
"3. c #495DA4",
"4. c #4B5EA5",
"5. c #495EA7",
"6. c #4E61A8",
"7. c #4F61A9",
"8. c #5062A8",
"9. c #5365A9",
"0. c #5466AA",
"q. c #586AAD",
"w. c #5D6FB0",
"e. c #6264A1",
"r. c #606EAD",
"t. c #6171B1",
"y. c #6172B3",
"u. c #6575B3",
"i. c #6676B4",
"p. c #6A7AB5",
"a. c #6A7AB7",
"s. c #6F7FB9",
"d. c #8F5F86",
"f. c #805E8C",
"g. c #945D80",
"h. c #916185",
"j. c #816290",
"k. c #92769C",
"l. c #98799E",
"z. c #A87390",
"x. c #A47B9A",
"c. c #887CA9",
"v. c #C37181",
"b. c #9787AF",
"n. c #C38293",
"m. c #C18395",
"M. c #D58991",
"N. c #E08284",
"B. c #EB8582",
"V. c #E28789",
"C. c #E79495",
"Z. c #D8A1AA",
"A. c #D8AAB4",
"S. c #D9B2BA",
"D. c #F1A8A6",
"F. c #F1ACA9",
"G. c #E2B8BE",
"H. c #939CC6",
"J. c #9A9CC3",
"K. c #D8BAC5",
"L. c #E4C0C8",
"P. c #E3C4CC",
"I. c #E6CFD7",
"U. c #E0D4DF",
/* pixels */
"                                ",
"                                ",
"                                ",
"v.*.y 4 g q i n r q 9 7 6 2 1 2 ",
"u L.U.A.Z.K.I.J.p.u.t.x.r.9.6.> ",
"h C.B.C V A Z B 2.;.d.M g.W 3.: ",
"a G.D.N.V.F.M.z.;.O.[ d.W z 1.- ",
"&.P.b.m.n.H.S.l. .m $.E l v h.* ",
"p c.%.j.*.+.e.k._ M b U J f X.% ",
"t s.8.5.#.#. ._ / Y P J G D _ # ",
"r a.3.,.#.} ' / E P H F d S ( + ",
"w u.,.-. ._ ! R L H F j k s ! o ",
"9 t.w.q.0.8.3.>.#.X.{ @.c ! T o ",
"q 6 5 1 < , > : - * $ + O o o + ",
"                                ",
"                                "
};
