/* XPM */
static char *om[] = {
/* columns rows colors chars-per-pixel */
"16 16 135 2 ",
"   c None",
".  c #002D00",
"X  c #003100",
"o  c #003300",
"O  c #003700",
"+  c #003D00",
"@  c #003F00",
"#  c #004100",
"$  c #004B00",
"%  c #004F00",
"&  c #005500",
"*  c #910000",
"=  c #930000",
"-  c #9F0000",
";  c #A30000",
":  c #A50000",
">  c #A90000",
",  c #AD0000",
"<  c #B10000",
"1  c #B50000",
"2  c #B90000",
"3  c #BD0000",
"4  c #BF0000",
"5  c #CA1414",
"6  c #CB1919",
"7  c #C91A1A",
"8  c #CB1F1F",
"9  c #CD1F1F",
"0  c #CA2020",
"q  c #CC2525",
"w  c #CF2424",
"e  c #CD2B2B",
"r  c #CE2B2B",
"t  c #D12A2A",
"y  c #D32F2F",
"u  c #CF3030",
"i  c #D03030",
"p  c #D13636",
"a  c #D23636",
"s  c #D43535",
"d  c #D03B3B",
"f  c #D33A3A",
"g  c #D43B3B",
"h  c #D63B3A",
"j  c #D23B3C",
"k  c #D13F3F",
"l  c #D43F3F",
"z  c #D53F3F",
"x  c #D44141",
"c  c #D64040",
"v  c #D64444",
"b  c #D64545",
"n  c #D64646",
"m  c #D74646",
"M  c #D84040",
"N  c #D74B4B",
"B  c #D84949",
"V  c #D84A49",
"C  c #D84A4B",
"Z  c #DA4F4F",
"A  c #DA4F50",
"S  c #DB5353",
"D  c #D85455",
"F  c #DB5454",
"G  c #DA5858",
"H  c #DC5858",
"J  c #DD5959",
"K  c #DB5D5D",
"L  c #DD6162",
"P  c #DE6666",
"I  c #E06A6A",
"U  c #E16F6F",
"Y  c #E27273",
"T  c #E37676",
"R  c #E37777",
"E  c #0B9C0B",
"W  c #0F9E0E",
"Q  c #109E10",
"!  c #13A013",
"~  c #14A114",
"^  c #18A219",
"/  c #19A319",
"(  c #1EA51E",
")  c #1FA51F",
"_  c #23A823",
"`  c #24A824",
"'  c #29AA29",
"]  c #2AAB2A",
"[  c #2CA92C",
"{  c #2FA92F",
"}  c #2EAD2E",
"|  c #2FAD2F",
" . c #32AB32",
".. c #33AC32",
"X. c #35AE35",
"o. c #39AF39",
"O. c #34B034",
"+. c #3AB33A",
"@. c #3DB13D",
"#. c #42B342",
"$. c #46B546",
"%. c #4BB84B",
"&. c #50BA50",
"*. c #EEB0B0",
"=. c #F2BEBE",
"-. c #D7D7D7",
";. c gray85",
":. c #DDDDDD",
">. c #DFDFDF",
",. c #F7D7D7",
"<. c #E1E1E1",
"1. c gray89",
"2. c gray90",
"3. c #E7E7E7",
"4. c #E9E9E9",
"5. c gray92",
"6. c gray93",
"7. c #EFEFEF",
"8. c #F9E1E1",
"9. c #EFEFF1",
"0. c gray96",
"q. c #F6F6F6",
"w. c gray97",
"e. c #FCF0F0",
"r. c #FCF7F7",
"t. c #F8F8F8",
"y. c #F9F9F9",
"u. c #FAFAFA",
"i. c #FBFBFB",
"p. c #FDF9F9",
"a. c #FEFAFA",
"s. c gray99",
"d. c #FDFDFD",
"f. c #FDFDFE",
"g. c #FEFEFE",
/* pixels */
"                                ",
"                                ",
"                                ",
"4 4 4 4 4 9.7.5.7.4.4.3.3.<.<.>.",
"4 e.=.p.T g.s.g.i.i.i.i.i.q.i.:.",
"4 8.p.,.H g.g.g.i.i.w.w.q.q.q.-.",
"4 r.*.p.F g.i.i.i.i.i.w.q.q.q.-.",
"4 T H F A N n x k u r e q 0 k * ",
"4 Y S Z C m x g f u t q 0 6 k * ",
"2 U Z C n M h s y t w 0 6 5 a = ",
"1 P C v z +.X.| ] ` ( / ~ Q ..o ",
"1 P v z g ..[ ] _ ( ^ Q W E { o ",
"< P K G D &.%.$.#.@.o.X. .{ [ . ",
", > : ; ; & & $ # + + O o o . . ",
"                                ",
"                                "
};
