/* XPM */
static char *pa[] = {
/* columns rows colors chars-per-pixel */
"16 16 132 2 ",
"   c None",
".  c #D10000",
"X  c #D50000",
"o  c #D70000",
"O  c #DB0000",
"+  c #DD0000",
"@  c #DF0000",
"#  c #E10000",
"$  c #E30000",
"%  c #E70000",
"&  c #E90000",
"*  c #EB0000",
"=  c #ED0000",
"-  c #E92020",
";  c #EB2525",
":  c #EC2626",
">  c #EC2B2B",
",  c #ED2B2B",
"<  c #ED2C2C",
"1  c #E83231",
"2  c #ED3030",
"3  c #EE3131",
"4  c #EF3636",
"5  c #EF3736",
"6  c #EF3737",
"7  c #EC3F3F",
"8  c #F13B3C",
"9  c #F13C3C",
"0  c #F13C3D",
"q  c #ED4444",
"w  c #E94949",
"e  c #EF4949",
"r  c #F24242",
"t  c #F24A4A",
"y  c #F04E4E",
"u  c #F44F50",
"i  c #F15353",
"p  c #F25757",
"a  c #F35C5C",
"s  c #ED6868",
"d  c #EE6D6D",
"f  c #F46060",
"g  c #F56565",
"h  c #EF7171",
"j  c #EE7E7E",
"k  c #F77070",
"l  c #F07474",
"z  c #F17878",
"x  c #F27D7E",
"c  c #0017DD",
"v  c #001DDF",
"b  c #0025E1",
"n  c #002BE3",
"m  c #0031E5",
"M  c #0037E9",
"N  c #003FEB",
"B  c #0045ED",
"V  c #004BEF",
"C  c #004FF1",
"Z  c #0055F1",
"A  c #005BF3",
"S  c #1B7FF5",
"D  c #4592F0",
"F  c #4995F1",
"G  c #4A96F1",
"H  c #4C96F3",
"J  c #4F99F3",
"K  c #539CF4",
"L  c #549CF4",
"P  c #549DF4",
"I  c #589FF5",
"U  c #599FF5",
"Y  c #5EA1F2",
"T  c #59A0F5",
"R  c #5DA2F6",
"E  c #5EA3F6",
"W  c #62A4F2",
"Q  c #66A6F3",
"!  c #62A5F7",
"~  c #6AA9F5",
"^  c #6FABF6",
"/  c #67A8F8",
"(  c #73AEF7",
")  c #78ADF2",
"_  c #77B1F7",
"`  c #78B1F6",
"'  c #7CB3F7",
"]  c #7AB3F8",
"[  c #7FB6F9",
"{  c #ED8383",
"}  c #EE8C8C",
"|  c #80B6F7",
" . c #83B8F9",
".. c #84B8F8",
"X. c #87BBF9",
"o. c #85B9FA",
"O. c #91C0FB",
"+. c #9DC8FA",
"@. c #B2D3FB",
"#. c #BEDAFB",
"$. c #CBCBCB",
"%. c #CFCDCD",
"&. c gray81",
"*. c gray82",
"=. c LightGray",
"-. c #D7D7D7",
";. c #EFC7C7",
":. c #F1CBCB",
">. c #F2D3D3",
",. c #F2D5D5",
"<. c gray93",
"1. c #EFEFEF",
"2. c #EFEFF1",
"3. c #E3EFFC",
"4. c #E5F1FE",
"5. c #EBF3FE",
"6. c #EDF5FE",
"7. c #F1F1F1",
"8. c gray95",
"9. c #F3F3F3",
"0. c #F4F4F4",
"q. c gray96",
"w. c #F6F6F6",
"e. c gray97",
"r. c gray98",
"t. c #FBFBFB",
"y. c gray99",
"u. c #FDFCFD",
"i. c #FDFDFD",
"p. c #FDFDFE",
"a. c #FEFEFE",
"s. c white",
/* pixels */
"                                ",
"                                ",
"                                ",
"7.7.7.7.7.7.<.<.= * * % $ $ + + ",
"7.s.s.6.5.s.s.t.k g f a p i y O ",
"7.s.5.X.o.3.y.t.i r 0 4 3 < e o ",
"7.s.s.#.@.s.t.t.t 8 4 3 > : q o ",
"7.s.s.t.s.t.t.t.8 4 2 > : - 7 . ",
"S +.X.| | ' _ ) x l h h d s j o ",
"A  .~ ! E I K K t.e.e.e.7.7.0.*.",
"Z [ ! E I L H F e.0.7.} { 7.0.&.",
"C ] E L K K F D 7.e.:.w 1 ;.7.$.",
"C ( ( ( ~ Q W Y e.e.e.,.,.7.7.%.",
"B N M n n b v c -.*.&.&.%.$.$.$.",
"                                ",
"                                "
};
