/* XPM */
static char *pf[] = {
/* columns rows colors chars-per-pixel */
"16 16 134 2 ",
"   c None",
".  c #990000",
"X  c #9B0000",
"o  c #9D0000",
"O  c #9F0000",
"+  c #A30000",
"@  c #A50000",
"#  c #A70000",
"$  c #A90000",
"%  c #AD0000",
"&  c #B10000",
"*  c #B30000",
"=  c #B50000",
"-  c #B70000",
";  c #BB0000",
":  c #BF0000",
">  c #C10000",
",  c #C50000",
"<  c #C70000",
"1  c #C90000",
"2  c #CB0000",
"3  c #CD0000",
"4  c #CF0000",
"5  c #CF0B0B",
"6  c #D10000",
"7  c #D30000",
"8  c #D70000",
"9  c #D00F0E",
"0  c #D21313",
"q  c #D31919",
"w  c #D51E1E",
"e  c #D72323",
"r  c #D32C2C",
"t  c #D42F2F",
"y  c #D62F2F",
"u  c #D82929",
"i  c #DA2C2C",
"p  c #DA2E2E",
"a  c #D53232",
"s  c #D63535",
"d  c #DB3131",
"f  c #DC3434",
"g  c #DD3737",
"h  c #D83939",
"j  c #DD3A3A",
"k  c #D93D3D",
"l  c #DF3C3D",
"z  c #DF3F3F",
"x  c #DB4242",
"c  c #DD4646",
"v  c #DE4949",
"b  c #DD4B4B",
"n  c #DF4E4E",
"m  c #DE5050",
"M  c #E04242",
"N  c #E04444",
"B  c #E14747",
"V  c #E24C4C",
"C  c #E15353",
"Z  c #E45151",
"A  c #E05455",
"S  c #E25757",
"D  c #E55454",
"F  c #E25858",
"G  c #E65959",
"H  c #E35C5C",
"J  c #E25D5D",
"K  c #E65C5C",
"L  c #E75F5F",
"P  c #E36848",
"I  c #D06961",
"U  c #E46060",
"Y  c #E46162",
"T  c #E66565",
"R  c #E76666",
"E  c #E66969",
"W  c #E86D6D",
"Q  c #E87071",
"!  c #E97474",
"~  c #EA7777",
"^  c #EB7979",
"/  c #EB7B7B",
"(  c #EC7B7A",
")  c #E89B51",
"_  c #E8DE59",
"`  c #EBDA62",
"'  c #EED47B",
"]  c #EBE964",
"[  c #EFED70",
"{  c #968296",
"}  c #99869A",
"|  c #BD9182",
" . c #9FB1BF",
".. c #EFE282",
"X. c #EFEE8A",
"o. c #F3F39A",
"O. c #92AFC2",
"+. c #90B4CC",
"@. c #93B6CE",
"#. c #DFDFDF",
"$. c #F9F9C8",
"%. c #FCFCD0",
"&. c #F7F7DF",
"*. c #CADDEB",
"=. c #D1E2EE",
"-. c gray89",
";. c gray90",
":. c #E7E7E7",
">. c #E5EFEC",
",. c gray91",
"<. c #E9E9E9",
"1. c #EBE9E9",
"2. c #FCFCE7",
"3. c #ECF5F2",
"4. c gray95",
"5. c #F3F3F3",
"6. c #F4F4F4",
"7. c #F5F4F4",
"8. c #F4F5F5",
"9. c gray96",
"0. c #F6F5F5",
"q. c #F6F6F6",
"w. c gray97",
"e. c #F8F8F8",
"r. c #F9F9F9",
"t. c gray98",
"y. c #FBFBFB",
"u. c #FBFCFB",
"i. c gray99",
"p. c #FDFCFC",
"a. c #FDFCFD",
"s. c #FDFDFD",
"d. c #FEFDFD",
"f. c #FEFEFE",
/* pixels */
"                                ",
"                                ",
"                                ",
"8 7 7 7 7 7 4 4 2 2 , , > : ; ; ",
"7 / / / ! ! W W E T U J S C n * ",
"7 ( L K K D D V B x l g d i v % ",
"<.f.f.f.y.p.%.' ..$.0.0.0.0.0.:.",
"<.f.f.f.y.2.[ P ) ] 2.0.0.6.0.:.",
"<.f.p.p.p.o.` I | _ X.0.5.5.6.;.",
"<.p.u.u.p.8.O.} { O.>.7.5.5.5.-.",
",.p.u.u.t.r.=.@.+.*.7.5.5.5.5.#.",
", R N z j f i u e w q 0 5 5 y X ",
", Y J F A m b c x k h s a a r X ",
"2 : : ; - - * % $ @ @ + o o X o ",
"                                ",
"                                "
};
