/* XPM */
static char *pg[] = {
/* columns rows colors chars-per-pixel */
"16 16 141 2 ",
"   c None",
".  c black",
"X  c #181919",
"o  c #1E1E1E",
"O  c #211313",
"+  c #232323",
"@  c gray14",
"#  c gray16",
"$  c #2A2A2A",
"%  c gray18",
"&  c #2F2F2F",
"*  c #392F2F",
"=  c #323232",
"-  c #343434",
";  c #353535",
":  c #393939",
">  c gray24",
",  c #4D0000",
"<  c #541F1F",
"1  c #6F0000",
"2  c #6B2F2F",
"3  c #603B3B",
"4  c gray25",
"5  c gray26",
"6  c #444444",
"7  c gray27",
"8  c #464646",
"9  c #464B4B",
"0  c #494949",
"q  c #4B4A4B",
"w  c #4B4B4B",
"e  c #4C4C4C",
"r  c #505050",
"t  c gray33",
"y  c #585858",
"u  c gray36",
"i  c #5D5D5D",
"p  c #605F5F",
"a  c #795C5C",
"s  c #5B6161",
"d  c #616162",
"f  c gray39",
"g  c gray40",
"h  c #6A6A6A",
"j  c #747474",
"k  c #767676",
"l  c #797979",
"z  c gray48",
"x  c #7B7B7A",
"c  c #970F0E",
"v  c #982A2A",
"b  c #DD0000",
"n  c #DF0000",
"m  c #CD1919",
"M  c #E30000",
"N  c #E50000",
"B  c #E70000",
"V  c #E90000",
"C  c #EB0000",
"Z  c #ED0000",
"A  c #EF0000",
"S  c #F10000",
"D  c #F30000",
"F  c #F50000",
"G  c #F70000",
"H  c #F90000",
"J  c #FB0000",
"K  c #FD0000",
"L  c red",
"P  c #F00B0B",
"I  c #F21010",
"U  c #F21414",
"Y  c #F21714",
"T  c #F41F1F",
"R  c #D82C2C",
"E  c #CF3636",
"W  c #F12424",
"Q  c #F52B26",
"!  c #F62B2B",
"~  c #F22F2F",
"^  c #F62C2C",
"/  c #F33232",
"(  c #F73030",
")  c #F43636",
"_  c #F43B3B",
"`  c #F53F3F",
"'  c #F3421A",
"]  c #F37A19",
"[  c #F85E36",
"{  c #F57625",
"}  c #F76931",
"|  c #F9693C",
" . c #9B4646",
".. c #9E5C5C",
"X. c #8D7B7B",
"o. c #D25151",
"O. c #F24241",
"+. c #F64444",
"@. c #FB4747",
"#. c #FB4B47",
"$. c #F74949",
"%. c #F74E4E",
"&. c #FC4B4B",
"*. c #FC4C4C",
"=. c #F85353",
"-. c #FD5151",
";. c #F95757",
":. c #FD5454",
">. c #F35959",
",. c #FA635C",
"<. c #D87B7B",
"1. c #FC6969",
"2. c #FD6D6D",
"3. c #FC7365",
"4. c #FD7071",
"5. c #FE7474",
"6. c #FE7777",
"7. c #FE7979",
"8. c #F4B61F",
"9. c #F58425",
"0. c #F49120",
"q. c #F79030",
"w. c #F6AA2B",
"e. c #F6BC2B",
"r. c #F8BC37",
"t. c #F9CA3C",
"y. c #F7DA31",
"u. c #F8DB36",
"i. c #F9D33D",
"p. c #FA8642",
"a. c #FA8942",
"s. c #FBAD60",
"d. c gray55",
"f. c #909090",
"g. c #9A9A9A",
"h. c #9B9D9D",
"j. c gray61",
"k. c gray69",
"l. c #B1B1B1",
"z. c #BCBDBD",
"x. c #C1C1C1",
/* pixels */
"                                ",
"                                ",
"                                ",
", B L L J L L L J J G G D D Z Z ",
". X.<.7.6.6.4.2.1.3.s.,.;.=.%.C ",
". x d ..>.-.-.*.#.p.i.r.} ^ $.C ",
". x u s a o.*.@.a.t.u.y.w.Q +.B ",
". k t z.j.w  .O.| [ q.e.{ 0.` B ",
". x x.t q k.9 3 E ( ! 9.8.' _ B ",
". j g.w 8 k 5 ; * v W T ] Y ) M ",
". h q 6 8 g.- % $ @ < m Y I / b ",
". g 6 k.d.; % $ + o X O c P ~ b ",
". d i f.d r e 8 5 > : ; = 2 R b ",
". . . . . . . . . . . . . . . 1 ",
"                                ",
"                                "
};
