/* XPM */
static char *ph[] = {
/* columns rows colors chars-per-pixel */
"16 16 158 2 ",
"   c None",
".  c black",
"X  c #000035",
"o  c #00003B",
"O  c #000041",
"+  c #000047",
"@  c #00004D",
"#  c #000053",
"$  c #000059",
"%  c #00005D",
"&  c #000063",
"*  c #000069",
"=  c #00006D",
"-  c #000073",
";  c #000075",
":  c #000079",
">  c #00007D",
",  c #00007F",
"<  c #5F1A73",
"1  c #631F77",
"2  c #67257B",
"3  c #6C2B7E",
"4  c #DD0000",
"5  c #DF0000",
"6  c #E10000",
"7  c #E30000",
"8  c #E50000",
"9  c #E70000",
"0  c #E90000",
"q  c #EB0000",
"w  c #ED0000",
"e  c #EF0000",
"r  c #F10000",
"t  c #F30000",
"y  c #F10B0B",
"u  c #F10F0E",
"i  c #F21010",
"p  c #F21313",
"a  c #F21414",
"s  c #F31919",
"d  c #F41E1E",
"f  c #F41F1F",
"g  c #F52323",
"h  c #F52424",
"j  c #F62929",
"k  c #F62A2A",
"l  c #F22C2C",
"z  c #F22F2F",
"x  c #F72E2E",
"c  c #F72F2F",
"v  c #F23232",
"b  c #F33232",
"n  c #F33535",
"m  c #F43636",
"M  c #F83434",
"N  c #F83535",
"B  c #F43939",
"V  c #F53D3D",
"C  c #F64242",
"Z  c #F74646",
"A  c #F94445",
"S  c #F74B4B",
"D  c #F85050",
"F  c #F95455",
"G  c #F95858",
"H  c #F96566",
"J  c #EFEF1A",
"K  c #FFFF37",
"L  c #F59B49",
"P  c #FDFD53",
"I  c #FCFC5D",
"U  c #FAFA6B",
"Y  c #FEFE73",
"T  c #FCFC77",
"R  c #FDFD7E",
"E  c #000081",
"W  c #00008D",
"Q  c #20209F",
"!  c #2525A2",
"~  c #2626A2",
"^  c #2B2BA5",
"/  c #2C2CA6",
"(  c #3030A8",
")  c #3131A8",
"_  c #3131A9",
"`  c #3636AB",
"'  c #3737AB",
"]  c #3B3BAE",
"[  c #3F3FAD",
"{  c #3C3CAE",
"}  c #3D3CAE",
"|  c #703082",
" . c #743685",
".. c #753B88",
"X. c #4444AF",
"o. c #4141B0",
"O. c #4241B0",
"+. c #4242B1",
"@. c #4747B3",
"#. c #4747B4",
"$. c #4949B1",
"%. c #4B4BB6",
"&. c #4E4EB4",
"*. c #4C4CB6",
"=. c #5151B7",
"-. c #5353B7",
";. c #5454B7",
":. c #5857B9",
">. c #5C5CBB",
",. c #5E5EBD",
"<. c #6160BE",
"1. c #6565C0",
"2. c #6969C2",
"3. c #6D6DC3",
"4. c #7777C3",
"5. c #7171C4",
"6. c #7070C5",
"7. c #7474C7",
"8. c #7777C8",
"9. c #7979C9",
"0. c #A68D96",
"q. c #ADAD97",
"w. c #F9958D",
"e. c #FA8F91",
"r. c #FAAAAD",
"t. c #FBFC8D",
"y. c #FEFEB9",
"u. c #9F9FDA",
"i. c #B2B2E2",
"p. c #FAD1CB",
"a. c #FBEAC1",
"s. c #FCFCC9",
"d. c #EDEDD3",
"f. c #FBFBD3",
"g. c #FDFDD5",
"h. c #FEFED8",
"j. c #FEFEDC",
"k. c #D2D2E7",
"l. c #FBFBE3",
"z. c #FEFEE7",
"x. c #F1F1E8",
"c. c #F5F5E8",
"v. c #F7F7E9",
"b. c #FDFCEA",
"n. c #FBFBEC",
"m. c #F3F3F3",
"M. c #F5F5F3",
"N. c gray96",
"B. c gray97",
"V. c #FAF2F2",
"C. c #FCFCF1",
"Z. c #FEFEF5",
"A. c #F0F0F8",
"S. c #FBFBF9",
"D. c gray98",
"F. c gray99",
"G. c #FCFCFE",
"H. c white",
/* pixels */
"                                ",
"                                ",
"                                ",
"q.W E E > > : ; ; = * & % $ # @ ",
"K d.u.8.7.7.6.3.2.<.<.>.:.=.*.+ ",
"v.H.H.i.,.;.=.%.%.X.} ' _ / $.O ",
"B.Z.j.b.k.5.*.@.X.] ' ( ^ ! X.o ",
"B.g.Y R b.A.4.X.] ' ( ^ ! Q X.X ",
"v.y.P I s.S.U 0. .| 3 2 1 < ... ",
"M.g.T t.n.V.w.N x j h f s p m 7 ",
"m.C.f.l.p.H m x j h f s a i v 5 ",
"x.S.D.r.A M x j h d s p u y z 5 ",
"J a.e.G F D S Z C V B m v z l 5 ",
"L t t w w w q q 9 7 7 7 5 5 4 4 ",
"                                ",
"                                "
};
