/* XPM */
static char *pl[] = {
/* columns rows colors chars-per-pixel */
"16 16 107 2 ",
"   c None",
".  c #DD0000",
"X  c #DF0000",
"o  c #E10000",
"O  c #E30000",
"+  c #E50000",
"@  c #E70000",
"#  c #E90000",
"$  c #EB0000",
"%  c #ED0000",
"&  c #EF0000",
"*  c #F10000",
"=  c #F30000",
"-  c #F50000",
";  c #F70000",
":  c #F90000",
">  c #FB0000",
",  c #FD0000",
"<  c #F10B0B",
"1  c #F10F0E",
"2  c #F21010",
"3  c #F21313",
"4  c #F21414",
"5  c #F31919",
"6  c #F41E1E",
"7  c #F41F1F",
"8  c #F52323",
"9  c #F52424",
"0  c #F62929",
"q  c #F62A2A",
"w  c #F22C2C",
"e  c #F22F2F",
"r  c #F72E2E",
"t  c #F72F2F",
"y  c #F23232",
"u  c #F33232",
"i  c #F33535",
"p  c #F43636",
"a  c #F83434",
"s  c #F83535",
"d  c #F43939",
"f  c #F53D3D",
"g  c #F93A3A",
"h  c #F93B3A",
"j  c #FA3F3F",
"k  c #F64242",
"l  c #F34444",
"z  c #F74646",
"x  c #FA4040",
"c  c #FA4444",
"v  c #FB4545",
"b  c #F44848",
"n  c #F74B4B",
"m  c #F54D4D",
"M  c #FB4949",
"N  c #FB4A49",
"B  c #FC4F4F",
"V  c #F65252",
"C  c #F75657",
"Z  c #F85050",
"A  c #F95455",
"S  c #F45F5F",
"D  c #F95858",
"F  c #F85B5B",
"G  c #FA5D5D",
"H  c #F96060",
"J  c #FB6162",
"K  c #FA6464",
"L  c #FC6666",
"P  c #FB6868",
"I  c #FC6A6A",
"U  c #FC6C6C",
"Y  c #FD6F6F",
"T  c #FC7070",
"R  c #FD7474",
"E  c #FE8E8E",
"W  c #E7D5D5",
"Q  c #E7D7D7",
"!  c #E9D9D9",
"~  c #EBDDDD",
"^  c #EDDFDF",
"/  c #EFE1E1",
"(  c #F1E3E3",
")  c #F3E5E5",
"_  c #F5E7E7",
"`  c #F7E9E9",
"'  c #F9EBEB",
"]  c #FBEDED",
"[  c #FDEDED",
"{  c #FDEFEF",
"}  c #FDEFF1",
"|  c #F4F4F4",
" . c gray96",
".. c #F6F6F6",
"X. c #F7F7F7",
"o. c #FDF1F1",
"O. c #FFF1F1",
"+. c #F8F8F8",
"@. c #F9F9F9",
"#. c gray98",
"$. c #FBFBFB",
"%. c gray99",
"&. c #FDFCFD",
"*. c #FDFDFD",
"=. c #FDFDFE",
"-. c #FEFEFE",
";. c white",
/* pixels */
"                                ",
"                                ",
"                                ",
"O.O.O.O.O.} { ] ] ' ` _ ) ( / ^ ",
"O.;.;.%.;.;.;.%.$.$.$.$.$...$.~ ",
"O.;.;.;.;.$.%.$.$.$.$.X.......Q ",
"O.;.;.;.%.;.$.$.$.X.X.X...| ..Q ",
"O.;.%.%.%.%.$.$.$.X.......| ..Q ",
", E R Y U P K H F C V m b l H O ",
", Y B M v x h s r 0 9 6 5 4 i O ",
", I M v j h i r 0 9 6 5 4 1 y X ",
": K c j h a r 0 9 6 5 4 1 < y X ",
": J G F A Z b M k f d i y e e X ",
"- = = % % % % # + + O O X X . . ",
"                                ",
"                                "
};
