/* XPM */
static char *pm[] = {
/* columns rows colors chars-per-pixel */
"16 16 170 2 ",
"   c None",
".  c #000011",
"X  c #000017",
"o  c #00001B",
"O  c #00001D",
"+  c #000027",
"@  c #000029",
"#  c #00002B",
"$  c #000031",
"%  c #000033",
"&  c #000035",
"*  c #000039",
"=  c #00003D",
"-  c #154F0D",
";  c #256300",
":  c #2F6D03",
">  c #000041",
",  c #000045",
"<  c #000047",
"1  c #000049",
"2  c #00004D",
"3  c #00005D",
"4  c #00005F",
"5  c #000061",
"6  c #000063",
"7  c #000065",
"8  c #000067",
"9  c #00006F",
"0  c #000077",
"q  c #00007B",
"w  c #6C6353",
"e  c #776D5D",
"r  c #615960",
"t  c #615C71",
"y  c #6B6270",
"u  c #6A6474",
"i  c #696476",
"p  c #796F71",
"a  c #990000",
"s  c #D70000",
"d  c #D90000",
"f  c #E30000",
"g  c #E70000",
"h  c #E90000",
"j  c #817358",
"k  c #827B70",
"l  c #D14D5C",
"z  c #D25664",
"x  c #D66571",
"c  c #F16961",
"v  c #EB7D6B",
"b  c #EF7F6B",
"n  c #B7A02A",
"m  c #BCA629",
"M  c #B4A034",
"N  c #B8A336",
"B  c #BBA639",
"V  c #BBAA3D",
"C  c #C2A91D",
"Z  c #C3AC23",
"A  c #CBB728",
"S  c #C0AF36",
"D  c #C6AF37",
"F  c #C6B338",
"G  c #D1BD38",
"H  c #D8C438",
"J  c #DECA3A",
"K  c #E3CC27",
"L  c #EED82B",
"P  c #E3CC32",
"I  c #E3CE34",
"U  c #E7D339",
"Y  c #E7D33F",
"T  c #F1DB36",
"R  c #9B8F5A",
"E  c #BEAE42",
"W  c #BFAF47",
"Q  c #BFAF50",
"!  c #BDAD53",
"~  c #BFAE56",
"^  c #928B7F",
"/  c #9A9176",
"(  c #A49967",
")  c #E08244",
"_  c #CCB845",
"`  c #C0B14D",
"'  c #C1AF52",
"]  c #C5B551",
"[  c #C2B258",
"{  c #CFBF58",
"}  c #D89E68",
"|  c #E48C60",
" . c #F1816D",
".. c #F2887F",
"X. c #DBA366",
"o. c #C8BB72",
"O. c #E4D144",
"+. c #E6D44F",
"@. c #E6D554",
"#. c #E1D059",
"$. c #D6C764",
"%. c #DED173",
"&. c #E2D57A",
"*. c #000083",
"=. c #000085",
"-. c #00008D",
";. c #35379F",
":. c #3C3F9D",
">. c #3334A4",
",. c #3332AE",
"<. c #3638AD",
"1. c #3B3FB2",
"2. c #404198",
"3. c #44459C",
"4. c #4B4C9B",
"5. c #4E4C9E",
"6. c #52529F",
"7. c #615C8A",
"8. c #696690",
"9. c #6D6C9C",
"0. c #4143A3",
"q. c #484AA3",
"w. c #4C4FA9",
"e. c #4E50A3",
"r. c #5A5AA1",
"t. c #5A5AA4",
"y. c #5556A8",
"u. c #5657A9",
"i. c #5355AF",
"p. c #4042B4",
"a. c #4A4CB0",
"s. c #4D4DB0",
"d. c #4A4CB8",
"f. c #504FB7",
"g. c #4C50B8",
"h. c #4F53B8",
"j. c #5759B3",
"k. c #575BB3",
"l. c #595DB6",
"z. c #5151BD",
"x. c #5455BC",
"c. c #5458BC",
"v. c #595ABE",
"b. c #7B7AA8",
"n. c #7878AE",
"m. c #7575BA",
"M. c #7577C7",
"N. c #7778C8",
"B. c #7F80BE",
"V. c #898381",
"C. c #83A281",
"Z. c #F2B9B3",
"A. c #F7BDB3",
"S. c #C9D3D7",
"D. c #D7D3D3",
"F. c #F5C6C1",
"G. c #FACAC1",
"H. c #DBE0E6",
"J. c #DDE1E7",
"K. c #DDE3E8",
"L. c #E1E0E0",
"P. c #E0E0E1",
"I. c #E1E3E3",
"U. c #E2E1E5",
"Y. c #E7E5E6",
"T. c #E7E7E7",
"R. c #E7E8E6",
"E. c #E8E8E5",
"W. c #EEEAE7",
"Q. c #E8E7E8",
/* pixels */
"                                ",
"                                ",
"                                ",
";  .v - -.=.*.0 q 8 8 9 5 8 3 3 ",
" .Q.T.F.N.M.B.&.m.&.n.b.o.k.g.2 ",
"b T.L.Z.v.c.$.#.y.{ 8.5.Q 2.d.1 ",
": G.A.C.x.z.@.+./ O.` 7.H u t.< ",
"D.T.W.J.f.g.9.V.Y U Q L E y [ 1 ",
"I.L.E.J.i.V.r.( T I ` K B j Q > ",
"S.L.E.J.s.[ ' _ k R u t e m 4.= ",
"h Z.c z p.e.J P G F S A Z r ,.$ ",
"f ) ) l 1.<.p D B N M n C w >.# ",
"f } | x l.k.i.y.w.e.q.0.3.:.;.O ",
"f d d a < > * $ & + # + X O . o ",
"                                ",
"                                "
};
