/* XPM */
static char *pn[] = {
/* columns rows colors chars-per-pixel */
"16 16 162 2 ",
"   c None",
".  c #000025",
"X  c #000027",
"o  c #00002B",
"O  c #00002D",
"+  c #00002F",
"@  c #000033",
"#  c #000035",
"$  c #000039",
"%  c #00003B",
"&  c #000041",
"*  c #000045",
"=  c #000047",
"-  c #00004B",
";  c #00004D",
":  c #000053",
">  c #000057",
",  c #00005D",
"<  c #000063",
"1  c #000067",
"2  c #00006D",
"3  c #000073",
"4  c #000077",
"5  c #31497D",
"6  c #335075",
"7  c #477250",
"8  c #4B7553",
"9  c #4B7555",
"0  c #4F7857",
"q  c #507958",
"w  c #547C5C",
"e  c #617348",
"r  c #6A7351",
"t  c #5A7674",
"y  c #C46A79",
"u  c #D5677F",
"i  c #ED6567",
"p  c #ED6771",
"a  c #FD7373",
"s  c #66815A",
"d  c #75825F",
"f  c #77AC5E",
"g  c #598060",
"h  c #7C8964",
"j  c #7C8C7D",
"k  c #7AA975",
"l  c #ACB923",
"z  c #BCBF40",
"x  c #ABB460",
"c  c #000081",
"v  c #2946A4",
"b  c #2E4AA6",
"n  c #314CA3",
"m  c #3750A5",
"M  c #3650A6",
"N  c #3651A6",
"B  c #3953A0",
"V  c #3955A1",
"C  c #3654AC",
"Z  c #3B54A9",
"A  c #3A55AB",
"S  c #3C55A9",
"D  c #3C56A9",
"F  c #415A98",
"G  c #446382",
"H  c #496986",
"J  c #4F6899",
"K  c #506597",
"L  c #5D6E9F",
"P  c #4057A3",
"I  c #4059A1",
"U  c #405EA3",
"Y  c #435BA4",
"T  c #465DAB",
"R  c #4159AC",
"E  c #415AAC",
"W  c #405AAD",
"Q  c #465EAE",
"!  c #465EAF",
"~  c #5953B9",
"^  c #7F5DAB",
"/  c #4D64A1",
"(  c #4E64A9",
")  c #4860AE",
"_  c #4C65AF",
"`  c #5467A7",
"'  c #546EAE",
"]  c #4A62B1",
"[  c #4C63B1",
"{  c #4D66B2",
"}  c #4966B6",
"|  c #4F67B4",
" . c #4D6AB9",
".. c #5068B2",
"X. c #556CB4",
"o. c #546CB7",
"O. c #586EB7",
"+. c #5A6FB7",
"@. c #596FB8",
"#. c #5C72BB",
"$. c #5E74B9",
"%. c #7B69BF",
"&. c #6276B6",
"*. c #667BB7",
"=. c #6277BB",
"-. c #667BBE",
";. c #7976B9",
":. c #1B39C7",
">. c #3B5DDB",
",. c #5F71DF",
"<. c #6361CB",
"1. c #6A7FC0",
"2. c #697DC2",
"3. c #516FE7",
"4. c #4F71E7",
"5. c #AE6185",
"6. c #C16481",
"7. c #C36387",
"8. c #CC6E84",
"9. c #659486",
"0. c #6DA092",
"q. c #6E82C2",
"w. c #6F83C2",
"e. c #7387C4",
"r. c #7389C7",
"t. c #7782CE",
"y. c #878D9E",
"u. c #8E9393",
"i. c #FE8986",
"p. c #F89597",
"a. c #FE9897",
"s. c #F79999",
"d. c #FEA19E",
"f. c #FDA29F",
"g. c #DB9EAB",
"h. c #DDA2B4",
"j. c #FDA9A4",
"k. c #F0A2AB",
"l. c #EAB1BB",
"z. c #EAB8BE",
"x. c #F5B3B6",
"c. c #9B8ECA",
"v. c #A298CF",
"b. c #8492E1",
"n. c #889AE6",
"m. c #99A4E8",
"M. c #9BB0ED",
"N. c #B5B3E3",
"B. c #AEBFF5",
"V. c #CAB5D7",
"C. c #FDCECE",
"Z. c #FED0D1",
"A. c #FCD8D5",
"S. c #D7CEE8",
"D. c #D6CFE8",
"F. c #CED3F3",
"G. c #CED7F7",
"H. c #FEE1E0",
"J. c #FAE2E4",
"K. c #F0E0E8",
"L. c #F7E5E9",
"P. c #FFEEEE",
/* pixels */
"                                ",
"                                ",
"                                ",
"<.s.,.%.i >.^ 7.:.4 2 1 < , > : ",
"3.G.P.S.A.S.K.B.m.q.2.*.&.#.@.- ",
"p J.C.d.i.j.x.k.6.{ ` J y.V ' * ",
"u L.Z.a.a d.l.h.5.( f t u.d k & ",
"4.F.H.V.p.N.g.M.t.U H r e s L % ",
"~ z.n.v.8.b.c.y ;.D F w 9.0 T @ ",
"c r.@. .} [ R C A V G 9 0.9 K O ",
"4 e.o.| [ Q R D M b l 7 7 7 x o ",
"3 q.| ] Q R A M n v x v l v x . ",
"2 2.-.=.=.+.X..._ ) T Y n V m . ",
"< < , > : ; * & % % @ O X X . . ",
"                                ",
"                                "
};
