/* XPM */
static char *pr[] = {
/* columns rows colors chars-per-pixel */
"16 16 157 2 ",
"   c None",
".  c #810000",
"X  c #830000",
"o  c #850000",
"O  c #870000",
"+  c #890000",
"@  c #8D0000",
"#  c #8F0000",
"$  c #910000",
"%  c #970000",
"&  c #9B0000",
"*  c #9D0000",
"=  c #9F0000",
"-  c #A10000",
";  c #A50000",
":  c #A70000",
">  c #A90000",
",  c #AB0000",
"<  c #AD0000",
"1  c #A30009",
"2  c #B10000",
"3  c #B50000",
"4  c #B90000",
"5  c #BB0000",
"6  c #BD0000",
"7  c #BF0000",
"8  c #C10000",
"9  c #C70000",
"0  c #CF0000",
"q  c #C31A1A",
"w  c #C51F1F",
"e  c #C72525",
"r  c #C92B2B",
"t  c #CB3030",
"y  c #CB3333",
"u  c #CD3536",
"i  c #CE3639",
"p  c #CB3B3B",
"a  c #CE3939",
"s  c #D13030",
"d  c #D13C3C",
"f  c #D03D3D",
"g  c #D14141",
"h  c #D34141",
"j  c #D34545",
"k  c #D44646",
"l  c #D44A4A",
"z  c #D64B4B",
"x  c #D64E4E",
"c  c #D35353",
"v  c #D75252",
"b  c #D55656",
"n  c #D85050",
"m  c #D85353",
"M  c #D95557",
"N  c #D85656",
"B  c #DF5D57",
"V  c #D75858",
"C  c #D65A5A",
"Z  c #DA5B5B",
"A  c #D85E5E",
"S  c #CC5A6D",
"D  c #D95D62",
"F  c #DA6363",
"G  c #DC6060",
"H  c #DD6464",
"J  c #DB6768",
"K  c #D86B6B",
"L  c #DE6868",
"P  c #DF6C6C",
"I  c #D86B73",
"U  c #E16F6F",
"Y  c #E27374",
"T  c #E37776",
"R  c #E87E79",
"E  c #0000D5",
"W  c #0000D9",
"Q  c #0000F7",
"!  c #0000F9",
"~  c #0000FB",
"^  c #0000FD",
"/  c blue",
"(  c #4040FA",
")  c #4444FA",
"_  c #4545FB",
"`  c #4946FB",
"'  c #4A46FB",
"]  c #4949FB",
"[  c #4D4EFA",
"{  c #4B4BFC",
"}  c #5451FC",
"|  c #5859FE",
" . c #5F5DFD",
".. c #5F5FFE",
"X. c #6851E0",
"o. c #5D60FD",
"O. c #7F6BE8",
"+. c #6D61F0",
"@. c #6866FC",
"#. c #6C68FE",
"$. c #706AFC",
"%. c #7874FB",
"&. c #7979FE",
"*. c #7E7AFD",
"=. c #7D7BFF",
"-. c #9C3D83",
";. c #A45FA3",
":. c #A45DA7",
">. c #AA68AA",
",. c #B77BB8",
"<. c #E37D80",
"1. c #857BF5",
"2. c #D9BFBF",
"3. c #8F8FFE",
"4. c #918DFD",
"5. c #D9C9C9",
"6. c #E5CDCD",
"7. c #E3D1D1",
"8. c #C2C0FC",
"9. c #C5C3FE",
"0. c #D2D1FE",
"q. c #D8D9F9",
"w. c #DDDBFC",
"e. c #DFDFFD",
"r. c #E9DDEC",
"t. c #F0ECEC",
"y. c #F1EDED",
"u. c #F1EEEE",
"i. c #F2EEEE",
"p. c #F0E6F2",
"a. c #F3F0F0",
"s. c gray95",
"d. c #F3F3F3",
"f. c #F4F1F1",
"g. c #F6F3F3",
"h. c #F4F4F4",
"j. c gray96",
"k. c #F6F5F5",
"l. c #F6F6F6",
"z. c #F7F6F6",
"x. c #F7F7F6",
"c. c gray97",
"v. c #F8F4F4",
"b. c #F9F5F5",
"n. c #FAF6F6",
"m. c #FAF7F7",
"M. c #F8F8F7",
"N. c #F5F7F8",
"B. c #F8F8F8",
"V. c #F9F9F9",
"C. c #FBF8F8",
"Z. c gray98",
"A. c #FBFBFB",
"S. c #FCF8F8",
"D. c #FDFAF9",
"F. c #F9FAFC",
"G. c #FBFBFD",
/* pixels */
"                                ",
"                                ",
"                                ",
"W 1 0 9 8 6 6 5 5 3 2 2 < > : : ",
"/ 1.,.R R T Y U U U U D Z b n = ",
"/ =...O.p.F.S.S.v.v.f.v.x.x.g.6.",
"/ &.#.| ..e.F.F.b.n.B.N.x.x.x.7.",
"/ 3.0.4...] >.S m n l j g f V = ",
"/ 9.G.w.} ` ( -.i s r e w q p . ",
"~ =.8.%.` ( ;.I H H D V b c K - ",
"~ $.] ) [ q.x.N.x.x.d.d.a.a.d.5.",
"~ @.) X.r.M.x.x.f.a.i.i.u.t.i.2.",
"Q +.:.D B m x l j g f a u u t . ",
"E o 5 > - = & % $ $ @ + . o . o ",
"                                ",
"                                "
};
