/* XPM */
static char *pt[] = {
/* columns rows colors chars-per-pixel */
"16 16 145 2 ",
"   c None",
".  c #000B00",
"X  c #000D00",
"o  c #001300",
"O  c #001900",
"+  c #002100",
"@  c #002B00",
"#  c #003300",
"$  c #003500",
"%  c #003B00",
"&  c #003F00",
"*  c #004500",
"=  c #004B00",
"-  c #004D00",
";  c #004F00",
":  c #005900",
">  c #DD0000",
",  c #DF0000",
"<  c #E10000",
"1  c #E30000",
"2  c #E50000",
"3  c #E70000",
"4  c #E90000",
"5  c #EB0000",
"6  c #ED0000",
"7  c #EF0000",
"8  c #F10000",
"9  c #F30000",
"0  c #F50000",
"q  c #F70000",
"w  c #F90000",
"e  c #FB0000",
"r  c #FD0000",
"t  c #F10B0B",
"y  c #F10F0E",
"u  c #F21010",
"i  c #F21313",
"p  c #F21414",
"a  c #F31919",
"s  c #F31A1A",
"d  c #F41E1E",
"f  c #F41F1F",
"g  c #F42020",
"h  c #F52323",
"j  c #F52424",
"k  c #F52525",
"l  c #F52626",
"z  c #F62B2B",
"x  c #F32F2A",
"c  c #F22C2C",
"v  c #F22F2F",
"b  c #F62C2C",
"n  c #F72E2E",
"m  c #F33529",
"M  c #F23232",
"N  c #F33232",
"B  c #F73030",
"V  c #F73131",
"C  c #F33535",
"Z  c #F43636",
"A  c #F83736",
"S  c #F83737",
"D  c #F53C36",
"F  c #F43939",
"G  c #F43B3B",
"H  c #F53D3D",
"J  c #F53F3F",
"K  c #F93C3C",
"L  c #F93C3D",
"P  c #F04130",
"I  c #EA692A",
"U  c #F64242",
"Y  c #F64444",
"T  c #F74646",
"R  c #FA4242",
"E  c #F74949",
"W  c #F74B4B",
"Q  c #F74E4E",
"!  c #FB5347",
"~  c #F85353",
"^  c #F95757",
"/  c #FA5C5C",
"(  c #F4674C",
")  c #E8764B",
"_  c #EF7051",
"`  c #ED765B",
"'  c #E77858",
"]  c #FB6060",
"[  c #FC6565",
"{  c #FC6969",
"}  c #FD6D6D",
"|  c #E67860",
" . c #FD7071",
".. c #3A843A",
"X. c #3F8A3F",
"o. c #419134",
"O. c #448E44",
"+. c #499149",
"@. c #4F944F",
"#. c #539145",
"$. c #509550",
"%. c #539653",
"&. c #549655",
"*. c #589958",
"=. c #5C9D5C",
"-. c #5D9D5D",
";. c #5F9F5F",
":. c #69A25C",
">. c #619F62",
",. c #66A366",
"<. c #6AA56A",
"1. c #6FA86F",
"2. c #72AA73",
"3. c #74AE74",
"4. c #76AD76",
"5. c #77AD77",
"6. c #79AE79",
"7. c #7BB07A",
"8. c #7BB07B",
"9. c #E7A332",
"0. c #E9AF37",
"q. c #EEBA36",
"w. c #F0B83D",
"e. c #D9C23C",
"r. c #E0C830",
"t. c #E1C939",
"y. c #9AB349",
"u. c #9BB559",
"i. c #ADBB40",
"p. c #BFB946",
"a. c #F18151",
"s. c #F3AB47",
"d. c #F5AC4C",
"f. c #EFB142",
"g. c #EA8376",
"h. c #CEC84F",
"j. c #C7C854",
"k. c #CAC854",
"l. c #DAD359",
"z. c #E9CC55",
"x. c #F9C151",
"c. c #E6D0D4",
"v. c #EEDDDD",
"b. c #F5DBD4",
"n. c #D6E8FA",
/* pixels */
"                                ",
"                                ",
"                                ",
": - - - - ; r r e e q q 9 9 6 6 ",
"= 8.8.6.6.4. .} { [ ] / ^ ~ Q 5 ",
"- 8.=.:.u.j.x.d.! R L A V b E 5 ",
"- 6.=.l.z._ ( s.f.L A B z l Y 2 ",
"= 4.*.k.a.b.c.` w.D B z l g J 2 ",
"* 2.%.k.) v.n.| q.P z l d a J 2 ",
"* 1.@.y.p.' g.t.r.x l d a i Z 2 ",
"% <.+.#.i.e.0.9.I l d a p u N , ",
"# ,.O.X...o.V m g g a i y t v , ",
"@ ,.=.*.&.$.E Y U J F C N v v > ",
"# O O o . X 5 5 5 2 < < , , > > ",
"                                ",
"                                "
};
