/* XPM */
static char *pw[] = {
/* columns rows colors chars-per-pixel */
"16 16 151 2 ",
"   c None",
".  c #FFFC00",
"X  c #FFFC03",
"o  c #FFFC04",
"O  c #FEFC05",
"+  c #FCFA12",
"@  c #FDFB16",
"#  c #FEFC1A",
"$  c #FEFC1E",
"%  c #F2F726",
"&  c #F8F721",
"*  c #F2F82A",
"=  c #F1F536",
"-  c #FBFA34",
";  c #DBEB45",
":  c #C4E15B",
">  c #DDED53",
",  c #C4E261",
"<  c #CAE87F",
"1  c #0029DD",
"2  c #002BDD",
"3  c #002FDD",
"4  c #002FDF",
"5  c #0031DF",
"6  c #0033DF",
"7  c #0039DD",
"8  c #0035E1",
"9  c #0037E3",
"0  c #003BE3",
"q  c #003DE5",
"w  c #003FE5",
"e  c #0041E7",
"r  c #0047E7",
"t  c #0045E9",
"y  c #004BEB",
"u  c #004DE9",
"i  c #004FEB",
"p  c #0051ED",
"a  c #0059ED",
"s  c #005DEF",
"d  c #005FEF",
"f  c #0061EF",
"g  c #0063F1",
"h  c #0067F3",
"j  c #0069F3",
"k  c #006DF5",
"l  c #0071F7",
"z  c #0077F5",
"x  c #0075F9",
"c  c #0079F9",
"v  c #0079FB",
"b  c #007BFB",
"n  c #007DFD",
"m  c #75C1A3",
"M  c #78C3A1",
"N  c #7BC6B2",
"B  c #0081FD",
"V  c #0083FD",
"C  c #0087FD",
"Z  c #0087FF",
"A  c #0089FD",
"S  c #0089FF",
"D  c #0B95F1",
"F  c #0F97F1",
"G  c #0093FF",
"H  c #1097F2",
"J  c #1399F2",
"K  c #1499F2",
"L  c #149AF2",
"P  c #189BF3",
"I  c #199CF3",
"U  c #1A9CF3",
"Y  c #1F9BF4",
"T  c #1E9DF4",
"R  c #1F9EF4",
"E  c #1F9FF4",
"W  c #209FF4",
"Q  c #2BA4EE",
"!  c #3CACE5",
"~  c #25A0F5",
"^  c #25A2F5",
"/  c #26A2F5",
"(  c #2CA2F2",
")  c #2FA4F2",
"_  c #2BA4F6",
"`  c #2BA5F6",
"'  c #2CA6F6",
"]  c #32A5F3",
"[  c #33A6F3",
"{  c #35A8F3",
"}  c #37ABF2",
"|  c #31A8F7",
" . c #31A9F7",
".. c #36A8F4",
"X. c #39A9F4",
"o. c #3BAAF5",
"O. c #3DABF5",
"+. c #3FADF5",
"@. c #37A8F8",
"#. c #37ABF8",
"$. c #3AAAF9",
"%. c #3DADF9",
"&. c #3FAEFA",
"*. c #42ABF6",
"=. c #44AFF6",
"-. c #42AEFA",
";. c #47B0F6",
":. c #49B2F7",
">. c #4BB2F7",
",. c #4EB4F7",
"<. c #4EB6F7",
"1. c #44B1FA",
"2. c #45B0FB",
"3. c #49B4FB",
"4. c #4FB6FC",
"5. c #59BBF2",
"6. c #50B3F8",
"7. c #53B7F8",
"8. c #54B7F9",
"9. c #53B8FD",
"0. c #58B9F9",
"q. c #58BBF9",
"w. c #5CBBFA",
"e. c #5DBCFA",
"r. c #58B9FE",
"t. c #59BAFE",
"y. c #58BBFE",
"u. c #5CBDFE",
"i. c #5CBEFE",
"p. c #5FBFFE",
"a. c #61BEFB",
"s. c #69BFFC",
"d. c #65C0FC",
"f. c #66C0FC",
"g. c #6AC3FC",
"h. c #6DC3FD",
"j. c #6FC4FD",
"k. c #70C4FE",
"l. c #72C6FE",
"z. c #74C4FE",
"x. c #76C8FE",
"c. c #77C8FE",
"v. c #79C8FE",
"b. c #79C9FE",
"n. c #7BCAFF",
"m. c #9ED58E",
"M. c #A7DA99",
"N. c #84CAB2",
"B. c #85CCBD",
"V. c #C9E983",
"C. c #8BCFC7",
/* pixels */
"                                ",
"                                ",
"                                ",
"G S S S S B B n b x l k h g s f ",
"Z n.n.n.x.z.j.h.g.d.a.e.0.7.,.i ",
"S n.p.u.r.C.V.V.B.-.%... .' :.i ",
"S n.u.r.M.$ . # - N.@.| _ / =.r ",
"Z x.r.q.* . . . @ > } _ / W +.e ",
"Z z.9.5.X X X X O = ! W W U O.q ",
"B j.4.7.% X X X + ; Q W T K { 9 ",
"b g.3.-.m.@ X + & m W P K H { 5 ",
"b s.1.%.o.N , : m Y P H F D ) 4 ",
"k a.e.0.8.6.:.:.*.O.X.{ ] ) ) 1 ",
"z j g f a p y t e q 0 9 5 4 1 7 ",
"                                ",
"                                "
};
