/* XPM */
static char *qa[] = {
/* columns rows colors chars-per-pixel */
"16 16 108 2 ",
"   c None",
".  c black",
"X  c #050000",
"o  c #0D0000",
"O  c #130000",
"+  c #170000",
"@  c #1B0000",
"#  c #210000",
"$  c #250000",
"%  c #570D05",
"&  c #5A1A11",
"*  c #5E1D15",
"=  c #5E1D16",
"-  c #60221A",
";  c #60221B",
":  c #62221B",
">  c #64261F",
",  c #64271F",
"<  c #642720",
"1  c #682B24",
"2  c #682C25",
"3  c #682D25",
"4  c #692D26",
"5  c #6C3129",
"6  c #6C322A",
"7  c #6D322B",
"8  c #6D332C",
"9  c #70362E",
"0  c #70362F",
"q  c #70372F",
"w  c #703731",
"e  c #703831",
"r  c #713831",
"t  c #723932",
"y  c #723B34",
"u  c #723B35",
"i  c #743B34",
"p  c #743C34",
"a  c #743C35",
"s  c #753C36",
"d  c #753D36",
"f  c #753E37",
"g  c #753F37",
"h  c #763E37",
"j  c #77413B",
"k  c #784139",
"l  c #78413A",
"z  c #79423A",
"x  c #78423B",
"c  c #79423C",
"v  c #79433C",
"b  c #7A433D",
"n  c #7A453F",
"m  c #7C473F",
"M  c #7B4640",
"N  c #7D4740",
"B  c #7D4741",
"V  c #7D4842",
"C  c #7C4942",
"Z  c #7E4842",
"A  c #7F4B45",
"S  c #7F4D46",
"D  c #814C45",
"F  c #814D47",
"G  c #825049",
"H  c #83514B",
"J  c #85524B",
"K  c #85524D",
"L  c #84544E",
"P  c #865550",
"I  c #885750",
"U  c #895751",
"Y  c #8A5953",
"T  c #8C5B55",
"R  c #8C5D58",
"E  c #8F615C",
"W  c #926661",
"Q  c #936661",
"!  c #966A65",
"~  c #996E6A",
"^  c #996F6A",
"/  c #9C736D",
"(  c #9E7670",
")  c #A07773",
"_  c #A17975",
"`  c #A6807C",
"'  c #E3E3E1",
"]  c #E7E5E5",
"[  c #E9E7E7",
"{  c #EBE9E9",
"}  c #EFEDEB",
"|  c #F1EFED",
" . c #F1EFEF",
".. c #F1F1F1",
"X. c #F3F1F1",
"o. c #F5F3F3",
"O. c #F5F5F3",
"+. c #F7F5F5",
"@. c #F9F5F5",
"#. c #F8F8F8",
"$. c #F9F9F9",
"%. c gray98",
"&. c #FBFBFB",
"*. c #FBFCFB",
"=. c gray99",
"-. c #FDFDFD",
";. c #FEFEFE",
":. c white",
/* pixels */
"                                ",
"                                ",
"                                ",
"@.+.+.+.O.% $ # @ O o X . . . . ",
"@.:.:.&.:.:._ ( / ^ ! Q E R Y . ",
"+.:.:.:.:._ T U K D Z v h t L . ",
"+.:.:.:.:.:.P J F Z j h t 8 G . ",
"+.:.:.&.&.( J D B v h t 7 4 A . ",
"o.:.=.&.%.%.D m x h e 7 4 < M . ",
"X.=.=.&.%.^ m x h 8 5 3 < : x . ",
"X.*.&.&.&.$.j i 0 5 1 > : = h . ",
"| =.&.&.$.Q h 0 7 1 > - = & u . ",
"| &.&.&.&.#.L G S Z n j h u t . ",
"} { ] ] ' + . . . . . . . . . . ",
"                                ",
"                                "
};
