/* XPM */
static char *ro[] = {
/* columns rows colors chars-per-pixel */
"16 16 152 2 ",
"   c None",
".  c #DD0000",
"X  c #DF0000",
"o  c #E10000",
"O  c #E30000",
"+  c #E50000",
"@  c #E70000",
"#  c #E90000",
"$  c #EB0000",
"%  c #ED0000",
"&  c #EF0000",
"*  c #F10000",
"=  c #F30000",
"-  c #F50000",
";  c #F10B0B",
":  c #F10F0E",
">  c #F21010",
",  c #F21313",
"<  c #F21414",
"1  c #F31919",
"2  c #F31A1A",
"3  c #F41F1F",
"4  c #F42020",
"5  c #F52525",
"6  c #F52626",
"7  c #F62B2B",
"8  c #F22C2C",
"9  c #F22F2F",
"0  c #F62C2C",
"q  c #F23232",
"w  c #F33232",
"e  c #F73131",
"r  c #F33535",
"t  c #F43636",
"y  c #F83737",
"u  c #F43B3B",
"i  c #F53F3F",
"p  c #F64444",
"a  c #F74949",
"s  c #F74E4E",
"d  c #F85353",
"f  c #F95757",
"g  c #FA5C5C",
"h  c #E3A900",
"j  c #E5B900",
"k  c #E7BD00",
"l  c #E9BD00",
"z  c #EBC100",
"x  c #EFDD00",
"c  c #F7D500",
"v  c #F3DD00",
"b  c #F5DF00",
"n  c #F7E100",
"m  c #F7E300",
"M  c #F3E319",
"N  c #F4E51F",
"B  c #F4F41E",
"V  c #F5E624",
"C  c #F6E82B",
"Z  c #F5F523",
"A  c #F5F524",
"S  c #F6F629",
"D  c #F6F62A",
"F  c #F7F72E",
"G  c #F7F72F",
"H  c #F7E930",
"J  c #F8EA36",
"K  c #F4E739",
"L  c #F9EC3D",
"P  c #F7F730",
"I  c #F8F834",
"U  c #F8F835",
"Y  c #F8F836",
"T  c #F0F03A",
"R  c #F5F53D",
"E  c #F9F93A",
"W  c #F9F93B",
"Q  c #F9F93C",
"!  c #F1F140",
"~  c #F6F642",
"^  c #F2F246",
"/  c #F7F746",
"(  c #FAFA40",
")  c #FAFA41",
"_  c #FAFA42",
"`  c #FBFB46",
"'  c #FBFB47",
"]  c #F3F34B",
"[  c #F7F74B",
"{  c #FCFC4B",
"}  c #FCFC4C",
"|  c #F4F450",
" . c #F2F255",
".. c #F5F556",
"X. c #FDFD51",
"o. c #F6F65A",
"O. c #FBF060",
"+. c #FCFC65",
"@. c #FCFC69",
"#. c #FDFD6D",
"$. c #FDFD71",
"%. c #F8F878",
"&. c #0000A9",
"*. c #0000AB",
"=. c #0000AD",
"-. c #0000AF",
";. c #0000B3",
":. c #0000B5",
">. c #0000B7",
",. c #0007BB",
"<. c #000DBD",
"1. c #0013BF",
"2. c #0019C1",
"3. c #0019C3",
"4. c #001DC3",
"5. c #001DC5",
"6. c #001DC9",
"7. c #002BC7",
"8. c #3F6BD5",
"9. c #3A68D8",
"0. c #446FD6",
"q. c #406CD9",
"w. c #4570D7",
"e. c #4571DB",
"r. c #4974D8",
"t. c #4974D9",
"y. c #4B75DD",
"u. c #4F78DA",
"i. c #4F78DB",
"p. c #537CDB",
"a. c #5079DE",
"s. c #547CDC",
"d. c #547CDD",
"f. c #547DDF",
"g. c #587FDA",
"h. c #5D83DB",
"j. c #5880DC",
"k. c #5880DD",
"l. c #5C83DE",
"z. c #5F85DF",
"x. c #6186DD",
"c. c #668ADE",
"v. c #5981E0",
"b. c #6A8EE0",
"n. c #6F91E0",
"m. c #7294E2",
"M. c #7697E3",
"N. c #7798E7",
"B. c #7999E4",
"V. c #7999E5",
"C. c #7B9AE4",
"Z. c #7B9BE4",
/* pixels */
"                                ",
"                                ",
"                                ",
"7.4.4.5.6.x n n n v c - = = % % ",
"3.Z.Z.Z.N.%.$.#.@.+.O.g f d s $ ",
"4.Z.z.l.v.o.X.} ' ) L y e 0 a $ ",
"4.B.l.k.f.o.{ ` ) Q J e 7 6 p + ",
"3.M.g.s.i.| ` ) Q Y H 7 6 4 i + ",
"1.m.p.i.y.] ) Q Y P C 6 3 1 u + ",
"<.n.i.r.e.^ E I P D V 3 1 , t + ",
",.b.r.w.q.! I F D A N 1 , , w X ",
">.c.0.8.9.T F D A B M , : ; 9 X ",
";.x.h.g.s. .[ / ~ R K r w 9 9 . ",
">.=.&.&.=.k z l k j h o X X . . ",
"                                ",
"                                "
};
