/* XPM */
static char *rs[] = {
/* columns rows colors chars-per-pixel */
"16 16 119 2 ",
"   c None",
".  c #001A6C",
"X  c #001D76",
"o  c #001D78",
"O  c #001E7A",
"+  c #BF0000",
"@  c #C10000",
"#  c #C30000",
"$  c #C50000",
"%  c #C70000",
"&  c #C90000",
"*  c #CB0000",
"=  c #CD0000",
"-  c #D00000",
";  c #D20000",
":  c #D50000",
">  c #D70000",
",  c #D90000",
"<  c #DA0000",
"1  c #DB0000",
"2  c #DD0000",
"3  c #E00000",
"4  c #E10000",
"5  c #E20000",
"6  c #E40000",
"7  c #C43C3F",
"8  c #D03131",
"9  c #D23131",
"0  c #D33232",
"q  c #D43232",
"w  c #D53232",
"e  c #D63232",
"r  c #D73232",
"t  c #D73333",
"y  c #D83333",
"u  c #D93333",
"i  c #DB3434",
"p  c #DD3434",
"a  c #D2353B",
"s  c #E53636",
"d  c #E73636",
"f  c #E93737",
"g  c #EB3737",
"h  c #C83D41",
"j  c #CD3E42",
"k  c #CE3E43",
"l  c #D03F43",
"z  c #D03F45",
"x  c #D54145",
"c  c #D8574E",
"v  c #D9584F",
"b  c #DC5950",
"n  c #DE5A51",
"m  c #E05B51",
"M  c #E35C52",
"N  c #E55D53",
"B  c #E75E54",
"V  c #E95F55",
"C  c #EB6056",
"Z  c #ED6156",
"A  c #F06257",
"S  c #F36357",
"D  c #F56458",
"F  c #F56459",
"G  c #F56559",
"H  c #F5665A",
"J  c #E57E54",
"K  c #D15D60",
"L  c #D25E61",
"P  c #CE6E72",
"I  c #D07174",
"U  c #D77779",
"Y  c #DD7A7C",
"T  c #E88055",
"R  c #F5F576",
"E  c #F5F577",
"W  c #005496",
"Q  c #005497",
"!  c #005597",
"~  c #005598",
"^  c #005699",
"/  c #00569A",
"(  c #00569B",
")  c #00569C",
"_  c #00579C",
"`  c #00579E",
"'  c #00599F",
"]  c #005AA1",
"[  c #005AA2",
"{  c #005BA4",
"}  c #005CA4",
"|  c #005DA7",
" . c #3073A4",
".. c #3073A5",
"X. c #347EB3",
"o. c #357FB6",
"O. c #3682B8",
"+. c #EDA3A4",
"@. c #EEB8B8",
"#. c #F1BABA",
"$. c #EBC2C3",
"%. c #EDC3C4",
"&. c #E9CCCE",
"*. c #F0C7C7",
"=. c #EDD0D1",
"-. c gray90",
";. c #E6E6E6",
":. c #E7E7E7",
">. c #E9E9E9",
",. c gray92",
"<. c gray93",
"1. c #EFEFEF",
"2. c #F0F0F0",
"3. c #F1F1F1",
"4. c gray95",
"5. c #F3F3F3",
"6. c #F5F1F1",
"7. c #F4F4F4",
"8. c gray96",
/* pixels */
"                                ",
"                                ",
"                                ",
"6 3 3 2 < < : : ; ; ; = * * $ $ ",
"3 H D D S S Z Z V V N N m n n @ ",
"2 H f f a J J z p y y w w 0 v @ ",
"2 S d d x R R j y y w w 0 0 c + ",
"O O.| | +.l j @.] ~ ) ~ Q ~ ... ",
"o o.{ [ $.8.5.*.) ~ ~ ~ ~ Q ... ",
"o X.] ] Y L v U ~ ~ ~ ~ ~ Q  .. ",
"8.8.8.8.h %.$.7 8.4.4.3.3.1.8.-.",
"8.8.8.8.=.I P &.4.3.3.3.1.1.3.-.",
"1.8.8.8.8.8.8.3.5.3.3.3.3.3.3.-.",
"<.<.:.:.>.-.-.-.-.-.-.-.-.-.-.-.",
"                                ",
"                                "
};
