/* XPM */
static char *ru[] = {
/* columns rows colors chars-per-pixel */
"16 16 136 2 ",
"   c None",
".  c #7B0000",
"X  c #B30000",
"o  c #DD0000",
"O  c #DF0000",
"+  c #E10000",
"@  c #E30000",
"#  c #E50000",
"$  c #E70000",
"%  c #E90000",
"&  c #EB0000",
"*  c #ED0000",
"=  c #EF0000",
"-  c #F10000",
";  c #F30000",
":  c #F50000",
">  c #F70000",
",  c #F90000",
"<  c #F10B0B",
"1  c #F10F0E",
"2  c #F21313",
"3  c #F31919",
"4  c #F41E1E",
"5  c #F52323",
"6  c #F62929",
"7  c #F22C2C",
"8  c #F22F2F",
"9  c #F72E2E",
"0  c #F23232",
"q  c #F33535",
"w  c #F83434",
"e  c #F43939",
"r  c #F53D3D",
"t  c #F93A3A",
"y  c #FA3F3F",
"u  c #BD1043",
"i  c #BF1446",
"p  c #C2194B",
"a  c #C41F4F",
"s  c #C62453",
"d  c #C82A58",
"f  c #CA2F5D",
"g  c #C8325E",
"h  c #CC3461",
"j  c #CE3A66",
"k  c #D03F6A",
"l  c #F64242",
"z  c #F74646",
"x  c #FA4444",
"c  c #F74B4B",
"v  c #F85050",
"b  c #F95455",
"n  c #F95858",
"m  c #FA5D5D",
"M  c #D1456E",
"N  c #D34972",
"B  c #FB6162",
"V  c #FC6666",
"C  c #0000E3",
"Z  c #0000E5",
"A  c #0000E7",
"S  c #0000FD",
"D  c #1414F2",
"F  c #1919F3",
"G  c #1A1AF3",
"H  c #1F1FF4",
"J  c #2020F4",
"K  c #2424F5",
"L  c #2525F5",
"P  c #2A2AF6",
"I  c #2A2BF6",
"U  c #2B2BF6",
"Y  c #2F2FF7",
"T  c #3030F7",
"R  c #3636F4",
"E  c #3B3BF5",
"W  c #3F3FF5",
"Q  c #3535F8",
"!  c #3636F8",
"~  c #3B3BF9",
"^  c #4040FA",
"/  c #4141FA",
"(  c #4545FB",
")  c #4646FB",
"_  c #494AFB",
"`  c #4B4AFC",
"'  c #4B4BFC",
"]  c #4949FF",
"[  c #4F4FFC",
"{  c #504FFD",
"}  c #5353FD",
"|  c #5454FD",
" . c #5858FE",
".. c #6F6FFD",
"X. c #7D7DF5",
"o. c #7272FE",
"O. c #7676FE",
"+. c #DC6A8C",
"@. c #8181F6",
"#. c #8585F7",
"$. c #8F8FF6",
"%. c #8888F8",
"&. c #8C8CF9",
"*. c #8F8FFA",
"=. c #9393FB",
"-. c #9696FC",
";. c #9898FD",
":. c #9B9BFD",
">. c #9E9EFE",
",. c #A0A0FE",
"<. c #B1B1FE",
"1. c #DDDDE9",
"2. c #DFDFEB",
"3. c #E1E3EF",
"4. c #E5E5EF",
"5. c #E7E7F1",
"6. c #E9E9F3",
"7. c #EBEBF5",
"8. c #EDEDF7",
"9. c #EFEFF9",
"0. c #EFEFFB",
"q. c #F6F6F6",
"w. c gray97",
"e. c #F1F1FD",
"r. c #F3F3FD",
"t. c #F5F5FD",
"y. c #F5F5FF",
"u. c #F8F8F8",
"i. c #F9F9F9",
"p. c gray98",
"a. c #FBFBFB",
"s. c gray99",
"d. c #FDFDFD",
"f. c #FDFDFE",
"g. c #FEFEFE",
"h. c white",
/* pixels */
"                                ",
"                                ",
"                                ",
"y.y.y.y.y.y.e.e.0.0.8.7.6.5.4.3.",
"y.h.h.h.h.h.h.p.a.a.p.p.p.p.q.2.",
"y.h.h.h.h.p.h.a.a.p.p.p.q.q.q.2.",
"] <.,.>.;.;.-.=.*.*.%.#.@.X.$.Z ",
"S O. .| { ' ) / ~ Q T U L J W Z ",
"S o.} [ ] ) ^ ~ Q Y U L J G E Z ",
"S ..[ ' ) ^ ~ Q Y U J H G D R Z ",
"X +.N M k j h f d s a p i u g . ",
", V x y t w 9 6 5 4 3 2 1 < 8 O ",
"> B m n b v c z l r e q 0 8 8 O ",
"> - - * * * & & $ $ + + O O o o ",
"                                ",
"                                "
};
