/* XPM */
static char *sa[] = {
/* columns rows colors chars-per-pixel */
"16 16 139 2 ",
"   c None",
".  c black",
"X  c #000700",
"o  c #000F00",
"O  c #001700",
"+  c #001D00",
"@  c #002300",
"#  c #002B00",
"$  c #003100",
"%  c #003300",
"&  c #003700",
"*  c #003900",
"=  c #003B00",
"-  c #003F00",
";  c #004100",
":  c #004500",
">  c #004700",
",  c #004900",
"<  c #004B00",
"1  c #146E13",
"2  c #187017",
"3  c #1C721B",
"4  c #1F731E",
"5  c #20751F",
"6  c #217520",
"7  c #227621",
"8  c #237823",
"9  c #267A26",
"0  c #297B27",
"q  c #297B29",
"w  c #2F7E2F",
"e  c #358233",
"r  c #358034",
"t  c #348234",
"y  c #368236",
"u  c #378236",
"i  c #388438",
"p  c #3A843A",
"a  c #3A853A",
"s  c #3B853A",
"d  c #3E863D",
"f  c #3F873E",
"g  c #3C883C",
"h  c #40883F",
"j  c #408A3F",
"k  c #418A40",
"l  c #438A42",
"z  c #448C43",
"x  c #448A45",
"c  c #458C44",
"v  c #478D46",
"b  c #478F46",
"n  c #498F48",
"m  c #4A9149",
"M  c #4B914A",
"N  c #4C904B",
"B  c #4C914C",
"V  c #4D914D",
"C  c #4E914D",
"Z  c #4C924C",
"A  c #50944F",
"S  c #519450",
"D  c #529451",
"F  c #519651",
"G  c #539752",
"H  c #549653",
"J  c #569755",
"K  c #579756",
"L  c #569956",
"P  c #579A56",
"I  c #5C975C",
"U  c #5B9A5A",
"Y  c #5B9A5B",
"T  c #5B9B5B",
"R  c #5C9B5B",
"E  c #5B9D5B",
"W  c #5E9C5D",
"Q  c #609E5F",
"!  c #5FA05E",
"~  c #609A62",
"^  c #619E60",
"/  c #64A064",
"(  c #64A264",
")  c #66A265",
"_  c #66A266",
"`  c #66A466",
"'  c #68A069",
"]  c #68A468",
"[  c #6AA46A",
"{  c #6DA66C",
"}  c #6EA76D",
"|  c #70A373",
" . c #71A970",
".. c #72AA71",
"X. c #75AC74",
"o. c #76AC75",
"O. c #78AE77",
"+. c #78A979",
"@. c #78AE78",
"#. c #7AAB7D",
"$. c #7BB07A",
"%. c #7BB07B",
"&. c #7FB37E",
"*. c #7FB27F",
"=. c #80AD81",
"-. c #80B380",
";. c #81B380",
":. c #89B48A",
">. c #89B48B",
",. c #8AB38C",
"<. c #8AB58C",
"1. c #8CB48D",
"2. c #91B793",
"3. c #94BD95",
"4. c #96BB98",
"5. c #99BD99",
"6. c #99BD9A",
"7. c #99C19A",
"8. c #A3C2A4",
"9. c #A1C4A4",
"0. c #A8C8A9",
"q. c #AAC9AC",
"w. c #ADC9AD",
"e. c #AECBAF",
"r. c #ADCCAC",
"t. c #AFCCB1",
"y. c #B1CBB1",
"u. c #B0CBB2",
"i. c #B3CDB3",
"p. c #B3CCB4",
"a. c #B3CCB5",
"s. c #B6CDB6",
"d. c #B6CFB6",
"f. c #B6CEB8",
"g. c #B7D0B7",
"h. c #B6D0B8",
"j. c #BBD0BB",
"k. c #BCD4BF",
"l. c #CEDFCF",
/* pixels */
"                                ",
"                                ",
"                                ",
"< < < < < : ; = & $ # @ + O o X ",
"< ;.;.*.%.o.o...} [ ( ^ W U J . ",
"< ;.` ( ( ` U L R K B B k e S . ",
"< *.! 7.k.t.#.q.u.a.+.f.:.0 N . ",
": %.E 3.y.g.4.a.2.,.' 8.1.8 v . ",
": O.P 0.l.9.<.:.6.~ | =.c 5 l . ",
"; X.P F G A m z h i i 0 7 5 h . ",
"= | F Z r.j.a.a.u.w.j.a.6 2 s . ",
"& { Z b f g f r w q 6.I 3 1 u . ",
"# ' ( Q U J S B n v k f i u r . ",
"@ + O O X . . . . . . . . . . . ",
"                                ",
"                                "
};
