/* XPM */
static char *sb[] = {
/* columns rows colors chars-per-pixel */
"16 16 145 2 ",
"   c None",
".  c black",
"X  c #000900",
"o  c #59353F",
"O  c #0B670B",
"+  c #0F6A0E",
"@  c #106A10",
"#  c #136C13",
"$  c #146E14",
"%  c #187019",
"&  c #197019",
"*  c #1A701A",
"=  c #1E741E",
"-  c #1F741F",
";  c #207520",
":  c #237723",
">  c #257625",
",  c #257725",
"<  c #267626",
"1  c #247824",
"2  c #297B29",
"3  c #2A792B",
"4  c #2A7A2A",
"5  c #2A7B2A",
"6  c #2C7A2B",
"7  c #2C7B2C",
"8  c #2E7C2E",
"9  c #2F7C2F",
"0  c #2F7D2F",
"q  c #327F32",
"w  c #337F32",
"e  c #436700",
"r  c #676B00",
"t  c #915700",
"y  c #358235",
"u  c #368236",
"i  c #398439",
"p  c #3B853B",
"a  c #3D863D",
"s  c #3F893F",
"d  c #558F36",
"f  c #428A42",
"g  c #448B44",
"h  c #468D46",
"j  c #498C49",
"k  c #4B904B",
"l  c #509250",
"z  c #549355",
"x  c #709C40",
"c  c #AF9900",
"v  c #9FAD3F",
"b  c #C79300",
"n  c #C39B00",
"m  c #D3C83A",
"M  c #E8CC3F",
"N  c #A2B043",
"B  c #AAB547",
"V  c #BFBE43",
"C  c #BCA178",
"Z  c #D5B86C",
"A  c #BEC568",
"S  c #C8C044",
"D  c #C8C247",
"F  c #CFC74B",
"G  c #D8CA40",
"H  c #E8CC47",
"J  c #E4C74F",
"K  c #E4CE49",
"L  c #E9CC4E",
"P  c #E4C45D",
"I  c #E1D45D",
"U  c #E3C461",
"Y  c #E4C96F",
"T  c #E3D263",
"R  c #00009F",
"E  c #0000B1",
"W  c #0000B3",
"Q  c #0000B7",
"!  c #0000B9",
"~  c #0000BB",
"^  c #0000BD",
"/  c #0000BF",
"(  c #786FBA",
")  c #0000C3",
"_  c #0000C7",
"`  c #0303CD",
"'  c #3B3BD7",
"]  c #4542D3",
"[  c #4644D5",
"{  c #4747D7",
"}  c #4B4BD7",
"|  c #4747D9",
" . c #4242DC",
".. c #4241DE",
"X. c #4646DD",
"o. c #4B4BD8",
"O. c #4C4CD8",
"+. c #4F4FDA",
"@. c #494ADD",
"#. c #5151D9",
"$. c #5151DA",
"%. c #5353DB",
"&. c #5454DB",
"*. c #5252DC",
"=. c #5859DB",
"-. c #5C5CDD",
";. c #6160DE",
":. c #6565DD",
">. c #6969DF",
",. c #6B6BDF",
"<. c #4646E0",
"1. c #4949E0",
"2. c #5C5CE2",
"3. c #6A6AE0",
"4. c #6D6DE0",
"5. c #6F6FE0",
"6. c #7071E1",
"7. c #7070E2",
"8. c #7575E2",
"9. c #7474E3",
"0. c #7B7BE5",
"q. c #8E7EA6",
"w. c #907FA0",
"e. c #B79D82",
"r. c #AA9899",
"t. c #BFA888",
"y. c #A697A8",
"u. c #AEA2B5",
"i. c #C4AB81",
"p. c #C7B292",
"a. c #8787E7",
"s. c #8C8CE7",
"d. c #8F8FE8",
"f. c #9E9EEA",
"g. c #A1A1EA",
"h. c #A1A1EB",
"j. c #A3A3EB",
"k. c #A9A9ED",
"l. c #B5B5F0",
"z. c #D2D2F5",
"x. c #E3E3F8",
"c. c #F7F7FB",
"v. c #F7F7FC",
"b. c #F7F7FD",
"n. c #FAFAFD",
/* pixels */
"                                ",
"                                ",
"                                ",
"` a./ 0.` / / / ! Q W W ! R t n ",
"h.b.d.n.k.8.5.5.,.:.;.2.y.Y T r ",
") f.z.8.-.%.%.} {  .] C H S j . ",
"_ s.x.6.,.%.} |  .q.P K v < g . ",
"' b.=.c.h.O.X.[ e.H V 4 < ; s . ",
") l.%.h.*.X.q.U m N 4 < = & a . ",
"/ 5.+.@.( i.L D d 6 1 - & $ u . ",
"! 3.1.r.Z m B 0 6 1 - & $ @ w . ",
"/ u.t.J F x 0 4 : = & # + O 0 . ",
"o p.I A z l k h f a i u w 0 7 . ",
"b c e X . . . . . . . . . . . . ",
"                                ",
"                                "
};
