/* XPM */
static char *sc[] = {
/* columns rows colors chars-per-pixel */
"16 16 157 2 ",
"   c None",
".  c #002100",
"X  c #002700",
"o  c #002900",
"O  c #002D00",
"+  c #002F00",
"@  c #003300",
"#  c #003500",
"$  c #003900",
"%  c #003B00",
"&  c #003D00",
"*  c #05012F",
"=  c #004100",
"-  c #005100",
";  c #006700",
":  c #000079",
">  c #E70000",
",  c #E90000",
"<  c #EB0000",
"1  c #ED0000",
"2  c #EF0000",
"3  c #F10000",
"4  c #F30000",
"5  c #F50000",
"6  c #F70700",
"7  c #F52525",
"8  c #F52626",
"9  c #F62B2B",
"0  c #F62C2C",
"q  c #F62D2D",
"w  c #F73030",
"e  c #F73131",
"r  c #F83535",
"t  c #F83636",
"y  c #F83736",
"u  c #F83737",
"i  c #F73A3A",
"p  c #F93A3A",
"a  c #F93B3A",
"s  c #F93B3B",
"d  c #F93B3C",
"f  c #F93C3C",
"g  c #F93C3D",
"h  c #FA3F3F",
"j  c #854D0F",
"k  c #83570B",
"l  c #F64444",
"z  c #FA4040",
"x  c #FA4141",
"c  c #FA4142",
"v  c #FA4242",
"b  c #F74949",
"n  c #F74E4E",
"m  c #F84848",
"M  c #F45252",
"N  c #F85353",
"B  c #F95357",
"V  c #F95757",
"C  c #FA5C5C",
"Z  c #F56464",
"A  c #FB6060",
"S  c #F67575",
"D  c #008300",
"F  c #009500",
"G  c #159715",
"H  c #2B9525",
"J  c #2CA12C",
"K  c #2FA32F",
"L  c #32A432",
"P  c #35A435",
"I  c #39A639",
"U  c #3CA83C",
"Y  c #42AE42",
"T  c #5BB85B",
"R  c #71BD71",
"E  c #C9C900",
"W  c #F9ED00",
"Q  c #FBFB00",
"!  c #FDFD00",
"~  c #FB8547",
"^  c #FB8B47",
"/  c #FB8C46",
"(  c #FB8F46",
")  c #FB9545",
"_  c #FB9745",
"`  c #FA9F44",
"'  c #FC9665",
"]  c #FBB267",
"[  c #FBFB49",
"{  c #FCF94B",
"}  c #FCFA4B",
"|  c #FCFB4B",
" . c #FBFC49",
".. c #FCF84C",
"X. c #FCFC4F",
"o. c #FDFC50",
"O. c #FDFD51",
"+. c #FDFD54",
"@. c #D4D767",
"#. c #DBDB68",
"$. c #D6DB7C",
"%. c #E0E06A",
"&. c #FCF769",
"*. c #FDFD6D",
"=. c #FDFD71",
"-. c #FEFE74",
";. c #000081",
":. c #000083",
">. c #000085",
",. c #000087",
"<. c #000089",
"1. c #00008B",
"2. c #000091",
"3. c #5C5CBB",
"4. c #6161BC",
"5. c #5F5FC0",
"6. c #5C5CC2",
"7. c #7070C4",
"8. c #7272CA",
"9. c #7676C8",
"0. c #7979C9",
"q. c #7B7BC9",
"w. c #7B7BCA",
"e. c #7979CD",
"r. c #FA7D85",
"t. c #8C8B97",
"y. c #919199",
"u. c #9799A8",
"i. c #A9A9A9",
"p. c #F78B8C",
"a. c #F89B9F",
"s. c #F5B2B2",
"d. c #F4B7B7",
"f. c #F9B7B7",
"g. c #83C883",
"h. c #A1D2A1",
"j. c #A8DBAC",
"k. c #B3D9B3",
"l. c #E7CFCF",
"z. c #F5C2C2",
"x. c #F6D6D7",
"c. c #CFE6CF",
"v. c #CBEED3",
"b. c #D3E4D3",
"n. c #EBE7DF",
"m. c gray89",
"M. c gray90",
"N. c #F7E6ED",
"B. c #EEF0EE",
"V. c #ECF5F3",
"C. c #F3F0F1",
"Z. c gray95",
"A. c #F3F3F3",
"S. c #F4F4F4",
"D. c #F4F5F5",
"F. c gray96",
"G. c #F6F6F6",
/* pixels */
"                                ",
"                                ",
"                                ",
"2.1.1.1.;.E ! ! Q W 6 5 3 3 3 2 ",
">.w.w.e.i.-.=.*.&.' A C V N n 2 ",
"1.w.5.4.#.+.O...~ v g t e 0 b , ",
">.w.6.y.+.O.| / v g t e 9 8 l > ",
">.9.3.#.O.| / x d t w 9 8 M s.l.",
";.8.t.X.| ) v s t e 0 Z d.C.D.M.",
";.7.@. .) h p y i S z.D.A.A.A.m.",
">.u.| ) g p m p.x.D.A.A.B.b.k.D ",
": $.` h B a.N.D.V.c.h.R U G K . ",
"* ] r.f.n.v.j.g.T Y I P L K K X ",
"j k H F ; - = & $ & $ @ + + o @ ",
"                                ",
"                                "
};
