/* XPM */
static char *scotland[] = {
/* columns rows colors chars-per-pixel */
"16 16 144 2 ",
"   c None",
".  c #000061",
"X  c #000065",
"o  c #000075",
"O  c #000077",
"+  c #000081",
"@  c #000083",
"#  c #000085",
"$  c #000087",
"%  c #000189",
"&  c #000589",
"*  c #00078B",
"=  c #00058F",
"-  c #000D8F",
";  c #000091",
":  c #000D93",
">  c #001393",
",  c #00159D",
"<  c #001F9B",
"1  c #00239F",
"2  c #002FA9",
"3  c #002FAB",
"4  c #0055A5",
"5  c #0045B1",
"6  c #0047B1",
"7  c #0049B3",
"8  c #004BB3",
"9  c #004FB5",
"0  c #0051B7",
"q  c #0053B7",
"w  c #0055B9",
"e  c #0057B9",
"r  c #005BBD",
"t  c #005DBD",
"y  c #005FBF",
"u  c #1957B4",
"i  c #1058B2",
"p  c #1E5DB7",
"a  c #254CB0",
"s  c #0061AD",
"d  c #1470BF",
"f  c #2560B9",
"g  c #266CBE",
"h  c #2E6ABE",
"j  c #3375BF",
"k  c #3970BF",
"l  c #1D7DC3",
"z  c #1A7DC4",
"x  c #2077C1",
"c  c #2375C2",
"v  c #2A72C1",
"b  c #2F76C3",
"n  c #2A78C3",
"m  c #2978C4",
"M  c #4B6BC0",
"N  c #4277C4",
"B  c #427FCA",
"V  c #497DC8",
"C  c #1F80C6",
"Z  c #2583C3",
"A  c #3D8DC5",
"S  c #358AC9",
"D  c #368EC9",
"F  c #3B8ECB",
"G  c #3D8ECC",
"H  c #3F93CD",
"J  c #4480C7",
"K  c #4783CB",
"L  c #4983CA",
"P  c #468ACE",
"I  c #478FCF",
"U  c #5081C8",
"Y  c #5182CA",
"T  c #5483CC",
"R  c #4793CB",
"E  c #4294CE",
"W  c #4697D0",
"Q  c #4C92D1",
"!  c #4B96D1",
"~  c #4F96D4",
"^  c #4F9ED6",
"/  c #4B9BD9",
"(  c #5C92D2",
")  c #559ED2",
"_  c #559FD3",
"`  c #549ED5",
"'  c #589CD6",
"]  c #5C9FD6",
"[  c #618FD0",
"{  c #6A9ED6",
"}  c #749DD7",
"|  c #53A1D8",
" . c #67A8D7",
".. c #65A8D9",
"X. c #68AAD8",
"o. c #69ACDD",
"O. c #6DAEDD",
"+. c #79A5DB",
"@. c #70AEDD",
"#. c #6FB0DE",
"$. c #72B1DD",
"%. c #72B0DF",
"&. c #77B0DF",
"*. c #79B3DF",
"=. c #76B4E0",
"-. c #7DB9E3",
";. c #80B6D9",
":. c #83BCE2",
">. c #8EBFE2",
",. c #91C0E1",
"<. c #92C3E6",
"1. c #9DC9E8",
"2. c #AFCDE4",
"3. c #D2D4D4",
"4. c gray83",
"5. c #DDDDDD",
"6. c #C5DBEB",
"7. c #C4DDF0",
"8. c #D5E7F4",
"9. c gray88",
"0. c #E2E2E2",
"q. c #E6F0F5",
"w. c #E8F0F3",
"e. c #ECF1F2",
"r. c #ECF3F6",
"t. c #EEF5F7",
"y. c #EAF3F8",
"u. c #F1F1F1",
"i. c gray95",
"p. c #F3F3F3",
"a. c #F4F4F4",
"s. c gray96",
"d. c #F6F6F6",
"f. c gray97",
"g. c #F4F8F9",
"h. c #F5FBFC",
"j. c #F8F8F8",
"k. c #F9F9F9",
"l. c #FAFAFA",
"z. c #FBFBFB",
"x. c gray99",
"c. c #FDFDFD",
"v. c #FEFEFE",
"b. c white",
/* pixels */
"                                ",
"                                ",
"                                ",
"0.0./ 3 7 y w 0 7 7 5 1 ; l 5.3.",
"-.b.b.h.@.} @.O.o...[ ] t.l.d.A ",
"3 <.b.b.h.2.Y Q I N >.j.f.d. .O ",
"y +.( 8.c.b.y.K B q.l.d.6.g J : ",
"r *.` T :.h.z.l.l.j.d.X.f x H & ",
"w %.| | M P l.l.f.d.n a Z z S $ ",
"q #.~ V @.l.l.j.f.d.d._ u x D + ",
"0 { L 6.l.l.t.b v w.d.u.2.i j + ",
", *.l.l.j.>.h n c p ;.u.u.u.R . ",
"_ l.l.h.` U ! E E G k S e.u.p.s ",
"0.9.Z $ = 1 > - & % % O X 4 4.4.",
"                                ",
"                                "
};
