/* XPM */
static char *sd[] = {
/* columns rows colors chars-per-pixel */
"16 16 137 2 ",
"   c None",
".  c black",
"X  c #0B0B0B",
"o  c #0F0F0E",
"O  c #131313",
"+  c #181919",
"@  c #1E1E1E",
"#  c #003D00",
"$  c #232323",
"%  c gray16",
"&  c #2C2C2C",
"*  c gray18",
"=  c #2F2F2F",
"-  c #323232",
";  c #343434",
":  c #353535",
">  c #393939",
",  c #3A3A3A",
"<  c gray24",
"1  c #195F00",
"2  c #006D00",
"3  c #007900",
"4  c #007B00",
"5  c #007F00",
"6  c #3F463F",
"7  c gray26",
"8  c #464646",
"9  c #4B4B4B",
"0  c #505050",
"q  c #545455",
"w  c #585858",
"e  c #5D615D",
"r  c #E90000",
"t  c #EB0000",
"y  c #ED0000",
"u  c #EF0000",
"i  c #F10000",
"p  c #F30000",
"a  c #F50000",
"s  c #F70000",
"d  c #F90000",
"f  c #FB0000",
"g  c #FD0000",
"h  c red",
"j  c #F62C2C",
"k  c #F73131",
"l  c #F83737",
"z  c #F93C3D",
"x  c #FA4242",
"c  c #FB4747",
"v  c #F74949",
"b  c #F74E4E",
"n  c #FC4C4C",
"m  c #F85353",
"M  c #FD5151",
"N  c #F95757",
"B  c #FD5454",
"V  c #FE5959",
"C  c #FA5C5C",
"Z  c #FC5E5C",
"A  c #FB6060",
"S  c #FC6565",
"D  c #FC6969",
"F  c #FD6D6D",
"G  c #FD7071",
"H  c #FE7474",
"J  c #FE7777",
"K  c #FE7979",
"L  c #FC7D7B",
"P  c #008300",
"I  c #008700",
"U  c #008B00",
"Y  c #008F00",
"T  c #539F53",
"R  c #49B549",
"E  c #49B649",
"W  c #4BB44B",
"Q  c #4FB74F",
"!  c #54A154",
"~  c #5CA95C",
"^  c #53B953",
"/  c #54BC54",
"(  c #58BC58",
")  c #6EAC6F",
"_  c #70AF6B",
"`  c #62B162",
"'  c #68B068",
"]  c #78B271",
"[  c #5CC25C",
"{  c #66C266",
"}  c #6AC36A",
"|  c #6FC46F",
" . c #72C673",
".. c #76C876",
"X. c #79C979",
"o. c #7BCF7A",
"O. c #90BF8A",
"+. c gray74",
"@. c #CBCBCB",
"#. c #CDCDCD",
"$. c gray81",
"%. c #E7C7C7",
"&. c #DEF2DE",
"*. c gray88",
"=. c #E1E1E1",
"-. c #E2E2E2",
";. c gray89",
":. c #E4E4E4",
">. c #E6E6E6",
",. c #E7E7E7",
"<. c #E9E9E9",
"1. c #E9EBE9",
"2. c gray92",
"3. c #F5E5E5",
"4. c #F6E6E6",
"5. c #F7E8E7",
"6. c #F6E8E8",
"7. c #F8E9E8",
"8. c #F9EAEA",
"9. c #FAEBEB",
"0. c #FBECEC",
"q. c #FBEFEE",
"w. c #FCEDED",
"e. c #FDEEEF",
"r. c #E0F4E4",
"t. c gray95",
"y. c #F3F3F3",
"u. c #F4F4F4",
"i. c #F4F5F5",
"p. c gray96",
"a. c #F6F6F6",
"s. c gray97",
"d. c #F8F8F8",
"f. c #F9F9F9",
"g. c #F8FAF9",
"h. c gray98",
"j. c #FBFBFB",
/* pixels */
"                                ",
"                                ",
"                                ",
"1 h h h f h h h f f s s p p y y ",
"Y O.L K J J G F D S A C N m b t ",
"U o.] Z V M M n c x z l k j v t ",
"I X.[ _ q.e.e.0.q.8.7.3.3.3.6.%.",
"I ..( / ' r.h.h.h.s.h.i.i.u.i.$.",
"I  .^ Q R ~ s.h.s.s.s.u.u.u.u.#.",
"5 | Q E ` &.h.h.s.i.i.u.u.t.t.#.",
"4 } E ! <.<.<.,.,.:.:.-.*.-.:.+.",
"4 { ! 7 > : * % $ @ + O o X * . ",
"2 ) e w q 0 9 8 7 < > : - * * . ",
"# . . . . . . . . . . . . . . . ",
"                                ",
"                                "
};
