/* XPM */
static char *se[] = {
/* columns rows colors chars-per-pixel */
"16 16 144 2 ",
"   c None",
".  c #00001F",
"X  c #000021",
"o  c #000025",
"O  c #000027",
"+  c #00002D",
"@  c #000033",
"#  c #000039",
"$  c #00003B",
"%  c #00003D",
"&  c #000041",
"*  c #000047",
"=  c #00004D",
"-  c #000553",
";  c #000D59",
":  c #00135D",
">  c #001963",
",  c #002169",
"<  c #00276D",
"1  c #00276F",
"2  c #002D73",
"3  c #002F73",
"4  c #003375",
"5  c #00417F",
"6  c #E38700",
"7  c #E58B00",
"8  c #E78F00",
"9  c #EB9900",
"0  c #ED9D00",
"q  c #EDA100",
"w  c #FDBB00",
"e  c #FDBD00",
"r  c #FDBF00",
"t  c #FDC100",
"y  c #F2C714",
"u  c #F3C919",
"i  c #F3C91A",
"p  c #F4CA1F",
"a  c #F4CB1F",
"s  c #F4CB20",
"d  c #F5CC24",
"f  c #F5CC25",
"g  c #F6CE2A",
"h  c #F6CE2B",
"j  c #F7D02E",
"k  c #F7D02F",
"l  c #F4CE36",
"z  c #F7D030",
"x  c #F8D234",
"c  c #F8D235",
"v  c #F8D236",
"b  c #F4D03B",
"n  c #F5D23F",
"m  c #F9D33A",
"M  c #F9D43A",
"N  c #F9D43B",
"B  c #F9D43C",
"V  c #FAD53F",
"C  c #FAD540",
"Z  c #FAD640",
"A  c #FAD641",
"S  c #FBD745",
"D  c #FBD746",
"F  c #F7D64B",
"G  c #FBD949",
"H  c #FCD94B",
"J  c #FCDA4F",
"K  c #F8D850",
"L  c #FDDB50",
"P  c #FDDB51",
"I  c #FDDC53",
"U  c #F9D955",
"Y  c #FDDC54",
"T  c #FEDD58",
"R  c #FEDD59",
"E  c #FDE16F",
"W  c #FDE271",
"Q  c #FEE273",
"!  c #FEE274",
"~  c #FEE376",
"^  c #FEE477",
"/  c #004381",
"(  c #0B6795",
")  c #0F6A97",
"_  c #10659D",
"`  c #136C99",
"'  c #18709C",
"]  c #1E749F",
"[  c #1469A0",
"{  c #196CA2",
"}  c #1F70A4",
"|  c #2377A1",
" . c #2478A2",
".. c #267AA2",
"X. c #2C7BA2",
"o. c #297BA4",
"O. c #2A7BA4",
"+. c #2B7CA5",
"@. c #2F7CA4",
"#. c #2F7DA4",
"$. c #2C7CA6",
"%. c #2F7FA8",
"&. c #327FA6",
"*. c #337BAB",
"=. c #3180A8",
"-. c #3181A9",
";. c #3582A8",
":. c #3784AB",
">. c #3984A9",
",. c #3D86AC",
"<. c #3C88AE",
"1. c #3D88AE",
"2. c #3F8AAF",
"3. c #428AAE",
"4. c #448CAF",
"5. c #5093AE",
"6. c #428BB0",
"7. c #428BB1",
"8. c #468DB0",
"9. c #448EB1",
"0. c #458EB2",
"q. c #478FB4",
"w. c #498FB1",
"e. c #4991B4",
"r. c #4E93B4",
"t. c #4C92B6",
"y. c #5396B7",
"u. c #5898B9",
"i. c #5899B9",
"p. c #5C9BBB",
"a. c #5D9DBC",
"s. c #5C9DBE",
"d. c #5F9FBF",
"f. c #619EBE",
"g. c #619FBE",
"h. c #5896C3",
"j. c #65A1C0",
"k. c #66A3C0",
"l. c #69A4C2",
"z. c #6AA5C3",
"x. c #6DA7C3",
"c. c #79AEC9",
"v. c #7BB0C9",
"b. c #7BB0CA",
/* pixels */
"                                ",
"                                ",
"                                ",
"/ / / / t e e 4 3 < , > : ; - = ",
"/ b.b.c.^ ~ W x.z.j.f.p.u.y.t.* ",
"/ b.s.s.T I L t.q.7.,.:.-.$.e.& ",
"5 c.s.h.Y L H 5.7.<.>.-.$...4.# ",
"t ~ T Y I H S A B v z h d a n 8 ",
"e W I K G G A B v z g d s i b 7 ",
"e E J G D B M v k g d a i y l 6 ",
"3 z.e.8.A m z -.O. .} { ` _ *.% ",
"2 j.9.7.B z k O.| ] ' ` ` ( $.X ",
"> j.s.u.U K F 8.3.,.>.;.&.@.X.X ",
"> : ; - q 0 9 % # @ + O O X . . ",
"                                ",
"                                "
};
