/* XPM */
static char *sg[] = {
/* columns rows colors chars-per-pixel */
"16 16 121 2 ",
"   c None",
".  c #C30000",
"X  c #C70000",
"o  c #C90000",
"O  c #CB0000",
"+  c #CF0000",
"@  c #D30000",
"#  c #D70000",
"$  c #D90000",
"%  c #DB0000",
"&  c #DD0000",
"*  c #DF0000",
"=  c #E10000",
"-  c #E30000",
";  c #E50000",
":  c #E70000",
">  c #E90000",
",  c #EB0303",
"<  c #EB0909",
"1  c #E32020",
"2  c #E52525",
"3  c #E62626",
"4  c #E62B2B",
"5  c #E72B2B",
"6  c #E72C2C",
"7  c #E73030",
"8  c #E83131",
"9  c #E83636",
"0  c #E93736",
"q  c #EA3737",
"w  c #E43C3D",
"e  c #E73F3F",
"r  c #EA3B3C",
"t  c #EA3C3C",
"y  c #EB3C3D",
"u  c #E64141",
"i  c #E74545",
"p  c #EB4141",
"a  c #EC4142",
"s  c #EC4242",
"d  c #E84444",
"f  c #EC4646",
"g  c #ED4747",
"h  c #EA4949",
"j  c #E94A4A",
"k  c #EB4E4E",
"l  c #EA4F4F",
"z  c #EC5353",
"x  c #EF5353",
"c  c #EB5454",
"v  c #ED5757",
"b  c #E85858",
"n  c #EC5959",
"m  c #EE5C5C",
"M  c #EE5D5D",
"N  c #F15959",
"B  c #F0595A",
"V  c #F05A5A",
"C  c #EF6161",
"Z  c #F06060",
"A  c #F06565",
"S  c #F06566",
"D  c #F16969",
"F  c #F26D6D",
"G  c #F17273",
"H  c #F27272",
"J  c #F47272",
"K  c #F27878",
"L  c #F58787",
"P  c #F38889",
"I  c #F68989",
"U  c #F6A2A2",
"Y  c #F6A5A5",
"T  c #F8B3B3",
"R  c #F8B4B4",
"E  c #F8B6B6",
"W  c #F8BABA",
"Q  c #F9BDBD",
"!  c #DBCFCF",
"~  c #DDCFCF",
"^  c #DDD1D1",
"/  c #DDD3D3",
"(  c #F7C9C9",
")  c #FBCACA",
"_  c #F8CDCD",
"`  c #E1D3D3",
"'  c #E1D5D5",
"]  c #E3D7D7",
"[  c #E5D9D9",
"{  c #E7DBDB",
"}  c #E9DDDD",
"|  c #EBDFDF",
" . c #FCDCDC",
".. c #EDE3E1",
"X. c #EFE5E5",
"o. c #F1E7E7",
"O. c #F3E9E9",
"+. c #F5EBEB",
"@. c #F5EDED",
"#. c #F7EFEF",
"$. c #FCEEEE",
"%. c #F1F1F1",
"&. c gray95",
"*. c #F2F2F3",
"=. c #F3F3F3",
"-. c #F4F4F4",
";. c gray96",
":. c #F6F6F6",
">. c #F7F7F7",
",. c #F9F1F1",
"<. c #FBF1F1",
"1. c #FDF2F2",
"2. c #FEF5F5",
"3. c #FEF6F6",
"4. c #F8F8F8",
"5. c #F9F9F9",
"6. c #FAFAFA",
"7. c #FBFBFB",
"8. c #FBFCFB",
"9. c gray99",
"0. c #FDFDFD",
/* pixels */
"                                ",
"                                ",
"                                ",
", : < , : : = = = * * $ $ # @ @ ",
": ) 2.E I E Y F D S C M v z k + ",
": 2.Q H W B K P g s y q 8 6 h O ",
": <. .B H _ ) f s y 0 7 4 3 f X ",
": T $.U B x f p r 9 6 4 3 1 e . ",
", I H G S Z M n c k j i u w b X ",
",.9.9.8.9.5.5.:.>.:.:.-.&.&.-.` ",
",.7.8.7.5.5.:.5.:.-.-.=.&.&.=./ ",
"$.7.8.5.5.5.5.:.:.-.=.&.&.&.&.! ",
"@.7.5.5.5.5.:.:.:.:.:.&.&.&.&.! ",
"+.O.o.X...| | [ [ ' ' ` ^ ~ ! ! ",
"                                ",
"                                "
};
