/* XPM */
static char *sh[] = {
/* columns rows colors chars-per-pixel */
"16 16 164 2 ",
"   c None",
".  c #00002B",
"X  c #00002F",
"o  c #000033",
"O  c #000035",
"+  c #000039",
"@  c #00003B",
"#  c #00003F",
"$  c #000041",
"%  c #000045",
"&  c #000047",
"*  c #00004B",
"=  c #00004D",
"-  c #000051",
";  c #000053",
":  c #000057",
">  c #00005B",
",  c #000061",
"<  c #000065",
"1  c #000067",
"2  c #00006D",
"3  c #00006F",
"4  c #000073",
"5  c #000075",
"6  c #000079",
"7  c #00007B",
"8  c #00007F",
"9  c #A1052F",
"0  c #C10015",
"q  c #C9051F",
"w  c #FF0703",
"e  c #E10715",
"r  c #C11733",
"t  c #E52D39",
"y  c #8E7868",
"u  c #937C6F",
"i  c #E8616A",
"p  c #FE6765",
"a  c #FC6666",
"s  c #FE6968",
"d  c #FC6D6D",
"f  c #FB706F",
"g  c #FD716F",
"h  c #EC757B",
"j  c #FE7975",
"k  c #F07B7F",
"l  c #FE7D7C",
"z  c #5C933A",
"x  c #608F3A",
"c  c #5C9143",
"v  c #659165",
"b  c #CCAD37",
"n  c #D1B13A",
"m  c #D3B43E",
"M  c #BAA24A",
"N  c #BFAA52",
"B  c #9E8361",
"V  c #CFB140",
"C  c #D2B444",
"Z  c #C2AC57",
"A  c #000083",
"S  c #000085",
"D  c #132E97",
"F  c #17329E",
"G  c #203A9F",
"H  c #1B36A1",
"J  c #253EA1",
"K  c #2A43A3",
"L  c #2B44A4",
"P  c #334AA4",
"I  c #3048A6",
"U  c #3049A6",
"Y  c #354CA6",
"T  c #364DA6",
"R  c #3149A9",
"E  c #324AA9",
"W  c #354DA9",
"Q  c #364DA9",
"!  c #364EA9",
"~  c #314BAF",
"^  c #354BAD",
"/  c #354FAD",
"(  c #354EAF",
")  c #384FA8",
"_  c #3950A8",
"`  c #3C52A9",
"'  c #3D53A9",
"]  c #3D51AA",
"[  c #3B52AC",
"{  c #3D53AC",
"}  c #3C53AD",
"|  c #3F56AD",
" . c #374EB1",
".. c #3F56B1",
"X. c #3D55B4",
"o. c #4257AB",
"O. c #4056AC",
"+. c #4057AE",
"@. c #4157AF",
"#. c #4B57AF",
"$. c #4359AE",
"%. c #475DAF",
"&. c #4258B1",
"*. c #4259B1",
"=. c #455CB1",
"-. c #465CB1",
";. c #465EB4",
":. c #475EB4",
">. c #455FB6",
",. c #485DB2",
"<. c #4C61B2",
"1. c #4B60B4",
"2. c #4B62B4",
"3. c #4F62B5",
"4. c #4963B9",
"5. c #5161B3",
"6. c #5065B3",
"7. c #5065B4",
"8. c #5065B7",
"9. c #5569B6",
"0. c #5569B7",
"q. c #5569B8",
"w. c #596DB9",
"e. c #5A6DB9",
"r. c #5C6FBC",
"t. c #5F71BB",
"y. c #6073BE",
"u. c #6375BE",
"i. c #6579BF",
"p. c #7D77B5",
"a. c #677AC0",
"s. c #6A7CC2",
"d. c #6C7DC2",
"f. c #6D7FC3",
"g. c #6A7DC5",
"h. c #B86482",
"j. c #BA6482",
"k. c #C26B85",
"l. c #C86A80",
"z. c #E07582",
"x. c #7081C4",
"c. c #7184C7",
"v. c #7B85C3",
"b. c #8F8ABD",
"n. c #EB868C",
"m. c #FD8684",
"M. c #FE8B8B",
"N. c #F19499",
"B. c #F7999B",
"V. c #F8A0A3",
"C. c #F0A4AA",
"Z. c #F9A9AB",
"A. c #F2AEB3",
"S. c #8497C6",
"D. c #8C9DC8",
"F. c #8B9DD3",
"G. c #9AA6D4",
"H. c #A0ADD9",
"J. c #ADB9DE",
"K. c #B2BCDF",
"L. c #B9C1E2",
"P. c #CDC9E2",
"I. c #CCD4E4",
"U. c #CDD2E9",
/* pixels */
"                                ",
"                                ",
"                                ",
"t v.~ e 0  .p.r S 6 5 3 3 < , < ",
"#.Z.U.B.N.P.A.G.f.s.a.t.t.w.0.; ",
"w M.j s p g p i 3.;.*.O.' E 6.; ",
"q V.l d f m.h l.;.X.Z C m M ;.* ",
"5.C.K.k z.J.n.b.X. .N m n b *.% ",
"9 L.F.k.j.g.G.h.] / B D.I.S.O.$ ",
"S c.q.4.;.;.} / Q E u y z v ] @ ",
"A x.7.3.;.O.] Q I K 2.x c O._ O ",
"6 d.,.;.| [ T I K J G H F D T O ",
"4 i.u.y.w.0.7.2.%.$.o.] _ T I . ",
"6 3 1 > > : ; = % $ # @ O o X @ ",
"                                ",
"                                "
};
