/* XPM */
static char *si[] = {
/* columns rows colors chars-per-pixel */
"16 16 150 2 ",
"   c None",
".  c #3F0000",
"X  c #850015",
"o  c #DD0000",
"O  c #DF0000",
"+  c #E10000",
"@  c #E30000",
"#  c #E50000",
"$  c #E70000",
"%  c #E90000",
"&  c #EB0000",
"*  c #ED0000",
"=  c #EF0000",
"-  c #F10000",
";  c #F30000",
":  c #F50000",
">  c #F70000",
",  c #F90000",
"<  c #F10B0B",
"1  c #F10F0E",
"2  c #F21313",
"3  c #F31919",
"4  c #F41E1E",
"5  c #F52323",
"6  c #F62929",
"7  c #F22C2C",
"8  c #F22F2F",
"9  c #F72E2E",
"0  c #F23232",
"q  c #F33535",
"w  c #F83434",
"e  c #F43939",
"r  c #F53D3D",
"t  c #F93A3A",
"y  c #FA3F3F",
"u  c #9E1650",
"i  c #A11B53",
"p  c #A31F57",
"a  c #A5255B",
"s  c #A8295F",
"d  c #AB2F63",
"f  c #AE3468",
"g  c #AC3769",
"h  c #B0396C",
"j  c #B33F70",
"k  c #B54474",
"l  c #B84A78",
"z  c #BA4E7C",
"x  c #F64242",
"c  c #F74646",
"v  c #FA4444",
"b  c #F74B4B",
"n  c #F85050",
"m  c #F95455",
"M  c #F95858",
"N  c #FA5D5D",
"B  c #FB6162",
"V  c #FC6666",
"C  c #000081",
"Z  c #000083",
"A  c #000085",
"S  c #000097",
"D  c #0000B5",
"F  c #0000B7",
"G  c #0000B9",
"H  c #0311C3",
"J  c #1426C3",
"K  c #1A28C1",
"L  c #1F2EC3",
"P  c #192BC6",
"I  c #1F30C7",
"U  c #202CC1",
"Y  c #2531C4",
"T  c #2533C5",
"R  c #2B37C6",
"E  c #2A38C7",
"W  c #2435CA",
"Q  c #2A3ACB",
"!  c #303CC8",
"~  c #303DC9",
"^  c #2F40CD",
"/  c #3641CA",
"(  c #3643CB",
")  c #3645CB",
"_  c #3544CF",
"`  c #3B47C9",
"'  c #3B47CC",
"]  c #3F4AC9",
"[  c #3B48CD",
"{  c #3B49D0",
"}  c #414CCE",
"|  c #404ECF",
" . c #4B50CD",
".. c #4F58CE",
"X. c #404ED2",
"o. c #464FD0",
"O. c #454FD3",
"+. c #4650D0",
"@. c #4954D5",
"#. c #4F5CD7",
"$. c #535CD0",
"%. c #5861D2",
"&. c #5D65D4",
"*. c #787ACE",
"=. c #6169D6",
"-. c #676FD5",
";. c #666DD7",
":. c #6A72D9",
">. c #6E76DB",
",. c #6F7ADF",
"<. c #757CD1",
"1. c #7077DB",
"2. c #727CDD",
"3. c #767DDD",
"4. c #A65F9A",
"5. c #AA649D",
"6. c #9659A3",
"7. c #C86F94",
"8. c #7C83DE",
"9. c #F3AFB5",
"0. c #F4B2B9",
"q. c #868CE1",
"w. c #8D92E2",
"e. c #9399E5",
"r. c #E1E3E3",
"t. c gray90",
"y. c #E7E7E7",
"u. c #E9E9E9",
"i. c gray92",
"p. c gray93",
"a. c #EFEFEF",
"s. c #E0E0F4",
"d. c #F1EEF6",
"f. c #F1F1F1",
"g. c #F3F3F3",
"h. c gray96",
"j. c #F6F6F6",
"k. c gray97",
"l. c #F6F7FB",
"z. c #F6F6FC",
"x. c #F8F8F8",
"c. c #F9F9F9",
"v. c gray98",
"b. c #FBFBFB",
"n. c #FDFBFB",
"m. c gray99",
"M. c #FDFDFD",
"N. c #FDFDFE",
"B. c #FEFEFF",
"V. c white",
/* pixels */
"                                ",
"                                ",
"                                ",
"h.h.h.h.h.g.g.a.a.a.a.u.u.t.t.r.",
"h.V.V.z.l.V.m.V.V.v.v.v.v.h.v.u.",
"h.V.w.<.*.v.V.m.v.v.v.v.v.h.v.u.",
"H e.q.s.8.1.>.:.-.&.&.%.$...-.S ",
"F 3.0.d.9. .o.} ' / ! R Y U ] C ",
"F 2.6.5.5.+.{ ' ( ! E Y L K ' C ",
"G ,.#.@.X.+.{ ( ^ Q W L P J ) A ",
"X 7.z l k j h g d d a p i u g . ",
", V v y t w 9 6 5 4 3 2 1 < 8 O ",
"> B N M m n b c x r e q 0 8 7 O ",
"> - - * * * & & $ $ + + O O o o ",
"                                ",
"                                "
};
