/* XPM */
static char *sk[] = {
/* columns rows colors chars-per-pixel */
"16 16 153 2 ",
"   c None",
".  c #8D0000",
"X  c #BF0000",
"o  c #DD0000",
"O  c #DF0000",
"+  c #E10000",
"@  c #E30000",
"#  c #E50000",
"$  c #E70000",
"%  c #E90000",
"&  c #EB0000",
"*  c #ED0000",
"=  c #EF0000",
"-  c #F10000",
";  c #F30000",
":  c #F50000",
">  c #F70000",
",  c #F90000",
"<  c #F10B0B",
"1  c #F10F0E",
"2  c #F21313",
"3  c #F31919",
"4  c #F41E1E",
"5  c #C7233F",
"6  c #F52323",
"7  c #F62929",
"8  c #F22C2C",
"9  c #F22F2F",
"0  c #F72E2E",
"q  c #F23232",
"w  c #F33535",
"e  c #F43939",
"r  c #F53D3D",
"t  c #C92843",
"y  c #CA2C48",
"u  c #CC314B",
"i  c #CE3650",
"p  c #D03B55",
"a  c #CE435B",
"s  c #D24059",
"d  c #F64242",
"f  c #F74646",
"g  c #FA4444",
"h  c #F74B4B",
"j  c #F85050",
"k  c #F95455",
"l  c #F7585B",
"z  c #F95858",
"x  c #F95A5A",
"c  c #FA5A5B",
"v  c #FA5D5D",
"b  c #FB6162",
"n  c #FE6361",
"m  c #FC6560",
"M  c #FC6666",
"N  c #EF6972",
"B  c #F16C74",
"V  c #FA7472",
"C  c #F3747C",
"Z  c #F17B7F",
"A  c #00009D",
"S  c #0000A3",
"D  c #0003B5",
"F  c #001FC9",
"G  c #001FCF",
"H  c #0323C9",
"J  c #3E57CF",
"K  c #3855D2",
"L  c #3C59D4",
"P  c #3F59D9",
"I  c #425ACF",
"U  c #435AD1",
"Y  c #405DD6",
"T  c #485ED1",
"R  c #485ED2",
"E  c #4561D7",
"W  c #4C63D3",
"Q  c #4D63D4",
"!  c #4A65D8",
"~  c #4D69DB",
"^  c #5166D4",
"/  c #5167D6",
"(  c #566AD6",
")  c #5B6FD5",
"_  c #526CD9",
"`  c #546ED8",
"'  c #566EDA",
"]  c #5E71D5",
"[  c #5973DD",
"{  c #6B6ECE",
"}  c #6B75D5",
"|  c #6076DD",
" . c #7078D4",
".. c #7D7ED2",
"X. c #E1778A",
"o. c #E17F8E",
"O. c #8675C3",
"+. c #7687DB",
"@. c #7A8ADD",
"#. c #7E8EDF",
"$. c #FD8584",
"%. c #FB8986",
"&. c #F48B8F",
"*. c #E68694",
"=. c #F48B91",
"-. c #F58F94",
";. c #F69096",
":. c #F69EA2",
">. c #F0ADB3",
",. c #8997DF",
"<. c #8291E0",
"1. c #8594E2",
"2. c #8898E4",
"3. c #8298E9",
"4. c #8399EB",
"5. c #849BEC",
"6. c #909AE1",
"7. c #ACB7EE",
"8. c #E0B3C3",
"9. c #D7C2D9",
"0. c #D2C1DD",
"q. c #DDC5D8",
"w. c #FDCDCC",
"e. c #E7DDDF",
"r. c #FCDEDE",
"t. c #FDDEDE",
"y. c #EBE1E3",
"u. c #EDE3E5",
"i. c #EFE5E5",
"p. c #FCE2E1",
"a. c #F1E7E9",
"s. c #F3E9EB",
"d. c #F5EBED",
"f. c #F5EDEF",
"g. c #F7EFEF",
"h. c #FDEDEC",
"j. c #F9EFF1",
"k. c #F6F6F6",
"l. c gray97",
"z. c #FBF1F3",
"x. c #FBF3F3",
"c. c #FDF3F3",
"v. c #FDF5F5",
"b. c #FDF5F7",
"n. c #F8F8F8",
"m. c #F9F9F9",
"M. c gray98",
"N. c #FBFBFB",
"B. c gray99",
"V. c #FDFDFD",
"C. c #FDFDFE",
"Z. c #FEFEFE",
"A. c white",
/* pixels */
"                                ",
"                                ",
"                                ",
"v.v.v.v.v.c.z.z.z.g.g.d.s.a.i.u.",
"b.A.A.A.A.A.A.V.A.A.m.m.m.l.l.y.",
"v.A.:.;.-.=.&.V.m.m.m.m.l.l.l.e.",
"P 7.C n r.$.z 2.1.1.<.#.@.+.,.D ",
"H 5.B w.h.p.l ..' ( ^ W T I ] A ",
"H 3.N m r.%.l  .` / Q T U L ) A ",
"G 3.0.O.} { 8.[ ~ ! E Y L K ( S ",
"X X.*.q.[ q.*.p p i u y t 5 a . ",
", M g V >.Z 0 7 6 4 3 2 1 < 9 O ",
"> b v z k j h f d r e w q 9 8 O ",
"> - - * * * & & $ $ + + O O o o ",
"                                ",
"                                "
};
