/* XPM */
static char *sl[] = {
/* columns rows colors chars-per-pixel */
"16 16 138 2 ",
"   c None",
".  c #000079",
"X  c #00007B",
"o  c #00007D",
"O  c #00007F",
"+  c #009B00",
"@  c #009F00",
"#  c #00A300",
"$  c #00A700",
"%  c #00AB00",
"&  c #00AF00",
"*  c #00B100",
"=  c #00B300",
"-  c #00B500",
";  c #00B700",
":  c #00B900",
">  c #00BD00",
",  c #00C100",
"<  c #00C300",
"1  c #38D038",
"2  c #3DD23D",
"3  c #3DD93D",
"4  c #42D442",
"5  c #48D648",
"6  c #4DD74D",
"7  c #53D753",
"8  c #52D952",
"9  c #57DB57",
"0  c #58D858",
"q  c #5BDC5B",
"w  c #5CDA5C",
"e  c #5EDE5E",
"r  c #61DB60",
"t  c #62DE62",
"y  c #65DD65",
"u  c #6ADD6A",
"i  c #6DDB6D",
"p  c #6EDF6E",
"a  c #71DC71",
"s  c #76DE75",
"d  c #79DF79",
"f  c #66E066",
"g  c #68E169",
"h  c #72E172",
"j  c #75E275",
"k  c #79E37A",
"l  c #7BE37B",
"z  c #7DE17D",
"x  c #7FE57F",
"c  c #000083",
"v  c #000087",
"b  c #000089",
"n  c #00008D",
"m  c #000091",
"M  c #000095",
"N  c #000099",
"B  c #00009D",
"V  c #0000A1",
"C  c #0000A5",
"Z  c #0000A7",
"A  c #0000A9",
"S  c #0000AB",
"D  c #0000AF",
"F  c #0B0BBF",
"G  c #0F0FC1",
"H  c #1313C3",
"J  c #1819C5",
"K  c #1E1EC7",
"L  c #2323C8",
"P  c #2929CA",
"I  c #2C2CC8",
"U  c #2F2FC8",
"Y  c #2E2ECC",
"T  c #3232C9",
"R  c #3535CB",
"E  c #3434CE",
"W  c #3939CD",
"Q  c #3D3DCE",
"!  c #2D2DD1",
"~  c #3A3AD0",
"^  c #3F3FD2",
"/  c #4242CF",
"(  c #4646D1",
")  c #4444D4",
"_  c #4B4BD3",
"`  c #5050D4",
"'  c #5454D6",
"]  c #5858D8",
"[  c #5D5DD9",
"{  c #6363D5",
"}  c #6666D6",
"|  c #6A6AD7",
" . c #6161DB",
".. c #6666DD",
"X. c #6E6ED9",
"o. c #7171DB",
"O. c #7575DD",
"+. c #7A7ADB",
"@. c #7978DE",
"#. c #7C7CE0",
"$. c #82DF81",
"%. c #81E281",
"&. c #80E680",
"*. c #83E683",
"=. c #85E485",
"-. c #88E588",
";. c #8CE68C",
":. c #8EE88E",
">. c #91E891",
",. c #94E994",
"<. c #A7EDA7",
"1. c #8080E1",
"2. c #8484E3",
"3. c #8888E4",
"4. c #8B8BE6",
"5. c #A0A0EA",
"6. c #D3D3DF",
"7. c #D5D5E1",
"8. c #D7D7E3",
"9. c gray95",
"0. c #F3F3F3",
"q. c #F4F4F4",
"w. c #F4F5F5",
"e. c gray96",
"r. c #F6F6F6",
"t. c gray97",
"y. c #F1F1F9",
"u. c #F3F3FB",
"i. c #F5F5FB",
"p. c #F8F8F8",
"a. c #F9F9F9",
"s. c #FAFAFA",
"d. c #FBFBFB",
"f. c #FBFCFB",
"g. c gray99",
"h. c #FDFCFD",
"j. c #FDFDFD",
"k. c #FEFEFE",
/* pixels */
"                                ",
"                                ",
"                                ",
"< < < < < < > > : ; = = & % $ # ",
"< *.*.*.x k k j s p u y r w q + ",
"< *.g y t e q 9 8 6 5 4 2 1 7 + ",
"3 <.,.>.:.;.=.=.%.z k s a i $.; ",
"i.k.k.k.k.f.k.a.a.p.e.e.e.q.e.8.",
"u.k.k.g.a.k.a.a.p.e.e.e.e.0.q.8.",
"y.k.d.d.k.a.a.a.a.e.e.e.0.0.0.6.",
"! 5.3.3.2.#.#.@.O.o.X.| } { +.C ",
"D ..) ) ~ R Y P L K J H G F U X ",
"S  .[ ] ' ` _ ( / Q W R T U U X ",
"A C V B N M m n b b c o o X . X ",
"                                ",
"                                "
};
