/* XPM */
static char *sm[] = {
/* columns rows colors chars-per-pixel */
"16 16 135 2 ",
"   c None",
".  c #558D48",
"X  c #75A265",
"o  c #75A466",
"O  c #BFAC58",
"+  c #9B9269",
"@  c #AF9D64",
"#  c #92B071",
"$  c #9CB974",
"%  c #BDAB68",
"&  c #DFB65B",
"*  c #DAB25F",
"=  c #C2B160",
"-  c #C1B96A",
";  c #E9CD6E",
":  c #E9CE70",
">  c #406D9E",
",  c #47739F",
"<  c #001FDD",
"1  c #0021DD",
"2  c #0021DF",
"3  c #0025DF",
"4  c #0027DF",
"5  c #0029E1",
"6  c #002BE3",
"7  c #002DE3",
"8  c #002FE5",
"9  c #0033E5",
"0  c #0039E7",
"q  c #003DE9",
"w  c #0041EB",
"e  c #0047ED",
"r  c #004DED",
"t  c #0053EF",
"y  c #0059F1",
"u  c #005DF3",
"i  c #0063F5",
"p  c #0069F7",
"a  c #006FF9",
"s  c #0073FB",
"d  c #0077FD",
"f  c #007BFD",
"g  c #3895F1",
"h  c #3C97F1",
"j  c #3D97F2",
"k  c #4893D5",
"l  c #659DD3",
"z  c #6AACD2",
"x  c #4099F2",
"c  c #4199F2",
"v  c #419AF2",
"b  c #459CF3",
"n  c #459DF3",
"m  c #469CF3",
"M  c #459EF3",
"N  c #4A9FF4",
"B  c #4FA2F5",
"V  c #53A2F2",
"C  c #55A4F2",
"Z  c #56A4F2",
"A  c #58A5F3",
"S  c #59A6F3",
"D  c #5BA8F3",
"F  c #5CA8F4",
"G  c #5FA9F4",
"H  c #59A9F8",
"J  c #7EB3E1",
"K  c #60AAF5",
"L  c #61ACF5",
"P  c #65AEF6",
"I  c #60ACF9",
"U  c #64AFFA",
"Y  c #65AFFA",
"T  c #68B0F7",
"R  c #6CB2F7",
"E  c #69B1FA",
"W  c #69B2FB",
"Q  c #6DB4FB",
"!  c #6DB5FB",
"~  c #6EB5FC",
"^  c #71B4F8",
"/  c #75B7F9",
"(  c #71B7FC",
")  c #72B7FC",
"_  c #76B9FD",
"`  c #79B9F9",
"'  c #7DBCFA",
"]  c #8EB881",
"[  c #90A9AD",
"{  c #86BCB3",
"}  c #91C1B4",
"|  c #DDC895",
" . c #E2D09E",
".. c #80BEFB",
"X. c #A3CCD2",
"o. c #8AC0F4",
"O. c #84C0FC",
"+. c #88C3FC",
"@. c #8BC4FD",
"#. c #8EC6FE",
"$. c #94C6F7",
"%. c #D5DBE7",
"&. c #D7DFE7",
"*. c #D9E1E9",
"=. c #DDE3EB",
"-. c #DDE7EF",
";. c #DFE7EF",
":. c #E3E9F1",
">. c #E5EBF3",
",. c #E7EDF5",
"<. c #E9EFF7",
"1. c #EBF1F9",
"2. c #EDF1FB",
"3. c #EDF3FD",
"4. c #EFF5FD",
"5. c #F4F4F4",
"6. c gray96",
"7. c #F6F6F6",
"8. c gray97",
"9. c #F1F7FD",
"0. c #F1F7FF",
"q. c #F1F9FF",
"w. c #F8F8F8",
"e. c #F9F9F9",
"r. c #FAFAF8",
"t. c #FBFBF8",
"y. c #FAFAF9",
"u. c gray98",
"i. c #FBFBFB",
"p. c gray99",
"a. c #FDFCFD",
"s. c #FDFDFD",
"d. c #FDFDFE",
"f. c #FEFEFE",
"g. c white",
/* pixels */
"                                ",
"                                ",
"                                ",
"q.0.0.0.q.4.4.2.2.1.<.,.:.:.-.-.",
"0.g.g.p.g.g.g.p.i.i.p.i.i.i.7.=.",
"0.g.g.g.g.i.g.w.w.i.i.8.8.7.7.*.",
"0.g.g.g.p.g.w.; ; i.8.8.7.7.7.&.",
"0.g.p.p.p.]  .& * | X 7.5.5.7.%.",
"f #._ ^ ~ X.% } { @ [ V B m K 9 ",
"f @.( Q W o - $ # + . N v v D 4 ",
"s +.Q W Y z J = O l k m v j S 4 ",
"s ..W Y I H $., > ..m c h g Z 1 ",
"p ..' ` / ^ R T P L G D S Z V < ",
"i u y t r e w q 0 9 7 5 3 1 < < ",
"                                ",
"                                "
};
