/* XPM */
static char *so[] = {
/* columns rows colors chars-per-pixel */
"16 16 157 2 ",
"   c None",
".  c #0027DD",
"X  c #0029DD",
"o  c #002DDD",
"O  c #002DDF",
"+  c #002FDF",
"@  c #0031DF",
"#  c #0035DD",
"$  c #0033E1",
"%  c #0035E3",
"&  c #0039E3",
"*  c #003BE5",
"=  c #003DE5",
"-  c #003FE7",
";  c #0041E7",
":  c #0045E7",
">  c #0047E9",
",  c #004BE9",
"<  c #004DEB",
"1  c #0051ED",
"2  c #0057ED",
"3  c #005DEF",
"4  c #0061EF",
"5  c #0063F1",
"6  c #0067F3",
"7  c #006DF5",
"8  c #006FF7",
"9  c #0071F7",
"0  c #0075F5",
"q  c #0075F9",
"w  c #0077F9",
"e  c #0079FB",
"r  c #007BFB",
"t  c #007DFD",
"y  c #037FFD",
"u  c #0581FD",
"i  c #0783FD",
"p  c #0B83FD",
"a  c #0D87FD",
"s  c #0F87FD",
"d  c #0F85FF",
"f  c #1187FF",
"g  c #1389FF",
"h  c #2191FF",
"j  c #3895F1",
"k  c #3C97F1",
"l  c #3D97F2",
"z  c #4099F2",
"x  c #4199F2",
"c  c #419AF2",
"v  c #459CF3",
"b  c #469CF3",
"n  c #459CF4",
"m  c #469DF4",
"M  c #469DF5",
"N  c #4A9FF4",
"B  c #4B9FF4",
"V  c #49A0F5",
"C  c #4DA1F5",
"Z  c #4FA2F5",
"A  c #4EA2F6",
"S  c #53A2F2",
"D  c #55A4F2",
"F  c #56A4F2",
"G  c #50A2F5",
"H  c #51A4F6",
"J  c #54A5F6",
"K  c #55A6F6",
"L  c #54A6F7",
"P  c #57A7F6",
"I  c #58A5F3",
"U  c #59A6F3",
"Y  c #5BA8F3",
"T  c #59A8F7",
"R  c #59A9F7",
"E  c #5CA8F4",
"W  c #5FA9F4",
"Q  c #55A7F9",
"!  c #5BA9F8",
"~  c #5BAAF8",
"^  c #5DABF9",
"/  c #5EABF8",
"(  c #5FADFA",
")  c #60AAF5",
"_  c #62ACF5",
"`  c #64ADF5",
"'  c #65AEF6",
"]  c #68AFF6",
"[  c #60ACF9",
"{  c #63AEF9",
"}  c #64AFFA",
"|  c #65AFFA",
" . c #69B0F7",
".. c #6CB2F7",
"X. c #6DB2F7",
"o. c #67B1FA",
"O. c #63B0FC",
"+. c #69B1FA",
"@. c #69B2FB",
"#. c #6BB3FB",
"$. c #6DB3FB",
"%. c #6DB4FB",
"&. c #6DB5FB",
"*. c #6CB4FC",
"=. c #70B4F7",
"-. c #7AB8F6",
";. c #71B4F8",
":. c #75B7F8",
">. c #75B7F9",
",. c #70B6FC",
"<. c #71B7FC",
"1. c #70B6FD",
"2. c #71B7FD",
"3. c #72B7FC",
"4. c #73B7FD",
"5. c #76B9FD",
"6. c #76BAFD",
"7. c #79B9F9",
"8. c #7CBBFA",
"9. c #7DBCFA",
"0. c #79BCFE",
"q. c #7ABCFE",
"w. c #7CBDFE",
"e. c #7CBEFE",
"r. c #7FBFFE",
"t. c #81BBF7",
"y. c #80BEFB",
"u. c #8CC0F6",
"i. c #84C0FC",
"p. c #86C2FC",
"a. c #88C3FC",
"s. c #8AC3FD",
"d. c #8BC4FD",
"f. c #8DC5FE",
"g. c #8EC6FE",
"h. c #8FC7FE",
"j. c #9BC9F5",
"k. c #98C8F7",
"l. c #90C4F9",
"z. c #91C8FE",
"x. c #94C8FE",
"c. c #94C9FE",
"v. c #95CAFF",
"b. c #A6D1FC",
"n. c #AED3F8",
"m. c #ADD3FA",
"M. c #AED4FB",
"N. c #BEDAF7",
"B. c #B2D5F8",
"V. c #B8DAFB",
"C. c #C1DDFA",
"Z. c #D7E9FA",
"A. c #D8E9F9",
"S. c #E1ECF7",
"D. c #E2EDF8",
"F. c #F0F3F8",
"G. c #F1F5F9",
/* pixels */
"                                ",
"                                ",
"                                ",
"h g g g d p u t r q 9 7 6 5 3 4 ",
"d v.z.v.z.h.f.f.p.i.y.7.7.:.=.< ",
"g v.i.q.q.6.4.4.+.+.} ^ R K .., ",
"f z.e.q.6.4.O.M.M.Q ~ ~ K G ] : ",
"d z.q.6.&.b.V.Z.A.B.k.G Z B ` - ",
"u g.6.3.&.%.C.G.F.N.K Z B m W * ",
"u s.3.&.@.[ l.S.S.u.m B m z W % ",
"r s.$.@.} ^ M.t.-.j.m m z l F @ ",
"q i.+.} [ ~ K G V m m l l j F o ",
"9 y.9.7.:.;.$. .` ) W Y I D S . ",
"0 6 5 3 2 1 < : ; - * $ @ o X # ",
"                                ",
"                                "
};
