/* XPM */
static char *sr[] = {
/* columns rows colors chars-per-pixel */
"16 16 161 2 ",
"   c None",
".  c #002700",
"X  c #002B00",
"o  c #002D00",
"O  c #003100",
"+  c #003300",
"@  c #003700",
"#  c #003D00",
"$  c #003F00",
"%  c #004500",
"&  c #004B00",
"*  c #004F00",
"=  c #005100",
"-  c #005500",
";  c #005B00",
":  c #005F00",
">  c #006100",
",  c #006500",
"<  c #006B00",
"1  c #006F00",
"2  c #007300",
"3  c #007500",
"4  c #007700",
"5  c #007D00",
"6  c #DF0000",
"7  c #E30000",
"8  c #E50000",
"9  c #E70000",
"0  c #FB0000",
"q  c #FD0000",
"w  c red",
"e  c #F21414",
"r  c #F31919",
"t  c #F31A1A",
"y  c #F41F1F",
"u  c #F42020",
"i  c #F52424",
"p  c #F52525",
"a  c #F22A2B",
"s  c #F62B2B",
"d  c #F62D2B",
"f  c #F22E30",
"g  c #F73030",
"h  c #F33335",
"j  c #F43636",
"k  c #F43739",
"l  c #F43B3B",
"z  c #F53F3F",
"x  c #F5433E",
"c  c #F77C30",
"v  c #F54243",
"b  c #FA4040",
"n  c #FB4545",
"m  c #FB4746",
"M  c #F64843",
"N  c #F64648",
"B  c #F3494B",
"V  c #F74D49",
"C  c #F74C4D",
"Z  c #FB4A49",
"A  c #FC4A4B",
"S  c #FC4B4B",
"D  c #FC4F4F",
"F  c #F8514D",
"G  c #FD4F50",
"H  c #F95052",
"J  c #F85152",
"K  c #FD5353",
"L  c #F95557",
"P  c #FA5656",
"I  c #FD5454",
"U  c #F65C5D",
"Y  c #FB5A5B",
"T  c #FE5858",
"R  c #FB5E5F",
"E  c #FC6364",
"W  c #FD6768",
"Q  c #FD6B6C",
"!  c #FD6F6F",
"~  c #FE6E70",
"^  c #FE7173",
"/  c #FE7273",
"(  c #FE7676",
")  c #FC7C7D",
"_  c #008100",
"`  c #008300",
"'  c #008500",
"]  c #008700",
"[  c #008900",
"{  c #008F00",
"}  c #30A531",
"|  c #33A734",
" . c #35A837",
".. c #39AA3B",
"X. c #3DAD3F",
"o. c #41AE42",
"O. c #45B046",
"+. c #4AB34B",
"@. c #4EB550",
"#. c #50B650",
"$. c #53B854",
"%. c #54B855",
"&. c #57B959",
"*. c #59BA5A",
"=. c #5BBC5D",
"-. c #5EBD5E",
";. c #60BE62",
":. c #62BE63",
">. c #65C066",
",. c #66C167",
"<. c #6AC36B",
"1. c #6FC46E",
"2. c #71C672",
"3. c #75C875",
"4. c #78C879",
"5. c #7ACA7A",
"6. c #7CCB7D",
"7. c #F7B52F",
"8. c #F8B735",
"9. c #F6C22A",
"0. c #F8C736",
"q. c #F9C83A",
"w. c #F9D73C",
"e. c #F8F336",
"r. c #F9F23B",
"t. c #FA8240",
"y. c #FAAA4F",
"u. c #FBAD54",
"i. c #FBCD46",
"p. c #FAD841",
"a. c #FE8A8C",
"s. c #C9D9CB",
"d. c #D3E5D5",
"f. c #E6EEE7",
"g. c #E6EFE7",
"h. c #E8EFE9",
"j. c #E9EFEA",
"k. c #E9F0EA",
"l. c #EAF1EB",
"z. c #EBF5EB",
"x. c #ECF1EC",
"c. c #EDF2ED",
"v. c #EDF9F1",
"b. c #F1F5F2",
"n. c #F2F6F3",
"m. c #F2F7F3",
"M. c #F4F7F4",
"N. c #F3F8F4",
"B. c #F5F8F5",
"V. c #F4F9F5",
"C. c #F5F9F6",
"Z. c #F6F9F6",
"A. c #F6FAF7",
"S. c #F7FBF8",
"D. c #F8FBF8",
"F. c #F8FBF9",
"G. c #F9FCF9",
"H. c #F9FCFA",
"J. c #F9FDFA",
"K. c #FAFDFB",
"L. c #FBFEFC",
/* pixels */
"                                ",
"                                ",
"                                ",
"{ ] ] ] ] _ _ 5 4 2 1 < , > ; : ",
"[ 6.6.5.4.3.2.1.<.,.:.-.*.$.#.= ",
"v.L.J.J.H.J.S.S.S.B.B.M.n.n.n.d.",
"w a.^ ~ Q W E u.y.L J C N v U 9 ",
"w ( T I G A i.p.w.0.g s p u z 9 ",
"w ^ K C A m t.r.e.c d p u t z 9 ",
"w ^ C A m b q.8.7.9.u y t e j 7 ",
"0 ) R Y L G F V M x k h f a B 6 ",
"z.F.S.S.N.N.M.x.x.l.l.h.f.f.h.s.",
"4 >.:.=.*.%.@.+.o.o.X... .| } o ",
"2 , > ; - = & % # # @ + o X . + ",
"                                ",
"                                "
};
