/* XPM */
static char *st[] = {
/* columns rows colors chars-per-pixel */
"16 16 168 2 ",
"   c None",
".  c #002700",
"X  c #002900",
"o  c #002D00",
"O  c #002F00",
"+  c #003300",
"@  c #003500",
"#  c #003900",
"$  c #003D00",
"%  c #2E2E1F",
"&  c #004100",
"*  c #004700",
"=  c #004D00",
"-  c #004F00",
";  c #005100",
":  c #005700",
">  c #005D00",
",  c #006100",
"<  c #006300",
"1  c #006700",
"2  c #006D00",
"3  c #007100",
"4  c #007300",
"5  c #007500",
"6  c #007900",
"7  c #007D00",
"8  c #424236",
"9  c #AD0000",
"0  c #BB0000",
"q  c #E50000",
"w  c #F50000",
"e  c #F90000",
"r  c #FB0000",
"t  c #FD0000",
"y  c red",
"u  c #BA6F44",
"i  c #FC504F",
"p  c #FD5353",
"a  c #FE5958",
"s  c #F46349",
"d  c #FC654B",
"f  c #FC6D4F",
"g  c #FB7749",
"h  c #E86E5F",
"j  c #F5755C",
"k  c #CC7F62",
"l  c #FC6A6A",
"z  c #FD6F6F",
"x  c #E07766",
"c  c #FE7273",
"v  c #FE7676",
"b  c #FE7979",
"n  c #008100",
"m  c #008300",
"M  c #008700",
"N  c #008900",
"B  c #009300",
"V  c #13980B",
"C  c #179A0E",
"Z  c #1C9D13",
"A  c #20A019",
"S  c #25A11E",
"D  c #2AA423",
"F  c #30A729",
"G  c #31A42C",
"H  c #30A72C",
"J  c #34A52F",
"K  c #36A72F",
"L  c #35AA2E",
"P  c #36A732",
"I  c #36AB31",
"U  c #3AA935",
"Y  c #3BAD34",
"T  c #3CAE37",
"R  c #3EAB39",
"E  c #40AF3A",
"W  c #42AE3D",
"Q  c #41B03D",
"!  c #45B43F",
"~  c #46AE42",
"^  c #46B242",
"/  c #4AB146",
"(  c #4BB547",
")  c #4CB349",
"_  c #4FB34B",
"`  c #50B74C",
"'  c #52B64E",
"]  c #53B650",
"[  c #54B951",
"{  c #57B853",
"}  c #58B955",
"|  c #58BB54",
" . c #5CBA57",
".. c #5CBA58",
"X. c #5CBD59",
"o. c #60BD5C",
"O. c #65BE60",
"+. c #5DC05D",
"@. c #5FC05C",
"#. c #69C165",
"$. c #6DC369",
"%. c #70C46D",
"&. c #74C671",
"*. c #77C874",
"=. c #7AC877",
"-. c #7CCA79",
";. c #7BCD7B",
":. c #959319",
">. c #9E9B1A",
",. c #95BF00",
"<. c #8C8A25",
"1. c #99983B",
"2. c #A09E2F",
"3. c #A4A125",
"4. c #AAA730",
"5. c #AEAB3C",
"6. c #9DC700",
"7. c #B5D100",
"8. c #B7D100",
"9. c #BBD500",
"0. c #E2EA10",
"q. c #E6ED14",
"w. c #E6E51F",
"e. c #E6EE19",
"r. c #E6EE1F",
"t. c #F2F214",
"y. c #E7EE24",
"u. c #E5ED26",
"i. c #EBEA2B",
"p. c #E7F02B",
"a. c #EBF12A",
"s. c #ECF22F",
"d. c #F4F420",
"f. c #F5F524",
"g. c #F4F42B",
"h. c #F6F62A",
"j. c #E6ED32",
"k. c #EBEA35",
"l. c #E8F131",
"z. c #EBF234",
"x. c #E9F136",
"c. c #ECF33A",
"v. c #EAF23C",
"b. c #EEF43F",
"n. c #F7F730",
"m. c #F4F436",
"M. c #F8F836",
"N. c #F4F53B",
"B. c #F5F53F",
"V. c #F9F93A",
"C. c #F08845",
"Z. c #FB8C45",
"A. c #FD8054",
"S. c #FD9350",
"D. c #F19659",
"F. c #EE857B",
"G. c #F4827A",
"H. c #E8EF44",
"J. c #F0EF41",
"K. c #ECF442",
"L. c #EDF447",
"P. c #EDF44B",
"I. c #F7F740",
"U. c #FAFA40",
"Y. c #FBFB46",
"T. c #FCFC4B",
"R. c #EEF551",
"E. c #F0F654",
/* pixels */
"                                ",
"                                ",
"                                ",
"0 B N N N m n 7 6 5 3 2 1 , > , ",
"w F.;.-.=.*.&.$.$.#.O.X.X.} ' = ",
"y G.h @.X.| ] _ ) ^ W T I H ) = ",
"y b j D.R.R.P.P.K.v.x.l.p.u.H.6.",
"y v a A.S.T.Y.I.5.M.n.i.3.d.I.9.",
"y c p f d T.B.1.8 4.h.<.% >.N.8.",
"y z i g Z.V.V.k.2.h.f.w.:.t.m.8.",
"e l s C.B.c.z.z.a.u.r.e.q.0.j.6.",
"e x u ^ T Y L F D S A Z V V P O ",
"q F.` [ } ] ) / ~ W R U P P G . ",
"9 5 < , : ; = * & $ # + O O . + ",
"                                ",
"                                "
};
