/* XPM */
static char *sv[] = {
/* columns rows colors chars-per-pixel */
"16 16 143 2 ",
"   c None",
".  c #8DAD5F",
"X  c #91AF64",
"o  c #E9D679",
"O  c #00009F",
"+  c #0000A1",
"@  c #0000A3",
"#  c #0000A5",
"$  c #0000A9",
"%  c #0000AB",
"&  c #0000AD",
"*  c #0000B1",
"=  c #0000B3",
"-  c #0000B5",
";  c #0000B9",
":  c #0000BB",
">  c #0000BF",
",  c #0000C1",
"<  c #0000C5",
"1  c #0003C5",
"2  c #0000C7",
"3  c #0005C9",
"4  c #0007CB",
"5  c #000BCB",
"6  c #0011CF",
"7  c #0017D1",
"8  c #001DD1",
"9  c #0021D3",
"0  c #0027D5",
"q  c #0029D7",
"w  c #002FD7",
"e  c #294ED1",
"r  c #2D51D2",
"t  c #3154D4",
"y  c #3658D5",
"u  c #3B5CD6",
"i  c #4967D7",
"p  c #4061D9",
"a  c #4566DB",
"s  c #4767DB",
"d  c #4968D8",
"f  c #4C6AD8",
"g  c #4E6CD9",
"h  c #4869DC",
"j  c #4C6CDD",
"k  c #4E6DDD",
"l  c #526FDA",
"z  c #5572DB",
"x  c #5170DF",
"c  c #5371DF",
"v  c #5875DC",
"b  c #5C79DD",
"n  c #607CDF",
"m  c #5674E0",
"M  c #5875E0",
"N  c #5B78E1",
"B  c #5C79E2",
"V  c #5F7CE3",
"C  c #607CE0",
"Z  c #657FE1",
"A  c #6480E4",
"S  c #6783E5",
"D  c #6882E2",
"F  c #6983E2",
"G  c #6C85E3",
"H  c #6D86E3",
"J  c #6B86E6",
"K  c #6F89E7",
"L  c #7089E4",
"P  c #708AE5",
"I  c #748DE6",
"U  c #758EE6",
"Y  c #728CE8",
"T  c #748EE9",
"R  c #7890E7",
"E  c #7990E8",
"W  c #7A91E8",
"Q  c #7C94E8",
"!  c #7F97E8",
"~  c #B7CB9E",
"^  c #BACDA1",
"/  c #DED480",
"(  c #8799D3",
")  c #93A1DB",
"_  c #8299EA",
"`  c #859BEB",
"'  c #899EEB",
"]  c #8BA0ED",
"[  c #8CA2ED",
"{  c #8DA2ED",
"}  c #8FA4ED",
"|  c #BBC7F1",
" . c #BFCBF5",
".. c #C4CDEA",
"X. c #C6CEEB",
"o. c #C1CBEC",
"O. c #C8D0ED",
"+. c #C9D2EE",
"@. c #CAD2EF",
"#. c #CBD4EF",
"$. c #CBD5EF",
"%. c #CCD4ED",
"&. c #CDD7EF",
"*. c #C8D2F2",
"=. c #CCD4F0",
"-. c #CED5F2",
";. c #D0D7F3",
":. c #D1D8F1",
">. c #D1D8F2",
",. c #D3DAF3",
"<. c #D2D9F4",
"1. c #D3DAF4",
"2. c #D4DCF4",
"3. c #D5DCF4",
"4. c #D6DDF5",
"5. c #D6DEF6",
"6. c #D8DFF6",
"7. c #D8DFF7",
"8. c #DAE0F8",
"9. c #DBE1F9",
"0. c #DCE2F9",
"q. c gray89",
"w. c gray90",
"e. c #E7E7E7",
"r. c #E0E5F8",
"t. c #E2E8FB",
"y. c gray95",
"u. c #F3F3F3",
"i. c #F4F4F4",
"p. c #F4F5F5",
"a. c gray96",
"s. c #F6F6F5",
"d. c #F6F6F6",
"f. c gray97",
"g. c #F8F8F8",
"h. c #F9F9F8",
"j. c gray98",
"k. c #FBFBFB",
"l. c #FBFCFB",
"z. c gray99",
"x. c #FDFCFD",
"c. c #FDFDFD",
"v. c #FEFEFE",
/* pixels */
"                                ",
"                                ",
"                                ",
"w q q q q 9 8 7 6 5 3 2 2 , > : ",
"q } } [ [ ' ` ` _ Q R I L G D : ",
"0 [ T Y P J A A N N m x j s n * ",
" .t.0.0.7.7.5.1.2.1.;.-.#.@.:.) ",
"c.c.c.c.x.x.x.o / g.g.a.a.i.a.e.",
"c.c.c.z.z.l.*.X . o.a.a.i.u.i.e.",
"c.c.z.l.l.l.g.^ ~ a.a.u.u.u.u.q.",
"| r.8.4.3.:.:.#.#.#.@.@.....%.( ",
"5 W N M m j s s p u y t r e i + ",
"3 R I L G F D n b v z z g f d + ",
"2 2 , > : : - * & $ $ # + + O O ",
"                                ",
"                                "
};
