/* XPM */
static char *sy[] = {
/* columns rows colors chars-per-pixel */
"16 16 108 2 ",
"   c None",
".  c black",
"X  c #0B0B0B",
"o  c #0F0F0E",
"O  c #131313",
"+  c #181919",
"@  c #1E1E1E",
"#  c #232323",
"$  c gray16",
"%  c #2C2C2C",
"&  c gray18",
"*  c #2F2F2F",
"=  c #323232",
"-  c #343434",
";  c #353535",
":  c #393939",
">  c #3A3A3A",
",  c gray24",
"<  c #3F3F3F",
"1  c gray26",
"2  c #444444",
"3  c #464646",
"4  c #4B4B4B",
"5  c #505050",
"6  c #545455",
"7  c #585858",
"8  c #5D5D5D",
"9  c #616162",
"0  c gray40",
"q  c #E90000",
"w  c #EB0000",
"e  c #ED0000",
"r  c #EF0000",
"t  c #F10000",
"y  c #F30000",
"u  c #F50000",
"i  c #F70000",
"p  c #F90000",
"a  c #FB0000",
"s  c #FD0000",
"d  c red",
"f  c #F62C2C",
"g  c #F73131",
"h  c #F83737",
"j  c #F93C3D",
"k  c #FA4242",
"l  c #FB4747",
"z  c #F74949",
"x  c #F74E4E",
"c  c #FC4C4C",
"v  c #F85353",
"b  c #FD5151",
"n  c #F95757",
"m  c #FD5454",
"M  c #FE5959",
"N  c #FA5C5C",
"B  c #FE5C5C",
"V  c #FE5F5F",
"C  c #FB6060",
"Z  c #FC6565",
"A  c #FC6969",
"S  c #FD6D6D",
"D  c #FD7071",
"F  c #FE7474",
"G  c #FE7777",
"H  c #FE7979",
"J  c #FF7B7A",
"K  c #FF7B7B",
"L  c #52B554",
"P  c #66BF67",
"I  c #80C882",
"U  c #85CA86",
"Y  c #95D396",
"T  c #97D39A",
"R  c #9DD49F",
"E  c #9DD69F",
"W  c #A3DAA5",
"Q  c #A7DBA9",
"!  c gray81",
"~  c gray82",
"^  c #D5D5D5",
"/  c #D7D7D7",
"(  c gray93",
")  c #EDEFEF",
"_  c #EFEFEF",
"`  c #E1F0E1",
"'  c #E9F3EB",
"]  c #F1F1F1",
"[  c gray95",
"{  c #F3F3F3",
"}  c #F4F4F4",
"|  c #F4F5F5",
" . c gray96",
".. c #F6F6F6",
"X. c gray97",
"o. c #F1F9F0",
"O. c #F3F8F6",
"+. c #F3FBF7",
"@. c #F5FBF5",
"#. c #F4FBF6",
"$. c #F8F8F8",
"%. c #F9F9F9",
"&. c #FAFAFA",
"*. c #FBFBFB",
"=. c #FBFCFB",
"-. c gray99",
";. c #FDFDFD",
":. c #FEFEFE",
/* pixels */
"                                ",
"                                ",
"                                ",
"d d d d a d d a a a i i y y e e ",
"d K K K F F D S A Z C N n v x w ",
"d K V B B m b c c k j h g f z w ",
"] :.:.:.-.:.*.*.*...$........./ ",
"] :.:.:.#.Q #.*.*.} T ' ..] } / ",
"_ :.:.=.W P R *.O.R L I } ....! ",
"_ :.*.=.@.Y o...X...U ` ] ] } ~ ",
"( *.=.*.*.*.........} } ] ] ] ~ ",
". 0 2 < : = * % # @ + O o X * . ",
". 9 8 7 6 5 4 3 1 , : ; = = % . ",
". . . . . . . . . . . . . . . . ",
"                                ",
"                                "
};
