/* XPM */
static char *tc[] = {
/* columns rows colors chars-per-pixel */
"16 16 163 2 ",
"   c None",
".  c #00000B",
"X  c #00000D",
"o  c #00000F",
"O  c #000011",
"+  c #000015",
"@  c #000017",
"#  c #00001D",
"$  c #00001F",
"%  c #000021",
"&  c #000025",
"*  c #00002B",
"=  c #000031",
"-  c #000037",
";  c #00003D",
":  c #00003F",
">  c #000043",
",  c #000049",
"<  c #00004F",
"1  c #000055",
"2  c #00005B",
"3  c #00005F",
"4  c #000061",
"5  c #000063",
"6  c #000065",
"7  c #000069",
"8  c #5D2D5D",
"9  c #732147",
"0  c #7F355B",
"q  c #5B3F71",
"w  c #274E7D",
"e  c #2E527E",
"r  c #4C6274",
"t  c #576D7D",
"y  c #CD1919",
"u  c #832543",
"i  c #AD5F73",
"p  c #BF6F7D",
"a  c #D56F74",
"s  c #E26869",
"d  c #E57372",
"f  c #E0797A",
"g  c #E97C79",
"h  c #B19B3E",
"j  c #BCA33F",
"k  c #C8AC2E",
"l  c #C8AE35",
"z  c #C7B337",
"x  c #CBBF3B",
"c  c #E3AE30",
"v  c #E7BB34",
"b  c #B79F47",
"n  c #83BF4D",
"m  c #B8A24F",
"M  c #C3A543",
"N  c #D2B241",
"B  c #DDBA50",
"V  c #90C344",
"C  c #F0CB5E",
"Z  c #001D87",
"A  c #1D3783",
"S  c #002F95",
"D  c #1E4E96",
"F  c #305581",
"G  c #335886",
"H  c #235299",
"J  c #245199",
"K  c #29579C",
"L  c #2A579C",
"P  c #2C589A",
"I  c #2F5A9D",
"U  c #2E5B9F",
"Y  c #2F5B9F",
"T  c #335B9E",
"R  c #325D9E",
"E  c #3A5F9F",
"W  c #2A51A2",
"Q  c #2F5CA0",
"!  c #365BA6",
"~  c #3057A9",
"^  c #3560A0",
"/  c #3460A2",
"(  c #3561A2",
")  c #3963A3",
"_  c #3A64A5",
"`  c #3A65A5",
"'  c #3B65A5",
"]  c #3D66A4",
"[  c #3E65A6",
"{  c #3B60AA",
"}  c #3C63A8",
"|  c #3F66AB",
" . c #3F69A8",
".. c #527094",
"X. c #5F7B9E",
"o. c #426AA6",
"O. c #4166AE",
"+. c #4069A8",
"@. c #406AA8",
"#. c #476BA8",
"$. c #466EA9",
"%. c #446DAB",
"&. c #456EAB",
"*. c #4269AC",
"=. c #446AAE",
"-. c #456DAE",
";. c #466CAE",
":. c #496FAC",
">. c #506FA8",
",. c #4B71AC",
"<. c #4972AE",
"1. c #4E75AE",
"2. c #4F75AF",
"3. c #5075AE",
"4. c #5F73A9",
"5. c #4971B0",
"6. c #5379B0",
"7. c #5479B1",
"8. c #537AB7",
"9. c #587BB3",
"0. c #587DB3",
"q. c #5C7FB5",
"w. c #7777A3",
"e. c #7F78A1",
"r. c #80749C",
"t. c #E07F81",
"y. c #72848C",
"u. c #74868E",
"i. c #5D81B5",
"p. c #6183B8",
"a. c #6184B9",
"s. c #6285B9",
"d. c #6587BA",
"f. c #6688BA",
"g. c #698ABC",
"h. c #6A8BBD",
"j. c #6F8FBF",
"k. c #A9829B",
"l. c #BC8597",
"z. c #9186A7",
"x. c #9486A7",
"c. c #8A94B9",
"v. c #9797B9",
"b. c #C38493",
"n. c #D38A92",
"m. c #E18587",
"M. c #EC8381",
"N. c #E69495",
"B. c #D69FA9",
"V. c #D6ACB6",
"C. c #D5AEB7",
"Z. c #F1A6A4",
"A. c #F0A8A7",
"S. c #E4D2A1",
"D. c #96ACD0",
"F. c #93B0D5",
"G. c #D4B9C4",
"H. c #DDBAC3",
"J. c #E0B9C0",
"K. c #DDD4DE",
"L. c #E2C3CA",
"P. c #E2CCD3",
"I. c #F6E9CD",
/* pixels */
"                                ",
"                                ",
"                                ",
"p w.S 9 u Z 8 i 6 3 2 1 < , > : ",
"A H.K.V.B.G.P.D.g.d.p.q.0.6.1.- ",
"y N.M.d s g f a >.*.X.u.y...:.= ",
"0 J.Z.t.m.A.n.k.#.} B C v m =.* ",
"4.L.v.l.b.F.V.x.[ O.S.I.c b | & ",
"q c.8.e.r.-.s.x.E ~ N x z j { $ ",
"7 j.1.<.-. .` ^ Q W M n V h ! @ ",
"6 g.<.-.@.` / U L J t l k r T @ ",
"5 f.-. .` ^ I K H D G F e w I X ",
"2 s.i.0.7.3.,.$.o.] ) ^ R I P X ",
"1 < , > : - = * & % $ @ O X X X ",
"                                ",
"                                "
};
