/* XPM */
static char *td[] = {
/* columns rows colors chars-per-pixel */
"16 16 163 2 ",
"   c None",
".  c #BF0000",
"X  c #C10000",
"o  c #C30000",
"O  c #C50000",
"+  c #C90000",
"@  c #CB0000",
"#  c #CD0000",
"$  c #CF0000",
"%  c #D30000",
"&  c #D70000",
"*  c #D90000",
"=  c #DB0000",
"-  c #DF0000",
";  c #E12525",
":  c #E22828",
">  c #E22A2A",
",  c #E32A2C",
"<  c #E32C2D",
"1  c #E42E2E",
"2  c #E42E31",
"3  c #E43132",
"4  c #E43233",
"5  c #E63436",
"6  c #E63737",
"7  c #E63838",
"8  c #E7393C",
"9  c #E73C3D",
"0  c #E73E3D",
"q  c #E93E41",
"w  c #E44242",
"e  c #E54545",
"r  c #E94142",
"t  c #E94242",
"y  c #EA4547",
"u  c #E64748",
"i  c #EA4748",
"p  c #E64848",
"a  c #E7484B",
"s  c #EB4A4C",
"d  c #E84C4C",
"f  c #E85050",
"g  c #E95454",
"h  c #EB5958",
"j  c #EB5D5D",
"k  c #ED6161",
"l  c #ED6565",
"z  c #EE696A",
"x  c #F06C6E",
"c  c #CD9700",
"v  c #C1AB00",
"b  c #D1B700",
"n  c #D5B500",
"m  c #D7B900",
"M  c #DBBD00",
"N  c #E7BB00",
"B  c #EDD301",
"V  c #EBD500",
"C  c #EDD507",
"Z  c #F1D90B",
"A  c #DBC921",
"S  c #E9CD50",
"D  c #EAD054",
"F  c #EBDE57",
"G  c #ECD159",
"H  c #EDD35E",
"J  c #ECDD5A",
"K  c #EEDF5F",
"L  c #ECE05B",
"P  c #EED563",
"I  c #EFD767",
"U  c #ECD368",
"Y  c #F1D96C",
"T  c #E3D870",
"R  c #E5DA74",
"E  c #E6DC79",
"W  c #E7DD7D",
"Q  c #EEE260",
"!  c #EFE163",
"~  c #EFE164",
"^  c #EFE365",
"/  c #EDE26E",
"(  c #F0E261",
")  c #F1E466",
"_  c #F0E268",
"`  c #F0E569",
"'  c #F2E56B",
"]  c #F1E46D",
"[  c #F1E46E",
"{  c #F1E66F",
"}  c #F3E76F",
"|  c #EEE270",
" . c #EEE275",
".. c #F2E571",
"X. c #F2E572",
"o. c #F3E775",
"O. c #F1E577",
"+. c #F4E777",
"@. c #F2E873",
"#. c #F4E874",
"$. c #F5EA78",
"%. c #F5E87A",
"&. c #F6EA7C",
"*. c #000093",
"=. c #000095",
"-. c #000399",
";. c #000FA1",
":. c #0019A3",
">. c #001BA5",
",. c #0021A9",
"<. c #0029AD",
"1. c #002DAF",
"2. c #002DB7",
"3. c #0031B1",
"4. c #0133B3",
"5. c #0335B3",
"6. c #0537B3",
"7. c #0335B5",
"8. c #1543B9",
"9. c #5173CB",
"0. c #5777CD",
"q. c #5B7ACB",
"w. c #5B7BCF",
"e. c #607ECD",
"r. c #607FCD",
"t. c #617FD2",
"y. c #6583CE",
"u. c #6482CF",
"i. c #6584D4",
"p. c #6986D1",
"a. c #6A87D0",
"s. c #6985D2",
"d. c #6987D5",
"f. c #6D8AD3",
"g. c #6E8AD2",
"h. c #6E8AD6",
"j. c #708CD2",
"k. c #718ED3",
"l. c #708DD4",
"z. c #748FD5",
"x. c #7590D3",
"c. c #7590D5",
"v. c #7A93D4",
"b. c #7893D6",
"n. c #7D96D6",
"m. c #E6DD83",
"M. c #E9DF81",
"N. c #E9E185",
"B. c #EBE288",
"V. c #F4E188",
"C. c #F6ED8E",
"Z. c #F7EC8F",
"A. c #EFE89E",
"S. c #F7ED93",
"D. c #F8EE94",
"F. c #819AD8",
"G. c #859DD8",
"H. c #879EDA",
"J. c #889FDE",
"K. c #8AA2DC",
"L. c #8DA4DD",
"P. c #8EA4DD",
"I. c #8FA5DD",
/* pixels */
"                                ",
"                                ",
"                                ",
"8.6.6.7.2.A Z C B V N - * * * & ",
"4.I.I.I.J.A.D.S.Z.C.V.x z l k & ",
"6.I.c.z.h.B.&.$.o.o.Y s i t j # ",
"5.L.z.k.d.N.$.o.X.X.I i t 0 h # ",
"4.K.k.g.i.M.#.X.[ ^ P q 9 7 g @ ",
"1.K.g.s.i. .} [ _ ^ H 9 6 4 f @ ",
"<.G.a.y.0.E ` ) ~ Q G 5 3 1 d O ",
",.F.u.q.0.E ) ^ Q J D 2 < > p X ",
":.n.u.0.9.T ( P J F S , > ; e X ",
";.v.x.k.s.m.O. .| / U a e e w . ",
":.-.=.*.=.v M m n b c O O X . X ",
"                                ",
"                                "
};
