/* XPM */
static char *tf[] = {
/* columns rows colors chars-per-pixel */
"16 16 144 2 ",
"   c None",
".  c #00000B",
"X  c #00000D",
"o  c #00000F",
"O  c #000011",
"+  c #000015",
"@  c #000017",
"#  c #000019",
"$  c #00001B",
"%  c #00001D",
"&  c #000021",
"*  c #000025",
"=  c #000027",
"-  c #00002B",
";  c #00002D",
":  c #000033",
">  c #000039",
",  c #00003F",
"<  c #000043",
"1  c #000045",
"2  c #000049",
"3  c #00004B",
"4  c #000051",
"5  c #000057",
"6  c #00005D",
"7  c #000061",
"8  c #000063",
"9  c #000065",
"0  c #00006B",
"q  c #00006F",
"w  c #000373",
"e  c #000975",
"r  c #000977",
"t  c #FB0000",
"y  c #FD0000",
"u  c #F83636",
"i  c #F93B3B",
"p  c #F93B3C",
"a  c #FA4040",
"s  c #FA4141",
"d  c #FA4142",
"f  c #FB4646",
"g  c #FB4747",
"h  c #FC4B4B",
"j  c #FC4C4C",
"k  c #FD5151",
"l  c #FC6969",
"z  c #FD6D6D",
"x  c #FD7071",
"c  c #2D4190",
"v  c #304391",
"b  c #314492",
"n  c #354894",
"m  c #364994",
"M  c #374A96",
"N  c #3A4D95",
"B  c #3B4D97",
"V  c #3A4D98",
"C  c #3B4E99",
"Z  c #3C4E99",
"A  c #3C4F99",
"S  c #3E5098",
"D  c #3F529B",
"F  c #405199",
"G  c #425399",
"H  c #40529A",
"J  c #40539B",
"K  c #42559B",
"L  c #41539C",
"P  c #41549C",
"I  c #45569D",
"U  c #45579D",
"Y  c #44589F",
"T  c #46589F",
"R  c #4A5B9E",
"E  c #485AA0",
"W  c #4A5BA0",
"Q  c #4A5DA3",
"!  c #4E5FA1",
"~  c #4C5DA2",
"^  c #4E5FA3",
"/  c #4E60A3",
"(  c #4F60A3",
")  c #4F62A6",
"_  c #5060A2",
"`  c #5364A2",
"'  c #5263A4",
"]  c #5364A6",
"[  c #5665A4",
"{  c #5464A6",
"}  c #5767A7",
"|  c #5A69A7",
" . c #5868A8",
".. c #5868A9",
"X. c #5869A9",
"o. c #5C6BA9",
"O. c #5E6DA9",
"+. c #5C6DAC",
"@. c #5D6DAC",
"#. c #606FAC",
"$. c #6171AD",
"%. c #6171AE",
"&. c #6574AE",
"*. c #6575AF",
"=. c #6675B1",
"-. c #6977B2",
";. c #6A78B2",
":. c #6D7BB3",
">. c #6E7CB3",
",. c #6A79B4",
"<. c #6E7CB5",
"1. c #6F7FB7",
"2. c #717FB7",
"3. c #7581B3",
"4. c #7280B6",
"5. c #7784B4",
"6. c #7B88B7",
"7. c #7483BA",
"8. c #7684B9",
"9. c #7A88BB",
"0. c #7D89B8",
"q. c #7D89B9",
"w. c #7F8BBE",
"e. c #828EBF",
"r. c #8591C1",
"t. c #8894C3",
"y. c #8A95C5",
"u. c #8C98C5",
"i. c #8C98C6",
"p. c #8D98C6",
"a. c #919BC2",
"s. c #BBC1D5",
"d. c #BCC2D7",
"f. c #DCDEE7",
"g. c #DFE1E7",
"h. c #E2E4EA",
"j. c #E6E8ED",
"k. c #E8E9EE",
"l. c #FBFBFB",
"z. c gray99",
"x. c #FDFCFD",
"c. c #FDFDFD",
"v. c #FEFEFE",
"b. c white",
/* pixels */
"                                ",
"                                ",
"                                ",
"r r r b.b.b.y y t 7 6 5 4 2 < 2 ",
"r p.y.b.b.b.x z l 1.:.-.*.#.o.> ",
"r p.4.b.b.b.k j g ) ! T L Z } : ",
"r t.4.b.l.b.h f a Q T P C M ' ; ",
"w t.<.b.l.l.f a p E D B n b ! * ",
"q r.-.b.z.l.a i u D Z n v c R & ",
"0 r.=.+.+...[ / W P 0.k.j.f.0.# ",
"9 w.=.+. .] / W I D K 0.s.F A + ",
"7 9.+. .] ^ W I D C ` h.s.h.3.O ",
"6 8.4.<.;.*.$.O. .[ ` a.h.5.B X ",
"5 4 2 1 , > : ; - & % # + X . # ",
"                                ",
"                                "
};
