/* XPM */
static char *tg[] = {
/* columns rows colors chars-per-pixel */
"16 16 156 2 ",
"   c None",
".  c #002700",
"X  c #002900",
"o  c #002B00",
"O  c #002D00",
"+  c #002F00",
"@  c #003100",
"#  c #003300",
"$  c #003700",
"%  c #003D00",
"&  c #003F00",
"*  c #004500",
"=  c #004B00",
"-  c #004D00",
";  c #004F00",
":  c #005100",
">  c #005500",
",  c #005B00",
"<  c #005F00",
"1  c #006100",
"2  c #006500",
"3  c #006B00",
"4  c #006F00",
"5  c #007100",
"6  c #007300",
"7  c #007700",
"8  c #FD0000",
"9  c red",
"0  c #AB7D00",
"q  c #F94646",
"w  c #FB4646",
"e  c #FA4B4B",
"r  c #FC4B4B",
"t  c #FB5050",
"y  c #FB5151",
"u  c #FB5554",
"i  c #FC5555",
"p  c #FC5656",
"a  c #FC5959",
"s  c #FD5B5B",
"d  c #FD5E5E",
"f  c #FE7172",
"g  c #FD7777",
"h  c #FE7676",
"j  c #FE7777",
"k  c #FD797A",
"l  c #FE7B7B",
"z  c #FF7B7B",
"x  c #FE7D7D",
"c  c #FE7E7E",
"v  c #008700",
"b  c #1A971A",
"n  c #1F9A1F",
"m  c #259D25",
"M  c #2AA02B",
"N  c #30A32C",
"B  c #33A42F",
"V  c #30A330",
"C  c #35A632",
"Z  c #36A636",
"A  c #39A835",
"S  c #3BA63B",
"D  c #3DAA39",
"F  c #3BB13B",
"G  c #4BA314",
"H  c #4FA519",
"J  c #54A81F",
"K  c #5BA920",
"L  c #58AB24",
"P  c #5FAC25",
"I  c #5DAD2A",
"U  c #41AD3D",
"Y  c #55B035",
"T  c #63AE2B",
"R  c #61B02F",
"E  c #67B130",
"W  c #65B036",
"Q  c #6BB436",
"!  c #6FB63C",
"~  c #72B53F",
"^  c #45AE42",
"/  c #4AB046",
"(  c #4EB34B",
")  c #50B44E",
"_  c #53B550",
"`  c #54B753",
"'  c #57B855",
"]  c #59B957",
"[  c #5BBA58",
"{  c #5EBB5C",
"}  c #74BE41",
"|  c #60BC5D",
" . c #62BE60",
".. c #65BE62",
"X. c #66C065",
"o. c #6AC269",
"O. c #6FC96D",
"+. c #DF8D00",
"@. c #D59700",
"#. c #E79D00",
"$. c #D3B100",
"%. c #D6BE0B",
"&. c #D7C00E",
"*. c #D9C213",
"=. c #DAC419",
"-. c #DCC61E",
";. c #FBC500",
":. c #F2C710",
">. c #F2C914",
",. c #F3CA19",
"<. c #F4CC1F",
"1. c #DDC723",
"2. c #DFCA29",
"3. c #DCC82F",
"4. c #E1CC2E",
"5. c #EBCE2C",
"6. c #F5CE24",
"7. c #F5CF26",
"8. c #F6D02A",
"9. c #F6D12B",
"0. c #F7D22F",
"q. c #E2CE34",
"w. c #E4CF3A",
"e. c #F3CE32",
"r. c #EDD031",
"t. c #EED237",
"y. c #E4D13F",
"u. c #EFD43D",
"i. c #F7D331",
"p. c #F8D534",
"a. c #F8D536",
"s. c #F9D63C",
"d. c #F9D93A",
"f. c #FADA3F",
"g. c #E6D344",
"h. c #EDD549",
"j. c #EDDA4C",
"k. c #F0D542",
"l. c #F1D747",
"z. c #F6D644",
"x. c #FAD842",
"c. c #FBDC45",
"v. c #FBDD49",
"b. c #FBE347",
"n. c #EBDC66",
"m. c #FCE46A",
"M. c #FF8383",
"N. c #FE8787",
"B. c #FE9B9B",
"V. c #FDB3B4",
"C. c #FEB7B7",
"Z. c #FED0D0",
"A. c #FEDADA",
"S. c #FDDEDE",
"D. c #FDE4E4",
"F. c #FEFEFE",
/* pixels */
"                                ",
"                                ",
"                                ",
"9 9 9 9 8 9 9 v 7 6 4 3 2 1 , < ",
"9 z z x z z z O.o.X. .{ ] ` ) - ",
"9 M.B.Z.f s s j.l.k.u.t.r.5.h.@.",
"9 x A.F.S.s p b.x.s.a.i.9.7.z.#.",
"9 h C.D.V.e y } ! Q E T P K ~ : ",
"9 N.d s i q e F Z V M m n b S @ ",
"9 g a u r e q Y R I K J H G W * ",
";.m.c.c.x.d.i.0.9.6.<.,.>.:.e.+.",
"$.n.g.y.y.q.4.4.1.-.=.*.%.%.3.0 ",
"6 ..| [ ] ) ) / ^ U D A Z V N X ",
"7 1 < < > : = * % % $ @ O O X @ ",
"                                ",
"                                "
};
