/* XPM */
static char *th[] = {
/* columns rows colors chars-per-pixel */
"16 16 143 2 ",
"   c None",
".  c #000025",
"X  c #000031",
"o  c #000033",
"O  c #00005B",
"+  c #000073",
"@  c #00007B",
"#  c #00007D",
"$  c #00007F",
"%  c #DD0000",
"&  c #DF0000",
"*  c #E10000",
"=  c #E30000",
"-  c #E50000",
";  c #E70000",
":  c #E90000",
">  c #EB0000",
",  c #ED0000",
"<  c #EF0000",
"1  c #F10000",
"2  c #F30000",
"3  c #F50000",
"4  c #F70000",
"5  c #F90000",
"6  c #FB0000",
"7  c #FD0000",
"8  c red",
"9  c #F24343",
"0  c #F24646",
"q  c #F24949",
"w  c #F34B4B",
"e  c #F44F4F",
"r  c #F55353",
"t  c #F65757",
"y  c #F75858",
"u  c #F75B5B",
"i  c #F85C5C",
"p  c #F76060",
"a  c #F96060",
"s  c #F86364",
"d  c #FA6565",
"f  c #F96868",
"g  c #F96B6B",
"h  c #FB6A6A",
"j  c #FA6F6F",
"k  c #FC6E6E",
"l  c #FC7272",
"z  c #FB7474",
"x  c #FD7575",
"c  c #FD797A",
"v  c #FE7B7B",
"b  c #FE7F7F",
"n  c #0B0D99",
"m  c #141494",
"M  c #191996",
"N  c #1A1A9A",
"B  c #1F1F99",
"V  c #1F1F9D",
"C  c #20209B",
"Z  c #24249C",
"A  c #25259E",
"S  c #25259F",
"D  c #2A2A9F",
"F  c #2B2BA1",
"G  c #2A2BA3",
"H  c #2F2FA2",
"J  c #3636A3",
"K  c #3030A4",
"L  c #3030A5",
"P  c #3535A5",
"I  c #3636A7",
"U  c #3B3BA7",
"Y  c #3636A8",
"T  c #3B3BA9",
"R  c #3B3BAA",
"E  c #3B3BAB",
"W  c #3F3FA9",
"Q  c #4040AA",
"!  c #4141AC",
"~  c #4040AE",
"^  c #4545AD",
"/  c #4646AF",
"(  c #4E50AF",
")  c #4145B1",
"_  c #4646B1",
"`  c #494AB0",
"'  c #4B4BB2",
"]  c #4B4AB3",
"[  c #4F4FB2",
"{  c #4F4FB5",
"}  c #504FB4",
"|  c #5153B1",
" . c #5557B3",
".. c #5353B7",
"X. c #5454B6",
"o. c #595BB5",
"O. c #5858B8",
"+. c #5D5FB8",
"@. c #6263BA",
"#. c #6667BC",
"$. c #6769BA",
"%. c #6A6CBF",
"&. c #6F6FC0",
"*. c #6E70C1",
"=. c #7374C3",
"-. c #7272C4",
";. c #7676C5",
":. c #7779C2",
">. c #7778C6",
",. c #7B7BC4",
"<. c #7B7CC7",
"1. c #7F80C6",
"2. c #FE8180",
"3. c #FF8383",
"4. c #8283C8",
"5. c #8587CA",
"6. c #8A8BCB",
"7. c #898ACC",
"8. c #8C8ECF",
"9. c #9091D0",
"0. c #9394D2",
"q. c #9395D2",
"w. c #9697D4",
"e. c #989AD5",
"r. c #9B9CD6",
"t. c #ADAEDD",
"y. c #DFDFDF",
"u. c #E9E9E9",
"i. c #F1F1F1",
"p. c gray95",
"a. c #F3F3F3",
"s. c #F4F4F4",
"d. c gray96",
"f. c #F6F6F6",
"g. c gray97",
"h. c #F8F8F8",
"j. c #F9F9F9",
"k. c #FAFAFA",
"l. c #FBFBFB",
"z. c gray99",
"x. c #FDFDFD",
"c. c #FEFEFE",
"v. c white",
/* pixels */
"                                ",
"                                ",
"                                ",
"8 8 8 8 6 8 8 8 6 6 4 4 2 2 , , ",
"8 3.3.b b v c z x k h d a u u > ",
"v.v.v.v.v.v.v.z.l.h.h.h.g.g.g.u.",
") t.r.e.q.q.9.8.7.5.4.1.,.:.6.# ",
"# ;.O.X.[ ' / ! R I K F A C W o ",
"# -...{ ] _ ~ E Y K F A V N R o ",
"+ *.[ ` ^ W T P H F C B M m J . ",
"n q.<.>.=.*.&.@.@.+.o. .| ( $.O ",
"h.z.k.k.h.h.g.g.g.a.a.a.i.a.a.y.",
"4 z j g h p p u t r e w 0 0 9 % ",
"4 2 2 , , , > > ; ; * * & & % % ",
"                                ",
"                                "
};
