/* XPM */
static char *tj[] = {
/* columns rows colors chars-per-pixel */
"16 16 116 2 ",
"   c None",
".  c black",
"X  c #000700",
"o  c #000F00",
"O  c #001700",
"+  c #001D00",
"@  c #002500",
"#  c #0B640B",
"$  c #0F670E",
"%  c #136A13",
"&  c #186D19",
"*  c #1E711E",
"=  c #237523",
"-  c #297829",
";  c #2C792C",
":  c #2F7A2F",
">  c #2F7B2F",
",  c #2E7C2E",
"<  c #327D32",
"1  c #357F35",
"2  c #950000",
"3  c #990000",
"4  c #9D0000",
"5  c #A10000",
"6  c #A50000",
"7  c #A70000",
"8  c #AB0000",
"9  c #AF0000",
"0  c #B10000",
"q  c #B30000",
"w  c #B70000",
"e  c #BB0000",
"r  c #BD0000",
"t  c #BF0000",
"y  c #CE2C2C",
"u  c #D03131",
"i  c #D13737",
"p  c #D33C3D",
"a  c #D54242",
"s  c #D64747",
"d  c #D44949",
"f  c #D64E4E",
"g  c #D84C4C",
"h  c #D95151",
"j  c #D85353",
"k  c #DB5454",
"l  c #D95757",
"z  c #DD5959",
"x  c #DA5C5C",
"c  c #DD5C5C",
"v  c #DE5F5F",
"b  c #DC6060",
"n  c #DD6565",
"m  c #DE6969",
"M  c #DF6D6D",
"N  c #E17071",
"B  c #E27474",
"V  c #E27777",
"C  c #E37979",
"Z  c #E47B7A",
"A  c #E47B7B",
"S  c #348034",
"D  c #398239",
"F  c #3A843A",
"G  c #3D843D",
"H  c #3F873F",
"J  c #428842",
"K  c #448B44",
"L  c #468A46",
"P  c #4B8E4B",
"I  c #509150",
"U  c #549455",
"Y  c #589758",
"T  c #5D9A5D",
"R  c #619E62",
"E  c #66A166",
"W  c #F5CF5D",
"Q  c #F6D161",
"!  c #F5D673",
"~  c #F3D475",
"^  c #F4D678",
"/  c #F7D97D",
"(  c #F5D87E",
")  c #F7DB83",
"_  c #F8DD8C",
"`  c #F8DE8D",
"'  c #F6DF97",
"]  c #F7E19A",
"[  c #F7E19B",
"{  c #F8E29E",
"}  c #F9E5A8",
"|  c #F8E5AB",
" . c #F9E9B6",
".. c LightGray",
"X. c #D5D5D5",
"o. c #D7D7D7",
"O. c gray86",
"+. c #F8F2DD",
"@. c #F8F6EE",
"#. c #F1F1F1",
"$. c gray95",
"%. c #F3F3F3",
"&. c #F4F4F4",
"*. c #F4F5F5",
"=. c gray96",
"-. c #F6F6F6",
";. c gray97",
":. c #F8F8F8",
">. c #F9F9F9",
",. c #FAFAFA",
"<. c #FBFBFB",
"1. c #FBFCFB",
"2. c gray99",
"3. c #FDFCFD",
"4. c #FDFDFD",
"5. c #FEFEFE",
/* pixels */
"                                ",
"                                ",
"                                ",
"t t t t t e e w q q 9 8 6 6 5 4 ",
"t A Z Z V B N M m n b x l k f 3 ",
"t A v c z k h g s a p i u y d 2 ",
"=.5.5.5.2.5./ } | ! @.:.=.=.=.O.",
"=.5.5.5.2.`  .{ [ +.( =.=.=.=.o.",
"%.5.5.1.` :.:.[ ' =.=.~ =.%.&.o.",
"%.5.1.5.5.5.) Q W ^ =.&.%.%.%...",
"#.:.1.:.:.:.:.=.=.=.%.%.%.%.%...",
"@ E K J F S , - = = & % $ # > . ",
"+ R T Y U I P L J G D 1 < > > . ",
"O O X . . . . . . . . . . . . . ",
"                                ",
"                                "
};
