/* XPM */
static char *tk[] = {
/* columns rows colors chars-per-pixel */
"16 16 156 2 ",
"   c None",
".  c #000071",
"X  c #000073",
"o  c #000077",
"O  c #000079",
"+  c #00007B",
"@  c #00007D",
"#  c #00007F",
"$  c #407C68",
"%  c #52A03B",
"&  c #57A33F",
"*  c #5BA450",
"=  c #60A448",
"-  c #498A65",
";  c #43806B",
":  c #5A8E7E",
">  c #A3A65E",
",  c #AFB05D",
"<  c #969662",
"1  c #A7A464",
"2  c #A4A56B",
"3  c #B0B161",
"4  c #B0B164",
"5  c #B4B568",
"6  c #B7B96B",
"7  c #A6A679",
"8  c #A7A87A",
"9  c #B7B872",
"0  c #BAB871",
"q  c #B0B27D",
"w  c #B4B47F",
"e  c #B8B67F",
"r  c #BABC7A",
"t  c #C5BA45",
"y  c #C1BB5A",
"u  c #D9CE4D",
"i  c #CAC255",
"p  c #CCC459",
"a  c #CEC85D",
"s  c #D3CB58",
"d  c #DDD258",
"f  c #EADB4B",
"g  c #EBDD50",
"h  c #CFC860",
"j  c #D6CD6E",
"k  c #D8D065",
"l  c #C9C679",
"z  c #DFD97C",
"x  c #F3E670",
"c  c #F4E874",
"v  c #000081",
"b  c #000083",
"n  c #000085",
"m  c #000087",
"M  c #00008D",
"N  c #000091",
"B  c #000093",
"V  c #000099",
"C  c #00009D",
"Z  c #0000A1",
"A  c #0000A5",
"S  c #0000A7",
"D  c #0000A9",
"F  c #0000AB",
"G  c #0000AD",
"H  c #0000AF",
"J  c #0000B3",
"K  c #0000B5",
"L  c #0000B9",
"P  c #0000BB",
"I  c #0B2CBE",
"U  c #1334BB",
"Y  c #1030BF",
"T  c #2D5AB1",
"R  c #2A56B9",
"E  c #465DBC",
"W  c #4461BE",
"Q  c #0000C3",
"!  c #0001C3",
"~  c #0003C5",
"^  c #0005C5",
"/  c #000BC5",
"(  c #1435C1",
")  c #1A3AC4",
"_  c #203FC6",
"`  c #2C48C6",
"'  c #2F4BC7",
"]  c #2645C8",
"[  c #2F4BC8",
"{  c #2C49CA",
"}  c #2F4CCF",
"|  c #324DC8",
" . c #334EC8",
".. c #3651C9",
"X. c #3651CF",
"o. c #3B56CC",
"O. c #3F5ACD",
"+. c #3551D0",
"@. c #3B56D1",
"#. c #3B56D2",
"$. c #445ECF",
"%. c #415BD2",
"&. c #445FD2",
"*. c #5268C3",
"=. c #516CC5",
"-. c #4963D1",
";. c #4E67D3",
":. c #4963D4",
">. c #4F68D6",
",. c #556ED3",
"<. c #536BD4",
"1. c #586FD6",
"2. c #536CD8",
"3. c #5D77D2",
"4. c #5F76D4",
"5. c #5871D9",
"6. c #5870DA",
"7. c #5D75D8",
"8. c #5C7ADF",
"9. c #6578C8",
"0. c #6D7FCC",
"q. c #6178D9",
"w. c #667CDB",
"e. c #607CDC",
"r. c #5F7DE0",
"t. c #7A838D",
"y. c #7B8BBE",
"u. c #6A80DD",
"i. c #6F84DE",
"p. c #7286DF",
"a. c #7F91DA",
"s. c #768AE0",
"d. c #7991E5",
"f. c #7992E5",
"g. c #7B94E6",
"h. c #828E82",
"j. c #818E88",
"k. c #89908E",
"l. c #8B978E",
"z. c #919E81",
"x. c #8C9991",
"c. c #8B939C",
"v. c #919C99",
"b. c #9DA98E",
"n. c #97A29B",
"m. c #A0A595",
"M. c #A0AB92",
"N. c #A1A79B",
"B. c #A4B093",
"V. c #8C96A7",
"C. c #AAAFA1",
"Z. c #B3B8AE",
"A. c #E3DC86",
"S. c #E2E7F6",
"D. c #E9EBF7",
"F. c #E7EAF8",
/* pixels */
"                                ",
"                                ",
"                                ",
"/ ^ ^ ^ Q P K S Z G G F S Z C C ",
"~ g.g.g.a.Z.A.c x z B.u.5.<.;.B ",
"^ g.8.e.D.y.l B.M.b.s 7 E ` -.B ",
"~ d.8.6.4.D.3.w q 0 6 i t.] $.M ",
"Q s.6.N.V.,.S.%.@.l.5 t.1 ] O.n ",
"P p.2.j n.r =.#.X.W 3 t.t _ o.# ",
"J i.>.w v.d x.+.| R * = < U ..# ",
"J u.:.c.0 a u y 2 T - = $ Y ..+ ",
"G w.:.*.8 p z.3 3 > $ % U I ' + ",
"G q.4.1.9.m.k g f s k.: ..' ` o ",
"F S Z C V V M . . v n # + + + + ",
"                                ",
"                                "
};
