/* XPM */
static char *tl[] = {
/* columns rows colors chars-per-pixel */
"16 16 135 2 ",
"   c None",
".  c black",
"X  c #450000",
"o  c #711900",
"O  c #494949",
"+  c #4B4A4B",
"@  c #4C4C52",
"#  c #545458",
"$  c gray36",
"%  c #717145",
"&  c gray40",
"*  c #6D6D6D",
"=  c #797979",
"-  c #7B7B7A",
";  c #DD0000",
":  c #DF0000",
">  c #E10000",
",  c #E30000",
"<  c #E50000",
"1  c #E70000",
"2  c #E90000",
"3  c #EB0000",
"4  c #ED0000",
"5  c #EF0000",
"6  c #F10000",
"7  c #F30000",
"8  c #F50000",
"9  c #F70000",
"0  c #F90000",
"q  c #FB0000",
"w  c #FD0000",
"e  c red",
"r  c #FF0900",
"t  c #F10B0B",
"y  c #F10F0E",
"u  c #F21010",
"i  c #F21313",
"p  c #F21414",
"a  c #F31919",
"s  c #F31A1A",
"d  c #F41E1E",
"f  c #F41F1F",
"g  c #F42020",
"h  c #F52323",
"j  c #F52424",
"k  c #F52525",
"l  c #F52626",
"z  c #F62929",
"x  c #F62A2A",
"c  c #F62B2B",
"v  c #F22C2C",
"b  c #F22F2F",
"n  c #F62C2C",
"m  c #F72E2E",
"M  c #F72F2F",
"N  c #F23232",
"B  c #F33232",
"V  c #F73030",
"C  c #F73131",
"Z  c #F33535",
"A  c #F43636",
"S  c #F83434",
"D  c #F83636",
"F  c #F83736",
"G  c #F83737",
"H  c #F73A30",
"J  c #F43939",
"K  c #F43B3B",
"L  c #F53D3D",
"P  c #F53F3F",
"I  c #F93C3C",
"U  c #F93C3D",
"Y  c #F84C35",
"T  c #F9433D",
"R  c #F9763B",
"E  c #F64242",
"W  c #F64444",
"Q  c #F74646",
"!  c #FA4142",
"~  c #FA4242",
"^  c #FB4747",
"/  c #F74949",
"(  c #F74B4B",
")  c #F74E4E",
"_  c #FC4C4C",
"`  c #FC5C4C",
"'  c #F85050",
"]  c #F85353",
"[  c #FD5151",
"{  c #F95455",
"}  c #F95757",
"|  c #FD5454",
" . c #FA5C5C",
".. c #F96659",
"X. c #FB6060",
"o. c #FC6565",
"O. c #FC6969",
"+. c #FD6D6D",
"@. c #FD7071",
"#. c #FE7474",
"$. c #FE7777",
"%. c #7A8045",
"&. c #7F8150",
"*. c #F88736",
"=. c #F88B38",
"-. c #F9B33C",
";. c #F2D73F",
":. c #F9E53B",
">. c #F9F93C",
",. c #818A44",
"<. c #8E8D47",
"1. c #8F9659",
"2. c #9AA25F",
"3. c #9D9662",
"4. c #B3AB7C",
"5. c #FA8642",
"6. c #FE855A",
"7. c #F7AD5E",
"8. c #FDB651",
"9. c #FE817A",
"0. c #FDBA7C",
"q. c #F9DD5D",
"w. c #E1E841",
"e. c #E8EF4C",
"r. c #FBE147",
"t. c #EEF040",
"y. c #F9FA40",
"u. c #F6F355",
"i. c #A3A3A2",
"p. c #A4A4A4",
"a. c #D5D5D5",
"s. c #D7D7D7",
"d. c #D7D7D8",
"f. c #EEEDED",
"g. c gray96",
/* pixels */
"                                ",
"                                ",
"                                ",
"o r e e e q e e q q 9 9 7 7 4 4 ",
". 4.0.9.$.#.+.+.O.o.X. .} ] ) 3 ",
". - 2.q.6.| | _ ^ ~ U F C n / 3 ",
". - $ 1.u.8.` ^ ~ U F C c l W < ",
". p.s.# &.e.r.5.T F M c l g P < ",
". f.g.s.+ <.>.>.=.M c l f a K < ",
". i.a.# % w.:.*.H c j f a i A < ",
". * O % t.-.Y M c j f a i u C ; ",
". & ,.;.R F M c g f a i y t B ; ",
". 3.7...} ) _ W E P J A B b v ; ",
"X 7 7 4 4 4 3 < 3 < > > ; ; ; ; ",
"                                ",
"                                "
};
