/* XPM */
static char *tm[] = {
/* columns rows colors chars-per-pixel */
"16 16 144 2 ",
"   c None",
".  c black",
"X  c #000700",
"o  c #000F00",
"O  c #001500",
"+  c #001700",
"@  c #001D00",
"#  c #002300",
"$  c #002500",
"%  c #002B00",
"&  c #002D00",
"*  c #002F00",
"=  c #003100",
"-  c #003500",
";  c #003700",
":  c #003900",
">  c #0B632D",
",  c #0D602D",
"<  c #106231",
"1  c #116331",
"2  c #156635",
"3  c #166635",
"4  c #166636",
"5  c #1A693A",
"6  c #1B6A3A",
"7  c #1B6A3B",
"8  c #206D3D",
"9  c #206E3E",
"0  c #216E3F",
"q  c #226E40",
"w  c #257142",
"e  c #267143",
"r  c #267243",
"t  c #277244",
"y  c #277245",
"u  c #287345",
"i  c #2B7447",
"p  c #2C7547",
"a  c #2B7548",
"s  c #2C7548",
"d  c #2C7649",
"f  c #2D764A",
"g  c #2E764A",
"h  c #30764B",
"j  c #30774B",
"k  c #30784C",
"l  c #31784C",
"z  c #317A4D",
"x  c #33794E",
"c  c #337B4F",
"v  c #347A4E",
"b  c #337B50",
"n  c #367B51",
"m  c #367C51",
"M  c #377C51",
"N  c #367D52",
"B  c #397F54",
"V  c #3A7E55",
"C  c #3B7F56",
"Z  c #890000",
"A  c #910000",
"S  c #9F0000",
"D  c #AB0000",
"F  c #AD0000",
"G  c #BB2719",
"H  c #9D6354",
"J  c #956859",
"K  c #B7605E",
"L  c #C55B54",
"P  c #CD6553",
"I  c #C8645E",
"U  c #C9645F",
"Y  c #CE695B",
"T  c #CE6A5C",
"R  c #D16954",
"E  c #C16360",
"W  c #CC6C67",
"Q  c #CC6D67",
"!  c #CF7167",
"~  c #CF7565",
"^  c #CF736D",
"/  c #CF776C",
"(  c #D17164",
")  c #D27265",
"_  c #D4796C",
"`  c #D37F75",
"'  c #3C8056",
"]  c #3C8156",
"[  c #3D8157",
"{  c #3E8157",
"}  c #40825A",
"|  c #42845B",
" . c #42845C",
".. c #42855C",
"X. c #43865D",
"o. c #45865E",
"O. c #478760",
"+. c #478861",
"@. c #488961",
"#. c #488A62",
"$. c #4A8A63",
"%. c #4C8A65",
"&. c #4D8C65",
"*. c #4F8D67",
"=. c #508E69",
"-. c #518F6A",
";. c #528F6A",
":. c #54906C",
">. c #59946F",
",. c #5B9572",
"<. c #5E9674",
"1. c #629978",
"2. c #639A79",
"3. c #649979",
"4. c #649A79",
"5. c #679E7D",
"6. c #DE8A70",
"7. c #D5857E",
"8. c #6CA081",
"9. c #6FA182",
"0. c #6FA282",
"q. c #70A484",
"w. c #74A687",
"e. c #75A789",
"r. c #76A88A",
"t. c #7AAA8D",
"y. c #7CAB8F",
"u. c #7CAC8F",
"i. c #7EAC8F",
"p. c #80AE92",
"a. c #85B095",
"s. c #8EB59E",
"d. c #8FB69E",
"f. c #DD9388",
"g. c #DC918F",
"h. c #DC9A92",
"j. c #E2A199",
"k. c #B5CEBE",
"l. c #BFD4C8",
"z. c #C1D6C9",
"x. c #D3E2DA",
"c. c #D8E5DD",
"v. c #E2EBE5",
"b. c #E4ECE7",
/* pixels */
"                                ",
"                                ",
"                                ",
": : G D D = & , # @ O o X . . . ",
": u.f.g.j.e.p.q.z.s.2.<.>.:.*.. ",
": y.^ 6.Q p.;.p.+.v.,.B b g $.. ",
"; t._ ! ) ;.k.o.l.b.2.c g u o.. ",
"; e.W E W %.9.c.x.s.X.g y q } . ",
"& w.( K T O.X.' 4.X.g y 9 7 ' . ",
"% q.U J L X.' N c i w 9 6 2 M . ",
"$ 8.Y H P B v k i u 9 6 2 < v . ",
"@ 5.h.R 7.N c i w 7 6 2 < , c . ",
"O 2./ ` ~ ;.%.O.X.{ B n c h p . ",
"O X A F Z . . . . . . . . . . . ",
"                                ",
"                                "
};
