/* XPM */
static char *tn[] = {
/* columns rows colors chars-per-pixel */
"16 16 137 2 ",
"   c None",
".  c #DD0000",
"X  c #DF0000",
"o  c #E10000",
"O  c #E30000",
"+  c #E50000",
"@  c #E70000",
"#  c #E90000",
"$  c #EB0000",
"%  c #ED0000",
"&  c #EF0000",
"*  c #F10000",
"=  c #F30000",
"-  c #F50000",
";  c #F70000",
":  c #F90000",
">  c #FB0000",
",  c #FD0000",
"<  c red",
"1  c #F10B0B",
"2  c #F10F0E",
"3  c #F21010",
"4  c #F21313",
"5  c #F21414",
"6  c #F31919",
"7  c #F31A1A",
"8  c #F41F1F",
"9  c #F42020",
"0  c #F52525",
"q  c #F52626",
"w  c #F62B2B",
"e  c #F22C2C",
"r  c #F22F2F",
"t  c #F62C2C",
"y  c #F23232",
"u  c #F33232",
"i  c #F73131",
"p  c #F33535",
"a  c #F43636",
"s  c #F83737",
"d  c #F43939",
"f  c #F43B3B",
"g  c #F53D3D",
"h  c #F73C3C",
"j  c #F53F3F",
"k  c #F93A3A",
"l  c #FA3F3F",
"z  c #F64242",
"x  c #F64444",
"c  c #F74646",
"v  c #F84242",
"b  c #FA4444",
"n  c #FB4545",
"m  c #F74949",
"M  c #F74B4B",
"N  c #F74E4E",
"B  c #FB4949",
"V  c #FB4A49",
"C  c #FC4F4F",
"Z  c #F35555",
"A  c #F85050",
"S  c #FB5151",
"D  c #F85353",
"F  c #FB5252",
"G  c #FD5353",
"H  c #F95455",
"J  c #F95757",
"K  c #FD5454",
"L  c #F45959",
"P  c #F35D5D",
"I  c #F65C5C",
"U  c #F55E5E",
"Y  c #F95858",
"T  c #FE5858",
"R  c #FE5959",
"E  c #FA5C5C",
"W  c #FA5D5D",
"Q  c #FE5C5C",
"!  c #FE5F5F",
"~  c #F66363",
"^  c #FB6060",
"/  c #FB6162",
"(  c #F86565",
")  c #FC6565",
"_  c #FC6666",
"`  c #F76867",
"'  c #FC6969",
"]  c #FC6A6A",
"[  c #FA6D6D",
"{  c #FA6F6F",
"}  c #FD6D6D",
"|  c #FD6F6F",
" . c #FD7071",
".. c #FE7273",
"X. c #F97777",
"o. c #FE7474",
"O. c #FC7676",
"+. c #FC7777",
"@. c #FE7676",
"#. c #FE7777",
"$. c #F67C7C",
"%. c #F97878",
"&. c #FE7979",
"*. c #FF7B7A",
"=. c #FF7B7B",
"-. c #F98282",
";. c #F88484",
":. c #F89493",
">. c #F79D9D",
",. c #F99998",
"<. c #FB9F9F",
"1. c #F4A1A1",
"2. c #F4ABAB",
"3. c #F9A9A9",
"4. c #FAACAC",
"5. c #F5B2B2",
"6. c #F7B5B5",
"7. c #FBB0B0",
"8. c #FAB1B1",
"9. c #F8B2B2",
"0. c #FCB2B2",
"q. c #FDB4B4",
"w. c #FDB5B5",
"e. c #FDB7B7",
"r. c #F9BDBD",
"t. c #FDC1C1",
"y. c #F7D6D6",
"u. c #F5D9D9",
"i. c #F7DCDC",
"p. c #FDDFDF",
"a. c #F8E7E7",
"s. c #F6E9E9",
"d. c #F5EBEB",
"f. c #F6ECEC",
"g. c #FAE9E9",
"h. c #FBEEEE",
"j. c #FCEFEF",
/* pixels */
"                                ",
"                                ",
"                                ",
"< < < < > < < < > > ; ; = = % % ",
"< =.=.=.O.....} ' ( ! E J D N $ ",
"< =.! Q Q t.p.j.j.8.%.k i t m $ ",
"< =.Q Q w.q.O.F { r.:.( w q x + ",
"< O.K K w.O.<.g.-.-.i.~ q 9 j + ",
"< ..F S 8.S g.X.z 6.s.P 8 6 f + ",
"< | C V 7.{ ,.a.<.$.u.L 6 5 a O ",
"> ] V n 4.3.( h I 5.2.Z 4 4 y X ",
"> ( b l k 8.u.f.d.1.P 4 2 1 r X ",
"; / ! L J N V x z j d a y r r X ",
"; = = % % % $ $ + O O O X X . . ",
"                                ",
"                                "
};
