/* XPM */
static char *to[] = {
/* columns rows colors chars-per-pixel */
"16 16 118 2 ",
"   c None",
".  c #DD0000",
"X  c #DF0000",
"o  c #E10000",
"O  c #E30000",
"+  c #E50000",
"@  c #E70000",
"#  c #E90000",
"$  c #EB0000",
"%  c #ED0000",
"&  c #EF0000",
"*  c #F10000",
"=  c #F30000",
"-  c #F50000",
";  c #F70000",
":  c #F90000",
">  c #FB0000",
",  c #FD0000",
"<  c #F10B0B",
"1  c #F10F0E",
"2  c #F21010",
"3  c #F21313",
"4  c #F21414",
"5  c #F31919",
"6  c #F31A1A",
"7  c #F41E1E",
"8  c #F41F1F",
"9  c #F42020",
"0  c #F52323",
"q  c #F52424",
"w  c #F52525",
"e  c #F52626",
"r  c #F62929",
"t  c #F62A2A",
"y  c #F62B2B",
"u  c #F22C2C",
"i  c #F22F2F",
"p  c #F62C2C",
"a  c #F72E2E",
"s  c #F72F2F",
"d  c #F23232",
"f  c #F33232",
"g  c #F73030",
"h  c #F73131",
"j  c #F33535",
"k  c #F43636",
"l  c #F83434",
"z  c #F83535",
"x  c #F83636",
"c  c #F83736",
"v  c #F83737",
"b  c #F43939",
"n  c #F43B3B",
"m  c #F53D3D",
"M  c #F53F3F",
"N  c #F93A3A",
"B  c #F93B3A",
"V  c #F93B3B",
"C  c #F93B3C",
"Z  c #F93C3C",
"A  c #F93C3D",
"S  c #FA3F3F",
"D  c #F64242",
"F  c #F64444",
"G  c #F74646",
"H  c #FA4040",
"J  c #FA4141",
"K  c #FA4142",
"L  c #FA4242",
"P  c #FA4444",
"I  c #FB4545",
"U  c #FB4646",
"Y  c #FB4747",
"T  c #F74949",
"R  c #F74B4B",
"E  c #F74E4E",
"W  c #FB4949",
"Q  c #FB4A49",
"!  c #FC4A4B",
"~  c #FC4C4C",
"^  c #FC4F4F",
"/  c #F85050",
"(  c #F85353",
")  c #FD5353",
"_  c #F95455",
"`  c #F95757",
"'  c #F95858",
"]  c #FA5C5C",
"[  c #FA5D5D",
"{  c #FE5C5C",
"}  c #FE5E5F",
"|  c #FE5F5F",
" . c #FB6060",
".. c #FB6162",
"X. c #FE6060",
"o. c #FC6565",
"O. c #FC6666",
"+. c #FC6969",
"@. c #FC6A6A",
"#. c #FD6D6D",
"$. c #FD6F6F",
"%. c #FE7273",
"&. c #FE8585",
"*. c #FDCFCF",
"=. c #FED2D2",
"-. c #FED9D9",
";. c #FFDBDB",
":. c #EFEFEF",
">. c #EFEFF1",
",. c #F1F1F1",
"<. c #FBFBFB",
"1. c gray99",
"2. c #FDFCFC",
"3. c #FDFCFD",
"4. c #FDFDFD",
"5. c #FDFDFE",
"6. c #FEFEFE",
"7. c white",
/* pixels */
"                                ",
"                                ",
"                                ",
",.,.,.,.,.>.>., > > ; ; = = % % ",
",.7.-.&.-.7.1.#.@.O. .] ` ( E $ ",
",.7.| | | <.7.~ Y H A c h p T $ ",
",.7.=.| *.2.2.Y H A c h y e F + ",
",.7.7.<.2.2.<.H A c s y e 9 M + ",
", %.) ^ ! U H N c g y e 8 5 m + ",
", #.^ W U H N k s y q 8 5 3 k + ",
", @.W U A N l s y q 8 5 4 2 f X ",
"> O.P S N c p y 9 7 5 3 1 < i X ",
"; ..] ' ` E Q Y D M b j f i u . ",
"; = = % % % $ + $ + o o X X . . ",
"                                ",
"                                "
};
