/* XPM */
static char *tt[] = {
/* columns rows colors chars-per-pixel */
"16 16 147 2 ",
"   c None",
".  c black",
"X  c #131313",
"o  c gray9",
"O  c #181919",
"+  c #191919",
"@  c gray12",
"#  c gray14",
"$  c #2A2A2A",
"%  c #2F2F2F",
"&  c #323232",
"*  c #353535",
"=  c gray21",
"-  c gray23",
";  c #414141",
":  c #464646",
">  c #4B4B4B",
",  c #4C4C4C",
"<  c #515151",
"1  c gray33",
"2  c #555555",
"3  c #585858",
"4  c gray35",
"5  c gray36",
"6  c gray38",
"7  c gray39",
"8  c #656566",
"9  c DimGray",
"0  c #6C6C6C",
"q  c #6F6F6F",
"w  c #727272",
"e  c #777777",
"r  c #797979",
"t  c #7B7B7B",
"y  c gray50",
"u  c #DD0000",
"i  c #DF0000",
"p  c #E30000",
"a  c #E50000",
"s  c #E70000",
"d  c #E50505",
"f  c #E90000",
"g  c #EB0000",
"h  c #ED0000",
"j  c #EF0000",
"k  c #F10000",
"l  c #F30000",
"z  c #F50000",
"x  c #F70000",
"c  c #F90000",
"v  c #FB0000",
"b  c #FD0000",
"n  c red",
"m  c #F21414",
"M  c #F31A1A",
"N  c #F41F1F",
"B  c #F42020",
"V  c #F52525",
"C  c #F52626",
"Z  c #FF2525",
"A  c #F62B2B",
"S  c #F62C2C",
"D  c #F72E2E",
"F  c #F33232",
"G  c #F73131",
"H  c #F43636",
"J  c #F83434",
"K  c #F83736",
"L  c #F83737",
"P  c #F43B3B",
"I  c #F53F3F",
"U  c #F93A3A",
"Y  c #F93C3D",
"T  c #FA3F3F",
"R  c #F64444",
"E  c #F74646",
"W  c #FA4242",
"Q  c #FA4444",
"!  c #FB4545",
"~  c #F74949",
"^  c #F74B4B",
"/  c #F74E4E",
"(  c #FB4949",
")  c #FB4A49",
"_  c #FC4F4F",
"`  c #F85050",
"'  c #F85353",
"]  c #FD5353",
"[  c #F95455",
"{  c #F95757",
"}  c #F95858",
"|  c #FD5959",
" . c #FE5858",
".. c #FA5C5C",
"X. c #FA5D5D",
"o. c #FB6060",
"O. c #FB6162",
"+. c #FC6565",
"@. c #FC6666",
"#. c #FC6969",
"$. c #FC6A6A",
"%. c #FD6F6F",
"&. c #FE7273",
"*. c #FE7676",
"=. c #F27A7A",
"-. c #F37F7F",
";. c #FE7979",
":. c gray51",
">. c #888888",
",. c gray60",
"<. c gray62",
"1. c #F58686",
"2. c #F28A8A",
"3. c #F68A8A",
"4. c #F78D8D",
"5. c #F69696",
"6. c #F89191",
"7. c #F99494",
"8. c #FA9898",
"9. c #FB9B9B",
"0. c #FC9E9E",
"q. c #DBBBBB",
"w. c #FDA3A3",
"e. c #FEA8A9",
"r. c #FDB0B0",
"t. c #FFB9B9",
"y. c #E3C1C1",
"u. c #F1DEDE",
"i. c #F2E1E1",
"p. c #F1E2E2",
"a. c #F4E3E2",
"s. c #F5E4E4",
"d. c #F4E6E6",
"f. c #F6E6E6",
"g. c #F7E6E6",
"h. c #FDE5E5",
"j. c #F8E8E8",
"k. c #F9EAEA",
"l. c #FAEBEB",
"z. c #FDEBEB",
"x. c #FAEDED",
"c. c #FCEDED",
"v. c #FCEFEF",
"b. c #FDF1F1",
"n. c #FDF2F2",
"m. c #FEF3F3",
"M. c #FEF5F5",
/* pixels */
"                                ",
"                                ",
"                                ",
"z.+ . . O h. .n v v x x l l h h ",
"Z M.<.r e ,.b.r.#.+.o...} ' / g ",
"n t.b.>.4 2 y c.9.W Y K G S ~ g ",
"n ;.e.b.:.< > e l.7.K G A C R a ",
"n *. .w.b.r : ; q j.4.A C B I a ",
"n &.] _ 0.c.w - = 8 g.1.N M P a ",
"n %._ ) ! 8.k.9 % $ 5 a.-.m H p ",
"v $.) ! I U 7.g.6 # @ 2 i.=.F i ",
"x @.W T U K S 3.s.3 + X , u.2.i ",
"x O.X.} [ ' ) ! 5.d.0 = & 6 i.i ",
"x l l h h h g a a d y.. . . . q.",
"                                ",
"                                "
};
