/* XPM */
static char *tv[] = {
/* columns rows colors chars-per-pixel */
"16 16 140 2 ",
"   c None",
".  c black",
"X  c #010000",
"o  c #050000",
"O  c #1B0000",
"+  c #210000",
"@  c #270000",
"#  c #290000",
"$  c #2F0000",
"%  c #350000",
"&  c #3B0000",
"*  c #410000",
"=  c #470000",
"-  c #4B0000",
";  c #510000",
":  c #570000",
">  c #590000",
",  c #5D0000",
"<  c #5F0000",
"1  c #630000",
"2  c #670000",
"3  c #690000",
"4  c #000D7B",
"5  c #00137F",
"6  c #912100",
"7  c #A35D00",
"8  c #934631",
"9  c #944A34",
"0  c #964C37",
"q  c #C16300",
"w  c #9F5A46",
"e  c #A25E4B",
"r  c #A56250",
"t  c #A86654",
"y  c #A96A58",
"u  c #AA6A59",
"i  c #AD6F5D",
"p  c #AF7362",
"a  c #B17665",
"s  c #B27766",
"d  c #B37A6A",
"f  c #B67E6D",
"g  c #C38E38",
"h  c #DDB23B",
"j  c #E4C71F",
"k  c #DEC72C",
"l  c #E7CA2A",
"z  c #E8CD30",
"x  c #BD8440",
"c  c #BE8E57",
"v  c #B98070",
"b  c #BA8475",
"n  c #BC8677",
"m  c #BE897A",
"M  c #BE8B7D",
"N  c #A7B968",
"B  c #C08D7F",
"V  c #D3AF65",
"C  c #FEE058",
"Z  c #E4CD65",
"A  c #FEE676",
"S  c #FCE67C",
"D  c #001781",
"F  c #001D87",
"G  c #00238B",
"H  c #6DA281",
"J  c #78A98B",
"K  c #288DC2",
"L  c #2C90C5",
"P  c #2D90C5",
"I  c #3193C7",
"U  c #3294C7",
"Y  c #3696C9",
"T  c #3796C9",
"R  c #3897C9",
"E  c #3B9ACB",
"W  c #3C9ACB",
"Q  c #3D9ACB",
"!  c #439BC8",
"~  c #469ECA",
"^  c #409CCC",
"/  c #409DCC",
"(  c #419DCD",
")  c #429DCD",
"_  c #439DCD",
"`  c #459FCE",
"'  c #46A0CD",
"]  c #47A0CE",
"[  c #46A0CF",
"{  c #48A0CF",
"}  c #4BA3CF",
"|  c #4CA3CF",
" . c #4CA4CF",
".. c #4DA4CF",
"X. c #50A3CE",
"o. c #4AA2D0",
"O. c #4DA3D1",
"+. c #50A5D1",
"@. c #51A6D1",
"#. c #53A7D1",
"$. c #52A6D3",
"%. c #55A9D3",
"&. c #56A9D4",
"*. c #5AABD5",
"=. c #5BACD4",
"-. c #5FAED7",
";. c #5DB1DB",
":. c #63B0D9",
">. c #71BDE2",
",. c #88B398",
"<. c #8FB79E",
"1. c #A1C3A2",
"2. c #B3CEB3",
"3. c #FDE785",
"4. c #FDEB94",
"5. c #E7E6B7",
"6. c #FBF1BC",
"7. c #DFDFDF",
"8. c #FCF3C8",
"9. c #C4E0EE",
"0. c #CDE4F0",
"q. c #E9E9E9",
"w. c #E4F0F5",
"e. c #E9F5F9",
"r. c #F1F1F1",
"t. c gray95",
"y. c #F3F3F3",
"u. c #F4F4F4",
"i. c gray96",
"p. c #F6F6F6",
"a. c gray97",
"s. c #F8F8F8",
"d. c #F9F9F9",
"f. c #FAFAFA",
"g. c #FBFBFB",
"h. c gray99",
"j. c #FCFDFD",
"k. c #FDFDFD",
"l. c #FEFEFE",
"z. c white",
/* pixels */
"                                ",
"                                ",
"                                ",
"3 3 3 3 2 1 < < : ; - = * & 7 $ ",
"3 B M M m n b f f d a V Z y c @ ",
"z.z.z.z.z.z.z.h.z.s.s.s.a.a.a.q.",
"z.z.w.>.-.-.*.%.@.O.{ ) Q z <.G ",
"z.A C z.9.=.%.@.| ` ) Q R J X.F ",
"z.2.1.z.h.w.....] ) W Y U k ,.D ",
"3.4.S 6.0.#.} ] ) E N l P K ~ D ",
"s.8.5.;.@.{ ` Q E Y I K j H ! 4 ",
"s.z.s.g.s.s.a.a.a.y.y.y.r.r.y.7.",
"- a p i u t r e w x h g 0 0 8 X ",
"= * & % $ # + O 6 q > o X X X X ",
"                                ",
"                                "
};
