/* XPM */
static char *tw[] = {
/* columns rows colors chars-per-pixel */
"16 16 132 2 ",
"   c None",
".  c #DD0000",
"X  c #DF0000",
"o  c #E10000",
"O  c #E30000",
"+  c #E50000",
"@  c #E70000",
"#  c #E90000",
"$  c #EB0000",
"%  c #ED0000",
"&  c #EF0000",
"*  c #F10000",
"=  c #F30000",
"-  c #F50000",
";  c #F70000",
":  c #F90000",
">  c #FB0000",
",  c #FD0000",
"<  c #F10B0B",
"1  c #F10F0E",
"2  c #F21010",
"3  c #F21313",
"4  c #F21414",
"5  c #F31919",
"6  c #F31A1A",
"7  c #F41E1E",
"8  c #F41F1F",
"9  c #F42020",
"0  c #F52323",
"q  c #F52424",
"w  c #F52525",
"e  c #F52626",
"r  c #F62929",
"t  c #F62A2A",
"y  c #F62B2B",
"u  c #F22C2C",
"i  c #F22F2F",
"p  c #F62C2C",
"a  c #F72E2E",
"s  c #F72F2F",
"d  c #F23232",
"f  c #F33232",
"g  c #F73030",
"h  c #F73131",
"j  c #F33535",
"k  c #F43636",
"l  c #F83434",
"z  c #F83535",
"x  c #F83636",
"c  c #F83736",
"v  c #F83737",
"b  c #F1363A",
"n  c #F43939",
"m  c #F43B3B",
"M  c #F53D3D",
"N  c #F53F3F",
"B  c #F93A3A",
"V  c #F93B3A",
"C  c #F93C3C",
"Z  c #F93C3D",
"A  c #FA3F3F",
"S  c #EA3B46",
"D  c #EC414B",
"F  c #F64242",
"G  c #F64444",
"H  c #F74646",
"J  c #FA4040",
"K  c #FA4242",
"L  c #FA4444",
"P  c #FB4545",
"I  c #F74949",
"U  c #F74B4B",
"Y  c #F74E4E",
"T  c #FB4949",
"R  c #FB4A49",
"E  c #FC4F4F",
"W  c #ED4750",
"Q  c #F85050",
"!  c #F85353",
"~  c #F95455",
"^  c #F95757",
"/  c #F95858",
"(  c #FA5C5C",
")  c #FA5D5D",
"_  c #FB6060",
"`  c #FB6162",
"'  c #FC6565",
"]  c #FC6666",
"[  c #FC6A6A",
"{  c #FD6F6F",
"}  c #F16970",
"|  c #0011A9",
" . c #001BAB",
".. c #0019AD",
"X. c #001FAF",
"o. c #0021AF",
"O. c #0023B1",
"+. c #0025B3",
"@. c #0027B3",
"#. c #4A75C9",
"$. c #4F79CB",
"%. c #4E7BCD",
"&. c #527CCE",
"*. c #537DCF",
"=. c #537ECF",
"-. c #587FCF",
";. c #5781D1",
":. c #5782D1",
">. c #5881D1",
",. c #5C83D1",
"<. c #5C85D3",
"1. c #6087D2",
"2. c #638BD5",
"3. c #7193D8",
"4. c #7595DA",
"5. c #7799D9",
"6. c #7D9DDB",
"7. c #7A9CDC",
"8. c #7D9EDC",
"9. c #7F9FDD",
"0. c #9090D8",
"q. c #9393DA",
"w. c #9999DC",
"e. c #9899DD",
"r. c #82A2DD",
"t. c #84A4DF",
"y. c #B6B7E6",
"u. c #B9B9E8",
"i. c #F9F9FB",
"p. c #F9F9FC",
"a. c #F9F9FD",
"s. c #FEFEFE",
/* pixels */
"                                ",
"                                ",
"                                ",
"@.@.@.@.O.X...| o : ; ; = = % % ",
"@.t.t.y.u.9.7.5.} ] _ ( ^ ! Y $ ",
"@.t.e.p.s.e.<.;.U K C c h p I $ ",
"@.r.q.p.i.0.;.=.D Z c h y e G + ",
"o.9.2.4.3.-.=.%.S k s y e 8 S + ",
" .6.1.,.>.&.&.#.b g t q 0 5 m + ",
", { E T K Z B l s t q 7 5 3 k o ",
", [ T P J B k s t q 7 6 4 1 h X ",
": ] L J B l h t 0 7 6 3 1 < d X ",
"; ` ) / ~ Q I G F M m j d i i X ",
"; = = % % % $ $ $ + o o X X . . ",
"                                ",
"                                "
};
