/* XPM */
static char *tz[] = {
/* columns rows colors chars-per-pixel */
"16 16 158 2 ",
"   c None",
".  c black",
"X  c #2C2C2C",
"o  c #37332B",
"O  c gray19",
"+  c #313131",
"@  c #343130",
"#  c #353535",
"$  c #363434",
"%  c gray21",
"&  c #383836",
"*  c #3A3A3A",
"=  c #3B3B3A",
"-  c #3E3E3B",
";  c #3F3F3F",
":  c #403F3F",
">  c #006F00",
",  c #007900",
"<  c #007B00",
"1  c #007D00",
"2  c #57512F",
"3  c #5C572B",
"4  c #444437",
"5  c #4A4A3C",
"6  c #514D34",
"7  c #7D7B3C",
"8  c #4E4E4E",
"9  c #535240",
"0  c #555544",
"q  c #535353",
"w  c #585858",
"e  c #5D5D5D",
"r  c #797449",
"t  c #656462",
"y  c #008100",
"u  c #008300",
"i  c #008500",
"p  c #008700",
"a  c #008900",
"s  c #009100",
"d  c #009300",
"f  c #53AD00",
"g  c #5FC100",
"h  c #51B84C",
"j  c #51B451",
"k  c #51B551",
"l  c #53B553",
"z  c #54B754",
"x  c #52B950",
"c  c #54B954",
"v  c #54BA54",
"b  c #58BC58",
"n  c #58BC59",
"m  c #59BC59",
"M  c #5CBD5C",
"N  c #5CBE5C",
"B  c #5FBF5F",
"V  c #69BF69",
"C  c #6DC64F",
"Z  c #6FC84B",
"A  c #6DC36D",
"S  c #6FC46F",
"D  c #70C571",
"F  c #72C673",
"G  c #74C774",
"H  c #76C876",
"J  c #77C877",
"K  c #79C879",
"L  c #79C979",
"P  c #7BCA7A",
"I  c #7BCA7B",
"U  c #818100",
"Y  c #899D00",
"T  c #BFBD00",
"R  c #928C2B",
"E  c #918B2F",
"W  c #989326",
"Q  c #BBB73D",
"!  c #9DC900",
"~  c #CBDF00",
"^  c #D1DB00",
"/  c #C0C032",
"(  c #C2C532",
")  c #C4CB35",
"_  c #D9E53F",
"`  c #E5ED37",
"'  c #898740",
"]  c #8B8845",
"[  c #8F8E57",
"{  c #969055",
"}  c #9DDB4F",
"|  c #A4DE4B",
" . c #AEE047",
".. c #8BD365",
"X. c #9AD07C",
"o. c #CFCB41",
"O. c #D5D145",
"+. c #E1DE42",
"@. c #E1DE46",
"#. c #CFE64A",
"$. c #D7E442",
"%. c #D2E544",
"&. c #D4E847",
"*. c #D4EA4B",
"=. c #D7EA4A",
"-. c #C1E15B",
";. c #E3E342",
":. c #E7E846",
">. c #E6E949",
",. c #F5F349",
"<. c #EFED5C",
"1. c #E6F05D",
"2. c #D5D266",
"3. c #DAE860",
"4. c #DBE960",
"5. c #D8ED6A",
"6. c #E0E860",
"7. c #0027DD",
"8. c #0029DD",
"9. c #002DDD",
"0. c #002DDF",
"q. c #002FDF",
"w. c #0031DF",
"e. c #0035DD",
"r. c #0033E1",
"t. c #0035E3",
"y. c #0039E3",
"u. c #003BE5",
"i. c #003DE5",
"p. c #0047C1",
"a. c #004BD7",
"s. c #0041E7",
"d. c #0047E9",
"f. c #53B0BB",
"g. c #55B1BD",
"h. c #33A2DF",
"j. c #0B95F1",
"k. c #0F97F1",
"l. c #1097F2",
"z. c #1399F2",
"x. c #1499F2",
"c. c #149AF2",
"v. c #1A99F2",
"b. c #1C9BF0",
"n. c #189CF3",
"m. c #2CA2F2",
"M. c #2FA4F2",
"N. c #32A5F3",
"B. c #33A6F3",
"V. c #35A8F3",
"C. c #36A8F4",
"Z. c #39A9F4",
"A. c #3BA9F5",
"S. c #3DACF5",
"D. c #42ADF6",
"F. c #74C0C9",
"G. c #98D083",
"H. c #A2D394",
/* pixels */
"                                ",
"                                ",
"                                ",
"s a a a i u u 1 < > < g T . . . ",
"i I I I G G D A A ..4.<.[ q 8 . ",
"a I B M M v l h | ;.Q 4 + X r Y ",
"i I M M x j Z %.+.7 % + o W 3.! ",
"a H v z x | :.o.5 $ + 3 ) #.H.p.",
"u F l C *.@.E - $ o R $.%.f.A.u.",
"< S } >.O.8 * % 2 ( ` X.b.c.C.t.",
"s 5.,.] ; * % E $.-.g.b.c.l.B.w.",
"^ 2.0 ; * 6 / =.G.h.n.c.k.j.N.0.",
". t e w { 6.1.F.D.S.Z.B.N.M.M.7.",
". . . U ~ f a.d.s.i.y.t.0.0.8.w.",
"                                ",
"                                "
};
