/* XPM */
static char *ua[] = {
/* columns rows colors chars-per-pixel */
"16 16 149 2 ",
"   c None",
".  c #DDB500",
"X  c #DDB700",
"o  c #DFB700",
"O  c #DFB900",
"+  c #DFBB00",
"@  c #E1BB00",
"#  c #E3BB00",
"$  c #E3BF00",
"%  c #E5BF00",
"&  c #E7C300",
"*  c #E9C500",
"=  c #EBC700",
"-  c #EDCB00",
";  c #EDCD00",
":  c #EFD100",
">  c #F1D300",
",  c #F3D700",
"<  c #F5D900",
"1  c #F7DB00",
"2  c #F9DD00",
"3  c #FBDF00",
"4  c #FDE100",
"5  c #F1F10B",
"6  c #F1F10E",
"7  c #F2F210",
"8  c #F2F213",
"9  c #F2F214",
"0  c #F3F319",
"q  c #F4F41E",
"w  c #F4F41F",
"e  c #F5F523",
"r  c #F5F524",
"t  c #F6F629",
"y  c #F6F62A",
"u  c #F2F22C",
"i  c #F2F22F",
"p  c #F7F72E",
"a  c #F7F72F",
"s  c #F2F232",
"d  c #F3F332",
"f  c #F3F335",
"g  c #F4F436",
"h  c #F8F834",
"j  c #F8F835",
"k  c #F4F439",
"l  c #F5F53D",
"z  c #F9F93A",
"x  c #FAFA3F",
"c  c #F6F642",
"v  c #F7F746",
"b  c #FAFA40",
"n  c #FAFA44",
"m  c #FBFB45",
"M  c #F7F74B",
"N  c #FBFB49",
"B  c #FBFC49",
"V  c #FCFC4F",
"C  c #F8F850",
"Z  c #F9F955",
"A  c #F9F958",
"S  c #FAFA5D",
"D  c #FBFB62",
"F  c #FCFC66",
"G  c #FCFC6A",
"H  c #FDFD6F",
"J  c #004F99",
"K  c #0035E7",
"L  c #0045E7",
"P  c #0045E9",
"I  c #004DEB",
"U  c #0057EF",
"Y  c #005DF1",
"T  c #0063F3",
"R  c #0067F5",
"E  c #006DF7",
"W  c #0071F9",
"Q  c #0075FB",
"!  c #0079FD",
"~  c #007DFD",
"^  c #007FFD",
"/  c #0091C7",
"(  c #3EABCF",
")  c #0083FD",
"_  c #0083FF",
"`  c #0085FF",
"'  c #209FF4",
"]  c #25A1F5",
"[  c #26A2F5",
"{  c #2BA4F6",
"}  c #2BA5F6",
"|  c #2CA6F6",
" . c #30A7F7",
".. c #31A8F7",
"X. c #31A9F7",
"o. c #3FADF5",
"O. c #36AAF8",
"+. c #37ABF8",
"@. c #3BADF9",
"#. c #3CAEF9",
"$. c #3DAEF9",
"%. c #43AED1",
"&. c #48B0D2",
"*. c #4DB3D4",
"=. c #51B5D6",
"-. c #5BB7D5",
";. c #56B8D8",
":. c #5BBAD9",
">. c #60BCDB",
",. c #64BEDD",
"<. c #44AFF6",
"1. c #41AFFA",
"2. c #49B2F7",
"3. c #4EB4F7",
"4. c #42B0FA",
"5. c #42B1FA",
"6. c #46B2FB",
"7. c #47B3FB",
"8. c #4BB5FC",
"9. c #4BB6FC",
"0. c #4CB6FC",
"q. c #53B7F8",
"w. c #50B6FD",
"e. c #51B7FD",
"r. c #54B9FD",
"t. c #54BAFD",
"y. c #58B9F9",
"u. c #5CBBFA",
"i. c #58BBFE",
"p. c #58BCFE",
"a. c #59BCFE",
"s. c #5CBDFE",
"d. c #5CBEFE",
"f. c #5FBFFE",
"g. c #61BEFB",
"h. c #69C0DD",
"j. c #6DC2DF",
"k. c #70C4E0",
"l. c #65C0FC",
"z. c #69C2FC",
"x. c #6DC3FD",
"c. c #70C5FE",
"v. c #74C7FE",
"b. c #76C7FE",
"n. c #77C8FE",
"m. c #79C8FE",
"M. c #79C9FE",
"N. c #7BCAFF",
"B. c #8AD0E7",
/* pixels */
"                                ",
"                                ",
"                                ",
"` ` ` ` ` ~ ~ ! Q W E R T Y U U ",
"_ N.N.N.n.v.x.x.z.l.g.u.y.q.3.I ",
"` N.g.s.s.t.t.0.7.5.$.+.X.| 2.P ",
"_ N.s.i.t.w.8.6.5.$.+...} [ <.L ",
"~ b.t.t.0.8.6.4.$.O.| { [ ' o.K ",
"/ B.k.j.h.,.>.:.;.=.*.%.%.%.-.J ",
"4 H V B m x z g h y r q 0 9 f # ",
"3 G B m x z h p y e q 0 8 8 s # ",
"2 F m x z h p y e q 0 8 6 5 i . ",
"1 D S A Z C M v c l k f s i i . ",
"< , > > ; ; = = & @ & @ O . . . ",
"                                ",
"                                "
};
