/* XPM */
static char *um[] = {
/* columns rows colors chars-per-pixel */
"16 16 131 2 ",
"   c None",
".  c #710000",
"X  c #7B0000",
"o  c #7E0000",
"O  c #4C4C4C",
"+  c #5C5959",
"@  c gray47",
"#  c #8B0000",
"$  c #950000",
"%  c #9F0000",
"&  c #A60000",
"*  c #B20000",
"=  c #BA0000",
"-  c #C00000",
";  c #CC0000",
":  c #CD0000",
">  c #CF0000",
",  c #D20000",
"<  c #D30000",
"1  c #D60000",
"2  c #D90000",
"3  c #DC0000",
"4  c #DD0201",
"5  c #DD0202",
"6  c #CD1C1C",
"7  c #D41F1F",
"8  c #D92222",
"9  c #DB2424",
"0  c #D33737",
"q  c #DB3C3C",
"w  c #E02626",
"e  c #E02828",
"r  c #E32828",
"t  c #E62A2A",
"y  c #E62C2C",
"u  c #E62D2D",
"i  c #E72F2F",
"p  c #E33333",
"a  c #E73131",
"s  c #E83232",
"d  c #E83636",
"f  c #E83838",
"g  c #E93939",
"h  c #E93A3A",
"j  c #E93D3D",
"k  c #EA4141",
"l  c #E94242",
"z  c #EB4242",
"x  c #EB4646",
"c  c #EB4949",
"v  c #EC4B4C",
"b  c #EB4D4C",
"n  c #EC4F4F",
"m  c #EE5657",
"M  c #EE5C5C",
"N  c #EE6464",
"B  c #EF6F6F",
"V  c #4F77C9",
"C  c #537BCD",
"Z  c #557DCF",
"A  c #577DCF",
"S  c #577FD1",
"D  c #5981D3",
"F  c #5983D3",
"G  c #5B83D5",
"H  c #6095D9",
"J  c #6BA4DA",
"K  c #6EA7DA",
"L  c #7BB4DC",
"P  c #7CB4DD",
"I  c gray52",
"U  c #A7A7A7",
"Y  c #F29F9F",
"T  c #8DB5DE",
"R  c #8EB5DE",
"E  c #92B6DE",
"W  c #93B6DF",
"Q  c #A3B7E0",
"!  c #A3B8E0",
"~  c #A4B9E1",
"^  c #A5B9E2",
"/  c #A6BAE2",
"(  c #A6BAE3",
")  c #A7BBE3",
"_  c #A8BCE5",
"`  c #A9BDE6",
"'  c #A9BEE7",
"]  c #AABEE7",
"[  c #ABBFE8",
"{  c #ACC0E9",
"}  c #B4C5E7",
"|  c #B6C7E9",
" . c #B6C8EA",
".. c #B9C9EB",
"X. c #B9C9EC",
"o. c #B9CAED",
"O. c #BACBED",
"+. c gray76",
"@. c gray81",
"#. c #D0D0D0",
"$. c gray83",
"%. c #D9D9DA",
"&. c #DCDADA",
"*. c gainsboro",
"=. c #E1E1E1",
"-. c gray90",
";. c #E7E7E7",
":. c gray91",
">. c #E9E9E9",
",. c #E9EAEA",
"<. c #EAEAEA",
"1. c #EBEBEA",
"2. c #ECECEC",
"3. c gray93",
"4. c #EEEEEE",
"5. c #EFEFEF",
"6. c #F0F0F0",
"7. c #F1F1F1",
"8. c #F2F2F2",
"9. c #F3F3F3",
"0. c #F4F4F4",
"q. c #F4F5F5",
"w. c gray96",
"e. c #F6F6F6",
"r. c gray97",
"t. c #F8F8F8",
"y. c #F9F9F9",
"u. c gray98",
"i. c gray99",
"p. c #FDFEFD",
"a. c #FEFEFE",
/* pixels */
"                                ",
"                                ",
"                                ",
"G G G G F F C C V p e 5 5 3 < < ",
"G a.O.a.O.u. .u.} e.e.e.7.7.7.@ ",
"G O.[ [ [ _ ( ( Q N m v z g b : ",
"F O.i.[ u.( e.! W 7.5.3.3.1.3.U ",
"F .._ _ ( ( Q E P c l g s u l = ",
"A i._ e.( e.R 7.K 5.1.1.1.:.>.I ",
"C  .( ( Q T P J H f p t r 9 q & ",
"@.u.0.7.7.7.5.3.2.1.:.:.-.*.%.O ",
"p Y B M m x j d i t w 8 7 6 0 X ",
"+.e.0.7.7.7.3.3.1.1.1.=.%.$.#.+ ",
"5 5 5 < < < , : = * & $ # X . . ",
"                                ",
"                                "
};
