/* XPM */
static char *us[] = {
/* columns rows colors chars-per-pixel */
"16 16 136 2 ",
"   c None",
".  c #F80B0B",
"X  c #F91010",
"o  c #F91616",
"O  c #FA1B1B",
"+  c #FA2020",
"@  c #FB2323",
"#  c #FB2828",
"$  c #FB2A2A",
"%  c #FB2C2C",
"&  c #FB2E2E",
"*  c #FB3131",
"=  c #FB3232",
"-  c #FC3838",
";  c #FC3939",
":  c #FC3A3A",
">  c #FC3D3D",
",  c #9A634A",
"<  c #9E634A",
"1  c #A0634A",
"2  c #A6634A",
"3  c #AB634A",
"4  c #AF634A",
"5  c #B5634A",
"6  c #BF634A",
"7  c #FC4040",
"8  c #FC4646",
"9  c #FC4747",
"0  c #FC4C4C",
"q  c #FC5050",
"w  c #FC5354",
"e  c #FC5858",
"r  c #C5634A",
"t  c #CC634A",
"y  c #D4634A",
"u  c #D5634A",
"i  c #D8634A",
"p  c #DA634A",
"a  c #DE634A",
"s  c #E0634A",
"d  c #E2634A",
"f  c #E5644A",
"g  c #E8634A",
"h  c #F4745E",
"j  c #FC6163",
"k  c #FC6868",
"l  c #FC7862",
"z  c #FB7F6B",
"x  c #FC7373",
"c  c #FD7F7F",
"v  c #FD826D",
"b  c #FC8672",
"n  c #FD8E7C",
"m  c #FDFD5B",
"M  c #002BB3",
"N  c #0049B6",
"B  c #004FB5",
"V  c #0068B9",
"C  c #0069BC",
"Z  c #6363B1",
"A  c #6363B7",
"S  c #6363B8",
"D  c #6363BE",
"F  c #6367BF",
"G  c #036FE1",
"H  c #0371E5",
"J  c #0473F1",
"K  c #0474F8",
"L  c #2F73F8",
"P  c #3070F8",
"I  c #3275F8",
"U  c #3674F9",
"Y  c #3777F9",
"T  c #3976F9",
"R  c #3A79F9",
"E  c #3D7AF9",
"W  c #3F7EFA",
"Q  c #6365C2",
"!  c #6367C4",
"~  c #407CFA",
"^  c #437EFA",
"/  c #4680FA",
"(  c #4982FA",
")  c #919180",
"_  c #ACAC9F",
"`  c #B4B4A8",
"'  c #FD9786",
"]  c #98B9FC",
"[  c #9BBBFC",
"{  c #9CBDFC",
"}  c #A1BEFC",
"|  c #A2C0FC",
" . c #C9C9C1",
".. c #DADAD3",
"X. c gainsboro",
"o. c #FECAC1",
"O. c #E2E2DD",
"+. c #E2E2DE",
"@. c #FDE1DC",
"#. c #D7FEFD",
"$. c gray89",
"%. c #E5E5E0",
"&. c gray90",
"*. c #E7E7E7",
"=. c gray91",
"-. c #E9E9E9",
";. c #EAEAEA",
":. c gray92",
">. c #EDEDEA",
",. c #ECECEC",
"<. c #EEEEEE",
"1. c #EFEFEF",
"2. c #F1F1EF",
"3. c #E5E5FC",
"4. c #ECFEFE",
"5. c gray94",
"6. c #F1F1F1",
"7. c #F2F2F0",
"8. c #F3F3F1",
"9. c gray95",
"0. c #F3F3F3",
"q. c #F4F4F2",
"w. c #F5F5F3",
"e. c #F4F4F4",
"r. c gray96",
"t. c #F6F6F4",
"y. c #F6F6F6",
"u. c #F7F7F6",
"i. c #F8F8F6",
"p. c #F8F8F7",
"a. c #F9F9F8",
"s. c #F9F9F9",
"d. c #FAFAF9",
"f. c #FBFBFB",
"g. c #FBFFFA",
"h. c #FEFEFD",
/* pixels */
"                                ",
"                                ",
"                                ",
"! ! ! ! Q D S A Z v l g s s a p ",
"! h.| g.} s.{ s.] s.s.i.i.i.y._ ",
"! | ( / ^ E R U I x j w 9 > ' u ",
"F } s.W y.R 5.L K 5.5.<.>.m q. .",
"Q } ~ E R U L J C q 8 : = % n r ",
"S f.E 5.U ;.H $.B 1.,.;.;.*.#.` ",
"S [ T I P H V N M : = $ @ O b 4 ",
"+.g.y.q.q.2.1.<.,.;.=.*.&.X.@.) ",
"v o.c k e 0 7 - & # + o . . z < ",
"..s.4.u.i.y.q.q.q.5.2.>.3.%.$.h ",
"f d d a p p p u t 6 5 3 2 < , , ",
"                                ",
"                                "
};
