/* XPM */
static char *uz[] = {
/* columns rows colors chars-per-pixel */
"16 16 141 2 ",
"   c None",
".  c black",
"X  c #000100",
"o  c #000700",
"O  c #000B00",
"+  c #150000",
"@  c #001100",
"#  c #001900",
"$  c #001F00",
"%  c #000015",
"&  c #00001D",
"*  c #002700",
"=  c #002D00",
"-  c #003300",
";  c #003900",
":  c #003F00",
">  c #000025",
",  c #00002B",
"<  c #000031",
"1  c #000039",
"2  c #00003F",
"3  c #530000",
"4  c #650000",
"5  c #004700",
"6  c #004F00",
"7  c #0B7D0B",
"8  c #000045",
"9  c #000049",
"0  c #00005B",
"q  c #00005F",
"w  c #000061",
"e  c #831030",
"r  c #861435",
"t  c #881939",
"y  c #8B1F3E",
"u  c #8F2442",
"i  c #902644",
"p  c #922A47",
"a  c #932B49",
"s  c #952F4C",
"d  c #97314E",
"f  c #94324E",
"g  c #983451",
"h  c #993753",
"j  c #9C3A55",
"k  c #9C3C58",
"l  c #9F3F5A",
"z  c #9F445E",
"x  c #A0415D",
"c  c #A2455F",
"v  c #A24760",
"b  c #A44963",
"n  c #A54B65",
"m  c #A85169",
"M  c #AB546D",
"N  c #AC5971",
"B  c #AF5C74",
"V  c #0F800E",
"C  c #138313",
"Z  c #188619",
"A  c #1E881E",
"S  c #238C23",
"D  c #298F29",
"F  c #2C8E2C",
"G  c #2F902F",
"H  c #2E922E",
"J  c #329132",
"K  c #349534",
"L  c #359435",
"P  c #399739",
"I  c #3A993A",
"U  c #3D993D",
"Y  c #3F9C3F",
"T  c #429B42",
"R  c #449F44",
"E  c #469E46",
"W  c #4BA14B",
"Q  c #50A450",
"!  c #54A655",
"~  c #58A958",
"^  c #5DAC5D",
"/  c #61AE62",
"(  c #66B166",
")  c #2C2C91",
"_  c #313194",
"`  c #373798",
"'  c #3D3C9B",
"]  c #42429E",
"[  c #4949A0",
"{  c #4E4EA3",
"}  c #5353A6",
"|  c #5857A9",
" . c #5C5CAB",
".. c #5F5FAF",
"X. c #6160AE",
"o. c #6565B0",
"O. c #7777BA",
"+. c #7979BC",
"@. c #B56A80",
"#. c #BE798C",
"$. c #8F8DC3",
"%. c #9797CA",
"&. c #ABABD4",
"*. c #ADADD7",
"=. c #B3B3D7",
"-. c #BDBDD1",
";. c #B9B9D9",
":. c #C1C1D1",
">. c #C3C3D5",
",. c #C2C2DF",
"<. c #C6C6E1",
"1. c #CCCCE4",
"2. c #D5D5E8",
"3. c #D5D5EB",
"4. c #D9D8EA",
"5. c #D9D9EC",
"6. c #DCDCEC",
"7. c #DDDDED",
"8. c #DFDFED",
"9. c #E2E2EF",
"0. c #EAEAF4",
"q. c #EDEFF5",
"w. c #EFEFF7",
"e. c gray95",
"r. c #F3F3F3",
"t. c #F2F2F7",
"y. c #F4F4F4",
"u. c #F4F5F5",
"i. c gray96",
"p. c #F6F6F6",
"a. c gray97",
"s. c #F1F1F9",
"d. c #F8F8F8",
"f. c #F9F9F9",
"g. c #FAFAFA",
"h. c #FBFBFB",
"j. c #FBFCFB",
"k. c gray99",
"l. c #FDFCFD",
"z. c #FDFDFD",
"x. c #FEFEFE",
/* pixels */
"                                ",
"                                ",
"                                ",
"w *.3...q 0 ;.$.=.9 8 2 1 < , > ",
"w t.&.+.O.9.3.7.1.X.X. .| } { & ",
"w 7.0.%.6.<.6.,.6.] ' ` _ ) [ % ",
"4 #.B N M m n c z j h d a i c + ",
"s.x.x.x.k.k.h.h.h.a.d.u.u.u.u.>.",
"w.x.x.j.h.h.h.h.u.a.u.u.i.r.i.:.",
"q.x.h.h.h.h.a.a.a.a.i.r.r.r.r.-.",
"3 B b c l j g f p i y t r e d . ",
"6 ( R Y I K G D S A Z C V 7 G . ",
"6 ( ^ ~ ! Q W E T U P L J G F . ",
"5 ; - = * $ # @ O O . . . . . . ",
"                                ",
"                                "
};
