/* XPM */
static char *vc[] = {
/* columns rows colors chars-per-pixel */
"16 16 165 2 ",
"   c None",
".  c #001B00",
"X  c #001D00",
"o  c #001F00",
"O  c #002100",
"+  c #002300",
"@  c #002700",
"#  c #002D00",
"$  c #003100",
"%  c #003700",
"&  c #003D00",
"*  c #004300",
"=  c #004900",
"-  c #004F00",
";  c #005500",
":  c #005B00",
">  c #0B930B",
",  c #0F950E",
"<  c #109510",
"1  c #149814",
"2  c #199A19",
"3  c #1A9B1A",
"4  c #1F9D1F",
"5  c #209E20",
"6  c #25A025",
"7  c #26A126",
"8  c #2BA42B",
"9  c #2CA02C",
"0  c #2FA22F",
"q  c #2FA32F",
"w  c #2CA42C",
"e  c #30A730",
"r  c #31A731",
"t  c #32A432",
"y  c #33A432",
"u  c #36A736",
"i  c #3BA93B",
"p  c #3FAB3F",
"a  c #43AF2A",
"s  c #53B52F",
"d  c #62BC2F",
"f  c #65BD35",
"g  c #6ABF36",
"h  c #44AE44",
"j  c #43B140",
"k  c #49B049",
"l  c #4EB34E",
"z  c #53B553",
"x  c #58B857",
"c  c #7BC846",
"v  c #E1AF00",
"b  c #E3B300",
"n  c #E5B500",
"m  c #E7B900",
"M  c #E9BB00",
"N  c #EBBD00",
"B  c #86CB2B",
"V  c #95CF23",
"C  c #94CF2A",
"Z  c #9ED329",
"A  c #B7DD24",
"S  c #A3D73A",
"D  c #B9DF30",
"F  c #B2DD3C",
"G  c #EDC100",
"H  c #EDC500",
"J  c #F5CF00",
"K  c #F7D100",
"L  c #F9D500",
"P  c #FBD700",
"I  c #FDD700",
"U  c #FDD900",
"Y  c #FDDB00",
"T  c #FDDD00",
"R  c #E5ED13",
"E  c #E6EE19",
"W  c #E8F01F",
"Q  c #F3F319",
"!  c #F4F41E",
"~  c #F4F41F",
"^  c #DFEF36",
"/  c #DFEF3B",
"(  c #EEF225",
")  c #EDF22B",
"_  c #F1F424",
"`  c #F7F72E",
"'  c #E8EF35",
"]  c #ECF331",
"[  c #EDF437",
"{  c #E8F23C",
"}  c #F7F834",
"|  c #F8F834",
" . c #F8F836",
".. c #F4F439",
"X. c #F5F53D",
"o. c #F9F93A",
"O. c #F9F93D",
"+. c #99D546",
"@. c #ADDC41",
"#. c #C3E440",
"$. c #C5E74B",
"%. c #EEEE43",
"&. c #EFEF48",
"*. c #ECF54B",
"=. c #F3F542",
"-. c #F5F646",
";. c #F6F942",
":. c #F6F947",
">. c #FAFA42",
",. c #FBFB47",
"<. c #F7F74B",
"1. c #F0F04E",
"2. c #FCFC4C",
"3. c #F4F153",
"4. c #F8F850",
"5. c #FDFD51",
"6. c #FDFD54",
"7. c #F3F258",
"8. c #F0F05C",
"9. c #F3F35D",
"0. c #F1F75C",
"q. c #F4F460",
"w. c #FBFB60",
"e. c #FCFC65",
"r. c #FCFC69",
"t. c #FDFD6D",
"y. c #FDFD71",
"u. c #FEFE74",
"i. c #F7F77D",
"p. c #00008F",
"a. c #000093",
"s. c #0000AF",
"d. c #0000B1",
"f. c #0000B3",
"g. c #0000B5",
"h. c #0000B7",
"j. c #0000BB",
"k. c #0000BD",
"l. c #0000BF",
"z. c #0000C1",
"x. c #0000C3",
"c. c #0000C7",
"v. c #4A4ACC",
"b. c #4E4ECE",
"n. c #4F4FCE",
"m. c #5454D0",
"M. c #5455D0",
"N. c #5959D2",
"B. c #5E5ED3",
"V. c #6262D3",
"C. c #6262D5",
"Z. c #6666D4",
"A. c #6565D6",
"S. c #6666D6",
"D. c #6161DD",
"F. c #6666DE",
"G. c #6869D8",
"H. c #6A6AE0",
"J. c #6F6FE0",
"K. c #7272E2",
"L. c #7676E3",
"P. c #7979E4",
"I. c #7B7BE4",
"U. c #8081DD",
"Y. c #8383DE",
/* pixels */
"                                ",
"                                ",
"                                ",
"c.x.d.d.T U U U U L K J : ; - = ",
"x.I.Y.U.i.u.t.t.r.e.0.0.x z l * ",
"x.I.G.A.9.6.6.2.,.,.O.[ r w k & ",
"x.P.A.C.9.6.*.:.>.{  .] 8 7 h % ",
"x.L.C.B.7.$.c @.F g D ) 7 5 p $ ",
"l.K.B.N.7.+.a { ' e B _ 4 3 i # ",
"l.J.N.m.3.@.@.f s C A W 2 1 u @ ",
"j.F.m.n.&.O.| s a _ ! W 1 < y @ ",
"h.F.b.v.%.| ` Z V ! Q R , > q o ",
"f.F.Z.V.9.4.<.-.=.X.X.{ y q 5 . ",
"h.s.a.p.H G N N m n b b O o . . ",
"                                ",
"                                "
};
