/* XPM */
static char *vg[] = {
/* columns rows colors chars-per-pixel */
"16 16 165 2 ",
"   c None",
".  c #00001D",
"X  c #00001F",
"o  c #000021",
"O  c #000023",
"+  c #000025",
"@  c #000027",
"#  c #00002B",
"$  c #00002F",
"%  c #000031",
"&  c #000035",
"*  c #000037",
"=  c #00003B",
"-  c #000041",
";  c #000045",
":  c #000047",
">  c #00004B",
",  c #00004D",
"<  c #000051",
"1  c #000053",
"2  c #000057",
"3  c #000059",
"4  c #00005D",
"5  c #000063",
"6  c #000065",
"7  c #000069",
"8  c #00006D",
"9  c #00006F",
"0  c #000073",
"q  c #000077",
"w  c #73094B",
"e  c #7D1751",
"r  c #5D0F61",
"t  c #5B1F75",
"y  c #477941",
"u  c #487A47",
"i  c #4F7F4B",
"p  c #CD1517",
"a  c #831145",
"s  c #AD5777",
"d  c #BF677D",
"f  c #D56A71",
"g  c #DF7578",
"h  c #DE7B7D",
"j  c #E26867",
"k  c #E57371",
"l  c #E87B76",
"z  c #5C9149",
"x  c #538150",
"c  c #548253",
"v  c #548455",
"b  c #5C895A",
"n  c #568365",
"m  c #558568",
"M  c #618C61",
"N  c #7EA66F",
"B  c #819E4F",
"V  c #819D50",
"C  c #ABAB58",
"Z  c #ADAD5C",
"A  c #9C9666",
"S  c #A29D6F",
"D  c #C6BF5D",
"F  c #EA837E",
"G  c #C8C267",
"H  c #00008F",
"J  c #1D0789",
"K  c #00009D",
"L  c #1E1E9E",
"P  c #2323A0",
"I  c #2424A3",
"U  c #2929A2",
"Y  c #2A2AA3",
"T  c #2C2CA0",
"R  c #2F2FA3",
"E  c #2A2AA7",
"W  c #2D2DA4",
"Q  c #2F2FA4",
"!  c #2E2EA6",
"~  c #2F2FA6",
"^  c #2F2FA7",
"/  c #3135A5",
"(  c #3534A7",
")  c #3B37A3",
"_  c #3030AB",
"`  c #3232AA",
"'  c #3535A8",
"]  c #3434A9",
"[  c #3535A9",
"{  c #3636AB",
"}  c #3636AE",
"|  c #373AA8",
" . c #3939A9",
".. c #3B3BAA",
"X. c #3A3AAB",
"o. c #3D3DAA",
"O. c #3B3BAE",
"+. c #3D3EAC",
"@. c #3F3FAD",
"#. c #3F3FAF",
"$. c #3C3CB0",
"%. c #403FAE",
"&. c #4242AD",
"*. c #4040AE",
"=. c #4646AE",
"-. c #4843AC",
";. c #5249AC",
":. c #4242B1",
">. c #4444B0",
",. c #4545B0",
"<. c #4545B3",
"1. c #4646B3",
"2. c #4949B0",
"3. c #4B4BB1",
"4. c #4949B3",
"5. c #4E4EB3",
"6. c #494AB5",
"7. c #4F4FB5",
"8. c #5050B3",
"9. c #5353B5",
"0. c #5454B6",
"q. c #5353BE",
"w. c #5857B9",
"e. c #5858B8",
"r. c #5C5CBA",
"t. c #5D5DBA",
"y. c #6155AF",
"u. c #775DA7",
"i. c #7E5FA5",
"p. c #6160BC",
"a. c #6161BD",
"s. c #6263BD",
"d. c #6565BE",
"f. c #6666BF",
"g. c #6A6AC1",
"h. c #6A6BC1",
"j. c #6F6FC4",
"k. c #805C9F",
"l. c #A76D95",
"z. c #BB7C99",
"x. c #9172A9",
"c. c #9373A9",
"v. c #8A7ABD",
"b. c #D17E8B",
"n. c #C37E95",
"m. c #9FBE9E",
"M. c #9783BD",
"N. c #E08184",
"B. c #E59194",
"V. c #EFA09C",
"C. c #EEA29E",
"Z. c #D79AA9",
"A. c #D6A7B7",
"S. c #D4AAB7",
"D. c #DFAFBB",
"F. c #ACC29C",
"G. c #A7C3A2",
"H. c #ABC3A3",
"J. c #9598D4",
"K. c #939BDA",
"L. c #D4B3C5",
"P. c #DDB6C3",
"I. c #DDCEDF",
"U. c #E2C0CB",
"Y. c #E1C8D4",
/* pixels */
"                                ",
"                                ",
"                                ",
"d u.K w a H r s 0 9 7 5 4 3 1 , ",
"J P.I.A.Z.L.Y.J.h.d.a.t.e.9.7.: ",
"p B.F k j l g f ;.:.+.| / W 2.- ",
"e D.V.h N.V.b.l.=.O.M n n x =.= ",
"y.U.M.z.n.K.S.c.+.} b N F.x $.& ",
"t v.q.i.i.<.s.x.) _ v m.H.u +.% ",
"0 j.7.4.=.&...{ ^ E x z G.y { # ",
"0 g.4.<.%. .{ W Y I G V V D ( + ",
"0 g.>.%. .] W U P L S Z C A R o ",
"7 a.t.e.0.8.3.=.&.o. .( ` W R . ",
"6 4 1 1 > : - = & % # # o o . . ",
"                                ",
"                                "
};
