/* XPM */
static char *vi[] = {
/* columns rows colors chars-per-pixel */
"16 16 144 2 ",
"   c None",
".  c #D66B53",
"X  c #D8605E",
"o  c #D9716C",
"O  c #DC7173",
"+  c #499250",
"@  c #EBD51E",
"#  c #CECE2B",
"$  c #E1D725",
"%  c #E4DE2B",
"&  c #E3D73A",
"*  c #E9D93E",
"=  c #EEE831",
"-  c #BB9A42",
";  c #92B34D",
":  c #BFBF6D",
">  c #C9BF52",
",  c #DDDD5A",
"<  c #E3D442",
"1  c #E0D942",
"2  c #E7DB42",
"3  c #EBDD43",
"4  c #EBDF55",
"5  c #E6DD5A",
"6  c #EBDF58",
"7  c #ECE048",
"8  c #F3E74C",
"9  c #F5EF49",
"0  c #ECE554",
"q  c #E8E15F",
"w  c #F5EB56",
"e  c #D0CD62",
"r  c #DFD962",
"t  c #DCD56D",
"y  c #EDE867",
"u  c #F1E76C",
"i  c #F2E96E",
"p  c #E6E37E",
"a  c #EDE779",
"s  c #F2EC73",
"d  c #5A43D5",
"f  c #5E49DD",
"g  c #6450DD",
"h  c #7968CB",
"j  c #7575CF",
"k  c #7775CF",
"l  c #786CDE",
"z  c #8B7FE0",
"x  c #8883AD",
"c  c #918CBF",
"v  c #BCBCBA",
"b  c #BCCEA6",
"n  c #DDD581",
"m  c #DDDF82",
"M  c #D9D195",
"N  c #F3E985",
"B  c #F2E88D",
"V  c #F4EE8F",
"C  c #FBEF8E",
"Z  c #E4E596",
"A  c #F7EF98",
"S  c #F7EE9E",
"D  c #D3D5A3",
"F  c #D4CEBD",
"G  c #ECE5A3",
"H  c #F4F0A3",
"J  c #F6F1A2",
"K  c #F8F0A4",
"L  c #F9F2A9",
"P  c #FCF6BE",
"I  c #8989CD",
"U  c #9595D7",
"Y  c #9B9BD9",
"T  c #BBBBCB",
"R  c #BDBDCD",
"E  c #BFBFCF",
"W  c #A9A8DE",
"Q  c #9C9CE1",
"!  c #AAA9E0",
"~  c #AEAEE2",
"^  c #B9B9E5",
"/  c #BEBEE6",
"(  c #B8B7EA",
")  c #B5B6F1",
"_  c #CBCBCB",
"`  c #CFCDCD",
"'  c #CFCFCD",
"]  c gray81",
"[  c gray82",
"{  c LightGray",
"}  c #D3D3D7",
"|  c #D7D7D7",
" . c gray85",
".. c #DDDDDD",
"X. c #DFDFDF",
"o. c #EDCFCF",
"O. c #EBCBD0",
"+. c #E7E7CD",
"@. c #F8F2C0",
"#. c #EEEED6",
"$. c #F7F3D0",
"%. c #F9F6D5",
"&. c #FCF9DC",
"*. c #C2C2E8",
"=. c #C2C1ED",
"-. c #C9C8EF",
";. c #D8D8E7",
":. c #DCDCEA",
">. c #D6D5F2",
",. c #E1E1E1",
"<. c gray89",
"1. c gray90",
"2. c #E7E7E7",
"3. c #E6EAE3",
"4. c #E1E1EA",
"5. c #E9E9E9",
"6. c gray92",
"7. c gray93",
"8. c #EDEDEF",
"9. c #EFEFEF",
"0. c #F7F7E4",
"q. c #FDFBE1",
"w. c #F0F1E9",
"e. c #F1F1EF",
"r. c #EFEFF1",
"t. c #F1F1F0",
"y. c #F1F1F1",
"u. c gray95",
"i. c #F2F2F3",
"p. c #F5F5F0",
"a. c gray97",
"s. c #F9F7F0",
"d. c #F8F6F2",
"f. c #FAFAF2",
"g. c #FDFDF5",
"h. c #F7F7F8",
"j. c #F7F7FC",
"k. c #F9F9F9",
"l. c #FAFAFA",
"z. c #FBFBFB",
"x. c #FBFCFB",
"c. c #FBFBFC",
"v. c gray99",
"b. c #FDFDFE",
/* pixels */
"                                ",
"                                ",
"                                ",
"y.y.y.y.r.r.e.8.e.6.5.2.1.<.,.X.",
"e.L &.q.P C b.S A v.K @.%.$.B M ",
"y.H y a V H g.s 9 f.0.u 4 1 , : ",
"8.c.N q 0 w I I x l n = # & +.} ",
"j j.F p 5 8 h g f d < % r G ~ E ",
"k >.( v.v.i d.O o.X * D Y :.! R ",
"U =.-.z.+ 4 d.o O.. 7 ) I 4.W T ",
"8.v.z.z.3 ; Z > - e m @ ;.i.y.' ",
"6.v.l.z.w.b 3.2 $ t Q v y.y.y._ ",
"5.z.l.l.l.a.a.p.#.*.^ / i.i.i._ ",
"2.1.4.+.X... .| | } [ ' ' _ _ _ ",
"                                ",
"                                "
};
