/* XPM */
static char *vn[] = {
/* columns rows colors chars-per-pixel */
"16 16 127 2 ",
"   c None",
".  c #DD0000",
"X  c #DF0000",
"o  c #E10000",
"O  c #E30000",
"+  c #E50000",
"@  c #E70000",
"#  c #E90000",
"$  c #EB0000",
"%  c #ED0000",
"&  c #EF0000",
"*  c #F10000",
"=  c #F30000",
"-  c #F50000",
";  c #F70000",
":  c #F90000",
">  c #FB0000",
",  c #FD0000",
"<  c red",
"1  c #F10B0B",
"2  c #F10F0E",
"3  c #F21010",
"4  c #F21313",
"5  c #F21414",
"6  c #F31919",
"7  c #F31A1A",
"8  c #F41F1F",
"9  c #F32719",
"0  c #F4301E",
"q  c #F42020",
"w  c #F52323",
"e  c #F52424",
"r  c #F52525",
"t  c #F52626",
"y  c #F62929",
"u  c #F62B2B",
"i  c #F22C2C",
"p  c #F22F2F",
"a  c #F62C2C",
"s  c #F6332B",
"d  c #F23232",
"f  c #F33232",
"g  c #F73131",
"h  c #F33535",
"j  c #F43636",
"k  c #F83736",
"l  c #F83737",
"z  c #F83E34",
"x  c #F43939",
"c  c #F43B3B",
"v  c #F53D3D",
"b  c #F53F3F",
"n  c #F93A3A",
"m  c #F93C3C",
"M  c #F93C3D",
"N  c #FA3F3F",
"B  c #F6422B",
"V  c #F7432E",
"C  c #F64E2A",
"Z  c #F7602F",
"A  c #F6772A",
"S  c #F9733A",
"D  c #F64242",
"F  c #F64444",
"G  c #F74646",
"H  c #FA4040",
"J  c #FA4242",
"K  c #FA4444",
"L  c #FB4545",
"P  c #F74949",
"I  c #F74B4B",
"U  c #F74E4E",
"Y  c #FB4949",
"T  c #FB4A49",
"R  c #FC4A4B",
"E  c #FC4B4B",
"W  c #FC4F4F",
"Q  c #FB5446",
"!  c #F85050",
"~  c #F85353",
"^  c #FD5150",
"/  c #FD5151",
"(  c #FD5353",
")  c #F95455",
"_  c #F95757",
"`  c #FD5454",
"'  c #F95858",
"]  c #FE5858",
"[  c #FE5959",
"{  c #FA5C5C",
"}  c #FA5D5D",
"|  c #FE5C5C",
" . c #FE5F5F",
".. c #FB7647",
"X. c #FC784C",
"o. c #FB6060",
"O. c #FB6162",
"+. c #FC6565",
"@. c #FC6666",
"#. c #FC6969",
"$. c #FC6A6A",
"%. c #FD6D6D",
"&. c #FD6F6F",
"*. c #FD7071",
"=. c #FE7273",
"-. c #FE7474",
";. c #FE7676",
":. c #FE7777",
">. c #FE7979",
",. c #FF7B7A",
"<. c #FF7B7B",
"1. c #F8C136",
"2. c #F7D230",
"3. c #F5F524",
"4. c #F7F72F",
"5. c #F7F730",
"6. c #F8F834",
"7. c #F8F835",
"8. c #F8F836",
"9. c #F9F93B",
"0. c #F9F93C",
"q. c #FBBF47",
"w. c #FACC42",
"e. c #FBCB46",
"r. c #FCD54B",
"t. c #FAFA40",
"y. c #FAFA41",
/* pixels */
"                                ",
"                                ",
"                                ",
"< < < < < < < < > > ; ; = = % % ",
"< <.<.<.;.=.*.%.#.+.o.{ _ ~ U $ ",
"< <.| | ] _ ( X...J M k g a P $ ",
"< <.| | ( ( R q.w.M k g u t F + ",
"< ;._ ( ^ r.e.0.9.1.2.s t q b + ",
"< =.( W T Q t.9.8.5.B w q 7 c + ",
"> *.W T L H S 7.4.A w 9 6 5 j + ",
"> $.Y K H n 7.Z C 3.7 6 5 3 f o ",
"> @.K H n z V u q s 9 4 2 1 p X ",
"; O.} ' _ U T L D b x j d p i . ",
"= = = % % % $ + $ + o o X X . . ",
"                                ",
"                                "
};
