/* XPM */
static char *vu[] = {
/* columns rows colors chars-per-pixel */
"16 16 156 2 ",
"   c None",
".  c black",
"X  c #010000",
"o  c #090000",
"O  c #191714",
"+  c #1E1C19",
"@  c #2D1B00",
"#  c #003D00",
"$  c #23221F",
"%  c #242320",
"&  c #292724",
"*  c #2A2825",
"=  c #2E2D2A",
"-  c #2F2E2B",
";  c #34322F",
":  c #353330",
">  c #383735",
",  c #3A3836",
"<  c #3B3936",
"1  c #3E3D3A",
"2  c #3F3E3C",
"3  c #3C5A3A",
"4  c #3D5A3A",
"5  c #43413F",
"6  c #454341",
"7  c #494946",
"8  c #4D4B49",
"9  c #4E4C4B",
"0  c #5F5D5C",
"q  c #755251",
"w  c #7C5A59",
"e  c #5B7458",
"r  c #746F53",
"t  c #6A6866",
"y  c #6E6D6A",
"u  c #7B7A79",
"i  c #7D7D7A",
"p  c #950000",
"a  c #E70000",
"s  c #E90000",
"d  c #EB0000",
"f  c #ED0000",
"g  c #EF0000",
"h  c #F10000",
"j  c #F30000",
"k  c #F50000",
"l  c #F70000",
"z  c #F90000",
"x  c #FB0000",
"c  c #FD0000",
"v  c #F52626",
"b  c #F62B2B",
"n  c #F62C2C",
"m  c #F73131",
"M  c #F83736",
"N  c #F83737",
"B  c #F93C3C",
"V  c #F93C3D",
"C  c #B37500",
"Z  c #B34C4B",
"A  c #807644",
"S  c #817745",
"D  c #817746",
"F  c #897F50",
"G  c #967A79",
"H  c #C25554",
"J  c #F64444",
"K  c #FA4142",
"L  c #FA4242",
"P  c #FB4747",
"I  c #F74949",
"U  c #F74E4E",
"Y  c #FC4C4C",
"T  c #F85353",
"R  c #FD5151",
"E  c #F95757",
"W  c #FA5C5C",
"Q  c #D07777",
"!  c #FB6060",
"~  c #FC6565",
"^  c #FC6969",
"/  c #FD6D6D",
"(  c #FD7071",
")  c #FE7474",
"_  c #008100",
"`  c #008300",
"'  c #008700",
"]  c #008900",
"[  c #008B00",
"{  c #008F00",
"}  c #009100",
"|  c #009300",
" . c #009900",
".. c #009D00",
"X. c #009F00",
"o. c #00A300",
"O. c #369134",
"+. c #369A34",
"@. c #0BC20B",
"#. c #0FC40E",
"$. c #13C613",
"%. c #10CA10",
"&. c #14CB14",
"*. c #18C719",
"=. c #19CC19",
"-. c #1EC91E",
";. c #1FCF1F",
":. c #23CB23",
">. c #29CD29",
",. c #2CCA2C",
"<. c #2FCA2F",
"1. c #2FCB2F",
"2. c #24D024",
"3. c #2AD22A",
"4. c #2ED32E",
"5. c #2FD52F",
"6. c #32CC32",
"7. c #35CD35",
"8. c #39CF39",
"9. c #33D132",
"0. c #3DD03D",
"q. c #55AD55",
"w. c #42D242",
"e. c #46D346",
"r. c #4BD54B",
"t. c #50D850",
"y. c #C79500",
"u. c #D5AB00",
"i. c #DBBD22",
"p. c #DDC028",
"a. c #DEC22C",
"s. c #E0C432",
"d. c #E2C637",
"f. c #E3C83C",
"g. c #8E8559",
"h. c #948B5F",
"j. c #BFAF4F",
"k. c #948C62",
"l. c #A79F7B",
"z. c #B0A66F",
"x. c #CDBF73",
"c. c #D7C249",
"v. c #DAC654",
"b. c #E0C742",
"n. c #E5CA42",
"m. c #E1C845",
"M. c #E1C846",
"N. c #E8CF42",
"B. c #E9D34F",
"V. c #E4CD50",
"C. c #E7D05A",
"Z. c #ECD658",
"A. c #D5C776",
"S. c #E6D162",
"D. c #E9D361",
"F. c #EDDC7F",
/* pixels */
"                                ",
"                                ",
"                                ",
"@ u.o p c c c c x x l l j j f f ",
". l.F.G Q ) ( / ^ ~ ! W E T U d ",
". i h.D.w H R Y P L V M m n I d ",
". u 0 g.C.q Z P L V M m b v J a ",
". A.Z.v.F V.7 6 2 , : - * % 5 . ",
". x.r B.9 D N.n.f.d.s.a.p.i.b.C ",
". z.j.c.D M.1 > ; - * $ + O , . ",
". y 8 D M.3 O.5.3.:.;.*.&.&.9.| ",
". t D b.3 +.9.>.:.-.*.&.@.@.1.] ",
". k.S.e q.t.r.e.w.8.0.7.6.<.<._ ",
". y.. # o.o... .} } } [ ] ' _ ] ",
"                                ",
"                                "
};
