/* XPM */
static char *wales[] = {
/* columns rows colors chars-per-pixel */
"16 16 163 2 ",
"   c None",
".  c #002500",
"X  c #002F00",
"o  c #003100",
"O  c #003300",
"+  c #003500",
"@  c #003700",
"#  c #003900",
"$  c #003F00",
"%  c #004100",
"&  c #004700",
"*  c #004D00",
"=  c #005100",
"-  c #005700",
";  c #005D00",
":  c #006100",
">  c #006700",
",  c #006D00",
"<  c #006F00",
"1  c #007500",
"2  c #007900",
"3  c #037F00",
"4  c #7B711F",
"5  c #F41F1F",
"6  c #CD2725",
"7  c #CC2C25",
"8  c #C3382B",
"9  c #C63B2A",
"0  c #CD3737",
"q  c #DB3736",
"w  c #D93C37",
"e  c #DA3C36",
"r  c #D13C3D",
"t  c #D13F3C",
"y  c #EC242C",
"u  c #F62A3B",
"i  c #A3411B",
"p  c #BE412F",
"a  c #9E6B39",
"s  c #B3663E",
"d  c #C54E38",
"f  c #D5413B",
"g  c #D2443C",
"h  c #DD3F42",
"j  c #E53D44",
"k  c #F43A4A",
"l  c #9E7440",
"z  c #B56948",
"x  c #BA6A49",
"c  c #CE4142",
"v  c #C04B4B",
"b  c #CF4A49",
"n  c #D54242",
"m  c #DB4740",
"M  c #D84840",
"N  c #DA5145",
"B  c #D1544B",
"V  c #D5554A",
"C  c #DF574D",
"Z  c #D5594E",
"A  c #C95B51",
"S  c #D25151",
"D  c #D25551",
"F  c #DE5454",
"G  c #E34146",
"H  c #E74B4F",
"J  c #E3504F",
"K  c #E05D58",
"L  c #D1665E",
"P  c #D86559",
"I  c #C7755D",
"U  c #ED5864",
"Y  c #DB7474",
"T  c #D97972",
"R  c #E26D65",
"E  c #F3626D",
"W  c #098300",
"Q  c #3CA118",
"!  c #3FA521",
"~  c #459F1C",
"^  c #41A21C",
"/  c #568E22",
"(  c #4A9C20",
")  c #738C2E",
"_  c #7F8D3A",
"`  c #7A9537",
"'  c #46A727",
"]  c #59AB32",
"[  c #5CA939",
"{  c #5FA938",
"}  c #4ABD3F",
"|  c #61AB37",
" . c #60A93A",
".. c #65AE3D",
"X. c #7A9541",
"o. c #68AE43",
"O. c #6FB24B",
"+. c #76B851",
"@. c #7AB957",
"#. c #7BBB57",
"$. c #7EBB5C",
"%. c #7FBE5C",
"&. c #948747",
"*. c #9E8F4D",
"=. c #E1827B",
"-. c #89C269",
";. c #8CC36D",
":. c #8FC671",
">. c #93C875",
",. c #95C97A",
"<. c #A2B794",
"1. c #E68682",
"2. c #E28E86",
"3. c #F4849A",
"4. c #E99991",
"5. c #E3A6A1",
"6. c #EBB3AD",
"7. c #E9B3AF",
"8. c #E3BBB7",
"9. c #E7BBB7",
"0. c #EDB8B4",
"q. c #E7BCBB",
"w. c #AED19E",
"e. c #CDCDCD",
"r. c gray81",
"t. c gray82",
"y. c #D5D5D5",
"u. c #D7D7D7",
"i. c #D7DBD9",
"p. c gray85",
"a. c gray86",
"s. c gray87",
"d. c #EEC4C1",
"f. c #E8CAC8",
"g. c #EACCC8",
"h. c #EBCCC9",
"j. c #EED0CB",
"k. c #EDDDDC",
"l. c #EEDFDD",
"z. c #F2D9D8",
"x. c #DEEEDD",
"c. c #EFE0DE",
"v. c #E1F2DC",
"b. c gray88",
"n. c #E1E1E1",
"m. c #E3E0E0",
"M. c gray89",
"N. c #E5E5E7",
"B. c #E7E7E7",
"V. c #E7F6E7",
"C. c #EEF6F6",
"Z. c gray96",
"A. c #F7F6F6",
"S. c gray97",
"D. c #FAF8F7",
"F. c #F8F8F8",
"G. c #FCFCFB",
"H. c gray99",
"J. c #FDFDFD",
"K. c #FDFEFE",
"L. c #FEFEFE",
"P. c #FEFFFE",
"I. c white",
/* pixels */
"                                ",
"                                ",
"                                ",
"B.B.B.B.N.N.m.M.B.c.b.s.i.p.p.u.",
"B.P.P.z.4.Y h.P.F.2.7.d.c.F.A.u.",
"B.P.8.5.L J 0.P.V n r 0 F.P g.t.",
"B.H.8.P.f.S F.6.c Z q k.q.8 l.r.",
"B.P.K P.1.v h.=.f e T C.7 3.Z.r.",
"w.v.E V.B D m f N w M R J &.x.<.",
"W ,.%.B H J G j f d y 5 / ! o.# ",
"W :.#.*.x k s _ u ) ' 4 6 ' ] + ",
"2 :.#.} a ` ..| p 9 ( Q i Q  .o ",
"1 ;.-.U I $.@.A z O.X.h a [ [ . ",
"1 , > ; ; - = * & % $ # o o X X ",
"                                ",
"                                "
};
