/* XPM */
static char *wf[] = {
/* columns rows colors chars-per-pixel */
"16 16 138 2 ",
"   c None",
".  c #670000",
"X  c #6D0000",
"o  c #6F0000",
"O  c #730000",
"+  c #750000",
"@  c #770000",
"#  c #7B0000",
"$  c #7F0000",
"%  c #810000",
"&  c #850000",
"*  c #890000",
"=  c #8D0000",
"-  c #8F0000",
";  c #930000",
":  c #950000",
">  c #970000",
",  c #9B0000",
"<  c #9F0000",
"1  c #A10000",
"2  c #A30000",
"3  c #A50000",
"4  c #A70000",
"5  c #AB0000",
"6  c #AD0000",
"7  c #AF0000",
"8  c #B70B0B",
"9  c #B70F0E",
"0  c #B81313",
"q  c #BA1919",
"w  c #BE1E1E",
"e  c #BD2525",
"r  c #C02323",
"t  c #C22727",
"y  c #C32929",
"u  c #C32A2A",
"i  c #C02C2C",
"p  c #C12F2F",
"a  c #C22E2E",
"s  c #C32F2F",
"d  c #C42C2C",
"f  c #C52E2E",
"g  c #C52F2F",
"h  c #C23232",
"j  c #C33232",
"k  c #C53131",
"l  c #C33535",
"z  c #C33636",
"x  c #C73434",
"c  c #C73535",
"v  c #C53636",
"b  c #C53737",
"n  c #C33B3B",
"m  c #C53939",
"M  c #C73A3A",
"N  c #C73B3B",
"B  c #C73D3C",
"V  c #C73D3D",
"C  c #C73F3F",
"Z  c #C93A3A",
"A  c #C93B3A",
"S  c #C93B3B",
"D  c #C83B3C",
"F  c #C93C3D",
"G  c #CB3F3F",
"H  c #CB4040",
"J  c #C84242",
"K  c #CA4343",
"L  c #CC4141",
"P  c #CC4142",
"I  c #CC4242",
"U  c #CA4444",
"Y  c #CA4646",
"T  c #CD4444",
"R  c #CD4545",
"E  c #CE4747",
"W  c #CC4949",
"Q  c #CF4949",
"!  c #CF4A49",
"~  c #CC4B4B",
"^  c #CD4E4E",
"/  c #CE4E4E",
"(  c #D14341",
")  c #D14E4E",
"_  c #D14F4F",
"`  c #D14F50",
"'  c #CE5050",
"]  c #CE5151",
"[  c #CF5353",
"{  c #D05353",
"}  c #D05454",
"|  c #D05455",
" . c #D35454",
".. c #D25757",
"X. c #D25858",
"o. c #D45959",
"O. c #D35C5C",
"+. c #D35D5D",
"@. c #D46060",
"#. c #D56162",
"$. c #D66565",
"%. c #D76666",
"&. c #D86969",
"*. c #D86A6A",
"=. c #D96F6E",
"-. c #DA6F6F",
";. c #D97474",
":. c #DD7777",
">. c #000093",
",. c #000095",
"<. c #7676D1",
"1. c #7979D3",
"2. c #7B7BD3",
"3. c #DD8989",
"4. c #DA8C8C",
"5. c #DA8E8E",
"6. c #DF8D8E",
"7. c #E09090",
"8. c #E29293",
"9. c #E19494",
"0. c #E29595",
"q. c #E39696",
"w. c #E49898",
"e. c #E2AEAE",
"r. c #E3AFAF",
"t. c #E4AEAE",
"y. c #E9A9A9",
"u. c #E9ABAB",
"i. c #E5B1B1",
"p. c #E5BEBE",
"a. c #EDCBCB",
"s. c #EECDCD",
"d. c #EFD8D8",
"f. c #F3F3F3",
"g. c gray97",
"h. c #FDFDFD",
"j. c #FEFEFE",
"k. c white",
/* pixels */
"                                ",
"                                ",
"                                ",
",.,.k.k.7 7 Q 7 5 4 2 < < : ; : ",
",.2.k.h.;.;.y.=.&.$.@.O...[ ^ & ",
",.2.k.h.o.| q.) E L F b k d W & ",
",.2.k.k.| { 9.) L ^ s.g.d.C U % ",
">.<.k.h._ { 8.L S s.J i.M r.C $ ",
"( y.q.8.8.6.3.S b g.r.t 4.f.n # ",
"7 =._ Q T G S c d d.M 4.d p.z + ",
"7 *.) L F S b f u S r.f.p.e h O ",
"4 $.T G S x s u e w q 0 9 8 p o ",
"2 #.+.X...^ Q U J C M z h p d . ",
"2 , : ; = = * & % # + + O o o O ",
"                                ",
"                                "
};
