/* XPM */
static char *ws[] = {
/* columns rows colors chars-per-pixel */
"16 16 133 2 ",
"   c None",
".  c #000023",
"X  c #00002B",
"o  c #000031",
"O  c #000033",
"+  c #000037",
"@  c #000039",
"#  c #00003B",
"$  c #41367F",
"%  c #DD0000",
"&  c #DF0000",
"*  c #E10000",
"=  c #E30000",
"-  c #E50000",
";  c #E70000",
":  c #E90000",
">  c #EB0000",
",  c #ED0000",
"<  c #EF0000",
"1  c #F10000",
"2  c #F30000",
"3  c #F50000",
"4  c #F70000",
"5  c #F90000",
"6  c #FB0000",
"7  c #FD0000",
"8  c #F10B0B",
"9  c #F10F0E",
"0  c #F21010",
"q  c #F21313",
"w  c #F21414",
"e  c #F31919",
"r  c #F31A1A",
"t  c #F41E1E",
"y  c #F41F1F",
"u  c #F42020",
"i  c #F52323",
"p  c #F52424",
"a  c #F52525",
"s  c #F52626",
"d  c #F62929",
"f  c #F62A2A",
"g  c #F62B2B",
"h  c #F22C2C",
"j  c #F22F2F",
"k  c #F62C2C",
"l  c #F72E2E",
"z  c #F72F2F",
"x  c #F23232",
"c  c #F33232",
"v  c #F73030",
"b  c #F73131",
"n  c #F33535",
"m  c #F43636",
"M  c #F83434",
"N  c #F83535",
"B  c #F83636",
"V  c #F83736",
"C  c #F83737",
"Z  c #F43939",
"A  c #F43B3B",
"S  c #F53D3D",
"D  c #F53F3F",
"F  c #F93A3A",
"G  c #F93B3A",
"H  c #F93C3C",
"J  c #F93C3D",
"K  c #FA3F3F",
"L  c #F64242",
"P  c #F64444",
"I  c #F74646",
"U  c #FA4040",
"Y  c #FA4242",
"T  c #FA4444",
"R  c #FB4545",
"E  c #F74949",
"W  c #F74B4B",
"Q  c #F74E4E",
"!  c #FB4949",
"~  c #FB4A49",
"^  c #FC4F4F",
"/  c #F85050",
"(  c #F85353",
")  c #F95455",
"_  c #F95757",
"`  c #F95858",
"'  c #FA5C5C",
"]  c #FA5D5D",
"[  c #FB6060",
"{  c #FB6162",
"}  c #FC6565",
"|  c #FC6666",
" . c #FC6A6A",
".. c #FD6F6F",
"X. c #463B82",
"o. c #473B83",
"O. c #4B4086",
"+. c #4C4186",
"@. c #4C4188",
"#. c #50468A",
"$. c #51478A",
"%. c #52478B",
"&. c #554A8D",
"*. c #574C8E",
"=. c #464694",
"-. c #4B4B93",
";. c #4B4B94",
":. c #515195",
">. c #5E5393",
",. c #58589B",
"<. c #5A5A9C",
"1. c #6363A1",
"2. c #6969A4",
"3. c #7269A1",
"4. c #756DA3",
"5. c #786FA5",
"6. c #7171A9",
"7. c #7A72A8",
"8. c #7979AE",
"9. c #7B7BAE",
"0. c #7A7AAF",
"q. c #7B7BAF",
"w. c #7676B0",
"e. c #8B8BB9",
"r. c #8C8CB9",
"t. c #9C9CC3",
"y. c #9C9DC3",
"u. c #9BA3CA",
"i. c #ABABCB",
"p. c #AEB5D4",
"a. c #BBBBD6",
"s. c #BEBED6",
"d. c #D0D1E2",
/* pixels */
"                                ",
"                                ",
"                                ",
"# # # # # o o X . 5 4 4 2 2 , , ",
"# q.t.d.e.s.e.4.3.} [ ' _ ( Q > ",
"# q.a.2.1.t.:.*.%.Y J V b k E > ",
"# 8.q.,.i.6.;.$.@.J V b g s P - ",
"+ 8.,.p.u.-.=.O.o.V v g s u D - ",
"o 7.>.5.&.%.o.X.$ z z s y e A - ",
"7 ..^ ! R U H V z g u y e q m - ",
"7  .! R K F m b g s y e w 0 b % ",
"5 } R K F M k g u y e q 9 8 j % ",
"5 { ' ` ) / ~ P L S A n c j j % ",
"4 2 2 , , , > > - - = = % % % % ",
"                                ",
"                                "
};
