/* XPM */
static char *ye[] = {
/* columns rows colors chars-per-pixel */
"16 16 120 2 ",
"   c None",
".  c black",
"X  c #161616",
"o  c gray10",
"O  c #1E1E1E",
"+  c #222323",
"@  c #282828",
"#  c #2D2D2D",
"$  c #333232",
"%  c gray21",
"&  c #373737",
"*  c gray22",
"=  c gray23",
"-  c gray24",
";  c #3F3F3F",
":  c #424141",
">  c #434343",
",  c #464646",
"<  c #484848",
"1  c gray29",
"2  c gray30",
"3  c gray31",
"4  c #535353",
"5  c #585758",
"6  c gray36",
"7  c #606060",
"8  c #656565",
"9  c #69696A",
"0  c gray43",
"q  c #D50000",
"w  c #D70000",
"e  c #D90000",
"r  c #DB0000",
"t  c #DF0000",
"y  c #E10000",
"u  c #E30000",
"i  c #E50000",
"p  c #E70000",
"a  c #E90000",
"s  c #EB0000",
"d  c #ED0000",
"f  c #EF0000",
"g  c #EC3C2C",
"h  c #ED4131",
"j  c #EF4637",
"k  c #F04C3D",
"l  c #E74D4D",
"z  c #EE5749",
"x  c #EF5C4E",
"c  c #F15042",
"v  c #F25547",
"b  c #F3594C",
"n  c #F45D51",
"m  c #F06053",
"M  c #F46254",
"N  c #F26557",
"B  c #F56659",
"V  c #F2695C",
"C  c #F6695C",
"Z  c #F66C5F",
"A  c #F36D60",
"S  c #F47165",
"D  c #F57569",
"F  c #F6786D",
"G  c #F67B71",
"H  c #F77F74",
"J  c #81817F",
"K  c #F78177",
"L  c #F78479",
"P  c #F8857A",
"I  c #F8857B",
"U  c gray61",
"Y  c gray62",
"T  c gray63",
"R  c #A2A2A2",
"E  c #A5A5A5",
"W  c gray66",
"Q  c #A9A9A9",
"!  c gray67",
"~  c #AEAEAE",
"^  c gray69",
"/  c gray70",
"(  c gray71",
")  c gray72",
"_  c #FF8D8D",
"`  c #F5A7A7",
"'  c #F6A9A9",
"]  c #F7ADAC",
"[  c #F8AFAF",
"{  c #F6B3B3",
"}  c #F9B2B2",
"|  c #FAB3B4",
" . c #FBB6B6",
".. c #FCB9B9",
"X. c #FDBBBB",
"o. c #FDBDBD",
"O. c #FEBFBF",
"+. c #C5C5C5",
"@. c LightGray",
"#. c #D5D5D5",
"$. c #D7D7D7",
"%. c #FEC0C0",
"&. c #FECCCC",
"*. c #F1F1F1",
"=. c gray95",
"-. c #F3F3F3",
";. c #F4F4F4",
":. c #F4F5F5",
">. c gray96",
",. c #F6F6F6",
"<. c gray97",
"1. c #F8F8F8",
"2. c #F9F9F9",
"3. c #FAFAFA",
"4. c #FBFBFB",
"5. c #FBFCFB",
"6. c gray99",
"7. c #FDFCFD",
"8. c #FDFDFD",
"9. c #FEFEFE",
/* pixels */
"                                ",
"                                ",
"                                ",
"f f f f f f a a a p p y y y e e ",
"f I L L K H G F D S Z V N m x w ",
"f I Z C B M n b v c k j h g z w ",
"_ &.%.O.O.X.X. .} } { ] ' ` { l ",
">.9.9.9.6.6.3.3.3.1.<.>.>.;.>.$.",
"-.9.9.3.6.3.3.3.>.3.>.>.>.-.;.$.",
"-.9.6.9.3.3.1.3.>.>.>.;.-.-.-.@.",
"0 @.( ( / ^ ~ ! Q E R R U U W % ",
". 0 2 1 > - * $ # @ + O o X * . ",
". 9 8 7 6 5 4 3 1 , : ; - & % . ",
". . . . . . . . . . . . . . . . ",
"                                ",
"                                "
};
