/* XPM */
static char *yt[] = {
/* columns rows colors chars-per-pixel */
"16 16 134 2 ",
"   c None",
".  c #D83B29",
"X  c #D93E2A",
"o  c #D53E34",
"O  c #DA422F",
"+  c #D54137",
"@  c #D64239",
"#  c #DE4D3D",
"$  c #DB5347",
"%  c #4C42A9",
"&  c #4747B1",
"*  c #4B4FB5",
"=  c #4B4DB6",
"-  c #625AB3",
";  c #6264BE",
":  c #AEACAD",
">  c #B5B2B2",
",  c #B5B4B5",
"<  c #B6B5B6",
"1  c #BBB8B8",
"2  c #BBBABB",
"3  c #E29295",
"4  c #E09899",
"5  c #E5989A",
"6  c #C0BDBA",
"7  c #E6ADAE",
"8  c #FAB1B1",
"9  c #FEB3B3",
"0  c #FDBFBF",
"q  c #FEBEBE",
"w  c #B5B7D6",
"e  c #B2B5DA",
"r  c #B4B6DB",
"t  c #C7C5C4",
"y  c #C6C5C5",
"u  c #C7C7C6",
"i  c #C9C7C8",
"p  c #CBC9C9",
"a  c #CDCAC9",
"s  c #CCCACA",
"d  c #CECDCD",
"f  c #CFCDCD",
"g  c gray81",
"h  c gray82",
"j  c #D2D1D1",
"k  c #D3D1D1",
"l  c LightGray",
"z  c #D5D5D5",
"x  c #D7D5D5",
"c  c #D7D7D7",
"v  c #D9D7D7",
"b  c gray86",
"n  c gainsboro",
"m  c #DDDDDD",
"M  c #DFDFDF",
"N  c #FBC1C1",
"B  c #FCC3C3",
"V  c #FDC6C6",
"C  c #E1E1DF",
"Z  c #C4C7E1",
"A  c #DBD8EA",
"S  c #DBD9EA",
"D  c #E1E2E2",
"F  c #E1E3E3",
"G  c #E6E0E1",
"H  c #E6E3E2",
"J  c #E4E4E4",
"K  c gray90",
"L  c #E7E6E7",
"P  c #E7E7E7",
"I  c #EDE3E3",
"U  c #E8E7E7",
"Y  c #EBE7E7",
"T  c #EFE5E5",
"R  c #E9E8E6",
"E  c #E6EAEA",
"W  c gray91",
"Q  c #E9E9E9",
"!  c #EAE9E9",
"~  c #E9EBE9",
"^  c #E9E9EB",
"/  c gray92",
"(  c #ECE8E9",
")  c #EDEBEB",
"_  c #EEEAEA",
"`  c #EFEBEB",
"'  c #EBEBED",
"]  c gray93",
"[  c #EEEEEE",
"{  c #EFEFEF",
"}  c #F1E9E9",
"|  c #F1EFEF",
" . c #F3EFEF",
".. c #FEE8E8",
"X. c #F9EEEE",
"o. c #EFEFF0",
"O. c #F3EFF1",
"+. c #EBF0F0",
"@. c #EEF0F0",
"#. c #EFF0F0",
"$. c #EFF1F1",
"%. c gray94",
"&. c #F1F1F1",
"*. c #F2F1F2",
"=. c #F2F2F2",
"-. c #F2F3F3",
";. c #F3F3F3",
":. c #F5F1F1",
">. c #F5F3F3",
",. c #F4F4F4",
"<. c #F4F4F5",
"1. c gray96",
"2. c #F6F6F6",
"3. c #F7F6F6",
"4. c #F7F7F6",
"5. c gray97",
"6. c #F8F0F0",
"7. c #F9F6F6",
"8. c #FBF6F6",
"9. c #FDF7F7",
"0. c #FEF7F7",
"q. c #FDF8F7",
"w. c #F8F8F8",
"e. c #FAF9F8",
"r. c #F8FBFB",
"t. c gray98",
"y. c #FBFBFB",
"u. c #FCF9F8",
"i. c gray99",
"p. c #FDFDFD",
"a. c #FEFCFC",
"s. c #FEFDFD",
"d. c #FEFEFE",
"f. c white",
/* pixels */
"                                ",
"                                ",
"                                ",
"1.1.1.>.>.O. ._ ` T I Y ! K K F ",
"1.f.f...9 q q V B B N 8 X.u.5.M ",
"1.f.f.a.9.9.a.u.7.e.7.6.7.1.5.m ",
"1.f.f.{ ] r.Z r e w <.E F <.2.m ",
"1.f.b p p &.; = * & { 2 1 u <.c ",
"&.f.h @.1.O.- S S % ! Y K 2 1.z ",
"&.f.g y 4.&.$ @ o + ! ! > < <.l ",
"&.u.u.y &.` # O X X G F : { &.z ",
"@.i.1.p 1.` 7 5 3 4 H R < ! &.g ",
"{ i.u.E Y 1.;.&.@.&.&.n n #.&.g ",
"! ! E F F n v z h h s f h g g g ",
"                                ",
"                                "
};
