/* XPM */
static char *za[] = {
/* columns rows colors chars-per-pixel */
"16 16 169 2 ",
"   c None",
".  c black",
"X  c #002D00",
"o  c #003900",
"O  c #004500",
"+  c #006500",
"@  c #006900",
"#  c #535353",
"$  c #6F6F6F",
"%  c #727273",
"&  c #767676",
"*  c #E90000",
"=  c #EB0000",
"-  c #ED0000",
";  c #EF0000",
":  c #F10000",
">  c #F30000",
",  c #F50000",
"<  c #F70000",
"1  c #F90000",
"2  c #FB0000",
"3  c #FD0000",
"4  c #F32727",
"5  c #F62C2C",
"6  c #F73131",
"7  c #F83737",
"8  c #F93C3D",
"9  c #FA4242",
"0  c #FB4747",
"q  c #F74949",
"w  c #F74E4E",
"e  c #F85353",
"r  c #F95757",
"t  c #FA5C5C",
"y  c #E7696B",
"u  c #FB6060",
"i  c #FC6565",
"p  c #FC676B",
"a  c #FC6969",
"s  c #FD6D6D",
"d  c #FD7072",
"f  c #00850F",
"g  c #008513",
"h  c #1A9534",
"j  c #179D3B",
"k  c #1F9838",
"l  c #259A3D",
"z  c #2A9D42",
"x  c #29A14C",
"c  c #30A048",
"v  c #36A34D",
"b  c #2EA350",
"n  c #32A555",
"m  c #3BA451",
"M  c #34A758",
"N  c #37A859",
"B  c #37AA5A",
"V  c #3AA859",
"C  c #39A85C",
"Z  c #3BAB5C",
"A  c #3BAB5D",
"S  c #3CAB5E",
"D  c #3FAF5F",
"F  c #3FAA60",
"G  c #3EAB61",
"H  c #72BA5D",
"J  c #40AE60",
"K  c #40AE64",
"L  c #43AE65",
"P  c #43AF67",
"I  c #47AE65",
"U  c #43B065",
"Y  c #46B165",
"T  c #48B169",
"R  c #4BB36D",
"E  c #52B362",
"W  c #53B564",
"Q  c #50B36F",
"!  c #51B46D",
"~  c #58B76C",
"^  c #4BBF77",
"/  c #54B776",
"(  c #5DB777",
")  c #5CB979",
"_  c #6EBC60",
"`  c #73BB67",
"'  c #6DBF72",
"]  c #66BE7B",
"[  c #61BD7F",
"{  c #5CC07E",
"}  c #9F8300",
"|  c #B39B00",
" . c #81C300",
".. c #9DCD00",
"X. c #8D8D56",
"o. c #999555",
"O. c #A29E5E",
"+. c #84BB5A",
"@. c #BEB670",
"#. c #DCD454",
"$. c #E9DB55",
"%. c #E2DB5E",
"&. c #E6E356",
"*. c #C9C17E",
"=. c #EAE868",
"-. c #E5EC74",
";. c #000081",
":. c #000083",
">. c #000087",
",. c #000089",
"<. c #00008B",
"1. c #00008F",
"2. c #000091",
"3. c #000093",
"4. c #000099",
"5. c #00009B",
"6. c #00009D",
"7. c #0000B5",
"8. c #0B0BC0",
"9. c #0F0FC2",
"0. c #1313C4",
"q. c #1819C6",
"w. c #1E1EC7",
"e. c #2323C9",
"r. c #2F2FC9",
"t. c #2C2CCA",
"y. c #2F2FCA",
"u. c #3232CC",
"i. c #3535CD",
"p. c #3939CF",
"a. c #3B38D2",
"s. c #3D3DD0",
"d. c #4242D2",
"f. c #4646D2",
"g. c #514FD8",
"h. c #635FCB",
"j. c #77C98C",
"k. c #7BC690",
"l. c #7BC894",
"z. c #F8A1A0",
"x. c #F9ABAC",
"c. c #F5B5B6",
"v. c #F6B7B8",
"b. c #F7BABA",
"n. c #F8BCBD",
"m. c #F9BEBF",
"M. c #92D8AB",
"N. c #ADDCB9",
"B. c #E9F287",
"V. c #888BDD",
"C. c #95ADCB",
"Z. c #8581E4",
"A. c #B0AEE6",
"S. c #B3B0E8",
"D. c #B5B2E9",
"F. c #B7B4EA",
"G. c #BAB7EB",
"H. c #BCB9EA",
"J. c #F6BEC0",
"K. c #D9D1CB",
"L. c #FAC9CA",
"P. c #C4E5D5",
"I. c #CDE3DB",
"U. c #CDE4D8",
"Y. c #D3EBDF",
"T. c #C4C3EE",
"R. c #D8E6E3",
"E. c #E8EBE4",
"W. c #E4EEE8",
/* pixels */
"                                ",
"                                ",
"                                ",
"g f ^ K.4 3 3 3 2 2 < < > > - - ",
" .l.k.M.W.x.d s a i u t r e w = ",
"| B.] ) { Y.z.p 0 9 8 7 6 5 q = ",
". *.=.' / ! P.E.L.n.n.b.v.c.J.y ",
". & O.%.` ~ Y U R T L G C M Q O ",
". % # X.$.H U A v c z l k h m X ",
". $ o.#.+.W C B J S B n b x I o ",
". @.&._ L V U.R.T.G.F.D.S.A.H.h.",
"} -.W S D N.V.a.e.w.q.0.9.8.y.:.",
"..[ ( j.I.Z.g.f.f.p.a.i.u.y.y.:.",
"@ + j C.7.6.6.4.2.2.1.,.:.,.:.,.",
"                                ",
"                                "
};
