/* XPM */
static char *zm[] = {
/* columns rows colors chars-per-pixel */
"16 16 145 2 ",
"   c None",
".  c black",
"X  c #100F0B",
"o  c #151410",
"O  c #1A1914",
"+  c #1F1D1A",
"@  c #240F0E",
"#  c #291414",
"$  c #2E1919",
"%  c #331F1F",
"&  c #112700",
"*  c #003300",
"=  c #003900",
"-  c #003B00",
";  c #003D00",
":  c #232320",
">  c #372525",
",  c #34332F",
"<  c #3E3432",
"1  c #004100",
"2  c #004700",
"3  c #004D00",
"4  c #005300",
"5  c #005900",
"6  c #005D00",
"7  c #006300",
"8  c #006900",
"9  c #006D00",
"0  c #006F00",
"q  c #007300",
"w  c #007500",
"e  c #007700",
"r  c #007900",
"t  c #007B00",
"y  c #007D00",
"u  c #007F00",
"i  c #037F03",
"p  c #C50000",
"a  c #CF0000",
"s  c #D70000",
"d  c #DD0000",
"f  c #DF0000",
"g  c #E30000",
"h  c #E50000",
"j  c #E70000",
"k  c #ED1313",
"l  c #EE1919",
"z  c #EF1F1F",
"x  c #E4241C",
"c  c #E62922",
"v  c #E72F28",
"b  c #F12525",
"n  c #F52B2B",
"m  c #E9342E",
"M  c #EF3535",
"N  c #EB3A33",
"B  c #E8423C",
"V  c #EB7E35",
"C  c #ED7F37",
"Z  c #038103",
"A  c #499F49",
"S  c #4DA14D",
"D  c #4EA24E",
"F  c #50A250",
"G  c #52A452",
"H  c #53A553",
"J  c #54A554",
"K  c #56A656",
"L  c #57A757",
"P  c #57A857",
"I  c #58A858",
"U  c #59A859",
"Y  c #5BA95B",
"T  c #5BAA5B",
"R  c #5CAA5C",
"E  c #5DAB5D",
"W  c #5EAB5D",
"Q  c #5EAB5E",
"!  c #5EAE5D",
"~  c #59B466",
"^  c #60AC60",
"/  c #60AD60",
"(  c #61AD61",
")  c #62AC62",
"_  c #62AE62",
"`  c #64AF64",
"'  c #65AF64",
"]  c #65AE65",
"[  c #68AF68",
"{  c #78AE68",
"}  c #65B065",
"|  c #66B065",
" . c #67B067",
".. c #67B167",
"X. c #69B069",
"o. c #69B169",
"O. c #69B269",
"+. c #6AB26A",
"@. c #6AB36A",
"#. c #6BB36C",
"$. c #6DB26D",
"%. c #6DB46D",
"&. c #6DB56D",
"*. c #6EB56E",
"=. c #6EB66E",
"-. c #6FB66F",
";. c #71B471",
":. c #71B771",
">. c #72B772",
",. c #73B772",
"<. c #75B775",
"1. c #76B976",
"2. c #76BA76",
"3. c #79B979",
"4. c #79BC79",
"5. c #79BC7A",
"6. c #7ABC7A",
"7. c #7CBD7C",
"8. c #7DBC7D",
"9. c #7CBE7C",
"0. c #7FBF7F",
"q. c #ED833B",
"w. c #ED853F",
"e. c #E78C3F",
"r. c #E88839",
"t. c #9CB075",
"y. c #DD9F5B",
"u. c #EE8843",
"i. c #F18A47",
"p. c #E89957",
"a. c #E3A25F",
"s. c #E8A465",
"d. c #80BE80",
"f. c #84C084",
"g. c #87C287",
"h. c #88C388",
"j. c #8AC38A",
"k. c #8BC48B",
"l. c #8DC58D",
"z. c #8EC68F",
"x. c #8FC78F",
"c. c #91C891",
"v. c #94C894",
"b. c #94C994",
"n. c #95CA95",
/* pixels */
"                                ",
"                                ",
"                                ",
"Z Z Z Z i i r w q 9 8 7 6 5 4 3 ",
"Z n.n.b.c.x.x.j.j.f.t.s.a.y.p.& ",
"Z n.0.9.6.1.,.=.@.} ~ ! e.r.{ 1 ",
"i v.6.6.1.>.=.@. ._ Q U J F [ - ",
"i x.6.1.>.=.@.} _ Q N n > : i.j ",
"i x.1.;.=.@.] _ Q P m b % + u.j ",
"w j.>.=.@.} _ Q P H v z $ O w.g ",
"q j.$.@._ ^ Q J H S c l # o q.d ",
"q d.@.] ^ U J F S A x k @ X C d ",
"8 d.0.3.<.;.$.@.] _ B M < , C d ",
"7 5 5 4 3 2 1 ; - * p s . . a d ",
"                                ",
"                                "
};
