/* XPM */
static char *zw[] = {
/* columns rows colors chars-per-pixel */
"16 16 167 2 ",
"   c None",
".  c black",
"X  c #000100",
"o  c #001F00",
"O  c gray10",
"+  c gray12",
"@  c #002100",
"#  c #002500",
"$  c #002900",
"%  c #002B00",
"&  c #002D00",
"*  c #003300",
"=  c #003700",
"-  c #003900",
";  c #003D00",
":  c #252525",
">  c #2A2B2B",
",  c gray19",
"<  c gray21",
"1  c gray23",
"2  c #5F0000",
"3  c #004100",
"4  c #004700",
"5  c #004D00",
"6  c #005300",
"7  c #005900",
"8  c #005D00",
"9  c #005F00",
"0  c #006300",
"q  c #006900",
"w  c #006D00",
"e  c #006F00",
"r  c #007300",
"t  c #007500",
"y  c #007900",
"u  c #007D00",
"i  c #007F00",
"p  c #404242",
"a  c #890000",
"s  c #AD0000",
"d  c #B90000",
"f  c #B02F20",
"g  c #B33425",
"h  c #B5392B",
"j  c #B83F30",
"k  c #C53614",
"l  c #C73A19",
"z  c #C93F1F",
"x  c #D73C10",
"c  c #BB4436",
"v  c #BC493C",
"b  c #BB4C3F",
"n  c #D84014",
"m  c #D94419",
"M  c #DB491F",
"N  c #CA4324",
"B  c #CC482A",
"V  c #CE4D2F",
"C  c #DD4E24",
"Z  c #DE5826",
"A  c #DE522A",
"S  c #CD5236",
"D  c #D05235",
"F  c #DD5832",
"G  c #D3573A",
"H  c #DD5A3A",
"J  c #E0552F",
"K  c #E05C2B",
"L  c #E15B34",
"P  c #E16131",
"I  c #E36536",
"U  c #E4693C",
"Y  c #9C5C56",
"T  c #BE4E41",
"R  c #A15746",
"E  c #96634E",
"W  c #A4775D",
"Q  c #C15346",
"!  c #E56D42",
"~  c #E26F44",
"^  c #E77247",
"/  c #E8764B",
"(  c #E67551",
")  c #008100",
"_  c #008500",
"`  c #059300",
"'  c #86C331",
"]  c #87C434",
"[  c #8AC637",
"{  c #8CC73B",
"}  c #8EC83F",
"|  c #DFDD00",
" . c #E9E900",
".. c #F1F00B",
"X. c #F1F10E",
"o. c #F2F113",
"O. c #F3F219",
"+. c #F4F31E",
"@. c #F5F423",
"#. c #F6F529",
"$. c #F2F12F",
"%. c #F6F62C",
"&. c #F7F72E",
"*. c #F7F731",
"=. c #F8F834",
"-. c #F8F837",
";. c #F9F43A",
":. c #F9F93D",
">. c #A7A54B",
",. c #8AA962",
"<. c #95B37E",
"1. c #B9B762",
"2. c #F2BD5E",
"3. c #E7876F",
"4. c #ED9379",
"5. c #EE977D",
"6. c #EE977E",
"7. c #90CB42",
"8. c #94CD46",
"9. c #97CE4B",
"0. c #94D24E",
"q. c #99D050",
"w. c #98D353",
"e. c #9CD154",
"r. c #9BD557",
"t. c #9FD359",
"y. c #9ED75C",
"u. c #A2D45D",
"i. c #A1D860",
"p. c #A4DA65",
"a. c #A7DC69",
"s. c #A9DD6D",
"d. c #ABDE71",
"f. c #ADDF74",
"g. c #AFE077",
"h. c #B2E179",
"j. c #FAFA42",
"k. c #FBFB47",
"l. c #F7F749",
"z. c #FCFB4F",
"x. c #FCFC4C",
"c. c #FDFD51",
"v. c #FDFC53",
"b. c #FDFD54",
"n. c #FEFD58",
"m. c #FEFC59",
"M. c #F1A28C",
"N. c #F1A690",
"B. c #F2B9A9",
"V. c #F7D68F",
"C. c #FEFD84",
"Z. c #EDC5BD",
"A. c #D7E1D7",
"S. c #E1E7E1",
"D. c #EFEFEF",
"F. c #F1ECE8",
"G. c #F1EFF1",
"H. c #EFF2F0",
"J. c #F5F4F0",
"K. c #F4F3F4",
"L. c #F5F3F5",
"P. c gray96",
"I. c gray97",
"U. c #FAFAF9",
"Y. c #FCFCFB",
"T. c #FFFAFC",
"R. c gray99",
/* pixels */
"                                ",
"                                ",
"                                ",
"A.= _ ) u u y t t w q 0 8 7 6 7 ",
"L.R.<.h.g.f.d.s.a.p.i.y.r.w.0.` ",
"P.T.Y.1.n.b.c.x.k.j.:.=.*.%.l. .",
"P.C.N.Y.W ( / ^ ^ U I F Z Z ~ d ",
"3.V.n.6.4.Y Q T v c c h g f T 2 ",
"Z.M.v.z.B.U.p 1 < , > : + O 1 . ",
"G.6.z.2.K.R G D V B N N l k S a ",
"D.U.U.F.E H L J A C M m n x F s ",
"D.R.J.>.;.=.%.#.@.O.O.o.X...$.| ",
"I.H.,.u.t.e.q.9.8.7.} { [ ] ' w ",
"S.. 0 6 5 4 3 ; - * & $ # @ o & ",
"                                ",
"                                "
};
