/* XPM */
static char * lambda_16_xpm[] = {
"16 16 2 1",
" 	c None",
".	c #FFFFFF",
"                ",
".. ..           ",
".. ..           ",
" .. ..          ",
" .. ..          ",
"  .. .. ........",
"  .. .. ........",
"   .. ..        ",
"   .. ..        ",
"  .. .... ......",
"  .. .... ......",
" .. ..  ..      ",
" .. ..  ..      ",
".. ..    ..     ",
".. ..    ..     ",
"                "
};
